<?xml version="1.0" encoding="utf-8"?>
<!-- Generator: Adobe Illustrator 27.1.1, SVG Export Plug-In . SVG Version: 6.00 Build 0)  -->
<svg version="1.1" id="Layer_1" xmlns="http://www.w3.org/2000/svg" xmlns:xlink="http://www.w3.org/1999/xlink" x="0px" y="0px"
	 viewBox="0 0 1573.2 1474.3" style="enable-background:new 0 0 1573.2 1474.3;" xml:space="preserve">
	 	 	 	 <style>

#captain{
	  animation: bounce 0.5s infinite;
}



@keyframes bounce {
  0% {
    transform: translate3d(0px, 0px, 0);
  }
  50% {
    transform: translate3d(0px, -4px, 0);
  }
  100% {
    transform: translate3d(0px, 0px, 0);
  }
}
	 
</style>
<g id="captain">
<g id="arm_00000147903452828628747090000007415512359249935797_">
	<g id="f1_00000037665738795061960640000008457250936989079471_">
		
			<linearGradient id="SVGID_1_" gradientUnits="userSpaceOnUse" x1="469.95" y1="1256.6274" x2="590.85" y2="1256.6274" gradientTransform="matrix(-0.9941 0.1082 -0.1082 -0.9941 1704.8955 1816.6887)">
			<stop  offset="0.3425" style="stop-color:#CCCCFF"/>
			<stop  offset="0.9574" style="stop-color:#6699FF"/>
			<stop  offset="1" style="stop-color:#CCCCDC"/>
		</linearGradient>
		<polygon style="fill:url(#SVGID_1_);stroke:#000033;stroke-width:4;stroke-miterlimit:10;" points="1092.7,577.3 1106.2,659.8 
			1032.8,667.8 979.8,615.7 		"/>
		<path style="fill:#061123;" d="M1186.7,796.8c0,0-7.4,7.9-11,11.2c-3.6,3.2-17.4-3.5-37.4-14.5c-20-11-119.9-131.7-119.9-131.7
			c34.2-35.5,96.3-14.5,96.3-14.5c5.3,40.3,42,93.5,42,93.5s22.1-30.6,31.8-28.8c9.6,1.8,20.3,24,20.3,24s16.7,3.7,20.7,5.7
			c4,2.1-3.7,36-4.3,38.5c-0.4,2-8.7,4.7-12.7,5.8c-1.3,0.4-2,0.6-2,0.6C1206,802.3,1186.7,796.8,1186.7,796.8z"/>
		
			<animate  accumulate="none" additive="replace" attributeName="display" begin="0s" calcMode="linear" dur="7s" fill="remove" id="head" keyTimes="0;0.4;0.42;0.44; 0.96; 0.98; 1" repeatCount="indefinite" restart="always" values="inline;none;none;none;none;none;none">
			</animate>
	</g>
	<g id="f2_00000035511911620889146790000002774522941367718536_">
		
			<linearGradient id="SVGID_00000090295386232887188590000002875752819207521688_" gradientUnits="userSpaceOnUse" x1="392.65" y1="1348.5774" x2="509.55" y2="1348.5774" gradientTransform="matrix(-0.9941 0.1082 -0.1082 -0.9941 1704.8955 1816.6887)">
			<stop  offset="0.3425" style="stop-color:#CCCCFF"/>
			<stop  offset="0.9574" style="stop-color:#6699FF"/>
			<stop  offset="1" style="stop-color:#CCCCDC"/>
		</linearGradient>
		
			<path style="fill:url(#SVGID_00000090295386232887188590000002875752819207521688_);stroke:#000033;stroke-width:4;stroke-miterlimit:10;" d="
			M1081.5,627.7l-5.7,31.2l77.7,4l25-52.9l-33.4-15.8c0,0-10.8-81.1-10.6-95.4c0.3-14.3-0.4-0.6-0.4-0.6
			c-4.1-50.3-37.6-86.8-54.5-94c-9.2-16-4.5-10.3-26.2-15.9l-6.2,52.2l13.2,165.8L1081.5,627.7z"/>
		<g>
			<path style="fill:#061123;" d="M1271.9,619L1271.9,619c-20.6-3.5-72-13.4-97.8-28c0,0-61.7,23.8-48.6,79.4
				c0,0,115.9,3.8,165.3-6.3c10.6,4.1,36.8,14,42,13.3c6.6-0.7,26.5-4.7,26.5-4.7l18.5-24.3c0,0-4.6-5.8-8.3-5.1l7.9-18.2
				c0,0-6.6-5.4-10.4-4.8c-3.8,0.6-7.5,3-7.5,3l-6.2-28.4c0,0-7.9,0.8-10.1,3.9c-2.2,3.2,0,21,0,21s-3.5,7.6-11.6,5.6
				c-8.1-2-14.7-7.9-14.7-7.9s21.9-2.9,15.7-21.7c0,0-31.8,8.2-34.1,10.7C1296.1,609.1,1271.7,619.1,1271.9,619z"/>
			<path style="fill:#061123;" d="M1276.8,611.5c0.1,0.7,0.1,1.2,0.2,1.8C1276.9,612.8,1276.8,612.2,1276.8,611.5z"/>
		</g>
		
			<animate  accumulate="none" additive="replace" attributeName="display" begin="0s" calcMode="linear" dur="7s" fill="remove" id="head" keyTimes="0;0.4;0.42;0.44; 0.96; 0.98; 1" repeatCount="indefinite" restart="always" values="none;inline;none;none;none;none;none">
			</animate>
	</g>
	<g id="f3_00000049907216498355249170000007342583648105086363_">
		
			<linearGradient id="SVGID_00000136371144999694131040000004286931980657487806_" gradientUnits="userSpaceOnUse" x1="431.5948" y1="671.1379" x2="434.0507" y2="1275.2933" gradientTransform="matrix(-0.9609 0.2771 -0.2771 -0.9609 1715.3086 1237.1156)">
			<stop  offset="0.3425" style="stop-color:#CCCCFF"/>
			<stop  offset="0.9574" style="stop-color:#6699FF"/>
			<stop  offset="1" style="stop-color:#CCCCDC"/>
		</linearGradient>
		
			<path style="fill:url(#SVGID_00000136371144999694131040000004286931980657487806_);stroke:#000033;stroke-width:4;stroke-miterlimit:10;" d="
			M959.3,598.4c26.3,14.1,66.8,39.6,90.5,50c62.4,27.4,98.1,3.1,98.1,3.1l40.4-28c0,0-3.7-1.3-9.3-4.3l26-15.5l-18.6-26.8l-47.8,3.6
			c-1.3-2.4-2.4-4.9-3.5-7.5c-15.2-36.7-92.8-70.2-92.8-70.2s-18.6-41.6-27.5-51.6c-7.2-8.2-70.7-3.4-93.5-1.7L959.3,598.4z"/>
		<g>
			<path style="fill:#061123;" d="M1246.4,534.8L1246.4,534.8c-18.7,9.3-66,31.6-95.5,35c0,0-35.8,55.6,7.6,92.6
				c0,0,95.8-65.2,129.8-102.6c11-2.9,38-10.5,41.8-14c4.8-4.5,18.6-19.4,18.6-19.4l0.5-30.5c0,0-7.2-2-9.8,0.8l-4.3-19.3
				c0,0-8.6-0.5-11.2,2.2s-4.3,6.9-4.3,6.9l-21.7-19.3c0,0-6,5.3-5.9,9.2c0.1,3.9,12.3,17.1,12.3,17.1s1.6,8.2-6.1,11.3
				c-7.7,3.1-16.5,2.3-16.5,2.3s15.9-15.3-0.1-26.8c0,0-20.9,25.3-21.3,28.8C1259.9,512.3,1246.1,534.7,1246.4,534.8z"/>
			<path style="fill:#061123;" d="M1245.7,525.7c0.5,0.5,0.8,0.8,1.2,1.3C1246.6,526.6,1246.1,526.2,1245.7,525.7z"/>
		</g>
		
			<animate  accumulate="none" additive="replace" attributeName="display" begin="0s" calcMode="linear" dur="7s" fill="remove" id="head" keyTimes="0;0.4;0.42;0.44; 0.96; 0.98; 1" repeatCount="indefinite" restart="always" values="none;none;inline;none;none;none;none">
			</animate>
	</g>
	<g id="f4_00000162325951421676262570000007933901337587181976_">
		
			<linearGradient id="SVGID_00000160170335422454666510000007190966406738981788_" gradientUnits="userSpaceOnUse" x1="373.75" y1="929.2966" x2="574.2823" y2="929.2966" gradientTransform="matrix(-0.9941 0.1082 -0.1082 -0.9941 1662.2611 1425.0022)">
			<stop  offset="0.3425" style="stop-color:#CCCCFF"/>
			<stop  offset="0.9574" style="stop-color:#6699FF"/>
			<stop  offset="1" style="stop-color:#CCCCDC"/>
		</linearGradient>
		
			<path style="fill:url(#SVGID_00000160170335422454666510000007190966406738981788_);stroke:#000033;stroke-width:4;stroke-miterlimit:10;" d="
			M1197.9,612.9c-78,80.9-115.1,50.3-115.1,50.3s-98.9-146.6-98.9-164.1c0-17.5,28.6-56.1,50.5-58.7
			c21.8-2.6,103.2,123.8,103.2,123.8l46.6-32.8L1197.9,612.9z"/>
		<path style="fill:#061123;" d="M1190.4,632.5c0,0,57.4-71.1,91.1-129.4c1.9-3.4,7.9-11.5,12.2-17.8l44.5-23.7
			c0,0,7.4-3.7,6.8-12.7c-0.5-7.8-2.3-8.6-2.3-8.6l1.9-3.3c4-9.1-4.8-19.8-4.8-19.8c8.3-5.5,0.6-17.4,0.6-17.4s40-15,40.9-21.5
			c1-6.4-8.9-6.6-17.8-4.9c-18.5,2.4-54.6,14.7-73.6,21.5c-4.3-0.3-7.8-0.8-9-1c-3.6-1-12.4,18.6-12.4,18.6l0,0
			c-7.5,13.4-12.2,28.9-15,40.1c-22.2,23.7-75.7,77.5-106,93C1147.6,545.6,1125.3,608.9,1190.4,632.5z"/>
		
			<animate  accumulate="none" additive="replace" attributeName="display" begin="0s" calcMode="linear" dur="7s" fill="remove" id="head" keyTimes="0;0.4;0.42;0.44; 0.96; 0.98; 1" repeatCount="indefinite" restart="always" values="none;none;none;inline;none;none;none">
			</animate>
	</g>
	<g id="f5_00000089545568345400725930000013895134342420992939_">
		
			<linearGradient id="SVGID_00000003786739125757489100000015436685972078368662_" gradientUnits="userSpaceOnUse" x1="431.5948" y1="671.1379" x2="434.0507" y2="1275.2933" gradientTransform="matrix(-0.9609 0.2771 -0.2771 -0.9609 1715.3086 1237.1156)">
			<stop  offset="0.3425" style="stop-color:#CCCCFF"/>
			<stop  offset="0.9574" style="stop-color:#6699FF"/>
			<stop  offset="1" style="stop-color:#CCCCDC"/>
		</linearGradient>
		
			<path style="fill:url(#SVGID_00000003786739125757489100000015436685972078368662_);stroke:#000033;stroke-width:4;stroke-miterlimit:10;" d="
			M959.3,598.4c26.3,14.1,66.8,39.6,90.5,50c62.4,27.4,98.1,3.1,98.1,3.1l40.4-28c0,0-3.7-1.3-9.3-4.3l26-15.5l-18.6-26.8l-47.8,3.6
			c-1.3-2.4-2.4-4.9-3.5-7.5c-15.2-36.7-92.8-70.2-92.8-70.2s-18.6-41.6-27.5-51.6c-7.2-8.2-70.7-3.4-93.5-1.7L959.3,598.4z"/>
		<g>
			<path style="fill:#061123;" d="M1246.4,534.8L1246.4,534.8c-18.7,9.3-66,31.6-95.5,35c0,0-35.8,55.6,7.6,92.6
				c0,0,95.8-65.2,129.8-102.6c11-2.9,38-10.5,41.8-14c4.8-4.5,18.6-19.4,18.6-19.4l0.5-30.5c0,0-7.2-2-9.8,0.8l-4.3-19.3
				c0,0-8.6-0.5-11.2,2.2s-4.3,6.9-4.3,6.9l-21.7-19.3c0,0-6,5.3-5.9,9.2c0.1,3.9,12.3,17.1,12.3,17.1s1.6,8.2-6.1,11.3
				c-7.7,3.1-16.5,2.3-16.5,2.3s15.9-15.3-0.1-26.8c0,0-20.9,25.3-21.3,28.8C1259.9,512.3,1246.1,534.7,1246.4,534.8z"/>
			<path style="fill:#061123;" d="M1245.7,525.7c0.5,0.5,0.8,0.8,1.2,1.3C1246.6,526.6,1246.1,526.2,1245.7,525.7z"/>
		</g>
		
			<animate  accumulate="none" additive="replace" attributeName="display" begin="0s" calcMode="linear" dur="7s" fill="remove" id="head" keyTimes="0;0.4;0.42;0.44; 0.96; 0.98; 1" repeatCount="indefinite" restart="always" values="none;none;none;none;inline;none;none">
			</animate>
	</g>
	<g id="f6_00000085960504988060473470000016624607418683160706_">
		
			<linearGradient id="SVGID_00000047768081574348403630000011556478189370192028_" gradientUnits="userSpaceOnUse" x1="392.65" y1="1348.5774" x2="509.55" y2="1348.5774" gradientTransform="matrix(-0.9941 0.1082 -0.1082 -0.9941 1704.8955 1816.6887)">
			<stop  offset="0.3425" style="stop-color:#CCCCFF"/>
			<stop  offset="0.9574" style="stop-color:#6699FF"/>
			<stop  offset="1" style="stop-color:#CCCCDC"/>
		</linearGradient>
		
			<path style="fill:url(#SVGID_00000047768081574348403630000011556478189370192028_);stroke:#000033;stroke-width:4;stroke-miterlimit:10;" d="
			M1081.5,627.7l-5.7,31.2l77.7,4l25-52.9l-33.4-15.8c0,0-10.8-81.1-10.6-95.4c0.3-14.3-0.4-0.6-0.4-0.6c4.6-49.2-32-89.7-56-100.6
			c-14.3-12.7-3-3.7-24.7-9.3l-6.2,52.2l13.2,165.8L1081.5,627.7z"/>
		<g>
			<path style="fill:#061123;" d="M1271.9,619L1271.9,619c-20.6-3.5-72-13.4-97.8-28c0,0-61.7,23.8-48.6,79.4
				c0,0,115.9,3.8,165.3-6.3c10.6,4.1,36.8,14,42,13.3c6.6-0.7,26.5-4.7,26.5-4.7l18.5-24.3c0,0-4.6-5.8-8.3-5.1l7.9-18.2
				c0,0-6.6-5.4-10.4-4.8c-3.8,0.6-7.5,3-7.5,3l-6.2-28.4c0,0-7.9,0.8-10.1,3.9c-2.2,3.2,0,21,0,21s-3.5,7.6-11.6,5.6
				c-8.1-2-14.7-7.9-14.7-7.9s21.9-2.9,15.7-21.7c0,0-31.8,8.2-34.1,10.7C1296.1,609.1,1271.7,619.1,1271.9,619z"/>
			<path style="fill:#061123;" d="M1276.8,611.5c0.1,0.7,0.1,1.2,0.2,1.8C1276.9,612.8,1276.8,612.2,1276.8,611.5z"/>
		</g>
		
			<animate  accumulate="none" additive="replace" attributeName="display" begin="0s" calcMode="linear" dur="7s" fill="remove" id="head" keyTimes="0;0.4;0.42;0.44; 0.96; 0.98; 1" repeatCount="indefinite" restart="always" values="none;none;none;none;none;inline;none">
			</animate>
	</g>
</g>
<g id="cape">
	<g id="frame1">
		<g>
			<path style="fill:#061123;" d="M654.9,899.8c0,0,40.1-4.3,44.7,3s5.2,14.2-5.6,25.4s4.8,32.3,40,32.9c35.7,0.5,79.5-9.8,93.9-8.6
				c14.3,1.2,88.3,5.2,104.5-21c16.3-26.3,6.4-28.7,28.8-35.5c22.3-6.9,90.1-22.2,100-47.2c9.7-24.9,7.5-33.8-5.9-67.4
				c-13.2-33.8-66-123.8-81.3-157.7c-15.3-33.8-38-137.1-42.3-164.9s-21.9-61.9-43.6-66.1c0,0-42.3-11.1-121.8,7.6
				s-161.9,43.2-265.1,21.4c-103.3-22-284.2-49.9-351.2-10.4c0,0,128.4,30.7,103.3,114.6c0,0-9,21.7-36.4,41.8s-62.9,67.3-42.7,98
				c20.3,30.8,48.9,41.7,95.6,47c0,0,63.4,4.9,71.6,33c0,0,11,20.7-2.5,39.4c0,0-35.8,29.8-39.2,45s-9.6,52.6,46.1,82.7
				c55.6,30.1,158.1,8.9,158.1,8.9s125.4-21.1,154.8-22.2"/>
			<path style="fill:#061123;" d="M336.7,787.2c-7.5,6.6-34.2,30.3-37.2,43.3c-3.4,15.2-9.6,52.6,46.1,82.7
				c46.3,24.9,124.4,14.6,150,10.3c3.1-15.7,7.7-35.5,13.7-54.2c13.1-40.2,111-227.7,111-227.7L731.1,555l61.6-5.5l12.7,10.4
				l-52.1,325l-2.1,75.9c31.3-1.9,64.4-9.1,76.5-8.1c7.5,0.6,31.7,1.9,55-0.8c16.2-67.8,46.9-204.4,41-234.2c0,0,35,57.8,26.1,106.9
				l9.9-25l16.7,18.5c0,0-32.7-133.2-32.6-152.1S911.5,419.5,902,401.5c-0.5-0.7-0.5-1.6-0.4-2.3c-4.3-3.3-8.8-5.7-13.5-6.6
				c0,0-42.3-11.1-121.8,7.6C724.6,410,682,421.5,636,427c-0.4,4.4-0.6,7.7-1.5,7.7c-2.1-0.2-182.7,16.6-182.7,16.6
				c43.6,18.9,171.8,13.5,171.8,13.5s101,4.5,1.1,13.8c-1.3,0.1-2.8,0.2-4.2,0.3c-101.4,11.7-304.4,104.5-304.4,104.5
				s122.8-47.1,156.6-49.7s58.1,1.1,72.9,9.2c15,8,102-28.1,102-28.1l17.9,40.9c0,0-113.8,72-144.7,98.7
				C494.5,677.1,382.6,755.1,349.4,778L336.7,787.2z"/>
			<path style="fill:#061123;" d="M325.2,724.4l146.4-78.2c-43,20.7-101.7,32.6-136.9,32.8c-39.6,0.3-85.6,10.5-103.8,17.7
				c-4,1.6-8.1,3.2-12.1,4.7c14.1,5.7,31.1,9,51.2,11.2c0,0,30.4,2.4,51.9,13.3L325.2,724.4"/>
		</g>
		
			<animate  accumulate="none" additive="replace" attributeName="display" begin="0s" calcMode="linear" dur="1s" fill="remove" id="frame1" keyTimes="0.0;0.1;0.2;0.3;0.4;0.5;0.6;0.7; 0.8;0.9;1" repeatCount="indefinite" restart="always" values="inline;none;none;none;none;none; none; none; none; none; none">
			</animate>
	</g>
	<g id="frame2">
		<g>
			<g>
				<path style="fill:#061123;" d="M658.8,899.7c-1.1,0.1-2.3,0.1-3.8,0.2l0,0L658.8,899.7z"/>
				<path style="fill:#061123;" d="M225.2,429.5c2.9,3.7,5,7.2,6.1,9.9c0,0,11.3,33.6-14.4,55.6c-21.6,18.5-67.1,59.4-67.9,94.4
					c0,0,1,17.6,6.9,27c6.3,10,19.3,30.4,70.2,42.6c73,17.8,77.8,14.7,96.5,33.4c18.7,18.6,13.8,40.6-5.5,61.5s-90.8,80.6-5.7,128.4
					c0,0,51.8,38.4,136.7,21s94.7-23.5,113-22.1s74.8,28.2,103.7,47.7c29.1,19.5,52.5,32.6,69.4,31.8c7.3-0.4,15-0.1,22.8-0.8
					c0.3,0,0.3,0,0.6-0.1c1.7-0.2,3.5-0.3,5.2-0.4c0.3,0,0.6-0.1,0.8-0.1c1.8-0.3,3.7-0.5,5.3-0.6c0,0,0,0,0.3,0
					c2-0.3,3.7-0.5,5.5-0.6c0.1,0,0.1,0,0.3,0c1.7-0.3,3.7-0.5,5.3-0.6c0.3,0,0.3,0,0.6-0.1c5.8-0.8,11.7-1.5,16.7-2.3
					c1.3-0.3,2.4-0.3,3.7-0.6c0.4,0.1,0.8-0.1,1.1-0.1c1.4-0.3,2.4-0.3,3.5-0.4c0.3,0,0.4-0.1,0.6-0.1c1.3-0.3,2.5-0.3,3.8-0.6
					c0.3,0,0.6-0.1,0.8-0.1c1.3-0.1,2.4-0.3,3.5-0.4c0,0,34.8-5.9,58-7.4c23.3-1.7,69-1.5,74.4-16.5s18-53.6,83.4-57
					c0,0,24.4,1.9,45.3-17.1c0,0,9.3-4.5,3.4-15.2c-5.9-10.9-38.2-80.4-54.5-100.6c-16.2-20.2-31.1-74.6-37.5-83.8
					c-6.2-9-13.7-32-13.7-32c-15.3-33.8-38-137.1-42.3-164.9c-3.5-23-15.9-50.2-32.6-61.6c-0.2-0.2-0.6-0.4-0.7-0.4
					c-0.4-0.2-0.6-0.4-1-0.5s-0.6-0.4-1-0.5s-0.6-0.4-1-0.4c-0.4-0.2-0.6-0.4-1-0.4c-0.4-0.2-0.7-0.3-1-0.4
					c-0.3-0.2-0.9-0.2-1.2-0.4c-0.3,0-0.6-0.2-0.9-0.2c-0.3-0.2-0.9-0.2-1.2-0.4c-0.3,0-0.3-0.2-0.6-0.2c-0.6-0.2-1.1-0.2-2-0.5
					c0,0-42.3-11-121.8,7.9c-2.5,0.6-4.9,1.2-7.6,1.8c-1.7,0.4-3.4,0.8-5.2,1.3c-0.6,0.1-1.5,0.4-2.1,0.5
					c-8.1,1.9-16.1,3.9-24.4,5.8h-0.3c-2.5,0.6-4.9,1.2-7.6,1.8c-0.3,0-0.4,0.1-0.6,0.1c-2.4,0.5-4.9,1.2-7.4,1.6
					c-0.3,0-0.6,0.1-0.8,0.1c-2.4,0.5-4.8,1-7.3,1.7c-0.3,0.1-0.6,0.1-0.8,0.2c-2.4,0.5-4.8,1-7.1,1.5c-0.6,0.1-0.7,0.1-1.1,0.2
					c-2.4,0.5-4.8,1-7.1,1.5c-0.6,0.1-0.7,0.1-1.1,0.2c-2.4,0.5-4.8,1-7.2,1.3c-0.6,0.1-0.7,0.1-1.1,0.2c-2.4,0.5-4.8,0.9-7.2,1.3
					c-0.4-0.1-0.7,0.1-1.1,0.1c-2.4,0.5-5.1,0.8-7.4,1.3c-0.3,0-0.6,0.1-0.8,0.1c-2.5,0.5-5.1,0.8-7.6,1.3c-0.3,0-0.4,0.1-0.6,0.1
					c-2.7,0.4-5.3,0.8-8,1.1c-0.1,0-0.1,0-0.4,0.1c-2.7,0.3-5.6,0.8-8.6,1.1c-7,0.8-14.1,1.4-21.3,2.1c0,0-92.6,20.1-225.3-19.5
					c0,0-135.6-44.9-214.7-16.8C175.1,392.6,210.8,412,225.2,429.5"/>
			</g>
			<path style="fill:#061123;" d="M324.1,638c-42.1,1.9-89.5-0.1-120.4,7.8c-3.5,0.9-8.7,1.2-15.1,1c9.6,4.7,21.7,9.1,37.1,12.7
				c35.1,8.5,54.4,12.4,67.1,16l145-62.9C437.9,612.6,366.2,636.1,324.1,638z"/>
			<path style="fill:#061123;" d="M881.9,906.7c3-32.4,38.9-100,36.1-162.2c0,0,10.9,62.8,2.1,119.4c6.1-32.4,16.9-97.7,13.1-140.8
				c-5.7-58.8-16.2-185.9,11.3-203.1l0,0c-6.1-26.6-10.9-50.4-12.7-61.6c-3.5-23-15.9-50.2-32.6-61.6c-0.2-0.2-0.6-0.4-0.7-0.4
				c-0.4-0.2-0.6-0.4-1-0.5c-0.4-0.2-0.6-0.4-1-0.5c-0.4-0.2-0.6-0.4-1-0.4c-0.4-0.2-0.6-0.4-1-0.4c-0.4-0.2-0.7-0.3-1-0.4
				c-0.3-0.2-0.9-0.2-1.2-0.4c-0.3,0-0.6-0.2-0.9-0.2c-0.3-0.2-0.9-0.2-1.2-0.4c-0.3,0-0.3-0.2-0.6-0.2c-0.6-0.2-1.1-0.2-2-0.5
				c0,0-42.3-11-121.5,7.8c-2.5,0.6-4.9,1.2-7.6,1.8c-1.7,0.4-3.4,0.8-5.2,1.3c-0.6,0.1-1.5,0.4-2.1,0.5c-8.1,1.9-16.1,3.9-24.4,5.8
				h-0.3c-2.5,0.6-4.9,1.2-7.6,1.8c-0.3,0-0.4,0.1-0.6,0.1c-2.4,0.5-4.9,1.2-7.4,1.6c-0.3,0-0.6,0.1-0.8,0.1c-2.4,0.5-4.8,1-7.3,1.7
				c-0.3,0.1-0.6,0.1-0.8,0.2c-2.4,0.5-4.8,1-7.1,1.5c-0.6,0.1-0.7,0.1-1.1,0.2c-2.4,0.5-4.8,1-7.1,1.5c-0.6,0.1-0.7,0.1-1.1,0.2
				c-2.4,0.5-4.8,1-7.2,1.3c-0.6,0.1-0.7,0.1-1.1,0.2c-2.4,0.5-4.8,0.9-7.2,1.3c-0.4-0.1-0.7,0.1-1.1,0.1c-2.4,0.5-5.1,0.8-7.4,1.3
				c-0.3,0-0.6,0.1-0.8,0.1c-2.5,0.5-5.1,0.8-7.6,1.3c-0.3,0-0.4,0.1-0.6,0.1c-2.7,0.4-5.3,0.8-8,1.1c-0.1,0-0.1,0-0.4,0.1
				c-2.7,0.3-5.6,0.8-8.6,1.1c-7,0.8-14.1,1.4-21.3,2.1c0,0-49.3,10.8-127.8,1c-22,1.9-44.3,0.8-44.3,0.8
				c53.5,21.4,165.7,28.4,165.7,28.4c-39.8,26.1-122,36.8-189,38.5c-50,1.3-94.2,23-113.3,34.1c10.6-0.1,14.4-3.9,28.4-8.1
				c28.8-8.1,78.6-7.6,118.6-9.7c40-2.1,66.5,0,66.5,0l-14.3,17.8c0,0,88.2-13.6,136.9-35.7l4.1,38.1l-14.1,72.8
				c0,0-62.2,82.8-100,85.1c-38,2.3-14.2-57.8,9.9-100.6c0,0-183.8,151.2-236.7,174.1l0,0c-25.6,26.5-67.3,76.1,5.3,117.1
				c0,0,51.8,38.4,136.7,21c14.9-2.9,27.2-5.6,37.8-8.1c-1.8-14.9-1.5-41.5,14.1-75.6c24.3-53.1,76.3-146.9,108.3-168.6
				c32-21.6,101.7-83.1,101.7-83.1l40-2.1L726.6,644L706,767c0,0-15.3,96.8-31.7,114.4c-9.6,10.2-25.2,23-36.6,31.7
				c9.7,5.4,18.8,10.7,26.1,15.6c29.1,19.5,52.5,32.6,69.4,31.8c7.3-0.4,15-0.1,22.8-0.8c0.3,0,0.3,0,0.6-0.1
				c1.7-0.2,3.5-0.3,5.2-0.4c0.3,0,0.6-0.1,0.8-0.1c1.8-0.3,3.7-0.5,5.3-0.6c0,0,0,0,0.3,0c2-0.3,3.7-0.5,5.5-0.6c0.1,0,0.1,0,0.3,0
				c1.7-0.3,3.7-0.5,5.3-0.6c0.3,0,0.3,0,0.6-0.1c5.8-0.8,11.7-1.5,16.7-2.3c1.3-0.3,2.4-0.3,3.7-0.6c0.4,0.1,0.8-0.1,1.1-0.1
				c1.4-0.3,2.4-0.3,3.5-0.4c0.3,0,0.4-0.1,0.6-0.1c1.3-0.3,2.5-0.3,3.8-0.6c0.3,0,0.6-0.1,0.8-0.1c1.3-0.1,2.4-0.3,3.5-0.4
				c0,0,22.1-3.6,42.7-5.9C869.2,936,880.4,921.7,881.9,906.7z"/>
		</g>
		
			<animate  accumulate="none" additive="replace" attributeName="display" begin="0s" calcMode="linear" dur="1s" fill="remove" id="frame2" keyTimes="0.0;0.1;0.2;0.3;0.4;0.5;0.6;0.7; 0.8;0.9;1" repeatCount="indefinite" restart="always" values="none;inline;none;none;none;none; none; none; none; none; none">
			</animate>
	</g>
	<g id="frame3">
		<path style="fill:#061123;" d="M607.4,863.1c-16.8-8.1-55.4-12.9-100,0.9S404,880,404,880c-132.6,6.8-151.3-58.2-151.3-58.2
			c-16.5-28.8,8.3-56.1,8.3-56.1l32.1-31.8c35.7-38.4,20-62,20-62c-12.9-26.8-86.6-41.2-86.6-41.2c-68.9-17.4-82-42.5-82-42.5
			c-31.1-47.1,20.4-91.2,20.4-91.2c69.6-51.3,32.8-100.5,32.8-100.5c36.2-12.6,126.9-0.4,204.5,24.6s216.2,10,216.2,10l0,0
			c4.6-0.5,11.6-3.4,16.2-3.9c2.7-0.3,5.6-0.8,8.6-1.1c0.1,0,0.1,0,0.4-0.1c2.5-0.3,5.3-0.8,8-1.1c0.3,0,0.4-0.1,0.6-0.1
			c2.5-0.3,5.1-0.8,7.6-1.3c0.3,0,0.6-0.1,0.8-0.1c2.4-0.5,5.1-0.8,7.4-1.3c0.4,0.1,0.7-0.1,1.1-0.1c2.4-0.5,4.8-0.9,7.2-1.3
			c0.6-0.1,0.7-0.1,1.1-0.2c2.4-0.5,4.8-1,7.2-1.3c0.6-0.1,0.7-0.1,1.1-0.2c2.4-0.5,4.8-1,7.1-1.5c0.6-0.1,0.7-0.1,1.1-0.2
			c2.4-0.5,4.8-1,7.1-1.5c0.3-0.1,0.6-0.1,0.8-0.2c2.4-0.5,4.8-1,7.3-1.7c0.3,0,0.6-0.1,0.8-0.1c2.4-0.5,4.9-1.2,7.4-1.6
			c0.3,0,0.4-0.1,0.6-0.1c2.5-0.6,4.9-1.2,7.6-1.8h0.3c8.1-1.9,16.2-3.9,24.4-5.8c0.6-0.1,1.5-0.4,2.1-0.5c1.7-0.4,3.4-0.8,5.2-1.3
			c2.5-0.6,4.9-1.2,7.6-1.8c79.5-18.7,121.8-7.6,121.8-7.6c0.6,0.1,1.1,0.2,2,0.5c0.3,0,0.3,0.2,0.6,0.2c0.3,0.2,0.9,0.2,1.2,0.4
			c0.3,0,0.6,0.2,0.9,0.2c0.3,0.2,0.7,0.3,1.2,0.4s0.6,0.2,1,0.4c0.4,0.3,0.6,0.4,1,0.4c0.4,0.2,0.6,0.4,1,0.4
			c0.4,0.2,0.6,0.4,1,0.5c0.4,0.2,0.6,0.4,1,0.5c0.2,0.2,0.6,0.4,0.7,0.4c16.7,11.1,29.3,38.4,32.6,61.6c0,0.7,0.2,1.4,0.4,2.1
			c0,0.2,0.2,0.4,0.2,0.4c0,0.7,0.3,1.4,0.4,2.3c0,0.2,0.2,0.4,0.2,0.5c0,0.7,0.2,1.6,0.4,2.3v0.2c0.3,0.8,0.4,1.7,0.5,2.6
			c0,0.2,0.2,0.4,0,0.7c0.2,0.9,0.4,1.9,0.6,2.8c0,0.2,0.2,0.4,0.2,0.4c0.2,0.9,0.4,1.9,0.6,2.8c0,0.2,0.2,0.4,0.2,0.5
			c0,1.1,0.4,2.1,0.4,3.1c0,0.2,0.2,0.5,0,0.7c0.5,2.3,0.9,4.8,1.5,7.2c0,0.2,0.2,0.5,0,0.7c0.3,1.2,0.5,2.5,0.9,3.8
			c0,0.2,0.2,0.4,0.2,0.5c0.3,1.2,0.5,2.6,0.9,3.8v0.2c0.3,1.4,0.7,2.8,1,4c0.2,0.2,0,0.5,0.2,0.7c0,0,12.8,77.6,17.5,93.4
			c4.8,15.8,25.4,53.5,28.3,69.2c2.7,15.7,13,35.4,20.5,48c7.7,12.7,37.2,66.5,46.1,82.7c8.8,16.1,27.3,45.1,26.5,67.3
			c0,0-2.2,10.2-22.3,6.9c-20.1-3.3-37.1-11.4-50.2,1.3C993,883,986.6,930.6,942.2,934c-44.4,3.4-60.8,2.2-79.3,11
			c-18.5,8.9-50.8,22.2-73.4,16.8c-22.8-5.4-111.7-7.2-121.4-20s-37.9-63-48.8-70.8C608.3,862.5,607.6,863,607.4,863.1z"/>
		<path style="fill:#061123;" d="M961.6,713.3c18.2,11.7,20.3,30.7,20.3,30.7l8.3-37.2l-1.9-32.3c-1.2-3.9-2.3-7.6-2.9-11.1
			c-2.7-15.7-23.5-53.4-28.3-69.2s-17.5-93.3-17.5-93.3c-0.2-0.2,0-0.5-0.2-0.7c-0.3-1.4-0.7-2.8-1-4V496c-0.3-1.4-0.5-2.6-0.9-3.8
			c0-0.2-0.2-0.4-0.2-0.5c-0.3-1.2-0.5-2.5-0.9-3.8c0-0.2-0.2-0.5,0-0.7c-0.5-2.5-0.9-4.9-1.5-7.2c0-0.2-0.2-0.5,0-0.7
			c0-1.1-0.4-2.1-0.4-3.1c0-0.2-0.2-0.4-0.2-0.5c-0.2-1-0.4-1.9-0.6-2.8c0-0.2-0.2-0.4-0.2-0.4c-0.2-1-0.4-1.9-0.6-2.8
			c0-0.2-0.2-0.4,0-0.7c-0.3-0.8-0.5-1.8-0.5-2.6v-0.2c-0.3-0.8-0.2-1.6-0.4-2.3c0-0.2-0.2-0.4-0.2-0.5c0-0.7-0.2-1.6-0.4-2.3
			c0-0.2-0.2-0.4-0.2-0.4c0-0.7-0.3-1.4-0.4-2.1c-3.5-23-15.9-50.2-32.6-61.6c-0.2-0.2-0.6-0.4-0.7-0.4c-0.4-0.2-0.6-0.4-1-0.5
			c-0.4-0.2-0.6-0.4-1-0.5s-0.6-0.4-1-0.4c-0.4-0.2-0.6-0.4-1-0.4c-0.4-0.2-0.7-0.3-1-0.4c-0.3-0.2-0.9-0.2-1.2-0.4
			c-0.3,0-0.6-0.2-0.9-0.2c-0.3-0.2-0.9-0.2-1.2-0.4c-0.3,0-0.3-0.2-0.6-0.2c-0.6-0.2-1.1-0.2-2-0.5c0,0-42.3-11.1-121.8,7.6
			c-2.5,0.6-4.9,1.2-7.6,1.8c-1.7,0.4-3.4,0.8-5.2,1.3c-0.6,0.1-1.5,0.4-2.1,0.5c-8.1,1.9-16.1,3.9-24.4,5.8h-0.3
			c-2.5,0.6-4.9,1.2-7.6,1.8c-0.3,0-0.4,0.1-0.6,0.1c-2.4,0.5-4.9,1.2-7.4,1.6c-0.3,0-0.6,0.1-0.8,0.1c-2.4,0.5-4.8,1-7.3,1.7
			c-0.3,0.1-0.6,0.1-0.8,0.2c-2.4,0.5-4.8,1-7.1,1.5c-0.6,0.1-0.7,0.1-1.1,0.2c-2.4,0.5-4.8,1-7.1,1.5c-0.6,0.1-0.7,0.1-1.1,0.2
			c-2.4,0.5-4.8,1-7.2,1.3c-0.6,0.1-0.7,0.1-1.1,0.2c-2.4,0.5-4.8,0.9-7.2,1.3c-0.4-0.1-0.7,0.1-1.1,0.1c-2.4,0.5-5.1,0.8-7.4,1.3
			c-0.3,0-0.6,0.1-0.8,0.1c-2.5,0.5-5.1,0.8-7.6,1.3c-0.3,0-0.4,0.1-0.6,0.1c-2.7,0.4-5.3,0.8-8,1.1c-0.1,0-0.1,0-0.4,0.1
			c-2.7,0.3-5.6,0.8-8.6,1.1c-4.6,0.5-11.6,3.6-16.2,3.9c0,0-26.9,2.9-63.5,4c9.7,7.5,15.2,13.6,11.2,16
			c-14.6,9.2-23.7,22.2-155,32.6C279.6,494.2,257.3,520,257.3,520s110.5-37.8,207.3-25.1l65.8,3.4c0,0-12,16.2-40.8,24.3
			c0,0,44.4-3.3,100.5-21.3S728,451.9,728,451.9L499.7,626.5l26.4-53c0,0-199,156.3-221.4,163.1c0,0,34.5-5.8,6,19.4
			c-17.4,15.5-45.1,35.1-64,48.1c0.3,5.7,2,11.6,5.5,17.8c0,0,18.9,65.1,151.3,58.2c0,0,23.7-0.9,52.3-5c4-19.4,9.3-43,14.3-60.2
			c10.1-35.3,86.6-154.8,146.4-189.7c59.8-34.8,102.1-19.5,102.1-19.5L696,707.6l-92.7,154c1.3,0.7,2.6,1.1,3.9,1.7
			c0,0,0,0,10.8,7.7s39.1,58.1,48.8,70.8c9.7,12.8,98.6,14.6,121.4,20c19.6,4.6,45.9-4.5,64.6-12.8c19.7-53.6,58.8-162.2,61.4-194
			c3.4-42.7,11.5-50.8,20.7-36.2c9.2,14.5,36.1,118,36.1,118S943.4,701.6,961.6,713.3z M611.6,587.5
			c-14.1,22.1-97.1,123.9-120.9,137.5c0,0-37,26.3-59.4,33.2l-42.5,13.9c0,0,54.8-86.9,77.6-105.7
			c22.9-18.7,134.3-108.1,134.3-108.1S625.9,565.5,611.6,587.5z"/>
		<path style="fill:#061123;" d="M371.8,591.9c0,0-134.2,17-208.4,13.8c12.4,7.4,30.9,15.6,58.8,22.7c0,0,16.6,3.2,35.3,9.5
			C257.6,637.9,282.5,619.3,371.8,591.9z"/>
		
			<animate  accumulate="none" additive="replace" attributeName="display" begin="0s" calcMode="linear" dur="1s" fill="remove" id="frame3" keyTimes="0.0;0.1;0.2;0.3;0.4;0.5;0.6;0.7; 0.8;0.9;1" repeatCount="indefinite" restart="always" values="none;none;inline;none;none;none; none; none; none; none; none">
			</animate>
	</g>
	<g id="frame4">
		<g>
			<path style="fill:#061123;" d="M744,944.4c-12-8.8-36.2-14.8-63.1-15.2s-24.6-1.9-50.8-5.7s-53-23.1-65.5-60.1
				c-12.5-37.1-56.5-26.7-56.5-26.7c-36.7,5.8-90.4,13.6-90.4,13.6c-126.6,17.6-168.1-34.5-168.1-34.5
				c-46.5-38.7,19.8-102.6,19.8-102.6c39.9-48.5,19.3-77.6,19.3-77.6c-12.4-28.4-66.1-39.5-66.1-39.5
				c-70.5-19.3-77.7-33.5-77.7-33.5c-44.8-41.3,6.3-94,14.1-100.3c7.6-6.3,19.3-20.9,19.3-20.9c5.6-6.5,9-21.6,9-21.6
				c3-13.5,10.9-12.9,10.9-12.9c29.2-11.5,88.8,5.2,190.6,25.1s235.4-1.7,235.4-1.7c3.9-1,8.5-2.8,11.9-3.1c2.7-0.3,5.6-0.8,8.6-1.1
				c0.1,0,0.1,0,0.4-0.1c2.5-0.3,5.3-0.8,8-1.1c0.3,0,0.4-0.1,0.6-0.1c2.5-0.3,5.1-0.8,7.6-1.3c0.3,0,0.6-0.1,0.8-0.1
				c2.4-0.5,5.1-0.8,7.4-1.3c0.4,0.1,0.7-0.1,1.1-0.1c2.4-0.5,4.8-0.9,7.2-1.3c0.6-0.1,0.7-0.1,1.1-0.2c2.4-0.5,4.8-1,7.2-1.3
				c0.6-0.1,0.7-0.1,1.1-0.2c2.4-0.5,4.8-1,7.1-1.5c0.6-0.1,0.7-0.1,1.1-0.2c2.4-0.5,4.8-1,7.1-1.5c0.3-0.1,0.6-0.1,0.8-0.2
				c2.4-0.5,4.8-1,7.3-1.7c0.3,0,0.6-0.1,0.8-0.1c2.4-0.5,4.9-1.2,7.4-1.6c0.3,0,0.4-0.1,0.6-0.1c2.5-0.6,4.9-1.2,7.6-1.8h0.3
				c8.1-1.9,16.2-3.9,24.4-5.8c0.6-0.1,1.5-0.4,2.1-0.5c1.7-0.4,3.4-0.8,5.2-1.3c2.5-0.6,4.9-1.2,7.6-1.8
				c79.5-18.7,121.8-7.6,121.8-7.6c0.6,0.1,1.1,0.2,2,0.5c0.3,0,0.3,0.2,0.6,0.2c0.3,0.2,0.9,0.2,1.2,0.4c0.3,0,0.6,0.2,0.9,0.2
				c0.3,0.2,0.7,0.3,1.2,0.4c0.4,0.2,0.6,0.2,1,0.4c0.4,0.3,0.6,0.4,1,0.4c0.4,0.2,0.6,0.4,1,0.4c0.4,0.2,0.6,0.4,1,0.5
				c0.4,0.2,0.6,0.4,1,0.5c0.2,0.2,0.6,0.4,0.7,0.4c16.7,11.1,29.3,38.4,32.6,61.6c0,0.7,0.2,1.4,0.4,2.1c0,0.2,0.2,0.4,0.2,0.4
				c0,0.7,0.3,1.4,0.4,2.3c0,0.2,0.2,0.4,0.2,0.5c0,0.7,0.2,1.6,0.4,2.3v0.2c0.3,0.8,0.4,1.7,0.5,2.6c0,0.2,0.2,0.4,0,0.7
				c0.2,0.9,0.4,1.9,0.6,2.8c0,0.2,0.2,0.4,0.2,0.4c0.2,0.9,0.4,1.9,0.6,2.8c0,0.2,0.2,0.4,0.2,0.5c0,1.1,0.4,2.1,0.4,3.1
				c0,0.2,0.2,0.5,0,0.7c0.5,2.3,0.9,4.8,1.5,7.2c0,0.2,0.2,0.5,0,0.7c0.3,1.2,0.5,2.5,0.9,3.8c0,0.2,0.2,0.4,0.2,0.5
				c0.3,1.2,0.5,2.6,0.9,3.8v0.2c0.3,1.4,0.7,2.8,1,4c0.2,0.2,0,0.5,0.2,0.7c0,0,12.8,77.6,17.7,93.5c4.8,15.8,25.4,53.5,28.3,69.2
				c0.2,0.9,0.4,1.9,0.6,2.8c0,0.7,0.3,1.2,0.4,1.9c0,0.3,0,0.5,0.2,0.9c0.2,0.9,0.5,1.8,0.7,2.5c0,0,0,0.2,0.2,0.2
				c0.2,0.9,0.7,2,0.8,2.7l0,0c4.3,13,11.7,27.2,17.6,37c7.7,12.7,37.2,66.5,46.1,82.7c8.8,16.1,27.3,45.1,26.5,67.3
				c0,0-2.2,10.2-22.3,6.9s-37.1-11.4-50.2,1.3c-13.3,12.7-19.7,60.3-64.1,63.7c-44.4,3.4-60.8,2.2-79.3,11c0,0-40.1,21-58.7,21.2
				C786.2,965.6,778.4,969.2,744,944.4z"/>
			<path style="fill:#061123;" d="M159,566.6c-2.4,0.6-4.9,1.2-6.9,1.4c8.6,6,28.1,16,71.2,27.8c0,0,2,0.5,5.4,1.3
				c13.4-7.5,46-24.5,82.7-32.2C311.2,564.9,203.3,554.7,159,566.6z"/>
			<path style="fill:#061123;" d="M885,860.6c-11.9-33.8,16.5-59.1,16.5-59.1l2.2,10.5c0,0,28.3-63.1,16.9-143.1
				c0,0,0.6-77.2,28.9-26.9c28.3,50.4,56.5,165.9,47.5,225.5c0,0,16.9-95-7.9-160.4c-23.3-61.2-43.6-83.6-27.1-102
				c-1.9-4.1-3-7.6-3.9-10.4c-4.8-15.8-17.5-93.3-17.5-93.3c-0.2-0.2,0-0.5-0.2-0.7c-0.3-1.4-0.7-2.8-1-4v-0.2
				c-0.3-1.4-0.5-2.6-0.9-3.8c0-0.2-0.2-0.4-0.2-0.5c-0.3-1.2-0.5-2.5-0.9-3.8c0-0.2-0.2-0.5,0-0.7c-0.5-2.5-0.9-4.9-1.5-7.2
				c0-0.2-0.2-0.5,0-0.7c0-1.1-0.4-2.1-0.4-3.1c0-0.2-0.2-0.4-0.2-0.5c-0.2-1-0.4-1.9-0.6-2.8c0-0.2-0.2-0.4-0.2-0.4
				c-0.2-1-0.4-1.9-0.6-2.8c0-0.2-0.2-0.4,0-0.7c-0.3-0.8-0.5-1.8-0.5-2.6v-0.2c-0.3-0.8-0.2-1.6-0.4-2.3c0-0.2-0.2-0.4-0.2-0.5
				c0-0.7-0.2-1.6-0.4-2.3c0-0.2-0.2-0.4-0.2-0.4c0-0.7-0.3-1.4-0.4-2.1c-3.5-23-15.9-50.2-32.6-61.6c-0.2-0.2-0.6-0.4-0.7-0.4
				c-0.4-0.2-0.6-0.4-1-0.5c-0.4-0.2-0.6-0.4-1-0.5c-0.4-0.2-0.6-0.4-1-0.4c-0.4-0.2-0.6-0.4-1-0.4c-0.4-0.2-0.7-0.3-1-0.4
				c-0.3-0.2-0.9-0.2-1.2-0.4c-0.3,0-0.6-0.2-0.9-0.2c-0.3-0.2-0.9-0.2-1.2-0.4c-0.3,0-0.3-0.2-0.6-0.2c-0.6-0.2-1.1-0.2-2-0.5
				c0,0-42.3-11.1-121.8,7.6c-2.5,0.6-4.9,1.2-7.6,1.8c-1.7,0.4-3.4,0.8-5.2,1.3c-0.6,0.1-1.5,0.4-2.1,0.5
				c-8.1,1.9-16.1,3.9-24.4,5.8h-0.3c-2.5,0.6-4.9,1.2-7.6,1.8c-0.3,0-0.4,0.1-0.6,0.1c-2.4,0.5-4.9,1.2-7.4,1.6
				c-0.3,0-0.6,0.1-0.8,0.1c-2.4,0.5-4.8,1-7.3,1.7c-0.3,0.1-0.6,0.1-0.8,0.2c-2.4,0.5-4.8,1-7.1,1.5c-0.6,0.1-0.7,0.1-1.1,0.2
				c-2.4,0.5-4.8,1-7.1,1.5c-0.6,0.1-0.7,0.1-1.1,0.2c-2.4,0.5-4.8,1-7.2,1.3c-0.6,0.1-0.7,0.1-1.1,0.2c-2.4,0.5-4.8,0.9-7.2,1.3
				c-0.4-0.1-0.7,0.1-1.1,0.1c-2.4,0.5-5.1,0.8-7.4,1.3c-0.3,0-0.6,0.1-0.8,0.1c-2.5,0.5-5.1,0.8-7.6,1.3c-0.3,0-0.4,0.1-0.6,0.1
				c-2.7,0.4-5.3,0.8-8,1.1c-0.1,0-0.1,0-0.4,0.1c-2.7,0.3-5.6,0.8-8.6,1.1c-3.4,0.4-8,2.1-11.9,3.1c0,0-35.1,5.7-83.2,8.6
				c-3.3,13.6-18.5,25.7-61.8,25.9c-102.2,0.6-139.4-9.2-196.9,15.6c0,0,82.1-14.2,126.3-7.3c44.2,7,75.3,16.1,126.7,9.9
				c0,0-19.5,27-44.9,30.5c0,0,49.5-4.3,93.6-16.4c44.3-12,94.7-35.1,92.2-22.6s-148.1,86.8-163.7,101.1
				c-15.6,14.3-43.1,34.5-43.1,34.5l42.9-43L302,716c0,0,20.7-8.7,21.6-3.5s-67.6,76.3-79.7,98.3c1.6,1.8,3.3,3.6,5.5,5.3
				c0,0,41.5,52,168.1,34.5c0,0,10.3-1.4,24.7-3.6c2.5-9.2,18-66.5,34.3-88.9c18-24.5,137.2-168,170.8-187.7
				c33.5-19.7,39.2,6.2,16.6,58.8c-22.6,52.5-79.3,150.3-79,186.5c0.1,31.9,34.2,92.8,42.2,107c1.1,0.2,2.3,0.4,3.4,0.6
				c26.2,3.8,23.7,5.3,50.8,5.7s51.3,6.3,63.1,15.2c34,25,40.9,22.1,59.6,21.9c17.8-0.3,54.7-19.3,58.5-21
				C876.1,918.7,891.9,881.3,885,860.6z M544.1,658.5l-45.4,36c0,0-131.3,94.6-155.7,82.4c-24.4-12.2,30.2-61.2,30.2-61.2
				s68.7-82.7,116.4-106.8c12.9-6.6,43.3-21.8,56.7-25.8c13.4-4.1,38-18.7,38-18.7c20.3-11,36.8-18.7,44.2-14.4
				C645.2,560,544.1,658.7,544.1,658.5z"/>
		</g>
		
			<animate  accumulate="none" additive="replace" attributeName="display" begin="0s" calcMode="linear" dur="1s" fill="remove" id="frame4" keyTimes="0.0;0.1;0.2;0.3;0.4;0.5;0.6;0.7; 0.8;0.9;1" repeatCount="indefinite" restart="always" values="none;none;none;inline;none;none;none; none; none; none; none">
			</animate>
	</g>
	<g id="frame5">
		<g>
			<g>
				<path style="fill:#061123;" d="M239,777.5"/>
				<path style="fill:#061123;" d="M931.8,458.4c-3.5-23-15.9-50.2-32.6-61.6c-0.2-0.2-0.6-0.4-0.7-0.4c-0.4-0.2-0.6-0.4-1-0.5
					c-0.4-0.2-0.6-0.4-1-0.5s-0.6-0.4-1-0.4c-0.4-0.2-0.6-0.4-1-0.4c-0.4-0.2-0.7-0.3-1-0.4c-0.3-0.2-0.9-0.2-1.2-0.4
					c-0.3,0-0.6-0.2-0.9-0.2c-0.3-0.2-0.9-0.2-1.2-0.4c-0.3,0-0.3-0.2-0.6-0.2c-0.6-0.2-1.1-0.2-2-0.5c0,0-42.3-11-121.5,7.8
					c-2.5,0.6-4.9,1.2-7.6,1.8c-1.7,0.4-3.4,0.8-5.2,1.3c-0.6,0.1-1.5,0.4-2.1,0.5c-8.1,1.9-16.1,3.9-24.4,5.8h-0.3
					c-2.5,0.6-4.9,1.2-7.6,1.8c-0.3,0-0.4,0.1-0.6,0.1c-2.4,0.5-4.9,1.2-7.4,1.6c-0.3,0-0.6,0.1-0.8,0.1c-2.4,0.5-4.8,1-7.3,1.7
					c-0.3,0.1-0.6,0.1-0.8,0.2c-2.4,0.5-4.8,1-7.1,1.5c-0.6,0.1-0.7,0.1-1.1,0.2c-2.4,0.5-4.8,1-7.1,1.5c-0.6,0.1-0.7,0.1-1.1,0.2
					c-2.4,0.5-4.8,1-7.2,1.3c-0.6,0.1-0.7,0.1-1.1,0.2c-2.4,0.5-4.8,0.9-7.2,1.3c-0.4-0.1-0.7,0.1-1.1,0.1c-2.4,0.5-5.1,0.8-7.4,1.3
					c-0.3,0-0.6,0.1-0.8,0.1c-2.5,0.5-5.1,0.8-7.6,1.3c-0.3,0-0.4,0.1-0.6,0.1c-2.7,0.4-5.3,0.8-8,1.1c-0.1,0-0.1,0-0.4,0.1
					c-2.7,0.3-5.6,0.8-8.6,1.1c-2.1,0.3-4.8,0.9-7.6,1.8c0,0-176,16.5-372-28c0,0-30.2-4.1-42.9-3.4s-57.1,23-66.3,55.1
					c-9.3,32-5.6,52.9,59.4,78.5c0,0,66.5,27.6,64,66.9c-2.5,39.4-18.6,55.3-37.1,72.8c0,0-51.4,44.1-20.1,80.9
					c31.3,36.8,67.3,43.1,133.1,46.5c0,0,71-1.4,97.7,9.3s39.2,20.3,29,47c-10.2,26.8-27.1,83.8,61.4,78.7
					c88.4-5.1,129.4-20.9,143.7-19.7c0,0,27.4-1.3,56.7,16.4s66.1,39.5,107.9,29c42-10.4,34.2-31.7,57.5-33.3
					c23.3-1.7,110.5-10.3,132.7-44.6c22.2-34.4,17.2-39.9,29.2-47.6c12.1-7.6,4.4-66.6-34.3-107.6c-38.7-40.9-83.5-181.9-96-266.7
					c0-0.7,0.2,1.4,0.4,2.1c0,0.2,0.2,0.4,0.2,0.4c0,0.7,0.3,1.4,0.4,2.3c0,0.2,0.2,0.4,0.2,0.5c0,0.7,0.2,1.6,0.4,2.3v0.2
					c0.3,0.8,0.4,1.7,0.5,2.6c0,0.2,0.2,0.4,0,0.7c0.2,0.9,0.4,1.9,0.6,2.8c0,0.2,0.2,0.4,0.2,0.4c0.2,0.9,0.4,1.9,0.6,2.8
					c0,0.2,0.2,0.4,0.2,0.5c0,1.1,0.4,2.1,0.4,3.1c0,0.2,0.2,0.5,0,0.7c0.5,2.3,0.9,4.8,1.5,7.2c0,0.2,0.2,0.5,0,0.7
					c0.3,1.2,0.5,2.5,0.9,3.8c0,0.2,0.2,0.4,0.2,0.5c0.3,1.2,0.5,2.6,0.9,3.8v0.2c0.3,1.4,0.7,2.8,1,4c0.2,0.2,0,0.5,0.2,0.7"/>
			</g>
			<path style="fill:#061123;" d="M898.4,860c0,0-17.2,39.9-24.8,27.3c-7.5-12.6-1.7-75.8,22.4-110c0,0-1.4,61.7,23.3,72.3
				c0,0-13.1-25.3-14.4-47.7c-1.3-22.4,0.4-151.2,7.9-166.1c0,0,0.2-10.3,15.3-12.5c14.2-2.2,37.2,29.8,55.4,73.5
				c-7.4-19.5-23.8-66.8-9.5-76.7l0,0c-19.5-53.7-35.7-115.7-42.4-161.6c-3.5-23-15.9-50.2-32.6-61.6c-0.2-0.2-0.6-0.4-0.7-0.4
				c-0.4-0.2-0.6-0.4-1-0.5c-0.4-0.2-0.6-0.4-1-0.5c-0.4-0.2-0.6-0.4-1-0.4c-0.4-0.2-0.6-0.4-1-0.4c-0.4-0.2-0.7-0.3-1-0.4
				c-0.3-0.2-0.9-0.2-1.2-0.4c-0.3,0-0.6-0.2-0.9-0.2c-0.3-0.2-0.9-0.2-1.2-0.4c-0.3,0-0.3-0.2-0.6-0.2c-0.6-0.2-1.1-0.2-2-0.5
				c0,0-42.3-11-121.6,8.2c-2.5,0.6-4.9,1.2-7.6,1.8c-1.7,0.4-3.4,0.8-5.2,1.3c-0.6,0.1-1.5,0.4-2.1,0.5c-8.1,1.9-16.1,3.9-24.4,5.8
				h-0.3c-2.5,0.6-4.9,1.2-7.6,1.8c-0.3,0-0.4,0.1-0.6,0.1c-2.4,0.5-4.9,1.2-7.4,1.6c-0.3,0-0.6,0.1-0.8,0.1c-2.4,0.5-4.8,1-7.3,1.7
				c-0.3,0.1-0.6,0.1-0.8,0.2c-2.4,0.5-4.8,1-7.1,1.5c-0.6,0.1-0.7,0.1-1.1,0.2c-2.4,0.5-4.8,1-7.1,1.5c-0.6,0.1-0.7,0.1-1.1,0.2
				c-2.4,0.5-4.8,1-7.2,1.3c-0.6,0.1-0.7,0.1-1.1,0.2c-2.4,0.5-4.8,0.9-7.2,1.3c-0.4-0.1-0.7,0.1-1.1,0.1c-2.4,0.5-5.1,0.8-7.4,1.3
				c-0.3,0-0.6,0.1-0.8,0.1c-2.5,0.5-5.1,0.8-7.6,1.3c-0.3,0-0.4,0.1-0.6,0.1c-2.7,0.4-5.3,0.8-8,1.1c-0.1,0-0.1,0-0.4,0.1
				c-2.7,0.3-5.6,0.8-8.6,1.1c-2.1,0.3-4.8,0.9-7.6,1.8c0,0-47.8,4.4-121.2,2.4l0,0c-7.6,7.3-26.7,9.2-61.9,8.3
				c0,0,33.4,18.1,116.5,9.1c0,0,37.8-2.2,16.8,8.2c-21,10.5-94.7,23.5-84.2,32.9c10.3,9.3,92.8-15.1,126.2-16
				c33.5-0.8,45,3.6,23.7,15.6c-21.5,12.1-78.3,43.7-91.1,44.4c-12.7,0.7-2.6-7.1-2.6-7.1s-179.4,68.4-198.4,97.8
				c0,0,16.9-10.7,16.3,1.3s-59.7,43.4-77.4,57.5c-17.7,14.1-55.7,35.1-30.6,44c0,0,10.3,9.3,38.3-22.8
				c28.1-32.2,134-106.4,173.8-117c39.8-10.7,61-12.5,75.1-19.9l-9.5,14.8c0,0,44.4-30.9,59-31.5s-0.3,56.8-45.9,84
				c-42,25.1-213.9,122.7-311.2,139.6c26.1,16.5,58.4,20.6,106.5,23.1c0,0,28-0.5,55.6,1.8c6.7-12,17.1-30.3,26.6-43.5
				c15.1-21.2,155.8-157.9,204.7-162.7c0,0,19.6-3.6,12.1,11.2c-7.1,14.1-147.1,182.2-169.9,226c1.8,6.2,1.3,13.7-2.3,23.5
				c-10.2,26.8-27.1,83.8,61.4,78.7c88.4-5.1,129.4-20.9,143.7-19.7c0,0,27.4-1.3,56.7,16.4s66.1,39.5,107.9,29
				c33.9-8.5,35.3-23.8,46.7-30.4C890,910.2,891.3,880,898.4,860z"/>
			<path style="fill:#061123;" d="M152.7,498.9c0,0,14.3,17.9,60.1,34.8c0,0,3.9-10.7,22.4-9.3c0,0,12.4,1,9.3-4.5
				C241.3,514.5,189.4,489.5,152.7,498.9z"/>
		</g>
		
			<animate  accumulate="none" additive="replace" attributeName="display" begin="0s" calcMode="linear" dur="1s" fill="remove" id="frame5" keyTimes="0.0;0.1;0.2;0.3;0.4;0.5;0.6;0.7; 0.8;0.9;1" repeatCount="indefinite" restart="always" values="none;none;none;none;inline;none; none; none; none; none; none">
			</animate>
	</g>
	<g id="frame6">
		<g>
			<g>
				<path style="fill:#061123;" d="M931.6,459.4L931.6,459.4C931.7,459.3,931.7,459.3,931.6,459.4z"/>
				<path style="fill:#061123;" d="M1013.4,703.7c2.7,5.3,5.3,8.2,5.3,8.2c19.8,32.6,37.9,63.1,50.1,101.9
					c12.2,38.8-18.6,55.3-18.6,55.3c-30.1,32-108.7,39.7-117.6,42.4c-8.9,2.7-16.2,7.3-28.9,26.9C891,958,845,959.6,845,959.6
					c-14.7,0.6-55,4.3-98,0.9c-42.9-3.4-48.6-24.4-43.2-39.5c5.4-15-9-16.2-32.1-14.5s-121.5,23.2-121.5,23.2
					c-119.1,21.7-162.6-26.5-162.6-26.5c-30.2-23,6.6-76.7,12.2-83.2s12.5-28.3,1.2-42.9c-11.3-14.6-59-14.9-59-14.9
					c-77.1,0.8-104.4-16.8-104.4-16.8c-60.9-25.4-48.2-64-48.2-64c-2.8-24.3,40.4-69,59.1-88.2c18.8-19.1,14.3-45.2,14.3-45.2
					c-1.7-20.8-33.2-47.3-33.2-47.3c-12.1-11.2-43.1-30.8-43.1-30.8c-34.8-21.6-23.5-53.4-23.5-53.4c1.7-17.1,27.3-15,27.3-15
					l66.3,5.1c0,0,237.4,16.8,271.9,21.2c34.3,4.4,99.2,1.6,99.2,1.6c2.7-0.8,5.3-1.7,7.6-1.8c2.7-0.3,5.6-0.8,8.6-1.1
					c0.1,0,0.1,0,0.4-0.1c2.5-0.3,5.3-0.8,8-1.1c0.3,0,0.4-0.1,0.6-0.1c2.5-0.3,5.1-0.8,7.6-1.3c0.3,0,0.6-0.1,0.8-0.1
					c2.4-0.5,5.1-0.8,7.4-1.3c0.4,0.1,0.7-0.1,1.1-0.1c2.4-0.5,4.8-0.9,7.2-1.3c0.6-0.1,0.7-0.1,1.1-0.2c2.4-0.5,4.8-1,7.2-1.3
					c0.6-0.1,0.7-0.1,1.1-0.2c2.4-0.5,4.8-1,7.1-1.5c0.6-0.1,0.7-0.1,1.1-0.2c2.4-0.5,4.8-1,7.1-1.5c0.3-0.1,0.6-0.1,0.8-0.2
					c2.4-0.5,4.8-1,7.3-1.7c0.3,0,0.6-0.1,0.8-0.1c2.4-0.5,4.9-1.2,7.4-1.6c0.3,0,0.4-0.1,0.6-0.1c2.5-0.6,4.9-1.2,7.6-1.8h0.3
					c8.1-1.9,16.2-3.9,24.4-5.8c0.6-0.1,1.5-0.4,2.1-0.5c1.7-0.4,3.4-0.8,5.2-1.3c2.5-0.6,4.9-1.2,7.6-1.8
					c79.5-18.7,121.8-7.6,121.8-7.6c0.6,0.1,1.1,0.2,2,0.5c0.3,0,0.3,0.2,0.6,0.2c0.3,0.2,0.9,0.2,1.2,0.4c0.3,0,0.6,0.2,0.9,0.2
					c0.3,0.2,0.7,0.3,1.2,0.4s0.6,0.2,1,0.4c0.4,0.3,0.6,0.4,1,0.4c0.4,0.2,0.6,0.4,1,0.4c0.4,0.2,0.6,0.4,1,0.5s0.6,0.4,1,0.5
					c0.2,0.2,0.6,0.4,0.7,0.4c16.7,11.1,29.3,38.4,32.6,61.6c0,0,3.7,15.1,8.1,33.1c0,0,24.5,91.5,39.6,135.6
					C979.3,628.2,1005.2,688.7,1013.4,703.7z"/>
			</g>
			<path style="fill:#061123;" d="M441.8,698.9c15.3-12,33.3-27.3,33.3-27.3c12.2-11.3,21.1-21.2,21.8-24.4
				c0.9-4.5-18,11.6-36.9,24.6c0,0-31.8,22.4-60.7,21.4c-9.9-0.3-23.3-1.8-46.2,11.4c-26.2,15.1-136.6,29.5-136.6,29.5
				c5.8,4,13.1,7.6,21.5,11.3c0,0,27.3,17.6,104.4,16.8c0,0,12,0.1,25.3,2c0,0,7.8-20,24.7-30.7
				C409.4,722.7,426.6,710.9,441.8,698.9z"/>
			<path style="fill:#061123;" d="M961.1,829.6c-2.1-8.8-40.9-152.8-39.4-205.9c1.5-53.2,16.7-65.7,26-51.2
				c2.7,4.3,12,16.9,23.7,32.3c-14.5-46.8-31.9-112.4-31.9-112.4c-4.2-18-8.1-33.1-8.1-33.1c-3.5-23-15.9-50.2-32.6-61.6
				c-0.2-0.2-0.6-0.4-0.7-0.4c-0.4-0.2-0.6-0.4-1-0.5c-0.4-0.2-0.6-0.4-1-0.5s-0.6-0.4-1-0.4c-0.4-0.2-0.6-0.4-1-0.4
				c-0.4-0.2-0.7-0.3-1-0.4s-0.9-0.2-1.2-0.4c-0.3,0-0.6-0.2-0.9-0.2c-0.3-0.2-0.9-0.2-1.2-0.4c-0.3,0-0.3-0.2-0.6-0.2
				c-0.6-0.2-1.1-0.2-2-0.5c0,0-42.3-11.1-121.8,7.6c-2.5,0.6-4.9,1.2-7.6,1.8c-1.7,0.4-3.4,0.8-5.2,1.3c-0.6,0.1-1.5,0.4-2.1,0.5
				c-8.1,1.9-16.1,3.9-24.4,5.8h-0.3c-2.5,0.6-4.9,1.2-7.6,1.8c-0.3,0-0.4,0.1-0.6,0.1c-2.4,0.5-4.9,1.2-7.4,1.6
				c-0.3,0-0.6,0.1-0.8,0.1c-2.4,0.5-4.8,1-7.3,1.7c-0.3,0.1-0.6,0.1-0.8,0.2c-2.4,0.5-4.8,1-7.1,1.5c-0.6,0.1-0.7,0.1-1.1,0.2
				c-2.4,0.5-4.8,1-7.1,1.5c-0.6,0.1-0.7,0.1-1.1,0.2c-2.4,0.5-4.8,1-7.2,1.3c-0.6,0.1-0.7,0.1-1.1,0.2c-2.4,0.5-4.8,0.9-7.2,1.3
				c-0.4-0.1-0.7,0.1-1.1,0.1c-2.4,0.5-5.1,0.8-7.4,1.3c-0.3,0-0.6,0.1-0.8,0.1c-2.5,0.5-5.1,0.8-7.6,1.3c-0.3,0-0.4,0.1-0.6,0.1
				c-2.7,0.4-5.3,0.8-8,1.1c-0.1,0-0.1,0-0.4,0.1c-2.7,0.3-5.6,0.8-8.6,1.1c-2.1,0.3-4.8,0.9-7.6,1.8c0,0-64.8,2.8-99.2-1.6
				c-9.4-1.2-34-3.3-64.7-5.7c4.5,2.2,10,4.2,16.8,5.5c32,6,84,6.5,84.8,11.8c0.8,5.2-25.1,29-99.8,36.9c0,0-12.7,0.7-8.9,2.7
				c3.6,2,32,5.9,77.1-0.8c45.3-6.8,86.6-15.6,85.7-1.9c-0.9,13.7-57.2,42-96.2,49.3s-106.3,29.5-131,46.5c0,0,15.4-4,10.2,0.8
				c-5.2,4.7-85.8,39.6-98.1,57.6c0,0-2.8,3.2-1.2,5c1.8,1.8,21-10.4,30.8-16.5c9.6-6,137.4-75.2,194.4-69c0,0,6.1,0.5,4.6,7.3
				c-1.5,6.7-4.9,22,13.3,14.7c18.2-7.1,43.6-27.5,51.7-26.9c0,0,38.1,5.7-57.4,121.5c0,0-88.2,119.8-149.1,164.9
				c-11.4,18.7-27.5,54.3-4.4,71.8c0,0,42.4,47.2,159.2,27.1c-3.8-21.4-6.5-54.3,1.5-95.2c14.6-74.5,37.4-205.1,75.2-215.9
				s83.9,4.6,69.2,71.5c-12.5,58.4-16.8,184.4-17.9,215.8c21.4-1.4,34.5,0.3,29.3,14.8c-5.4,15,0.3,36.1,43.2,39.5s83.2-0.3,98-0.9
				c0,0,46.1-1.6,58.7-21.2c6.7-10.5,12.1-16.8,16.9-20.8c2.4-16,12.4-82.9,14.7-102.3c2.8-22.1,7.4,4.1,20.4,20.5
				C955.8,836,963.5,838.3,961.1,829.6z M593.1,644.4c0,0-10.2,26.8-18.8,19.1c-8.8-7.6,18.4-63.9,23.3-58.3
				C602.5,610.8,593.1,644.4,593.1,644.4z M915.7,894.9c0,0-8.4,28.5-14.1,35c-5.6,6.4-12.3,18-16.6,8.9c0,0,19-168.7,23.7-180.4
				s11.9,2.6,13.3,14.7C923.4,785.4,927.5,851,915.7,894.9z"/>
		</g>
		
			<animate  accumulate="none" additive="replace" attributeName="display" begin="0s" calcMode="linear" dur="1s" fill="remove" id="frame6" keyTimes="0.0;0.1;0.2;0.3;0.4;0.5;0.6;0.7; 0.8;0.9;1" repeatCount="indefinite" restart="always" values="none;none;none;none;none;inline; none; none; none; none; none">
			</animate>
	</g>
	<g id="frame7">
		<g>
			<path style="fill:#061123;" d="M341,787c-8.8,8.6-53.9,40.4-38.4,78c17.4,42.7,67.1,72.2,145.7,64.7c0,0,57-4.1,118.8-19.9
				c0,0,91.2-17,107.2-14s37.3,9.9,26.1,22.7s-29.3,35.6,36.2,41.5c0,0,49.7,3,61.3-3c11.8-5.9,60.3-9.1,68.4-8.4
				c8.1,0.7,53.5,2.5,67-20.6s7.7-25.1,28.1-32.2c20.2-7.1,99.5-26.7,105.5-53.6c6.1-27.1-24.7-94.8-52.3-138.2
				c-27.8-43.4-52.8-109-58-131.7c-5.5-22.8-15.1-78.2-19-90.7c-3.2-13-5.6-22.6-5.5-23c0-0.2,0-0.2,0,0
				c-3.5-23-15.9-50.2-32.6-61.6c-0.2-0.2-0.6-0.4-0.7-0.4c-0.4-0.2-0.6-0.4-1-0.5c-0.4-0.2-0.6-0.4-1-0.5c-0.4-0.2-0.6-0.4-1-0.4
				c-0.4-0.2-0.6-0.4-1-0.4c-0.4-0.2-0.7-0.3-1-0.4c-0.3-0.2-0.9-0.2-1.2-0.4c-0.3,0-0.6-0.2-0.9-0.2c-0.3-0.2-0.9-0.2-1.2-0.4
				c-0.3,0-0.3-0.2-0.6-0.2c-0.6-0.2-1.1-0.2-2-0.5c0,0-42.3-11.1-121.8,7.6c-2.5,0.6-4.9,1.2-7.6,1.8c-1.7,0.4-3.4,0.8-5.2,1.3
				c-0.6,0.1-1.5,0.4-2.1,0.5c-8.1,1.9-16.1,3.9-24.4,5.8h-0.3c-2.5,0.6-4.9,1.2-7.6,1.8c-0.3,0-0.4,0.1-0.6,0.1
				c-2.4,0.5-4.9,1.2-7.4,1.6c-0.3,0-0.6,0.1-0.8,0.1c-2.4,0.5-4.8,1-7.3,1.7c-0.3,0.1-0.6,0.1-0.8,0.2c-2.4,0.5-4.8,1-7.1,1.5
				c-0.6,0.1-0.7,0.1-1.1,0.2c-2.4,0.5-4.8,1-7.1,1.5c-0.6,0.1-0.7,0.1-1.1,0.2c-2.4,0.5-4.8,1-7.2,1.3c-0.6,0.1-0.7,0.1-1.1,0.2
				c-2.4,0.5-4.8,0.9-7.2,1.3c-0.4-0.1-0.7,0.1-1.1,0.1c-2.4,0.5-5.1,0.8-7.4,1.3c-0.3,0-0.6,0.1-0.8,0.1c-2.5,0.5-5.1,0.8-7.6,1.3
				c-0.3,0-0.4,0.1-0.6,0.1c-2.7,0.4-5.3,0.8-8,1.1c0,0-87.2,12.2-166.3-5.9c0,0-259.8-56.4-326.6-8.3c0,0,109.3,22.3,105.3,87.3
				c0,0,4.1,27.8-27.1,56.4c-31.2,28.5-83.6,67.4-57.1,107.2s71.9,41.8,93.6,46.9c21.8,5.1,75,17.9,82.8,39.1c0,0,5.4,9.3,2.3,21.8
				C351.6,770.1,349.3,779,341,787z"/>
			<path style="fill:#061123;" d="M367.2,696.5c38.4-14.2,87.5-29.3,104-46.8c0,0-65.7,24-103.3,24.6c-35.6,0.4-98.1,3.4-143,25.7
				c16.2,5.2,31.6,6.9,41.6,9.3c11.6,2.8,32.8,7.8,50.7,15.1C326.3,716.9,342.9,705.4,367.2,696.5z"/>
			<path style="fill:#061123;" d="M979.3,814.6c0,0-13.9-21.7-20.9-46.4c-7-24.6-18.5-84-19.7-97.9c0,0-33.6-119.5-22.6-140.9
				c3.2-6.2,14.7-10.4,29-13.2c-3.1-15.5-6-29.3-7.7-34.8c-3.2-13-5.6-22.6-5.5-23c0-0.2,0-0.2,0,0c-3.5-23-15.9-50.2-32.6-61.6
				c-0.2-0.2-0.6-0.4-0.7-0.4c-0.4-0.2-0.6-0.4-1-0.5c-0.4-0.2-0.6-0.4-1-0.5c-0.4-0.2-0.6-0.4-1-0.4c-0.4-0.2-0.6-0.4-1-0.4
				c-0.4-0.2-0.7-0.3-1-0.4c-0.3-0.2-0.9-0.2-1.2-0.4c-0.3,0-0.6-0.2-0.9-0.2c-0.3-0.2-0.9-0.2-1.2-0.4c-0.3,0-0.3-0.2-0.6-0.2
				c-0.6-0.2-1.1-0.2-2-0.5c0,0-42.3-11-121.5,8c-2.5,0.6-4.9,1.2-7.6,1.8c-1.7,0.4-3.4,0.8-5.2,1.3c-0.6,0.1-1.5,0.4-2.1,0.5
				c-8.1,1.9-16.1,3.9-24.4,5.8h-0.3c-2.5,0.6-4.9,1.2-7.6,1.8c-0.3,0-0.4,0.1-0.6,0.1c-2.4,0.5-4.9,1.2-7.4,1.6
				c-0.3,0-0.6,0.1-0.8,0.1c-2.4,0.5-4.8,1-7.3,1.7c-0.3,0.1-0.6,0.1-0.8,0.2c-2.4,0.5-4.8,1-7.1,1.5c-0.6,0.1-0.7,0.1-1.1,0.2
				c-2.4,0.5-4.8,1-7.1,1.5c-0.6,0.1-0.7,0.1-1.1,0.2c-2.4,0.5-4.8,1-7.2,1.3c-0.6,0.1-0.7,0.1-1.1,0.2c-2.4,0.5-4.8,0.9-7.2,1.3
				c-0.4-0.1-0.7,0.1-1.1,0.1c-2.4,0.5-5.1,0.8-7.4,1.3c-0.3,0-0.6,0.1-0.8,0.1c-2.5,0.5-5.1,0.8-7.6,1.3c-0.3,0-0.4,0.1-0.6,0.1
				c-2.7,0.4-5.3,0.8-8,1.1c0,0-20.4,2.9-50.5,3.8c-28.6,11.6-76.1,24.1-145.4,20.6c0,0,113.3,14,176.3,1.8c0,0,23.3-1.7,21.4,6.9
				c-1.9,8.4-63.2,31.2-104.6,39.9c-41.5,8.8-160.2,37.3-214.4,84.7c0,0,124.9-46.9,167.7-52.2s42.9,3.4,38.2,15
				c0,0,100.8-42,114.2-27.2c11.6,12.9-178.1,178.2-267.7,239.4l0,0c0,0-19.7,14.1-32.2,19.8c-1.7,2.6-4.5,6.2-4.5,6.2
				c-7.7,6.8-21.3,20.1-28.8,28.1s-13.8,25-13.8,25c-2.1,8.5-2.1,17.9,2,27.3c17.4,42.7,67.1,72.2,145.7,64.7c0,0,18.6-1.4,45.9-5.5
				c1.4-12.7,5.8-41.7,18.3-77.1c17-48.5,115.5-238.4,150.3-254.7c34.8-16.1,91.6-18.6,94.2,16c2.8,34.6-24.9,268.6-51.9,302.2
				c-0.5,0.6-1.1,1.3-1.6,2.1c-0.2,1.8-1.2,3.7-3,5.8c-11.1,12.8-29.3,35.6,36.2,41.5c0,0,49.7,3,61.3-3c11.8-5.9,60.3-9.1,68.4-8.4
				c2.8,0.3,9.8,0.6,18.3,0c10.4-50.4,34.9-174,33.5-204.1c-1.9-37.9,3.9-54.7,9.5-42.3c0,0,3.5,12.3,7.2,33.2
				c3.7,21,10.1,76.4,15.6,88.8c0,0-1.5-31,1.7-36C954.6,783.6,967.7,810.3,979.3,814.6z"/>
		</g>
		
			<animate  accumulate="none" additive="replace" attributeName="display" begin="0s" calcMode="linear" dur="1s" fill="remove" id="frame7" keyTimes="0.0;0.1;0.2;0.3;0.4;0.5;0.6;0.7; 0.8;0.9;1" repeatCount="indefinite" restart="always" values="none;none;none;none;none;none; inline; none; none; none; none">
			</animate>
	</g>
	<g id="frame8">
		<g>
			<path style="fill:#061123;" d="M951.2,561.1c2.8,28.6,28,87.8,34.3,102.8c8,19.5,75.7,145.2,75.7,145.2
				c1.6,1.8,24.2,31.1,14.7,45.9c-9.4,14.7-45.3,17.1-45.3,17.1c-10.6,0.9-52.4-7.5-70,34.1s-66.7,37.8-85.4,38.1s-26,4.8-43.8,10.3
				c-18,5.5-59.5,5.7-59.5,5.7c-87.3,0-98.8-23.2-127.1-54.6c-28.2-31.4-79.6-25.2-79.6-25.2s-67.6,13.6-126.4,26.2
				c-58.9,12.6-113.3-14-113.3-14c-53.2-23-58.5-45.7-59.7-68.3s54.6-76.6,54.6-76.6c51.2-61.4-58.6-81.9-58.6-81.9
				c-83.3-8.3-103.6-39-103.6-39C114.3,590.7,186,520.6,186,520.6c52.6-49.1,44.8-70.5,44.8-70.5c1-32.6-59.9-58-59.9-58
				c71-28.9,199.5,10.4,199.5,10.4c126.7,47.7,255.5,24.8,255.5,24.8c1,0,2.1-0.2,3-0.2c0.1,0,0.1,0,0.3,0c0.7-0.1,1.8-0.2,2.7-0.3
				c0.1,0,0.1,0,0.3,0c0.8-0.1,1.7-0.2,2.4-0.3h0.3c0.8-0.1,1.5-0.2,2.1-0.2h0.3c0.6-0.1,1.3-0.1,1.7-0.2h0.3
				c0.4-0.1,1.1-0.1,1.5-0.2l0,0c0.4,0.1,0.8-0.1,1.1-0.1l0,0c0.6-0.1,0.8-0.1,0.8-0.1c2.5-0.3,5.3-0.8,8-1.1c0.3,0,0.4-0.1,0.6-0.1
				c2.5-0.3,5.1-0.8,7.6-1.3c0.3,0,0.6-0.1,0.8-0.1c2.4-0.5,5.1-0.8,7.4-1.3c0.4,0.1,0.7-0.1,1.1-0.1c2.4-0.5,4.8-0.9,7.2-1.3
				c0.6-0.1,0.7-0.1,1.1-0.2c2.4-0.5,4.8-1,7.2-1.3c0.6-0.1,0.7-0.1,1.1-0.2c2.4-0.5,4.8-1,7.1-1.5c0.6-0.1,0.7-0.1,1.1-0.2
				c2.4-0.5,4.8-1,7.1-1.5c0.3-0.1,0.6-0.1,0.8-0.2c2.4-0.5,4.8-1,7.3-1.7c0.3,0,0.6-0.1,0.8-0.1c2.4-0.5,4.9-1.2,7.4-1.6
				c0.3,0,0.4-0.1,0.6-0.1c2.5-0.6,4.9-1.2,7.6-1.8h0.3c8.1-1.9,16.2-3.9,24.4-5.8c0.6-0.1,1.5-0.4,2.1-0.5c1.7-0.4,3.4-0.8,5.2-1.3
				c2.5-0.6,4.9-1.2,7.6-1.8C843.7,381.9,886,393,886,393c0.6,0.1,1.1,0.2,2,0.5c0.3,0,0.3,0.2,0.6,0.2c0.3,0.2,0.9,0.2,1.2,0.4
				c0.3,0,0.6,0.2,0.9,0.2c0.3,0.2,0.7,0.3,1.2,0.4c0.4,0.2,0.6,0.2,1,0.4c0.4,0.2,0.6,0.4,1,0.4c0.4,0.2,0.6,0.4,1,0.4
				c0.4,0.2,0.6,0.4,1,0.5c0.4,0.2,0.6,0.4,1,0.5c0.2,0.2,0.6,0.4,0.7,0.4c16.7,11.1,29.3,38.4,32.6,61.6c0-0.2,0-0.2,0,0
				c1,2.3,8.3,41,13.2,66.5C943,525.2,950.1,545.3,951.2,561.1z"/>
			<path style="fill:#061123;" d="M437,614.8c-14.3,2.3-93.3,15.2-118.9,21.1c-28.4,6.4-46.1,1.6-56-0.9s-40,17.2-86.2,6.8
				c15,9.1,41.5,19.8,85.5,24c0,0,12.4,2.4,26.8,7.8C288.4,673.6,396.6,622.1,437,614.8z"/>
			<path style="fill:#061123;" d="M880.9,901.6c4-27.2,2.9-40.9,14.3-64.1c11.4-23.2,20.4-44.8,19.7-60.4c-0.6-15.5,4.9-22,9.5-14.8
				c4.6,7.3,10.1,57.5-7.7,109.4c0,0,28.5-44.2,19.8-117c-8.7-72.9-3.4-96.4,4.1-83.9c7.7,12.6,15.9,78.6,30.3,88.3
				c0,0-43.1-142.6-31.2-186.3c2.2-7.9,5.9-15.4,10.3-22.1c-2.6-13.1-6.9-25.4-6.9-25.4c-4.9-25.6-12.5-64.2-13.2-66.5
				c0-0.2,0-0.2,0,0c-3.5-23-15.9-50.2-32.6-61.6c-0.2-0.2-0.6-0.4-0.7-0.4c-0.4-0.2-0.6-0.4-1-0.5c-0.4-0.2-0.6-0.4-1-0.5
				c-0.4-0.2-0.6-0.4-1-0.4c-0.4-0.2-0.6-0.4-1-0.4c-0.4-0.2-0.7-0.3-1-0.4c-0.3-0.2-0.9-0.2-1.2-0.4c-0.3,0-0.6-0.2-0.9-0.2
				c-0.3-0.2-0.9-0.2-1.2-0.4c-0.3,0-0.3-0.2-0.6-0.2c-0.6-0.2-1.1-0.2-2-0.5c0,0-42.3-11.1-121.8,7.6c-2.5,0.6-4.9,1.2-7.6,1.8
				c-1.7,0.4-3.4,0.8-5.2,1.3c-0.6,0.1-1.5,0.4-2.1,0.5c-8.1,1.9-16.1,3.9-24.4,5.8h-0.3c-2.5,0.6-4.9,1.2-7.6,1.8
				c-0.3,0-0.4,0.1-0.6,0.1c-2.4,0.5-4.9,1.2-7.4,1.6c-0.3,0-0.6,0.1-0.8,0.1c-2.4,0.5-4.8,1-7.3,1.7c-0.3,0.1-0.6,0.1-0.8,0.2
				c-2.4,0.5-4.8,1-7.1,1.5c-0.6,0.1-0.7,0.1-1.1,0.2c-2.4,0.5-4.8,1-7.1,1.5c-0.6,0.1-0.7,0.1-1.1,0.2c-2.4,0.5-4.8,1-7.2,1.3
				c-0.6,0.1-0.7,0.1-1.1,0.2c-2.4,0.5-4.8,0.9-7.2,1.3c-0.4-0.1-0.7,0.1-1.1,0.1c-2.4,0.5-5.1,0.8-7.4,1.3c-0.3,0-0.6,0.1-0.8,0.1
				c-2.5,0.5-5.1,0.8-7.6,1.3c-0.3,0-0.4,0.1-0.6,0.1c-2.7,0.4-5.3,0.8-8,1.1c0,0-0.3,0-0.8,0.1l0,0c-0.3,0-0.7,0.1-1.1,0.1l0,0
				c-0.3,0-0.8,0.1-1.5,0.2h-0.3c-0.6,0.1-1.1,0.1-1.7,0.2h-0.3c-0.6,0.1-1.3,0.1-2.1,0.2h-0.3c-0.8,0.1-1.5,0.2-2.4,0.3
				c-0.1,0-0.1,0-0.3,0c-0.7,0.1-1.5,0.2-2.7,0.3c-0.1,0-0.1,0-0.3,0c-1,0-1.8,0.2-3,0.2c0,0-74.1,13.2-164.9-1.2l-24.1,5.6
				c0,0,152.6,34.3,227,17.8c0,0-117.1,40.6-178,42.8c-4.7,0.1-10,0.3-15.1,0.5c-86.7,5.2-128.5,19.3-148.3,30.2
				c19.7-7.7,47.9-16.4,74.9-15.3c47.4,2,63.1,15.2,121.6,4.4c0,0-26.2,15.1-30.2,23.5c0,0,44.6-13.7,74.4-16.5
				c29.7-2.7,87.3-18.4,138.9-44.6c0,0,24.4-4.1,0,30c-24.7,34-140.3,179.7-171.6,189.2c-31,9.6-28.2-51.5,7.6-100.3
				c-17.7,9.3-35.3,22.4-50.7,35.1c-6.7,8.6-24.4,25.1-46.5,43.7l0,0l0,0C394.8,710.4,330.4,757.8,306,763
				c-16.4,17.8-40.6,46.4-39.6,61.2c1.3,22.4,6.5,45.2,59.7,68.3c0,0,54.3,26.6,113.3,14c14.7-3.2,29.7-6.3,44.2-9.3
				c-0.7-24.8,1.6-68.8,21.4-107.7c29.6-57.8,96.2-160.9,150.2-197.9s114.2-54.7,126-33.2s-90.3,302.4-107.1,321.7
				c-7.8,9.1-17.2,20.2-24.7,29.6c25.7,29.1,40,50.4,123.4,50.4c0,0,41.7-0.1,59.5-5.7c11.3-3.5,18.4-6.5,26.5-8.4
				C868.7,931.7,878.9,914.8,880.9,901.6z"/>
		</g>
		
			<animate  accumulate="none" additive="replace" attributeName="display" begin="0s" calcMode="linear" dur="1s" fill="remove" id="frame8" keyTimes="0.0;0.1;0.2;0.3;0.4;0.5;0.6;0.7; 0.8;0.9;1" repeatCount="indefinite" restart="always" values="none;none;none;none;none;none;none;inline; none; none; none">
			</animate>
	</g>
	<g id="frame9">
		<g>
			<path style="fill:#061123;" d="M187,417.4v-0.2l0,0c1.8-4.3,6.2-9.3,17.5-10.1c21.3-1.8,95.7,9.1,143,21.4
				c47.1,12.3,123.2,16.5,193.8,16.8c70.5,0.4,224.9-45.2,224.9-45.2c79.5-18.7,121.8-7.6,121.8-7.6c0.6,0.1,1.1,0.2,2,0.5
				c0.3,0,0.3,0.2,0.6,0.2c0.3,0.2,0.9,0.2,1.2,0.4c0.3,0,0.6,0.2,0.9,0.2c0.3,0.2,0.7,0.3,1.2,0.4c0.4,0.2,0.6,0.2,1,0.4
				c0.4,0.3,0.6,0.4,1,0.4c0.4,0.2,0.6,0.4,1,0.4c0.4,0.2,0.6,0.4,1,0.5c0.4,0.2,0.6,0.4,1,0.5c0.2,0.2,0.6,0.4,0.7,0.4
				c16.7,11.1,29.3,38.4,32.6,61.6c0,0,5.8,21,5.9,29.7c0.3,8.6,23.4,91.3,27.3,101.8c3.9,10.7,14.2,57.9,54.9,117.7
				s48.1,129.2,49.7,141.3c1.4,12.1-8.8,11.4-8.8,11.4c-44.2-7-55.3,33.5-55.3,33.5c-19.4,50.1-90.7,42.8-100.8,42
				s-32.2,4.4-51.1,14.9c-18.9,10.5-34.1,12.8-34.1,12.8c-39.5,9.1-62.2-10-80.8-20s-42.7-13.6-102.1-18.3
				c-59.4-4.6-69.5-51.9-69.5-51.9c-5.5-50.2-73.7-33.2-73.7-33.2s-59.7,16-127.9,14.1s-119-26.5-129.7-61.7
				c-11-35.2,44.4-87.6,44.4-87.6c25.1-28.9,13.9-62.5,13.9-62.5c-14-30.4-62.9-44.5-62.9-44.5c-39.4-9.9-82.4-21.9-101.2-59.5
				C111.8,501,157,461.3,157,461.3c0.3-0.3,0.7-0.4,1-0.7c10.2-9,19.6-23.6,25-32.3c0.9-1.7,1.7-2.9,2.4-4l0,0
				C184.8,424.5,186.1,420.3,187,417.4z"/>
			<path style="fill:#061123;" d="M266.3,561.3c-6.9,2.9-29.4,1.2-43.7,0c-12.5-1-39.3-1.7-69.4,5.3c21.4,16.6,50.5,24.5,77.9,31.5
				c0,0,39.1-26.1,71-28.9c0,0,16.7-0.4,17.5-3.8C320.2,562,273.3,558.4,266.3,561.3z"/>
			<path style="fill:#061123;" d="M879.9,850c-0.1-46.5,12.6-66,16.5-55.4c0,0,6,0.5,6.8,16c0,0,26.1-89,13.5-126
				c-12.5-37.1-10.6-102.2-1.4-96.4c9.2,5.8,20.1,22.1,34.8,68c14.7,45.8,49.6,122.5,45,199.4c0,0,18-62.2-19.6-182.3
				c-17-54.3-20.7-87.7-18.1-108.3c-8.3-28.5-19.6-70.8-19.7-76.8c-0.3-8.5-5.9-29.7-5.9-29.7c-3.5-23-15.9-50.2-32.6-61.6
				c-0.2-0.2-0.6-0.4-0.7-0.4c-0.4-0.2-0.6-0.4-1-0.5c-0.4-0.2-0.6-0.4-1-0.5c-0.4-0.2-0.6-0.4-1-0.4c-0.4-0.2-0.6-0.4-1-0.4
				c-0.4-0.2-0.7-0.3-1-0.4c-0.3-0.2-0.9-0.2-1.2-0.4c-0.3,0-0.6-0.2-0.9-0.2c-0.3-0.2-0.9-0.2-1.2-0.4c-0.3,0-0.3-0.2-0.6-0.2
				c-0.6-0.2-1.1-0.2-2-0.5c0,0-42.3-11-121.6,8c0,0-146.9,43.4-219.7,45.1c-30.1,32-137.6,24.5-188,21.4c-22.7-1-49.8,4-63,9.4
				c13.7-2.8,32.9-4.3,36.3-4.1c10.2,0.8,152.2,17,202.2,7.1c0,0,17.5-3.8,11.5,4.4c-6,8.2-55.9,26.5-50.9,32.1
				c5.1,5.5,111-33,122.8-29.2c11.8,3.9-35.5,48.1-71.1,67.7c0,0-43.9,29.2-57.5,43.6c0,0-6.8,2.9-0.8-5.2
				c5.8-8.1,30.2-23.5,21.9-24.1c0,0-104.6,77.8-111.9,82.3c-7.1,4.7-98.4,59.3-93,63.2s17-2.1,16.3,1.3c-0.1,0.7,1.3,3.6-6.3,13.3
				c0,0-35.5,43.6-45.8,61.7c-10.3,18.1-18.3,26-18.3,26h0.3c-0.3,0.1-0.6,0.3-1,0.4c22,22,63.6,36.2,114.7,37.6
				c28.3,0.8,55.4-1.6,76.9-4.5c2.4-15.5,6.6-34.5,14-48.6c14.5-28.1,140.1-217.7,204.5-245.3c0,0,28.3-15,38.8,3.1
				c10.6,18-132.6,221.7-133.5,262.9c0,0,1.9-2.1,4.7-5.3c6.9-9.6,16.3-21.4,19.8-20.8l0,0c1-0.5,1.5-0.5,1.9,0.7
				c1.3,3.6-12.5,92.9-7.3,107.4c10.4,10.3,26.5,19.6,51.3,21.5c59.2,4.6,83.5,8.3,102.1,18.3c18.4,10,41.3,29,80.8,20
				c0,0,15-2.2,33.8-12.6C861.4,932.5,880,886.2,879.9,850z M489.2,699c0,0-114.6,94.3-149.4,82.9c0,0-15.5,3.9,1.1-24
				c16.7-27.9,107.1-125.6,145-146.8c0,0,110.4-56.6,139.8-57.8C655.1,552.2,502.1,688,489.2,699z"/>
		</g>
		
			<animate  accumulate="none" additive="replace" attributeName="display" begin="0s" calcMode="linear" dur="1s" fill="remove" id="frame9" keyTimes="0.0;0.1;0.2;0.3;0.4;0.5;0.6;0.7; 0.8;0.9;1" repeatCount="indefinite" restart="always" values="none;none;none;none;none;none;none;none;inline; none; none">
			</animate>
	</g>
	<g id="frame10">
		<g>
			<path style="fill:#061123;" d="M931.8,458.6c-3.5-23-16.1-50.2-32.6-61.6c-0.2-0.2-0.6-0.4-0.7-0.4c-0.4-0.2-0.6-0.4-1-0.5
				s-0.6-0.4-1-0.5c-0.4-0.2-0.6-0.4-1-0.4c-0.4-0.2-0.6-0.4-1-0.4c-0.4-0.2-0.7-0.3-1-0.4s-0.9-0.2-1.2-0.4c-0.3,0-0.6-0.2-0.9-0.2
				c-0.3-0.2-0.9-0.2-1.2-0.4c-0.3,0-0.3-0.2-0.6-0.2c-0.6-0.2-1.1-0.2-2-0.5c0,0-42.3-11-121.4,6.8c0,0-0.8,0.2-2.4,0.6
				c0,0,0,0-0.3,0c-5.7,1.7-20.5,6-40.2,11.2c0,0-102.8,23.8-222.9,21.4s-256.2-33.9-256.2-33.9s-21.4-6.9-39.1-1.3
				c-17.9,5.5-73.3,40.1-63.6,80c0,0-1.9,26.7,44.2,44c46.1,17.3,77.6,43.9,81.7,63.1c0,0,22.8,27.6-20.4,72.3
				c-43.2,44.8-64.1,91.2,1.1,125.5c0,0,35.2,20,106.5,17S466,813.1,466,813.1s28,14.2,11.1,43.8c0,0-48.7,59.8,35.4,75
				c0,0,23.1,8.6,60.1,1.2c0,0,51.7-8,77.3-11.1c25.6-3.2,37.6-19.4,75.2,7.6c37.6,27,104.6,44.3,134.9,29.5
				c30.3-14.9,23.5-30.8,62.1-36.4c0,0,100.5-2.4,122.7-55.7c0,0,2.1-18.7,11.9-24.9c9.6-6,15.9-5.5,15.3-12.5
				c-0.6-6.9-19.8-79-48.2-110.4c0,0-22.1-22.4-32.4-50.6c-10.2-28.3-25.9-79.4-25.9-79.4c-1.1-3.2-4-12.9-7.6-25.2
				c-0.2-0.9-0.5-1.6-0.7-2.5c0,0,0-0.2-0.2-0.2c-0.4-1.7-1-3.5-1.5-5.3c0-0.2-0.2-0.4-0.2-0.5c-0.2-0.9-0.5-1.8-0.7-2.6
				c0,0,0,0,0-0.2c-0.2-0.9-0.7-2-0.8-2.7c0-0.2-0.2-0.4-0.2-0.4c-0.2-0.7-0.5-1.6-0.7-2.3c0-0.2-0.2-0.4-0.2-0.5
				c-0.4-1.7-1-3.7-1.4-5.5c0-0.2-0.2-0.4,0-0.7c-0.2-0.7-0.5-1.6-0.7-2.3c0-0.2-0.2-0.4-0.2-0.5c-0.2-0.9-0.5-1.7-0.8-2.7
				c0-0.2-0.2-0.4-0.2-0.5c-0.3-0.7-0.5-1.6-0.5-2.3c-0.2-0.2,0-0.5-0.2-0.7c-0.4-1.7-1-3.7-1.4-5.5c0-0.2-0.2-0.4-0.2-0.5
				c-0.3-0.7-0.5-1.6-0.5-2.3c0-0.2-0.2-0.4-0.2-0.5c-0.2-0.9-0.5-1.8-0.7-2.6c0-0.2-0.2-0.4-0.2-0.5c-0.3-0.7-0.3-1.4-0.7-2.1
				c0-0.2-0.2-0.4-0.2-0.5c-0.2-0.9-0.5-1.8-0.7-2.5l0,0c-0.2-0.9-0.5-1.6-0.7-2.5c-0.2-0.2,0-0.5-0.2-0.7c0-0.7-0.3-1.2-0.5-1.8
				c0-0.2-0.2-0.4-0.2-0.5c-0.3-0.7-0.3-1.4-0.5-2.3c0-0.2-0.2-0.4-0.2-0.5c-0.2-0.5-0.3-1.2-0.5-1.8c0-0.2-0.2-0.4,0-0.7
				c-0.3-0.7-0.3-1.4-0.7-2.1l0,0c0-0.7-0.3-1.2-0.4-1.9c0-0.2-0.2-0.4-0.2-0.5c-0.2-0.6,0-1.1-0.3-1.4c0-0.2-0.2-0.2-0.2-0.4
				c-0.2-0.5-0.2-1.2-0.5-1.8c0-0.2-0.2-0.2-0.2-0.4c-0.2-0.4-0.2-1-0.3-1.2c0-0.2-0.2-0.4-0.2-0.4c-0.2-0.6,0-1.1-0.3-1.4l0,0
				c-0.2-0.6-0.2-1-0.3-1.2c0-0.2,0-0.2-0.2-0.4c0-0.3,0-0.5-0.2-0.9v-0.2c0-0.3,0-0.7-0.2-0.9v-0.2c0-0.2-0.2-0.4,0-0.7v-0.2
				c0-0.2-0.2-0.4-0.2-0.5C937.5,479.6,931.8,458.6,931.8,458.6"/>
			<path style="fill:#061123;" d="M149.9,499c0,0,20.1-0.4,25.5,3.5s18.9,8.4,25,8.9s43.4,1.6,42.6,5c-0.7,3.4-40.3,9.6-43.3,11.5
				c0,0-14.3-6.6-22.8-9.5C168.2,515.8,151.7,504.6,149.9,499z"/>
			<path style="fill:#061123;" d="M894.9,875.9c1.7-17.1,7.4-23.5-10.2-0.8c-17.6,22.7-10.1-76.4-3.6-86.2
				c6.5-9.9,11.1-12.9,13.9-5.8c2.5,7.1-2.4,48,19.8,60c0,0,1.6,1.8,1.2-5c-0.5-6.9-12-30.2-13.3-71.5
				c-1.1-41.3-1.7-132.5,8.8-141.9c10.5-9.5,33.1-18.1,48.4,15.8c15.3,33.8,33.7,100.7,37.7,92.3c4-8.3-26.1-60.5-17.6-70.1
				c1.5-1.8,4.4-2.2,8.1-2.1c-10.1-29-23-71.3-23-71.3c-1.1-3.2-4-12.9-7.6-25.2c-0.2-0.9-0.5-1.6-0.7-2.5c0,0,0-0.2-0.2-0.2
				c-0.4-1.7-1-3.5-1.5-5.3c0-0.2-0.2-0.4-0.2-0.5c-0.2-0.9-0.5-1.8-0.7-2.6c0,0,0,0,0-0.2c-0.2-0.9-0.7-2-0.8-2.7
				c0-0.2-0.2-0.4-0.2-0.4c-0.2-0.7-0.5-1.6-0.7-2.3c0-0.2-0.2-0.4-0.2-0.5c-0.4-1.7-1-3.7-1.4-5.5c0-0.2-0.2-0.4,0-0.7
				c-0.2-0.7-0.5-1.6-0.7-2.3c0-0.2-0.2-0.4-0.2-0.5c-0.2-0.9-0.5-1.7-0.8-2.7c0-0.2-0.2-0.4-0.2-0.5c-0.3-0.7-0.5-1.6-0.5-2.3
				c-0.2-0.2,0-0.5-0.2-0.7c-0.4-1.7-1-3.7-1.4-5.5c0-0.2-0.2-0.4-0.2-0.5c-0.3-0.7-0.5-1.6-0.5-2.3c0-0.2-0.2-0.4-0.2-0.5
				c-0.2-0.9-0.5-1.8-0.7-2.6c0-0.2-0.2-0.4-0.2-0.5c-0.3-0.7-0.3-1.4-0.7-2.1c0-0.2-0.2-0.4-0.2-0.5c-0.2-0.9-0.5-1.8-0.7-2.5l0,0
				c-0.2-0.9-0.5-1.6-0.7-2.5c-0.2-0.2,0-0.5-0.2-0.7c0-0.7-0.3-1.2-0.5-1.8c0-0.2-0.2-0.4-0.2-0.5c-0.3-0.7-0.3-1.4-0.5-2.3
				c0-0.2-0.2-0.4-0.2-0.5c-0.2-0.5-0.3-1.2-0.5-1.8c0-0.2-0.2-0.4,0-0.7c-0.3-0.7-0.3-1.4-0.7-2.1l0,0c0-0.7-0.3-1.2-0.4-1.9
				c0-0.2-0.2-0.4-0.2-0.5c-0.2-0.6,0-1.1-0.3-1.4c0-0.2-0.2-0.2-0.2-0.4c-0.2-0.5-0.2-1.2-0.5-1.8c0-0.2-0.2-0.2-0.2-0.4
				c-0.2-0.4-0.2-1-0.3-1.2c0-0.2-0.2-0.4-0.2-0.4c-0.2-0.6,0-1.1-0.3-1.4l0,0c-0.2-0.6-0.2-1-0.3-1.2c0-0.2,0-0.2-0.2-0.4
				c0-0.3,0-0.5-0.2-0.9v-0.2c0-0.3,0-0.7-0.2-0.9v-0.2c0-0.2-0.2-0.4,0-0.7v-0.2c0-0.2-0.2-0.4-0.2-0.5c-0.3-8.5-5.9-29.7-5.9-29.7
				c-3.5-23-15.9-50.2-32.6-61.6c-0.2-0.2-0.6-0.4-0.7-0.4c-0.4-0.2-0.6-0.4-1-0.5c-0.4-0.2-0.6-0.4-1-0.5c-0.4-0.2-0.6-0.4-1-0.4
				c-0.4-0.2-0.6-0.4-1-0.4c-0.4-0.2-0.7-0.3-1-0.4c-0.3-0.2-0.9-0.2-1.2-0.4c-0.3,0-0.6-0.2-0.9-0.2c-0.3-0.2-0.9-0.2-1.2-0.4
				c-0.3,0-0.3-0.2-0.6-0.2c-0.6-0.2-1.1-0.2-2-0.5c0,0-42.3-11-121.9,7.4c0,0-0.8,0.2-2.4,0.6c0,0,0,0-0.3,0
				c-5.7,1.7-20.5,6-40.2,11.2c0,0-85.5,19.9-192,21.6c-7.1,3.4-17.2,6.9-28.4,7.1c-20.8,0.1-58.9-6.4-53.8-0.7
				c5.1,5.5,50.2,13.8,91.9,10.3c0,0,31.5-4.1,29.2,6c-2.2,10.2-84.8,26.1-87,36.2s93-6.5,108.4-10.5s25.8-5.2,25.4,1.8
				c-0.2,6.9-27.8,37.5-59.1,47.1c0,0-33.2,9.5-58.7,21.2s-144,67.7-145.5,74.5s13.3-4.2,16.7-0.4c3.4,3.7-35.2,36.7-49.3,44.3
				c-14.1,7.6-64.8,38.9-60.2,56c0,0,0.2,8.1,10.3,0.3c0,0,24.7-17,35.8-29.8c11.1-12.8,57.1-50.6,83.3-65.6
				c26.3-15.3,52.9-32,75.2-38.9s86.6-15.6,104.3-29.7c0,0,23.8-13.7,30.6-6.2S518.4,684,377.6,728c-91.9,28.8-126.4,38.5-144,47.2
				c4,2.8,8.3,5.4,13.1,7.9c0,0,35.2,20,106.5,17c17-0.7,32.3-0.2,45.6,0.8c11.9-18.6,29.3-44.4,39.2-54.4
				c16-15.9,166.5-177.7,223.6-182c0,0,11.9,2.7,1.7,20.8C653.2,603.5,524.9,720,480.7,834.6l0,0c1.4,6.3,0.2,13.9-4.9,23.2
				c0,0-48.7,59.8,35.4,75c0,0,23.1,8.6,60.1,1.2c0,0,51.7-8,77.3-11.1c25.6-3.2,37.6-19.4,75.2,7.6s104.6,44.3,134.9,29.5
				c13.6-6.7,19.9-13.6,25.8-19.6C888.9,919,893.7,887.6,894.9,875.9z"/>
		</g>
		
			<animate  accumulate="none" additive="replace" attributeName="display" begin="0s" calcMode="linear" dur="1s" fill="remove" id="frame10" keyTimes="0.0;0.1;0.2;0.3;0.4;0.5;0.6;0.7; 0.8;0.9;1" repeatCount="indefinite" restart="always" values="none;none;none;none;none;none;none;none;none; inline; none">
			</animate>
	</g>
</g>
<g id="flames">
	<g id="f6" style="display:none;">
		<g style="display:inline;">
			<path style="fill:#F46800;" d="M741.6,1165.2l-20.7-48.8l-2-4.6l-20.7-48.8c0,0-59-20-140.1,22.6
				c-79.9,41.9-167.4,170.7-237.6,205.9c0,0,0.1,0.1,0.1,0.2c73.8-26.7,221.9-12.7,307.6-41.1C715,1221.5,741.6,1165.2,741.6,1165.2
				z"/>
			<path style="fill:#FFA02E;" d="M705,1080.6l29.7,68.4c0,0-106.2,86.9-223.8,59.8C510.9,1208.8,568,1089.4,705,1080.6z"/>
		</g>
		
			<animate  accumulate="none" additive="replace" attributeName="display" begin="0s" calcMode="linear" dur=".5s" fill="remove" id="flames" keyTimes="0; 0.2; 0.4; 0.6; 0.8; 0.9;  1" repeatCount="indefinite" restart="always" values="none;none;none; none; none; inline; none">
			</animate>
	</g>
	<g id="f5">
		<g>
			<path style="fill:#F46800;" d="M288.7,1306.5c42.3-10.9,180.1-35.5,234-40.8c84.2-8.3,185.6-4.5,219.3-109.2l-19-43l-0.2-0.7
				l-0.2-0.5l-0.2-0.7l-19-42.9c-100.3-45.3-165.5,32.4-228.2,89.3C419.3,1208.7,307.9,1293.8,288.7,1306.5"/>
			<path style="fill:#FFA02E;" d="M702.4,1070.9l37.7,81.3c0,0-103.4,77.8-262.9,68.8C477.3,1220.9,606,1076.2,702.4,1070.9z"/>
		</g>
		
			<animate  accumulate="none" additive="replace" attributeName="display" begin="0s" calcMode="linear" dur=".5s" fill="remove" id="flames" keyTimes="0; 0.2; 0.4; 0.6; 0.8; 0.9;  1" repeatCount="indefinite" restart="always" values="none;none;none; none; inline; none; none">
			</animate>
	</g>
	<g id="f4">
		<g>
			<path style="fill:#F46800;" d="M745.5,1165.4l-25.1-56.4h-0.1l-26.8-54.1c0,0-97.6-31.3-195.4,63.7s-137.9,149.8-195.5,180.3l0,0
				c61.2-22.2,125.2-25.5,261-34.3C699.8,1255.7,745.5,1165.4,745.5,1165.4z"/>
			<path style="fill:#FFA02E;" d="M698.9,1057l42.4,99.1c0,0-68,69.3-228.7,50.3C512.6,1206.4,552.8,1112.3,698.9,1057z"/>
		</g>
		
			<animate  accumulate="none" additive="replace" attributeName="display" begin="0s" calcMode="linear" dur=".5s" fill="remove" id="flames" keyTimes="0; 0.2; 0.4; 0.6; 0.8; 0.9;  1" repeatCount="indefinite" restart="always" values="none;none;none; inline; none; none; none">
			</animate>
	</g>
	<g id="f3">
		<g>
			<path style="fill:#F46800;" d="M745.5,1165.4l-25.1-56.4h-0.1l-26.8-54.1c0,0-97.6-31.3-195.4,63.7s-137.9,149.8-195.5,180.3l0,0
				c61.2-22.2,125.2-25.5,261-34.3C699.8,1255.7,745.5,1165.4,745.5,1165.4z"/>
			<path style="fill:#FFA02E;" d="M698.9,1057l42.4,99.1c0,0-68,69.3-228.7,50.3C512.6,1206.4,552.8,1112.3,698.9,1057z"/>
		</g>
		
			<animate  accumulate="none" additive="replace" attributeName="display" begin="0s" calcMode="linear" dur=".5s" fill="remove" id="flames" keyTimes="0; 0.2; 0.4; 0.6; 0.8; 0.9;  1" repeatCount="indefinite" restart="always" values="none;none;inline; none; none; none; none">
			</animate>
	</g>
	<g id="f2_1_">
		<g id="f2">
			<path style="fill:#F46800;" d="M744.4,1175.2l-23.8-56.3l-0.2-0.6l-23.8-56.4c0,0-73.8-30-139,27.4
				c-61.4,54-139.5,149.3-198.1,181.4l-11.2,4.7c1.7-0.8,3.8-1.4,5.8-2.1c-1.8,0.9-3.7,2-5.4,2.6l11.2-4.7
				c63.8-19.6,186.7-9.2,268.2-15.6C714.4,1248.9,744.4,1175.2,744.4,1175.2z"/>
			<path style="fill:#FFA02E;" d="M703.9,1078.9c-9.1-0.1-56.1,0.9-91.6,36.1c-34.6,34.1-64.5,70.6-71.5,79.3l-0.6,0.2
				c0.1,0,0.2,0,0.3,0l0,0h0.1c11.1,1,58.1,5,106.7,4c54.5-1,89.6-40.3,90.8-41.6L703.9,1078.9z"/>
		</g>
		
			<animate  accumulate="none" additive="replace" attributeName="display" begin="0s" calcMode="linear" dur=".5s" fill="remove" id="flames" keyTimes="0; 0.2; 0.4; 0.6; 0.8; 0.9;  1" repeatCount="indefinite" restart="always" values="none;inline;none; none; none; none; none">
			</animate>
	</g>
	<g id="f1">
		<g>
			<path style="fill:#F46800;" d="M299.8,1297.6c85.8-24.7,220.1-26.4,320.2-40.4c112.4-15.9,123.4-87,123.4-87l-20-46.9l-5.6-13.2
				l-20-46.9c0,0-58.9-41.4-148.1,28.8c-79.7,62.7-172.9,161.4-250.2,206L299.8,1297.6z"/>
			<g>
				<path style="fill:#F6B722;" d="M696.2,1064.9L696.2,1064.9c0.7,0,1.2,0,1.2,0H696.2z"/>
				<path style="fill:#FFA02E;" d="M508.1,1208.7c4.3-7.3,29-48.2,71.8-89.3c41.1-39.5,101.8-45.5,116.6-46.4
					c0.9-0.1,1.6-0.1,2.2-0.1l16.8,44.8l-0.6,3.8l2.9,1.3l20.7,43.2c-0.3,0.3-0.9,0.8-1.6,1.5c-10.8,10-57.3,49.8-114.3,52.1
					C622.6,1219.4,561.9,1220.8,508.1,1208.7z"/>
				<path style="fill:#F6B722;" d="M736.7,1157.2c0,0-0.3,0.3-0.8,0.8l0,0L736.7,1157.2z"/>
			</g>
		</g>
		
			<animate  accumulate="none" additive="replace" attributeName="display" begin="0s" calcMode="linear" dur=".5s" fill="remove" id="flames" keyTimes="0; 0.2; 0.4; 0.6; 0.8; 0.9;  1" repeatCount="indefinite" restart="always" values="inline;none;none; none; none; none; none">
			</animate>
	</g>
</g>
<g>
	
		<linearGradient id="SVGID_00000085943168319437723570000003128969611394913689_" gradientUnits="userSpaceOnUse" x1="-2819.2205" y1="-1513.4436" x2="-2525.5391" y2="-1481.6436" gradientTransform="matrix(-0.375 -0.927 -0.927 0.375 -1678.7773 -1049.4189)">
		<stop  offset="0.3425" style="stop-color:#CCCCFF"/>
		<stop  offset="0.9574" style="stop-color:#6699FF"/>
		<stop  offset="1" style="stop-color:#CCCCDC"/>
	</linearGradient>
	
		<path style="fill:url(#SVGID_00000085943168319437723570000003128969611394913689_);stroke:#000033;stroke-width:4;stroke-miterlimit:10;" d="
		M938.5,876.7l-104.3-49.9c0,0-164.5,0.8-313,97.2c0,0,198.7,50.1,224.4,71.5C771.3,1017.1,938.5,876.7,938.5,876.7z"/>
	<path style="opacity:0.49;fill:#9999FF;enable-background:new    ;" d="M566,910.3c116.9-59.2,232.1-65.8,252.7-66.6l80.3,38.4
		c-9.7,7.8-22.5,18-36.9,29C813.3,883.5,721.6,859.8,566,910.3z"/>
	
		<linearGradient id="SVGID_00000039833846375817915920000013272705401284085917_" gradientUnits="userSpaceOnUse" x1="12339.2803" y1="-1515.3201" x2="12632.9434" y2="-1483.5222" gradientTransform="matrix(0.375 0.927 -0.927 0.375 -5183.1987 -9714.627)">
		<stop  offset="0.3425" style="stop-color:#CCCCFF"/>
		<stop  offset="0.9574" style="stop-color:#6699FF"/>
		<stop  offset="1" style="stop-color:#CCCCDC"/>
	</linearGradient>
	
		<path style="fill:url(#SVGID_00000039833846375817915920000013272705401284085917_);stroke:#000033;stroke-width:4;stroke-miterlimit:10;" d="
		M1045.1,1133l-40.3,108.4c0,0-118.8,113.8-292.6,147.7c0,0,107.9-174.2,111.6-207.5C827.4,1148.3,1045.1,1133,1045.1,1133z"/>
	<path style="opacity:0.49;fill:#9999FF;enable-background:new    ;" d="M1042.5,1134.1l-25.6,68.9c-22.2,5.4-48,2.9-68.5,13.9
		c-7.1,3.8-13.4,9.2-19.9,14.1c-17.7,13.1-38,22.5-59.1,28.9c-17.3,5.3-35.6,9.1-50.3,19.6c-5.1,3.6-9.6,7.9-14.7,11.4
		c-9.3,6.1-20.4,9-31.2,11.8c-4.4,1.2-8.8,2.3-13.2,3.3c28.7-49.5,59.4-105.9,61.3-123.4C824.8,1149.4,1042.5,1134.1,1042.5,1134.1z
		"/>
	
		<linearGradient id="SVGID_00000071520726721914317480000011770638359670187199_" gradientUnits="userSpaceOnUse" x1="1568.1464" y1="65.1248" x2="637.2739" y2="-12.1796" gradientTransform="matrix(1 0 0 1 0 974)">
		<stop  offset="0.3425" style="stop-color:#CCCCFF"/>
		<stop  offset="0.9574" style="stop-color:#6699FF"/>
		<stop  offset="1" style="stop-color:#CCCCDC"/>
	</linearGradient>
	
		<path style="fill:url(#SVGID_00000071520726721914317480000011770638359670187199_);stroke:#000033;stroke-width:4;stroke-miterlimit:10;" d="
		M1337.7,987.1c-109.6,98.5-316.4,218.3-522.8,225.2l-94.5-233.5c153.1-138.5,385.1-196.2,532.3-201.6
		c8.8,34.1,20.6,70.5,35.7,107.6C1303.5,922,1320.3,956.4,1337.7,987.1z"/>
	<path style="opacity:0.49;fill:#9999FF;enable-background:new    ;" d="M1226.7,799.5c3.2-0.2,6.3-0.6,9.6-0.8
		c81.9-6.5,151.7-1.7,196.4,3.3c-42.3,2.9-108.7,10.4-185.5,30.2c-1.6,0.5-3.2,0.9-5,1.3c-2.6,0.7-50.2,19.6-52.9,20.3
		c-139,37.8-307.7,116.2-425.1,278.2l-10.8-20l-41.5-91.5C856,878.9,1081.3,812.4,1226.7,799.5z"/>
	
		<linearGradient id="SVGID_00000053530499431107345370000013090845630700349609_" gradientUnits="userSpaceOnUse" x1="-2859.179" y1="-1505.1147" x2="-2933.2422" y2="-1414.9196" gradientTransform="matrix(-0.375 -0.927 -0.927 0.375 -1678.7773 -1049.4189)">
		<stop  offset="0" style="stop-color:#000000"/>
		<stop  offset="0.8543" style="stop-color:#000000"/>
		<stop  offset="1" style="stop-color:#000000"/>
	</linearGradient>
	<path style="fill:url(#SVGID_00000053530499431107345370000013090845630700349609_);" d="M740.8,1204.6L672.6,1036
		c16.2-18.4,33.2-35.4,50.5-51l89.5,221.3C789.2,1207,765.2,1206.5,740.8,1204.6z"/>
	
		<linearGradient id="SVGID_00000095300723608587625260000003847747512075011486_" gradientUnits="userSpaceOnUse" x1="-2875.6582" y1="-1493.2637" x2="-2925.1548" y2="-1493.2637" gradientTransform="matrix(-0.375 -0.927 -0.927 0.375 -1678.7773 -1049.4189)">
		<stop  offset="0" style="stop-color:#6289B7"/>
		<stop  offset="0.2673" style="stop-color:#557CA5"/>
		<stop  offset="0.3243" style="stop-color:#5279A0"/>
		<stop  offset="0.6967" style="stop-color:#5980AB"/>
		<stop  offset="1" style="stop-color:#6289B7"/>
	</linearGradient>
	<path style="fill:url(#SVGID_00000095300723608587625260000003847747512075011486_);" d="M814.6,1061.8
		c-121.4,49.1-217.6,94.6-214.7,101.6c2.9,7,103.6-27.1,225.1-76.3c121.4-49.1,168.4-74.8,165.5-81.7
		C987.7,998.5,936.2,1012.6,814.6,1061.8z"/>
	
		<linearGradient id="SVGID_00000029008917009951620260000006626640145549208195_" gradientUnits="userSpaceOnUse" x1="-2896.1899" y1="-1498.4348" x2="-2918.582" y2="-1498.4348" gradientTransform="matrix(-0.375 -0.927 -0.927 0.375 -1678.7773 -1049.4189)">
		<stop  offset="0" style="stop-color:#6289B7"/>
		<stop  offset="0.2673" style="stop-color:#557CA5"/>
		<stop  offset="0.3243" style="stop-color:#5279A0"/>
		<stop  offset="0.6967" style="stop-color:#5980AB"/>
		<stop  offset="1" style="stop-color:#6289B7"/>
	</linearGradient>
	<path style="fill:url(#SVGID_00000029008917009951620260000006626640145549208195_);" d="M621.5,1154.8
		c32.5-8.9,103.2-33.3,201.4-73c106.2-43,143-62.8,155.7-71.4c-15.1,2.6-55.3,13.9-161.6,56.9
		C718.8,1106.9,650.9,1138.5,621.5,1154.8z"/>
	
		<linearGradient id="SVGID_00000158015238200903339910000013747460021405937543_" gradientUnits="userSpaceOnUse" x1="-3000.1926" y1="-2086.6243" x2="-2814.3359" y2="-2156.8284" gradientTransform="matrix(-0.375 -0.927 -0.927 0.375 -1678.7773 -1049.4189)">
		<stop  offset="0" style="stop-color:#000000"/>
		<stop  offset="0.8543" style="stop-color:#000000"/>
		<stop  offset="1" style="stop-color:#000000"/>
	</linearGradient>
	<path style="fill:url(#SVGID_00000158015238200903339910000013747460021405937543_);" d="M1337.7,987.1
		c-17.4-30.5-34.2-65-49.2-102.2c-15-37.1-27-73.5-35.7-107.6c142.8-5.2,248.1,21.7,248.1,21.7S1444.1,891.5,1337.7,987.1z"/>
	
		<linearGradient id="SVGID_00000085959896593763899030000000668849283728876939_" gradientUnits="userSpaceOnUse" x1="-3000.1926" y1="-2086.6243" x2="-2814.3359" y2="-2156.8284" gradientTransform="matrix(-0.375 -0.927 -0.927 0.375 -1678.7773 -1049.4189)">
		<stop  offset="0" style="stop-color:#000000"/>
		<stop  offset="0.8543" style="stop-color:#000000"/>
		<stop  offset="1" style="stop-color:#000000"/>
	</linearGradient>
	<path style="fill:url(#SVGID_00000085959896593763899030000000668849283728876939_);" d="M1337.7,987.1
		c-17.4-30.5-34.2-65-49.2-102.2c-15-37.1-27-73.5-35.7-107.6c142.8-5.2,248.1,21.7,248.1,21.7S1444.1,891.5,1337.7,987.1z"/>
	<g>
		<g>
			
				<linearGradient id="SVGID_00000052782648990704571650000001682438635705996984_" gradientUnits="userSpaceOnUse" x1="924.0862" y1="1357.7234" x2="1049.5176" y2="1357.7234" gradientTransform="matrix(0.3817 0.9243 -0.9243 0.3817 2053.3813 -499.844)">
				<stop  offset="0" style="stop-color:#000000"/>
				<stop  offset="0.8543" style="stop-color:#000000"/>
				<stop  offset="1" style="stop-color:#000000"/>
			</linearGradient>
			<circle style="fill:url(#SVGID_00000052782648990704571650000001682438635705996984_);" cx="1175.1" cy="930.5" r="62.7"/>
			<ellipse style="fill:#3D3A49;" cx="1175.1" cy="930.6" rx="47.9" ry="47.9"/>
			<path style="fill:#CAE8FB;" d="M1192,971.7c-22.8,9.4-48.8-1.5-58.2-24.2c-0.6-1.5-1.2-3-1.6-4.5c-0.9-3.1-1.5-6.1-1.7-9.2
				c-0.2-2.9-0.1-5.8,0.2-8.5c0.5-3.7,1.4-7.4,2.8-10.9c4.1-10.9,12.8-20.2,24.4-25c22.8-9.4,48.8,1.5,58.2,24.2
				c3.1,7.6,4,15.4,3,23c-0.6,4.1-1.7,8.1-3.3,11.9c-1.3,3-2.9,5.8-4.8,8.4c-1.7,2.6-3.9,5-6.3,7
				C1201,967.1,1196.9,969.8,1192,971.7z"/>
			<path style="fill:#E5F4FD;" d="M1215.9,948.4C1215.8,948.4,1215.8,948.4,1215.9,948.4l-85-23c0.5-3.7,1.4-7.4,2.8-10.9l85.5,21.9
				l0.1,0.3C1218.6,940.6,1217.5,944.7,1215.9,948.4z"/>
			<path style="fill:#E5F4FD;" d="M1204.7,963.8l-72.5-20.9c-0.9-3.1-1.5-6.1-1.7-9.2l80.4,22.9
				C1209.2,959.4,1207,961.7,1204.7,963.8z"/>
		</g>
	</g>
</g>
<g>
	<g>
		
			<linearGradient id="SVGID_00000039837988831767067780000005456178347794745535_" gradientUnits="userSpaceOnUse" x1="1410.9066" y1="-830.2395" x2="1686.0096" y2="-830.2395" gradientTransform="matrix(-0.9772 -0.2122 -0.2122 0.9772 2403.3076 2143.5037)">
			<stop  offset="0.3425" style="stop-color:#CCCCFF"/>
			<stop  offset="0.9574" style="stop-color:#6699FF"/>
			<stop  offset="1" style="stop-color:#CCCCDC"/>
		</linearGradient>
		
			<path style="fill:url(#SVGID_00000039837988831767067780000005456178347794745535_);stroke:#000033;stroke-width:4;stroke-miterlimit:10;" d="
			M969.1,806.5c0,0-2.2-11.4,2.5,36.1s39.1,39.9,39.1,39.9c40.4-5.4,114.9-2.8,143,9.3c0,0-52.3,11.4-55.4,49.8
			c-3.1,38.2-26.4,130.3-38.4,137.5c-10.3,6.3-34.7,6.2-40.2,11.3l0,0l0,0c-0.9,0.9-1.3,1.7-1,3l-19.5,55.8c-1,2.4-1.8,5.2-2.8,8.1
			l0,0l0,0c-6.7,22.7-9.3,57.1-4.4,55.1c6.1-2.5,21.9-42,48.2-56.9c26.3-14.9,155.3-220.3,155.3-220.3l41-66.9
			c0,0-5.9-31.2-20.6-37.4c0,0-85.5-54.7-182.7-50.5L969.1,806.5z"/>
		<g>
			<path style="fill:#061123;" d="M996.4,1157.2c-6.7,22.7-9.3,57.1-4.4,55.1c6.1-2.5,21.9-42,48.2-56.9
				c20.6-11.6,104.5-140.8,139.6-195.7c-24.9-3.2-65.5-9.1-81.8-14.5c-4.1,40.1-26.4,127.1-38.1,134.2c-10.3,6.3-34.7,6.2-40.2,11.3
				l0,0l0,0c-0.9,0.9-1.3,1.7-1,3l-19.5,55.8C998.3,1151.7,997.3,1154.4,996.4,1157.2z"/>
		</g>
	</g>
	<path style="fill:#061123;" d="M979.8,874.2c0,0-26.1-10.9-26.2-77.2c0,0,90.3-11.6,134.3-58.3c0,0,19.2,38.7,25.1,50.1l-42.8-7.4
		C1070.1,781.4,969,779.9,979.8,874.2z"/>
	<path style="fill:#061123;" d="M874.1,827.5c-0.7,0.5-1.2,0.7-1.8,1C872.7,828.2,873.3,827.9,874.1,827.5z"/>
	<path style="fill:#9999FF;" d="M867.1,932.3"/>
	
		<linearGradient id="SVGID_00000137122536528444878880000005327045916778060693_" gradientUnits="userSpaceOnUse" x1="1341.5935" y1="-658.1509" x2="517.8198" y2="-104.9423" gradientTransform="matrix(1 0 0 1 0 974)">
		<stop  offset="0.3425" style="stop-color:#CCCCFF"/>
		<stop  offset="0.9574" style="stop-color:#6699FF"/>
		<stop  offset="1" style="stop-color:#CCCCDC"/>
	</linearGradient>
	
		<path style="fill:url(#SVGID_00000137122536528444878880000005327045916778060693_);stroke:#000033;stroke-width:4;stroke-miterlimit:10;" d="
		M1056.2,370.9c-23.4-14.4-140.2-30.5-140.2-30.5s-28.2,20.4-57.6,52.5c-12.4,13.6-27.8,44.8-38.6,62
		c-49.9,39.2-48.3,61.2-77.2,192.7v23.6L800,815.7l46.1-7.5L844,692.7c0,0,8.9-12,20.3-31.2c42.2,72.1,89.5,135.5,89.5,135.5
		c52.2,12.6,134.9-50.5,134.9-50.5l38.5-155.3c0,0,8.3-83.7,8.3-123.7S1079.6,385.3,1056.2,370.9z"/>
	<path style="fill:#061123;" d="M928.5,934.9l-20-21l-15.1-15.1c-8.8-11.2-5.2-21-5.1-21.3c3.1-5.8,9-12.4,20-18
		c-5.1-5.9-17.5-11.1-19-11.5c-3.7-1.3-19.8-4.5-19.7-4.3c-5.9-23.3-25.2-99.9-21.9-134c0,0-53.9-53.9-106.3-14.2
		c0,0,50.1,123.8,83.7,171.2c0.6,11.5,2.1,37.9,4.5,47.5l0,0c0,0.2,0.1,0.3,0.1,0.6c0.2,1,0.6,1.8,0.9,2.3c0.2,0.3,0.5,0.7,0.6,1
		c4.1,7.8,14.2,22,14.2,22s9,26.5,10,27.1c1,0.7,23.4,14.9,23.4,14.9s1.3-6.3-0.5-10.4c-1.7-4-14.1-9.8-14.1-9.8l-6.1-24.5
		c0.2-0.1,0.3-0.1,0.5-0.2c4.8,9.6,12.6,26,13.6,27.3c1.5,1.8,28.3,1.4,28.3,1.4s-0.3-3.6-3.8-6.7c-3.3-3-17.5-5.2-17.5-5.2l-9-21.7
		c0.1-0.1,0.3-0.1,0.5-0.2c8.4,7.4,44,34,47.5,32.8c0.2-0.1,0.3-0.1,0.6-0.2c2.5-2,3.2-6.1,2.3-8.1s-9-8.4-9-8.4
		c-8.4-7.9-19.8-18.8-25.6-24.2c1.2-0.8,2.1-1.7,3.1-2.5c8.2,6.2,29.8,22.7,36.6,26.6c4.3,2.4,6.1,0.3,6.8-2.3
		C935.1,941.7,928.5,934.9,928.5,934.9z"/>
	<path style="opacity:0.49;fill:#9999FF;enable-background:new    ;" d="M921.5,546.1c0,0,84.3,35.1,176.1-20.9
		c0,0-1.5,48.5-132.4,47.3h-29.4l-44.2,120.6l-25.1-34.6C866.5,658.6,909.7,610.5,921.5,546.1z"/>
	<circle style="fill:#FFFFFF;" cx="837.4" cy="503.9" r="12.1"/>
	<g>
		<g style="enable-background:new    ;">
			<g>
				<g>
					<g>
						<defs>
							<polygon id="SVGID_00000055704758295003088550000017973848796362813622_" points="1053.1,498.3 984.6,393.6 1031.9,370.5 
								1100.4,475.4 							"/>
						</defs>
						<clipPath id="SVGID_00000036209500335791152270000015189667839184235933_">
							<use xlink:href="#SVGID_00000055704758295003088550000017973848796362813622_"  style="overflow:visible;"/>
						</clipPath>
						<g style="clip-path:url(#SVGID_00000036209500335791152270000015189667839184235933_);">
							<path style="fill:#FFFFFF;" d="M1037.3,407.9l-2,1.5l1.5-1c0.7-0.2,0.7-0.2,0.7-0.2c0.1,0,0.1,0,0.1,0
								c0.2-0.1,0.2-0.2,0.3-0.3C1037.3,407.9,1037.3,407.9,1037.3,407.9 M1037.8,406.1c0.2,0.5,0.2,0.8,0.2,1
								C1038,406.9,1037.9,406.5,1037.8,406.1 M1009.4,402.9l28.5,1.3l-0.7,0.2c0,0,0,0,0.1,0.2l0.6-0.2l5,0.6c1.3-0.5,3,1.2,3.6,2
								l32.1,52.4c0.9,1.5,0.9,2.5-0.1,3c-0.1,0-0.2,0.1-0.3,0.1l-2.2,2.8l-18.5,16h-0.1l-1.7,0.6l-0.2,0.1c-1-0.3-2.3-1.2-3.2-2.4
								l-34.2-55.6v-0.1l-10-16.4c-1-1.6-1-3.1-0.5-3.9L1009.4,402.9 M989.6,394.6l64.3,100.9l40.1-22.6l-52.3-83.6L989.6,394.6"/>
							<path d="M1053.8,495.5l-64.3-100.9l52.1-5.3l52.3,83.6L1053.8,495.5 M985.9,393l67.2,105.4l43.8-24.7l-54.1-86.5L985.9,393"
								/>
							<g>
								<g>
									<g>
										<g>
											<defs>
												<polyline id="SVGID_00000159450064241140106980000004230475046125524910_" points="1038.1,394 1086.4,472.7 
													1053.7,482.9 1005.6,404.2 1038.1,394 												"/>
											</defs>
											<clipPath id="SVGID_00000062905604259967599900000010173258753762770339_">
												<use xlink:href="#SVGID_00000159450064241140106980000004230475046125524910_"  style="overflow:visible;"/>
											</clipPath>
											<path style="clip-path:url(#SVGID_00000062905604259967599900000010173258753762770339_);fill:#061123;" d="
												M1007.4,403.7c-0.6,0.8-0.6,2.3,0.3,4.1l10,16.4c-0.8-1.5-0.7-3.3-0.1-3.6c0.1,0,0.1,0,0.2-0.1l17.6-11.2l2-1.3
												c0,0,0,0,0.6-0.2c0.1-0.1,0-0.2,0.1-0.5c0-0.2,0-0.6-0.2-1c0-0.1-0.1-0.2-0.1-0.3c-0.6-0.9-0.6-0.9-0.6-0.9h0.1
												c-0.1-0.2-0.1-0.2-0.1-0.2l0.7-0.2l-28.2-1.5L1007.4,403.7"/>
										</g>
									</g>
								</g>
								<g>
									<g>
										<g>
											<defs>
												<polyline id="SVGID_00000010310750578672795200000000257574287928340121_" points="1038.1,394 1086.4,472.7 
													1053.7,482.9 1005.6,404.2 1038.1,394 												"/>
											</defs>
											<clipPath id="SVGID_00000031165093236129944600000003711332191684521125_">
												<use xlink:href="#SVGID_00000010310750578672795200000000257574287928340121_"  style="overflow:visible;"/>
											</clipPath>
											<g style="clip-path:url(#SVGID_00000031165093236129944600000003711332191684521125_);">
												<g>
													<g>
														<g>
															<defs>
																<path id="SVGID_00000019669572382209598580000008338534418267149975_" d="M1018,424.3c-1.2-1.7-0.9-4.1,0-3.9
																	l19-12.1c0.7-0.2,0.7-0.2,0.7-0.2c0.5-0.2,0.7-1.3,0.1-2.2c-0.6-0.9-0.6-0.9-0.6-0.9l0.7-0.2l5,0.6
																	c1.3-0.5,3,1.2,3.6,2l32.1,52.4c0.9,1.6,0.9,2.8-0.5,3.2l-2.2,2.8l-18.8,16.2c-0.8,1.2-3.8,0.2-5.4-2.5l-10.1-16.6
																	L1018,424.3"/>
															</defs>
															<clipPath id="SVGID_00000002343037920292268120000010832772565777575831_">
																<use xlink:href="#SVGID_00000019669572382209598580000008338534418267149975_"  style="overflow:visible;"/>
															</clipPath>
															<g style="clip-path:url(#SVGID_00000002343037920292268120000010832772565777575831_);">
																<g>
																	<g>
																		<g>
																			<defs>
																				<path id="SVGID_00000097470540692070770370000008452496782632167103_" d="M1037.2,405c0.1,0.2,0.2,0.5,0.1,0.7
																					c0.1,0.2,0.1,0.3,0.2,0.6c0.1,0.3,0.2,0.8,0.2,1c0.1,0.2,0,0.3,0,0.3h-0.1c-0.1,0.2-0.2,0.3-0.3,0.3
																					s-0.1,0-0.1,0s0,0-0.7,0.2l-1.5,1l-16.9,11.9c-0.1,0-0.1,0-0.2,0.1c-0.7,0.3-1.2,1.5-0.2,3.1l-0.2-0.2v0.1
																					l34.2,55.9c0.9,1.4,2.2,2.1,3.2,2.4l0.2-0.1c-1.3-0.2-2.6-1.3-3.7-3l-10.1-16.6c1.2,1.7,3.6,3.1,4.1,3l25.5-1.5
																					c0.7-0.2,0.7-0.2,0.7-0.2c0.7-0.2,1.7,0.3,2.4,1.3c0.6,0.9,0.6,0.9,0.6,0.9l1.3-0.5l-18.7,16.1h0.1l18.5-16
																					l2.2-2.8c0.1,0,0.2-0.1,0.3-0.1c1-0.5,1-1.5,0.1-3l-32.3-52.8c-0.6-0.9-2.3-2.4-3.6-2l-5-0.6L1037.2,405"/>
																			</defs>
																			<clipPath id="SVGID_00000064311450747051947830000014656259425655684003_">
																				<use xlink:href="#SVGID_00000097470540692070770370000008452496782632167103_"  style="overflow:visible;"/>
																			</clipPath>
																		</g>
																	</g>
																</g>
															</g>
														</g>
													</g>
												</g>
												<g>
													<g>
														<g>
															<defs>
																<path id="SVGID_00000014607812699612369950000012203354318806346662_" d="M1018,424.3c-1.2-1.7-0.9-4.1,0-3.9
																	l19-12.1c0.7-0.2,0.7-0.2,0.7-0.2c0.5-0.2,0.7-1.3,0.1-2.2c-0.6-0.9-0.6-0.9-0.6-0.9l0.7-0.2l5,0.6
																	c1.3-0.5,3,1.2,3.6,2l32.1,52.4c0.9,1.6,0.9,2.8-0.5,3.2l-2.2,2.8l-18.8,16.2c-0.8,1.2-3.8,0.2-5.4-2.5l-10.1-16.6
																	L1018,424.3"/>
															</defs>
															<clipPath id="SVGID_00000114761391317836713420000004903479632016356256_">
																<use xlink:href="#SVGID_00000014607812699612369950000012203354318806346662_"  style="overflow:visible;"/>
															</clipPath>
															<g style="clip-path:url(#SVGID_00000114761391317836713420000004903479632016356256_);">
																<g>
																	<g>
																		<g>
																			<defs>
																				<path id="SVGID_00000147194677629380992360000016490036851907063220_" d="M1041.5,462.7l10.4,16.7
																					c1,1.7,2.5,2.8,3.7,3l1.7-0.6l18.7-16.1l-1.3,0.5c0,0,0,0-0.6-0.9s-1.7-1.5-2.4-1.3c0,0,0,0-0.7,0.2l-25.5,1.5
																					C1044.9,465.8,1042.6,464.4,1041.5,462.7"/>
																			</defs>
																			<clipPath id="SVGID_00000013175967180339851180000014897442663503496096_">
																				<use xlink:href="#SVGID_00000147194677629380992360000016490036851907063220_"  style="overflow:visible;"/>
																			</clipPath>
																		</g>
																	</g>
																</g>
															</g>
														</g>
													</g>
												</g>
												<g>
													<g>
														<g>
															<defs>
																<path id="SVGID_00000109713098775403354640000005053451155807300265_" d="M1018,424.3c-1.2-1.7-0.9-4.1,0-3.9
																	l19-12.1c0.7-0.2,0.7-0.2,0.7-0.2c0.5-0.2,0.7-1.3,0.1-2.2c-0.6-0.9-0.6-0.9-0.6-0.9l0.7-0.2l5,0.6
																	c1.3-0.5,3,1.2,3.6,2l32.1,52.4c0.9,1.6,0.9,2.8-0.5,3.2l-2.2,2.8l-18.8,16.2c-0.8,1.2-3.8,0.2-5.4-2.5l-10.1-16.6
																	L1018,424.3"/>
															</defs>
															<clipPath id="SVGID_00000135680085502162169620000010324347629749530288_">
																<use xlink:href="#SVGID_00000109713098775403354640000005053451155807300265_"  style="overflow:visible;"/>
															</clipPath>
															<g style="clip-path:url(#SVGID_00000135680085502162169620000010324347629749530288_);">
																<g>
																	<g>
																		<g>
																			<defs>
																				<path id="SVGID_00000152264822497468481210000005113639976893449918_" d="M1035.5,409.1l-17.6,11.1
																					c-0.1,0-0.1,0-0.2,0.1c-0.5,0.3-0.7,2.1,0.1,3.6l0.2,0.2c-0.9-1.6-0.5-2.8,0.2-3.1c0.1,0,0.1,0,0.2-0.1
																					L1035.5,409.1 M1038,407.2c-0.1,0.1-0.1,0.3-0.1,0.5h0.1C1038,407.6,1038,407.5,1038,407.2 M1037.1,405
																					c0,0,0,0,0.6,0.9c0,0.1,0.1,0.2,0.1,0.3c0-0.1-0.1-0.3-0.2-0.6C1037.3,405.2,1037.2,405.1,1037.1,405
																					L1037.1,405"/>
																			</defs>
																			<clipPath id="SVGID_00000108295924702319205910000016141725215455342734_">
																				<use xlink:href="#SVGID_00000152264822497468481210000005113639976893449918_"  style="overflow:visible;"/>
																			</clipPath>
																		</g>
																	</g>
																</g>
															</g>
														</g>
													</g>
												</g>
											</g>
										</g>
									</g>
								</g>
							</g>
						</g>
					</g>
				</g>
			</g>
		</g>
	</g>
	<g id="head_00000099644340960801133910000004377589405068187011_">
		<path style="fill:#FDD597;stroke:#000000;stroke-width:4;stroke-miterlimit:10;" d="M979.9,218.2l22.6,158.3
			C950,399.4,890.1,374,890.1,374l-32.4-91.6L979.9,218.2z"/>
		<path style="fill:#FDD597;stroke:#000000;stroke-width:4;stroke-miterlimit:10;" d="M809.1,134.7l19.8,76.3
			c0,0-29.1-7.1-28.7,11.2c0.5,18.3,46.2,46.3,46.2,46.3s5.3,50.5,35.1,86.9s162.4,14.7,180.9-22.2c18.5-37-29-151.8-29-151.8
			l-25.1-80.4L809.1,134.7z"/>
		<path style="fill:#FDD597;stroke:#000000;stroke-width:2;stroke-linecap:round;stroke-miterlimit:10;" d="M989.5,248.8
			c0,0,19.6-2,19-10.3s-18.2-20.9-18.2-20.9"/>
		<path style="fill:#FDD597;stroke:#000000;stroke-width:2;stroke-linecap:round;stroke-miterlimit:10;" d="M921.2,283.3
			c52.8,45.6,105.8,16,105.8,16"/>
		<g>
			<polygon style="fill:#E6BA87;" points="903.5,124.1 906.1,120.3 901.4,121.8 			"/>
			<path style="fill:#E6BA87;" d="M850.1,257.3c0,0,19.9,78,52.8,100.7c32.8,22.8,97-0.9,97-0.9c-61.6,10.4-90-78.7-90-78.7
				c-8.9-17.7-16.9-56-16.9-56l-9.3-70l-27.3,13.2l6.9,81.2l-17.6-6.7L850.1,257.3z"/>
		</g>
		<path style="fill:#061123;" d="M793.2,123.9l26.7,85.4c0,0,4.5-2.5,23.7,26l15.3-2.1l-7.4-74.4c25.2-5.4,37.3-25,38.9-28.1
			c-0.5,1.6,21.3,7.9,67,2.8c52.2-6,75.8-42.5,75.8-42.5c-8.5-7.1-58.8-29.3-58.8-29.3l40.5,5.2c-37-29.4-77.5-16.7-77.5-16.7
			C896,60.5,859.3,79.8,834.2,95.3l0,0l0,0c-21.5,13.4-34.3,24.1-34.3,24.2l0,0L793.2,123.9z"/>
		<g>
			<path style="fill:#061123;" d="M829.8,244.5c-1.8-2.6-2.4-5-1.6-6.8c0.5-1.3,1.3-2,2.1-2.4c-5.5-5.2-12.7-9-12.8-9
				c-0.6-0.3-0.8-1-0.5-1.6s1-0.8,1.6-0.5c0.3,0.2,9,4.7,14.7,10.9l1.5,1.6l-2.1,0.6c0,0-1.8,0.5-2.3,1.7c-0.3,1,0.1,2.6,1.4,4.5
				c0.5,0.6,0.3,1.4-0.2,1.7c-0.1,0.1-0.2,0.2-0.3,0.2C830.8,245.3,830.2,245.2,829.8,244.5z"/>
		</g>
		<g>
			<g id="f1_00000074440926601364468990000000820467036039780015_" style="display:none;">
				<g style="display:inline;">
					<path style="fill:#FFFDF8;stroke:#000000;stroke-miterlimit:10;" d="M909.2,223.8c0,0,1.3-10.4,15.7-21.8
						c14.4-11.3,37.3,5.2,37.3,5.2C942.9,238.1,909.2,223.8,909.2,223.8z"/>
					<path d="M924.8,220.3c1.7,1,3.9,1.4,6.1,0.7c4-1.3,6.2-5.4,5-9.6c-1.3-4-5.5-6.2-9.6-5c-3.2,1-5.2,3.9-5.3,7
						c0.2-0.2,0.5-0.2,0.7-0.3c2-0.6,4.1,0.5,4.7,2.5C927.1,217.6,926.3,219.4,924.8,220.3z"/>
				</g>
				<g style="display:inline;">
					<path style="fill:#FFFDF8;stroke:#000000;stroke-miterlimit:10;" d="M981.7,206.6c0,0,0.9-10.3,14.3-21.4
						c13.5-10.9,35.4,5.9,35.4,5.9C1013.6,221.5,981.7,206.6,981.7,206.6z"/>
					<path d="M996.1,203.4c1.6,1,3.8,1.5,5.8,0.8c3.7-1.2,5.9-5.3,4.5-9.4c-1.3-4-5.3-6.3-9.1-5.1c-3,0.9-4.8,3.8-4.8,6.9
						c0.2-0.2,0.5-0.2,0.7-0.3c1.8-0.6,3.9,0.6,4.5,2.5C998.4,200.7,997.6,202.6,996.1,203.4z"/>
				</g>
				<polygon style="display:inline;fill:#061123;" points="1018.5,166.5 980.9,165.4 983.3,172.9 1020,171.1 				"/>
				<polygon style="display:inline;fill:#061123;" points="936.3,179.7 899,201.1 899.8,193.7 935,172.3 				"/>
				
					<animate  accumulate="none" additive="replace" attributeName="display" begin="0s" calcMode="linear" dur="7s" fill="remove" id="head" keyTimes="0;0.9;1" repeatCount="indefinite" restart="always" values="inline;none;none">
					</animate>
			</g>
			<g id="f2_00000064332037746918022280000005022250908084284050_" style="display:none;">
				<g style="display:inline;">
					<path style="fill:#FDD597;stroke:#000000;stroke-miterlimit:10;" d="M909.2,223.8c0,0,33.5,14.3,53-16.6
						c0,0-22.9-16.6-37.3-5.2C910.4,213.4,909.2,223.8,909.2,223.8z"/>
					<path style="fill:#E6BA87;" d="M935.7,203.6c-11.2,2.5-21.2,18.1-21.2,18.1c30.1,0.9,42.2-14.5,42.2-14.5
						S947,201.2,935.7,203.6z"/>
				</g>
				<g style="display:inline;">
					<path style="fill:#FDD597;stroke:#000000;stroke-miterlimit:10;" d="M981.6,206.4c0,0,33.5,14.3,53-16.6
						c0,0-22.9-16.6-37.3-5.2C982.7,196,981.6,206.4,981.6,206.4z"/>
					<path style="fill:#E6BA87;" d="M1008.1,186.1c-11.2,2.5-21.2,18.1-21.2,18.1c30.1,0.9,42.2-14.5,42.2-14.5
						S1019.3,183.7,1008.1,186.1z"/>
				</g>
				<polygon style="display:inline;fill:#061123;" points="947.1,183.6 904.4,198 902.3,191.2 944.9,176.5 				"/>
				<polygon style="display:inline;fill:#061123;" points="1019.5,171 980.8,176.9 979.4,170.4 1018.5,166.9 				"/>
				
					<animate  accumulate="none" additive="replace" attributeName="display" begin="0s" calcMode="linear" dur="7s" fill="remove" id="head" keyTimes="0;0.9;1" repeatCount="indefinite" restart="always" values="none;inline;none">
					</animate>
			</g>
		</g>
	</g>
	
		<linearGradient id="SVGID_00000011006804801584609600000005046630291863006362_" gradientUnits="userSpaceOnUse" x1="963.9917" y1="-413.3822" x2="816.367" y2="-314.244" gradientTransform="matrix(1 0 0 1 0 974)">
		<stop  offset="0.3425" style="stop-color:#CCCCFF"/>
		<stop  offset="0.9574" style="stop-color:#6699FF"/>
		<stop  offset="1" style="stop-color:#CCCCDC"/>
	</linearGradient>
	
		<path style="fill:url(#SVGID_00000011006804801584609600000005046630291863006362_);stroke:#000033;stroke-width:4;stroke-linecap:round;stroke-miterlimit:10;" d="
		M914.3,565.8c0,0-22.6,58.5-45.6,87"/>
</g>
</g>
</svg>
