<?xml version="1.0" encoding="utf-8"?>
<!-- Generator: Adobe Illustrator 27.1.1, SVG Export Plug-In . SVG Version: 6.00 Build 0)  -->
<svg version="1.1" id="Layer_1" xmlns="http://www.w3.org/2000/svg" xmlns:xlink="http://www.w3.org/1999/xlink" x="0px" y="0px"
	 viewBox="0 0 1250 1424.6" style="enable-background:new 0 0 1250 1424.6;" xml:space="preserve">
	 	 	 <style>

		#captain{
				animation: float 6s ease-in-out infinite;

}

		#Nol{
				animation: float 3s ease-in-out infinite;

}

	 #lineleft1, #lineleft2, #lineleft3, #lineleft4, .lers1, #rightline3, #rightline2, #rightline1{
	  	 	stroke:black;
	fill:none;
	stroke-width: 6;
    stroke-linecap: round;
}

	 #lineleft1, #lineleft2, #lineleft3, #lineleft4{
	  	animation: animate-up 400ms linear infinite;
}
	 #rightline3, #rightline2, #rightline1{
	  	 	animation: animate-up 400ms linear infinite;
}

.linefill{
 	stroke-opacity:1;
}

.array{
 stroke-dasharray: 5 12.5;
}



@keyframes animate-up {
  to {
    stroke-dashoffset: -10;
  }
}
@-webkit-keyframes animate-up {
  to {
    stroke-dashoffset: -10;
  }
}


@keyframes animate-down {
  to {
    stroke-dashoffset: 10;
  }
}
@-webkit-keyframes animate-down {
  to {
    stroke-dashoffset: 10;
  }
}

@keyframes float {
	0% {
		transform: translatey(0px);
	}
	50% {
		transform: translatey(-20px);
	}
	100% {
		transform: translatey(0px);
	}
}


</style>

<g id="media">
	<g id="left">
		<g id="line_x5F_left1">
			<line id="lineleft1" class="linefill array"  x1="354.8" y1="150.5" x2="437" y2="367.8"/>
			<g>
				
					<line  x1="354.8" y1="150.5" x2="357" y2="156.1"/>
				
					<line  x1="361.1" y1="167" x2="432.9" y2="356.7"/>
				
					<line  x1="434.9" y1="362.2" x2="437" y2="367.8"/>
			</g>
		</g>
		
			<line id="lineleft2" class="linefill array"   x1="314.7" y1="282.5" x2="390" y2="421.9"/>
		
			<line id="lineleft3"  class="linefill array"  x1="172.3" y1="382.9" x2="358.2" y2="495.7"/>
		
			<line id="lineleft4"  class="linefill array"  x1="184.9" y1="237" x2="352.4" y2="443.2"/>
	</g>
	<g id="right">
		
			<line id="rightline3"  class="linefill array"  x1="796.8" y1="234.5" x2="677.8" y2="392.5"/>
		
			<line id="rightline2" class="linefill array"   x1="921.9" y1="284.5" x2="742.1" y2="424.8"/>
		
			<line id="rightline1"  class="linefill array"  x1="886.6" y1="424.8" x2="742.1" y2="465.7"/>
	</g>
	<g id="sales">
		<g>
			<circle style="fill:#F6F5F8;stroke:#000000;stroke-miterlimit:10;" cx="955.4" cy="263.2" r="49.7"/>
			<path style="opacity:0.31;fill:#CCCCCC;enable-background:new    ;" d="M960.5,301.8c-24.9,0-45-20.1-45-45
				c0-8.1,2.1-15.7,5.8-22.2c-7.4,7.9-11.9,18.7-11.9,30.4c0,24.9,20.1,45,45,45c16.7,0,31.5-9.1,39.2-22.8
				C985.5,296.2,973.6,301.8,960.5,301.8z"/>
		</g>
		<g>
			<path style="fill:#00A1E0;" d="M951.2,246.1c1.9-2,4.6-3.3,7.5-3.3c3.9,0,7.3,2.2,9.1,5.4c1.5-0.7,3.3-1.1,5.2-1.1
				c7,0,12.8,5.7,12.8,12.9c0,7-5.7,12.9-12.8,12.9c-0.8,0-1.8-0.1-2.4-0.2c-1.7,2.9-4.7,4.8-8.1,4.8c-1.4,0-2.9-0.3-4.1-1
				c-1.7,3.7-5.4,6.5-9.7,6.5c-4.6,0-8.5-3-10-6.9c-0.7,0.1-1.3,0.2-2,0.2c-5.5,0-9.9-4.4-9.9-10c0-3.6,2-6.9,5-8.7
				c-0.6-1.4-1-3-1-4.6c0-6.4,5.2-11.5,11.5-11.5C945.6,241.5,949,243.3,951.2,246.1"/>
			<path style="fill:#FFFFFF;" d="M935.2,263.1l0.2-0.7c0-0.1,0.1-0.1,0.1,0l0.2,0.1c0.7,0.4,1.4,0.4,1.5,0.4c0.4,0,0.8-0.2,0.8-0.7
				l0,0c0-0.3-0.4-0.6-1.1-0.7h-0.1c-0.8-0.2-1.7-0.6-1.7-1.5l0,0c0-1,0.8-1.7,1.9-1.7h0.1c0.7,0,1.3,0.2,1.8,0.4l0.1,0.1l-0.2,0.7
				c0,0.1-0.1,0-0.1,0c-0.3-0.2-1.1-0.3-1.5-0.3s-0.8,0.2-0.8,0.6l0,0c0,0.3,0.4,0.6,1.2,0.7h0.1c0.8,0.2,1.7,0.6,1.7,1.5l0,0
				c0,1.1-0.7,1.7-2,1.7c-0.6,0-1.2-0.1-1.8-0.3c-0.1-0.1-0.2-0.1-0.3-0.2C935.2,263.2,935.2,263.1,935.2,263.1L935.2,263.1z
				 M952.9,263.1l0.2-0.7c0-0.1,0.1-0.1,0.1,0l0.2,0.1c0.7,0.4,1.4,0.4,1.5,0.4c0.4,0,0.8-0.2,0.8-0.7l0,0c0-0.3-0.4-0.6-1.1-0.7
				h-0.1c-0.8-0.2-1.7-0.6-1.7-1.5l0,0c0-1,0.8-1.7,1.9-1.7h0.1c0.7,0,1.3,0.2,1.8,0.4l0.1,0.1l-0.2,0.7c0,0.1-0.1,0-0.1,0
				c-0.3-0.2-1.1-0.3-1.5-0.3s-0.8,0.2-0.8,0.6l0,0c0,0.3,0.4,0.6,1.2,0.7h0.1c0.8,0.2,1.7,0.6,1.7,1.5l0,0c0,1.1-0.7,1.7-2,1.7
				c-0.6,0-1.2-0.1-1.8-0.3c-0.1-0.1-0.2-0.1-0.3-0.2C953,263.2,952.9,263.1,952.9,263.1L952.9,263.1z M966,259.9
				c0.1,0.3,0.1,0.7,0.1,1.1c0,0.3,0,0.7-0.1,1.1c-0.1,0.3-0.2,0.6-0.4,0.8s-0.4,0.4-0.8,0.6c-0.3,0.1-0.7,0.2-1.1,0.2
				c-0.3,0-0.8-0.1-1.1-0.2c-0.3-0.1-0.6-0.3-0.8-0.6s-0.3-0.6-0.4-0.8c-0.1-0.2-0.1-0.7-0.1-1.1c0-0.3,0-0.7,0.1-1.1
				c0.1-0.3,0.2-0.6,0.4-0.8s0.4-0.4,0.8-0.6c0.3-0.1,0.7-0.2,1.1-0.2c0.3,0,0.8,0.1,1.1,0.2c0.3,0.1,0.6,0.3,0.8,0.6
				S966,259.6,966,259.9z M965.1,261c0-0.6-0.1-1.1-0.3-1.4c-0.2-0.3-0.6-0.4-1-0.4c-0.4,0-0.8,0.1-1,0.4c-0.2,0.3-0.3,0.8-0.3,1.4
				c0,0.6,0.1,1.1,0.3,1.4c0.2,0.3,0.4,0.4,1,0.4c0.4,0,0.8-0.1,1-0.4C965,262,965.1,261.6,965.1,261z M974.4,262.8l0.2,0.7
				c0,0.1,0,0.1,0,0.1c-0.3,0.1-1,0.2-1.4,0.2c-0.8,0-1.5-0.2-2-0.7c-0.4-0.4-0.7-1.2-0.7-2c0-0.3,0-0.7,0.1-1.1
				c0.1-0.3,0.2-0.6,0.4-0.8c0.2-0.2,0.4-0.4,0.8-0.6c0.3-0.1,0.7-0.2,1.2-0.2c0.2,0,0.4,0,0.7,0c0.2,0,0.6,0.1,0.7,0.2
				c0,0,0.1,0,0.1,0.1l-0.2,0.7c0,0.1-0.1,0.1-0.1,0.1c-0.3-0.1-0.7-0.1-1.1-0.1c-0.4,0-0.8,0.1-1.2,0.4c-0.2,0.3-0.3,0.7-0.3,1.3
				c0,0.6,0.1,1.1,0.4,1.4c0.3,0.3,0.7,0.4,1.2,0.4c0.2,0,0.3,0,0.6,0C974,262.8,974.1,262.7,974.4,262.8
				C974.3,262.7,974.4,262.7,974.4,262.8L974.4,262.8z M979.5,259.7c0.2,0.8,0.1,1.4,0.1,1.5s-0.1,0.1-0.1,0.1h-3.4
				c0,0.4,0.1,0.8,0.3,1.2c0.2,0.2,0.6,0.3,1.2,0.3c0.8,0,1.2-0.1,1.4-0.2c0,0,0.1,0,0.1,0.1l0.2,0.6c0,0.1,0,0.1,0,0.1
				c-0.2,0.1-0.7,0.3-1.8,0.3c-0.4,0-1-0.1-1.3-0.2c-0.3-0.1-0.6-0.3-0.8-0.6s-0.3-0.6-0.4-0.8c-0.1-0.3-0.1-0.7-0.1-1.1
				c0-0.3,0-0.7,0.1-1.1c0.1-0.3,0.2-0.6,0.4-0.8s0.4-0.4,0.8-0.6c0.3-0.1,0.7-0.2,1.2-0.2c0.3,0,0.7,0.1,1,0.2
				c0.2,0.1,0.4,0.2,0.7,0.4C979.3,259.2,979.5,259.5,979.5,259.7L979.5,259.7z M976.1,260.4h2.4c0-0.3-0.1-0.6-0.2-0.8
				c-0.2-0.3-0.4-0.4-1-0.4c-0.6,0-0.8,0.2-1,0.4C976.2,259.8,976.2,260.2,976.1,260.4L976.1,260.4z M952,259.7
				c0.2,0.8,0.1,1.4,0.1,1.5s-0.1,0.1-0.1,0.1h-3.4c0,0.4,0.1,0.8,0.3,1.2c0.2,0.2,0.6,0.3,1.2,0.3c0.8,0,1.2-0.1,1.4-0.2
				c0,0,0.1,0,0.1,0.1l0.2,0.6c0,0.1,0,0.1,0,0.1c-0.2,0.1-0.7,0.3-1.8,0.3c-0.4,0-1-0.1-1.3-0.2s-0.6-0.3-0.8-0.6s-0.3-0.6-0.4-0.8
				c-0.1-0.3-0.1-0.7-0.1-1.1c0-0.3,0-0.7,0.1-1.1c0.1-0.3,0.2-0.6,0.4-0.8s0.4-0.4,0.8-0.6s0.7-0.2,1.2-0.2c0.3,0,0.7,0.1,1,0.2
				c0.2,0.1,0.4,0.2,0.7,0.4C951.8,259.2,952,259.5,952,259.7L952,259.7z M948.7,260.4h2.4c0-0.3-0.1-0.6-0.2-0.8
				c-0.2-0.3-0.4-0.4-1-0.4c-0.6,0-0.8,0.2-1,0.4C948.8,259.8,948.8,260.2,948.7,260.4z M942.7,260.3l0.6,0.1v-0.1
				c0-0.4-0.1-0.7-0.2-0.8c-0.2-0.1-0.4-0.2-0.8-0.2c0,0-0.8,0-1.5,0.3l0,0h-0.1l-0.2-0.7c0-0.1,0-0.1,0-0.1
				c0.3-0.2,1.1-0.3,1.1-0.3c0.2,0,0.7-0.1,1-0.1c0.7,0,1.2,0.1,1.5,0.4c0.3,0.3,0.6,0.8,0.6,1.5v3.2c0,0,0,0.1-0.1,0.1
				c0,0-0.1,0-0.2,0.1l-0.8,0.1c-0.3,0.1-0.7,0.1-1.1,0.1c-0.3,0-0.6,0-1-0.1c-0.2-0.1-0.4-0.1-0.7-0.3c-0.2-0.1-0.3-0.3-0.4-0.6
				s-0.1-0.4-0.1-0.8c0-0.3,0.1-0.6,0.2-0.8c0.1-0.2,0.3-0.3,0.4-0.6c0.1-0.2,0.4-0.2,0.7-0.3c0.2-0.1,0.6-0.1,0.8-0.1L942.7,260.3
				L942.7,260.3z M941.2,262.7c0,0,0.3,0.2,1.1,0.2c0.4,0,1-0.1,1-0.1v-1.5c0,0-0.4-0.1-1-0.1c-0.7,0-1.1,0.2-1.1,0.2
				c-0.2,0.1-0.3,0.3-0.3,0.7c0,0.1,0,0.3,0.1,0.4C941.1,262.6,941.1,262.7,941.2,262.7z M970.3,258.5c0,0.1-0.2,0.6-0.2,0.7
				s-0.1,0.1-0.1,0.1s-0.2,0-0.3,0c-0.1,0-0.3,0-0.4,0.1c-0.1,0-0.3,0.1-0.4,0.2c-0.1,0.1-0.2,0.3-0.3,0.4c-0.1,0.2-0.1,0.6-0.1,1
				v2.5c0,0.1,0,0.1-0.1,0.1h-1c-0.1,0-0.1,0-0.1-0.1v-5.2c0-0.1,0-0.1,0.1-0.1h0.8c0.1,0,0.1,0,0.1,0.1v0.3
				c0.1-0.2,0.3-0.3,0.6-0.4c0.2-0.1,0.4-0.1,0.8-0.1c0.2,0,0.4,0.1,0.6,0.1C970.3,258.4,970.3,258.4,970.3,258.5L970.3,258.5z
				 M961.8,256.2C961.9,256.2,961.9,256.2,961.8,256.2l-0.2,0.8c0,0,0,0.1-0.1,0c0,0-0.1,0-0.2,0c-0.1,0-0.2,0-0.2,0
				c-0.1,0-0.2,0-0.3,0s-0.2,0.1-0.3,0.2c-0.1,0.1-0.2,0.2-0.2,0.3c-0.1,0.3-0.2,0.7-0.2,0.8h1.1c0.1,0,0.1,0,0.1,0.1l-0.1,0.7
				c0,0.1-0.1,0.1-0.1,0.1h-1.2l-0.7,4.3c-0.1,0.4-0.2,0.8-0.3,1.2c-0.1,0.3-0.2,0.6-0.4,0.8s-0.3,0.3-0.6,0.4
				c-0.2,0.1-0.4,0.1-0.8,0.1c-0.1,0-0.3,0-0.4,0c-0.1,0-0.2,0-0.3-0.1c0,0-0.1-0.1,0-0.1l0.2-0.7c0-0.1,0.1,0,0.1,0l0.2,0.1
				c0.1,0,0.2,0,0.2,0c0.1,0,0.3,0,0.3-0.1c0.1,0,0.2-0.1,0.3-0.2c0.1-0.1,0.1-0.2,0.2-0.4c0.1-0.2,0.1-0.6,0.2-0.8l0.8-4.3h-0.7
				c-0.1,0-0.1,0-0.1-0.1l0.1-0.7c0-0.1,0.1-0.1,0.1-0.1h0.8v-0.2c0.1-0.7,0.3-1.2,0.7-1.5s0.8-0.4,1.4-0.4c0.2,0,0.3,0,0.4,0
				C961.7,256.1,961.8,256.1,961.8,256.2L961.8,256.2z M946.5,263.6C946.5,263.6,946.4,263.7,946.5,263.6l-1.1,0.1
				c-0.1,0-0.1,0-0.1-0.1v-7.3c0,0,0-0.1,0.1-0.1h1c0.1,0,0.1,0,0.1,0.1V263.6z"/>
		</g>
	</g>
	<g id="linked">
		<g>
			<circle style="fill:#F6F5F8;stroke:#000000;stroke-miterlimit:10;" cx="815" cy="196.5" r="47.8"/>
			<path style="opacity:0.31;fill:#CCCCCC;enable-background:new    ;" d="M820,233.7c-24,0-43.5-19.4-43.5-43.5
				c0-7.8,2.1-15.2,5.7-21.4c-7.2,7.7-11.3,18.1-11.3,29.3c0,24,19.4,43.5,43.5,43.5c16.2,0,30.2-8.8,37.8-21.9
				C844,228.2,832.6,233.7,820,233.7z"/>
		</g>
		<g>
			<g>
				<path style="fill:#2A66B2;" d="M805.3,177.9c0,2.3-1.4,4.2-4.2,4.2c-2.4,0-4.2-1.9-4.2-4c0-2.3,1.7-4.3,4.2-4.3
					C803.6,173.6,805.3,175.6,805.3,177.9z"/>
				<rect x="796.8" y="184.2" style="fill:#2A66B2;" width="8.4" height="27.2"/>
				<path style="fill:#2A66B2;" d="M825.4,184.6c-4.3,0-6.9,2.4-7.9,4.2h-0.2l-0.3-3.5h-7.6c0,2.3,0.2,5.1,0.2,8.1v18.1h8.4v-15
					c0-0.9,0-1.4,0.2-2.1c0.7-1.4,1.7-3.3,4-3.3c3,0,4.2,2.4,4.2,5.8v14.4h8.4v-15.5C834.5,188,830.6,184.6,825.4,184.6z"/>
			</g>
		</g>
	</g>
	<g id="slack">
		<g>
			<circle style="fill:#F6F5F8;stroke:#000000;stroke-miterlimit:10;" cx="914.9" cy="408.9" r="48.4"/>
			<path style="opacity:0.31;fill:#CCCCCC;enable-background:new    ;" d="M919.8,446.6c-24.2,0-43.9-19.7-43.9-43.9
				c0-7.9,2-15.4,5.7-21.7c-7.2,7.7-11.6,18.2-11.6,29.6c0,24.2,19.7,43.9,43.9,43.9c16.3,0,30.6-9,38.2-22.2
				C944.3,441,932.6,446.6,919.8,446.6z"/>
		</g>
		<g>
			<path style="fill:#E1185A;" d="M886.6,416.1c0.3,7.7,11.3,7.7,11.7,0v-5.8h-5.8C889.4,410.2,886.6,412.9,886.6,416.1z"/>
			<path style="fill:#2BB77D;" d="M922,407.1c3.2,0,5.8-2.5,5.8-5.8v-14.8c-0.3-7.7-11.3-7.7-11.7,0v14.8
				C916,404.6,918.7,407.1,922,407.1z"/>
			<path style="fill:#E1185A;" d="M907.2,410.2c-3.2,0-5.8,2.5-5.8,5.8v14.8c0.3,7.7,11.3,7.7,11.7,0v-14.8
				C913,412.9,910.5,410.2,907.2,410.2z"/>
			<path style="fill:#2BB77D;" d="M942.3,401.3c-0.3-7.7-11.3-7.7-11.7,0v5.8h5.8C939.8,407.1,942.3,404.6,942.3,401.3z"/>
			<path style="fill:#33C6F1;" d="M892.6,407.1h14.8c7.7-0.3,7.7-11.3,0-11.7h-14.8C884.9,395.8,884.9,406.8,892.6,407.1z"/>
			<path style="fill:#EDB429;" d="M922,424.8h-5.8v5.8c0,3.2,2.5,5.8,5.8,5.8C929.7,436.3,929.7,425.2,922,424.8z"/>
			<path style="fill:#EDB429;" d="M936.5,410.2h-14.8c-7.7,0.3-7.7,11.3,0,11.7h14.8C944.3,421.6,944.3,410.6,936.5,410.2z"/>
			<path style="fill:#33C6F1;" d="M907.2,380.8c-7.7,0.3-7.7,11.3,0,11.7h5.8v-5.8C913,383.5,910.5,380.8,907.2,380.8z"/>
		</g>
	</g>
	<g id="gmail">
		<g>
			
				<ellipse transform="matrix(0.2112 -0.9774 0.9774 0.2112 159.2239 407.2607)" style="fill:#F6F5F8;stroke:#000000;stroke-width:1;stroke-miterlimit:9.9987;" cx="331.9" cy="105" rx="48.1" ry="48.1"/>
			<path style="opacity:0.31;fill:#CCCCCC;enable-background:new    ;" d="M336.8,142.5c-24.1,0-43.7-19.5-43.7-43.7
				c0-7.9,2-15.2,5.7-21.5c-7.2,7.7-11.5,18.2-11.5,29.5c0,24.1,19.5,43.7,43.7,43.7c16.3,0,30.5-8.8,38-22.1
				C361.1,137.1,349.8,142.5,336.8,142.5z"/>
		</g>
		<g>
			<path style="fill:#E75A4D;" d="M356.7,85.7c2.6,0,4.8,2.1,4.8,4.8v1.4l-6.7,4.8l-22.8,15.7l-22.9-15.9v31.9h-1.8
				c-2.6,0-4.8-2.1-4.8-4.8V90.6c0-2.6,2.1-4.8,4.8-4.8l24.6,18.3L356.7,85.7L356.7,85.7L356.7,85.7z"/>
			
				<linearGradient id="SVGID_1_" gradientUnits="userSpaceOnUse" x1="-508.7879" y1="-117572.1406" x2="1271.7266" y2="-117572.1406" gradientTransform="matrix(1.772698e-02 0 0 -1.772698e-02 325.2054 -1989.3965)">
				<stop  offset="0" style="stop-color:#F8F6EF"/>
				<stop  offset="1" style="stop-color:#E7E4D6"/>
			</linearGradient>
			<path style="fill:url(#SVGID_1_);" d="M307.3,85.7l24.6,18.3l24.8-18.3H307.3z"/>
			<path style="fill:#E7E4D7;" d="M309,96.7v31.9h45.8V96.8l-22.9,15.7L309,96.7z"/>
			<path style="fill:#B8B7AE;" d="M309,128.5l22.8-16l-0.1-0.1l-22.8,15.6v0.4L309,128.5L309,128.5z"/>
			<path style="fill:#B7B6AD;" d="M354.8,96.8v31.8l-22.9-16L354.8,96.8z"/>
			<path style="fill:#B2392F;" d="M361.6,91.8v31.7c-0.1,3.5-1.8,4.7-6.7,4.8V96.6L361.6,91.8L361.6,91.8L361.6,91.8z"/>
			
				<linearGradient id="SVGID_00000009581197615093089850000015160714816888391311_" gradientUnits="userSpaceOnUse" x1="-508.7879" y1="-117572.1406" x2="1271.7266" y2="-117572.1406" gradientTransform="matrix(1.772698e-02 0 0 -1.772698e-02 325.2054 -1989.3965)">
				<stop  offset="0" style="stop-color:#F8F6EF"/>
				<stop  offset="1" style="stop-color:#E7E4D6"/>
			</linearGradient>
			<path style="fill:url(#SVGID_00000009581197615093089850000015160714816888391311_);" d="M307.3,85.7l24.6,18.3l24.8-18.3H307.3z
				"/>
			
				<linearGradient id="SVGID_00000054984276579010093500000004996545232673254545_" gradientUnits="userSpaceOnUse" x1="-508.7879" y1="-117572.1406" x2="1271.7266" y2="-117572.1406" gradientTransform="matrix(1.772698e-02 0 0 -1.772698e-02 325.2054 -1989.3965)">
				<stop  offset="0" style="stop-color:#F8F6EF"/>
				<stop  offset="1" style="stop-color:#E7E4D6"/>
			</linearGradient>
			<path style="fill:url(#SVGID_00000054984276579010093500000004996545232673254545_);" d="M307.3,85.7l24.6,18.3l24.8-18.3H307.3z
				"/>
			
				<linearGradient id="SVGID_00000006696409648109662520000006004596214293861272_" gradientUnits="userSpaceOnUse" x1="-508.7879" y1="-117572.1406" x2="1271.7266" y2="-117572.1406" gradientTransform="matrix(1.772698e-02 0 0 -1.772698e-02 325.2054 -1989.3965)">
				<stop  offset="0" style="stop-color:#F8F6EF"/>
				<stop  offset="1" style="stop-color:#E7E4D6"/>
			</linearGradient>
			<path style="fill:url(#SVGID_00000006696409648109662520000006004596214293861272_);" d="M307.3,85.7l24.6,18.3l24.8-18.3H307.3z
				"/>
			
				<linearGradient id="SVGID_00000058580444911891978220000016639732653763211189_" gradientUnits="userSpaceOnUse" x1="-508.7879" y1="-117572.1406" x2="1271.7266" y2="-117572.1406" gradientTransform="matrix(1.772698e-02 0 0 -1.772698e-02 325.2054 -1989.3965)">
				<stop  offset="0" style="stop-color:#F8F6EF"/>
				<stop  offset="1" style="stop-color:#E7E4D6"/>
			</linearGradient>
			<path style="fill:url(#SVGID_00000058580444911891978220000016639732653763211189_);" d="M307.3,85.7l24.6,18.3l24.8-18.3H307.3z
				"/>
			
				<linearGradient id="SVGID_00000166634245890422283090000015027277416158058899_" gradientUnits="userSpaceOnUse" x1="-508.7879" y1="-117572.1406" x2="1271.7266" y2="-117572.1406" gradientTransform="matrix(1.772698e-02 0 0 -1.772698e-02 325.2054 -1989.3965)">
				<stop  offset="0" style="stop-color:#F8F6EF"/>
				<stop  offset="1" style="stop-color:#E7E4D6"/>
			</linearGradient>
			<path style="fill:url(#SVGID_00000166634245890422283090000015027277416158058899_);" d="M307.3,85.7l24.6,18.3l24.8-18.3H307.3z
				"/>
			
				<linearGradient id="SVGID_00000103253466012112931170000008100118423960520634_" gradientUnits="userSpaceOnUse" x1="-508.7879" y1="-117572.1406" x2="1271.7266" y2="-117572.1406" gradientTransform="matrix(1.772698e-02 0 0 -1.772698e-02 325.2054 -1989.3965)">
				<stop  offset="0" style="stop-color:#F8F6EF"/>
				<stop  offset="1" style="stop-color:#E7E4D6"/>
			</linearGradient>
			<path style="fill:url(#SVGID_00000103253466012112931170000008100118423960520634_);" d="M307.3,85.7l24.6,18.3l24.8-18.3H307.3z
				"/>
			
				<linearGradient id="SVGID_00000052085806553752830110000006517067784703653784_" gradientUnits="userSpaceOnUse" x1="-508.7879" y1="-117572.1406" x2="1271.7266" y2="-117572.1406" gradientTransform="matrix(1.772698e-02 0 0 -1.772698e-02 325.2054 -1989.3965)">
				<stop  offset="0" style="stop-color:#F8F6EF"/>
				<stop  offset="1" style="stop-color:#E7E4D6"/>
			</linearGradient>
			<path style="fill:url(#SVGID_00000052085806553752830110000006517067784703653784_);" d="M307.3,85.7l24.6,18.3l24.8-18.3H307.3z
				"/>
			<path style="fill:#F7F5ED;" d="M307.3,85.7l24.6,18.3l24.8-18.3H307.3z"/>
		</g>
	</g>
	<g id="face">
		<g>
			<circle style="fill:#F6F5F8;stroke:#000000;stroke-miterlimit:10;" cx="156.4" cy="199.9" r="54.9"/>
			<path style="opacity:0.31;fill:#CCCCCC;enable-background:new    ;" d="M161.9,242.7c-27.6,0-50-22.3-50-50
				c0-9,2.4-17.5,6.5-24.7c-8,8.8-13.1,20.8-13.1,33.6c0,27.6,22.3,50,50,50c18.6,0,34.8-10.1,43.4-25.3
				C189.7,236.4,176.6,242.7,161.9,242.7z"/>
		</g>
		<path style="fill:#1376EE;" d="M168,202.8l2.1-8.8h-9.4v-6.1c0-2.4,1.3-5.2,4.8-5.2h4.2v-9.4h-6.4c-9.1,0-13.4,5.5-13.4,13.2v7.3
			h-7.2v8.8h7.2v23.1c2.1,0.3,4.2,0.7,6.4,0.7c1.4,0,3-0.1,4.4-0.2v-23.3L168,202.8L168,202.8z"/>
	</g>
	<g id="zen">
		<g>
			
				<ellipse transform="matrix(6.652057e-02 -0.9978 0.9978 6.652057e-02 14.4405 518.582)" style="fill:#F6F5F8;stroke:#000000;stroke-width:1;stroke-miterlimit:9.9995;" cx="284.4" cy="251.6" rx="49.8" ry="49.8"/>
			<path style="opacity:0.31;fill:#CCCCCC;enable-background:new    ;" d="M289.6,290.3c-25,0-45.1-20.1-45.1-45.1
				c0-8.1,2.2-15.7,5.9-22.3c-7.4,8-11.8,18.8-11.8,30.4c0,25,20.1,45.1,45.1,45.1c16.7,0,31.5-9.2,39.2-22.9
				C314.6,284.6,302.7,290.3,289.6,290.3z"/>
		</g>
		<g>
			
				<ellipse transform="matrix(6.652058e-02 -0.9978 0.9978 6.652058e-02 14.4405 518.582)" style="fill:#03363D;" cx="284.4" cy="251.6" rx="32.9" ry="32.9"/>
			<path style="fill:#FFFFFF;" d="M283.4,246.5v16h-13.1L283.4,246.5z M283.4,240.8c0,3.6-3,6.6-6.6,6.6c-3.6,0-6.6-3-6.6-6.6H283.4
				L283.4,240.8z M285.6,262.4c0-3.6,3-6.6,6.6-6.6c3.6,0,6.6,3,6.6,6.6H285.6z M285.6,256.6v-15.9h13.1L285.6,256.6z"/>
		</g>
	</g>
	<g id="zoom">
		<g>
			<circle style="fill:#F6F5F8;stroke:#000000;stroke-miterlimit:10;" cx="133.3" cy="358.6" r="50.3"/>
			<path style="opacity:0.31;fill:#CCCCCC;enable-background:new    ;" d="M138.6,397.9c-25.3,0-45.7-20.6-45.7-45.7
				c0-8.3,2.2-15.9,5.9-22.7c-7.4,8-12,18.9-12,30.8c0,25.3,20.6,45.7,45.7,45.7c17.1,0,31.9-9.2,39.7-23.1
				C163.8,392.1,151.9,397.9,138.6,397.9z"/>
		</g>
		<g>
			
				<linearGradient id="SVGID_00000123441045223315606230000002438661738800201375_" gradientUnits="userSpaceOnUse" x1="155.4383" y1="-413.9197" x2="155.4383" y2="-381.7522" gradientTransform="matrix(1 0 0 -1 0 -39.1737)">
				<stop  offset="5.586592e-03" style="stop-color:#287CF7"/>
				<stop  offset="1" style="stop-color:#2D8CFF"/>
			</linearGradient>
			<path style="fill:url(#SVGID_00000123441045223315606230000002438661738800201375_);" d="M158.6,342.5c-0.8,0-1.4,0.3-2,0.8
				l-5.4,5.4c-1.2,1.2-1.8,2.6-1.8,4.2V364c0,1.5,0.7,3.2,1.8,4.2l5.4,5.4c0.6,0.6,1.2,0.8,2,0.8l0,0c1.5,0,2.8-1.3,2.8-2.8v-13.3
				V345C161.7,343.8,160.4,342.5,158.6,342.5L158.6,342.5z"/>
			
				<linearGradient id="SVGID_00000182509418765330297650000002115682518803112591_" gradientUnits="userSpaceOnUse" x1="125.4661" y1="-413.9064" x2="125.4661" y2="-381.721" gradientTransform="matrix(1 0 0 -1 0 -39.1737)">
				<stop  offset="5.586592e-03" style="stop-color:#287CF7"/>
				<stop  offset="1" style="stop-color:#2D8CFF"/>
			</linearGradient>
			<path style="fill:url(#SVGID_00000182509418765330297650000002115682518803112591_);" d="M109.4,342.5c-2.2,0-4,1.9-4,4v18.1
				c0,5.6,4.5,10.1,10.1,10.1h26c2.2,0,4-1.9,4-4v-18.2c0-5.6-4.5-10.1-10.1-10.1L109.4,342.5L109.4,342.5z"/>
		</g>
	</g>
</g>




<g id="captain">

<g id="lers">
	<g style="display:none;">
		<path id="_x31__00000144335445928638794620000008194153433981746595_" style="display:inline;fill:#061123;" d="M443.2,364.7
			c0,0,312.6-1.7,307.2,80.5S708,602.3,809.3,631.8s293.4,69,411.2,267.6c0,0-106-114.2-236-39.6s-415.1,253.5-603.1,103.6
			c0,0-133.9-113.8-230.6-58.1c0,0,22.3-75.3,74-136.9s254.5-202.6,146.4-334.5C371.2,433.8,436.9,418.7,443.2,364.7z"/>
		
			<animate  accumulate="none" additive="replace" attributeName="display" begin="0s" calcMode="linear" dur="1s" fill="remove" id="neck" keyTimes="0; 0.11;0.22; 0.33; 0.44; 0.55;0.66;0.77;0.88;1" repeatCount="indefinite" restart="always" values="inline;none;none;none;none;none;none;none;none;none">
			</animate>
	</g>
	<g style="display:none;">
		<path id="_x32__00000026165359060393596750000006436036483253447611_" style="display:inline;fill:#061123;" d="M358.2,644.2
			c-27.7,32.3-29,48.9-102.1,89.7C181.9,761,141.8,868.7,141.8,868.7c127.6-73.3,225.1,28.6,315.9,119.1s245.1,73,354-23.2
			c109.1-96.3,221.3-136.5,221.3-136.5c116.8-58.8,223.5,45.9,223.5,45.9c-63.4-150.6-315.2-132.6-364.2-130.4
			c-76,3.4-94.8-109.6-95.6-254.6C796,348.9,441.3,362.8,441.3,362.8c-18.3,67.4-65.6,73.6-65.6,73.6c4.8,2.9,9.4,5.9,13.6,8.7
			C389.1,445.1,455.1,531.2,358.2,644.2z"/>
		
			<animate  accumulate="none" additive="replace" attributeName="display" begin="0s" calcMode="linear" dur="1s" fill="remove" id="neck" keyTimes="0; 0.11;0.22; 0.33; 0.44; 0.55;0.66;0.77;0.88;1" repeatCount="indefinite" restart="always" values="none;inline;none;none;none;none;none;none;none;none">
			</animate>
	</g>
	<g style="display:none;">
		<path id="_x33__00000108297452017237422600000017386221348704612763_" style="display:inline;fill:#061123;" d="M376.3,430.2
			c0,0,40.7-10.6,70.4-53.8c0,0,333.3,54.5,350.1,119.2c16.8,64.7,1.5,218,112.6,263.8c111.1,45.8,157.4,29.8,157.4,29.8
			s108.3-21.8,155,0.1c11.9,5.1,45.3,20.6,5.3,14.1c-13-2.1-77.6-4.9-165.9,44c-28.8,16-59.9,38.3-92.3,69.9
			c-131.4,128.2-356.4,175.9-450.3,89S265.4,778.9,168,863.3c0,0,21.8-45.2,54.9-60.8c33.1-15.8,128-75.2,137.2-192.2
			C366.1,533.2,503.5,465.4,376.3,430.2z"/>
		
			<animate  accumulate="none" additive="replace" attributeName="display" begin="0s" calcMode="linear" dur="1s" fill="remove" id="neck" keyTimes="0; 0.11;0.22; 0.33; 0.44; 0.55;0.66;0.77;0.88;1" repeatCount="indefinite" restart="always" values="none;none;inline;none;none;none;none;none;none;none">
			</animate>
	</g>
	<g style="display:none;">
		<path id="_x34__00000047760046292564210590000015698646271293046698_" style="display:inline;fill:#061123;" d="M609.8,1037.1
			c-39.1-17.9-98.2-44.5-177.1-106.5c0,0-154.6-149.6-296.4-87.9c0,0,27.6-20.1,139.6-69.1c115.7-83.5,48.3-145.8,85.8-211.2
			c40.6-71,154.9-21,131.4-49.2c-19.5-23.4-86.3-68-108.6-82.5c-1.7-1.1-1-3.7,1.1-3.7c11.5-0.4,32.8-8,50.3-52.1
			c0,0,345.7,4.5,369.6,73s-36,211,64.7,277.9c106.1,70.6,178.8,70.6,257.1-5.5c0,0-65.4,177.4-212.4,270.7
			C914.8,990.8,731,1092.5,609.8,1037.1z"/>
		
			<animate  accumulate="none" additive="replace" attributeName="display" begin="0s" calcMode="linear" dur="1s" fill="remove" id="neck" keyTimes="0; 0.11;0.22; 0.33; 0.44; 0.55;0.66;0.77;0.88;1" repeatCount="indefinite" restart="always" values="none;none;none;inline;none;none;none;none;none;none">
			</animate>
	</g>
	<g style="display:none;">
		<path id="_x35__00000002358997665010111330000016142835354926029211_" style="display:inline;fill:#061123;" d="M389.7,427.8
			c0,0,30.6,1,58-53.9c0,0,92.8,75.3,176.9,95.7c84.1,20.4,141.7,35.9,165.6,120.6s51.1,210.7,170.1,227.1s146-108.4,146-108.4
			s-5.8,151.9-125.9,244c-120,92.2-203.9,85.7-342.5,30.2c-138.8-55.6-212.4-91.6-299-103.5c-90.4-14.6-182.4-52.9-197.6-75.8
			c0,0,144.3,28.5,192.8-115.1c35.4-104.7,53.8-96.7,34.9-126.4C350,532.6,389.7,427.8,389.7,427.8z"/>
		
			<animate  accumulate="none" additive="replace" attributeName="display" begin="0s" calcMode="linear" dur="1s" fill="remove" id="neck" keyTimes="0; 0.11;0.22; 0.33; 0.44; 0.55;0.66;0.77;0.88;1" repeatCount="indefinite" restart="always" values="none;none;none;none;inline;none;none;none;none;none">
			</animate>
	</g>
	<g style="display:none;">
		<path id="_x36__00000131353122141257826060000001119716919102441140_" style="display:inline;fill:#061123;" d="M392,419.4
			c0,0,34,12.5,74.3-54.9c0,0,44.9,92.2,124.8,106.3c79.8,14,228.4,16.9,241.1,97.4c12.7,80.5,25.1,271.5,165.2,260
			c0,0,72.1,13.8,101.7-77c0,0,30.2,294.8-240.1,246.6c-192.9-34.4-198.9-84.2-291.5-78c-92.6,6.2-332.2,0.7-406-103.3
			c0,0,110.8,1.8,179.3-132.7c58.3-114.3,61.6-121.5,102.6-178C378.4,461,401.5,480.8,392,419.4z"/>
		
			<animate  accumulate="none" additive="replace" attributeName="display" begin="0s" calcMode="linear" dur="1s" fill="remove" id="neck" keyTimes="0; 0.11;0.22; 0.33; 0.44; 0.55;0.66;0.77;0.88;1" repeatCount="indefinite" restart="always" values="none;none;none;none;none;inline;none;none;none;none">
			</animate>
	</g>
	<g id="lers_00000035488807598462239960000018282017630672874161_">
		<path id="_x37__00000103261471360150815990000009449554157743739564_" style="fill:#061123;" d="M467.3,365.9
			c0,0-9,92.1,111.7,134.2s261.5,11.4,304.1,90.7c42.5,79.2,29.6,175,107.8,231c78.3,56,111.7,9.9,140.5-36.6
			c0,0,1.9,218.3-208.7,191.8c-210.6-26.7-231.7-61.3-339.8-36.2c-108.1,24.9-326.3,62.3-390.4-102.4c0,0,127.7-89.6,175.9-228.8
			c48.5-140,10.9-129.5,9.2-173c-1.7-43.6,133,125.7,83.4,99s-80.9-72.8-72.8-113.1C388.3,422.1,438.7,400.8,467.3,365.9z"/>
		
			<animate  accumulate="none" additive="replace" attributeName="display" begin="0s" calcMode="linear" dur="1s" fill="remove" id="neck" keyTimes="0; 0.11;0.22; 0.33; 0.44; 0.55;0.66;0.77;0.88;1" repeatCount="indefinite" restart="always" values="none;none;none;none;none;none;inline;none;none;none">
			</animate>
	</g>
	<g style="display:none;">
		<path id="_x38__00000085219755221757374820000000005494809209963435_" style="display:inline;fill:#061123;" d="M377.8,416.6
			c0,0,43.3,1.3,76.5-50.5c0,0,48.5,106.4,154.6,149.6c106.1,43.1,335.3,6.8,363.8,161.9c28.6,155.1,59.9,178.6,103.6,181.5
			s52.7-42.6,52.7-42.6s5.6,78.1-30.3,101.4c-35.9,23.3-117-1.2-217.6-25.8c-100.6-24.7-263.6,28.2-272.9,33.5
			c-9.4,5.3-325.9,97.9-406.8-61l-8.7-26.3c0,0,8.5,1.5,87.5-63.2C386.9,676.3,421.6,583.5,413,529c15.4-21.4,35.3-86.7,103.1,18.4
			C445,516.6,360.7,531.7,377.8,416.6z"/>
		
			<animate  accumulate="none" additive="replace" attributeName="display" begin="0s" calcMode="linear" dur="1s" fill="remove" id="neck" keyTimes="0; 0.11;0.22; 0.33; 0.44; 0.55;0.66;0.77;0.88;1" repeatCount="indefinite" restart="always" values="none;none;none;none;none;none;none;inline;none;none">
			</animate>
	</g>
	<g style="display:none;">
		<path id="_x39__00000010994269693326405750000015161601298066402228_" style="display:inline;fill:#061123;" d="M415,403.2
			c0,0,175.3,3.3,222.8-48.5c0,0-126.1,128.5,71.5,219.8s396.5,32,428,146.1s-42,214,36.5,240.9c0,0-50,35.1-183.9-76.2
			s-324.5,22.4-324.5,22.4S561.5,1031,438.8,985.5c-122.5-45.3-241.9-40.1-241.9-40.1s34.8-86,90.6-160.5S415,403.2,415,403.2z"/>
		
			<animate  accumulate="none" additive="replace" attributeName="display" begin="0s" calcMode="linear" dur="1s" fill="remove" id="neck" keyTimes="0; 0.11;0.22; 0.33; 0.44; 0.55;0.66;0.77;0.88;1" repeatCount="indefinite" restart="always" values="none;none;none;none;none;none;none;none;inline;inline">
			</animate>
	</g>
</g>
<!-- 	<g id="cape">
		<path style="display:inline;fill:#061123;" d="M851.1,852.8"/>
<g style="display:none;">
		<path id="_x31_" style="display:inline;fill:#061123;" d="M940.9,858c-220.1-98.6-218.5-483.9-218.5-483.9l-270.5-11.7l-3.7,10
			C433.9,419.1,417.4,541,408.4,650l0,0l0,0c-6.9,83.6-9.5,159.6-3.1,188.5c14.5,66.4,85.8,102,85.8,102
			c235.3,101.8,406.6-24.8,444-56.2c3.1-1.5,11.9-9.4,14-11.8C957.4,862.9,940.9,858,940.9,858z"/>
					<animate  accumulate="none" additive="replace" attributeName="display" begin="0s" calcMode="linear" dur="1s" fill="remove" id="neck" keyTimes="0; 0.11;0.22; 0.33; 0.44; 0.55;0.66;0.77;0.88;1" repeatCount="indefinite" restart="always" values="inline;none;none;none;none;none;none;none;none;none">
			</animate>
			</g>
			<g style="display:none;">
		<path id="_x32_" style="display:inline;fill:#061123;" d="M758.8,749.6c-14.5-77.7-6.1-342.3-32.8-372.6c-0.9-1.1-2.1-2.1-3.4-3.1
			l-270.8-11.5c0,0-65.6,161.4-69.3,199.1s-57,178.5-52.2,248.8c4.8,70.4,36.4,116.5,83.8,138.4s168.7,30.4,168.7,30.4
			S698,984,746.6,961c48.6-23,92.3-80.2,150.5-80.2C897.2,880.8,773.4,827.4,758.8,749.6z"/>
				
			<animate  accumulate="none" additive="replace" attributeName="display" begin="0s" calcMode="linear" dur="1s" fill="remove" id="neck" keyTimes="0; 0.11;0.22; 0.33; 0.44; 0.55;0.66;0.77;0.88;1" repeatCount="indefinite" restart="always" values="none;inline;none;none;none;none;none;none;none;none">
			</animate>
			</g>
			<g style="display:none;">
		<path id="_x33_" style="display:inline;fill:#061123;" d="M450.5,362.3l-67.9,199.2c0,0-112.5,196.2-16.2,355.8
			c0,0,51.7,61.5,241.1,58.2c0,0,82.6-8,119.8-29.2c37.2-21,97.1-58.2,131.1-66.4c0,0-113.3-50.2-111.6-142.5s-8-350.3-24.2-359.6
			C686,357.3,473.2,363.3,450.5,362.3z"/>
			<animate  accumulate="none" additive="replace" attributeName="display" begin="0s" calcMode="linear" dur="1s" fill="remove" id="neck" keyTimes="0; 0.11;0.22; 0.33; 0.44; 0.55;0.66;0.77;0.88;1" repeatCount="indefinite" restart="always" values="none;none;inline;none;none;none;none;none;none;none">
			</animate>
			</g>
			<g style="display:none;">
		<path id="_x34_" style="display:inline;fill:#061123;" d="M451.9,362.4c0,0-43.6,168.1-56.9,221.5
			c-13.3,53.4-38.9,105.5-63.1,137.1c-24.2,31.6-46.1,123.9-9.7,195.5c0,0,15.7,37.7,87.4,49.8s115.3,42.5,143.2,43.7
			s89.8-7.3,115.3-25.5c25.5-18.2,44.9-54.6,110.4-66.7c0,0-47.3-89.8-42.5-133.5s36.4-196.6,32.8-254.9S721.5,374,721.5,374
			L451.9,362.4z"/>
				<animate  accumulate="none" additive="replace" attributeName="display" begin="0s" calcMode="linear" dur="1s" fill="remove" id="neck" keyTimes="0; 0.11;0.22; 0.33; 0.44; 0.55;0.66;0.77;0.88;1" repeatCount="indefinite" restart="always" values="none;none;none;inline;none;none;none;none;none;none">
			</animate>
			</g>
			<g style="display:none;">
		<path id="_x35_" style="display:inline;fill:#061123;" d="M451.9,362.4c0,0-43.3,177.6-55.4,205.4c-12.1,28-28,77.7-42.5,102
			C339.5,694,277.5,803.4,318.8,898c0,0,20.6,47.3,114.1,66.7c93.5,19.4,105.6,32.8,134.8,32.8c29.2,0,88.6-17,122.5-40.1
			c34-23,61.9-47.3,86.2-51c0,0-47.3-89.8-35.2-174.7c12.1-85,36.7-218.1,20.9-277.6s-39.6-80.2-39.6-80.2L451.9,362.4z"/>
			<animate  accumulate="none" additive="replace" attributeName="display" begin="0s" calcMode="linear" dur="1s" fill="remove" id="neck" keyTimes="0; 0.11;0.22; 0.33; 0.44; 0.55;0.66;0.77;0.88;1" repeatCount="indefinite" restart="always" values="none;none;none;none;inline;none;none;none;none;none">
			</animate>
			</g>
			<g style="display:none;">
		<path id="_x36_" style="display:inline;fill:#061123;" d="M451.9,362.4c0,0,147.5-7.7,270.5,11.7l0,0c0,0,53.8,61.5,53.8,201.3
			c0,37.2-42.1,199.1-27.5,323.7v16.2c0,0-95.5,48.6-123,61.5c-27.5,13-63.1,35.6-93.9,22.7c-30.7-13-80.9-24.2-100.3-25.9
			c-19.4-1.7-77.7-37.2-95.5-55c-17.8-17.8-46.9-27.5-55-34c-8-6.5-24.2-50.2,0-80.9c24.2-30.7,63.1-76.1,79.3-103.6
			s43.8-131,47-161.8C410.5,507.4,426,393.2,451.9,362.4z"/>
			<animate  accumulate="none" additive="replace" attributeName="display" begin="0s" calcMode="linear" dur="1s" fill="remove" id="neck" keyTimes="0; 0.11;0.22; 0.33; 0.44; 0.55;0.66;0.77;0.88;1" repeatCount="indefinite" restart="always" values="none;none;none;none;inline;none;none;none;none;none">
			</animate>
			</g>
			<g style="display:none;">
		<path id="_x37_" style="display:inline;fill:#061123;" d="M451.9,362.4c0,0-50.2,115.3-49.2,206.4c0.8,68-24.2,140.8-69.6,202.3
			s-72.8,84.1-67.9,95.5c4.8,11.3,24.2,14.5,34,19.4c9.7,4.8,71.2,93.9,181.2,113.3c110.1,19.4,160.2-22.7,168.3-27.5
			c8-4.8,98.8-38.9,102-51.7c3.2-13-6.5-119.8,0-145.7c6.5-25.9,31-189.9,27.5-231.4c-9.7-112.9-55.8-168.8-55.8-168.8L451.9,362.4z
			"/>
				<animate  accumulate="none" additive="replace" attributeName="display" begin="0s" calcMode="linear" dur="1s" fill="remove" id="neck" keyTimes="0; 0.11;0.22; 0.33; 0.44; 0.55;0.66;0.77;0.88;1" repeatCount="indefinite" restart="always" values="none;none;none;none;none;inline;none;none;none;none">
			</animate>
			</g>
			<g style="display:none;">
		<path id="_x38_" style="display:inline;fill:#061123;" d="M448.9,366.8c0,0-40.3,129.6-46.7,197.6c-6.4,68-37.2,195.9-142.5,263.8
			l-13,13c0,0,30.7,4.8,38.9,17.8c8,13,114.5,148.5,203.9,148.9c83,0.3,179.7,16.2,246-97.1c0,0,21-46.9,17.8-66.4
			C750.1,825,775.9,661.7,776,605c0.2-164.5-53.6-230.9-53.6-230.9L448.9,366.8z"/>
				<animate  accumulate="none" additive="replace" attributeName="display" begin="0s" calcMode="linear" dur="1s" fill="remove" id="neck" keyTimes="0; 0.11;0.22; 0.33; 0.44; 0.55;0.66;0.77;0.88;1" repeatCount="indefinite" restart="always" values="none;none;none;none;none;none;inline;none;none;none">
			</animate>
			</g>
			<g style="display:none;">
		<path id="_x39_" style="display:inline;fill:#061123;" d="M450.7,359.5c0,0-58.2,76.1-51.7,179.7c6.5,103.6,25.9,176.4,8,221.7
			s-55,85.8-71.2,108.4c0,0-17.8,13-11.3,30.7c6.5,17.8,17.8,48.6,80.9,45.4c63.1-3.2,113.3-37.2,140.8-16.2
			c27.5,21,45.4,64.7,114.9,63.1c69.6-1.7,111.6-71.2,129.5-119.8c17.8-48.6,24.2-119,9.7-167.1s-53.4-167.9-53.4-229.3
			s-24.4-102.1-24.4-102.1S479.8,353.2,450.7,359.5z"/>
				<animate  accumulate="none" additive="replace" attributeName="display" begin="0s" calcMode="linear" dur="1s" fill="remove" id="neck" keyTimes="0; 0.11;0.22; 0.33; 0.44; 0.55;0.66;0.77;0.88;1" repeatCount="indefinite" restart="always" values="none;none;none;none;none;none;none;inline;none;none">
			</animate>
			</g>
			<g style="display:none;">
		<path id="_x31_0" style="display:inline;fill:#061123;" d="M713.6,373.4c0,0-248.8-19-261.7-10.9c-13,8-51,113.8-47.8,175.3
			c3.2,61.5-1.7,113.3,14.5,189.4s22.7,111.5,8.1,142.4c-14.5,30.7-31.3,56.6-22.9,84.1s39.1,24.2,71.5,22.7
			c32.4-1.7,99.2-35.6,151.5-34c52.4,1.7,102.5,11.8,134.9,35c32.4,23.2,40.4,49.1,74.4,37.8c34-11.3,65.1-80.9,28.5-165
			c-36.6-84.1-83.6-181.2-94.8-328.5l-47.3-147.4L713.6,373.4z"/>
				<animate  accumulate="none" additive="replace" attributeName="display" begin="0s" calcMode="linear" dur="1s" fill="remove" id="neck" keyTimes="0; 0.11;0.22; 0.33; 0.44; 0.55;0.66;0.77;0.88;1" repeatCount="indefinite" restart="always" values="none;none;none;none;none;none;none;none;inline;inline">
			</animate>
			</g>
	</g> -->
	
<linearGradient id="body_00000145740440959180541280000006136905225368040376_" gradientUnits="userSpaceOnUse" x1="685.661" y1="332.5218" x2="290.0114" y2="1572.5969">
	<stop  offset="0.3425" style="stop-color:#CCCCFF"/>
	<stop  offset="0.9574" style="stop-color:#6699FF"/>
	<stop  offset="1" style="stop-color:#CCCCDC"/>
</linearGradient>
<path id="body" style="fill:url(#body_00000145740440959180541280000006136905225368040376_);stroke:#000033;stroke-width:4;stroke-miterlimit:10;" d="
	M842.3,540.4c2-15.7-27.7-37-27.7-37c21.3-30.3,14.5-58,3.6-82.8s-91.5-51.8-91.5-51.8l0,0.7c-25.6-28.1-88.8-54.1-150-55.9
	c-67.2-2-145.9,58.8-145.9,58.8l0,0c-21.9,8.1-73.1,28.9-81.6,48.2c-10.9,24.8-17.7,52.5,3.6,82.8c0,0-31.9,21.4-29.8,37
	c2,15.7-8.2,100.2-8.2,100.2s9.6,55.3,75.3,35.5l24.6-22.7l31.7-40.3c15,22,11.4,127.1,38.4,155.9l-5.3-0.6l3.7,16.8
	c-5.4,49.3-26.6,116.5-27.7,138.4c-2,41.1,21.9,90.6,32.6,117.1c-2,7.9-2.9,19.5,2.5,34.5c-3.9,15.4-10.3,35-9.2,54.7
	c1.7,29.3,6.1,115.9,2.5,160.6c-4,49.6,0.8,91.5,0.8,91.5l12.1-11.7c35.5-33,37.5-87.5,37.5-87.5s-13.6-5.1-16-45.9
	c-1.6-26.8,28.2-59.1,33.6-85.2c5.5-26.2-13.8-54.2-13.9-70.2c0-4.5,1.1-14.2,2.6-26c24-78,35-133.1,40-167.7
	c3.9,34.8,12.5,91,31.2,143c2.2,17.4,3.8,33.2,3.7,39.3c-0.3,15.9-20.1,43.7-15.1,70c4.8,26.2,34.1,59,32,85.9
	c-3,40.9-16.7,45.6-16.7,45.6s1,54.5,35.9,88.2l11.9,11.9c0,0,5.6-41.9,2.4-91.4c-2.9-44.7,3.2-131.3,5.4-160.5
	c1.4-19.8-4.7-39.4-8.3-54.9c5.7-15,5-26.6,3.1-34.5c11.1-26.3,35.9-75.3,34.7-116.5c-1-32.7-16.4-50.4-31.8-128.5
	c1-3.9,2-7.8,3-11.7c-1,0.2-1.9,0.4-2.9,0.6c20.7-40.9,35.7-141.9,50.2-163.5l33.6,42.6l23.8,22.7c26.5,14.8,58.2-22.5,58.2-22.5
	S840.3,556.1,842.3,540.4z"/>
	<g>
		<g>
			<path style="fill:#FDD597;stroke:#000000;stroke-width:4;stroke-miterlimit:10;" d="M682.9,187.1c-5.4-2-12.1,6.4-15.7,11.8
				l-13-92.6c0,0-162.4-10.5-196.4,28.8c0,0-2.1,37.9-4,80c-4.1-3.5-11.9-9.2-15.6-5.5c-4.5,4.5,5.3,31,14.2,42.7
				c-0.3,8.8-0.6,17.3-0.8,25.3c0,0-1.9,45.3,8,58c9.6,12.3,35.9,28.4,74.1,32.4c37.9,4,104.9-2.3,128.9-33.5
				c21.6-28.1,14.1-68.2,14.1-68.2l-0.3-2.1l-3.1-21.7C692.1,232.5,690.5,189.9,682.9,187.1z"/>
			<path style="fill:none;stroke:#000000;stroke-linecap:round;stroke-miterlimit:10;" d="M679.1,196.5c0,0-5.3,10.5-5.3,20.9
				c0,0,6.5-5.3,7.8,0s-2.6,10.5-2.6,10.5"/>
			<path style="fill:none;stroke:#000000;stroke-linecap:round;stroke-miterlimit:10;" d="M443.4,214.9c0,0,5.3,5.3,7.8,15.7
				c0,0-2.6,3.3,0,8.3"/>
			<path style="fill:#E6BA87;" d="M668.9,258.5l-0.3-2.1L648.9,101c0,0-0.3,2.6-26.2,2.6c6.7,40.4,10.1,116.7,13.1,133.5
				c4,22.5-4,98.2-110,123.1c37.9,4,104.9-2.3,128.9-33.5C676.4,298.7,668.9,258.5,668.9,258.5z"/>
			<path style="fill:#061123;" d="M457.8,135c0,0,100.5,9.2,138.8-26.2c0,0,37.9,14.3,59.6,11.1l11.1,85.8L683,97.8
				c0,0-86.4-46.6-164.9-41.4c0,0-41.9,0-68,41.9L486.7,80c0,0-44.8,42.6-47.3,50.1c-2.4,7.5,15.9,99.1,15.9,99.1L457.8,135z"/>
		</g>
		<path style="fill:#FDD597;stroke:#000000;stroke-width:2;stroke-linecap:round;stroke-miterlimit:10;" d="M542.9,204.4
			c0,0-8.6,20.9-9.5,24.9c-0.7,2.9,7.4,7.9,13.3,8.7"/>
		<path style="fill:#FDD597;stroke:#000000;stroke-width:2;stroke-linecap:round;stroke-miterlimit:10;" d="M522,306.5
			c0,0,70.7,8,104.7-48.3"/>
	</g>
	<g id="eyes">
		<g id="f1_00000086685058613547482540000012692322039771199935_">
			<g>
				<path style="fill:#FFFDF8;stroke:#000000;stroke-miterlimit:10;" d="M567.4,189.6c0,0,26.2-21.9,36.7-19.5
					c10.5,2.5,28.8,24.1,28.8,24.1S594.5,208.1,567.4,189.6z"/>
			</g>
			<g>
				<path style="fill:#FFFDF8;stroke:#000000;stroke-miterlimit:10;" d="M542.8,190.7c0,0-24.6-21.9-35.1-19.7
					c-10.6,2.1-29.6,23.1-29.6,23.1S515.1,208.3,542.8,190.7z"/>
			</g>
			<polygon style="fill:#061123;" points="589.7,146.6 627.7,171.6 627.7,174.4 589.7,150.9 			"/>
			<polygon style="fill:#061123;" points="491,170.8 532.1,154.6 532.1,150.3 491,168 			"/>
			
			
			<path d="M605.2,199.1c0.7-1.3,1-2.8,1-4.3c0-0.9-0.1-1.8-0.4-2.7c-0.8,1.1-2.1,1.8-3.5,1.8c-2.4,0-4.4-2-4.4-4.4
				c0-1.6,0.8-2.9,2.1-3.7c-1.1-0.4-2.3-0.7-3.5-0.7c-5.3,0-9.6,4.3-9.6,9.6c0,0.9,0.1,1.8,0.4,2.6C592.3,198,599,198.8,605.2,199.1
				z"/>
			<path d="M515.8,199.9c0.9-1.5,1.5-3.2,1.5-5.1c0-0.9-0.1-1.8-0.4-2.7c-0.8,1.1-2.1,1.8-3.5,1.8c-2.4,0-4.4-2-4.4-4.4
				c0-1.6,0.8-2.9,2.1-3.7c-1.1-0.4-2.3-0.7-3.5-0.7c-5.3,0-9.6,4.3-9.6,9.6c0,1.7,0.4,3.3,1.2,4.7
				C503.6,199.7,510.7,200,515.8,199.9z"/>
						<animate  accumulate="none" additive="replace" attributeName="display" begin="0s" 
				calcMode="linear" dur="7s" fill="remove" id="neck" keyTimes="0; 0.5; 0.899;1" repeatCount="indefinite" restart="always" values="inline;none;none;none">
				</animate>
		</g>
		<g id="f2_00000095323487224456494590000018196611784605587877_">
			<g>
				<path style="fill:#FFFDF8;stroke:#000000;stroke-miterlimit:10;" d="M567.4,189.6c0,0,26.2-21.9,36.7-19.5
					c10.5,2.5,28.8,24.1,28.8,24.1S594.5,208.1,567.4,189.6z"/>
			</g>
			<g>
				<path style="fill:#FFFDF8;stroke:#000000;stroke-miterlimit:10;" d="M542.8,190.7c0,0-24.6-21.9-35.1-19.7
					c-10.6,2.1-29.6,23.1-29.6,23.1S515.1,208.3,542.8,190.7z"/>
			</g>
			<polygon style="fill:#061123;" points="583.7,156.8 627.9,167.5 628.8,170.2 585.1,160.8 			"/>
			<polygon style="fill:#061123;" points="488.9,164.2 532.9,160.9 534.2,156.8 489.7,161.6 			"/>
			<path d="M606.2,186.2c-2.7,0-4.9-2.2-4.9-4.9c0-1.3,0.5-2.5,1.3-3.4c-0.8-0.2-1.6-0.3-2.5-0.3c-5.3,0-9.6,4.3-9.6,9.6
				c0,5.3,4.3,9.6,9.6,9.6c5.3,0,9.6-4.3,9.6-9.6c0-0.8-0.1-1.6-0.3-2.3C608.7,185.7,607.5,186.2,606.2,186.2z"/>
			<path d="M514.9,186.2c-2.7,0-4.9-2.2-4.9-4.9c0-1.3,0.5-2.5,1.3-3.4c-0.8-0.2-1.6-0.3-2.5-0.3c-5.3,0-9.6,4.3-9.6,9.6
				c0,5.3,4.3,9.6,9.6,9.6c5.3,0,9.6-4.3,9.6-9.6c0-0.8-0.1-1.6-0.3-2.3C517.3,185.7,516.2,186.2,514.9,186.2z"/>
						<animate  accumulate="none" additive="replace" attributeName="display" begin="0s" 
				calcMode="linear" dur="7s" fill="remove" id="neck" keyTimes="0; 0.5; 0.899;1" repeatCount="indefinite" restart="always" values="none;inline;none;none">
				</animate>
		</g>
		<g id="f3" style="display:none;">
			<path style="display:inline;fill:#FDD597;" d="M564.2,188c0,0,22.2-24.1,38.9-20.4c16.6,3.7,30.2,26.2,30.2,26.2
				S593,211.2,564.2,188z"/>
			<path style="display:inline;fill:#E6BA87;" d="M573.6,180c-5.6,4.3-9.4,8-9.4,8c28.6,23.1,69,5.7,69,5.7s-1-1.4-2.6-3.7
				C610.6,196.2,586.5,186.5,573.6,180z"/>
			<path style="display:inline;fill:#FDD597;" d="M473.2,192.8c0,0,21.6-26,39.5-23.8s34.1,23.5,34.1,23.5"/>
			<path style="display:inline;fill:#E6BA87;" d="M482.3,184c-5.5,4.7-9.1,8.9-9.1,8.9c32.3,20.5,73.7-0.4,73.7-0.4
				s-1.1-1.4-3.2-3.4C522.8,196.9,496.6,189.4,482.3,184z"/>
			<polygon style="display:inline;fill:#061123;" points="598.8,153.8 599.7,153.9 633.4,157.7 633.4,161 589.5,157.3 589.5,153 			
				"/>
			<polygon style="display:inline;fill:#061123;" points="484.9,157 534.6,155.8 534.6,159.5 484.9,159.5 			"/>
			<g style="display:inline;">
				<path style="fill:#061123;" d="M506,203.3c-21.6,0-33.1-8.6-33.8-9.1c-0.8-0.6-0.9-1.5-0.3-2.3c0.6-0.8,1.5-0.9,2.3-0.3l0,0
					c0.2,0.2,25.5,18.9,71.1-0.2c0.9-0.3,1.8,0,2.2,0.9c0.3,0.9,0,1.8-0.9,2.2C530.6,201,517,203.3,506,203.3z"/>
			</g>
			<g style="display:inline;">
				<path style="fill:#061123;" d="M599.8,201.8c-24.8,0-36.1-11.9-36.8-12.7c-0.7-0.7-0.6-1.8,0.1-2.3c0.7-0.7,1.8-0.6,2.3,0.1l0,0
					c0.2,0.2,20.9,21.7,67.3,5.4c0.9-0.3,1.8,0.1,2.1,1c0.3,0.9-0.1,1.8-1,2.1C620.5,200.2,609.3,201.8,599.8,201.8z"/>
			</g>
			
				<animate  accumulate="none" additive="replace" attributeName="display" begin="0s" 
				calcMode="linear" dur="7s" fill="remove" id="neck" keyTimes="0; 0.5; 0.899;1" repeatCount="indefinite" restart="always" values="none;none;inline;none">
				</animate>
		</g>
	</g>
	<line x1="511.6" y1="242.4" x2="501.5" y2="242.4"/>
	<g>
		<path style="opacity:0.49;fill:#9999FF;enable-background:new    ;" d="M502.4,1263.4c3.1-40,7.7-187.8,7.7-187.8
			s-0.1-31.9-19.2-73.9c-30.1-66.3,9.9-206.4,9.9-206.4l-4.3-21.7c-7.8-2.6-11.7-4.6-11.7-4.6l3.6,16.5
			c-5.4,49.4-26.6,116.5-27.7,138.4c-1.9,41.1,21.9,90.6,32.6,117.1c-2.1,7.8-3,19.5,2.5,34.5c-3.9,15.5-10.3,35-9.2,54.7
			c1.8,29.3,6.2,115.9,2.5,160.6c-4.1,49.5,0.8,91.5,0.8,91.5l8.5-21.9c5.4-5.1,10.2-16.8,14.2-22.6
			C504.2,1299.5,501.2,1279.3,502.4,1263.4z"/>
		<path style="opacity:0.49;fill:#9999FF;enable-background:new    ;" d="M696.4,913.7c-1-32.7-16.3-50.4-31.8-128.5
			c0.3-1.5,0.7-2.9,1.1-4.3c-9.7,1.4-18.9,2.5-27.9,3.4c11.9,30.9,43,116.8,35.2,155.6c-9.6,47.7-23.5,89.3-26.5,100.1
			c-3.1,10.8,0,38.5,0,47.7c0,9.2-1.3,164.7-1.3,164.7l-6.4,98c2.5,3.2,5.3,6.3,8.4,9.2l11.9,11.9c0,0,5.5-41.8,2.4-91.4
			c-2.9-44.7,3.1-131.3,5.4-160.5c1.4-19.7-4.6-39.4-8.3-54.9c5.7-15,5.1-26.5,3.1-34.5C672.8,1003.9,697.6,954.9,696.4,913.7z"/>
	</g>
	<g>
		<path style="fill:#061123;" d="M527.6,1315.6c5.2-18.4,5.8-32.7,5.8-32.7s-13.5-5-16-45.9c-1.7-27,28.2-59.2,33.6-85.2
			c3.1-14.9-1.8-30.3-6.6-43.9c-26.5,14.8-48.2,16.2-64,13.5c-0.2,3-0.1,5.8,0,8.7c1.8,29.3,6.2,115.9,2.5,160.6
			c-2.4,29.2-3.4,51.9-2.4,68.8l0.3,5.9c0,0-1.3,16.5,2.4,20.9c3.9,4.5,26.9-22.7,39.2-51.6C526,1326.8,527.5,1320.5,527.6,1315.6z"
			/>
		<path style="fill:#FFFDF8;" d="M489,1284.5l0.4-2.5c-1.2-41.5-5.9-155.3-5.9-155.3c4.2,1,18.6-1,18.6-1l-2.3,32.4
			c0,0-0.1,12.3-0.3,30.1l-3.7,88.2l-3.9,83.1c-0.3,2-0.7,3.7-1,5.3c-0.7,2.6-1.1,4.3-1.1,4.3s0-3.5,0-9
			C481.6,1321.2,489,1284.5,489,1284.5z"/>
	</g>
	<g>
		<g>
			<path style="fill:#061123;" d="M624.9,1322.4c11.9,29.2,34.9,59,38.9,54.6c3.9-4.3,2.2-23.1,2.2-23.1l0.4-5.9
				c1.3-17,0.8-39.6-1.1-68.8c-2.9-44.7,3.3-131.3,5.6-160.5c0.1-2.9,0.2-5.8,0.1-8.7c-15.7,2.4-37.4,0.4-63.7-14.8
				c-5.1,13.4-10.2,28.8-7.4,43.8c5,26.2,34.1,59,32,85.9c-3.2,40.8-16.8,45.6-16.8,45.6s0.3,14.3,5.3,32.8
				C620.4,1308.1,621.6,1314.4,624.9,1322.4z"/>
		</g>
		<path style="fill:#FFFDF8;" d="M661.2,1277.5l-0.4-2.5c1.2-41.5,5.9-155.3,5.9-155.3c-4.2,1-18.6-1-18.6-1l2.3,32.4
			c0,0,0.1,12.3,0.3,30.1l3.7,88.2l3.9,83.1c0.3,2,0.7,3.7,1,5.3c0.7,2.6,1.1,4.3,1.1,4.3s0-3.5,0-9
			C668.7,1314.1,661.2,1277.5,661.2,1277.5z"/>
	</g>
	<g>
		<path style="fill:#061123;" d="M476.7,768.9l6.4,16.4l-4,24.1l6.4,5c21.9,17.4,78.3,52.6,92.2,81.3l4.7-0.2
			c0,0,45.4-62.8,90.4-83.6v-38.4C572.7,788,489.7,771.7,476.7,768.9z"/>
		<polygon style="fill:#FFFDF8;" points="635,786 665.9,779.9 665.9,807 648,812.5 		"/>
	</g>
	<g id="hands">
		<path style="fill:#061123;" d="M688.1,696.6L800,677.8c-1-58.5-54.7-79.2-54.7-79.2l-81.7,64.4c-0.9-0.3-1.8-0.5-2.6-0.7
			c-13.3-2.7-48.4,26.4-48.4,26.4s-33.1,11.8-32,16.9c1.1,5.1,7.4,5.8,7.4,5.8s-13.9,4-11.1,9.5c2.8,5.4,10.7,4.8,10.7,4.8
			s-3.3,1.2,1.5,7.2c4.7,6,16.6,1.9,16.6,1.9c1.3,3.7,5.7,6.3,5.7,6.3c16.2,4.7,49.3-17.2,49.3-17.2c-2.4,14.6,8.4,19.1,13.7,19.7
			c5.3,0.6,2.9-9.7,2.9-9.7c-0.6-11.3,5.8-20,7.9-25.7C686.4,704.7,687.5,699.9,688.1,696.6z"/>
		<path style="fill:#061123;" d="M464.8,702.3l-114-19.2c1-59.6,55.8-80.8,55.8-80.8l83.3,65.6c0.9-0.3,1.8-0.5,2.7-0.7
			c13.5-2.7,49.3,27,49.3,27s33.8,12.1,32.6,17.2c-1.2,5.2-7.6,5.9-7.6,5.9s14.2,4.1,11.3,9.7c-2.9,5.6-11,4.9-11,4.9
			s3.3,1.2-1.5,7.3c-4.8,6.1-16.9,1.9-16.9,1.9c-1.4,3.7-5.8,6.4-5.8,6.4c-16.5,4.8-50.3-17.6-50.3-17.6c2.5,14.9-8.6,19.4-14,20.1
			c-5.4,0.7-3-9.8-3-9.8c0.7-11.5-5.9-20.4-8-26.2C466.6,710.6,465.5,705.7,464.8,702.3z"/>
	</g>
	<path style="opacity:0.49;fill:#9999FF;enable-background:new    ;" d="M748.7,477.9c-171.9,48.2-316,8.3-339.4,1.1
		c-1.3,24.9-4.9,81.2-12.6,117.2c18.8-32.4,22.7-66.6,22.7-66.6l22.5,6.3c118.7,44.9,291-4.9,291-4.9s6.2,40.4,17.3,65.4
		C744.3,541.9,748.7,477.9,748.7,477.9z"/>
	<path style="fill:none;stroke:#000033;stroke-width:4;stroke-linecap:round;stroke-miterlimit:10;" d="M413,529
		c0,0,136.8,81.4,323.5-10.4"/>
	<g>
		<polygon style="fill:#FFFFFF;stroke:#000000;stroke-width:2;stroke-miterlimit:10;" points="533.9,553.5 520.6,447.4 599.7,424.4 
			614.2,553.5 		"/>
		<g>
			<g>
				<g>
					<g>
						<g>
							<defs>
								
									<rect id="SVGID_00000044876204425785650280000004714624845490264481_" x="538.5" y="446.5" transform="matrix(0.9903 -0.1387 0.1387 0.9903 -63.2866 83.2734)" width="54.7" height="98.4"/>
							</defs>
							<clipPath id="SVGID_00000096018502832787248520000012112402823345322121_">
								<use xlink:href="#SVGID_00000044876204425785650280000004714624845490264481_"  style="overflow:visible;"/>
							</clipPath>
							<g style="clip-path:url(#SVGID_00000096018502832787248520000012112402823345322121_);">
								<g>
									<path style="fill:#D6C2ED;" d="M596.2,515.8l2.9,20.6c0.4,3.3-2.5,5.8-4.8,5.1l-41.6-5.2l2.2-0.3c0,0,0,0-0.1-1.1
										c-0.1-1.1,0.8-2.3,1.9-2.4c0,0,0,0,1.1-0.1l35.9-11.7C594.6,520.4,596.5,517.9,596.2,515.8L596.2,515.8z"/>
								</g>
								<g>
									<path style="fill:#061123;" d="M586.6,447.5l2.9,20.6c-0.3-2.2-2.6-3-3.7-2.8l-39-2.3c0,0,0,0-1.1,0.1c0,0-1.2-0.9-1.4-2
										c-0.1-1.1-0.1-1.1-0.1-1.1l-1.1,0.1l37.4-16.3C582.6,442.5,586.2,444.3,586.6,447.5L586.6,447.5z"/>
								</g>
								
									<linearGradient id="SVGID_00000086689604145688034980000000728450492141021316_" gradientUnits="userSpaceOnUse" x1="183.9203" y1="-1934.9489" x2="256.8161" y2="-1901.7789" gradientTransform="matrix(0.9903 -0.1387 -0.1387 -0.9903 59.2478 -1352.313)">
									<stop  offset="2.000000e-02" style="stop-color:#6A9EFF"/>
									<stop  offset="1" style="stop-color:#CAB5FF"/>
								</linearGradient>
								<path style="fill:url(#SVGID_00000086689604145688034980000000728450492141021316_);" d="M589.6,468.1l6.7,47.7l0,0
									l2.9,20.6c0.4,3.3-2.5,5.8-4.8,5.1l-41.6-5.2l-5.7-1.4c-2.2,0.3-3.4-0.7-3.7-2.8l0,0l-9.1-65l0,0c-0.1-1.1,0.7-3.4,2.8-3.7
									l6.2-3.1l1.1-0.1c0,0,0,0,0.1,1.1c0.1,1.1,1.4,2,2.4,1.9c0,0,0,0,1.1-0.1l37.8,1.3C586.7,464,589.2,465.9,589.6,468.1
									L589.6,468.1z"/>
							</g>
						</g>
					</g>
				</g>
			</g>
		</g>
	</g>
</g>


<g id="Nol">
	<g>
		<circle style="fill:#F6F5F8;stroke:#000000;stroke-width:2;stroke-miterlimit:10;" cx="565.6" cy="521.9" r="140.1"/>
		<path style="opacity:0.31;fill:#CCCCCC;enable-background:new    ;" d="M579.6,630.8c-70,0-127-57-127-127
			c0-22.9,5.7-44.6,16.6-62.7c-20.7,22.3-33.4,52.5-33.4,85.6c0,70,57,127,127,127c47.1,0,88.5-26.1,110.5-64.3
			C650.6,614.9,616.8,630.8,579.6,630.8z"/>
	</g>
	<g>
		<g>
			<g>
				<g>
					<g>
						<defs>
							
								<rect id="SVGID_00000070824859022233878840000000219317070040908689_" x="492.6" y="410.7" transform="matrix(0.9903 -0.1387 0.1387 0.9903 -67.0356 81.9509)" width="123.7" height="222.5"/>
						</defs>
						<clipPath id="SVGID_00000026874459536108438540000011193831123111763877_">
							<use xlink:href="#SVGID_00000070824859022233878840000000219317070040908689_"  style="overflow:visible;"/>
						</clipPath>
						<g style="clip-path:url(#SVGID_00000026874459536108438540000011193831123111763877_);">
							<g>
								<path style="fill:#D6C2ED;" d="M623.1,567.3l6.5,46.5c1,7.5-5.7,13.2-11,11.5l-94.1-11.7l5-0.7c0,0,0,0-0.2-2.5
									c-0.2-2.5,1.7-5.2,4.2-5.5c0,0,0,0,2.5-0.2l81.1-26.4C619.6,577.7,623.8,572,623.1,567.3L623.1,567.3z"/>
							</g>
							<g>
								<path style="fill:#061123;" d="M601.4,413l6.5,46.5c-0.7-5-6-6.7-8.5-6.2l-88.1-5.2c0,0,0,0-2.5,0.2c0,0-2.7-2-3.2-4.5
									c-0.2-2.5-0.2-2.5-0.2-2.5l-2.5,0.2l84.6-36.8C592.5,401.8,600.4,405.7,601.4,413L601.4,413z"/>
							</g>
							
								<linearGradient id="SVGID_00000119087334996044550460000002363236964699955646_" gradientUnits="userSpaceOnUse" x1="91.5628" y1="-2002.8207" x2="256.3731" y2="-1927.8269" gradientTransform="matrix(0.9903 -0.1387 -0.1387 -0.9903 59.2478 -1352.313)">
								<stop  offset="2.000000e-02" style="stop-color:#6A9EFF"/>
								<stop  offset="1" style="stop-color:#CAB5FF"/>
							</linearGradient>
							<path style="fill:url(#SVGID_00000119087334996044550460000002363236964699955646_);" d="M608.1,459.5l15.2,107.8l0,0
								l6.5,46.5c1,7.5-5.7,13.2-11,11.5l-94.1-11.7l-12.9-3.2c-5,0.7-7.7-1.5-8.5-6.2l0,0l-20.7-146.9l0,0
								c-0.2-2.5,1.5-7.7,6.2-8.5l13.9-7l2.5-0.2c0,0,0,0,0.2,2.5s3.2,4.5,5.5,4.2c0,0,0,0,2.5-0.2l85.4,3
								C601.7,450.3,607.4,454.5,608.1,459.5L608.1,459.5z"/>
						</g>
					</g>
				</g>
			</g>
		</g>
	</g>
</g>
</svg>
