<?xml version="1.0" encoding="utf-8"?>
<!-- Generator: Adobe Illustrator 27.1.1, SVG Export Plug-In . SVG Version: 6.00 Build 0)  -->
<svg version="1.1" id="Layer_1" xmlns="http://www.w3.org/2000/svg" xmlns:xlink="http://www.w3.org/1999/xlink" x="0px" y="0px"
	 viewBox="0 0 1465.2 1474.3" style="enable-background:new 0 0 1465.2 1474.3;" xml:space="preserve">
	 	 	 	 <style>

		#captain{
				animation: float 6s ease-in-out infinite;

}

		#Nol{
				animation: float 3s ease-in-out infinite;

}

	 #lineleft1, #lineleft2, #lineleft3, #lineleft4, .lers1, #rightline3, #rightline2, #rightline1{
	  	 	stroke:black;
	fill:none;
	stroke-width: 6;
    stroke-linecap: round;
}

	 #lineleft1, #lineleft2, #lineleft3, #lineleft4{
	  	animation: animate-up 400ms linear infinite;
}
	 #rightline3, #rightline2, #rightline1{
	  	 	animation: animate-up 400ms linear infinite;
}

.linefill{
 	stroke-opacity:1;
}

.array{
 stroke-dasharray: 5 12.5;
}



@keyframes animate-up {
  to {
    stroke-dashoffset: -10;
  }
}
@-webkit-keyframes animate-up {
  to {
    stroke-dashoffset: -10;
  }
}


@keyframes animate-down {
  to {
    stroke-dashoffset: 10;
  }
}
@-webkit-keyframes animate-down {
  to {
    stroke-dashoffset: 10;
  }
}

@keyframes float {
	0% {
		transform: translatey(0px);
	}
	50% {
		transform: translatey(-20px);
	}
	100% {
		transform: translatey(0px);
	}
}


</style>
<g id="cape">
	<g id="frame1" style="display:none;">
		<g style="display:inline;">
			<path style="fill:#061123;" d="M857.3,959.7c24.2,4.2,124.4,41.8,124.4,41.8s81.2,35.5,133,4.2c51.8-31.4,53.6-77.3,53.6-96.2
				c0-18.8-24.2-58.5-24.2-58.5c-7.8-24,5.2-48.1,5.2-48.1c12.1-33.4,65.6-33.4,65.6-33.4c39.7-2.1,65.6-12.5,88.1-48.1
				c22.5-35.5,1.7-96.2-17.3-123.3s-22.5-54.4-22.5-54.4c-5.2-104.5,107.1-129.6,107.1-129.6c-48.4-54.4-203.8-37.6-293.7-20.9
				c-89.8,16.7-153.7-20.9-216.3-51.2c-62.5-30.3-99.7-20.9-99.7-20.9c-18.8,3.1-39.7,42.9-48.4,76.3
				c-8.6,33.4-46.6,156.8-65.6,196.5c-19,39.7-79.5,144.2-96.7,184c-17.3,39.7-20.7,50.2-17.3,81.5c3.5,31.4,57,56.4,74.3,66.9
				c17.3,10.5,8.6,12.5,17.3,46c8.6,33.4,70.8,35.5,82.9,35.5s46.6,16.7,76.4,19.4c29.5,2.7,46.3-21.5,39.4-36.2s-5.2-23,0-31.4
				c5.2-8.4,37.7,0.6,37.7,0.6"/>
			<path style="fill:#061123;" d="M1136.8,841.2c-23.3-31.1-101.9-136.7-119.5-166.8c-20.7-35.5-101.9-133.8-101.9-133.8l22.5-48.1
				c0,0,65.6,52.3,79.5,43.9c13.8-8.4,34.5-10.5,62.2-4.2c27.6,6.3,120.9,75.3,120.9,75.3S1049,475.3,967,451.5
				c-1.2-0.2-2.4-0.6-3.5-0.8c-81.2-20.9,3.5-16.7,3.5-16.7s105.4,18.8,145.1,0c0,0-146.8-37.6-148.6-37.6c-0.7,0-0.3-4,0.2-9.4
				c-37.1-11.1-70.5-29.1-103.3-44.9c-62.5-30.3-99.7-20.9-99.7-20.9c-4.1,0.6-8.3,3.1-12.4,6.7c0,0.8-0.2,1.9-0.7,2.7
				c-11.2,20.9-80.2,294.8-83.6,317.8c-3.5,23-55.3,181.9-55.3,181.9l17.3-20.9l3.5,31.4c1.7-60.6,41.5-127.5,41.5-127.5
				c-10.4,35.7-10.2,204.7-9.3,288.7c19,5.4,39.2,6.1,45.6,6.1c10.2,0,36.3,11.7,62,17.1l12.3-92.4l16.9-400.3l12.4-11.5l50.1,12.5
				l76,116c0,0,46.6,237.3,50.1,287.4c1.6,23.4,1.7,47.9,1.4,67.3c20.4,7.7,83.4,27.6,126.5,1.7c51.8-31.4,53.6-77.3,53.6-96.2
				c0-16.1-17.8-47.5-22.8-56.2L1136.8,841.2z"/>
			<path style="fill:#061123;" d="M1167,778.2l2.4,2.3c19.9-11.3,45.6-11.3,45.6-11.3c17.1-0.8,31.8-3.3,44.6-8.8
				c-3.1-2.3-6.2-4.6-9.2-6.9c-13.8-10.5-50.1-27.2-82.9-31.4c-29.2-3.6-75.7-23.6-107.6-52.9L1167,778.2"/>
		</g>
		
			<animate  accumulate="none" additive="replace" attributeName="display" begin="0s" calcMode="linear" dur="1s" fill="remove" id="frame1" keyTimes="0.0;0.1;0.2;0.3;0.4;0.5;0.6;0.7; 0.8;0.9;1" repeatCount="indefinite" restart="always" values="inline;none;none;none;none;none; none; none; none; none; none">
			</animate>
	</g>
	<g id="frame2" style="display:none;">
		<g style="display:inline;">
			<g>
				<path style="fill:#061123;" d="M860.5,960.3L860.5,960.3c-1.2-0.2-2.2-0.4-3.1-0.6L860.5,960.3z"/>
				<path style="fill:#061123;" d="M1304.7,429.1c15.2-19.9,48.5-40.1,49.1-39.9c-60.5-41.8-181.4,0-181.4,0
					c-117.5,35.5-190.7,2.3-190.7,2.3c-5.9-1.5-11.6-2.9-17.3-4.6c-2.4-0.6-4.7-1.5-6.9-2.1c-0.2-0.2-0.2-0.2-0.3-0.2
					c-2.1-0.6-4.3-1.3-6.4-2.1c-0.2,0-0.3-0.2-0.5-0.2c-1.9-0.8-4-1.5-6-2.3c-0.2,0-0.5-0.2-0.7-0.2c-1.9-0.8-4-1.5-5.9-2.3
					c-0.3,0-0.5-0.2-0.9-0.2c-1.9-0.8-3.8-1.5-5.7-2.3c-0.3-0.2-0.5-0.2-0.9-0.4c-1.9-0.6-3.8-1.5-5.7-2.3c-0.3-0.2-0.5-0.2-0.9-0.4
					c-1.9-0.8-3.8-1.7-5.7-2.5c-0.3-0.2-0.5-0.2-0.9-0.4c-1.9-0.8-3.8-1.7-5.7-2.5c-0.2-0.2-0.5-0.2-0.7-0.4c-1.9-1-3.8-1.9-5.7-2.7
					c-0.2,0-0.5-0.2-0.7-0.2c-2.1-0.8-4-1.9-5.9-2.7c-0.2,0-0.3-0.2-0.5-0.2c-2.1-1-4-1.9-6-2.9h-0.2c-6.6-3.1-12.8-6.3-19.2-9.4
					c-0.5-0.2-1.2-0.6-1.7-0.8c-1.4-0.8-2.8-1.5-4.1-2.1c-2.1-1-4-1.9-6-2.9C798,311.6,760.9,321,760.9,321
					c-0.7,0.2-1.2,0.2-1.7,0.4c-0.2,0-0.3,0.2-0.5,0.2c-0.3,0.2-0.7,0.2-1,0.4c-0.2,0-0.5,0.2-0.7,0.2c-0.3,0.2-0.7,0.2-1,0.4
					s-0.5,0.2-0.9,0.4c-0.3,0-0.5,0.2-0.9,0.4c-0.3,0-0.5,0.2-0.9,0.4c-0.3,0.2-0.5,0.4-0.9,0.6c-0.3,0.2-0.5,0.4-0.9,0.6
					c-0.2,0-0.5,0.2-0.7,0.4c-15.9,12.1-31.4,44.1-38.5,71.7c-8.6,33.4-46.6,156.8-65.6,196.5c0,0-10.4,27.2-17.3,37.6
					c-6.9,10.5-29.4,75.3-46.6,98.3c-17.3,23-57,104.5-63.9,117.1c-6.9,12.5,0,18.8,0,18.8c13.8,25.1,34.5,25.1,34.5,25.1
					c53.6,10.5,57,58.5,58.7,77.3c1.7,18.8,39.7,23,58.7,27.2c19,4.2,46.8,14.6,46.8,14.6c1,0.2,1.9,0.6,2.9,0.8
					c0.2,0,0.5,0.2,0.7,0.2c1,0.4,2.1,0.6,3.1,1c0.2,0,0.3,0.2,0.5,0.2c0.9,0.2,1.7,0.4,2.8,0.8c0.2,0,0.5,0.2,0.9,0.2
					c1,0.4,1.9,0.6,2.9,1c4.1,1.5,8.8,2.9,13.5,4.4c0.2,0.2,0.3,0.2,0.5,0.2c1.4,0.4,2.9,0.8,4.3,1.3c0.2,0,0.2,0,0.3,0
					c1.6,0.4,2.9,0.8,4.5,1.3c0.2,0,0.2,0,0.2,0c1.4,0.4,2.8,0.8,4.3,1.3c0.3,0,0.5,0.2,0.7,0.2c1.4,0.4,2.9,0.6,4.3,1
					c0.2,0.2,0.3,0.2,0.5,0.2c6.4,1.5,12.8,1.9,18.8,3.1c14,2.7,35.9-11.1,63.6-32c27.6-20.9,79.5-48.1,95-48.1
					c15.5,0,22.5,8.4,89.8,37.6c67.4,29.3,117.5-12.5,117.5-12.5c79.5-50.2,31.1-129.6,19-156.8c-12.1-27.2-12.1-54.4,6.9-75.3
					c19-20.9,22.5-16.7,86.4-31.4c44.6-10,59.1-33.7,66.2-45.2c6.6-10.9,10.7-32.2,10.7-32.2c5.9-42.6-24.4-96.8-38.9-121.3
					c-17.3-29.3-1.7-69-1.7-69C1299.2,437.3,1301.6,433.3,1304.7,429.1"/>
			</g>
			<path style="fill:#061123;" d="M1094.1,631.5l108.8,90.3c11.2-3.1,28-5.9,58.7-13c13.5-2.9,24.4-7.1,33.2-11.9
				c-5.4-0.4-9.7-1.3-12.4-2.7c-24.2-12.5-63.9-14.6-98.5-20.9S1094.1,631.5,1094.1,631.5z"/>
			<path style="fill:#061123;" d="M684,998.8c16.8,4.8,34.4,11.3,34.4,11.3c1,0.2,1.9,0.6,2.9,0.8c0.2,0,0.5,0.2,0.7,0.2
				c1,0.4,2.1,0.6,3.1,1c0.2,0,0.3,0.2,0.5,0.2c0.9,0.2,1.7,0.4,2.8,0.8c0.2,0,0.5,0.2,0.9,0.2c1,0.4,1.9,0.6,2.9,1
				c4.1,1.5,8.8,2.9,13.5,4.4c0.2,0.2,0.3,0.2,0.5,0.2c1.4,0.4,2.9,0.8,4.3,1.3c0.2,0,0.2,0,0.3,0c1.6,0.4,2.9,0.8,4.5,1.3
				c0.2,0,0.2,0,0.2,0c1.4,0.4,2.8,0.8,4.3,1.3c0.3,0,0.5,0.2,0.7,0.2c1.4,0.4,2.9,0.6,4.3,1c0.2,0.2,0.3,0.2,0.5,0.2
				c6.4,1.5,12.8,1.9,18.8,3.1c14,2.7,35.9-11.1,63.6-32c6.9-5.2,15.4-10.9,24.5-16.5c-7.8-11.7-18.5-28.6-24.5-42
				c-10.4-23-5.2-142.2-5.2-142.2l5.7-151.6l-4-97.2l32.8,6.3c0,0,46.6,81.5,69.1,110.8c22.5,29.3,48.4,148.4,58.7,215.3
				c6.7,42.9,2.1,75.3-2.2,93.2c8.3,4,18.1,8.4,29.9,13.4c67.4,29.3,117.5-12.5,117.5-12.5c67.9-42.9,42.5-107.2,26.1-141.9l0,0
				c-39.6-33-164.3-234.3-164.3-234.3c12.1,54.4,20.7,129.6-10.4,123.3c-31.1-6.3-67.4-112.9-67.4-112.9l1.7-89.9l10.4-46
				c36.3,31.4,107.1,56.4,107.1,56.4l-8.6-23c0,0,22.5,0,55.3,6.3c32.8,6.3,74.3,10.5,96.7,23c10.9,6.3,13.3,11.3,22.1,12.5
				c-13.8-15.3-46.5-46-87.8-52.3c-55.3-8.4-121.6-29.3-149.8-64.8c0,0,94.5,2.1,142.9-18.8c0,0-18.7-0.8-36.6-5.2
				c-66.9,4.4-105.9-13.4-105.9-13.4c-5.9-1.5-11.6-2.9-17.3-4.6c-2.4-0.6-4.7-1.5-6.9-2.1c-0.2-0.2-0.2-0.2-0.3-0.2
				c-2.1-0.6-4.3-1.3-6.4-2.1c-0.2,0-0.3-0.2-0.5-0.2c-1.9-0.8-4-1.5-6-2.3c-0.2,0-0.5-0.2-0.7-0.2c-1.9-0.8-4-1.5-5.9-2.3
				c-0.3,0-0.5-0.2-0.9-0.2c-1.9-0.8-3.8-1.5-5.7-2.3c-0.3-0.2-0.5-0.2-0.9-0.4c-1.9-0.6-3.8-1.5-5.7-2.3c-0.3-0.2-0.5-0.2-0.9-0.4
				c-1.9-0.8-3.8-1.7-5.7-2.5c-0.3-0.2-0.5-0.2-0.9-0.4c-1.9-0.8-3.8-1.7-5.7-2.5c-0.2-0.2-0.5-0.2-0.7-0.4c-1.9-1-3.8-1.9-5.7-2.7
				c-0.2,0-0.5-0.2-0.7-0.2c-2.1-0.8-4-1.9-5.9-2.7c-0.2,0-0.3-0.2-0.5-0.2c-2.1-1-4-1.9-6-2.9h-0.2c-6.6-3.1-12.8-6.3-19.2-9.4
				c-0.5-0.2-1.2-0.6-1.7-0.8c-1.4-0.8-2.8-1.5-4.1-2.1c-2.1-1-4-1.9-6-2.9C798,311.6,760.9,321,760.9,321c-0.7,0.2-1.2,0.2-1.7,0.4
				c-0.2,0-0.3,0.2-0.5,0.2c-0.3,0.2-0.7,0.2-1,0.4c-0.2,0-0.5,0.2-0.7,0.2c-0.3,0.2-0.7,0.2-1,0.4s-0.5,0.2-0.9,0.4
				c-0.3,0-0.5,0.2-0.9,0.4c-0.3,0-0.5,0.2-0.9,0.4c-0.3,0.2-0.5,0.4-0.9,0.6c-0.3,0.2-0.5,0.4-0.9,0.6c-0.2,0-0.5,0.2-0.7,0.4
				c-15.9,12.1-31.4,44.1-38.5,71.7c-3.6,13.6-11.9,42-21.9,73.8l0,0c19.7,23.6-12.6,177.1-28.2,248.1
				C651,771.1,647.9,851.6,647,891.5c3.1-69.8,23.8-145.1,23.8-145.1c-13.8,75.3,3.5,161,0,200.7C669.3,965.5,675.9,983.9,684,998.8
				z"/>
		</g>
		
			<animate  accumulate="none" additive="replace" attributeName="display" begin="0s" calcMode="linear" dur="1s" fill="remove" id="frame2" keyTimes="0.0;0.1;0.2;0.3;0.4;0.5;0.6;0.7; 0.8;0.9;1" repeatCount="indefinite" restart="always" values="none;inline;none;none;none;none; none; none; none; none; none">
			</animate>
	</g>
	<g id="frame3" style="display:none;">
		<path style="display:inline;fill:#061123;" d="M896,927.7c-10.4,8.4-43.2,66.9-53.6,81.5c-10.4,14.6-84.6,8.4-104.5,12.8
			s-44.1-14.8-57.9-27.4c-13.8-12.5-27.6-12.5-63.9-20.9c-36.3-8.4-32.8-66.9-41.5-83.6c-8.6-16.7-24.2-8.4-41.5-6.3
			c-17.3,2.1-17.3-10.5-17.3-10.5c3.5-27.2,24.2-60.6,34.5-79.4c10.4-18.8,44.9-81.5,53.6-96.2c8.6-14.6,20.7-37.6,25.9-56.4
			s29.4-62.7,36.3-81.5S698,447.9,698,447.9c0.2-0.2,0.2-0.6,0.3-0.8c0.5-1.5,1-3.1,1.6-4.8v-0.2c0.5-1.5,0.9-3.1,1.4-4.6
			c0-0.2,0.2-0.4,0.2-0.6c0.5-1.7,0.9-3.1,1.4-4.6c0-0.2,0.2-0.6,0.2-0.8c0.9-2.9,1.7-5.9,2.6-8.6c0-0.2,0.2-0.6,0.2-0.8
			c0.3-1.3,0.7-2.5,1-3.8c0-0.2,0.2-0.4,0.2-0.6c0.3-1,0.7-2.3,1-3.3c0,0,0.2-0.2,0.2-0.4c0.3-1,0.7-2.3,1-3.3
			c0-0.4,0.2-0.6,0.2-0.8c0.3-1,0.5-2.1,0.9-3.1v-0.2c0.2-0.8,0.5-1.9,0.7-2.7c0-0.2,0.2-0.4,0.2-0.6c0.2-1,0.5-1.9,0.7-2.7
			c0,0,0.2-0.2,0.2-0.4c0.3-0.8,0.5-1.7,0.7-2.5c7.1-27.8,22.6-59.8,38.5-71.7c0.2,0,0.5-0.2,0.7-0.4c0.3-0.2,0.5-0.4,0.9-0.6
			s0.5-0.4,0.9-0.6c0.3,0,0.5-0.2,0.9-0.4c0.3,0,0.5-0.2,0.9-0.4s0.5-0.2,0.9-0.4s0.7-0.2,1-0.4c0.2,0,0.5-0.2,0.7-0.2
			c0.3-0.2,0.7-0.2,1-0.4c0.2,0,0.3-0.2,0.5-0.2c0.7-0.2,1.2-0.4,1.7-0.4c0,0,37.1-9.4,99.7,20.9c2.1,1,4,1.9,6,2.9
			c1.4,0.8,2.8,1.5,4.1,2.1c0.5,0.2,1.2,0.6,1.7,0.8c6.4,3.1,12.8,6.3,19.2,9.4h0.2c2.1,1,4,1.9,6,2.9c0.2,0,0.3,0.2,0.5,0.2
			c2.1,0.8,4,1.9,5.9,2.7c0.2,0,0.5,0.2,0.7,0.2c1.9,1,3.8,1.9,5.7,2.7c0.2,0.2,0.5,0.2,0.7,0.4c1.9,0.8,3.8,1.7,5.7,2.5
			c0.3,0.2,0.5,0.2,0.9,0.4c1.9,0.8,3.8,1.7,5.7,2.5c0.3,0.2,0.5,0.2,0.9,0.4c1.9,0.6,3.8,1.5,5.7,2.3c0.3,0.2,0.5,0.2,0.9,0.4
			c1.9,0.8,3.8,1.5,5.7,2.3c0.3,0,0.5,0.2,0.9,0.2c1.9,0.8,4,1.5,5.9,2.3c0.2,0,0.5,0.2,0.7,0.2c1.9,0.8,4,1.7,6,2.3
			c0.2,0,0.3,0.2,0.5,0.2c2.1,0.6,4.3,1.5,6.4,2.1c0.2,0.2,0.2,0.2,0.3,0.2c2.4,0.6,4.7,1.5,6.9,2.1c3.8,1,9,5.2,12.8,6.3l0,0
			c0,0,112.3,31.4,181.4,8.4s146.8-29.3,174.5-10.5c0,0-39.7,56.4,8.6,125.4c0,0,34.5,58.5,0,112.9c0,0-15.5,29.3-76,43.9
			c0,0-63.9,10.5-79.5,41.8c0,0-17.3,27.2,5.2,77.3l20.7,41.8c0,0,15.5,35.5-3.5,69c0,0-27.6,77.3-136.5,56.4
			c0,0-48.4-8.4-82.9-29.3c-34.5-20.9-67.4-18.8-82.9-10.5C906.7,920,906.3,919.3,896,927.7z"/>
		<path style="display:inline;fill:#061123;" d="M609.9,853.7c0,0,41.5-123.3,51.8-140.1s15.5-6.3,10.4,46
			c-3.8,38.9,8.6,174.8,15.2,241.9c14,11.9,34.2,25.5,51.3,21.7c19.9-4.4,94.1,1.9,104.5-12.8c10.4-14.6,43.2-73.2,53.6-81.5
			c10.4-8.4,10.4-8.4,10.4-8.4c1.2-0.6,2.4-1,3.6-1.7l-48.5-196.1V596.6c0,0,38-14.6,81.2,33.4c43.2,48.1,84.6,200.7,86.4,244.6
			c0.9,21.5,0.9,50.6,0.7,74.6c23,7.7,42.5,11.1,42.5,11.1c108.8,20.9,136.5-56.4,136.5-56.4c4.1-7.1,6.6-14.2,7.9-21.1
			c-13.3-17.6-32.6-44.1-44.2-64.6c-19-33.4,8.6-23,8.6-23c-17.3-10.5-153.7-219.5-153.7-219.5l12.1,66.9L882.8,408.4
			c0,0,62.2,46,105.4,73.2c43.2,27.2,79.5,35.5,79.5,35.5c-22.5-12.5-29.4-33.4-29.4-33.4l55.3,2.1c82.9-6.3,167.6,50.2,167.6,50.2
			s-13.8-33.4-120.9-58.5c-107.1-25.1-112.3-41.8-122.7-54.4c-2.9-3.3,2.8-10.2,12.3-18.4c-30.2-4.8-52-10.9-52-10.9
			c-3.8-0.8-9-5.2-12.8-6.3c-2.4-0.6-4.7-1.5-6.9-2.1c-0.2-0.2-0.2-0.2-0.3-0.2c-2.1-0.6-4.3-1.3-6.4-2.1c-0.2,0-0.3-0.2-0.5-0.2
			c-1.9-0.8-4-1.5-6-2.3c-0.2,0-0.5-0.2-0.7-0.2c-1.9-0.8-4-1.5-5.9-2.3c-0.3,0-0.5-0.2-0.9-0.2c-1.9-0.8-3.8-1.5-5.7-2.3
			c-0.3-0.2-0.5-0.2-0.9-0.4c-1.9-0.6-3.8-1.5-5.7-2.3c-0.3-0.2-0.5-0.2-0.9-0.4c-1.9-0.8-3.8-1.7-5.7-2.5c-0.3-0.2-0.5-0.2-0.9-0.4
			c-1.9-0.8-3.8-1.7-5.7-2.5c-0.2-0.2-0.5-0.2-0.7-0.4c-1.9-1-3.8-1.9-5.7-2.7c-0.2,0-0.5-0.2-0.7-0.2c-2.1-0.8-4-1.9-5.9-2.7
			c-0.2,0-0.3-0.2-0.5-0.2c-2.1-1-4-1.9-6-2.9h-0.2c-6.6-3.1-12.8-6.3-19.2-9.4c-0.5-0.2-1.2-0.6-1.7-0.8c-1.4-0.8-2.8-1.5-4.1-2.1
			c-2.1-1-4-1.9-6-2.9c-62.5-30.3-99.7-20.9-99.7-20.9c-0.7,0.2-1.2,0.2-1.7,0.4c-0.2,0-0.3,0.2-0.5,0.2c-0.3,0.2-0.7,0.2-1,0.4
			c-0.2,0-0.5,0.2-0.7,0.2c-0.3,0.2-0.7,0.2-1,0.4s-0.5,0.2-0.9,0.4c-0.3,0-0.5,0.2-0.9,0.4c-0.3,0-0.5,0.2-0.9,0.4
			c-0.3,0.2-0.5,0.4-0.9,0.6c-0.3,0.2-0.5,0.4-0.9,0.6c-0.2,0-0.5,0.2-0.7,0.4c-15.9,12.1-31.4,44.1-38.5,71.7
			c-0.2,0.8-0.5,1.7-0.7,2.5c0,0-0.2,0.2-0.2,0.4c-0.2,0.8-0.5,1.9-0.7,2.7c0,0.2-0.2,0.4-0.2,0.6c-0.2,0.8-0.3,1.7-0.7,2.7v0.2
			c-0.2,1-0.5,2.1-0.9,3.1c0,0.4-0.2,0.6-0.2,0.8c-0.3,1-0.7,2.1-1,3.3c0,0-0.2,0.2-0.2,0.4c-0.3,1-0.7,2.1-1,3.3
			c0,0.2-0.2,0.4-0.2,0.6c-0.3,1.3-0.7,2.5-1,3.8c0,0.2-0.2,0.6-0.2,0.8c-0.9,2.7-1.7,5.6-2.6,8.6c0,0.2-0.2,0.6-0.2,0.8
			c-0.5,1.7-0.9,3.1-1.4,4.6c0,0.2-0.2,0.4-0.2,0.6c-0.5,1.5-0.9,2.9-1.4,4.6v0.2c-0.5,1.5-1,3.1-1.6,4.8c-0.2,0.2-0.2,0.6-0.3,0.8
			c0,0-24.9,93-31.8,111.8c-6.9,18.8-31.1,62.7-36.3,81.5c-1.2,4.2-2.8,8.6-4.5,13.2l-7.6,39.1v46c0,0,5.2-23,22.5-35.5
			S609.9,853.7,609.9,853.7z M968.9,550c0,0,76,119.2,91.6,144.2c15.5,25.1,44.9,135.9,44.9,135.9l-32.8-20.9
			c-17.3-10.5-43.2-46-43.2-46c-17.3-18.8-67.4-150.5-75-178.7C946.7,556.4,968.9,550,968.9,550z"/>
		<path style="display:inline;fill:#061123;" d="M1239.2,679.4c16.8-5.9,31.1-8.2,31.1-8.2c24.4-5.9,41.3-14.2,53-22
			c-62.2-3.1-170.5-36.6-170.5-36.6C1221.9,654.5,1239.2,679.4,1239.2,679.4z"/>
		
			<animate  accumulate="none" additive="replace" attributeName="display" begin="0s" calcMode="linear" dur="1s" fill="remove" id="frame3" keyTimes="0.0;0.1;0.2;0.3;0.4;0.5;0.6;0.7; 0.8;0.9;1" repeatCount="indefinite" restart="always" values="none;none;inline;none;none;none; none; none; none; none; none">
			</animate>
	</g>
	<g id="frame4" style="display:none;">
		<g style="display:inline;">
			<path style="fill:#061123;" d="M723.9,1025.8c-15.5-2.1-44.9-31.4-44.9-31.4c-13.8-12.5-27.6-12.5-63.9-20.9
				c-36.3-8.4-32.8-66.9-41.5-83.6c-8.6-16.7-24.2-8.4-41.5-6.3s-17.3-10.5-17.3-10.5c3.5-27.2,24.2-60.6,34.5-79.4
				s44.9-81.5,53.6-96.2c6.6-11.3,15.4-27.8,21.4-43.3l0,0c0.3-1,0.9-2.3,1.2-3.3c0.2,0,0.2-0.2,0.2-0.2c0.3-0.8,0.7-1.9,1-2.9
				c0.2-0.4,0.2-0.6,0.3-1c0.2-0.8,0.5-1.5,0.7-2.3c0.3-1,0.7-2.3,1-3.3c5.2-18.8,29.4-62.7,36.3-81.5S697,447.7,697,447.7
				c0.2-0.2,0.2-0.6,0.3-0.8c0.5-1.5,1-3.1,1.6-4.8v-0.2c0.5-1.5,0.9-3.1,1.4-4.6c0-0.2,0.2-0.4,0.2-0.6c0.5-1.7,0.9-3.1,1.4-4.6
				c0-0.2,0.2-0.6,0.2-0.8c0.9-2.9,1.7-5.9,2.6-8.6c0-0.2,0.2-0.6,0.2-0.8c0.3-1.3,0.7-2.5,1-3.8c0-0.2,0.2-0.4,0.2-0.6
				c0.3-1,0.7-2.3,1-3.3c0,0,0.2-0.2,0.2-0.4c0.3-1,0.7-2.3,1-3.3c0-0.4,0.2-0.6,0.2-0.8c0.3-1,0.5-2.1,0.9-3.1v-0.2
				c0.2-0.8,0.5-1.9,0.7-2.7c0-0.2,0.2-0.4,0.2-0.6c0.2-1,0.5-1.9,0.7-2.7c0,0,0.2-0.2,0.2-0.4c0.3-0.8,0.5-1.7,0.7-2.5
				c7.1-27.8,22.6-59.8,38.5-71.7c0.2,0,0.5-0.2,0.7-0.4c0.3-0.2,0.5-0.4,0.9-0.6c0.3-0.2,0.5-0.4,0.9-0.6c0.3,0,0.5-0.2,0.9-0.4
				c0.3,0,0.5-0.2,0.9-0.4s0.5-0.2,0.9-0.4s0.7-0.2,1-0.4c0.2,0,0.5-0.2,0.7-0.2c0.3-0.2,0.7-0.2,1-0.4c0.2,0,0.3-0.2,0.5-0.2
				c0.7-0.2,1.2-0.4,1.7-0.4c0,0,37.1-9.4,99.7,20.9c2.1,1,4,1.9,6,2.9c1.4,0.8,2.8,1.5,4.1,2.1c0.5,0.2,1.2,0.6,1.7,0.8
				c6.4,3.1,12.8,6.3,19.2,9.4h0.2c2.1,1,4,1.9,6,2.9c0.2,0,0.3,0.2,0.5,0.2c2.1,0.8,4,1.9,5.9,2.7c0.2,0,0.5,0.2,0.7,0.2
				c1.9,1,3.8,1.9,5.7,2.7c0.2,0.2,0.5,0.2,0.7,0.4c1.9,0.8,3.8,1.7,5.7,2.5c0.3,0.2,0.5,0.2,0.9,0.4c1.9,0.8,3.8,1.7,5.7,2.5
				c0.3,0.2,0.5,0.2,0.9,0.4c1.9,0.6,3.8,1.5,5.7,2.3c0.3,0.2,0.5,0.2,0.9,0.4c1.9,0.8,3.8,1.5,5.7,2.3c0.3,0,0.5,0.2,0.9,0.2
				c1.9,0.8,4,1.5,5.9,2.3c0.2,0,0.5,0.2,0.7,0.2c1.9,0.8,4,1.7,6,2.3c0.2,0,0.3,0.2,0.5,0.2c2.1,0.6,4.3,1.5,6.4,2.1
				c0.2,0.2,0.2,0.2,0.3,0.2c2.4,0.6,4.7,1.5,6.9,2.1c2.8,0.8,6.2,3.3,9.3,5c0,0,107.1,39.1,195.2,24.5
				c88.1-14.6,140.8-29.3,162.9-12.5c0,0,6.6,0,6.6,16.7c0,0,0,18.8,3.5,27.2c0,0,6.9,18.8,12.1,27.2s38,77.3-6.9,123.3
				c0,0-8.6,16.7-70.8,33.4c0,0-46.6,8.4-62.2,41.8c0,0-22.5,33.4,1.7,96.2c0,0,43.2,84-2.6,126.7c0,0-44.1,59.4-146,25.9
				c0,0-43.2-14.6-72.6-25.1c0,0-34.5-16.7-51.8,27.2s-43.2,64.8-65.6,66.9s-20.7,4.2-43.2,2.1s-43.7,2.9-55.3,12.5
				C745.1,1032.9,739.4,1027.8,723.9,1025.8z"/>
			<path style="fill:#061123;" d="M1208.1,585.5c29,12.8,53,36.6,62.7,47c2.9-0.6,4.7-1,4.7-1c38-10.2,56-20.5,64.3-27
				c-1.7-0.4-3.6-1.3-5.5-2.3C1299.7,583.4,1208.1,585.5,1208.1,585.5z"/>
			<path style="fill:#061123;" d="M679.7,995.4c2.8,2.5,29.9,29.1,44.7,31.1c15.5,2.1,20.7,6.3,53.6-20.9
				c11.6-9.6,32.8-14.6,55.3-12.5s20.7,0,43.2-2.1c1-0.2,1.9-0.2,2.9-0.4c9.3-16.5,48.9-87.4,54.9-126.1
				c6.9-43.9-22.1-168.3-31.1-234.3c-9-66.1,0.5-97.2,24.7-70s96.7,213.2,107.1,244.6c9.5,28.8,11.7,99.9,12.1,111.4
				c11.6,4,19.9,6.7,19.9,6.7c101.9,33.4,146-25.9,146-25.9c2.1-1.9,3.8-3.8,5.5-5.9c-6-27.8-49.8-120.8-48-127.1
				c1.7-6.3,17.3,6.3,17.3,6.3l-146.8-200.7l27.6,56.4c0,0-19-27.2-29.4-46S921.7,456.9,921.9,441.5c0.2-15.5,37.8,17.4,72.4,36.2
				c34.5,18.8,74.8,28.8,74.8,28.8c-20.4-6.7-31.6-41.4-31.6-41.4c41.5,12.5,69.1,4.2,107.1,0s103.6,20.9,103.6,20.9
				c-43.2-35.5-76-27.2-160.7-37.6c-35.9-4.4-46.3-20.5-46.5-37.4c-39.4-8.2-67.5-18.4-67.5-18.4c-3.1-1.7-6.6-4.2-9.3-5
				c-2.4-0.6-4.7-1.5-6.9-2.1c-0.2-0.2-0.2-0.2-0.3-0.2c-2.1-0.6-4.3-1.3-6.4-2.1c-0.2,0-0.3-0.2-0.5-0.2c-1.9-0.8-4-1.5-6-2.3
				c-0.2,0-0.5-0.2-0.7-0.2c-1.9-0.8-4-1.5-5.9-2.3c-0.3,0-0.5-0.2-0.9-0.2c-1.9-0.8-3.8-1.5-5.7-2.3c-0.3-0.2-0.5-0.2-0.9-0.4
				c-1.9-0.6-3.8-1.5-5.7-2.3c-0.3-0.2-0.5-0.2-0.9-0.4c-1.9-0.8-3.8-1.7-5.7-2.5c-0.3-0.2-0.5-0.2-0.9-0.4
				c-1.9-0.8-3.8-1.7-5.7-2.5c-0.2-0.2-0.5-0.2-0.7-0.4c-1.9-1-3.8-1.9-5.7-2.7c-0.2,0-0.5-0.2-0.7-0.2c-2.1-0.8-4-1.9-5.9-2.7
				c-0.2,0-0.3-0.2-0.5-0.2c-2.1-1-4-1.9-6-2.9h-0.2c-6.6-3.1-12.8-6.3-19.2-9.4c-0.5-0.2-1.2-0.6-1.7-0.8c-1.4-0.8-2.8-1.5-4.1-2.1
				c-2.1-1-4-1.9-6-2.9c-62.5-30.3-99.7-20.9-99.7-20.9c-0.7,0.2-1.2,0.2-1.7,0.4c-0.2,0-0.3,0.2-0.5,0.2c-0.3,0.2-0.7,0.2-1,0.4
				c-0.2,0-0.5,0.2-0.7,0.2c-0.3,0.2-0.7,0.2-1,0.4s-0.5,0.2-0.9,0.4c-0.3,0-0.5,0.2-0.9,0.4c-0.3,0-0.5,0.2-0.9,0.4
				c-0.3,0.2-0.5,0.4-0.9,0.6c-0.3,0.2-0.5,0.4-0.9,0.6c-0.2,0-0.5,0.2-0.7,0.4c-15.9,12.1-31.4,44.1-38.5,71.7
				c-0.2,0.8-0.5,1.7-0.7,2.5c0,0-0.2,0.2-0.2,0.4c-0.2,0.8-0.5,1.9-0.7,2.7c0,0.2-0.2,0.4-0.2,0.6c-0.2,0.8-0.3,1.7-0.7,2.7v0.2
				c-0.2,1-0.5,2.1-0.9,3.1c0,0.4-0.2,0.6-0.2,0.8c-0.3,1-0.7,2.1-1,3.3c0,0-0.2,0.2-0.2,0.4c-0.3,1-0.7,2.1-1,3.3
				c0,0.2-0.2,0.4-0.2,0.6c-0.3,1.3-0.7,2.5-1,3.8c0,0.2-0.2,0.6-0.2,0.8c-0.9,2.7-1.7,5.6-2.6,8.6c0,0.2-0.2,0.6-0.2,0.8
				c-0.5,1.7-0.9,3.1-1.4,4.6c0,0.2-0.2,0.4-0.2,0.6c-0.5,1.5-0.9,2.9-1.4,4.6v0.2c-0.5,1.5-1,3.1-1.6,4.8c-0.2,0.2-0.2,0.6-0.3,0.8
				c0,0-24.9,93-31.8,111.8c-1.2,3.3-2.9,7.5-5.2,12.3c10.2,24-10.9,49.3-41.5,121.5c-32.8,77.3-36.3,194.4-36.3,194.4
				c3.5-73.2,48.4-211.1,81.2-269.7c32.8-58.5,19,35.5,19,35.5c-24.2,96.2-12.4,175.6-12.4,175.6l3.8-12.5c0,0,19,33.4,2.8,73.4
				C667.1,915.2,673.3,962.2,679.7,995.4z M947.3,537.4c6.9-4.6,19.2,6.3,34,21.7c0,0,17.8,20.1,28.2,26.3s32.8,27.6,42.3,36.8
				c35.1,33.7,76.9,140.9,76.9,140.9s36.3,64.8,13.8,77.3c-22.5,12.5-114-115-114-115l-31.1-48.1
				C997.4,677.5,931.7,547.9,947.3,537.4z"/>
		</g>
		
			<animate  accumulate="none" additive="replace" attributeName="display" begin="0s" calcMode="linear" dur="1s" fill="remove" id="frame4" keyTimes="0.0;0.1;0.2;0.3;0.4;0.5;0.6;0.7; 0.8;0.9;1" repeatCount="indefinite" restart="always" values="none;none;none;inline;none;none;none; none; none; none; none">
			</animate>
	</g>
	<g id="frame5" style="display:none;">
		<g style="display:inline;">
			<g>
				<path style="fill:#061123;" d="M1228.8,851"/>
				<path style="fill:#061123;" d="M697.6,447.9c0.2-0.2,0.2-0.6,0.3-0.8c0.5-1.5,1-3.1,1.6-4.8v-0.2c0.5-1.5,0.9-3.1,1.4-4.6
					c0-0.2,0.2-0.4,0.2-0.6c0.5-1.7,0.9-3.1,1.4-4.6c0-0.2,0.2-0.6,0.2-0.8c0.9-2.9,1.7-5.9,2.6-8.6c0-0.2,0.2-0.6,0.2-0.8
					c0.3-1.3,0.7-2.5,1-3.8c0-0.2,0.2-0.4,0.2-0.6c0.3-1,0.7-2.3,1-3.3c0,0,0.2-0.2,0.2-0.4c0.3-1,0.7-2.3,1-3.3
					c0-0.4,0.2-0.6,0.2-0.8c0.3-1,0.5-2.1,0.9-3.1v-0.2c0.2-0.8,0.5-1.9,0.7-2.7c0-0.2,0.2-0.4,0.2-0.6c0.2-1,0.5-1.9,0.7-2.7
					c0,0,0.2-0.2,0.2-0.4c0.3-0.8,0.9-3.3,0.7-2.5C686.4,499.8,623,667,583.3,713s-57,117.1-48.4,127.5c8.6,10.5,3.5,16.7,15.5,60.6
					s82.9,62.7,101.9,66.9c19,4.2,8.6,29.3,41.5,46c32.8,16.7,67.4-6.3,95-25.1s50.1-14.6,50.1-14.6c12.1,0,43.2,23,115.7,37.6
					c72.6,14.6,69.1-56.4,65.6-89.9c-3.5-33.4,8.6-43.9,32.8-54.4c24.2-10.5,82.9-2.1,82.9-2.1c55.3,2.1,86.4-2.1,119.2-43.9
					c32.8-41.8-1.7-100.3-1.7-100.3c-12.1-23-22.5-43.9-17.3-92c5.2-48.1,65.6-75.3,65.6-75.3c58.7-25.1,65.6-50.2,63.9-89.9
					c-1.7-39.7-34.5-71.1-44.9-73.2c-10.4-2.1-36.3,0-36.3,0c-171,35.5-314.2-1.3-314.2-1.3c-2.2-1.3-4.3-2.3-6-2.9
					c-2.4-0.6-4.7-1.5-6.9-2.1c-0.2-0.2-0.2-0.2-0.3-0.2c-2.1-0.6-4.3-1.3-6.4-2.1c-0.2,0-0.3-0.2-0.5-0.2c-1.9-0.8-4-1.5-6-2.3
					c-0.2,0-0.5-0.2-0.7-0.2c-1.9-0.8-4-1.5-5.9-2.3c-0.3,0-0.5-0.2-0.9-0.2c-1.9-0.8-3.8-1.5-5.7-2.3c-0.3-0.2-0.5-0.2-0.9-0.4
					c-1.9-0.6-3.8-1.5-5.7-2.3c-0.3-0.2-0.5-0.2-0.9-0.4c-1.9-0.8-3.8-1.7-5.7-2.5c-0.3-0.2-0.5-0.2-0.9-0.4
					c-1.9-0.8-3.8-1.7-5.7-2.5c-0.2-0.2-0.5-0.2-0.7-0.4c-1.9-1-3.8-1.9-5.7-2.7c-0.2,0-0.5-0.2-0.7-0.2c-2.1-0.8-4-1.9-5.9-2.7
					c-0.2,0-0.3-0.2-0.5-0.2c-2.1-1-4-1.9-6-2.9h-0.2c-6.6-3.1-12.8-6.3-19.2-9.4c-0.5-0.2-1.2-0.6-1.7-0.8
					c-1.4-0.8-2.8-1.5-4.1-2.1c-2.1-1-4-1.9-6-2.9C798,311.6,760.9,321,760.9,321c-0.7,0.2-1.2,0.2-1.7,0.4c-0.2,0-0.3,0.2-0.5,0.2
					c-0.3,0.2-0.7,0.2-1,0.4c-0.2,0-0.5,0.2-0.7,0.2c-0.3,0.2-0.7,0.2-1,0.4s-0.5,0.2-0.9,0.4c-0.3,0-0.5,0.2-0.9,0.4
					c-0.3,0-0.5,0.2-0.9,0.4c-0.3,0.2-0.5,0.4-0.9,0.6c-0.3,0.2-0.5,0.4-0.9,0.6c-0.2,0-0.5,0.2-0.7,0.4
					c-15.9,12.1-31.4,44.1-38.5,71.7"/>
			</g>
			<path style="fill:#061123;" d="M660.7,972.4c8.3,9,6.7,27.8,33.2,41.4c32.8,16.7,67.4-6.3,95-25.1c27.6-18.8,50.1-14.6,50.1-14.6
				c12.1,0,43.2,23,115.7,37.6c72.6,14.6,69.1-56.4,65.6-89.9c-1.2-12.3-0.3-21.5,2.4-28.8c-10.7-55.4-95.9-273.2-99.2-291
				c-3.5-18.8,12.1-12.5,12.1-12.5c39.7,10.5,131.3,190.2,139.9,217.4c5.4,16.9,10.7,40.1,14,55.4c23.3-0.2,46.5,3.1,46.5,3.1
				c40.4,1.5,68.1-0.4,92.8-18c-77.7-29.9-202.5-164.9-232.7-199.4c-32.8-37.6-34.5-108.7-22.5-106.6s43.2,43.9,43.2,43.9l-5.2-18.8
				c10.4,10.5,27.6,14.6,58.7,31.4c31.1,16.7,105.4,117.1,122.7,158.9c17.3,41.8,27.6,31.4,27.6,31.4c22.5-8.4-5.2-37.6-17.3-56.4
				c-12.1-18.8-55.3-62.7-53.6-77.3c1.7-14.6,13.8,0,13.8,0c-10.4-37.6-146.8-138-146.8-138s6.9,10.5-3.5,8.4s-51.8-46-67.4-62.7
				c-15.5-16.7-5.2-20.9,22.5-16.7c27.6,4.2,91.6,41.8,101.9,31.4c10.4-10.5-48.4-33.4-63.9-48.1c-15.5-14.6,15.5-8.4,15.5-8.4
				c67.4,18.8,98.5,0,98.5,0c-29.4-2.1-44.9-6.3-49.9-15.9l0,0c-61.3-4.4-100.2-14.4-100.2-14.4c-2.2-1.3-4.3-2.3-6-2.9
				c-2.4-0.6-4.7-1.5-6.9-2.1c-0.2-0.2-0.2-0.2-0.3-0.2c-2.1-0.6-4.3-1.3-6.4-2.1c-0.2,0-0.3-0.2-0.5-0.2c-1.9-0.8-4-1.5-6-2.3
				c-0.2,0-0.5-0.2-0.7-0.2c-1.9-0.8-4-1.5-5.9-2.3c-0.3,0-0.5-0.2-0.9-0.2c-1.9-0.8-3.8-1.5-5.7-2.3c-0.3-0.2-0.5-0.2-0.9-0.4
				c-1.9-0.6-3.8-1.5-5.7-2.3c-0.3-0.2-0.5-0.2-0.9-0.4c-1.9-0.8-3.8-1.7-5.7-2.5c-0.3-0.2-0.5-0.2-0.9-0.4
				c-1.9-0.8-3.8-1.7-5.7-2.5c-0.2-0.2-0.5-0.2-0.7-0.4c-1.9-1-3.8-1.9-5.7-2.7c-0.2,0-0.5-0.2-0.7-0.2c-2.1-0.8-4-1.9-5.9-2.7
				c-0.2,0-0.3-0.2-0.5-0.2c-2.1-1-4-1.9-6-2.9h-0.2c-6.6-3.1-12.8-6.3-19.2-9.4c-0.5-0.2-1.2-0.6-1.7-0.8c-1.4-0.8-2.8-1.5-4.1-2.1
				c-2.1-1-4-1.9-6-2.9C798,311.6,760.9,321,760.9,321c-0.7,0.2-1.2,0.2-1.7,0.4c-0.2,0-0.3,0.2-0.5,0.2c-0.3,0.2-0.7,0.2-1,0.4
				c-0.2,0-0.5,0.2-0.7,0.2c-0.3,0.2-0.7,0.2-1,0.4s-0.5,0.2-0.9,0.4c-0.3,0-0.5,0.2-0.9,0.4c-0.3,0-0.5,0.2-0.9,0.4
				c-0.3,0.2-0.5,0.4-0.9,0.6c-0.3,0.2-0.5,0.4-0.9,0.6c-0.2,0-0.5,0.2-0.7,0.4c-15.9,12.1-31.4,44.1-38.5,71.7
				c-14,55.2-38.9,129-65.1,192.5l0,0c10,13.4-12.3,69.4-22.1,92.4c23.1-51.4,48.2-88.2,59.6-84.2c12.1,4.2,10.4,16.7,10.4,16.7
				c3.5,18.8-19,175.6-24.2,202.8S650.1,874,650.1,874c22.5-10.5,32.8-85.7,32.8-85.7c13.8,43.9,6.9,121.3-1.7,135.9
				c-8.6,14.6-15.5-35.5-15.5-35.5C667.9,913.7,663.4,950.5,660.7,972.4z"/>
			<path style="fill:#061123;" d="M1272,537.2c-3.5,6.3,6.9,6.3,6.9,6.3c15.5,0,16.8,13.4,16.8,13.4c41.1-16.3,56.3-36.6,56.3-36.6
				C1323.3,505.4,1275.5,530.9,1272,537.2z"/>
		</g>
		
			<animate  accumulate="none" additive="replace" attributeName="display" begin="0s" calcMode="linear" dur="1s" fill="remove" id="frame5" keyTimes="0.0;0.1;0.2;0.3;0.4;0.5;0.6;0.7; 0.8;0.9;1" repeatCount="indefinite" restart="always" values="none;none;none;none;inline;none; none; none; none; none; none">
			</animate>
	</g>
	<g id="frame6" style="display:none;">
		<g style="display:inline;">
			<g>
				<path style="fill:#061123;" d="M712.3,398.4L712.3,398.4C712.3,398.2,712.3,398.2,712.3,398.4z"/>
				<path style="fill:#061123;" d="M641,599.1c20.7-52.3,58-161.2,58-161.2c6.9-21.5,12.8-39.5,12.8-39.5
					c7.1-27.8,22.6-59.8,38.5-71.7c0.2,0,0.5-0.2,0.7-0.4c0.3-0.2,0.5-0.4,0.9-0.6c0.3-0.2,0.5-0.4,0.9-0.6c0.3,0,0.5-0.2,0.9-0.4
					c0.3,0,0.5-0.2,0.9-0.4s0.5-0.2,0.9-0.4s0.7-0.2,1-0.4c0.2,0,0.5-0.2,0.7-0.2c0.3-0.2,0.7-0.2,1-0.4c0.2,0,0.3-0.2,0.5-0.2
					c0.7-0.2,1.2-0.4,1.7-0.4c0,0,37.1-9.4,99.7,20.9c2.1,1,4,1.9,6,2.9c1.4,0.8,2.8,1.5,4.1,2.1c0.5,0.2,1.2,0.6,1.7,0.8
					c6.4,3.1,12.8,6.3,19.2,9.4h0.2c2.1,1,4,1.9,6,2.9c0.2,0,0.3,0.2,0.5,0.2c2.1,0.8,4,1.9,5.9,2.7c0.2,0,0.5,0.2,0.7,0.2
					c1.9,1,3.8,1.9,5.7,2.7c0.2,0.2,0.5,0.2,0.7,0.4c1.9,0.8,3.8,1.7,5.7,2.5c0.3,0.2,0.5,0.2,0.9,0.4c1.9,0.8,3.8,1.7,5.7,2.5
					c0.3,0.2,0.5,0.2,0.9,0.4c1.9,0.6,3.8,1.5,5.7,2.3c0.3,0.2,0.5,0.2,0.9,0.4c1.9,0.8,3.8,1.5,5.7,2.3c0.3,0,0.5,0.2,0.9,0.2
					c1.9,0.8,4,1.5,5.9,2.3c0.2,0,0.5,0.2,0.7,0.2c1.9,0.8,4,1.7,6,2.3c0.2,0,0.3,0.2,0.5,0.2c2.1,0.6,4.3,1.5,6.4,2.1
					c0.2,0.2,0.2,0.2,0.3,0.2c2.4,0.6,4.7,1.5,6.9,2.1c1.9,0.4,4,1.7,6,2.9c0,0,53.4,9.6,82.7,7.5c29.4-2.1,229.8,0,229.8,0h56.1
					c0,0,21.6,0,19.9,20.9c0,0,3.5,39.7-29.4,62.7c0,0-29.4,20.9-41.5,33.4c0,0-31.1,29.3-36.3,54.4c0,0-8.6,31.4,3.5,56.4
					c12.1,25.1,39.7,83.6,32.8,112.9c0,0,3.5,48.1-51.8,73.2c0,0-25.9,18.8-89.8,10.5c0,0-39.7-4.2-51.8,12.5
					c-12.1,16.7-10.4,43.9-6.9,52.3c3.5,8.4,24.2,77.3-5.2,102.4c0,0-44.9,54.4-139.9,16.7c0,0-77.7-35.5-96.7-39.7
					c-19-4.2-31.1-4.2-29.4,14.6c1.7,18.8-6.9,43.9-43.2,43.9s-69.1-8.4-81.2-10.5c0,0-38-6.3-44.9-31.4
					c-6.9-25.1-12.1-31.4-19-35.5c-6.9-4.2-70.8-20.9-89.8-62.7c0,0-22.5-23-5.2-69c17.3-46,38-81.5,60.5-119.2c0,0,2.8-3.3,6-9.4
					C608.7,670.2,641.5,599.1,641,599.1z"/>
			</g>
			<path style="fill:#061123;" d="M1109.5,782.8c12.1,14.6,14.9,39.7,14.9,39.7c11.4-1,21.4,0,21.4,0c63.9,8.4,89.8-10.5,89.8-10.5
				c7.6-3.6,14.3-7.5,19.9-11.7c0,0-89-28-108-48.9c-16.6-18.2-28-17.6-36.3-18.2c-24.2-1.5-46.5-31.8-46.5-31.8
				c-13.3-17.6-26.1-38.9-26.1-33.4c0,4,5.5,16.9,13.6,31.8c0,0,12.1,20.3,22.6,36.4C1085.3,752.1,1097.4,768.2,1109.5,782.8z"/>
			<path style="fill:#061123;" d="M622.8,853.7c13.8-18.8,22.5-50.2,20.7-23c-1.6,23.8-5.7,106.2-6.7,125.8
				c3.3,5.2,6.6,13.4,10.2,26.8c6.9,25.1,44.9,31.4,44.9,31.4c12.1,2.1,44.9,10.5,81.2,10.5s44.9-25.1,43.2-43.9
				c-1.6-18,9.5-18.8,27.1-15.1c5-38.3,24.7-191.9,24.9-264c0.2-82.6,41.3-97,70.7-80.3s24.2,177.7,22.5,269.7
				c-0.9,50.6-9.2,90.3-16.4,116c93.3,35.5,137.3-17.8,137.3-17.8c22.5-19.2,15.7-64,9.7-87.8c-42.2-60.6-93.3-214.7-93.3-214.7
				c-57.9-149.9-25.2-153.2-25.2-153.2c6.9,0,24.2,27.2,38,37.6c13.8,10.5,13.8-8.4,13.8-16.7c0-8.4,5.2-8.4,5.2-8.4
				c48.4-2.1,141.7,94.1,148.6,102.4c6.9,8.4,20.7,25.1,22.5,23s0-6.3,0-6.3c-6.9-23-67.4-73.2-70.8-79.4c-3.5-6.3,8.6,0,8.6,0
				c-17.3-23-69.1-56.4-100.2-69c-31.1-12.5-72.6-52.3-70.8-69c1.7-16.7,34.5-2.1,70.8,10.5c36.3,12.5,60.5,10.5,63.9,8.4
				c3.5-2.1-6.9-4.2-6.9-4.2c-60.5-16.7-77.7-48.1-76-54.4c1.7-6.3,44.9-2.1,72.6-6.3c5.9-0.8,10.9-2.7,15-5
				c-25.9,0-46.8,0.2-54.8,0.8c-29.4,2.1-82.7-7.5-82.7-7.5c-2.2-1.3-4.3-2.3-6-2.9c-2.4-0.6-4.7-1.5-6.9-2.1
				c-0.2-0.2-0.2-0.2-0.3-0.2c-2.1-0.6-4.3-1.3-6.4-2.1c-0.2,0-0.3-0.2-0.5-0.2c-1.9-0.8-4-1.5-6-2.3c-0.2,0-0.5-0.2-0.7-0.2
				c-1.9-0.8-4-1.5-5.9-2.3c-0.3,0-0.5-0.2-0.9-0.2c-1.9-0.8-3.8-1.5-5.7-2.3c-0.3-0.2-0.5-0.2-0.9-0.4c-1.9-0.6-3.8-1.5-5.7-2.3
				c-0.3-0.2-0.5-0.2-0.9-0.4c-1.9-0.8-3.8-1.7-5.7-2.5c-0.3-0.2-0.5-0.2-0.9-0.4c-1.9-0.8-3.8-1.7-5.7-2.5
				c-0.2-0.2-0.5-0.2-0.7-0.4c-1.9-1-3.8-1.9-5.7-2.7c-0.2,0-0.5-0.2-0.7-0.2c-2.1-0.8-4-1.9-5.9-2.7c-0.2,0-0.3-0.2-0.5-0.2
				c-2.1-1-4-1.9-6-2.9h-0.2c-6.6-3.1-12.8-6.3-19.2-9.4c-0.5-0.2-1.2-0.6-1.7-0.8c-1.4-0.8-2.8-1.5-4.1-2.1c-2.1-1-4-1.9-6-2.9
				c-62.5-30.3-99.7-20.9-99.7-20.9c-0.7,0.2-1.2,0.2-1.7,0.4c-0.2,0-0.3,0.2-0.5,0.2c-0.3,0.2-0.7,0.2-1,0.4
				c-0.2,0-0.5,0.2-0.7,0.2c-0.3,0.2-0.7,0.2-1,0.4s-0.5,0.2-0.9,0.4c-0.3,0-0.5,0.2-0.9,0.4c-0.3,0-0.5,0.2-0.9,0.4
				c-0.3,0.2-0.5,0.4-0.9,0.6c-0.3,0.2-0.5,0.4-0.9,0.6c-0.2,0-0.5,0.2-0.7,0.4c-15.9,12.1-31.4,44.1-38.5,71.7
				c0,0-5.9,18-12.8,39.5c0,0-26.6,78-47.3,133.6c12.6-17.6,22.6-32,25.7-37c10.4-16.7,20.7,0,12.1,64.8
				c-8.6,64.8-67.4,236.2-70.8,246.7C615.6,856.2,622.5,854.1,622.8,853.7z M962.8,607.4c5.2-6.3,17.3,64.8,8.6,73.2
				c-8.6,8.4-12.1-25.1-12.1-25.1S957.6,613.7,962.8,607.4z M662.2,781c3.5-14.6,12.1-31.4,13.8-16.7
				c1.7,14.6-13.8,221.6-13.8,221.6c-5.2,10.5-8.6-4.2-12.1-12.5c-3.5-8.4-5.2-43.9-5.2-43.9C643.2,875,658.8,795.6,662.2,781z"/>
		</g>
		
			<animate  accumulate="none" additive="replace" attributeName="display" begin="0s" calcMode="linear" dur="1s" fill="remove" id="frame6" keyTimes="0.0;0.1;0.2;0.3;0.4;0.5;0.6;0.7; 0.8;0.9;1" repeatCount="indefinite" restart="always" values="none;none;none;none;none;inline; none; none; none; none; none">
			</animate>
	</g>
	<g id="frame7" style="display:none;">
		<g style="display:inline;">
			<path style="fill:#061123;" d="M1136.9,831.3c-0.3-15.5,5.9-26.3,5.9-26.3c10.4-25.1,57-35.5,76-39.7c19-4.2,57-2.1,86.4-48.1
				s-6.9-98.3-27.6-135.9c-20.7-37.6-12.1-71.1-12.1-71.1c8.6-79.4,103.6-96.2,103.6-96.2c-46.6-64.8-272.9-20.9-272.9-20.9
				c-69.1,14.6-139.2-8.6-139.2-8.6c-2.1-0.6-4.3-1.3-6.4-2.1c-0.2,0-0.3-0.2-0.5-0.2c-1.9-0.8-4-1.5-6-2.3c-0.2,0-0.5-0.2-0.7-0.2
				c-1.9-0.8-4-1.5-5.9-2.3c-0.3,0-0.5-0.2-0.9-0.2c-1.9-0.8-3.8-1.5-5.7-2.3c-0.3-0.2-0.5-0.2-0.9-0.4c-1.9-0.6-3.8-1.5-5.7-2.3
				c-0.3-0.2-0.5-0.2-0.9-0.4c-1.9-0.8-3.8-1.7-5.7-2.5c-0.3-0.2-0.5-0.2-0.9-0.4c-1.9-0.8-3.8-1.7-5.7-2.5
				c-0.2-0.2-0.5-0.2-0.7-0.4c-1.9-1-3.8-1.9-5.7-2.7c-0.2,0-0.5-0.2-0.7-0.2c-2.1-0.8-4-1.9-5.9-2.7c-0.2,0-0.3-0.2-0.5-0.2
				c-2.1-1-4-1.9-6-2.9h-0.2c-6.6-3.1-12.8-6.3-19.2-9.4c-0.5-0.2-1.2-0.6-1.7-0.8c-1.4-0.8-2.8-1.5-4.1-2.1c-2.1-1-4-1.9-6-2.9
				c-62.5-30.3-99.7-20.9-99.7-20.9c-0.7,0.2-1.2,0.2-1.7,0.4c-0.2,0-0.3,0.2-0.5,0.2c-0.3,0.2-0.7,0.2-1,0.4
				c-0.2,0-0.5,0.2-0.7,0.2c-0.3,0.2-0.7,0.2-1,0.4s-0.5,0.2-0.9,0.4c-0.3,0-0.5,0.2-0.9,0.4c-0.3,0-0.5,0.2-0.9,0.4
				c-0.3,0.2-0.5,0.4-0.9,0.6c-0.3,0.2-0.5,0.4-0.9,0.6c-0.2,0-0.5,0.2-0.7,0.4c-15.9,12.1-31.4,44.1-38.5,71.7c0-0.2,0-0.2,0,0
				c0,0.4-3.8,11.9-8.8,27.4c-5.4,14.8-23.8,81.3-32.5,108.5c-8.6,27.2-41.5,104.5-72.6,154.7c-31.1,50.2-69.1,129.6-69.1,163.1
				c0,33.4,62.2,64.8,77.7,75.3c15.5,10.5,10.4,12.5,17.3,41.8c6.9,29.3,44.9,31.4,51.8,31.4c6.9,0,46.6,8.4,55.3,16.7
				c8.6,8.4,50.4,9.4,50.4,9.4c55.5-1,44.6-30.3,37.7-47s12.1-23,25.9-25.1c13.8-2.1,86.4,27.2,86.4,27.2c48.4,25.1,95,35.5,95,35.5
				c63.9,16.7,110.6-14.6,133-64.8c19.9-44.3-11.7-87.2-17.4-98.5C1136.9,842.4,1136.6,831.3,1136.9,831.3z"/>
			<path style="fill:#061123;" d="M1173.6,778.9c16.2-7.3,34.7-11.3,44.9-13.6c8.8-1.9,21.9-2.5,36.3-7.3
				c-33.2-31.4-84.5-41-114-44.9c-31.1-4.2-81.2-39.7-81.2-39.7c10.4,23,48.4,46,77.7,66.9C1155.8,753.4,1167.5,769,1173.6,778.9z"
				/>
			<path style="fill:#061123;" d="M634.9,796.6c1.7,6.3-5.2,43.9-5.2,43.9c6.9-14.6,22.5-81.5,29.4-106.6
				c6.9-25.1,12.1-39.7,12.1-39.7c6.9-14.6,8.6,6.3,0,52.3c-6.7,36.4-9.3,189-10,251.3c6.9,1.5,12.8,1.7,15.2,1.7
				c6.9,0,46.6,8.4,55.3,16.7c8.6,8.4,50.4,9.4,50.4,9.4c55.5-1,44.6-30.3,37.7-47c-1-2.7-1.6-5-1.4-7.3c-0.3-1-0.7-1.9-1-2.7
				c-16.2-43.5,4.1-330.7,12.8-372.5c8.6-41.8,55.3-33.4,81.2-10.5c25.9,23,72.6,263.4,77.7,324c3.8,44.3,2.1,79.9,0.9,95.5
				c21.9,7.7,37.1,11.1,37.1,11.1c63.9,16.7,110.6-14.6,133-64.8c5.2-11.1,6.9-22.4,6.7-33c0,0-2.1-21.3-6.9-31.8
				c-4.8-10.5-13.5-28-18.7-37c0,0-1.7-4.6-2.6-7.9c-9.3-8.2-23.1-27.2-23.1-27.2l0,0c-63.2-83-190.2-302.1-178.1-316.7
				c13.8-16.7,89.8,43.9,89.8,43.9c-1.7-14.6,0-25.1,34.5-14.6s129.6,79.4,129.6,79.4c-36.3-62.7-129.6-108.7-162.4-123.3
				c-32.8-14.6-79.5-48.1-79.5-58.5c0-10.5,19-6.3,19-6.3c50.1,20.9,146.8,14.6,146.8,14.6c-58.2-2.3-95.4-22-117-38.9
				c-24.9-4-41.3-9.4-41.3-9.4c-2.1-0.6-4.3-1.3-6.4-2.1c-0.2,0-0.3-0.2-0.5-0.2c-1.9-0.8-4-1.5-6-2.3c-0.2,0-0.5-0.2-0.7-0.2
				c-1.9-0.8-4-1.5-5.9-2.3c-0.3,0-0.5-0.2-0.9-0.2c-1.9-0.8-3.8-1.5-5.7-2.3c-0.3-0.2-0.5-0.2-0.9-0.4c-1.9-0.6-3.8-1.5-5.7-2.3
				c-0.3-0.2-0.5-0.2-0.9-0.4c-1.9-0.8-3.8-1.7-5.7-2.5c-0.3-0.2-0.5-0.2-0.9-0.4c-1.9-0.8-3.8-1.7-5.7-2.5
				c-0.2-0.2-0.5-0.2-0.7-0.4c-1.9-1-3.8-1.9-5.7-2.7c-0.2,0-0.5-0.2-0.7-0.2c-2.1-0.8-4-1.9-5.9-2.7c-0.2,0-0.3-0.2-0.5-0.2
				c-2.1-1-4-1.9-6-2.9h-0.2c-6.6-3.1-12.8-6.3-19.2-9.4c-0.5-0.2-1.2-0.6-1.7-0.8c-1.4-0.8-2.8-1.5-4.1-2.1c-2.1-1-4-1.9-6-2.9
				C798,311.6,760.9,321,760.9,321c-0.7,0.2-1.2,0.2-1.7,0.4c-0.2,0-0.3,0.2-0.5,0.2c-0.3,0.2-0.7,0.2-1,0.4c-0.2,0-0.5,0.2-0.7,0.2
				c-0.3,0.2-0.7,0.2-1,0.4s-0.5,0.2-0.9,0.4c-0.3,0-0.5,0.2-0.9,0.4c-0.3,0-0.5,0.2-0.9,0.4c-0.3,0.2-0.5,0.4-0.9,0.6
				c-0.3,0.2-0.5,0.4-0.9,0.6c-0.2,0-0.5,0.2-0.7,0.4c-15.9,12.1-31.4,44.1-38.5,71.7c0-0.2,0-0.2,0,0c0,0.4-3.8,11.9-8.8,27.4
				c-2.4,6.5-7.3,23-12.8,41.6c11.4,4.8,20,10.9,21.6,18.8c5.2,27.2-44.9,169.3-44.9,169.3c-3.5,16.7-24.2,87.8-34.5,117.1
				s-25.9,54.4-25.9,54.4C617.3,821.7,633.2,790.4,634.9,796.6z"/>
		</g>
		
			<animate  accumulate="none" additive="replace" attributeName="display" begin="0s" calcMode="linear" dur="1s" fill="remove" id="frame7" keyTimes="0.0;0.1;0.2;0.3;0.4;0.5;0.6;0.7; 0.8;0.9;1" repeatCount="indefinite" restart="always" values="none;none;none;none;none;none; inline; none; none; none; none">
			</animate>
	</g>
	<g id="frame8" style="display:none;">
		<g style="display:inline;">
			<path style="fill:#061123;" d="M690.6,477.4c8.8-30.5,22.1-76.9,23.3-79.6c0-0.2,0-0.2,0,0c7.1-27.8,22.6-59.8,38.5-71.7
				c0.2,0,0.5-0.2,0.7-0.4c0.3-0.2,0.5-0.4,0.9-0.6c0.3-0.2,0.5-0.4,0.9-0.6c0.3,0,0.5-0.2,0.9-0.4c0.3,0,0.5-0.2,0.9-0.4
				s0.5-0.2,0.9-0.4s0.7-0.2,1-0.4c0.2,0,0.5-0.2,0.7-0.2c0.3-0.2,0.7-0.2,1-0.4c0.2,0,0.3-0.2,0.5-0.2c0.7-0.2,1.2-0.4,1.7-0.4
				c0,0,37.1-9.4,99.7,20.9c2.1,1,4,1.9,6,2.9c1.4,0.8,2.8,1.5,4.1,2.1c0.5,0.2,1.2,0.6,1.7,0.8c6.4,3.1,12.8,6.3,19.2,9.4h0.2
				c2.1,1,4,1.9,6,2.9c0.2,0,0.3,0.2,0.5,0.2c2.1,0.8,4,1.9,5.9,2.7c0.2,0,0.5,0.2,0.7,0.2c1.9,1,3.8,1.9,5.7,2.7
				c0.2,0.2,0.5,0.2,0.7,0.4c1.9,0.8,3.8,1.7,5.7,2.5c0.3,0.2,0.5,0.2,0.9,0.4c1.9,0.8,3.8,1.7,5.7,2.5c0.3,0.2,0.5,0.2,0.9,0.4
				c1.9,0.6,3.8,1.5,5.7,2.3c0.3,0.2,0.5,0.2,0.9,0.4c1.9,0.8,3.8,1.5,5.7,2.3c0.3,0,0.5,0.2,0.9,0.2c1.9,0.8,4,1.5,5.9,2.3
				c0.2,0,0.5,0.2,0.7,0.2c1.9,0.8,4,1.7,6,2.3c0.2,0,0.3,0.2,0.5,0.2c2.1,0.6,4.3,1.5,6.4,2.1c0,0,0.2,0,0.7,0.2l0,0
				c0.2,0,0.5,0.2,0.9,0.2l0,0c0.3,0.2,0.9,0.2,1.2,0.4h0.2c0.3,0.2,0.9,0.2,1.4,0.4h0.2c0.5,0,1,0.2,1.7,0.4h0.2
				c0.5,0.2,1.2,0.4,1.9,0.6c0.2,0,0.2,0,0.3,0c0.7,0.2,1.6,0.4,2.2,0.6c0.2,0,0.2,0,0.3,0c0.7,0.2,1.6,0.4,2.4,0.6
				c0,0,102.8,40.1,216.8-5.9c0,0,114-35.5,167.6,6.3c0,0-55.3,25.1-60.5,64.8c0,0-10.4,25.1,24.2,89.9c0,0,46.6,92,3.5,131.7
				c0,0-22.5,35.5-93.3,37.6c0,0-95,14.6-63.9,94.1c0,0,36.3,71.1,31.1,98.3s-13.8,54.4-62.2,77.3c0,0-50.1,27.2-96.7,6.3
				c-46.6-20.9-100.2-43.9-100.2-43.9s-41.5-12.5-70.8,23c-29.4,35.5-43.2,62.7-115.7,54.4c0,0-34.5-4.2-48.4-12.5
				c-13.8-8.4-19-14.6-34.5-16.7c-15.5-2.1-57-2.1-63.9-54.4c-6.9-52.3-43.2-46-51.8-48.1c0,0-29.4-6.3-34.5-25.1
				c-5.2-18.8,19-52.3,20.7-54.4c0,0,79.5-146.3,89.8-169.3c7.9-17.6,39.9-87.2,47.5-121.7C681.1,501,690.7,477.2,690.6,477.4z"/>
			<path style="fill:#061123;" d="M1206.9,719.9c13-5.2,23.7-6.9,23.7-6.9c37.3-1,61.3-11.5,75.5-21.1
				c-40.3,8.2-61.7-18.6-70.3-16.5s-24.2,6.3-46.6-4.2c-20.2-9.6-83.3-32.8-94.8-37C1126.6,647,1206.9,719.9,1206.9,719.9z"/>
			<path style="fill:#061123;" d="M683.1,996.7c6.4,3.1,11.7,7.5,20.4,12.8c13.8,8.4,48.4,12.5,48.4,12.5
				c69.3,7.9,85-16.5,111.8-49.5c-4.5-12.1-10.2-26.5-15-38.3c-10.4-25.1-43.2-376.3-29.4-401.4c13.8-25.1,60.5,2.1,98.5,52.3
				c38,50.2,74.3,181.9,88.1,255c9.3,49.1,3.1,102.9-2.1,133c11.4,5,23.3,10.2,34.9,15.5c46.6,20.9,96.7-6.3,96.7-6.3
				c48.4-23,57-50.2,62.2-77.3c3.5-18-11.2-55-21.6-78.2c-19.3-8.6-64.1-72.3-95-123.3l0,0l0,0c-14.9-24.7-26.6-46.4-30.6-57.5
				c-10.4-16.9-22.6-34.5-35.6-47.5c20.6,62.7,11.7,137.3-12.3,122.7c-24.2-14.6-93.3-202.8-107.5-246.5c-14-43.7,5.5-36.4,5.5-36.4
				c38,36.8,82.9,61.3,107.1,67.5c24.2,6.3,58.7,27.2,58.7,27.2c-1.7-10.5-20.7-31.4-20.7-31.4c46.6,18.8,62.2,4.2,101.9,6.3
				c22.5,1.3,44.4,14.4,59.3,25.7c-14.5-15.1-46.6-36.2-117.6-50.8c-4.1-0.8-8.5-1.5-12.4-2.1c-50.1-8.4-139.9-69-139.9-69
				c58.7,27.2,191.8,0,191.8,0l-19-9.2c-78.1,8.8-137.2-14.2-137.2-14.2c-0.9-0.2-1.6-0.4-2.4-0.6c-0.2,0-0.2,0-0.3,0
				c-0.9-0.2-1.6-0.4-2.2-0.6c-0.2,0-0.2,0-0.3,0c-0.7-0.2-1.2-0.4-1.9-0.6h-0.2c-0.7-0.2-1.2-0.2-1.7-0.4h-0.2
				c-0.5-0.2-1-0.2-1.4-0.4h-0.2c-0.5-0.2-0.9-0.4-1.2-0.4l0,0c-0.3,0-0.7-0.2-0.9-0.2l0,0c-0.5-0.2-0.7-0.2-0.7-0.2
				c-2.1-0.6-4.3-1.3-6.4-2.1c-0.2,0-0.3-0.2-0.5-0.2c-1.9-0.8-4-1.5-6-2.3c-0.2,0-0.5-0.2-0.7-0.2c-1.9-0.8-4-1.5-5.9-2.3
				c-0.3,0-0.5-0.2-0.9-0.2c-1.9-0.8-3.8-1.5-5.7-2.3c-0.3-0.2-0.5-0.2-0.9-0.4c-1.9-0.6-3.8-1.5-5.7-2.3c-0.3-0.2-0.5-0.2-0.9-0.4
				c-1.9-0.8-3.8-1.7-5.7-2.5c-0.3-0.2-0.5-0.2-0.9-0.4c-1.9-0.8-3.8-1.7-5.7-2.5c-0.2-0.2-0.5-0.2-0.7-0.4c-1.9-1-3.8-1.9-5.7-2.7
				c-0.2,0-0.5-0.2-0.7-0.2c-2.1-0.8-4-1.9-5.9-2.7c-0.2,0-0.3-0.2-0.5-0.2c-2.1-1-4-1.9-6-2.9h-0.2c-6.6-3.1-12.8-6.3-19.2-9.4
				c-0.5-0.2-1.2-0.6-1.7-0.8c-1.4-0.8-2.8-1.5-4.1-2.1c-2.1-1-4-1.9-6-2.9c-62.5-30.3-99.7-20.9-99.7-20.9
				c-0.7,0.2-1.2,0.2-1.7,0.4c-0.2,0-0.3,0.2-0.5,0.2c-0.3,0.2-0.7,0.2-1,0.4c-0.2,0-0.5,0.2-0.7,0.2c-0.3,0.2-0.7,0.2-1,0.4
				c-0.3,0.2-0.5,0.2-0.9,0.4c-0.3,0-0.5,0.2-0.9,0.4c-0.3,0-0.5,0.2-0.9,0.4c-0.3,0.2-0.5,0.4-0.9,0.6c-0.3,0.2-0.5,0.4-0.9,0.6
				c-0.2,0-0.5,0.2-0.7,0.4c-15.9,12.1-31.4,44.1-38.5,71.7c0-0.2,0-0.2,0,0c-1,2.7-14.5,48.9-23.3,79.6c0,0-5.9,14.6-10.5,30.3
				c2.4,8.6,4.1,18,4.5,27.8c1.7,54.4-60.5,223.7-60.5,223.7c13.8-10.5,32.8-89.9,41.5-104.5c8.6-14.6,8.6,14.6-12.1,102.4
				c-20.7,87.8-5.2,144.2-5.2,144.2c-5.2-64.8,8.6-125.4,13.8-133.8c5.2-8.4,8.6,0,5.2,18.8s0,46,5.2,75.3s1.7,46,0,79.4
				C671.7,957.2,677.1,978.7,683.1,996.7z"/>
		</g>
		
			<animate  accumulate="none" additive="replace" attributeName="display" begin="0s" calcMode="linear" dur="1s" fill="remove" id="frame8" keyTimes="0.0;0.1;0.2;0.3;0.4;0.5;0.6;0.7; 0.8;0.9;1" repeatCount="indefinite" restart="always" values="none;none;none;none;none;none;none;inline; none; none; none">
			</animate>
	</g>
	<g id="frame9" style="display:none;">
		<g style="display:inline;">
			<path style="fill:#061123;" d="M1339.2,426.6L1339.2,426.6c0.3,1.5,0.7,3.1,1.2,5.2c2.8,11.1,7.9,29.7,14.7,41.6
				c0.2,0.4,0.5,0.6,0.7,1c0,0,30.2,52.5,7.8,96.4c-22.5,43.9-60.5,54.4-95,62.7c0,0-43.2,12.5-60.5,48.1c0,0-15.5,39.7,0,77.3
				c0,0,36.3,69,20.7,110.8c-15.5,41.8-62.2,66.9-119.2,62.7c-57-4.2-103.6-29.3-103.6-29.3s-53.6-27.2-67.4,33.4
				c0,0-17.3,56.4-67.4,56.4c-50.1,0-70.8,2.1-88.1,12.5s-39.7,31.4-70.8,16.7c0,0-12.1-4.2-25.9-18.8c-13.8-14.6-31.1-23-39.7-23
				c-8.6,0-69.1,2.1-76-60.6c0,0-1.7-50.2-39.7-46c0,0-8.6,0-5.2-14.6c3.5-14.6,22.5-98.3,67.4-167.2s62.2-125.4,67.4-138
				c5.2-12.5,39.7-110.8,41.5-121.3c1.7-10.5,10.4-35.5,10.4-35.5c7.1-27.8,22.6-59.8,38.5-71.7c0.2,0,0.5-0.2,0.7-0.4
				c0.3-0.2,0.5-0.4,0.9-0.6c0.3-0.2,0.5-0.4,0.9-0.6c0.3,0,0.5-0.2,0.9-0.4c0.3,0,0.5-0.2,0.9-0.4s0.5-0.2,0.9-0.4s0.7-0.2,1-0.4
				c0.2,0,0.5-0.2,0.7-0.2c0.3-0.2,0.7-0.2,1-0.4c0.2,0,0.3-0.2,0.5-0.2c0.7-0.2,1.2-0.4,1.7-0.4c0,0,37.1-9.4,99.7,20.9
				c0,0,119.7,70.2,178.5,76.5c58.7,6.3,122.7,8.4,164.1-2.1c41.5-10.5,105.4-16.7,122.7-12.5c9.2,2.1,11.9,8.6,12.6,14l0,0v0.2
				C1338.9,421.6,1339.2,426.8,1339.2,426.6z"/>
			<path style="fill:#061123;" d="M1201.2,585.5c0,4.2,13.8,6.3,13.8,6.3c25.9,6.3,53.6,41.8,53.6,41.8c24-5.9,49.6-12.8,70.5-30.9
				c-23.8-11.3-46.1-13-56.7-13c-12.1,0-31.1,0-36.3-4.2S1201.2,581.3,1201.2,585.5z"/>
			<path style="fill:#061123;" d="M686.6,1003.8c13.6,14.4,25.7,18.6,25.7,18.6c31.1,14.6,53.6-6.3,70.8-16.7s38-12.5,88.1-12.5
				c20.9,0,36.1-9.8,46.6-21.3c6.9-17.1,12.1-127.1,13.8-131.3c0.5-1.3,1-1.3,1.7-0.6l0,0c3.1-0.4,8.6,14.8,12.6,27.2
				c1.7,4.2,2.9,6.9,2.9,6.9c6.9-50.2-74.3-311.5-62.2-332.4s32.8,0,32.8,0c48.4,39.7,117.5,282.2,124.4,317.8
				c3.5,17.8,3.5,41.4,2.6,60.4c17.4,5.6,39.4,11.1,63.1,12.8c42.8,3.1,80-10.2,102.3-34.9c-0.3-0.2-0.5-0.4-0.7-0.6h0.3
				c0,0-5.2-10.5-10.4-33.4c-5.2-23-26.6-79.4-26.6-79.4c-4.5-12.5-2.8-15.9-2.8-16.7c0-4.2,8.6,4.2,13.8,0
				c5.2-4.2-60.5-79.4-65.6-85.7c-5.2-6.3-77.7-110.8-77.7-110.8c-6.9,0,10.4,20.9,13.8,31.4s-1.7,6.3-1.7,6.3
				c-8.6-18.8-39.7-58.5-39.7-58.5c-25.9-27.2-57-85.5-46.5-89.1c10.5-3.6,91.4,53.5,96.6,47.2s-32.8-33.4-36.3-43.9
				c-3.5-10.5,10.4-4.2,10.4-4.2c39.7,16.7,160.7,10.5,169.3,10.5c2.9,0,18.5,3.8,29.4,8.4c-10-7.9-31.6-16.5-50.6-17.4
				c-42.5-1-133.2-2.1-152.2-43.9c-60.1-9-174.1-75.7-174.1-75.7C798,311.6,760.9,321,760.9,321c-0.7,0.2-1.2,0.2-1.7,0.4
				c-0.2,0-0.3,0.2-0.5,0.2c-0.3,0.2-0.7,0.2-1,0.4c-0.2,0-0.5,0.2-0.7,0.2c-0.3,0.2-0.7,0.2-1,0.4s-0.5,0.2-0.9,0.4
				c-0.3,0-0.5,0.2-0.9,0.4c-0.3,0-0.5,0.2-0.9,0.4c-0.3,0.2-0.5,0.4-0.9,0.6c-0.3,0.2-0.5,0.4-0.9,0.6c-0.2,0-0.5,0.2-0.7,0.4
				c-15.9,12.1-31.4,44.1-38.5,71.7c0,0-8.6,25.1-10.4,35.5c-1.2,7.3-18.5,57.7-30.6,91.6c-1.7,25.3-10.9,65.6-35.1,130
				C582.8,796.6,586.2,874,586.2,874c10.4-94.1,53.6-184,74.3-238.3c20.7-54.4,32.8-73.2,41.5-79.4s-1.7,73.2-19,117.1
				S670.9,828,670.9,828c3.5-18.8,8.6-18.8,8.6-18.8c5.2-12.5,12.1,12.5,3.5,69C676.2,922.3,683.1,980.4,686.6,1003.8z M949,541.6
				c24.2,4.2,105.4,83.6,105.4,83.6c27.6,29.3,84.6,156.8,93.3,192.3s-3.5,29.3-3.5,29.3c-31.1,10.5-108.8-115-108.8-115
				C1026.7,717.2,924.8,537.4,949,541.6z"/>
		</g>
		
			<animate  accumulate="none" additive="replace" attributeName="display" begin="0s" calcMode="linear" dur="1s" fill="remove" id="frame9" keyTimes="0.0;0.1;0.2;0.3;0.4;0.5;0.6;0.7; 0.8;0.9;1" repeatCount="indefinite" restart="always" values="none;none;none;none;none;none;none;none;inline; none; none">
			</animate>
	</g>
	<g id="frame10" style="display:none;">
		<g style="display:inline;">
			<path style="fill:#061123;" d="M712.3,397.3c0,0-8.6,25.1-10.2,35.3c0,0.2-0.2,0.4-0.2,0.6v0.2c0,0.4-0.2,0.6-0.2,0.8v0.2
				c-0.2,0.2-0.2,0.6-0.3,1v0.2c-0.2,0.4-0.2,0.6-0.3,1c-0.2,0.2-0.2,0.2-0.2,0.4c-0.2,0.4-0.3,0.8-0.5,1.5l0,0
				c-0.2,0.4-0.3,1-0.5,1.7c0,0-0.2,0.2-0.2,0.4c-0.2,0.4-0.3,1-0.5,1.5c0,0.2-0.2,0.2-0.2,0.4c-0.3,0.6-0.5,1.5-0.7,2.1
				c0,0.2-0.2,0.2-0.2,0.4c-0.2,0.4-0.3,1-0.5,1.7c0,0.2-0.2,0.4-0.2,0.6c-0.2,0.8-0.5,1.5-0.7,2.3l0,0c-0.3,0.8-0.5,1.7-0.9,2.5
				c0,0.4-0.2,0.6-0.2,0.8c-0.2,0.6-0.5,1.5-0.7,2.1c0,0.2-0.2,0.4-0.2,0.6c-0.3,1-0.5,1.9-0.9,2.7c0,0.2-0.2,0.4-0.2,0.6
				c-0.2,0.6-0.5,1.3-0.7,2.1c-0.2,0.2-0.2,0.6-0.3,0.8c-0.3,1-0.7,1.9-1,2.9l0,0c-0.3,0.8-0.7,1.9-1,2.9c0,0.2-0.2,0.4-0.2,0.6
				c-0.3,0.8-0.5,1.7-0.9,2.5c0,0.2-0.2,0.4-0.2,0.6c-0.3,1-0.7,2.1-1,3.1c0,0.2-0.2,0.4-0.2,0.6c-0.2,0.8-0.5,1.9-0.9,2.7
				c0,0.2-0.2,0.4-0.2,0.6c-0.7,2.1-1.6,4.4-2.2,6.5c-0.2,0.2-0.2,0.6-0.3,0.8c-0.2,0.8-0.5,1.9-0.9,2.7c0,0.2-0.2,0.4-0.2,0.6
				c-0.5,1.3-0.9,2.3-1.2,3.3c0,0.2-0.2,0.4-0.2,0.6c-0.3,0.8-0.7,1.9-1,2.7c0,0.4-0.2,0.6-0.2,0.8c-0.7,2.1-1.6,4.4-2.2,6.5
				c0,0.2-0.2,0.4-0.2,0.6c-0.3,0.8-0.7,1.9-1,2.7c0,0-0.2,0.2-0.2,0.4c-0.3,1-0.9,2.3-1.2,3.3c0,0.2,0,0.2,0,0.2
				c-0.3,1-0.7,2.1-1,3.1c0,0.2-0.2,0.4-0.2,0.6c-0.7,2.1-1.6,4.2-2.2,6.3c-0.2,0-0.2,0.2-0.2,0.2c-0.3,1-0.7,1.9-1,2.9
				c-5.2,14.6-9.3,26.1-10.9,29.9c0,0-22.5,60.6-36.3,94.1c-13.8,33.4-36.3,58.5-36.3,58.5c-29.4,35.5-58.7,121.3-60.5,129.6
				c-1.7,8.4,3.5,8.4,10.4,16.7c6.9,8.4,5.2,31.4,5.2,31.4c8.6,66.9,91.6,79.4,91.6,79.4c31.1,10.5,22.5,29.3,44.9,50.2
				c22.5,20.9,81.2,6.3,117.5-23s43.2-8.4,63.9-2.1c20.7,6.3,62.2,20.9,62.2,20.9c29.4,12.5,50.1,4.2,50.1,4.2
				c72.6-10.5,43.2-87.8,43.2-87.8c-8.6-37.6,17.3-52.3,17.3-52.3s36.3-16.7,95-6.3s91.6-10.5,91.6-10.5
				c60.5-35.5,51.8-94.1,24.2-152.6c-27.6-58.5-3.5-89.9-3.5-89.9c6.9-23,38-52.3,79.5-69c41.5-16.7,44.9-49.3,44.9-49.3
				c15.4-47.5-24.2-94.9-38-103.3s-32.8-2.1-32.8-2.1s-119.2,25.1-219.4,16.7s-181.2-47.2-181.2-47.2c-15.5-8.2-26.9-14.8-31.4-17.4
				c-0.2,0-0.2,0-0.2,0c-1.2-0.6-1.9-1-1.9-1C798,311.6,760.9,321,760.9,321c-0.7,0.2-1.2,0.2-1.7,0.4c-0.2,0-0.3,0.2-0.5,0.2
				c-0.3,0.2-0.7,0.2-1,0.4c-0.2,0-0.5,0.2-0.7,0.2c-0.3,0.2-0.7,0.2-1,0.4s-0.5,0.2-0.9,0.4c-0.3,0-0.5,0.2-0.9,0.4
				c-0.3,0-0.5,0.2-0.9,0.4c-0.3,0.2-0.5,0.4-0.9,0.6c-0.3,0.2-0.5,0.4-0.9,0.6c-0.2,0-0.5,0.2-0.7,0.4
				C735,337.8,719.4,369.7,712.3,397.3"/>
			<path style="fill:#061123;" d="M1328.4,542c-7.6,2.7-20.7,9.4-20.7,9.4c-2.2-2.7-33.9-14-33.9-18.2c0-4.2,31.1-2.1,36.3-2.1
				s17.3-4.2,22.5-8.4c5.2-4.2,21.8-1.9,21.8-1.9C1351.8,527.4,1336,539.5,1328.4,542z"/>
			<path style="fill:#061123;" d="M661.9,987.7c3.8,7.9,7.8,16.9,17.8,26.3c22.5,20.9,81.2,6.3,117.5-23
				c36.3-29.3,43.2-8.4,63.9-2.1c20.7,6.3,62.2,20.9,62.2,20.9c29.4,12.5,50.1,4.2,50.1,4.2c72.6-10.5,43.2-87.8,43.2-87.8
				c-2.6-11.7-2.1-21.1,0.2-28.6l0,0C1001.3,754,916.3,600.1,911.2,577.1c-5.2-23,5.2-25.1,5.2-25.1
				c46.6,10.5,141.7,221.6,152,242.5c6.4,13,16.1,46,22.5,69.8c11.2,0,24,0.8,38,3.3c58.7,10.5,91.6-10.5,91.6-10.5
				c4.5-2.7,8.6-5.4,12.4-8.4c-13-12.3-39.9-27.4-110.9-71.1c-108.8-66.9-158.9-221.6-152-230c6.9-8.4,24.2,10.5,24.2,10.5
				c12.1,18.8,63.9,35.5,81.2,46c17.3,10.5,36.3,33.4,55.3,54.4c19,20.9,50.1,71.1,57,87.8c6.9,16.7,24.2,39.7,24.2,39.7
				c6.9,10.5,8.6,0.6,8.6,0.6c6.9-20.3-29.4-63.3-39.7-73.8c-10.4-10.5-36.3-54.4-32.8-58.5c3.5-4.2,13.8,10.5,13.8,2.1
				c0-8.4-88.1-87.8-107.1-104.5s-44.9-31.4-44.9-31.4c-24.2-14.6-41.5-54.4-40.4-62.9c0.9-8.6,9.3-6.1,21.4,0.2
				c12.1,6.3,88.1,35.5,88.1,23c0-12.5-65.6-39.7-65.6-52.3c0-12.5,25.4-4.6,25.4-4.6c34,8.2,73.1,2.5,78.3-3.8s-27.6-2.1-44.9-4.2
				c-9.3-1.3-17.1-6.5-22.3-11.3c-88.1-12.1-155.5-44.5-155.5-44.5c-15.5-8.2-26.9-14.8-31.4-17.4c-0.2,0-0.2,0-0.2,0
				c-1.2-0.6-1.9-1-1.9-1C798,311.6,760.9,321,760.9,321c-0.7,0.2-1.2,0.2-1.7,0.4c-0.2,0-0.3,0.2-0.5,0.2c-0.3,0.2-0.7,0.2-1,0.4
				c-0.2,0-0.5,0.2-0.7,0.2c-0.3,0.2-0.7,0.2-1,0.4s-0.5,0.2-0.9,0.4c-0.3,0-0.5,0.2-0.9,0.4c-0.3,0-0.5,0.2-0.9,0.4
				c-0.3,0.2-0.5,0.4-0.9,0.6c-0.3,0.2-0.5,0.4-0.9,0.6c-0.2,0-0.5,0.2-0.7,0.4c-15.9,12.1-31.4,44.1-38.5,71.7
				c0,0-8.6,25.1-10.4,35.5c0,0.2-0.2,0.4-0.2,0.6v0.2c0,0.4-0.2,0.6-0.2,0.8v0.2c-0.2,0.2-0.2,0.6-0.3,1v0.2
				c-0.2,0.4-0.2,0.6-0.3,1c-0.2,0.2-0.2,0.2-0.2,0.4c-0.2,0.4-0.3,0.8-0.5,1.5l0,0c-0.2,0.4-0.3,1-0.5,1.7c0,0-0.2,0.2-0.2,0.4
				c-0.2,0.4-0.3,1-0.5,1.5c0,0.2-0.2,0.2-0.2,0.4c-0.3,0.6-0.5,1.5-0.7,2.1c0,0.2-0.2,0.2-0.2,0.4c-0.2,0.4-0.3,1-0.5,1.7
				c0,0.2-0.2,0.4-0.2,0.6c-0.2,0.8-0.5,1.5-0.7,2.3l0,0c-0.3,0.8-0.5,1.7-0.9,2.5c0,0.4-0.2,0.6-0.2,0.8c-0.2,0.6-0.5,1.5-0.7,2.1
				c0,0.2-0.2,0.4-0.2,0.6c-0.3,1-0.5,1.9-0.9,2.7c0,0.2-0.2,0.4-0.2,0.6c-0.2,0.6-0.5,1.3-0.7,2.1c-0.2,0.2-0.2,0.6-0.3,0.8
				c-0.3,1-0.7,1.9-1,2.9l0,0c-0.3,0.8-0.7,1.9-1,2.9c0,0.2-0.2,0.4-0.2,0.6c-0.3,0.8-0.5,1.7-0.9,2.5c0,0.2-0.2,0.4-0.2,0.6
				c-0.3,1-0.7,2.1-1,3.1c0,0.2-0.2,0.4-0.2,0.6c-0.2,0.8-0.5,1.9-0.9,2.7c0,0.2-0.2,0.4-0.2,0.6c-0.7,2.1-1.6,4.4-2.2,6.5
				c-0.2,0.2-0.2,0.6-0.3,0.8c-0.2,0.8-0.5,1.9-0.9,2.7c0,0.2-0.2,0.4-0.2,0.6c-0.5,1.3-0.9,2.3-1.2,3.3c0,0.2-0.2,0.4-0.2,0.6
				c-0.3,0.8-0.7,1.9-1,2.7c0,0.4-0.2,0.6-0.2,0.8c-0.7,2.1-1.6,4.4-2.2,6.5c0,0.2-0.2,0.4-0.2,0.6c-0.3,0.8-0.7,1.9-1,2.7
				c0,0-0.2,0.2-0.2,0.4c-0.3,1-0.9,2.3-1.2,3.3c0,0.2,0,0.2,0,0.2c-0.3,1-0.7,2.1-1,3.1c0,0.2-0.2,0.4-0.2,0.6
				c-0.7,2.1-1.6,4.2-2.2,6.3c-0.2,0-0.2,0.2-0.2,0.2c-0.3,1-0.7,1.9-1,2.9c-5.2,14.6-9.3,26.1-10.9,29.9c0,0-18.5,50.2-32.3,84.5
				c3.1,0.2,5.5,1,6.4,3.3c5.2,12.5-29.4,73.2-27.6,83.6c1.7,10.5,29.4-69,48.4-108.7s36.3-27.2,43.2-14.6
				c6.9,12.5-10.4,123.3-19,173.5c-8.6,50.2-22.5,77.3-24.2,85.7s0,6.3,0,6.3c20.7-12.5,24.2-62.7,27.6-71.1
				c3.5-8.4,6.9-4.2,10.4,8.4c3.5,12.5-8.6,133.8-19,104.5s-6.9-20.9-8.6,0C664.6,922.7,662.7,961.4,661.9,987.7z"/>
		</g>
		
			<animate  accumulate="none" additive="replace" attributeName="display" begin="0s" calcMode="linear" dur="1s" fill="remove" id="frame10" keyTimes="0.0;0.1;0.2;0.3;0.4;0.5;0.6;0.7; 0.8;0.9;1" repeatCount="indefinite" restart="always" values="none;none;none;none;none;none;none;none;none; inline; none">
			</animate>
	</g>
</g>
<g id="captain">
	<g id="arm">

			<g id="f1_00000006693950679566343850000017447779574205639327_" style="display:none;">
		
			<linearGradient id="SVGID_00000021838492834260231380000007437374184885014203_" gradientUnits="userSpaceOnUse" x1="588.9868" y1="195.2758" x2="709.8868" y2="195.2758" gradientTransform="matrix(1 0 0 1 0 394)">
			<stop  offset="0.3425" style="stop-color:#CCCCFF"/>
			<stop  offset="0.9574" style="stop-color:#6699FF"/>
			<stop  offset="1" style="stop-color:#CCCCDC"/>
		</linearGradient>
		
			<polygon style="display:inline;fill:url(#SVGID_00000021838492834260231380000007437374184885014203_);stroke:#000033;stroke-width:4;stroke-miterlimit:10;" points="
			709.9,573.5 662.9,631 589,631 593.5,547.5 		"/>
		<path style="display:inline;fill:#061123;" d="M499,768.3c0,0-0.8-0.1-2.1-0.4c-4.1-0.7-12.7-2.5-13.3-4.4
			c-0.8-2.4-12.2-35.3-8.4-37.8c3.8-2.4,20-7.9,20-7.9s8.2-23.3,17.6-26.1c9.4-2.8,34.7,25.2,34.7,25.2s30.7-56.9,31.6-97.5
			c0,0,59.5-27.6,97.3,4c0,0-86.2,130.8-104.9,143.9c-18.7,13.1-31.7,21.3-35.6,18.5c-3.9-2.8-12.1-9.9-12.1-9.9
			S505.3,783.5,499,768.3z"/>
		
			<animate  accumulate="none" additive="replace" attributeName="display" begin="0s" calcMode="linear" dur="7s" 
			fill="remove" id="head" keyTimes="0;0.4;0.42;0.44; 0.96; 0.98; 1" repeatCount="indefinite" restart="always" values="inline;none;none;none;none;none;none">
			</animate>
	</g>
	<g id="f2_00000049918129286244781120000017859271867816725660_" style="display:none;">
		
			<linearGradient id="SVGID_00000053508057682026592960000015013100953972065424_" gradientUnits="userSpaceOnUse" x1="511.7218" y1="103.3259" x2="628.5868" y2="103.3259" gradientTransform="matrix(1 0 0 1 0 394)">
			<stop  offset="0.3425" style="stop-color:#CCCCFF"/>
			<stop  offset="0.9574" style="stop-color:#6699FF"/>
			<stop  offset="1" style="stop-color:#CCCCDC"/>
		</linearGradient>
		
			<path style="display:inline;fill:url(#SVGID_00000053508057682026592960000015013100953972065424_);stroke:#000033;stroke-width:4;stroke-miterlimit:10;" d="
			M628.6,572.9l-4.8-166.3L612,355.4c-21,7.9-17.1,9.2-24.5,26.1c-9.8,22.5-63.1,64.4-43.8,91.9c0,0-2.1-13.6-0.3,0.6
			s-0.2,96-0.2,96l-31.5,19.3l30.6,49.9l76.8-12.4l-9-30.4L628.6,572.9z"/>
		<g style="display:inline;">
			<path style="fill:#061123;" d="M392.2,598.9c-2.6-2.2-35.1-6.9-35.1-6.9c-4.1,19.4,18,19.9,18,19.9s-6,6.5-13.8,9.4
				c-7.8,2.9-12.1-4.3-12.1-4.3s0.2-18-2.3-20.9c-2.6-2.9-10.5-2.8-10.5-2.8l-3.1,28.9c0,0-4-2-7.8-2.2c-3.8-0.2-9.8,5.9-9.8,5.9
				l9.8,17.2c-3.8-0.3-7.7,6-7.7,6l21,22.2c0,0,20.3,1.8,26.9,1.8c5.2,0.1,30.2-12.6,40.3-17.8c50.2,4.7,165-11.6,165-11.6
				C578,587,514.1,570,514.1,570c-24.1,17.3-74.1,32.7-94.2,38.4l0,0C420.1,608.4,394.8,601.1,392.2,598.9z"/>
			<path style="fill:#061123;" d="M414.2,603.2c0-0.6,0-1.1,0-1.8C414.3,602.1,414.3,602.7,414.2,603.2z"/>
		</g>
			<animate  accumulate="none" additive="replace" attributeName="display" begin="0s" calcMode="linear" dur="7s" 
			fill="remove" id="head" keyTimes="0;0.4;0.42;0.44; 0.96; 0.98; 1" repeatCount="indefinite" restart="always" values="none;inline;none;none;none;none;none">
			</animate>
	</g>
	<g id="f3" style="display:none;">
		
			<linearGradient id="SVGID_00000117653419168565323450000017478908674826924728_" gradientUnits="userSpaceOnUse" x1="620.6412" y1="661.3359" x2="623.0971" y2="57.1805" gradientTransform="matrix(0.9852 0.1715 -0.1715 0.9852 88.2559 -74.34)">
			<stop  offset="0.3425" style="stop-color:#CCCCFF"/>
			<stop  offset="0.9574" style="stop-color:#6699FF"/>
			<stop  offset="1" style="stop-color:#CCCCDC"/>
		</linearGradient>
		
			<path style="display:inline;fill:url(#SVGID_00000117653419168565323450000017478908674826924728_);stroke:#000033;stroke-width:4;stroke-miterlimit:10;" d="
			M750.2,401.9c-22.9,0.8-86.5,2.9-92.8,11.8c-7.8,10.9-21.8,54.3-21.8,54.3s-73.6,41.7-84.7,79.8c-0.8,2.7-1.7,5.3-2.7,7.8
			l-47.9,1.6l-15.6,28.7l27.5,12.6c-5.3,3.6-8.8,5.3-8.8,5.3l43.2,23.5c0,0,38.1,20.3,97.2-13.7c22.5-12.9,60-42.6,84.6-59.5
			L750.2,401.9z"/>
		<g style="display:inline;">
			<path style="fill:#061123;" d="M419.6,497.7c-0.8-3.4-24.3-26.3-24.3-26.3c-14.7,13.2,2.8,26.7,2.8,26.7s-8.7,1.7-16.7-0.5
				c-8-2.3-7.3-10.6-7.3-10.6s10.7-14.4,10.4-18.3c-0.4-3.9-6.9-8.5-6.9-8.5l-19.5,21.5c0,0-2.1-4-5-6.4c-2.9-2.4-11.4-1-11.4-1
				l-2.2,19.7c-2.9-2.5-9.8,0.3-9.8,0.3l3.8,30.3c0,0,15.3,13.4,20.6,17.3c4.2,3.1,31.8,7.7,43.1,9.4c37.8,33.5,140.1,88,140.1,88
				c39.1-41.5-2.5-92.9-2.5-92.9c-29.7-0.2-79.1-17.3-98.7-24.5l0,0C436.4,521.8,420.3,501,419.6,497.7z"/>
			<path style="fill:#061123;" d="M434.8,514.2c0.4-0.5,0.7-0.9,1.1-1.4C435.5,513.3,435.1,513.8,434.8,514.2z"/>
		</g>
			<animate  accumulate="none" additive="replace" attributeName="display" begin="0s" calcMode="linear" dur="7s" 
			fill="remove" id="head" keyTimes="0;0.4;0.42;0.44; 0.96; 0.98; 1" repeatCount="indefinite" restart="always" values="none;none;inline;none;none;none;none">
			</animate>
	</g>
	<g id="f4" style="display:none;">
		
				<linearGradient id="SVGID_00000113340181493235635550000017552885671537995429_" gradientUnits="userSpaceOnUse" x1="492.7636" y1="522.5244" x2="693.3455" y2="522.5244">
		<stop  offset="0.3425" style="stop-color:#CCCCFF"/>
		<stop  offset="0.9574" style="stop-color:#6699FF"/>
		<stop  offset="1" style="stop-color:#CCCCDC"/>
	</linearGradient>
	
		<path style="fill:url(#SVGID_00000113340181493235635550000017552885671537995429_);stroke:#000033;stroke-width:4;stroke-miterlimit:10;" d="
		M497.6,511.7l49.9,27.6c0,0,67.2-134.4,89.2-134.2c22.1,0.2,54.7,35.5,56.6,52.9s-80.6,173.8-80.6,173.8s-33.6,34.5-119.9-37.5
		L497.6,511.7z"/>
	<path style="fill:#061123;" d="M535.5,522c-31.8-12.1-90.8-59.8-115.4-81c-3.9-10.8-10.3-25.7-19.2-38.2l0,0
		c0,0-10.8-18.6-14.3-17.2c-1.1,0.4-4.6,1.2-8.8,2c-19.6-4.7-56.8-13-75.5-13.4c-9.1-0.7-18.9,0.5-17.2,6.8c1.6,6.3,43,16.9,43,16.9
		s-6.3,12.6,2.5,17.2c0,0-7.6,11.6-2.6,20.2l2.2,3.1c0,0-1.7,1-1.4,8.8c0.3,9,8.1,11.9,8.1,11.9l46.8,18.7
		c5,5.8,11.8,13.2,14.1,16.4c39.8,54.3,104.6,118.8,104.6,118.8C564.6,582.5,535.5,522,535.5,522z"/>
			<animate  accumulate="none" additive="replace" attributeName="display" begin="0s" calcMode="linear" dur="7s" 
			fill="remove" id="head" keyTimes="0;0.4;0.42;0.44; 0.96; 0.98; 1" repeatCount="indefinite" restart="always" values="none;none;none;inline;none;none;none">
			</animate>
	</g>
	<g id="f5" style="display:none;">
		
			<linearGradient id="SVGID_00000023999285153473024380000009881606415903268496_" gradientUnits="userSpaceOnUse" x1="620.6412" y1="661.3359" x2="623.0971" y2="57.1805" gradientTransform="matrix(0.9852 0.1715 -0.1715 0.9852 88.2559 -74.34)">
			<stop  offset="0.3425" style="stop-color:#CCCCFF"/>
			<stop  offset="0.9574" style="stop-color:#6699FF"/>
			<stop  offset="1" style="stop-color:#CCCCDC"/>
		</linearGradient>
		
			<path style="display:inline;fill:url(#SVGID_00000023999285153473024380000009881606415903268496_);stroke:#000033;stroke-width:4;stroke-miterlimit:10;" d="
			M750.2,401.9c-22.9,0.8-86.5,2.9-92.8,11.8c-7.8,10.9-21.8,54.3-21.8,54.3s-73.6,41.7-84.7,79.8c-0.8,2.7-1.7,5.3-2.7,7.8
			l-47.9,1.6l-15.6,28.7l27.5,12.6c-5.3,3.6-8.8,5.3-8.8,5.3l43.2,23.5c0,0,38.1,20.3,97.2-13.7c22.5-12.9,60-42.6,84.6-59.5
			L750.2,401.9z"/>
		<g style="display:inline;">
			<path style="fill:#061123;" d="M419.6,497.7c-0.8-3.4-24.3-26.3-24.3-26.3c-14.7,13.2,2.8,26.7,2.8,26.7s-8.7,1.7-16.7-0.5
				c-8-2.3-7.3-10.6-7.3-10.6s10.7-14.4,10.4-18.3c-0.4-3.9-6.9-8.5-6.9-8.5l-19.5,21.5c0,0-2.1-4-5-6.4c-2.9-2.4-11.4-1-11.4-1
				l-2.2,19.7c-2.9-2.5-9.8,0.3-9.8,0.3l3.8,30.3c0,0,15.3,13.4,20.6,17.3c4.2,3.1,31.8,7.7,43.1,9.4c37.8,33.5,140.1,88,140.1,88
				c39.1-41.5-2.5-92.9-2.5-92.9c-29.7-0.2-79.1-17.3-98.7-24.5l0,0C436.4,521.8,420.3,501,419.6,497.7z"/>
			<path style="fill:#061123;" d="M434.8,514.2c0.4-0.5,0.7-0.9,1.1-1.4C435.5,513.3,435.1,513.8,434.8,514.2z"/>
		</g>
			<animate  accumulate="none" additive="replace" attributeName="display" begin="0s" calcMode="linear" dur="7s" 
			fill="remove" id="head" keyTimes="0;0.4;0.42;0.44; 0.96; 0.98; 1" repeatCount="indefinite" restart="always" values="none;none;none;none;inline;none;none">
			</animate>
		
	</g>
	<g id="f6" style="display:none;">
		
			<linearGradient id="SVGID_00000055693312059018662740000010071225158526022591_" gradientUnits="userSpaceOnUse" x1="511.7218" y1="103.3259" x2="628.5868" y2="103.3259" gradientTransform="matrix(1 0 0 1 0 394)">
			<stop  offset="0.3425" style="stop-color:#CCCCFF"/>
			<stop  offset="0.9574" style="stop-color:#6699FF"/>
			<stop  offset="1" style="stop-color:#CCCCDC"/>
		</linearGradient>
		
			<path style="display:inline;fill:url(#SVGID_00000055693312059018662740000010071225158526022591_);stroke:#000033;stroke-width:4;stroke-miterlimit:10;" d="
			M628.6,572.9l-4.8-166.3L612,355.4c-21,7.9-17.1,9.2-24.5,26.1c-9.8,22.5-63.1,64.4-43.8,91.9c0,0-2.1-13.6-0.3,0.6
			s-0.2,96-0.2,96l-31.5,19.3l30.6,49.9l76.8-12.4l-9-30.4L628.6,572.9z"/>
		<g style="display:inline;">
			<path style="fill:#061123;" d="M392.2,598.9c-2.6-2.2-35.1-6.9-35.1-6.9c-4.1,19.4,18,19.9,18,19.9s-6,6.5-13.8,9.4
				c-7.8,2.9-12.1-4.3-12.1-4.3s0.2-18-2.3-20.9c-2.6-2.9-10.5-2.8-10.5-2.8l-3.1,28.9c0,0-4-2-7.8-2.2c-3.8-0.2-9.8,5.9-9.8,5.9
				l9.8,17.2c-3.8-0.3-7.7,6-7.7,6l21,22.2c0,0,20.3,1.8,26.9,1.8c5.2,0.1,30.2-12.6,40.3-17.8c50.2,4.7,165-11.6,165-11.6
				C578,587,514.1,570,514.1,570c-24.1,17.3-74.1,32.7-94.2,38.4l0,0C420.1,608.4,394.8,601.1,392.2,598.9z"/>
			<path style="fill:#061123;" d="M414.2,603.2c0-0.6,0-1.1,0-1.8C414.3,602.1,414.3,602.7,414.2,603.2z"/>
		</g>
			<animate  accumulate="none" additive="replace" attributeName="display" begin="0s" calcMode="linear" dur="7s" 
			fill="remove" id="head" keyTimes="0;0.4;0.42;0.44; 0.96; 0.98; 1" repeatCount="indefinite" restart="always" values="none;none;none;none;none;inline;none">
			</animate>
	</g>

		


	</g>



<g id="body">
	
		<linearGradient id="SVGID_00000012455187060670077170000008399084299017451425_" gradientUnits="userSpaceOnUse" x1="765.0322" y1="224.2916" x2="643.0322" y2="944.2916">
		<stop  offset="0.3425" style="stop-color:#CCCCFF"/>
		<stop  offset="0.9574" style="stop-color:#6699FF"/>
		<stop  offset="1" style="stop-color:#CCCCDC"/>
	</linearGradient>
	
		<path style="fill:url(#SVGID_00000012455187060670077170000008399084299017451425_);stroke:#000033;stroke-width:4;stroke-miterlimit:10;" d="
		M856.8,422c0,0,39.2,114,36.2,130s-89,147.1-89,147.1l-50.8-6.3c-10.5,22.2-15.6,49.4-19,64.7c-78.8,8.2-130.1,36.6-130.1,36.6
		L557,525c0,0-29.7-26.4-8.9-93.5C566,373.7,624.5,321,624.5,321l96.8-38.7l35.5,21.5c0,0,52.4-5.1,71.2,12.2
		C853,339,862.6,382,856.8,422z"/>
	<path style="opacity:0.49;fill:#9999FF;enable-background:new    ;" d="M592.2,571.8c0,0,35.5-3.8,41,4.1
		c5.6,7.9,34.6,167.4,34.6,167.4l-22.4,27.9L616.3,596L592.2,571.8z"/>
	<path style="fill:#061123;" d="M685,770c0,0-0.9-0.2-2.3-0.4c-4.5-0.7-14.1-2.6-14.8-4.5c-0.9-2.7-14.3-38.9-10.1-41.7
		c4.2-2.8,22-9.1,22-9.1s8.6-26,18.9-29.3c10.3-3.3,38.9,27.2,38.9,27.2s32.8-63.8,33-108.7c0,0,65.4-31.8,107.8,2.4
		c0,0-92.7,146.7-113.2,161.5c-20.5,14.8-34.7,24.3-39,21.3c-4.3-3-13.6-10.7-13.6-10.7S692.4,786.6,685,770z"/>
	<g>
		<g style="enable-background:new    ;">
			<defs>
				<polygon id="SVGID_00000049928418492758566790000003693790560928148671_" style="enable-background:new    ;" points="
					562.4,480.5 582.6,373.7 628.2,376.4 608,483.2 				"/>
			</defs>
			<clipPath id="SVGID_00000085247281764568227940000006130927749347895442_">
				<use xlink:href="#SVGID_00000049928418492758566790000003693790560928148671_"  style="overflow:visible;"/>
			</clipPath>
			<g style="clip-path:url(#SVGID_00000085247281764568227940000006130927749347895442_);">
				<path style="fill:#FFFFFF;" d="M590.6,405.4c0,0,0,0-0.5,0c0.1,0.1,0.2,0.2,0.4,0.2c0,0,0,0,0.1,0c0,0,0,0,0.6,0l1.5,0.3
					L590.6,405.4 M589.7,404.2c0,0.3,0.1,0.7,0.2,0.9C589.8,404.9,589.7,404.6,589.7,404.2 M611.4,392.2l1.9-0.2
					c0.7,0.5,1.2,1.7,0.9,3.3l-2.6,16.4c0,0,0,0.1,0,0.1l-8.9,56.2c-0.3,1.3-1.1,2.4-1.8,3l-0.2,0l-1.6,0.1l-0.1,0l-20.2-6.7
					l-2.7-1.5c-0.1,0-0.2,0-0.3,0c-1-0.1-1.3-0.9-1.1-2.4l8.4-52.7c0.2-0.9,1-2.7,2.2-2.8l3.8-2.1l0.5,0c0-0.2,0-0.2,0-0.2l-0.6,0
					L611.4,392.2 M624.5,378.9l-43.5,13l-14.2,84.5l39.6,4.8L624.5,378.9"/>
				<path d="M606.5,481.2l-39.6-4.8l14.2-84.5l43.5-13L606.5,481.2 M626.9,376.4l-47.5,14.2L564.7,478l43.3,5.2L626.9,376.4"/>
				<g>
					<defs>
						<polyline id="SVGID_00000181787743578249219260000005576811873820786089_" points="585.4,394.6 614.8,391.9 602.4,471 
							572.8,473.7 585.4,394.6 						"/>
					</defs>
					<clipPath id="SVGID_00000178883233838264170670000005723144032623974576_">
						<use xlink:href="#SVGID_00000181787743578249219260000005576811873820786089_"  style="overflow:visible;"/>
					</clipPath>
					<path style="clip-path:url(#SVGID_00000178883233838264170670000005723144032623974576_);fill:#061123;" d="M613.3,392.1
						l-1.9,0.2l-22.1,10.6l0.6,0c0,0,0,0,0,0.2l0.1,0c0,0,0,0-0.2,0.9c0,0.1,0,0.2,0,0.3c0,0.4,0.1,0.7,0.2,0.9
						c0.1,0.1,0.1,0.2,0.2,0.3c0.5,0,0.5,0,0.5,0l2,0.4l17.8,3.1c0.1,0,0.1,0,0.2,0c0.5,0,1.2,1.4,1.1,2.9l2.6-16.4
						C614.5,393.8,614,392.6,613.3,392.1"/>
					<g style="clip-path:url(#SVGID_00000178883233838264170670000005723144032623974576_);">
						<defs>
							<path id="SVGID_00000126319842939437528070000006308137571770070173_" d="M611.6,412.2l-6.1,38.7l-2.6,16.7
								c-0.4,2.7-2.5,4.5-3.5,3.8l-20.5-6.8l-2.7-1.5c-1.2,0.1-1.6-0.8-1.4-2.4l8.4-52.7c0.2-0.9,1-2.7,2.2-2.8l3.8-2.1l0.6,0
								c0,0,0,0-0.2,0.9c-0.2,0.9,0.4,1.7,0.8,1.7c0,0,0,0,0.6,0l19.3,3.4C611,408.6,611.9,410.4,611.6,412.2"/>
						</defs>
						<clipPath id="SVGID_00000152980244151058139000000003896659189469708217_">
							<use xlink:href="#SVGID_00000126319842939437528070000006308137571770070173_"  style="overflow:visible;"/>
						</clipPath>
						<g style="clip-path:url(#SVGID_00000152980244151058139000000003896659189469708217_);">
							<defs>
								<path id="SVGID_00000120517144368312475280000003531471672350149774_" d="M589.8,403l-0.5,0l-3.8,2.1
									c-1.2,0.1-2,1.9-2.2,2.8l-8.4,52.7c-0.2,1.5,0.1,2.4,1.1,2.4c0.1,0,0.2,0,0.3,0l2.7,1.5l20.2,6.7l0.1,0l-20.3-6.7l1.2-0.1
									c0,0,0,0,0.2-0.9c0.2-0.9,0.9-1.8,1.5-1.8c0,0,0,0,0.6,0l20.9-7.2c0.5-0.1,2-2,2.3-3.8l-2.6,16.7c-0.3,1.7-1.1,3-2,3.6
									l0.2,0c0.7-0.6,1.5-1.6,1.8-3l8.9-56.2c0,0,0-0.1,0-0.1l-0.1,0.3c0.2-1.6-0.5-2.4-1.2-2.4c-0.1,0-0.1,0-0.2,0l-17.6-3.8
									l-1.5-0.3c-0.6,0-0.6,0-0.6,0c0,0,0,0-0.1,0c-0.1,0-0.2-0.1-0.4-0.2c0,0-0.1,0-0.1,0c0,0-0.1-0.1-0.1-0.3
									c-0.1-0.2-0.2-0.6-0.2-0.9c0-0.2,0-0.3,0-0.5C589.8,403.4,589.8,403.2,589.8,403"/>
							</defs>
							<clipPath id="SVGID_00000082345636867359505740000003462910963914540164_">
								<use xlink:href="#SVGID_00000120517144368312475280000003531471672350149774_"  style="overflow:visible;"/>
							</clipPath>
							<g style="clip-path:url(#SVGID_00000082345636867359505740000003462910963914540164_);">
								<defs>
									<polyline id="SVGID_00000145758667453206965730000015247845656006884782_" points="602.9,472.6 570.8,470.6 583.9,401.5 
										616,403.5 602.9,472.6 									"/>
								</defs>
								<clipPath id="SVGID_00000091737342020990679970000002571365374067886007_">
									<use xlink:href="#SVGID_00000145758667453206965730000015247845656006884782_"  style="overflow:visible;"/>
								</clipPath>
								<g style="clip-path:url(#SVGID_00000091737342020990679970000002571365374067886007_);">
									
										<image style="overflow:visible;" width="46" height="72" xlink:href="885294681672D8EB.png"  transform="matrix(1 0 0 1 570.8024 401.545)">
									</image>
								</g>
							</g>
						</g>
						<g style="clip-path:url(#SVGID_00000152980244151058139000000003896659189469708217_);">
							<defs>
								<path id="SVGID_00000157274895010326295860000016771042019522093448_" d="M605.5,450.8c-0.3,1.7-1.7,3.6-2.3,3.8l-20.9,7.2
									c-0.6,0-0.6,0-0.6,0c-0.6,0-1.3,0.9-1.5,1.8c-0.2,0.9-0.2,0.9-0.2,0.9l-1.2,0.1l20.3,6.7l1.6-0.1c0.9-0.6,1.7-1.9,2-3.6
									L605.5,450.8"/>
							</defs>
							<clipPath id="SVGID_00000002365994682733217500000010120172356181405579_">
								<use xlink:href="#SVGID_00000157274895010326295860000016771042019522093448_"  style="overflow:visible;"/>
							</clipPath>
							<g style="clip-path:url(#SVGID_00000002365994682733217500000010120172356181405579_);">
								<defs>
									<polyline id="SVGID_00000086679925870428786510000002752481023623918222_" points="602.9,472.6 576.5,471 580.8,447.9 
										607.3,449.5 602.9,472.6 									"/>
								</defs>
								<clipPath id="SVGID_00000075127253726694924000000001065068513126017698_">
									<use xlink:href="#SVGID_00000086679925870428786510000002752481023623918222_"  style="overflow:visible;"/>
								</clipPath>
								<g style="clip-path:url(#SVGID_00000075127253726694924000000001065068513126017698_);">
									
										<image style="overflow:visible;" width="31" height="25" xlink:href="885294681672D8EE.png"  transform="matrix(1 0 0 1 576.4706 447.9424)">
									</image>
								</g>
							</g>
						</g>
						<g style="clip-path:url(#SVGID_00000152980244151058139000000003896659189469708217_);">
							<defs>
								<path id="SVGID_00000045621457145196120790000014320199530735785096_" d="M592.6,405.8l17.6,3.8c0.1,0,0.1,0,0.2,0
									c0.6,0,1.4,0.8,1.2,2.4l0.1-0.3c0.1-1.5-0.6-2.8-1.1-2.9c-0.1,0-0.1,0-0.2,0L592.6,405.8 M589.9,405.1
									c0.1,0.2,0.1,0.3,0.1,0.3c0,0,0.1,0,0.1,0C590.1,405.3,590,405.2,589.9,405.1 M589.9,403L589.9,403
									c-0.1,0.1-0.1,0.3-0.2,0.7c0,0.2,0,0.4,0,0.5c0-0.1,0-0.2,0-0.3C589.9,403,589.9,403,589.9,403"/>
							</defs>
							<clipPath id="SVGID_00000111175057147645619770000002803772469534142632_">
								<use xlink:href="#SVGID_00000045621457145196120790000014320199530735785096_"  style="overflow:visible;"/>
							</clipPath>
							<g style="clip-path:url(#SVGID_00000111175057147645619770000002803772469534142632_);">
								<defs>
									<polyline id="SVGID_00000141448319717309792300000014937780333411797681_" points="612.2,413.5 587.6,412 589.5,401.9 
										614.1,403.4 612.2,413.5 									"/>
								</defs>
								<clipPath id="SVGID_00000075883062848362319550000016591618423210959542_">
									<use xlink:href="#SVGID_00000141448319717309792300000014937780333411797681_"  style="overflow:visible;"/>
								</clipPath>
								<g style="clip-path:url(#SVGID_00000075883062848362319550000016591618423210959542_);">
									
										<image style="overflow:visible;" width="27" height="12" xlink:href="885294681672D8ED.png"  transform="matrix(1 0 0 1 587.6152 401.8844)">
									</image>
								</g>
							</g>
						</g>
					</g>
				</g>
			</g>
		</g>
	</g>
	<path style="opacity:0.49;fill:#9999FF;enable-background:new    ;" d="M767.7,455.7c-23.3-23.3-17.7-27.2-17.7-27.2l-12,14.4
		C682.7,498.4,562.4,507,562.4,507c81.7,21.8,157.6-25.4,183.9-44.5l46.9,96l3.4-8.2C786.1,517.7,766.5,476.3,767.7,455.7z"/>
	<circle style="fill:#FFFFFF;" cx="808.5" cy="338.5" r="10.5"/>
	<path style="fill:none;stroke:#000033;stroke-width:4;stroke-linecap:round;stroke-miterlimit:10;" d="M761.6,455.7
		c0,0,13.6,46.6,36.4,91.3c0,0-18.7,41.5-16.8,56.4"/>
</g>										"/>
	
	<g id="head">


		<g id="f1_00000016059469452149035980000008862047925259587208_" style="display:none;">
			<path style="display:inline;fill:#FDD597;stroke:#000000;stroke-width:4;stroke-miterlimit:10;" d="M721.1,205.7L718,290
				c0,0-43,36.6-92.5,31.2l-22.3-137L721.1,205.7z"/>
			<path style="display:inline;fill:#FDD597;stroke:#000000;stroke-width:4;stroke-miterlimit:10;" d="M549.3,94.4v73.1
				c0,0-9.6,107.5,15.3,133.3c24.9,25.8,140.3,9.4,155.6-28.5s6.6-81.1,6.6-81.1s30.7-35.1,26.3-50.4s-26.7-1.8-26.7-1.8l-3.3-68.3
				L549.3,94.4z"/>
			<path style="display:inline;fill:#FDD597;stroke:#000000;stroke-width:2;stroke-linecap:round;stroke-miterlimit:10;" d="
				M594.5,186.4c0,0-11.4,15-9.7,22s18.4,3.6,18.4,3.6"/>
			<path style="display:inline;fill:#FDD597;stroke:#000000;stroke-width:2;stroke-linecap:round;stroke-miterlimit:10;" d="
				M585.3,263.6c0,0,51.6,10.8,83.5-40.7"/>
			<g style="display:inline;">
				<polygon style="fill:#E6BA87;" points="643.3,83.9 639,83.9 642.2,86.4 				"/>
			<path  style="fill:#E6BA87;" d="M720.2,167.5l-12.9,10.1l-15.3-69.1l-26.1-3.9l10.4,60.5c0,0,3.2,33.8,0.5,50.8
				c0,0-0.4,81.1-54.1,88.5c0,0,59.3,3,80.6-24.4c21.3-27.3,17.6-97.1,17.6-97.1L720.2,167.5z"/>
			</g>
			<path style="display:inline;fill:#061123;" d="M726.8,55.5L726.8,55.5c0-0.1-13.4-5.6-34.7-11.1l0,0l0,0
				c-24.8-6.4-60.2-12.8-97.4-10.6c0,0-36.9,0-59.9,33.9l32.3-14.8c0,0-35.9,31.4-41.1,39.5c0,0,29,24.2,73.8,15.6
				c39.2-7.6,55.6-18.5,54.8-19.7c2.1,2.2,17.2,15.3,39.5,13.2l13.2,63.6l13.2-2.2c8.5-28.6,12.9-27.7,12.9-27.7V57.6L726.8,55.5z"
				/>
			<g style="display:inline;">
				<path style="fill:#061123;" d="M733.4,168c-0.1,0-0.2,0-0.3-0.1c-0.6-0.2-0.9-0.8-0.7-1.4c0.6-1.9,0.6-3.3,0-4.1
					c-0.7-0.9-2.3-0.8-2.3-0.8l-1.9,0.1l0.8-1.7c3.2-6.7,9.2-12.6,9.4-12.9c0.4-0.4,1.1-0.4,1.5,0s0.4,1.1,0,1.5
					c-0.1,0.1-5.1,5.1-8.3,10.8c0.8,0.2,1.7,0.6,2.4,1.5c1.1,1.4,1.2,3.4,0.4,6.1C734.3,167.7,733.8,168,733.4,168z"/>
			</g>
			<g style="display:inline;">
				<g id="f1_00000074440926601364468990000000820467036039780015_" display="none">
					<g>
						<path style="fill:#FFFDF8;stroke:#000000;stroke-miterlimit:10;" d="M615,170.5c0,0,14.7-19.6,29.6-14
							c14.9,5.7,18.6,14,18.6,14S639.1,191,615,170.5z"/>
						<path d="M646.8,168.3c0-1.8,1.5-3.3,3.3-3.3c0.2,0,0.5,0,0.7,0.1c-0.9-2.6-3.3-4.5-6.2-4.5c-3.6,0-6.6,2.9-6.6,6.6
							s2.9,6.6,6.6,6.6c2,0,3.7-0.9,4.9-2.2C648,171.2,646.8,169.9,646.8,168.3z"/>
					</g>
					<g>
						<path style="fill:#FFFDF8;stroke:#000000;stroke-miterlimit:10;" d="M553.6,175c0,0,13.8-19.6,27.8-14c14,5.7,17.4,14,17.4,14
							S576.2,195.6,553.6,175z"/>
						<path d="M583.4,172.8c0-1.8,1.4-3.3,3.1-3.3c0.2,0,0.5,0,0.7,0.1c-0.8-2.6-3.1-4.5-5.8-4.5c-3.4,0-6.2,2.9-6.2,6.6
							s2.8,6.6,6.2,6.6c1.8,0,3.5-0.9,4.6-2.2C584.5,175.8,583.4,174.5,583.4,172.8z"/>
					</g>
					<polygon style="fill:#061123;" points="557.8,155.5 588.7,147.5 588.7,140.6 557.8,151.4 					"/>
					<polygon style="fill:#061123;" points="628.5,134.5 663.3,143.1 665.9,149 629.4,140.9 					"/>
								<animate  accumulate="none" additive="replace" attributeName="display" begin="0s" 
			calcMode="linear" dur="7s" fill="remove" id="head" 
			keyTimes="0;0.9;1" repeatCount="indefinite" restart="always" values="inline;none;none">
			</animate>
				</g>
				<g id="f2_00000064332037746918022280000005022250908084284050_"  display="none">
					<g>
						<path style="fill:#FDD597;stroke:#000000;stroke-miterlimit:10;" d="M644.6,156.5c-14.9-5.7-29.6,14-29.6,14
							c24.1,20.5,48.2,0,48.2,0S659.6,162.2,644.6,156.5z"/>
						<path style="fill:#E6BA87;" d="M619.7,169c0,0,14,9.7,38.7,1.1c0,0-12.4-10.3-22.3-9.5C626.1,161.5,619.7,169,619.7,169z"/>
					</g>
					<g>
						<path style="fill:#FDD597;stroke:#000000;stroke-miterlimit:10;" d="M580.2,160.8c-14.9-5.7-29.6,14-29.6,14
							c24.1,20.5,48.2,0,48.2,0S595.1,166.5,580.2,160.8z"/>
						<path style="fill:#E6BA87;" d="M555.2,173.3c0,0,14,9.7,38.7,1.1c0,0-12.4-10.3-22.3-9.5C561.6,165.8,555.2,173.3,555.2,173.3
							z"/>
					</g>
					<polygon style="fill:#061123;" points="621.4,140.6 660.5,141.7 660.5,147.8 621.4,147 					"/>
					<polygon style="fill:#061123;" points="557.9,151.6 591.3,144.4 591.8,150.1 558.2,155.3 					"/>
														<animate  accumulate="none" additive="replace" attributeName="display" begin="0s" 
			calcMode="linear" dur="7s" fill="remove" id="head" 
			keyTimes="0;0.9;1" repeatCount="indefinite" restart="always" values="none;inline;none">
			</animate>
				</g>
		
			</g>
				
			<animate  accumulate="none" additive="replace" attributeName="display" begin="0s" 
			calcMode="linear" dur="5s" fill="remove" id="head" 
			keyTimes="0;0.5;1" repeatCount="indefinite" restart="always" values="inline;none;none">
			</animate>
		</g>


		<g id="f2_00000133498652897009046370000013247574796147804069_" style="display:none;">
			<path style="display:inline;fill:#FDD597;stroke:#000000;stroke-width:4;stroke-miterlimit:10;" d="M721.1,191.4l-2,98.6
				c0,0-34.7,32.5-92.1,31.3l-14.4-106.6L721.1,191.4z"/>
			<path style="display:inline;fill:#FDD597;stroke:#000000;stroke-width:4;stroke-miterlimit:10;" d="M565.3,102.8l-5.7,62
				c0,0,14.4,16.3,12.2,19c-2.2,2.8-22.1,20.6-18.6,25.1s9.2,3.8,9.2,3.8s0,86.6,12.7,94.8s95.6,7.1,116-10.1s19.4-96.8,19.4-96.8
				s33.5-28.6,38.7-43c8.6-23.7-10.2-24.4-30.1-19.4l2-76.6l-153.6,9L565.3,102.8z"/>
			<path style="display:inline;fill:#061123;" d="M520.9,89.2c0,0,55.2,35.2,133.7,35.2l14-1.1l1.1,49.5H688
				c0,0,12.9-35.5,44.1-36.6l-0.8-79.3c0,0-105.4-42.5-178.8-1.4l21.5,5.4C574,60.9,529.2,78.7,520.9,89.2z"/>
			<path style="display:inline;fill:#FDD597;stroke:#000000;stroke-width:2;stroke-linecap:round;stroke-miterlimit:10;" d="
				M724.5,152.4c0,0-10.9,6.7-13.5,20c0,0,11.7-3.3,9.4,3.4"/>
			<g style="display:inline;">
				<path style="fill:#FFFFFF;stroke:#000000;stroke-width:2;stroke-miterlimit:10;" d="M573.3,160.6c0,0,20,0.3,35.1,20.7h-29
					C579.3,181.3,571.6,173.2,573.3,160.6z"/>
				<path d="M573.3,149c0,0,22.2,1.3,35.1,13v2.8c0,0-22.3-11.9-35.3-9.6L573.3,149z"/>
				<path d="M579.3,172.7c-1.2,0-2.2-1.2-2.2-2.7s1-2.7,2.2-2.7c0.1,0,0.2,0,0.2,0c-1-2.1-2.5-3.4-4-3.2c-2,0.3-3.2,3.5-2.6,7
					c0.6,3.5,2.7,6.1,4.8,5.7c1.6-0.3,2.6-2.2,2.8-4.6C580.2,172.6,579.8,172.7,579.3,172.7z"/>
			</g>
			<path style="display:inline;fill:none;stroke:#000000;stroke-width:2;stroke-linecap:round;stroke-miterlimit:10;" d="
				M576.6,264.5c0,0,30.2,10.5,50-29.4"/>
			<path style="display:inline;fill:#E6BA87;" d="M696.8,175.7l-28.2,2.4l-5.4-46.7l-4.9,0.1l0,0H638l2.9,44.2l6.3,8.2l-3.9,7.5
				c0,0,23.8,58.5-20.6,94.6l0,0c-11.1,8.2-25.1,13.7-42.3,13.6c0,0,30.1,12.3,78-1.4C706.2,284.6,696.8,175.7,696.8,175.7z"/>
					<animate  accumulate="none" additive="replace" attributeName="display" begin="0s" 
			calcMode="linear" dur="5s" fill="remove" id="head" 
			keyTimes="0;0.5;1" repeatCount="indefinite" restart="always" values="none;inline;none">
			</animate>
		</g>
		
	</g>
	<g id="legs">
		<g id="f1" style="display:none;">
			
				<linearGradient id="SVGID_00000093154819343553609250000003651450081803194270_" gradientUnits="userSpaceOnUse" x1="500.1906" y1="149.5126" x2="774.0344" y2="149.5126" gradientTransform="matrix(0.9772 -0.2122 -0.2122 -0.9772 25.4515 1305.1405)">
				<stop  offset="0.3425" style="stop-color:#CCCCFF"/>
				<stop  offset="0.9574" style="stop-color:#6699FF"/>
				<stop  offset="1" style="stop-color:#CCCCDC"/>
			</linearGradient>
			
				<path style="display:inline;fill:url(#SVGID_00000093154819343553609250000003651450081803194270_);stroke:#000033;stroke-width:4;stroke-miterlimit:10;" d="
				M663.5,787.3c-98.2-4.3-195,67.3-195,67.3c-14.9,6.2-20.8,37.8-20.8,37.8l41.4,67.6c0,0,130.3,207.6,156.9,222.6
				s42.5,54.9,48.7,57.5c5,2.1,2.4-32.7-4.4-55.6l0,0l0,0c-0.9-2.9-1.8-5.7-2.8-8.1l-19.7-56.3c0.3-1.2-0.1-2.1-1-3l0,0l0,0
				c-5.6-5.1-30.2-5-40.6-11.4c-12.2-7.4-35.6-100.3-38.8-139c-3.2-38.8-56-50.3-56-50.3c28.3-12.2,103.6-14.9,144.4-9.4
				c0,0,34.7,7.7,39.5-40.3c4.8-48.1-17.7-86-17.7-86L663.5,787.3z"/>
			<path style="display:inline;opacity:0.49;fill:#9999FF;enable-background:new    ;" d="M697.4,780.8l-33.9,6.5
				c-20-0.9-39.9,1.4-58.9,5.5l2.1,5.2c0,0-98.8,27.6-138.9,74.6c0,0-9.2,13.8-8,19.5c1.1,5.7,73.4,126.3,73.4,126.3l-7-0.5
				c40.6,62.6,102.4,154.9,119.8,164.7c26.6,15,42.5,54.9,48.7,57.5c5,2.1,2.4-32.7-4.4-55.6c-0.9-2.9-1.8-5.7-2.8-8.1l-19.7-56.3
				c0.3-1.2-0.1-2.1-1-3l0,0l0,0c-5.6-5.1-30.2-5-40.6-11.4c-10.9-6.7-30.9-81.8-37.2-125.3l-3.9,3.4c0,0-2.3-34.5-67.8-64.3l-8-5.7
				c0,0,62.4-25.4,114.5-14.4c7.1,1.5,12.7,3.2,17.1,5c12.9,0.3,24.9,1.2,34.9,2.6c0,0,34.7,7.7,39.5-40.3
				C719.9,818.7,697.4,780.8,697.4,780.8z"/>
			<g style="display:inline;">
				<path style="fill:#061123;" d="M687.3,1176.5l-19.7-56.3c0.3-1.2-0.1-2.1-1-3l0,0l0,0c-5.6-5.1-30.2-5-40.6-11.4
					c-11.9-7.2-34.3-95.1-38.5-135.6c-16.4,5.5-57.4,11.4-82.6,14.7c35.5,55.6,120.3,186,141.1,197.8c26.6,15,42.5,54.9,48.7,57.5
					c5,2.1,2.4-32.7-4.4-55.6C689.3,1181.7,688.3,1179,687.3,1176.5z"/>
			</g>
			
				<linearGradient id="SVGID_00000178173960483437637510000012588352129534192260_" gradientUnits="userSpaceOnUse" x1="671.3195" y1="366.5018" x2="895.5458" y2="463.6308" gradientTransform="matrix(1 0 0 -1 0 1474)">
				<stop  offset="0.3425" style="stop-color:#CCCCFF"/>
				<stop  offset="0.9574" style="stop-color:#6699FF"/>
				<stop  offset="1" style="stop-color:#CCCCDC"/>
			</linearGradient>
			
				<path style="display:inline;fill:url(#SVGID_00000178173960483437637510000012588352129534192260_);stroke:#000033;stroke-width:4;stroke-miterlimit:10;" d="
				M726.1,1313.6c0.2,19.6-2,56-17,95c-5.4,18.1-13,25.6-14.1,25.6s-3.2-9.8-3.2-9.8c-4.1-21.2-9.5-67.2-9.5-67.2l-12.5-110.1
				L648,1044.4c-15.4-29.8-10-55-10-55l0.2,0.6c-51.2-156.4-17.3-197.7-17.3-197.7L736,773.9c14.9,14.9,17.1,46.9,17.1,46.9
				s-64.1,184.4-56.8,211.4c7.4,27,43.3,50.7,36.6,81.6c-5.7,26.6-28.3,98-27,130.3c0,0,1.9,35.3,12.6,43.6c2.6,2,4.2,4.3,5,6.7
				C723.6,1294.5,726.2,1309,726.1,1313.6z"/>
			<path style="display:inline;opacity:0.49;fill:#9999FF;enable-background:new    ;" d="M645,989.4c0,0-5.5,25.2,10,55l7.9,73.8
				c5.9-0.2,11.9-0.5,17.8-0.9c-4.6-41.2-8.1-62-8.1-62s-13.1-44.8-23.6-96.9c-7.7-38.3,12.8-128.3,24.3-173.3l-45.4,7.3
				c0,0-27.3,58.5,17.3,197.7L645,989.4z"/>
			<path style="display:inline;fill:#061123;" d="M655.6,1115l14.2,132.1l12.5,110.1c0,0,5.4,46,9.5,67.2c0,0,2.1,9.8,3.2,9.8
				c1.1,0,8.7-7.5,14.1-25.6c14.9-39,17.1-75.4,17-95c0.1-4.6-2.5-19.1-2.5-19.1c-0.8-2.4-3.1-4-5-6.7
				c-13.2-18.9-12.6-43.6-12.6-43.6c-1.3-32.4,21.2-103.8,27-130.3c0.6-2.9,0.9-5.8,0.8-8.6C704.4,1113.7,673,1115,655.6,1115z"/>
			<path style="display:inline;fill:#061123;" d="M755.9,819.8c0,0-0.1-0.6-0.3-1.6c-0.1-0.6-0.1-1.2-0.2-1.9c0-0.5,0-1.1-0.1-1.8
				c0,0.3,0,0.7,0,1c-0.1-0.8-0.2-1.7-0.3-2.6c0.1,0.6,0.2,1.2,0.3,1.7c-0.8-17.1-6.3-34.7-10.8-46.4c0,0,0,0,0-0.1l0,0
				c-3.2-8.4-5.8-13.7-5.8-13.7l-137.8,20.7c0,0-0.2,1.9-0.5,5.7l0,0c0,0-12.1,34.5,8.6,67.8l2.3,5.7c0,0,0.2-1.8,0.9-4.5
				c0.3,0.5,0.5,0.7,0.5,0.7c0-1.4,0.3-3.2,0.8-5.3c2.5-7.6,7.6-18.4,17.6-25.7c2.7-1.7,5.7-3.3,9.1-4.9
				c25.1-9.6,72.2-20.5,90.6-13.3c0.5,0.2,1.1,0.4,1.6,0.7c0.1,0,0.1,0.1,0.2,0.1c0.5,0.2,1,0.4,1.5,0.7c0,0,0.1,0,0.1,0.1
				c15.8,7.5,21.9,20.2,21.9,20.2S756.1,821.9,755.9,819.8C755.8,819.7,755.9,819.8,755.9,819.8z"/>
			<path style="display:inline;fill:#FFFDF8;" d="M665.7,1125.5h12.6c0,0,10.7,163.7,10.3,170.2s8.7,118.8,8.7,118.8
				s-12.8-51-14.4-77.1S665.7,1125.5,665.7,1125.5z"/>
													<animate  accumulate="none" additive="replace" attributeName="display" begin="0s" 
			calcMode="linear" dur="10s" fill="remove" id="head" 
			keyTimes="0;0.7;1" repeatCount="indefinite" restart="always" values="none;none;none;">
			</animate>
		</g>
		<g id="f2" style="display:none;">
			<g style="display:inline;">
				
					<linearGradient id="SVGID_00000173882442608533913130000012996669250196092343_" gradientUnits="userSpaceOnUse" x1="651.8682" y1="367.6012" x2="876.0945" y2="464.7303" gradientTransform="matrix(1 0 0 -1 0 1474)">
					<stop  offset="0.3425" style="stop-color:#CCCCFF"/>
					<stop  offset="0.9574" style="stop-color:#6699FF"/>
					<stop  offset="1" style="stop-color:#CCCCDC"/>
				</linearGradient>
				
					<path style="fill:url(#SVGID_00000173882442608533913130000012996669250196092343_);stroke:#000033;stroke-width:4;stroke-miterlimit:10;" d="
					M706.6,1312.5c0.2,19.6-2,56-17,95c-5.4,18.1-13,25.6-14.1,25.6s-3.2-9.8-3.2-9.8c-4.1-21.2-9.5-67.2-9.5-67.2L650.4,1246
					l-21.8-202.7c-15.4-29.8-10-55-10-55l0.2,0.6c-51.2-156.4-17.3-197.7-17.3-197.7l115.1-18.4c14.9,14.9,17.1,46.9,17.1,46.9
					s-64.1,184.4-56.7,211.4c7.4,27,43.3,50.7,36.6,81.6c-5.7,26.6-28.3,98-27,130.3c0,0,1.9,35.3,12.6,43.6c2.6,2,4.2,4.3,5,6.7
					C704.2,1293.3,706.7,1307.9,706.6,1312.5z"/>
				<path style="opacity:0.49;fill:#9999FF;enable-background:new    ;" d="M625.5,988.3c0,0-5.5,25.2,10,55l7.9,73.8
					c5.9-0.2,11.9-0.5,17.8-0.9c-4.6-41.2-8.1-62-8.1-62s-13.1-44.8-23.6-96.9C621.8,919,642.3,829,653.8,784l-45.4,7.2
					c0,0-27.3,58.5,17.3,197.7L625.5,988.3z"/>
				<path style="fill:#061123;" d="M636.2,1113.9l14.2,132.1l12.5,110.1c0,0,5.4,46,9.5,67.2c0,0,2.1,9.8,3.2,9.8
					c1.1,0,8.7-7.5,14.1-25.6c14.9-39,17.1-75.4,17-95c0.1-4.6-2.5-19.1-2.5-19.1c-0.8-2.4-3.1-4-5-6.7
					c-13.2-18.9-12.6-43.6-12.6-43.6c-1.3-32.4,21.2-103.8,27-130.3c0.6-2.9,0.9-5.8,0.8-8.6
					C684.9,1112.6,653.5,1113.9,636.2,1113.9z"/>
			</g>
			
				<linearGradient id="SVGID_00000026861289115523700980000014921769153763941045_" gradientUnits="userSpaceOnUse" x1="671.3195" y1="366.5018" x2="895.5458" y2="463.6308" gradientTransform="matrix(1 0 0 -1 0 1474)">
				<stop  offset="0.3425" style="stop-color:#CCCCFF"/>
				<stop  offset="0.9574" style="stop-color:#6699FF"/>
				<stop  offset="1" style="stop-color:#CCCCDC"/>
			</linearGradient>
			
				<path style="display:inline;fill:url(#SVGID_00000026861289115523700980000014921769153763941045_);stroke:#000033;stroke-width:4;stroke-miterlimit:10;" d="
				M726.1,1313.6c0.2,19.6-2,56-17,95c-5.4,18.1-13,25.6-14.1,25.6s-3.2-9.8-3.2-9.8c-4.1-21.2-9.5-67.2-9.5-67.2l-12.5-110.1
				L648,1044.4c-15.4-29.8-10-55-10-55l0.2,0.6c-51.2-156.4-17.3-197.7-17.3-197.7L736,773.9c14.9,14.9,17.1,46.9,17.1,46.9
				s-64.1,184.4-56.8,211.4c7.4,27,43.3,50.7,36.6,81.6c-5.7,26.6-28.3,98-27,130.3c0,0,1.9,35.3,12.6,43.6c2.6,2,4.2,4.3,5,6.7
				C723.6,1294.5,726.2,1309,726.1,1313.6z"/>
			<path style="display:inline;opacity:0.49;fill:#9999FF;enable-background:new    ;" d="M645,989.4c0,0-5.5,25.2,10,55l7.9,73.8
				c5.9-0.2,11.9-0.5,17.8-0.9c-4.6-41.2-8.1-62-8.1-62s-13.1-44.8-23.6-96.9c-7.7-38.3,12.8-128.3,24.3-173.3l-45.4,7.3
				c0,0-27.3,58.5,17.3,197.7L645,989.4z"/>
			<path style="display:inline;fill:#061123;" d="M655.6,1115l14.2,132.1l12.5,110.1c0,0,5.4,46,9.5,67.2c0,0,2.1,9.8,3.2,9.8
				c1.1,0,8.7-7.5,14.1-25.6c14.9-39,17.1-75.4,17-95c0.1-4.6-2.5-19.1-2.5-19.1c-0.8-2.4-3.1-4-5-6.7
				c-13.2-18.9-12.6-43.6-12.6-43.6c-1.3-32.4,21.2-103.8,27-130.3c0.6-2.9,0.9-5.8,0.8-8.6C704.4,1113.7,673,1115,655.6,1115z"/>
			<path style="display:inline;fill:#061123;" d="M755.9,819.8c0,0-0.1-0.6-0.3-1.6c-0.1-0.6-0.1-1.2-0.2-1.9c0-0.5,0-1.1-0.1-1.8
				c0,0.3,0,0.7,0,1c-0.1-0.8-0.2-1.7-0.3-2.6c0.1,0.6,0.2,1.2,0.3,1.7c-0.8-17.1-6.3-34.7-10.8-46.4c0,0,0,0,0-0.1l0,0
				c-3.2-8.4-5.8-13.7-5.8-13.7l-137.8,20.7c0,0-0.2,1.9-0.5,5.7l0,0c0,0-12.1,34.5,8.6,67.8l2.3,5.7c0,0,0.2-1.8,0.9-4.5
				c0.3,0.5,0.5,0.7,0.5,0.7c0-1.4,0.3-3.2,0.8-5.3c2.5-7.6,7.6-18.4,17.6-25.7c2.7-1.7,5.7-3.3,9.1-4.9
				c25.1-9.6,72.2-20.5,90.6-13.3c0.5,0.2,1.1,0.4,1.6,0.7c0.1,0,0.1,0.1,0.2,0.1c0.5,0.2,1,0.4,1.5,0.7c0,0,0.1,0,0.1,0.1
				c15.8,7.5,21.9,20.2,21.9,20.2S756.1,821.9,755.9,819.8C755.8,819.7,755.9,819.8,755.9,819.8z"/>
			<path style="display:inline;fill:#FFFDF8;" d="M665.7,1125.5h12.6c0,0,10.7,163.7,10.3,170.2s8.7,118.8,8.7,118.8
				s-12.8-51-14.4-77.1S665.7,1125.5,665.7,1125.5z"/>
																<animate  accumulate="none" additive="replace" attributeName="display" begin="0s" 
			calcMode="linear" dur="10s" fill="remove" id="head" 
			keyTimes="0;0.7;1" repeatCount="indefinite" restart="always" values="inline;inline;none;">
			</animate>
		</g>
	
	</g>
</g>
</svg>
