<?xml version="1.0" encoding="utf-8"?>
<!-- Generator: Adobe Illustrator 27.1.1, SVG Export Plug-In . SVG Version: 6.00 Build 0)  -->
<svg version="1.1" id="Layer_1" xmlns="http://www.w3.org/2000/svg" xmlns:xlink="http://www.w3.org/1999/xlink" x="0px" y="0px"
	 viewBox="0 0 1987.6 1446.8" style="enable-background:new 0 0 1987.6 1446.8;" xml:space="preserve">
	 	 	 	 <style>

		#captain{
				animation: float 6s ease-in-out infinite;

}

		#Nol{
				animation: float 3s ease-in-out infinite;

}

	 #lineleft1, #lineleft2, #lineleft3, #lineleft4, .lers1, #rightline3, #rightline2, #rightline1{
	  	 	stroke:black;
	fill:none;
	stroke-width: 3;
    stroke-linecap: round;
}

	 #lineleft1, #lineleft2, #lineleft3, #lineleft4{
	  	animation: animate-up 400ms linear infinite;
}
	 #rightline3, #rightline2, #rightline1{
	  	 	animation: animate-up 400ms linear infinite;
}

.linefill{
 	stroke-opacity:1;
}

.array{
 stroke-dasharray: 5 12.5;
}



@keyframes animate-up {
  to {
    stroke-dashoffset: -10;
  }
}
@-webkit-keyframes animate-up {
  to {
    stroke-dashoffset: -10;
  }
}


@keyframes animate-down {
  to {
    stroke-dashoffset: 10;
  }
}
@-webkit-keyframes animate-down {
  to {
    stroke-dashoffset: 10;
  }
}

@keyframes float {
	0% {
		transform: translatey(0px);
	}
	50% {
		transform: translatey(-20px);
	}
	100% {
		transform: translatey(0px);
	}
}


</style>
<g id="c1">
	
		<linearGradient id="cll2_00000002345427705980813510000001054274484247380099_" gradientUnits="userSpaceOnUse" x1="270.0818" y1="1039.0405" x2="822.4153" y2="1039.0405" gradientTransform="matrix(1 0 0 -1 0 1395.5829)">
		<stop  offset="0.804" style="stop-color:#CAB5FF"/>
		<stop  offset="0.9118" style="stop-color:#CAB5FF"/>
	</linearGradient>
	<path id="cll2" style="fill:url(#cll2_00000002345427705980813510000001054274484247380099_);" d="M291.6,442.5l403.9,9.5
		c0,0,125.4,12.4,126.9-34.1s-46.6-60.2-55.7-80.4c-9.1-20-58.8-82.4-108.3-77.6c-49.5,4.8-71.2,29.5-88.3,28
		c-17.1-1.5-37.1-26.2-82.1-7.6c-44.8,18.6-95.9,70.9-119.3,76.6c-23.1,5.7-58.8,2.6-77.3,24.2S254.5,427,291.6,442.5z"/>
</g>
<g>
	
		<linearGradient id="cl1_00000162334059476415489370000016807817773899501740_" gradientUnits="userSpaceOnUse" x1="1262.4614" y1="942.317" x2="1764.1847" y2="942.317" gradientTransform="matrix(1 0 0 -1 0 1395.5829)">
		<stop  offset="0.804" style="stop-color:#CAB5FF"/>
		<stop  offset="0.9118" style="stop-color:#CAB5FF"/>
	</linearGradient>
	<path id="cl1" style="fill:url(#cl1_00000162334059476415489370000016807817773899501740_);" d="M1376.5,552.8
		c0,0-95.4,2.3-109.7-28.5c-14.3-30.7,2.3-109.7,109.7-109.7c0,0,19.1,4.8,35.9-9.5c16.8-14.3,74-66.6,157.5-52.4
		c83.5,14.3,88.3,50.2,116.8,74s93.1,47.8,74,81.1c-19.1,33.3-55,57.2-138.3,45.2C1538.8,541.3,1376.5,552.8,1376.5,552.8z"/>
</g>
<g id="media">
	<g id="left">
		<g id="line_x5F_left1">
			<line id="lineleft1" style="fill:none;" x1="680" y1="151.6" x2="762.6" y2="370"/>
			<g>
				<line style="fill:none;" x1="680" y1="151.6" x2="682.2" y2="157.2"/>
				<line style="fill:none;" x1="686.3" y1="168.2" x2="758.5" y2="358.8"/>
				<line style="fill:none;" x1="760.5" y1="364.4" x2="762.6" y2="370"/>
			</g>
		</g>
		<line id="lineleft2" style="fill:none;" x1="639.7" y1="284.3" x2="715.3" y2="424.4"/>
		<line id="lineleft3" style="fill:none;" x1="496.6" y1="385.2" x2="683.4" y2="498.5"/>
		<line id="lineleft4" style="fill:none;" x1="509.2" y1="238.5" x2="677.6" y2="445.8"/>
	</g>
	<g id="right">
		<line id="rightline3" style="fill:none;" x1="1124.2" y1="236" x2="1004.6" y2="394.8"/>
		<line id="rightline2" style="fill:none;" x1="1249.9" y1="286.3" x2="1069.2" y2="427.3"/>
		<line id="rightline1" style="fill:none;" x1="1214.4" y1="427.3" x2="1069.2" y2="468.4"/>
	</g>
	<g id="sales">
		<g>
			<circle style="fill:#F6F5F8;stroke:#000000;stroke-miterlimit:10;" cx="1283.6" cy="264.9" r="49.9"/>
			<path style="opacity:0.31;fill:#CCCCCC;enable-background:new    ;" d="M1288.7,303.7c-25,0-45.2-20.2-45.2-45.2
				c0-8.1,2.1-15.8,5.8-22.3c-7.4,7.9-12,18.8-12,30.6c0,25,20.2,45.2,45.2,45.2c16.8,0,31.7-9.1,39.4-22.9
				C1313.8,298,1301.9,303.7,1288.7,303.7z"/>
		</g>
		<g>
			<path style="fill:#00A1E0;" d="M1279.4,247.7c1.9-2,4.6-3.3,7.5-3.3c3.9,0,7.3,2.2,9.1,5.4c1.5-0.7,3.3-1.1,5.2-1.1
				c7,0,12.9,5.7,12.9,13c0,7-5.7,13-12.9,13c-0.8,0-1.8-0.1-2.4-0.2c-1.7,2.9-4.7,4.8-8.1,4.8c-1.4,0-2.9-0.3-4.1-1
				c-1.7,3.7-5.4,6.5-9.7,6.5c-4.6,0-8.5-3-10.1-6.9c-0.7,0.1-1.3,0.2-2,0.2c-5.5,0-9.9-4.4-9.9-10.1c0-3.6,2-6.9,5-8.7
				c-0.6-1.4-1-3-1-4.6c0-6.4,5.2-11.6,11.6-11.6C1273.7,243.1,1277.1,244.9,1279.4,247.7"/>
			<path style="fill:#FFFFFF;" d="M1263.3,264.8l0.2-0.7c0-0.1,0.1-0.1,0.1,0l0.2,0.1c0.7,0.4,1.4,0.4,1.5,0.4
				c0.4,0,0.8-0.2,0.8-0.7l0,0c0-0.3-0.4-0.6-1.1-0.7h-0.1c-0.8-0.2-1.7-0.6-1.7-1.5l0,0c0-1,0.8-1.7,1.9-1.7h0.1
				c0.7,0,1.3,0.2,1.8,0.4l0.1,0.1l-0.2,0.7c0,0.1-0.1,0-0.1,0c-0.3-0.2-1.1-0.3-1.5-0.3c-0.4,0-0.8,0.2-0.8,0.6l0,0
				c0,0.3,0.4,0.6,1.2,0.7h0.1c0.8,0.2,1.7,0.6,1.7,1.5l0,0c0,1.1-0.7,1.7-2,1.7c-0.6,0-1.2-0.1-1.8-0.3c-0.1-0.1-0.2-0.1-0.3-0.2
				C1263.3,264.9,1263.3,264.8,1263.3,264.8L1263.3,264.8z M1281.1,264.8l0.2-0.7c0-0.1,0.1-0.1,0.1,0l0.2,0.1
				c0.7,0.4,1.4,0.4,1.5,0.4c0.4,0,0.8-0.2,0.8-0.7l0,0c0-0.3-0.4-0.6-1.1-0.7h-0.1c-0.8-0.2-1.7-0.6-1.7-1.5l0,0
				c0-1,0.8-1.7,1.9-1.7h0.1c0.7,0,1.3,0.2,1.8,0.4l0.1,0.1l-0.2,0.7c0,0.1-0.1,0-0.1,0c-0.3-0.2-1.1-0.3-1.5-0.3
				c-0.4,0-0.8,0.2-0.8,0.6l0,0c0,0.3,0.4,0.6,1.2,0.7h0.1c0.8,0.2,1.7,0.6,1.7,1.5l0,0c0,1.1-0.7,1.7-2,1.7c-0.6,0-1.2-0.1-1.8-0.3
				c-0.1-0.1-0.2-0.1-0.3-0.2C1281.2,264.9,1281.1,264.8,1281.1,264.8L1281.1,264.8z M1294.2,261.5c0.1,0.3,0.1,0.7,0.1,1.1
				c0,0.3,0,0.7-0.1,1.1c-0.1,0.3-0.2,0.6-0.4,0.8c-0.2,0.2-0.4,0.4-0.8,0.6c-0.3,0.1-0.7,0.2-1.1,0.2c-0.3,0-0.8-0.1-1.1-0.2
				c-0.3-0.1-0.6-0.3-0.8-0.6c-0.2-0.3-0.3-0.6-0.4-0.8c-0.1-0.2-0.1-0.7-0.1-1.1c0-0.3,0-0.7,0.1-1.1c0.1-0.3,0.2-0.6,0.4-0.8
				c0.2-0.2,0.4-0.4,0.8-0.6c0.3-0.1,0.7-0.2,1.1-0.2c0.3,0,0.8,0.1,1.1,0.2c0.3,0.1,0.6,0.3,0.8,0.6
				C1294,261,1294.2,261.2,1294.2,261.5z M1293.3,262.7c0-0.6-0.1-1.1-0.3-1.4c-0.2-0.3-0.6-0.4-1-0.4s-0.8,0.1-1,0.4
				c-0.2,0.3-0.3,0.8-0.3,1.4c0,0.6,0.1,1.1,0.3,1.4s0.4,0.4,1,0.4c0.4,0,0.8-0.1,1-0.4C1293.2,263.7,1293.3,263.3,1293.3,262.7z
				 M1302.7,264.5l0.2,0.7c0,0.1,0,0.1,0,0.1c-0.3,0.1-1,0.2-1.4,0.2c-0.8,0-1.5-0.2-2-0.7c-0.4-0.4-0.7-1.2-0.7-2
				c0-0.3,0-0.7,0.1-1.1c0.1-0.3,0.2-0.6,0.4-0.8c0.2-0.2,0.4-0.4,0.8-0.6c0.3-0.1,0.7-0.2,1.2-0.2c0.2,0,0.4,0,0.7,0
				c0.2,0,0.6,0.1,0.7,0.2c0,0,0.1,0,0.1,0.1l-0.2,0.7c0,0.1-0.1,0.1-0.1,0.1c-0.3-0.1-0.7-0.1-1.1-0.1s-0.8,0.1-1.2,0.4
				c-0.2,0.3-0.3,0.7-0.3,1.3s0.1,1.1,0.4,1.4s0.7,0.4,1.2,0.4c0.2,0,0.3,0,0.6,0C1302.3,264.5,1302.4,264.4,1302.7,264.5
				C1302.6,264.4,1302.7,264.4,1302.7,264.5L1302.7,264.5z M1307.8,261.3c0.2,0.8,0.1,1.4,0.1,1.5s-0.1,0.1-0.1,0.1h-3.4
				c0,0.4,0.1,0.8,0.3,1.2c0.2,0.2,0.6,0.3,1.2,0.3c0.8,0,1.2-0.1,1.4-0.2c0,0,0.1,0,0.1,0.1l0.2,0.6c0,0.1,0,0.1,0,0.1
				c-0.2,0.1-0.7,0.3-1.8,0.3c-0.4,0-1-0.1-1.3-0.2c-0.3-0.1-0.6-0.3-0.8-0.6s-0.3-0.6-0.4-0.8c-0.1-0.3-0.1-0.7-0.1-1.1
				c0-0.3,0-0.7,0.1-1.1c0.1-0.3,0.2-0.6,0.4-0.8c0.2-0.2,0.4-0.4,0.8-0.6c0.3-0.1,0.7-0.2,1.2-0.2c0.3,0,0.7,0.1,1,0.2
				c0.2,0.1,0.4,0.2,0.7,0.4C1307.6,260.8,1307.8,261.1,1307.8,261.3L1307.8,261.3z M1304.4,262h2.4c0-0.3-0.1-0.6-0.2-0.8
				c-0.2-0.3-0.4-0.4-1-0.4c-0.6,0-0.8,0.2-1,0.4C1304.5,261.4,1304.5,261.8,1304.4,262L1304.4,262z M1280.2,261.3
				c0.2,0.8,0.1,1.4,0.1,1.5s-0.1,0.1-0.1,0.1h-3.4c0,0.4,0.1,0.8,0.3,1.2c0.2,0.2,0.6,0.3,1.2,0.3c0.8,0,1.2-0.1,1.4-0.2
				c0,0,0.1,0,0.1,0.1l0.2,0.6c0,0.1,0,0.1,0,0.1c-0.2,0.1-0.7,0.3-1.8,0.3c-0.4,0-1-0.1-1.3-0.2c-0.3-0.1-0.6-0.3-0.8-0.6
				c-0.2-0.3-0.3-0.6-0.4-0.8c-0.1-0.3-0.1-0.7-0.1-1.1c0-0.3,0-0.7,0.1-1.1c0.1-0.3,0.2-0.6,0.4-0.8c0.2-0.2,0.4-0.4,0.8-0.6
				s0.7-0.2,1.2-0.2c0.3,0,0.7,0.1,1,0.2c0.2,0.1,0.4,0.2,0.7,0.4C1280,260.8,1280.2,261.1,1280.2,261.3L1280.2,261.3z M1276.8,262
				h2.4c0-0.3-0.1-0.6-0.2-0.8c-0.2-0.3-0.4-0.4-1-0.4c-0.6,0-0.8,0.2-1,0.4C1276.9,261.4,1276.9,261.8,1276.8,262z M1270.8,261.9
				l0.6,0.1v-0.1c0-0.4-0.1-0.7-0.2-0.8c-0.2-0.1-0.4-0.2-0.8-0.2c0,0-0.8,0-1.5,0.3l0,0h-0.1l-0.2-0.7c0-0.1,0-0.1,0-0.1
				c0.3-0.2,1.1-0.3,1.1-0.3c0.2,0,0.7-0.1,1-0.1c0.7,0,1.2,0.1,1.5,0.4c0.3,0.3,0.6,0.8,0.6,1.5v3.2c0,0,0,0.1-0.1,0.1
				c0,0-0.1,0-0.2,0.1l-0.8,0.1c-0.3,0.1-0.7,0.1-1.1,0.1c-0.3,0-0.6,0-1-0.1c-0.2-0.1-0.4-0.1-0.7-0.3c-0.2-0.1-0.3-0.3-0.4-0.6
				c-0.1-0.3-0.1-0.4-0.1-0.8c0-0.3,0.1-0.6,0.2-0.8c0.1-0.2,0.3-0.3,0.4-0.6c0.1-0.2,0.4-0.2,0.7-0.3c0.2-0.1,0.6-0.1,0.8-0.1
				L1270.8,261.9L1270.8,261.9z M1269.3,264.4c0,0,0.3,0.2,1.1,0.2c0.4,0,1-0.1,1-0.1V263c0,0-0.4-0.1-1-0.1c-0.7,0-1.1,0.2-1.1,0.2
				c-0.2,0.1-0.3,0.3-0.3,0.7c0,0.1,0,0.3,0.1,0.4C1269.2,264.3,1269.2,264.4,1269.3,264.4z M1298.5,260.1c0,0.1-0.2,0.6-0.2,0.7
				s-0.1,0.1-0.1,0.1s-0.2,0-0.3,0s-0.3,0-0.4,0.1c-0.1,0-0.3,0.1-0.4,0.2c-0.1,0.1-0.2,0.3-0.3,0.4c-0.1,0.2-0.1,0.6-0.1,1v2.5
				c0,0.1,0,0.1-0.1,0.1h-1c-0.1,0-0.1,0-0.1-0.1v-5.2c0-0.1,0-0.1,0.1-0.1h0.8c0.1,0,0.1,0,0.1,0.1v0.3c0.1-0.2,0.3-0.3,0.6-0.4
				c0.2-0.1,0.4-0.1,0.8-0.1c0.2,0,0.4,0.1,0.6,0.1C1298.5,260,1298.5,260,1298.5,260.1L1298.5,260.1z M1290,257.8
				C1290.1,257.8,1290.1,257.8,1290,257.8l-0.2,0.8c0,0,0,0.1-0.1,0c0,0-0.1,0-0.2,0c-0.1,0-0.2,0-0.2,0c-0.1,0-0.2,0-0.3,0
				s-0.2,0.1-0.3,0.2s-0.2,0.2-0.2,0.3c-0.1,0.3-0.2,0.7-0.2,0.8h1.1c0.1,0,0.1,0,0.1,0.1l-0.1,0.7c0,0.1-0.1,0.1-0.1,0.1h-1.2
				l-0.7,4.3c-0.1,0.4-0.2,0.8-0.3,1.2c-0.1,0.3-0.2,0.6-0.4,0.8c-0.2,0.2-0.3,0.3-0.6,0.4c-0.2,0.1-0.4,0.1-0.8,0.1
				c-0.1,0-0.3,0-0.4,0c-0.1,0-0.2,0-0.3-0.1c0,0-0.1-0.1,0-0.1l0.2-0.7c0-0.1,0.1,0,0.1,0l0.2,0.1c0.1,0,0.2,0,0.2,0
				c0.1,0,0.3,0,0.3-0.1c0.1,0,0.2-0.1,0.3-0.2c0.1-0.1,0.1-0.2,0.2-0.4c0.1-0.2,0.1-0.6,0.2-0.8l0.8-4.3h-0.7c-0.1,0-0.1,0-0.1-0.1
				l0.1-0.7c0-0.1,0.1-0.1,0.1-0.1h0.8v-0.2c0.1-0.7,0.3-1.2,0.7-1.5c0.4-0.3,0.8-0.4,1.4-0.4c0.2,0,0.3,0,0.4,0
				C1289.9,257.7,1290,257.7,1290,257.8L1290,257.8z M1274.6,265.3C1274.6,265.3,1274.5,265.4,1274.6,265.3l-1.1,0.1
				c-0.1,0-0.1,0-0.1-0.1v-7.3c0,0,0-0.1,0.1-0.1h1c0.1,0,0.1,0,0.1,0.1V265.3z"/>
		</g>
	</g>
	<g id="linked">
		<g>
			<circle style="fill:#F6F5F8;stroke:#000000;stroke-miterlimit:10;" cx="1142.5" cy="197.8" r="48"/>
			<path style="opacity:0.31;fill:#CCCCCC;enable-background:new    ;" d="M1147.5,235.2c-24.1,0-43.7-19.5-43.7-43.7
				c0-7.8,2.1-15.3,5.7-21.5c-7.2,7.7-11.4,18.2-11.4,29.4c0,24.1,19.5,43.7,43.7,43.7c16.3,0,30.4-8.8,38-22
				C1171.6,229.7,1160.2,235.2,1147.5,235.2z"/>
		</g>
		<g>
			<g>
				<path style="fill:#2A66B2;" d="M1132.7,179.1c0,2.3-1.4,4.2-4.2,4.2c-2.4,0-4.2-1.9-4.2-4c0-2.3,1.7-4.3,4.2-4.3
					C1131,174.8,1132.7,176.8,1132.7,179.1z"/>
				<rect x="1124.2" y="185.5" style="fill:#2A66B2;" width="8.4" height="27.3"/>
				<path style="fill:#2A66B2;" d="M1152.9,185.9c-4.3,0-6.9,2.4-7.9,4.2h-0.2l-0.3-3.5h-7.6c0,2.3,0.2,5.1,0.2,8.1v18.2h8.4v-15.1
					c0-0.9,0-1.4,0.2-2.1c0.7-1.4,1.7-3.3,4-3.3c3,0,4.2,2.4,4.2,5.8v14.5h8.4v-15.6C1162.1,189.3,1158.1,185.9,1152.9,185.9z"/>
			</g>
		</g>
	</g>
	<g id="slack">
		<g>
			<circle style="fill:#F6F5F8;stroke:#000000;stroke-miterlimit:10;" cx="1242.9" cy="411.3" r="48.6"/>
			<path style="opacity:0.31;fill:#CCCCCC;enable-background:new    ;" d="M1247.8,449.2c-24.3,0-44.1-19.8-44.1-44.1
				c0-7.9,2-15.5,5.7-21.8c-7.2,7.7-11.7,18.3-11.7,29.7c0,24.3,19.8,44.1,44.1,44.1c16.4,0,30.8-9,38.4-22.3
				C1272.4,443.6,1260.7,449.2,1247.8,449.2z"/>
		</g>
		<g>
			<path style="fill:#E1185A;" d="M1214.4,418.5c0.3,7.7,11.4,7.7,11.8,0v-5.8h-5.8C1217.2,412.6,1214.4,415.3,1214.4,418.5z"/>
			<path style="fill:#2BB77D;" d="M1250,409.5c3.2,0,5.8-2.5,5.8-5.8v-14.9c-0.3-7.7-11.4-7.7-11.8,0v14.9
				C1244,407,1246.7,409.5,1250,409.5z"/>
			<path style="fill:#E1185A;" d="M1235.1,412.6c-3.2,0-5.8,2.5-5.8,5.8v14.9c0.3,7.7,11.4,7.7,11.8,0v-14.9
				C1241,415.3,1238.4,412.6,1235.1,412.6z"/>
			<path style="fill:#2BB77D;" d="M1270.4,403.7c-0.3-7.7-11.4-7.7-11.8,0v5.8h5.8C1267.9,409.5,1270.4,407,1270.4,403.7z"/>
			<path style="fill:#33C6F1;" d="M1220.5,409.5h14.9c7.7-0.3,7.7-11.4,0-11.8h-14.9C1212.7,398.1,1212.7,409.2,1220.5,409.5z"/>
			<path style="fill:#EDB429;" d="M1250,427.3h-5.8v5.8c0,3.2,2.5,5.8,5.8,5.8C1257.7,438.8,1257.7,427.7,1250,427.3z"/>
			<path style="fill:#EDB429;" d="M1264.6,412.6h-14.9c-7.7,0.3-7.7,11.4,0,11.8h14.9C1272.4,424.1,1272.4,413,1264.6,412.6z"/>
			<path style="fill:#33C6F1;" d="M1235.1,383.1c-7.7,0.3-7.7,11.4,0,11.8h5.8V389C1241,385.8,1238.4,383.1,1235.1,383.1z"/>
		</g>
	</g>
	<g id="gmail">
		<g>
			
				<ellipse style="fill:#F6F5F8;stroke:#000000;stroke-width:1;stroke-miterlimit:9.9983;" cx="657" cy="105.9" rx="48.3" ry="48.3"/>
			<path style="opacity:0.31;fill:#CCCCCC;enable-background:new    ;" d="M661.9,143.6c-24.2,0-43.9-19.6-43.9-43.9
				c0-7.9,2-15.3,5.7-21.6c-7.2,7.7-11.6,18.3-11.6,29.6c0,24.2,19.6,43.9,43.9,43.9c16.4,0,30.7-8.8,38.2-22.2
				C686.3,138.1,674.9,143.6,661.9,143.6z"/>
		</g>
		<g>
			<path style="fill:#E75A4D;" d="M681.9,86.5c2.6,0,4.8,2.1,4.8,4.8v1.4l-6.7,4.8l-22.9,15.8l-23-16v32.1h-1.8
				c-2.6,0-4.8-2.1-4.8-4.8V91.4c0-2.6,2.1-4.8,4.8-4.8L657,105L681.9,86.5L681.9,86.5L681.9,86.5z"/>
			
				<linearGradient id="SVGID_1_" gradientUnits="userSpaceOnUse" x1="-185.3402" y1="148125.6719" x2="1604.0857" y2="148125.6719" gradientTransform="matrix(1.772698e-02 0 0 1.772698e-02 644.4442 -2530.1501)">
				<stop  offset="0" style="stop-color:#F8F6EF"/>
				<stop  offset="1" style="stop-color:#E7E4D6"/>
			</linearGradient>
			<path style="fill:url(#SVGID_1_);" d="M632.2,86.5l24.7,18.4l24.9-18.4H632.2z"/>
			<path style="fill:#E7E4D7;" d="M633.9,97.5v32.1h46v-32l-23,15.8L633.9,97.5z"/>
			<path style="fill:#B8B7AE;" d="M633.9,129.5l22.9-16.1l-0.1-0.1L633.8,129v0.4L633.9,129.5L633.9,129.5z"/>
			<path style="fill:#B7B6AD;" d="M680,97.6v32l-23-16.1L680,97.6z"/>
			<path style="fill:#B2392F;" d="M686.8,92.6v31.9c-0.1,3.5-1.8,4.7-6.7,4.8V97.4L686.8,92.6L686.8,92.6L686.8,92.6z"/>
			
				<linearGradient id="SVGID_00000111169562154568361010000013720191209435553424_" gradientUnits="userSpaceOnUse" x1="-185.3402" y1="148125.6719" x2="1604.0857" y2="148125.6719" gradientTransform="matrix(1.772698e-02 0 0 1.772698e-02 644.4442 -2530.1501)">
				<stop  offset="0" style="stop-color:#F8F6EF"/>
				<stop  offset="1" style="stop-color:#E7E4D6"/>
			</linearGradient>
			<path style="fill:url(#SVGID_00000111169562154568361010000013720191209435553424_);" d="M632.2,86.5l24.7,18.4l24.9-18.4H632.2z
				"/>
			
				<linearGradient id="SVGID_00000097460783515977745800000008825816214115318936_" gradientUnits="userSpaceOnUse" x1="-185.3402" y1="148125.6719" x2="1604.0857" y2="148125.6719" gradientTransform="matrix(1.772698e-02 0 0 1.772698e-02 644.4442 -2530.1501)">
				<stop  offset="0" style="stop-color:#F8F6EF"/>
				<stop  offset="1" style="stop-color:#E7E4D6"/>
			</linearGradient>
			<path style="fill:url(#SVGID_00000097460783515977745800000008825816214115318936_);" d="M632.2,86.5l24.7,18.4l24.9-18.4H632.2z
				"/>
			
				<linearGradient id="SVGID_00000031912521510579807240000006335794307208335759_" gradientUnits="userSpaceOnUse" x1="-185.3402" y1="148125.6719" x2="1604.0857" y2="148125.6719" gradientTransform="matrix(1.772698e-02 0 0 1.772698e-02 644.4442 -2530.1501)">
				<stop  offset="0" style="stop-color:#F8F6EF"/>
				<stop  offset="1" style="stop-color:#E7E4D6"/>
			</linearGradient>
			<path style="fill:url(#SVGID_00000031912521510579807240000006335794307208335759_);" d="M632.2,86.5l24.7,18.4l24.9-18.4H632.2z
				"/>
			
				<linearGradient id="SVGID_00000107584266817081871430000009692601614343969956_" gradientUnits="userSpaceOnUse" x1="-185.3402" y1="148125.6719" x2="1604.0857" y2="148125.6719" gradientTransform="matrix(1.772698e-02 0 0 1.772698e-02 644.4442 -2530.1501)">
				<stop  offset="0" style="stop-color:#F8F6EF"/>
				<stop  offset="1" style="stop-color:#E7E4D6"/>
			</linearGradient>
			<path style="fill:url(#SVGID_00000107584266817081871430000009692601614343969956_);" d="M632.2,86.5l24.7,18.4l24.9-18.4H632.2z
				"/>
			
				<linearGradient id="SVGID_00000033371041292644088970000001728740986593352855_" gradientUnits="userSpaceOnUse" x1="-185.3402" y1="148125.6719" x2="1604.0857" y2="148125.6719" gradientTransform="matrix(1.772698e-02 0 0 1.772698e-02 644.4442 -2530.1501)">
				<stop  offset="0" style="stop-color:#F8F6EF"/>
				<stop  offset="1" style="stop-color:#E7E4D6"/>
			</linearGradient>
			<path style="fill:url(#SVGID_00000033371041292644088970000001728740986593352855_);" d="M632.2,86.5l24.7,18.4l24.9-18.4H632.2z
				"/>
			
				<linearGradient id="SVGID_00000128458182792674100840000005261895683461085581_" gradientUnits="userSpaceOnUse" x1="-185.3402" y1="148125.6719" x2="1604.0857" y2="148125.6719" gradientTransform="matrix(1.772698e-02 0 0 1.772698e-02 644.4442 -2530.1501)">
				<stop  offset="0" style="stop-color:#F8F6EF"/>
				<stop  offset="1" style="stop-color:#E7E4D6"/>
			</linearGradient>
			<path style="fill:url(#SVGID_00000128458182792674100840000005261895683461085581_);" d="M632.2,86.5l24.7,18.4l24.9-18.4H632.2z
				"/>
			
				<linearGradient id="SVGID_00000078733194358232793770000013844846638346335919_" gradientUnits="userSpaceOnUse" x1="-185.3402" y1="148125.6719" x2="1604.0857" y2="148125.6719" gradientTransform="matrix(1.772698e-02 0 0 1.772698e-02 644.4442 -2530.1501)">
				<stop  offset="0" style="stop-color:#F8F6EF"/>
				<stop  offset="1" style="stop-color:#E7E4D6"/>
			</linearGradient>
			<path style="fill:url(#SVGID_00000078733194358232793770000013844846638346335919_);" d="M632.2,86.5l24.7,18.4l24.9-18.4H632.2z
				"/>
			<path style="fill:#F7F5ED;" d="M632.2,86.5l24.7,18.4l24.9-18.4H632.2z"/>
		</g>
	</g>
	<g id="face">
		<g>
			<circle style="fill:#F6F5F8;stroke:#000000;stroke-miterlimit:10;" cx="480.6" cy="201.2" r="55.2"/>
			<path style="opacity:0.31;fill:#CCCCCC;enable-background:new    ;" d="M486.1,244.3c-27.7,0-50.3-22.4-50.3-50.3
				c0-9,2.4-17.6,6.5-24.8c-8,8.8-13.2,20.9-13.2,33.8c0,27.7,22.4,50.3,50.3,50.3c18.7,0,35-10.2,43.6-25.4
				C514,237.9,500.9,244.3,486.1,244.3z"/>
		</g>
		<path style="fill:#1376EE;" d="M492.2,204.2l2.1-8.8h-9.4v-6.1c0-2.4,1.3-5.2,4.8-5.2h4.2v-9.4h-6.4c-9.1,0-13.5,5.5-13.5,13.3
			v7.3h-7.2v8.8h7.2v23.2c2.1,0.3,4.2,0.7,6.4,0.7c1.4,0,3-0.1,4.4-0.2v-23.4L492.2,204.2L492.2,204.2z"/>
	</g>
	<g id="zen">
		<g>
			<ellipse style="fill:#F6F5F8;stroke:#000000;stroke-width:1;stroke-miterlimit:9.9996;" cx="609.2" cy="253.1" rx="50" ry="50"/>
			<path style="opacity:0.31;fill:#CCCCCC;enable-background:new    ;" d="M614.4,292.1c-25.1,0-45.3-20.2-45.3-45.3
				c0-8.1,2.2-15.8,5.9-22.4c-7.4,8-11.9,18.9-11.9,30.6c0,25.1,20.2,45.3,45.3,45.3c16.8,0,31.7-9.2,39.4-23
				C639.6,286.4,627.6,292.1,614.4,292.1z"/>
		</g>
		<g>
			<ellipse style="fill:#03363D;" cx="609.2" cy="253.1" rx="33.1" ry="33.1"/>
			<path style="fill:#FFFFFF;" d="M608.2,248.1v16.1H595L608.2,248.1z M608.2,242.4c0,3.6-3,6.6-6.6,6.6c-3.6,0-6.6-3-6.6-6.6H608.2
				L608.2,242.4z M610.4,264.1c0-3.6,3-6.6,6.6-6.6c3.6,0,6.6,3,6.6,6.6H610.4z M610.4,258.2v-16h13.2L610.4,258.2z"/>
		</g>
	</g>
	<g id="zoom">
		<g>
			<circle style="fill:#F6F5F8;stroke:#000000;stroke-miterlimit:10;" cx="457.4" cy="360.7" r="50.6"/>
			<path style="opacity:0.31;fill:#CCCCCC;enable-background:new    ;" d="M462.7,400.2c-25.4,0-45.9-20.7-45.9-45.9
				c0-8.3,2.2-16,5.9-22.8c-7.4,8-12.1,19-12.1,31c0,25.4,20.7,45.9,45.9,45.9c17.2,0,32.1-9.2,39.9-23.2
				C488,394.4,476.1,400.2,462.7,400.2z"/>
		</g>
		<g>
			
				<linearGradient id="SVGID_00000087411371913483004860000016053108091075576196_" gradientUnits="userSpaceOnUse" x1="479.5894" y1="3148.1414" x2="479.5894" y2="3115.8127" gradientTransform="matrix(1 0 0 1 0 -2771.1736)">
				<stop  offset="5.586592e-03" style="stop-color:#287CF7"/>
				<stop  offset="1" style="stop-color:#2D8CFF"/>
			</linearGradient>
			<path style="fill:url(#SVGID_00000087411371913483004860000016053108091075576196_);" d="M482.8,344.6c-0.8,0-1.4,0.3-2,0.8
				l-5.4,5.4c-1.2,1.2-1.8,2.6-1.8,4.2v11.2c0,1.5,0.7,3.2,1.8,4.2l5.4,5.4c0.6,0.6,1.2,0.8,2,0.8l0,0c1.5,0,2.8-1.3,2.8-2.8v-13.4
				v-13.4C485.9,345.9,484.6,344.6,482.8,344.6L482.8,344.6z"/>
			
				<linearGradient id="SVGID_00000182523097736047827870000000215593670747235208_" gradientUnits="userSpaceOnUse" x1="449.4678" y1="3148.1279" x2="449.4678" y2="3115.7815" gradientTransform="matrix(1 0 0 1 0 -2771.1736)">
				<stop  offset="5.586592e-03" style="stop-color:#287CF7"/>
				<stop  offset="1" style="stop-color:#2D8CFF"/>
			</linearGradient>
			<path style="fill:url(#SVGID_00000182523097736047827870000000215593670747235208_);" d="M433.3,344.6c-2.2,0-4,1.9-4,4v18.2
				c0,5.6,4.5,10.2,10.2,10.2h26.1c2.2,0,4-1.9,4-4v-18.3c0-5.6-4.5-10.2-10.2-10.2L433.3,344.6L433.3,344.6z"/>
		</g>
	</g>
</g>
<g id="captain">
	<g id="lers">
		<g style="display:none;">
			<path id="_x31__00000144335445928638794620000008194153433981746595_" style="display:inline;fill:#061123;" d="M768.8,366.9
				c0,0,314.2-1.7,308.7,80.9c-5.4,82.6-42.6,157.9,59.2,187.5c101.8,29.6,294.9,69.3,413.3,268.9c0,0-106.5-114.8-237.2-39.8
				s-417.2,254.8-606.1,104.1c0,0-134.6-114.4-231.8-58.4c0,0,22.4-75.7,74.4-137.6S805.1,569,696.4,436.4
				C696.4,436.3,762.5,421.1,768.8,366.9z"/>
			
				<animate  accumulate="none" additive="replace" attributeName="display" begin="0s" calcMode="linear" dur="1s" fill="remove" id="neck" keyTimes="0; 0.11;0.22; 0.33; 0.44; 0.55;0.66;0.77;0.88;1" repeatCount="indefinite" restart="always" values="inline;none;none;none;none;none;none;none;none;none">
				</animate>
		</g>
		<g style="display:none;">
			<path id="_x32__00000026165359060393596750000006436036483253447611_" style="display:inline;fill:#061123;" d="M683.4,647.8
				c-27.8,32.5-29.1,49.1-102.6,90.1c-74.6,27.2-114.9,135.5-114.9,135.5c128.2-73.7,226.2,28.7,317.5,119.7s246.3,73.4,355.8-23.3
				c109.6-96.8,222.4-137.2,222.4-137.2c117.4-59.1,224.6,46.1,224.6,46.1c-63.7-151.4-316.8-133.3-366-131.1
				c-76.4,3.4-95.3-110.1-96.1-255.9C1123.4,351,766.9,365,766.9,365c-18.4,67.7-65.9,74-65.9,74c4.8,2.9,9.4,5.9,13.7,8.7
				C714.4,447.7,780.8,534.2,683.4,647.8z"/>
			
				<animate  accumulate="none" additive="replace" attributeName="display" begin="0s" calcMode="linear" dur="1s" fill="remove" id="neck" keyTimes="0; 0.11;0.22; 0.33; 0.44; 0.55;0.66;0.77;0.88;1" repeatCount="indefinite" restart="always" values="none;inline;none;none;none;none;none;none;none;none">
				</animate>
		</g>
		<g style="display:none;">
			<path id="_x33__00000108297452017237422600000017386221348704612763_" style="display:inline;fill:#061123;" d="M701.6,432.7
				c0,0,40.9-10.7,70.8-54.1c0,0,335,54.8,351.9,119.8c16.9,65,1.5,219.1,113.2,265.1c111.7,46,158.2,29.9,158.2,29.9
				s108.8-21.9,155.8,0.1c12,5.1,45.5,20.7,5.3,14.2c-13.1-2.1-78-4.9-166.7,44.2c-28.9,16.1-60.2,38.5-92.8,70.2
				c-132.1,128.8-358.2,176.8-452.6,89.4S590.1,783.1,492.2,868c0,0,21.9-45.4,55.2-61.1C580.7,791,676,731.3,685.3,613.7
				C691.3,536.2,829.4,468.1,701.6,432.7z"/>
			
				<animate  accumulate="none" additive="replace" attributeName="display" begin="0s" calcMode="linear" dur="1s" fill="remove" id="neck" keyTimes="0; 0.11;0.22; 0.33; 0.44; 0.55;0.66;0.77;0.88;1" repeatCount="indefinite" restart="always" values="none;none;inline;none;none;none;none;none;none;none">
				</animate>
		</g>
		<g style="display:none;">
			<path id="_x34__00000047760046292564210590000015698646271293046698_" style="display:inline;fill:#061123;" d="M936.2,1042.6
				c-39.3-18-98.7-44.7-178-107c0,0-155.4-150.3-297.9-88.3c0,0,27.7-20.2,140.3-69.4c116.3-83.9,48.5-146.5,86.2-212.3
				c40.8-71.4,155.7-21.1,132.1-49.4c-19.6-23.5-86.7-68.3-109.1-82.9c-1.7-1.1-1-3.7,1.1-3.7c11.6-0.4,33-8,50.6-52.4
				c0,0,347.4,4.5,371.4,73.4c24,68.8-36.2,212.1,65,279.3c106.6,71,179.7,71,258.4-5.5c0,0-65.7,178.3-213.5,272.1
				C1242.8,996.1,1058,1098.3,936.2,1042.6z"/>
			
				<animate  accumulate="none" additive="replace" attributeName="display" begin="0s" calcMode="linear" dur="1s" fill="remove" id="neck" keyTimes="0; 0.11;0.22; 0.33; 0.44; 0.55;0.66;0.77;0.88;1" repeatCount="indefinite" restart="always" values="none;none;none;inline;none;none;none;none;none;none">
				</animate>
		</g>
		<g style="display:none;">
			<path id="_x35__00000002358997665010111330000016142835354926029211_" style="display:inline;fill:#061123;" d="M715,430.3
				c0,0,30.8,1,58.3-54.2c0,0,93.3,75.7,177.8,96.2s142.4,36.1,166.4,121.2c24,85.1,51.4,211.8,171,228.2s146.7-108.9,146.7-108.9
				s-5.8,152.7-126.5,245.2c-120.6,92.7-204.9,86.1-344.2,30.4C825,932.5,751,896.3,664,884.3c-90.9-14.7-183.3-53.2-198.6-76.2
				c0,0,145,28.6,193.8-115.7c35.6-105.2,54.1-97.2,35.1-127C675.1,535.6,715,430.3,715,430.3z"/>
			
				<animate  accumulate="none" additive="replace" attributeName="display" begin="0s" calcMode="linear" dur="1s" fill="remove" id="neck" keyTimes="0; 0.11;0.22; 0.33; 0.44; 0.55;0.66;0.77;0.88;1" repeatCount="indefinite" restart="always" values="none;none;none;none;inline;none;none;none;none;none">
				</animate>
		</g>
		<g style="display:none;">
			<path id="_x36__00000131353122141257826060000001119716919102441140_" style="display:inline;fill:#061123;" d="M717.4,421.8
				c0,0,34.2,12.6,74.7-55.2c0,0,45.1,92.7,125.4,106.8c80.2,14.1,229.5,17,242.3,97.9s25.2,272.9,166,261.3
				c0,0,72.5,13.9,102.2-77.4c0,0,30.4,296.3-241.3,247.8c-193.9-34.6-199.9-84.6-293-78.4c-93.1,6.2-333.9,0.7-408-103.8
				c0,0,111.4,1.8,180.2-133.4c58.6-114.9,61.9-122.1,103.1-178.9C703.7,463.7,726.9,483.6,717.4,421.8z"/>
			
				<animate  accumulate="none" additive="replace" attributeName="display" begin="0s" calcMode="linear" dur="1s" fill="remove" id="neck" keyTimes="0; 0.11;0.22; 0.33; 0.44; 0.55;0.66;0.77;0.88;1" repeatCount="indefinite" restart="always" values="none;none;none;none;none;inline;none;none;none;none">
				</animate>
		</g>
		<g id="lers_00000035488807598462239960000018282017630672874161_">
			<path id="_x37__00000103261471360150815990000009449554157743739564_" style="fill:#061123;" d="M793,368.1
				c0,0-9,92.6,112.3,134.9c121.3,42.3,262.8,11.5,305.6,91.2c42.7,79.6,29.7,175.9,108.3,232.2c78.7,56.3,112.3,9.9,141.2-36.8
				c0,0,1.9,219.4-209.7,192.8c-211.7-26.8-232.9-61.6-341.5-36.4c-108.6,25-327.9,62.6-392.4-102.9c0,0,128.3-90,176.8-229.9
				c48.7-140.7,11-130.1,9.2-173.9c-1.7-43.8,133.7,126.3,83.8,99.5c-49.8-26.8-81.3-73.2-73.2-113.7
				C713.6,424.6,764.3,403.2,793,368.1z"/>
			
				<animate  accumulate="none" additive="replace" attributeName="display" begin="0s" calcMode="linear" dur="1s" fill="remove" id="neck" keyTimes="0; 0.11;0.22; 0.33; 0.44; 0.55;0.66;0.77;0.88;1" repeatCount="indefinite" restart="always" values="none;none;none;none;none;none;inline;none;none;none">
				</animate>
		</g>
		<g style="display:none;">
			<path id="_x38__00000085219755221757374820000000005494809209963435_" style="display:inline;fill:#061123;" d="M703.1,419
				c0,0,43.5,1.3,76.9-50.8c0,0,48.7,106.9,155.4,150.3c106.6,43.3,337,6.8,365.6,162.7c28.7,155.9,60.2,179.5,104.1,182.4
				c43.9,2.9,53-42.8,53-42.8s5.6,78.5-30.5,101.9c-36.1,23.4-117.6-1.2-218.7-25.9c-101.1-24.8-264.9,28.3-274.3,33.7
				c-9.4,5.3-327.5,98.4-408.8-61.3l-8.7-26.4c0,0,8.5,1.5,87.9-63.5C712.2,680,747.1,586.8,738.5,532
				c15.5-21.5,35.5-87.1,103.6,18.5C770.6,519.5,685.9,534.7,703.1,419z"/>
			
				<animate  accumulate="none" additive="replace" attributeName="display" begin="0s" calcMode="linear" dur="1s" fill="remove" id="neck" keyTimes="0; 0.11;0.22; 0.33; 0.44; 0.55;0.66;0.77;0.88;1" repeatCount="indefinite" restart="always" values="none;none;none;none;none;none;none;inline;none;none">
				</animate>
		</g>
		<g style="display:none;">
			<path id="_x39__00000010994269693326405750000015161601298066402228_" style="display:inline;fill:#061123;" d="M740.5,405.6
				c0,0,176.2,3.3,223.9-48.7c0,0-126.7,129.1,71.9,220.9s398.5,32.2,430.1,146.8c31.7,114.7-42.2,215.1,36.7,242.1
				c0,0-50.3,35.3-184.8-76.6s-326.1,22.5-326.1,22.5s-104.4,123.9-227.7,78.2c-123.1-45.5-243.1-40.3-243.1-40.3
				s35-86.4,91.1-161.3S740.5,405.6,740.5,405.6z"/>
			
				<animate  accumulate="none" additive="replace" attributeName="display" begin="0s" calcMode="linear" dur="1s" fill="remove" id="neck" keyTimes="0; 0.11;0.22; 0.33; 0.44; 0.55;0.66;0.77;0.88;1" repeatCount="indefinite" restart="always" values="none;none;none;none;none;none;none;none;inline;inline">
				</animate>
		</g>
	</g>
	
		<linearGradient id="body_00000004520973311720048280000006368873559687609231_" gradientUnits="userSpaceOnUse" x1="1012.0989" y1="341.0679" x2="616.4492" y2="1581.1431">
		<stop  offset="0.3425" style="stop-color:#CCCCFF"/>
		<stop  offset="0.9574" style="stop-color:#6699FF"/>
		<stop  offset="1" style="stop-color:#CCCCDC"/>
	</linearGradient>
	
		<path id="body_00000177462758409015817360000012467520329777163145_" style="fill:url(#body_00000004520973311720048280000006368873559687609231_);stroke:#000033;stroke-width:4;stroke-miterlimit:10;" d="
		M1168.7,549c2-15.7-27.7-37-27.7-37c21.3-30.3,14.5-58,3.6-82.8s-91.5-51.8-91.5-51.8l0,0.7c-25.6-28.1-88.8-54.1-150-55.9
		c-67.2-2-145.9,58.8-145.9,58.8l0,0c-21.9,8.1-73.1,28.9-81.6,48.2c-10.9,24.8-17.7,52.5,3.6,82.8c0,0-31.9,21.4-29.8,37
		c2,15.7-8.2,100.2-8.2,100.2s27.4,57.6,93.2,37.8l6.8-25l31.7-40.3c15,22,28.7,122.4,38.4,155.9l0,0c-2.4-0.3-4.3,2.1-3.4,4.4
		l6.8,18.6c-5.4,49.3-31.6,109.7-32.7,131.6c-2,41.1,21.9,90.6,32.6,117.1c-2,7.9-2.9,19.5,2.5,34.5c-3.9,15.4-10.3,35-9.2,54.7
		c1.7,29.3,6.1,115.9,2.5,160.6c-4,49.6,0.8,91.5,0.8,91.5l12.1-11.7c35.5-33,37.5-87.5,37.5-87.5s-13.6-5.1-16-45.9
		c-1.6-26.8,28.2-59.1,33.6-85.2c5.5-26.2-13.8-54.2-13.9-70.2c0-4.5,1.1-14.2,2.6-26c24-78,35-133.1,40-167.7
		c3.9,34.8,12.5,91,31.2,143c2.2,17.4,3.8,33.2,3.7,39.3c-0.3,15.9-20.1,43.7-15.1,70c4.8,26.2,34.1,59,32,85.9
		c-3,40.9-16.7,45.6-16.7,45.6s1,54.5,35.9,88.2l11.9,11.9c0,0,5.6-41.9,2.4-91.4c-2.9-44.7,3.2-131.3,5.4-160.5
		c1.4-19.8-4.7-39.4-8.3-54.9c5.7-15,5-26.6,3.1-34.5c11.1-26.3,35.9-75.3,34.7-116.5c-1-32.7-16.4-50.4-31.8-128.5
		c1-3.9-2.6-7.8-1.6-11.7c-1,0.2,2.7,0.3,1.7,0.5c20.7-40.9,35.7-141.9,50.2-163.5l33.6,42.6l18.7,17.8
		c26.5,14.8,63.3-17.6,63.3-17.6S1166.7,564.6,1168.7,549z"/>
	<g>
		<g>
			<path style="fill:#FDD597;stroke:#000000;stroke-width:4;stroke-miterlimit:10;" d="M1009.7,188.4c-5.4-2-12.2,6.4-15.8,11.9
				l-13.1-93.1c0,0-163.2-10.6-197.4,28.9c0,0-2.1,38.1-4,80.4c-4.1-3.5-12-9.2-15.7-5.5c-4.5,4.5,5.3,31.2,14.3,42.9
				c-0.3,8.8-0.6,17.4-0.8,25.4c0,0-1.9,45.5,8,58.3c9.6,12.4,36.1,28.5,74.5,32.6c38.1,4,105.4-2.3,129.5-33.7
				c21.7-28.2,14.2-68.5,14.2-68.5l-0.3-2.1l-3.1-21.8C1019,234,1017.3,191.2,1009.7,188.4z"/>
			<path style="fill:none;stroke:#000000;stroke-linecap:round;stroke-miterlimit:10;" d="M1005.9,197.8c0,0-5.3,10.6-5.3,21
				c0,0,6.5-5.3,7.8,0c1.3,5.3-2.6,10.6-2.6,10.6"/>
			<path style="fill:none;stroke:#000000;stroke-linecap:round;stroke-miterlimit:10;" d="M769,216.3c0,0,5.3,5.3,7.8,15.8
				c0,0-2.6,3.3,0,8.3"/>
			<path style="fill:#E6BA87;" d="M995.6,260.1l-0.3-2.1l-19.8-156.2c0,0-0.3,2.6-26.3,2.6c6.7,40.6,10.2,117.3,13.2,134.2
				c4,22.6-4,98.7-110.6,123.7c38.1,4,105.4-2.3,129.5-33.7C1003.2,300.5,995.6,260.1,995.6,260.1z"/>
			<path style="fill:#061123;" d="M783.5,136c0,0,101,9.2,139.5-26.3c0,0,38.1,14.4,59.9,11.2l11.2,86.2l15.8-108.4
				c0,0-86.8-46.8-165.7-41.6c0,0-42.1,0-68.3,42.1l36.8-18.4c0,0-45,42.8-47.5,50.4c-2.4,7.5,16,99.6,16,99.6L783.5,136z"/>
		</g>
		<path style="fill:#FDD597;stroke:#000000;stroke-width:2;stroke-linecap:round;stroke-miterlimit:10;" d="M869,205.8
			c0,0-8.6,21-9.5,25c-0.7,2.9,7.4,7.9,13.4,8.7"/>
		<path style="fill:#FDD597;stroke:#000000;stroke-width:2;stroke-linecap:round;stroke-miterlimit:10;" d="M848,308.4
			c0,0,71.1,8,105.2-48.5"/>
	</g>
	<g id="eyes">
		<g id="f1_00000086685058613547482540000012692322039771199935_">
			<g>
				<path style="fill:#FFFDF8;stroke:#000000;stroke-miterlimit:10;" d="M893.6,190.9c0,0,26.3-22,36.9-19.6
					c10.6,2.5,28.9,24.2,28.9,24.2S920.9,209.5,893.6,190.9z"/>
			</g>
			<g>
				<path style="fill:#FFFDF8;stroke:#000000;stroke-miterlimit:10;" d="M868.9,192c0,0-24.7-22-35.3-19.8
					c-10.7,2.1-29.7,23.2-29.7,23.2S841.1,209.7,868.9,192z"/>
			</g>
			<polygon style="fill:#061123;" points="916,147.7 954.2,172.8 954.2,175.6 916,152 			"/>
			<polygon style="fill:#061123;" points="816.8,172 858.2,155.7 858.2,151.4 816.8,169.2 			"/>
			<path d="M931.6,200.4c0.7-1.3,1-2.8,1-4.3c0-0.9-0.1-1.8-0.4-2.7c-0.8,1.1-2.1,1.8-3.5,1.8c-2.4,0-4.4-2-4.4-4.4
				c0-1.6,0.8-2.9,2.1-3.7c-1.1-0.4-2.3-0.7-3.5-0.7c-5.3,0-9.6,4.3-9.6,9.6c0,0.9,0.1,1.8,0.4,2.6
				C918.7,199.3,925.4,200.1,931.6,200.4z"/>
			<path d="M841.8,201.2c0.9-1.5,1.5-3.2,1.5-5.1c0-0.9-0.1-1.8-0.4-2.7c-0.8,1.1-2.1,1.8-3.5,1.8c-2.4,0-4.4-2-4.4-4.4
				c0-1.6,0.8-2.9,2.1-3.7c-1.1-0.4-2.3-0.7-3.5-0.7c-5.3,0-9.6,4.3-9.6,9.6c0,1.7,0.4,3.3,1.2,4.7
				C829.5,201,836.6,201.3,841.8,201.2z"/>
			
				<animate  accumulate="none" additive="replace" attributeName="display" begin="0s" calcMode="linear" dur="7s" fill="remove" id="neck" keyTimes="0; 0.5; 0.899;1" repeatCount="indefinite" restart="always" values="inline;none;none;none">
				</animate>
		</g>
		<g id="f2_00000095323487224456494590000018196611784605587877_">
			<g>
				<path style="fill:#FFFDF8;stroke:#000000;stroke-miterlimit:10;" d="M893.6,190.9c0,0,26.3-22,36.9-19.6
					c10.6,2.5,28.9,24.2,28.9,24.2S920.9,209.5,893.6,190.9z"/>
			</g>
			<g>
				<path style="fill:#FFFDF8;stroke:#000000;stroke-miterlimit:10;" d="M868.9,192c0,0-24.7-22-35.3-19.8
					c-10.7,2.1-29.7,23.2-29.7,23.2S841.1,209.7,868.9,192z"/>
			</g>
			<polygon style="fill:#061123;" points="910,157.9 954.4,168.7 955.3,171.4 911.4,162 			"/>
			<polygon style="fill:#061123;" points="814.7,165.4 859,162.1 860.3,157.9 815.5,162.8 			"/>
			<path d="M932.6,187.5c-2.7,0-4.9-2.2-4.9-4.9c0-1.3,0.5-2.5,1.3-3.4c-0.8-0.2-1.6-0.3-2.5-0.3c-5.3,0-9.6,4.3-9.6,9.6
				c0,5.3,4.3,9.6,9.6,9.6c5.3,0,9.6-4.3,9.6-9.6c0-0.8-0.1-1.6-0.3-2.3C935.1,187,933.9,187.5,932.6,187.5z"/>
			<path d="M840.9,187.5c-2.7,0-4.9-2.2-4.9-4.9c0-1.3,0.5-2.5,1.3-3.4c-0.8-0.2-1.6-0.3-2.5-0.3c-5.3,0-9.6,4.3-9.6,9.6
				c0,5.3,4.3,9.6,9.6,9.6c5.3,0,9.6-4.3,9.6-9.6c0-0.8-0.1-1.6-0.3-2.3C843.3,187,842.2,187.5,840.9,187.5z"/>
			
				<animate  accumulate="none" additive="replace" attributeName="display" begin="0s" calcMode="linear" dur="7s" fill="remove" id="neck" keyTimes="0; 0.5; 0.899;1" repeatCount="indefinite" restart="always" values="none;inline;none;none">
				</animate>
		</g>
		<g id="f3" style="display:none;">
			<path style="display:inline;fill:#FDD597;" d="M890.4,189.3c0,0,22.3-24.2,39.1-20.5c16.7,3.7,30.4,26.3,30.4,26.3
				S919.4,212.6,890.4,189.3z"/>
			<path style="display:inline;fill:#E6BA87;" d="M899.9,181.2c-5.6,4.3-9.4,8-9.4,8c28.7,23.2,69.3,5.7,69.3,5.7s-1-1.4-2.6-3.7
				C937,197.5,912.8,187.8,899.9,181.2z"/>
			<path style="display:inline;fill:#FDD597;" d="M799,194.1c0,0,21.7-26.1,39.7-23.9c18,2.2,34.3,23.6,34.3,23.6"/>
			<path style="display:inline;fill:#E6BA87;" d="M808.1,185.3c-5.5,4.7-9.1,8.9-9.1,8.9c32.5,20.6,74.1-0.4,74.1-0.4
				s-1.1-1.4-3.2-3.4C848.8,198.2,822.5,190.7,808.1,185.3z"/>
			<polygon style="display:inline;fill:#061123;" points="925.2,154.9 926.1,155 960,158.8 960,162.2 915.8,158.4 915.8,154.1 			
				"/>
			<polygon style="display:inline;fill:#061123;" points="810.7,158.1 860.7,156.9 860.7,160.6 810.7,160.6 			"/>
			<g style="display:inline;">
				<path style="fill:#061123;" d="M831.9,204.7c-21.7,0-33.3-8.6-34-9.1c-0.8-0.6-0.9-1.5-0.3-2.3c0.6-0.8,1.5-0.9,2.3-0.3l0,0
					c0.2,0.2,25.6,19,71.5-0.2c0.9-0.3,1.8,0,2.2,0.9c0.3,0.9,0,1.8-0.9,2.2C856.6,202.4,843,204.7,831.9,204.7z"/>
			</g>
			<g style="display:inline;">
				<path style="fill:#061123;" d="M926.2,203.2c-24.9,0-36.3-12-37-12.8c-0.7-0.7-0.6-1.8,0.1-2.3c0.7-0.7,1.8-0.6,2.3,0.1l0,0
					c0.2,0.2,21,21.8,67.6,5.4c0.9-0.3,1.8,0.1,2.1,1c0.3,0.9-0.1,1.8-1,2.1C947,201.5,935.7,203.2,926.2,203.2z"/>
			</g>
			
				<animate  accumulate="none" additive="replace" attributeName="display" begin="0s" calcMode="linear" dur="7s" fill="remove" id="neck" keyTimes="0; 0.5; 0.899;1" repeatCount="indefinite" restart="always" values="none;none;inline;none">
				</animate>
		</g>
	</g>
	<line style="fill:none;" x1="837.6" y1="244" x2="827.4" y2="244"/>
	<g>
		<path style="opacity:0.49;fill:#9999FF;enable-background:new    ;" d="M828.3,1270.1c3.1-40.2,7.7-188.7,7.7-188.7
			s-0.1-32.1-19.3-74.3c-30.3-66.6,9.9-207.4,9.9-207.4l-4.3-21.8c-7.8-2.6-11.8-4.6-11.8-4.6l3.6,16.6
			c-5.4,49.6-26.7,117.1-27.8,139.1c-1.9,41.3,22,91.1,32.8,117.7c-2.1,7.8-3,19.6,2.5,34.7c-3.9,15.6-10.4,35.2-9.2,55
			c1.8,29.4,6.2,116.5,2.5,161.4c-4.1,49.7,0.8,92,0.8,92l8.5-22c5.4-5.1,10.3-16.9,14.3-22.7C830.1,1306.3,827.1,1286,828.3,1270.1
			z"/>
		<path style="opacity:0.49;fill:#9999FF;enable-background:new    ;" d="M1023.3,918.6c-1-32.9-16.4-50.7-32-129.1
			c0.3-1.5,0.7-2.9,1.1-4.3c-9.7,1.4-19,2.5-28,3.4c12,31.1,43.2,117.4,35.4,156.4c-9.6,47.9-23.6,89.7-26.6,100.6
			c-3.1,10.9,0,38.7,0,47.9c0,9.2-1.3,165.5-1.3,165.5l-6.4,98.5c2.5,3.2,5.3,6.3,8.4,9.2l12,12c0,0,5.5-42,2.4-91.9
			c-2.9-44.9,3.1-132,5.4-161.3c1.4-19.8-4.6-39.6-8.3-55.2c5.7-15.1,5.1-26.6,3.1-34.7C999.6,1009.3,1024.5,960,1023.3,918.6z"/>
	</g>
	<g>
		<path style="fill:#061123;" d="M853.6,1322.5c5.2-18.5,5.8-32.9,5.8-32.9s-13.6-5-16.1-46.1c-1.7-27.1,28.3-59.5,33.8-85.6
			c3.1-15-1.8-30.5-6.6-44.1c-26.6,14.9-48.4,16.3-64.3,13.6c-0.2,3-0.1,5.8,0,8.7c1.8,29.4,6.2,116.5,2.5,161.4
			c-2.4,29.3-3.4,52.2-2.4,69.1l0.3,5.9c0,0-1.3,16.6,2.4,21c3.9,4.5,27-22.8,39.4-51.9C852,1333.8,853.5,1327.5,853.6,1322.5z"/>
		<path style="fill:#FFFDF8;" d="M814.8,1291.3l0.4-2.5c-1.2-41.7-5.9-156.1-5.9-156.1c4.2,1,18.7-1,18.7-1l-2.3,32.6
			c0,0-0.1,12.4-0.3,30.3l-3.7,88.6l-3.9,83.5c-0.3,2-0.7,3.7-1,5.3c-0.7,2.6-1.1,4.3-1.1,4.3s0-3.5,0-9
			C807.4,1328.2,814.8,1291.3,814.8,1291.3z"/>
	</g>
	<g>
		<g>
			<path style="fill:#061123;" d="M951.4,1329.4c12,29.3,35.1,59.3,39.1,54.9c3.9-4.3,2.2-23.2,2.2-23.2l0.4-5.9
				c1.3-17.1,0.8-39.8-1.1-69.1c-2.9-44.9,3.3-132,5.6-161.3c0.1-2.9,0.2-5.8,0.1-8.7c-15.8,2.4-37.6,0.4-64-14.9
				c-5.1,13.5-10.3,28.9-7.4,44c5,26.3,34.3,59.3,32.2,86.3c-3.2,41-16.9,45.8-16.9,45.8s0.3,14.4,5.3,33
				C946.9,1315,948.1,1321.3,951.4,1329.4z"/>
		</g>
		<path style="fill:#FFFDF8;" d="M987.9,1284.2l-0.4-2.5c1.2-41.7,5.9-156.1,5.9-156.1c-4.2,1-18.7-1-18.7-1l2.3,32.6
			c0,0,0.1,12.4,0.3,30.3l3.7,88.6l3.9,83.5c0.3,2,0.7,3.7,1,5.3c0.7,2.6,1.1,4.3,1.1,4.3s0-3.5,0-9
			C995.4,1321,987.9,1284.2,987.9,1284.2z"/>
	</g>
	<g>
		<path style="fill:#061123;" d="M802.5,773.1l6.4,16.5l-4,24.2l6.4,5c22,17.5,78.7,52.9,92.7,81.7l4.7-0.2c0,0,45.6-63.1,90.9-84
			v-38.6C899,792.3,815.5,775.9,802.5,773.1z"/>
		<polygon style="fill:#FFFDF8;" points="961.6,790.3 992.6,784.1 992.6,811.4 974.6,816.9 		"/>
	</g>
	<g id="hands">
		<path style="fill:#061123;" d="M1014.9,700.4l112.5-18.9c-1-58.8-55-79.6-55-79.6l-82.1,64.7c-0.9-0.3-1.8-0.5-2.6-0.7
			c-13.4-2.7-48.6,26.5-48.6,26.5s-33.3,11.9-32.2,17c1.1,5.1,7.4,5.8,7.4,5.8s-14,4-11.2,9.5c2.8,5.4,10.8,4.8,10.8,4.8
			s-3.3,1.2,1.5,7.2c4.7,6,16.7,1.9,16.7,1.9c1.3,3.7,5.7,6.3,5.7,6.3c16.3,4.7,49.5-17.3,49.5-17.3c-2.4,14.7,8.4,19.2,13.8,19.8
			c5.3,0.6,2.9-9.7,2.9-9.7c-0.6-11.4,5.8-20.1,7.9-25.8C1013.2,708.6,1014.3,703.7,1014.9,700.4z"/>
		<path style="fill:#061123;" d="M790.5,706.2l-114.6-19.3c1-59.9,56.1-81.2,56.1-81.2l83.7,65.9c0.9-0.3,1.8-0.5,2.7-0.7
			C832,668.2,868,698,868,698s34,12.2,32.8,17.3c-1.2,5.2-7.6,5.9-7.6,5.9s14.3,4.1,11.4,9.7c-2.9,5.6-11.1,4.9-11.1,4.9
			s3.3,1.2-1.5,7.3c-4.8,6.1-17,1.9-17,1.9c-1.4,3.7-5.8,6.4-5.8,6.4c-16.6,4.8-50.6-17.7-50.6-17.7c2.5,15-8.6,19.5-14.1,20.2
			c-5.4,0.7-3-9.8-3-9.8c0.7-11.6-5.9-20.5-8-26.3C792.3,714.5,791.2,709.6,790.5,706.2z"/>
	</g>
	<path style="opacity:0.49;fill:#9999FF;enable-background:new    ;" d="M1075.8,480.6c-172.8,48.4-317.6,8.3-341.1,1.1
		c-1.3,25-4.9,81.6-12.7,117.8c18.9-32.6,22.8-66.9,22.8-66.9l22.6,6.3C886.8,584.1,1060,534,1060,534s6.2,40.6,17.4,65.7
		C1071.4,545,1075.8,480.6,1075.8,480.6z"/>
	<path style="fill:none;stroke:#000033;stroke-width:4;stroke-linecap:round;stroke-miterlimit:10;" d="M738.5,532
		c0,0,137.5,81.8,325.1-10.5"/>
	<g>
		<polygon style="fill:#FFFFFF;stroke:#000000;stroke-width:2;stroke-miterlimit:10;" points="860,556.6 846.6,450 926.1,426.9 
			940.7,556.6 		"/>
		<g>
			<g>
				<g>
					<g>
						<g>
							<g>
								<defs>
									
										<rect id="SVGID_00000085238874315644718690000004413782423806866108_" x="864.6" y="449.1" transform="matrix(0.9903 -0.1387 0.1387 0.9903 -60.5227 128.5503)" width="55" height="98.9"/>
								</defs>
								<clipPath id="SVGID_00000091010220756074198720000013804535023060536452_">
									<use xlink:href="#SVGID_00000085238874315644718690000004413782423806866108_"  style="overflow:visible;"/>
								</clipPath>
								<g style="clip-path:url(#SVGID_00000091010220756074198720000013804535023060536452_);">
									<g>
										<path style="fill:#D6C2ED;" d="M922.6,518.7l2.9,20.7c0.4,3.3-2.5,5.8-4.8,5.1l-41.8-5.2l2.2-0.3c0,0,0,0-0.1-1.1
											c-0.1-1.1,0.8-2.3,1.9-2.4c0,0,0,0,1.1-0.1l36.1-11.8C921,523.4,922.9,520.8,922.6,518.7L922.6,518.7z"/>
									</g>
									<g>
										<path style="fill:#061123;" d="M912.9,450.1l2.9,20.7c-0.3-2.2-2.6-3-3.7-2.8l-39.2-2.3c0,0,0,0-1.1,0.1
											c0,0-1.2-0.9-1.4-2c-0.1-1.1-0.1-1.1-0.1-1.1l-1.1,0.1l37.6-16.4C908.9,445.1,912.5,446.9,912.9,450.1L912.9,450.1z"/>
									</g>
									
										<linearGradient id="SVGID_00000137819248160576083800000009594772304226228149_" gradientUnits="userSpaceOnUse" x1="439.9589" y1="4665.3735" x2="513.2195" y2="4632.0376" gradientTransform="matrix(0.9903 -0.1387 0.1387 0.9903 -247.0105 -4017.5969)">
										<stop  offset="2.000000e-02" style="stop-color:#6A9EFF"/>
										<stop  offset="1" style="stop-color:#CAB5FF"/>
									</linearGradient>
									<path style="fill:url(#SVGID_00000137819248160576083800000009594772304226228149_);" d="M915.9,470.8l6.7,47.9l0,0
										l2.9,20.7c0.4,3.3-2.5,5.8-4.8,5.1l-41.8-5.2l-5.7-1.4c-2.2,0.3-3.4-0.7-3.7-2.8l0,0l-9.1-65.3l0,0
										c-0.1-1.1,0.7-3.4,2.8-3.7l6.2-3.1l1.1-0.1c0,0,0,0,0.1,1.1c0.1,1.1,1.4,2,2.4,1.9c0,0,0,0,1.1-0.1l38,1.3
										C913,466.7,915.5,468.6,915.9,470.8L915.9,470.8z"/>
								</g>
							</g>
						</g>
					</g>
				</g>
			</g>
		</g>
	</g>
</g>
<g id="Nol">
	<g>
		<circle style="fill:#F6F5F8;stroke:#000000;stroke-width:2;stroke-miterlimit:10;" cx="891.8" cy="524.9" r="140.8"/>
		<path style="opacity:0.31;fill:#CCCCCC;enable-background:new    ;" d="M905.9,634.3c-70.4,0-127.6-57.3-127.6-127.6
			c0-23,5.7-44.8,16.7-63c-20.8,22.4-33.6,52.8-33.6,86c0,70.4,57.3,127.6,127.6,127.6c47.3,0,88.9-26.2,111.1-64.6
			C977.2,618.3,943.3,634.3,905.9,634.3z"/>
	</g>
	<g>
		<g>
			<g>
				<g>
					<g>
						<g>
							<defs>
								
									<rect id="SVGID_00000033342404013199025770000007165639953282328479_" x="818.4" y="413.1" transform="matrix(0.9903 -0.1387 0.1387 0.9903 -64.2933 127.2165)" width="124.3" height="223.6"/>
							</defs>
							<clipPath id="SVGID_00000116958057002629361950000006364222954286911884_">
								<use xlink:href="#SVGID_00000033342404013199025770000007165639953282328479_"  style="overflow:visible;"/>
							</clipPath>
							<g style="clip-path:url(#SVGID_00000116958057002629361950000006364222954286911884_);">
								<g>
									<path style="fill:#D6C2ED;" d="M949.6,570.5l6.5,46.7c1,7.5-5.7,13.3-11.1,11.6L850.5,617l5-0.7c0,0,0,0-0.2-2.5
										c-0.2-2.5,1.7-5.2,4.2-5.5c0,0,0,0,2.5-0.2l81.5-26.5C946.1,580.9,950.3,575.2,949.6,570.5L949.6,570.5z"/>
								</g>
								<g>
									<path style="fill:#061123;" d="M927.8,415.4l6.5,46.7c-0.7-5-6-6.7-8.5-6.2l-88.5-5.2c0,0,0,0-2.5,0.2c0,0-2.7-2-3.2-4.5
										c-0.2-2.5-0.2-2.5-0.2-2.5l-2.5,0.2l85-37C918.9,404.2,926.8,408.1,927.8,415.4L927.8,415.4z"/>
								</g>
								
									<linearGradient id="SVGID_00000015341577152219896290000001457072873390512547_" gradientUnits="userSpaceOnUse" x1="347.0799" y1="4733.4551" x2="512.7151" y2="4658.0859" gradientTransform="matrix(0.9903 -0.1387 0.1387 0.9903 -247.0105 -4017.5969)">
									<stop  offset="2.000000e-02" style="stop-color:#6A9EFF"/>
									<stop  offset="1" style="stop-color:#CAB5FF"/>
								</linearGradient>
								<path style="fill:url(#SVGID_00000015341577152219896290000001457072873390512547_);" d="M934.5,462.1l15.3,108.3l0,0
									l6.5,46.7c1,7.5-5.7,13.3-11.1,11.6L850.7,617l-13-3.2c-5,0.7-7.7-1.5-8.5-6.2l0,0l-20.8-147.6l0,0
									c-0.2-2.5,1.5-7.7,6.2-8.5l14-7l2.5-0.2c0,0,0,0,0.2,2.5c0.2,2.5,3.2,4.5,5.5,4.2c0,0,0,0,2.5-0.2l85.8,3
									C928.1,452.9,933.8,457.1,934.5,462.1L934.5,462.1z"/>
							</g>
						</g>
					</g>
				</g>
			</g>
		</g>
	</g>
</g>
</svg>
