<?xml version="1.0" encoding="utf-8"?>
<!-- Generator: Adobe Illustrator 27.1.1, SVG Export Plug-In . SVG Version: 6.00 Build 0)  -->
<svg version="1.1" id="Layer_1" xmlns="http://www.w3.org/2000/svg" xmlns:xlink="http://www.w3.org/1999/xlink" x="0px" y="0px"
	 viewBox="0 0 1987.6 1446.8" style="enable-background:new 0 0 1987.6 1446.8;" xml:space="preserve">
<g id="c1">
	
		<linearGradient id="cll2_00000155825411410208102950000004779831206160408480_" gradientUnits="userSpaceOnUse" x1="270.1187" y1="1692.986" x2="822.4344" y2="1692.986" gradientTransform="matrix(1 0 0 1 0 -1336.4171)">
		<stop  offset="0.804" style="stop-color:#CAB5FF"/>
		<stop  offset="0.9118" style="stop-color:#CAB5FF"/>
	</linearGradient>
	<path id="cll2" style="fill:url(#cll2_00000155825411410208102950000004779831206160408480_);" d="M291.6,442.5l403.9,9.5
		c0,0,125.4,12.4,126.9-34.1s-46.6-60.2-55.7-80.4c-9.1-20-58.8-82.4-108.3-77.6s-71.2,29.5-88.3,28s-37.1-26.2-82.1-7.6
		c-44.8,18.6-95.9,70.9-119.3,76.6c-23.1,5.7-58.8,2.6-77.3,24.2S254.5,427,291.6,442.5z"/>
</g>
<g>
	
		<linearGradient id="cl1_00000103947478813269190130000013827603227714079166_" gradientUnits="userSpaceOnUse" x1="1262.4036" y1="1789.6294" x2="1764.1731" y2="1789.6294" gradientTransform="matrix(1 0 0 1 0 -1336.4171)">
		<stop  offset="0.804" style="stop-color:#CAB5FF"/>
		<stop  offset="0.9118" style="stop-color:#CAB5FF"/>
	</linearGradient>
	<path id="cl1" style="fill:url(#cl1_00000103947478813269190130000013827603227714079166_);" d="M1376.5,552.8
		c0,0-95.4,2.3-109.7-28.5c-14.3-30.7,2.3-109.7,109.7-109.7c0,0,19.1,4.8,35.9-9.5s74-66.6,157.5-52.4
		c83.5,14.3,88.3,50.2,116.8,74s93.1,47.8,74,81.1s-55,57.2-138.3,45.2C1538.8,541.3,1376.5,552.8,1376.5,552.8z"/>
</g>
<g>
	<path style="fill:#061123;stroke:#000033;stroke-width:2;stroke-linecap:round;stroke-miterlimit:10;" d="M812.2,445.9
		c0,0-133.7,233.9-88.2,530.7c0,0,435-95.2,570,0c0,0-33.4-489.9-84.5-528.5C1158.3,409.4,883.6,390.2,812.2,445.9z"/>
	
		<linearGradient id="SVGID_1_" gradientUnits="userSpaceOnUse" x1="624.9162" y1="853.0447" x2="1347.0161" y2="853.0447" gradientTransform="matrix(1 0 0 -1 0 1448)">
		<stop  offset="0.3425" style="stop-color:#CCCCFF"/>
		<stop  offset="0.9574" style="stop-color:#6699FF"/>
		<stop  offset="1" style="stop-color:#CCCCDC"/>
	</linearGradient>
	<path style="fill:url(#SVGID_1_);stroke:#000033;stroke-width:2;stroke-miterlimit:10;" d="M1264,433l-11.8-19.9l-36.4-3.7
		c-15.5-9.3-14.1-12.3-28.8-17.3c-11.2-3.8-34.5,8.7-51.4,17.3c-7.5-9.3-43.3-20.7-52.2-20.2l-23-11.5l-89.3,5.8v3l-95-14.6
		l2.9,25.9l-14.4-8.6c-9.7-5.4-43.7,10.8-49,14.4c-2.7-0.7-7.4-9.8-20.2-14.4c-7.8-2.8-37.3,10.4-46.1,20.2l-29.8,5.3l-11.7,19.8
		c-21.8,11.2-56,28.8-82.9,42.5c84.2,113.1,191.3,117.2,191.3,117.2s36.4,117.6,66.5,213.6c12.3,1.2,47.8,4.8,87.1,7.9v0.8
		c1.9-0.1,3.8-0.3,5.7-0.4c8.8,0.7,17.7,1.3,26.6,1.9l-0.2-3.9c39.4-3.1,75-6.6,87.3-7.9c30.1-96.1,66.5-213.6,66.5-213.6
		s107-4.1,191.3-117.2C1320,461.8,1285.8,444.2,1264,433z"/>
	<g>
		<path style="fill:#FDD597;stroke:#000000;stroke-width:2;stroke-miterlimit:10;" d="M1109.9,238.4c-5.9-2.4-13.6,6.6-17.7,12.4
			l-11-102.4c0,0-178.1-17.4-216.9,24.6c0,0-3.7,41.5-7.2,87.9c-4.4-4-12.8-10.6-17-6.6c-5.1,4.8,4.7,34.3,14.1,47.5
			c-0.7,9.6-1.3,19-1.8,27.7c0,0-3.7,49.6,6.8,64c10.1,13.9,38.4,32.5,80.3,38.3c41.5,5.8,115.4,1.2,142.9-32.2
			c24.8-30,17.9-74.4,17.9-74.4l-0.3-2.3l-2.6-23.9C1118.2,288.7,1118.1,241.8,1109.9,238.4z"/>
		<path style="fill:none;stroke:#000000;stroke-linecap:round;stroke-miterlimit:10;" d="M1105.3,248.7c0,0-6.1,11.3-6.5,22.8
			c0,0,7.4-5.5,8.6,0.3c1.3,5.8-3.3,11.4-3.3,11.4"/>
		<path style="fill:none;stroke:#000000;stroke-linecap:round;stroke-miterlimit:10;" d="M845.6,260.3c0,0,5.6,5.9,8.1,17.6
			c0,0-3,3.6-0.3,9"/>
		<path style="fill:#E6BA87;" d="M1091.9,316.5l-0.3-2.3l-16-171.6c0,0-0.4,2.9-28.9,1.9c6,44.6,6.9,128.6,9.6,147.3
			c3.5,24.9,6.9,109-125.3,131.3c41.5,5.8,119,2.5,146.6-30.9C1102.4,362.1,1091.9,316.5,1091.9,316.5z"/>
		<path style="fill:#061123;" d="M864.3,173.1c0,0,110.2,13.7,153.5-23.8c0,0,41.2,17.2,65,14.4l9.2,94.7l21.2-118
			c0,0-93.3-54.3-179.8-51.4c0,0-46-1.5-76.3,43.6l41-18.8c0,0-50.8,45.3-53.8,53.4s13.9,109.5,13.9,109.5L864.3,173.1z"/>
	</g>
	<path style="fill:#FDD597;stroke:#000000;stroke-linecap:round;stroke-miterlimit:10;" d="M955.3,252.4c0,0-10.2,22.7-11.4,27
		c-0.9,3.2,7.8,8.9,14.3,10"/>
	<polygon style="fill:#061123;" points="1003.4,204.2 1051.5,217.8 1052.5,220.8 1004.8,208.7 	"/>
	<polygon style="fill:#061123;" points="890.7,208.6 939.1,205.3 940.5,200.9 891.6,205.7 	"/>
	<path style="fill:none;stroke:#000000;stroke-width:2;stroke-linecap:round;stroke-miterlimit:10;" d="M808.2,566.2
		c0,0,40.2,90.6,155.8,80"/>
	<path style="fill:none;stroke:#000000;stroke-width:2;stroke-linecap:round;stroke-miterlimit:10;" d="M1178.4,523.4
		c0,0,2,115.3-139.4,122.2"/>
	<g>
		<g>
			<path style="fill:#061123;" d="M613.6,472.9c0,0-3.7-238.3,85.5-282.2c0,0,35.8-22.7,62.8,9.3s1.5,51.7,1.5,51.7
				s-8.3,27.1-26.3,29.5c0,0-32.9,13,7.9,115.7l3.3,8.2C748.3,405.1,713.6,509.2,613.6,472.9z"/>
			<path style="fill:none;stroke:#061123;stroke-linecap:round;stroke-miterlimit:10;" d="M719.3,212.3c0,0,28.7,12.4,44.2,39.5"/>
			<path style="fill:none;stroke:#061123;stroke-linecap:round;stroke-miterlimit:10;" d="M697.1,240.1c0,0,23.1,15.2,41.4,40.9"/>
			<path style="fill:none;stroke:#061123;stroke-linecap:round;stroke-miterlimit:10;" d="M678.9,266.3c0,0,36.8,32.9,45,29.7"/>
		</g>
		<path style="fill:#FFFDF8;" d="M709.8,315c0,0,7.2,55,24.4,95.9l-9.3,12.4C724.9,423.2,693.8,363.4,709.8,315z"/>
	</g>
	<g>
		<polygon style="fill:#FFFFFF;stroke:#000000;stroke-miterlimit:10;" points="947.9,594.5 937.2,477.4 1024.9,454.9 1036.2,597.4 
					"/>
		<g>
			<g>
				<g>
					<defs>
						
							<rect id="SVGID_00000071522455107358101850000018170690818447255456_" x="955" y="478.1" transform="matrix(0.9944 -0.1061 0.1061 0.9944 -50.8997 107.5149)" width="60.1" height="108.2"/>
					</defs>
					<clipPath id="SVGID_00000062892695718693054950000012403844511554481827_">
						<use xlink:href="#SVGID_00000071522455107358101850000018170690818447255456_"  style="overflow:visible;"/>
					</clipPath>
					<g style="clip-path:url(#SVGID_00000062892695718693054950000012403844511554481827_);">
						<g>
							<path style="fill:#D6C2ED;" d="M1017.7,555.3l2.4,22.7c0.4,3.6-2.9,6.4-5.5,5.4l-45.5-7.2l2.4-0.3c0,0,0,0-0.1-1.2
								s0.9-2.5,2.1-2.6c0,0,0,0,1.2-0.1l39.9-11.5C1015.9,560.3,1018,557.7,1017.7,555.3L1017.7,555.3z"/>
						</g>
						<g>
							<path style="fill:#061123;" d="M1009.7,479.9l2.4,22.7c-0.3-2.4-2.8-3.3-4-3.2l-42.7-3.9c0,0,0,0-1.2,0.1
								c0,0-1.3-1.1-1.5-2.3c-0.1-1.2-0.1-1.2-0.1-1.2l-1.2,0.1l41.8-16.6C1005.5,474.3,1009.3,476.3,1009.7,479.9L1009.7,479.9z"/>
						</g>
						
							<linearGradient id="SVGID_00000110437813867296858330000017607596488061952958_" gradientUnits="userSpaceOnUse" x1="783.4255" y1="-487.9261" x2="863.5884" y2="-451.4494" gradientTransform="matrix(0.9944 -0.1061 -0.1061 -0.9944 90.9065 174.9183)">
							<stop  offset="2.000000e-02" style="stop-color:#6A9EFF"/>
							<stop  offset="1" style="stop-color:#CAB5FF"/>
						</linearGradient>
						<path style="fill:url(#SVGID_00000110437813867296858330000017607596488061952958_);" d="M1012.1,502.6l5.6,52.6l0,0l2.4,22.7
							c0.4,3.6-2.9,6.4-5.5,5.4l-45.5-7.2l-6.2-1.8c-2.4,0.3-3.7-0.8-4-3.2l0,0l-7.7-71.7l0,0c-0.1-1.2,0.8-3.7,3.2-4l6.9-3.2
							l1.2-0.1c0,0,0,0,0.1,1.2s1.5,2.3,2.6,2.1c0,0,0,0,1.2-0.1l41.4,2.8C1009.2,498.1,1011.9,500.3,1012.1,502.6L1012.1,502.6z"/>
					</g>
				</g>
			</g>
		</g>
	</g>
	<path style="opacity:0.49;fill:#9999FF;enable-background:new    ;" d="M804.1,591.6c0.2,0,0.4,0.1,0.6,0.1
		c3.7,0.9,7.5,1.7,11.4,2.5l3,9.5c0,0,32,84.9,56.6,165.5l13.7,44.1l13.8,6.2c-11-34.5-19.5-62.5-19.5-62.5L833,605.1L816.2,585
		c-65.8-15.1-171.9-104.8-171.9-104.8l6.9,0.4l-24.3-9.9c0,0,54.7,86.1,164.1,117.4c1.5,0.4,3,0.8,4.4,1.2
		C798.3,590.1,801.2,590.9,804.1,591.6z"/>
	<path style="opacity:0.49;fill:#9999FF;enable-background:new    ;" d="M1084.1,762.3l48.5-144.4l-35.8,20.9l-36.3,136h27.9
		C1085.7,766.9,1084.1,762.3,1084.1,762.3z"/>
	<g>
		<g>
			
				<linearGradient id="SVGID_00000075124480650136228520000004172743481869750973_" gradientUnits="userSpaceOnUse" x1="-2028.4059" y1="-86.9285" x2="-1837.5294" y2="-86.9285" gradientTransform="matrix(-0.9731 0.2306 -0.2306 -0.9731 -833.6286 1472.1962)">
				<stop  offset="0.3425" style="stop-color:#CCCCFF"/>
				<stop  offset="0.9574" style="stop-color:#6699FF"/>
				<stop  offset="1" style="stop-color:#CCCCDC"/>
			</linearGradient>
			
				<path style="fill:url(#SVGID_00000075124480650136228520000004172743481869750973_);stroke:#000033;stroke-width:2;stroke-miterlimit:10;" d="
				M1030.5,1233.4c2-30.3-27.8-67.1-33-96.7s14.8-61.1,15.1-79.1c0.4-18-12.7-112.1-12.7-112.1l-7.7-93.2l103.8-33.5
				c1.3,27.8,2.2,50.2,2.6,62.4c1.4,46.4-23.6,101.9-34.8,131.6c2,8.8,2.7,22-3,38.8c3.7,17.5,10,39.6,8.6,61.8
				c-2.2,32.9-7.9,130.6-4.7,181.1c3.5,55.9-2,103.1-2,103.1l-12.2-13.4c-35.6-37.8-36.9-99.2-36.9-99.2
				S1027.5,1279.5,1030.5,1233.4z"/>
			
				<linearGradient id="SVGID_00000040573472105400588200000017963787153542908574_" gradientUnits="userSpaceOnUse" x1="-1905.6403" y1="85.2548" x2="-1902.7838" y2="85.2548" gradientTransform="matrix(-0.9731 0.2306 -0.2306 -0.9731 -833.6286 1472.1962)">
				<stop  offset="0.3425" style="stop-color:#CCCCFF"/>
				<stop  offset="0.9574" style="stop-color:#6699FF"/>
				<stop  offset="1" style="stop-color:#CCCCDC"/>
			</linearGradient>
			
				<path style="fill:url(#SVGID_00000040573472105400588200000017963787153542908574_);stroke:#000033;stroke-width:2;stroke-miterlimit:10;" d="
				M999.9,945.5c-0.1,3.2-0.4,6.3-0.7,9.3L999.9,945.5z"/>
		</g>
		<path style="fill:#061123;" d="M1019.9,1317c-5.2-20.8-5.7-36.9-5.7-36.9s13.8-5.5,16.5-51.6c1.8-30.3-28.2-66.9-33.6-96.4
			c-3.1-16.8,2-34.2,7-49.5c26.9,16.8,49,18.7,64.9,15.7c0.1,3.3,0.1,6.5-0.1,9.8c-2,33-7.1,130.7-3.6,181.1
			c2.3,32.9,3,58.5,1.9,77.6l-0.4,6.6c0,0,1.3,18.6-2.6,23.6c-3.9,5-27.1-25.8-39.5-58.5C1021.4,1329.5,1020.1,1322.5,1019.9,1317z"
			/>
		<g>
			
				<linearGradient id="SVGID_00000035516466770962932830000012160751250535007421_" gradientUnits="userSpaceOnUse" x1="863.4832" y1="416.6999" x2="1045.6028" y2="416.6999" gradientTransform="matrix(0.9981 6.169290e-02 6.169290e-02 -0.9981 -19.5705 1481.2877)">
				<stop  offset="0.3425" style="stop-color:#CCCCFF"/>
				<stop  offset="0.9574" style="stop-color:#6699FF"/>
				<stop  offset="1" style="stop-color:#CCCCDC"/>
			</linearGradient>
			
				<path style="fill:url(#SVGID_00000035516466770962932830000012160751250535007421_);stroke:#000033;stroke-width:2;stroke-miterlimit:10;" d="
				M1013,1237.6c-6.6-29.5,17.2-71.4,17.8-101.5s-23.9-57.4-27-75.1s-4.6-112.9-4.6-112.9l-6.7-93.3l-107.4-13.4
				c3,27.6,5.4,49.9,6.9,61.9c5.7,46,38.8,95.9,54.4,123.1c-0.6,9.1,0.7,22.2,8.9,37.7c-0.9,18-3.8,40.9,1,62.6
				c7.2,32,27.7,127.2,32.3,177.5c5.1,55.8,17.7,101.3,17.7,101.3l10-15.5c29.3-44,21.2-104.8,21.2-104.8S1023,1282.5,1013,1237.6z"
				/>
			
				<linearGradient id="SVGID_00000173855138269618115740000007223230336724658083_" gradientUnits="userSpaceOnUse" x1="983.9641" y1="590.5391" x2="986.6575" y2="590.5391" gradientTransform="matrix(0.9981 6.169290e-02 6.169290e-02 -0.9981 -19.5705 1481.2877)">
				<stop  offset="0.3425" style="stop-color:#CCCCFF"/>
				<stop  offset="0.9574" style="stop-color:#6699FF"/>
				<stop  offset="1" style="stop-color:#CCCCDC"/>
			</linearGradient>
			
				<path style="fill:url(#SVGID_00000173855138269618115740000007223230336724658083_);stroke:#000033;stroke-width:2;stroke-miterlimit:10;" d="
				M999.2,948.1c0.6,3.1,1.4,6.1,2.1,9.1L999.2,948.1z"/>
		</g>
		<path style="fill:#061123;" d="M1036.1,1317.8c1.8-21.5,4.1-33.5,4.1-33.5s-16.3-7.3-26.4-52.1c-6.7-29.5,14.2-70.8,14.8-100.9
			c0.3-17.1-7.5-33.3-14.9-47.3c-23.8,21.9-45.1,28.2-61.3,28.5c0.4,3.2,1,6.5,1.7,9.6c7.3,32,28.1,127.1,32.8,177.4
			c3.1,32.8,6.5,58.2,10.6,76.7l1.5,6.4c0,0,1.8,18.6,6.4,22.7c4.6,4.2,22.5-30.8,29.4-65.4
			C1036.7,1330.4,1036.9,1323.2,1036.1,1317.8z"/>
		<path style="fill:#FFFDF8;" d="M1014.1,1136.9c2-23.5-10.5-33.7-10.5-33.7l-5.8,5.3c0,0,10.1,7,10,39.6c0,2.3-0.3,4.3-0.8,6.2
			c-6.1,50.5,0.1,64.6,0.1,64.6C1004.1,1191.7,1012.1,1160.5,1014.1,1136.9z"/>
	</g>
	<g>
		<g>
			<path style="fill:#061123;" d="M1359.3,481.2c0,0,3.7-238.3-85.5-282.2c0,0-35.8-22.7-62.8,9.3c-27,32.1-1.5,51.7-1.5,51.7
				s8.3,27.1,26.3,29.5c0,0,32.9,13-7.9,115.7l-3.3,8.2C1224.6,413.4,1259.3,517.6,1359.3,481.2z"/>
			<path style="fill:none;stroke:#061123;stroke-linecap:round;stroke-miterlimit:10;" d="M1253.6,220.6c0,0-28.7,12.4-44.2,39.5"/>
			<path style="fill:none;stroke:#061123;stroke-linecap:round;stroke-miterlimit:10;" d="M1275.8,248.4c0,0-23.1,15.2-41.4,40.9"/>
			<path style="fill:none;stroke:#061123;stroke-linecap:round;stroke-miterlimit:10;" d="M1294,274.6c0,0-36.8,32.9-45,29.7"/>
		</g>
		<path style="fill:#FFFDF8;" d="M1263.1,323.3c0,0-7.2,55-24.4,95.9l9.3,12.4C1248,431.5,1279.1,371.7,1263.1,323.3z"/>
	</g>
	<g>
		<g>
			<path style="fill:#FFFDF8;stroke:#000000;stroke-miterlimit:10;" d="M948.8,239c0,0-25.1-23-36.8-21.1
				c-11.7,2-34.5,22.5-34.5,22.5S917.8,257.4,948.8,239z"/>
		</g>
		<path d="M920.9,234.5c0-2.4,1.9-4.3,4.3-4.3c0.4,0,0.7,0.1,1.1,0.2c-1.2-5-5.7-8.8-11.2-8.8c-6.4,0-11.5,5.2-11.5,11.5
			c0,6.4,5.2,11.5,11.5,11.5c4.3,0,7.9-2.3,9.9-5.8C922.8,238.7,920.9,236.9,920.9,234.5z"/>
	</g>
	<g>
		<g>
			<path style="fill:#FFFDF8;stroke:#000000;stroke-miterlimit:10;" d="M1045.8,238.3c0,0-25.1-23-36.8-21.1s-34.5,22.5-34.5,22.5
				S1014.7,256.7,1045.8,238.3z"/>
		</g>
	</g>
	<path d="M1017.2,232.3c0-2.4,1.9-4.3,4.3-4.3c0.4,0,0.7,0.1,1.1,0.2c-1.2-5-5.7-8.8-11.2-8.8c-6.4,0-11.5,5.2-11.5,11.5
		c0,6.4,5.2,11.5,11.5,11.5c4.3,0,7.9-2.3,9.9-5.8C1019,236.5,1017.2,234.6,1017.2,232.3z"/>
	<g>
		<path style="stroke:#000000;stroke-miterlimit:10;" d="M1028.3,306.9L1028.3,306.9c-1.8-3.4-3.3-5.4-3.3-5.4
			c-47.3,54.8-122.5,33-122.5,33c4.1,10.6,10.5,18.6,18.2,24.6l0,0c40.5,37,85.2,15.8,85.2,15.8
			C1061.2,348.3,1028.3,306.9,1028.3,306.9z"/>
		<path style="fill:#FFFDF8;stroke:#000000;stroke-miterlimit:10;" d="M920.7,359.1L920.7,359.1c1.1,1,2.1,1.9,3.2,2.8
			c35.2-1.1,79.7-8.2,113.7-32.2c-1.6-13.1-9.4-22.9-9.4-22.9l0,0c-1.8-3.4-3.3-5.4-3.3-5.4c-47.3,54.8-122.5,33-122.5,33
			C906.6,345.1,913,353.1,920.7,359.1z"/>
	</g>
	<path style="opacity:0.49;fill:#9999FF;enable-background:new    ;" d="M896.2,852.9l20.2,11.5c0,0,31.7,123.8,43.2,141.1
		c0,0,11.5,34.6,14.4,51.8c2.9,17.3,7.5,45.9,7.5,45.9s-17.3,3.9-19.6,4.9v-51.6c0,0-9.4-17.5-10.9-33.8
		C950.9,1022.8,881.8,907.6,896.2,852.9z"/>
	<path style="opacity:0.49;fill:#9999FF;enable-background:new    ;" d="M1073.6,829.7l-17.4,15.3c0,0-6.2,127.7-14,146.9
		c0,0-4.3,36.2-3.7,53.7s1.9,46.5,1.9,46.5s17.8,0.4,20.2,0.9l-10.4-50.5c0,0,5.7-19.1,3.9-35.3
		C1054.1,1007.2,1098.7,880.4,1073.6,829.7z"/>
	<path style="fill:#061123;" d="M873.4,792.7c0,0,122.9,30,226.4-8.4l-2.1,34c0,0-85.1,81.2-103.7,74.9
		c-18.5-6.3-109.4-51.8-109.4-51.8L873.4,792.7z"/>
</g>
</svg>
