<?xml version="1.0" encoding="utf-8"?>
<!-- Generator: Adobe Illustrator 27.1.1, SVG Export Plug-In . SVG Version: 6.00 Build 0)  -->
<svg version="1.1" id="Layer_1" xmlns="http://www.w3.org/2000/svg" xmlns:xlink="http://www.w3.org/1999/xlink" x="0px" y="0px"
	 viewBox="0 0 211 150" style="enable-background:new 0 0 211 150;" xml:space="preserve">
	 	 	 	 	 	 <style>

#ball1, #ball2, #ball3, #ball4{
fill:#9999FF;

}



	 #arrow{
fill:#9999FF;
stroke:#FFFFFF;
stroke-width:2;
stroke-miterlimit:10;

}

#check{
fill:none;
stroke:#9999FF;
stroke-width:6;
stroke-miterlimit:10;
stroke-linecap: round;
stroke-dasharray: 100;
stroke-dashoffset: 100;
animation: lers 6s 1s ease infinite;

}

.pulse {
  fill: red;
  fill-opacity: 0;
  transform-origin: 50% 50%;
  animation-duration: 2s;
  animation-name: pulse;
  animation-iteration-count: infinite;
}

#elipse{
fill:#9999FF;
fill-opacity:0;
stroke:#9999FF;
stroke-width:6;
stroke-miterlimit:10;
stroke-linecap: round;


}



#line1, #line2, #line3, #line4, #line5{
fill:none;
stroke:#9999FF;
stroke-width:2;
stroke-linecap:round;
stroke-miterlimit:10;
stroke-dasharray: 50;
stroke-dashoffset: 50;
animation: drawline 2s ease infinite;
}

#line2{
animation-delay:0.5s
}

#line3{
animation-delay:1s
}


#line4{
animation-delay:1.5s
}


#line5{
animation-delay:2s
}

	 #lineleft1, #lineleft2, #lineleft3, #lineleft4{
	  	animation: animate-up 400ms linear infinite;
}
	 #rightline3, #rightline2, #rightline1{
	  	 	animation: animate-up 400ms linear infinite;
}

.linefill{
 	stroke-opacity:1;
}

.array{
 stroke-dasharray: 5 12.5;
}



@keyframes animate-up {
  to {
    stroke-dashoffset: -10;
  }
}
@-webkit-keyframes animate-up {
  to {
    stroke-dashoffset: -10;
  }
}


@keyframes animate-down {
  to {
    stroke-dashoffset: 10;
  }
}
@-webkit-keyframes animate-down {
  to {
    stroke-dashoffset: 10;
  }
}

@keyframes drawlogo {
  from {
    stroke-dashoffset: 500;
	}

  to {
	 stroke-dashoffset: 0;  
  }

}

@keyframes drawline {
  from {
    stroke-dashoffset: 100;
	}

  to {
	 stroke-dashoffset: 0;  
  }

}


@keyframes stay {
  from {
    stroke-dashoffset: 50;
	}

  to {
	 stroke-dashoffset: 50;  
  }

}

@keyframes lers {
  0% {
    stroke-dashoffset: 100;
	}

  50% {
	 stroke-dashoffset: 0;  
  }

   100% {
	 stroke-dashoffset: 100;  
  }

}



@keyframes fillline {
  from {
    stroke-dashoffset: 0;
	}

  to {
	 stroke-dashoffset: 200;  
  }

}


 @keyframes showSuccess {
	 from {
		 transform: scale(0);
	}
	 to {
		 transform: scale(1);
	}
}


 @keyframes tipInPlace {
	 from {
		 width: 0em;
		 top: 0em;
		 left: -1.6em;
	}
	 to {
		 width: 2.4em;
		 top: 4.3em;
		 left: 1.4em;
		 visibility: visible;
	}
}

 @keyframes fill {
	 from {
		 fill-opacity:0
	}
	 to {
		 fill-opacity:1
	}
}

@keyframes pulse {
  from {
    stroke-width: 3px;
    stroke-opacity: 1;
    transform: scale(0.3);
  }
  to {
    stroke-width: 0;
    stroke-opacity: 0;
    transform: scale(2);
  }
}

.pulse {
  fill: white;
  fill-opacity: 0;
  transform-origin: 50% 50%;
  animation-duration: 2s;
  animation-name: pulse;
  animation-iteration-count: infinite;
}



</style>
<g>
	<polyline id="line4" points="46.8,31.9 46.8,56.6 59.6,68.2 89,68.2 	"/>
	<polyline id="line3"  points="163.6,31.9 163.6,56.6 150.7,68.2 
		121.4,68.2 	"/>
</g>
<g>
	<polyline id="line2"  points="163.9,115.1 163.9,90.5 151.1,78.8 
		121.7,78.8 	"/>
	<polyline id="line1"  points="47.1,115.1 47.1,90.5 59.9,78.8 89.3,78.8 	
		"/>
</g>
<g id="ball4">
	<g>

	<circle  cx = "164" cy = "117" r = "25%" fill = "none" stroke = "#9999FF" stroke-width = "15%">
		     <animate attributeType="SVG" attributeName="r" begin="0s" dur="1.5s" repeatCount="indefinite" from="13" to="15"/>
              <animate attributeType="CSS" attributeName="stroke-width" begin="0s"  dur="1.5s" repeatCount="indefinite" from="3%" to="0%" />
              <animate attributeType="CSS" attributeName="opacity" begin="0s"  dur="1.5s" repeatCount="indefinite" from="1" to="0"/>
			   </circle>

	</g>
</g>
<g id="ball3">
	<g>
	
			<circle  cx = "46" cy = "29" r = "25%" fill = "none" stroke = "#9999FF" stroke-width = "15%">
		     <animate attributeType="SVG" attributeName="r" begin="0s" dur="1.5s" repeatCount="indefinite" from="13" to="15"/>
              <animate attributeType="CSS" attributeName="stroke-width" begin="0s"  dur="1.5s" repeatCount="indefinite" from="3%" to="0%" />
              <animate attributeType="CSS" attributeName="opacity" begin="0s"  dur="1.5s" repeatCount="indefinite" from="1" to="0"/>
			   </circle>

	</g>
</g>
<g id="ball2">
	<g>
			<circle  cx = "164" cy = "29" r = "25%" fill = "none" stroke = "#9999FF" stroke-width = "15%">
		     <animate attributeType="SVG" attributeName="r" begin="0s" dur="1.5s" repeatCount="indefinite" from="13" to="15"/>
              <animate attributeType="CSS" attributeName="stroke-width" begin="0s"  dur="1.5s" repeatCount="indefinite" from="3%" to="0%" />
              <animate attributeType="CSS" attributeName="opacity" begin="0s"  dur="1.5s" repeatCount="indefinite" from="1" to="0"/>
			   </circle>
	</g>
</g>
<g id="ball1">
	<g>
			<circle  cx = "45" cy = "117" r = "25%" fill = "none" stroke = "#9999FF" stroke-width = "15%">
		     <animate attributeType="SVG" attributeName="r" begin="0s" dur="1.5s" repeatCount="indefinite" from="13" to="15"/>
              <animate attributeType="CSS" attributeName="stroke-width" begin="0s"  dur="1.5s" repeatCount="indefinite" from="3%" to="0%" />
              <animate attributeType="CSS" attributeName="opacity" begin="0s"  dur="1.5s" repeatCount="indefinite" from="1" to="0"/>
			   </circle>

	</g>
</g>
<g id="Nol">
	<g>
		<circle style="fill:#F6F5F8;stroke:#010101;stroke-miterlimit:10;" cx="105.5" cy="72.4" r="30.3"/>
		<path style="opacity:0.31;fill:#CCCCCC;enable-background:new    ;" d="M108.5,95.9c-15.1,0-27.4-12.3-27.4-27.4
			c0-4.9,1.2-9.6,3.6-13.5c-4.5,4.8-7.2,11.3-7.2,18.5c0,15.1,12.3,27.4,27.4,27.4c10.2,0,19.1-5.6,23.9-13.9
			C123.9,92.5,116.6,95.9,108.5,95.9z"/>
	</g>
	<g>
		<g>
			<g>
				<g>
					<g>
						<g>
							<g>
								<defs>
									
										<rect id="SVGID_1_" x="89.7" y="48.4" transform="matrix(0.9903 -0.1387 0.1387 0.9903 -9.0478 14.9971)" width="26.7" height="48.1"/>
								</defs>
								<clipPath id="SVGID_00000010308373466814366220000005693659270355744702_">
									<use xlink:href="#SVGID_1_"  style="overflow:visible;"/>
								</clipPath>
								<g style="clip-path:url(#SVGID_00000010308373466814366220000005693659270355744702_);">
									<g>
										<path style="fill:#D5C2DF;" d="M117.9,82.2l1.4,10c0.2,1.6-1.2,2.9-2.4,2.5l-20.3-2.5l1.1-0.2c0,0,0,0,0-0.5
											s0.4-1.1,0.9-1.2c0,0,0,0,0.5,0l17.5-5.7C117.2,84.5,118.1,83.2,117.9,82.2L117.9,82.2z"/>
									</g>
									<g>
										<path style="fill:#0D1524;" d="M113.2,48.9l1.4,10c-0.2-1.1-1.3-1.4-1.8-1.3l-19-1.1c0,0,0,0-0.5,0c0,0-0.6-0.4-0.7-1
											c0-0.5,0-0.5,0-0.5l-0.5,0l18.3-8C111.3,46.5,113,47.3,113.2,48.9L113.2,48.9z"/>
									</g>
									
										<linearGradient id="SVGID_00000161618121685750866920000003251778555513224633_" gradientUnits="userSpaceOnUse" x1="-434.3326" y1="-4020.7932" x2="-398.7365" y2="-4004.5957" gradientTransform="matrix(0.9903 -0.1387 -0.1387 -0.9903 -51.8454 -3948.7957)">
										<stop  offset="2.000000e-02" style="stop-color:#7797CE"/>
										<stop  offset="1" style="stop-color:#C4B4D8"/>
									</linearGradient>
									<path style="fill:url(#SVGID_00000161618121685750866920000003251778555513224633_);" d="M114.7,58.9l3.3,23.3l0,0l1.4,10
										c0.2,1.6-1.2,2.9-2.4,2.5l-20.3-2.5l-2.8-0.7c-1.1,0.2-1.7-0.3-1.8-1.3l0,0l-4.5-31.7l0,0c0-0.5,0.3-1.7,1.3-1.8l3-1.5
										l0.5,0c0,0,0,0,0,0.5c0,0.5,0.7,1,1.2,0.9c0,0,0,0,0.5,0l18.4,0.6C113.3,56.9,114.5,57.8,114.7,58.9L114.7,58.9z"/>
								</g>
							</g>
						</g>
					</g>
				</g>
			</g>
		</g>
	</g>
</g>
</svg>
