<?xml version="1.0" encoding="utf-8"?>
<!-- Generator: Adobe Illustrator 27.1.1, SVG Export Plug-In . SVG Version: 6.00 Build 0)  -->
<svg version="1.1" id="Layer_1" xmlns="http://www.w3.org/2000/svg" xmlns:xlink="http://www.w3.org/1999/xlink" x="0px" y="0px"
	 viewBox="0 0 211 150" style="enable-background:new 0 0 211 150;" xml:space="preserve">
<g>
	<polyline id="line4" style="fill:none;stroke:#010101;stroke-miterlimit:10;" points="46.8,31.9 46.8,56.6 59.6,68.2 89,68.2 	"/>
	<polyline id="line3" style="fill:none;stroke:#010101;stroke-miterlimit:10;" points="163.6,31.9 163.6,56.6 150.7,68.2 
		121.4,68.2 	"/>
</g>
<g>
	<polyline id="line2" style="fill:none;stroke:#010101;stroke-miterlimit:10;" points="163.9,115.1 163.9,90.5 151.1,78.8 
		121.7,78.8 	"/>
	<polyline id="line1" style="fill:none;stroke:#010101;stroke-miterlimit:10;" points="47.1,115.1 47.1,90.5 59.9,78.8 89.3,78.8 	
		"/>
</g>
<g id="ball4">
	<g>
		<circle style="fill:#F6F5F8;stroke:#010101;stroke-width:0.3;stroke-miterlimit:10;" cx="164.9" cy="117.2" r="13.9"/>
		<path style="opacity:0.31;fill:#CCCCCC;enable-background:new    ;" d="M166.3,128c-7,0-12.6-5.7-12.6-12.6c0-2.3,0.6-4.4,1.7-6.2
			c-2.1,2.2-3.3,5.2-3.3,8.5c0,7,5.7,12.6,12.6,12.6c4.7,0,8.8-2.6,11-6.4C173.3,126.5,170,128,166.3,128z"/>
	</g>
</g>
<g id="ball3">
	<g>
		<circle style="fill:#F6F5F8;stroke:#010101;stroke-width:0.3;stroke-miterlimit:10;" cx="46.8" cy="29.4" r="13.9"/>
		<path style="opacity:0.31;fill:#CCCCCC;enable-background:new    ;" d="M48.2,40.2c-7,0-12.6-5.7-12.6-12.6c0-2.3,0.6-4.4,1.7-6.2
			c-2.1,2.2-3.3,5.2-3.3,8.5c0,7,5.7,12.6,12.6,12.6c4.7,0,8.8-2.6,11-6.4C55.2,38.6,51.9,40.2,48.2,40.2z"/>
	</g>
</g>
<g id="ball2">
	<g>
		<circle style="fill:#F6F5F8;stroke:#010101;stroke-width:0.3;stroke-miterlimit:10;" cx="163.6" cy="29.4" r="13.9"/>
		<path style="opacity:0.31;fill:#CCCCCC;enable-background:new    ;" d="M165,40.2c-7,0-12.6-5.7-12.6-12.6c0-2.3,0.6-4.4,1.7-6.2
			c-2.1,2.2-3.3,5.2-3.3,8.5c0,7,5.7,12.6,12.6,12.6c4.7,0,8.8-2.6,11-6.4C172,38.6,168.7,40.2,165,40.2z"/>
	</g>
</g>
<g id="ball1">
	<g>
		<circle style="fill:#F6F5F8;stroke:#010101;stroke-width:0.3;stroke-miterlimit:10;" cx="45.7" cy="117.2" r="13.9"/>
		<path style="opacity:0.31;fill:#CCCCCC;enable-background:new    ;" d="M47.1,128c-7,0-12.6-5.7-12.6-12.6c0-2.3,0.6-4.4,1.7-6.2
			c-2.1,2.2-3.3,5.2-3.3,8.5c0,7,5.7,12.6,12.6,12.6c4.7,0,8.8-2.6,11-6.4C54.1,126.5,50.8,128,47.1,128z"/>
	</g>
</g>
<g id="Nol">
	<g>
		<circle style="fill:#F6F5F8;stroke:#010101;stroke-miterlimit:10;" cx="105.5" cy="72.4" r="30.3"/>
		<path style="opacity:0.31;fill:#CCCCCC;enable-background:new    ;" d="M108.5,95.9c-15.1,0-27.4-12.3-27.4-27.4
			c0-4.9,1.2-9.6,3.6-13.5c-4.5,4.8-7.2,11.3-7.2,18.5c0,15.1,12.3,27.4,27.4,27.4c10.2,0,19.1-5.6,23.9-13.9
			C123.9,92.5,116.6,95.9,108.5,95.9z"/>
	</g>
	<g>
		<g>
			<g>
				<g>
					<g>
						<g>
							<g>
								<defs>
									
										<rect id="SVGID_1_" x="89.7" y="48.4" transform="matrix(0.9903 -0.1387 0.1387 0.9903 -9.0478 14.9971)" width="26.7" height="48.1"/>
								</defs>
								<clipPath id="SVGID_00000174575069780025800570000012556302124980554131_">
									<use xlink:href="#SVGID_1_"  style="overflow:visible;"/>
								</clipPath>
								<g style="clip-path:url(#SVGID_00000174575069780025800570000012556302124980554131_);">
									<g>
										<path style="fill:#D5C2DF;" d="M117.9,82.2l1.4,10c0.2,1.6-1.2,2.9-2.4,2.5l-20.3-2.5l1.1-0.2c0,0,0,0,0-0.5
											s0.4-1.1,0.9-1.2c0,0,0,0,0.5,0l17.5-5.7C117.2,84.5,118.1,83.2,117.9,82.2L117.9,82.2z"/>
									</g>
									<g>
										<path style="fill:#0D1524;" d="M113.2,48.9l1.4,10c-0.2-1.1-1.3-1.4-1.8-1.3l-19-1.1c0,0,0,0-0.5,0c0,0-0.6-0.4-0.7-1
											c0-0.5,0-0.5,0-0.5l-0.5,0l18.3-8C111.3,46.5,113,47.3,113.2,48.9L113.2,48.9z"/>
									</g>
									
										<linearGradient id="SVGID_00000049184587783751712370000016338840613072957610_" gradientUnits="userSpaceOnUse" x1="-434.3326" y1="-4020.7932" x2="-398.7365" y2="-4004.5957" gradientTransform="matrix(0.9903 -0.1387 -0.1387 -0.9903 -51.8454 -3948.7957)">
										<stop  offset="2.000000e-02" style="stop-color:#7797CE"/>
										<stop  offset="1" style="stop-color:#C4B4D8"/>
									</linearGradient>
									<path style="fill:url(#SVGID_00000049184587783751712370000016338840613072957610_);" d="M114.7,58.9l3.3,23.3l0,0l1.4,10
										c0.2,1.6-1.2,2.9-2.4,2.5l-20.3-2.5l-2.8-0.7c-1.1,0.2-1.7-0.3-1.8-1.3l0,0l-4.5-31.7l0,0c0-0.5,0.3-1.7,1.3-1.8l3-1.5
										l0.5,0c0,0,0,0,0,0.5c0,0.5,0.7,1,1.2,0.9c0,0,0,0,0.5,0l18.4,0.6C113.3,56.9,114.5,57.8,114.7,58.9L114.7,58.9z"/>
								</g>
							</g>
						</g>
					</g>
				</g>
			</g>
		</g>
	</g>
</g>
</svg>
