<?xml version="1.0" encoding="utf-8"?>
<!-- Generator: Adobe Illustrator 27.1.1, SVG Export Plug-In . SVG Version: 6.00 Build 0)  -->
<svg version="1.1" id="Layer_1" xmlns="http://www.w3.org/2000/svg" xmlns:xlink="http://www.w3.org/1999/xlink" x="0px" y="0px"
	 viewBox="0 0 152.3 54.1" style="enable-background:new 0 0 152.3 54.1;" xml:space="preserve">
<g transform="translate(-246 -44)">
	<path d="M255.5,50.3c-0.4-0.1-0.8,0-1.2,0.1c-0.4,0.1-0.7,0.3-1.1,0.5c-0.6,0.5-1.1,1.2-1.2,1.9c-0.1,0.8,0.1,1.5,0.6,2.2
		c0.5,0.6,1.2,1,2,1.1c0.8,0.1,1.6-0.1,2.2-0.6c0.6-0.5,1.1-1.2,1.2-1.9c0.1-0.8-0.1-1.5-0.6-2.2C257,50.7,256.3,50.3,255.5,50.3"/>
	<path d="M286.1,65.2c0.2-1,0.9-2,1.8-2.5c0.9-0.6,2-0.8,3.1-0.6c1.1,0.2,2,0.8,2.6,1.7c1.2,1.8,0.7,4.2-1.1,5.4
		c0,0-0.1,0.1-0.1,0.1c-0.4,0.2-0.8,0.4-1.2,0.5c-1.7,0.4-3.5-0.2-4.5-1.7C286.1,67.3,285.9,66.2,286.1,65.2 M300.3,63.7l-1.6,1.2
		l0.1,1.3l1.7,1c0.2,0.1,0.3,0.3,0.4,0.5c0,0.1,0,0.2,0,0.3c-0.2,1-0.6,2-1.1,2.9c-0.2,0.3-0.5,0.4-0.8,0.4l-2-0.3L296,72l0.5,1.9
		c0.1,0.3-0.1,0.6-0.3,0.8c-0.9,0.6-1.8,1-2.9,1.3l0,0c-0.3,0.1-0.6,0-0.8-0.3l-1.2-1.6l-1.3,0.1l-1.1,1.7c-0.2,0.3-0.5,0.4-0.8,0.4
		c-1-0.2-2-0.5-3-1c-0.2-0.1-0.3-0.3-0.4-0.5c0-0.1,0-0.2,0-0.3l0.3-1.9l-1.3-1.1c-0.1-0.1-0.2-0.2-0.2-0.4c0,0,0,0,0,0
		c-0.1-0.2,0-0.5,0.2-0.7c0.3-0.3,0.8-0.3,1.1-0.1l1.6,1.4c0.1,0.1,0.2,0.2,0.2,0.4c0,0.1,0,0.2,0,0.3l-0.2,1.8
		c0.5,0.2,1,0.4,1.5,0.5l1-1.5c0.1-0.2,0.4-0.4,0.6-0.4l2.1-0.1c0.3,0,0.5,0.1,0.7,0.3l1.1,1.4c0.5-0.2,1-0.4,1.4-0.7l-0.4-1.8
		c-0.1-0.2,0-0.5,0.2-0.7l1.4-1.5c0.2-0.2,0.4-0.3,0.7-0.2l1.9,0.2c0.2-0.5,0.4-0.9,0.5-1.4l-1.6-1c-0.2-0.1-0.3-0.3-0.4-0.5
		c0-0.1,0-0.1,0-0.2l-0.1-2.1c0-0.3,0.1-0.5,0.3-0.7l1.5-1.1c-0.2-0.5-0.4-0.9-0.7-1.4l-1.8,0.4c-0.3,0.1-0.5,0-0.7-0.2l-1.6-1.4
		c-0.1-0.1-0.2-0.2-0.2-0.4c0-0.1,0-0.2,0-0.3l0.2-1.8c-0.5-0.2-1-0.4-1.5-0.5l-1,1.5c-0.1,0.2-0.4,0.4-0.6,0.4l-2.1,0.1
		c-0.3,0-0.5-0.1-0.7-0.3l-1.1-1.4c-0.5,0.2-1,0.4-1.4,0.7l0.4,1.8c0,0,0,0,0,0c0.2,0.3,0.1,0.7-0.2,1l-1.4,1.1
		c-0.1,0.1-0.2,0.1-0.3,0.2c-0.3,0.1-0.6,0-0.8-0.3c-0.2-0.2-0.2-0.4-0.1-0.7c0-0.2,0.1-0.3,0.3-0.4l1-0.8l-0.5-2.1
		c-0.1-0.3,0.1-0.6,0.3-0.8c0.9-0.6,1.8-1,2.9-1.3c0.3-0.1,0.7,0,0.9,0.3l1.2,1.6l1.3-0.1l1.1-1.7c0.2-0.3,0.5-0.4,0.8-0.4
		c1,0.2,2,0.5,3,1c0.2,0.1,0.3,0.3,0.4,0.5c0,0.1,0,0.2,0,0.3l-0.3,1.9l1,0.8l2-0.4c0.3-0.1,0.7,0.1,0.9,0.3c0.6,0.8,1,1.8,1.4,2.8
		c0,0,0,0,0,0C300.6,63.2,300.5,63.6,300.3,63.7"/>
	<path d="M268.6,71.3c-1.7-0.3-3.2-1.3-4.2-2.7c-1-1.4-1.3-3.1-1-4.8c0.3-1.7,1.4-3.2,2.8-4.1c1.5-1,3.3-1.3,5-1
		c1.7,0.3,3.2,1.3,4.2,2.7c1,1.4,1.3,3.1,1,4.8c-0.5,2.5-2.4,4.4-4.9,5C270.6,71.5,269.6,71.5,268.6,71.3 M273.8,76.2l0.3-2
		c0-0.2,0.2-0.4,0.4-0.5l1.6-1c0.2-0.1,0.4-0.2,0.7-0.1l2,0.6c0.4-0.4,0.8-0.9,1.1-1.3l-1-1.8c-0.1-0.2-0.1-0.4,0-0.7l0.7-1.7
		c0.1-0.2,0.3-0.4,0.5-0.5l2-0.7c0-0.3,0.1-0.6,0.1-0.9c0-0.3,0-0.6,0-0.9l-1.9-0.9c-0.2-0.1-0.4-0.3-0.4-0.5l-0.5-1.8
		c-0.1-0.2,0-0.5,0.1-0.6l1.2-1.7c-0.3-0.5-0.6-1-1-1.5l-2.1,0.4c-0.2,0-0.5,0-0.7-0.2l-1.5-1.2c-0.2-0.1-0.3-0.4-0.3-0.6l0-2.1
		c-0.5-0.2-1.1-0.5-1.7-0.6l-1.5,1.5c-0.2,0.2-0.4,0.3-0.6,0.2l-1.9-0.1c-0.2,0-0.5-0.1-0.6-0.3l-1.3-1.6c-0.6,0.1-1.2,0.2-1.7,0.4
		l-0.3,2c0,0.2-0.2,0.4-0.4,0.5l-1.6,1c-0.2,0.1-0.4,0.2-0.7,0.1l-2-0.6c-0.4,0.4-0.8,0.9-1.1,1.3l0,0l1,1.8c0.1,0.2,0.1,0.4,0,0.6
		l-0.7,1.7c-0.1,0.2-0.3,0.4-0.5,0.4l-2,0.7c0,0.3-0.1,0.6-0.1,0.9s0,0.6,0,0.9l1.9,0.9c0.2,0.1,0.4,0.3,0.4,0.5l0.5,1.8
		c0.1,0.2,0,0.5-0.1,0.6l-1.2,1.7c0.3,0.5,0.6,1,1,1.5l2.1-0.4c0.2,0,0.5,0,0.7,0.2l1.5,1.2c0.2,0.1,0.3,0.4,0.3,0.6l0,2.1
		c0.5,0.2,1.1,0.5,1.7,0.6l1.5-1.5c0.2-0.2,0.4-0.3,0.6-0.2l1.9,0.1c0.2,0,0.5,0.1,0.6,0.3l1.3,1.6
		C272.7,76.6,273.3,76.4,273.8,76.2"/>
	<path d="M249.2,59.2l1.5-0.6l0.8,0.5l0,1.6c0,0.1,0,0.1,0,0.2c0.1,0.2,0.3,0.4,0.5,0.5c0.8,0.3,1.7,0.5,2.6,0.5c0.1,0,0.2,0,0.3,0
		c0.2-0.1,0.4-0.2,0.5-0.4l0.6-1.3l0.8,0.1c0.1,0,0.2,0,0.3,0c0.3-0.1,0.6-0.4,0.6-0.7c0-0.4-0.3-0.8-0.7-0.8c0,0,0,0,0,0l-1.4-0.1
		h0c0,0-0.1,0-0.1,0s0,0-0.1,0c0,0-0.1,0-0.1,0c0,0,0,0-0.1,0c0,0-0.1,0-0.1,0c0,0,0,0-0.1,0c0,0-0.1,0-0.1,0.1c0,0,0,0,0,0
		c0,0,0,0-0.1,0.1c0,0,0,0,0,0c0,0,0,0,0,0.1c0,0,0,0,0,0.1c0,0,0,0,0,0l-0.6,1.3c-0.4,0-0.7-0.1-1.1-0.2l0-1.4c0-0.1,0-0.1,0-0.2
		c0-0.2-0.2-0.3-0.3-0.4l-1.5-1c-0.2-0.1-0.5-0.2-0.7-0.1l-1.4,0.5c-0.2-0.3-0.4-0.6-0.6-0.9l1-1c0.2-0.2,0.3-0.4,0.2-0.7l-0.3-1.7
		c0,0,0,0,0-0.1c-0.1-0.2-0.2-0.4-0.4-0.5l-1.3-0.6c0-0.3,0.1-0.7,0.2-1l1.5,0c0.3,0,0.5-0.1,0.7-0.3l1-1.4c0.1-0.2,0.2-0.4,0.1-0.6
		c0,0,0-0.1,0-0.1l-0.5-1.3c0.3-0.2,0.6-0.4,0.9-0.6l1,1c0.2,0.2,0.5,0.3,0.7,0.2l1.7-0.3c0.3,0,0.5-0.2,0.6-0.4l0.6-1.3
		c0.4,0,0.7,0.1,1.1,0.2l0,1.4c0,0.1,0,0.1,0,0.2c0,0.2,0.2,0.3,0.3,0.4l1.5,1c0.2,0.1,0.5,0.2,0.7,0.1l1.4-0.5
		c0.2,0.3,0.4,0.6,0.6,0.9l-1,1c-0.2,0.2-0.3,0.4-0.2,0.7l0.3,1.7c0,0,0,0,0,0.1c0.1,0.2,0.2,0.4,0.5,0.5l1,0.4
		c0.4,0.2,0.9,0,1.1-0.4c0.1-0.2,0.1-0.3,0-0.5c-0.1-0.2-0.2-0.4-0.5-0.5l-0.7-0.3l-0.2-0.9l1.1-1.1c0.2-0.2,0.3-0.5,0.2-0.7
		c0,0,0-0.1,0-0.1c-0.4-0.8-0.9-1.5-1.4-2.1c-0.2-0.2-0.6-0.3-0.9-0.2l-1.5,0.6l-0.8-0.5l0-1.6c0-0.1,0-0.1,0-0.2
		c-0.1-0.2-0.3-0.4-0.5-0.5c-0.8-0.3-1.7-0.5-2.6-0.5c-0.3,0-0.6,0.2-0.8,0.5l-0.7,1.4l-0.9,0.2l-1.1-1.1c-0.2-0.2-0.6-0.3-0.9-0.2
		c-0.8,0.4-1.6,0.8-2.2,1.4c-0.2,0.2-0.3,0.5-0.2,0.8c0,0,0,0.1,0,0.1l0.6,1.4l-0.5,0.7l-1.6,0c-0.3,0-0.6,0.2-0.8,0.5
		c-0.3,0.8-0.5,1.6-0.5,2.5c0,0.1,0,0.2,0,0.2c0.1,0.2,0.2,0.4,0.4,0.5l1.5,0.6l0.2,0.9L247,56c-0.2,0.2-0.3,0.5-0.2,0.7
		c0,0,0,0.1,0,0.1c0.4,0.8,0.9,1.5,1.4,2.1C248.5,59.2,248.9,59.3,249.2,59.2"/>
	<path d="M254.5,71.4c-1.6,0.2-3.1-0.9-3.3-2.4c-0.2-1.6,0.9-3,2.5-3.2c0,0,0,0,0,0c1.6-0.2,3.1,0.9,3.3,2.4
		C257.2,69.7,256.1,71.2,254.5,71.4C254.5,71.4,254.5,71.4,254.5,71.4 M258,67.1l-0.7-0.1l-0.2-0.3l0,0l0.2-0.6c0-0.1,0-0.2,0-0.2
		c-0.2-0.2-0.5-0.4-0.7-0.6c-0.1,0-0.1-0.1-0.2,0c0,0,0,0-0.1,0l-0.4,0.2l-0.3,0.1l-0.3-0.1l-0.2-0.7c0-0.1-0.1-0.2-0.2-0.2
		c-0.3-0.1-0.6-0.1-1-0.1h0c-0.1,0-0.1,0.1-0.2,0.1l-0.3,0.6l-0.3,0.1l-0.6-0.4c-0.1,0-0.1-0.1-0.2,0c0,0,0,0-0.1,0
		c-0.3,0.1-0.6,0.3-0.8,0.5c-0.1,0.1-0.1,0.1-0.1,0.2l0.1,0.7l-0.2,0.3l-0.7,0c0,0,0,0,0,0c-0.1,0-0.1,0.1-0.2,0.1
		c-0.1,0.1-0.2,0.3-0.2,0.4c-0.1,0.1-0.1,0.3-0.2,0.4c0,0.1,0,0.2,0.1,0.2l0.5,0.5l0,0.3l-0.6,0.4c-0.1,0-0.1,0.1-0.1,0.2
		c0,0.3,0.1,0.6,0.2,0.9c0,0.1,0.1,0.1,0.2,0.2l0.7,0.1l0.2,0.3l-0.2,0.6c0,0.1,0,0.2,0,0.2c0.2,0.2,0.5,0.4,0.7,0.6
		c0.1,0,0.1,0.1,0.2,0c0,0,0,0,0.1,0l0.6-0.3l0.3,0.1l0.2,0.7c0,0.1,0.1,0.2,0.2,0.2c0.2,0,0.3,0.1,0.5,0.1c0.2,0,0.3,0,0.5,0h0
		c0.1,0,0.1-0.1,0.2-0.1l0.3-0.6L255,72l0.6,0.4c0.1,0,0.1,0.1,0.2,0c0,0,0,0,0.1,0c0.3-0.1,0.6-0.3,0.8-0.5
		c0.1-0.1,0.1-0.1,0.1-0.2l-0.1-0.7l0.2-0.3l0.5,0l0.2,0h0c0.1,0,0.1-0.1,0.2-0.1c0.1-0.1,0.2-0.3,0.2-0.4c0.1-0.1,0.1-0.3,0.2-0.4
		c0-0.1,0-0.2-0.1-0.2l-0.2-0.2l-0.3-0.3l0-0.3l0.6-0.4c0.1,0,0.1-0.1,0.1-0.2c0-0.3-0.1-0.6-0.2-0.9
		C258.2,67.2,258.1,67.1,258,67.1"/>
	<path d="M313.1,98.1l-3.5-9.1l-2.4-6.3c0.4-0.5,0.7-1,1-1.5c3.5-5.5,4.6-12.2,3-18.5c-1.6-6.4-5.8-11.8-11.5-15.1
		c-5.8-3.4-12.7-4.4-19.2-2.9c-2.4,0.6-4.7,1.5-6.9,2.7c-0.9,0.5-1.2,1.6-0.7,2.4c0,0,0,0,0,0.1c0.6,0.9,1.7,1.2,2.6,0.6
		c1.8-1,3.8-1.8,5.9-2.3c5.6-1.3,11.4-0.5,16.3,2.4c4.9,2.8,8.4,7.4,9.8,12.9c1.4,5.4,0.5,11.1-2.5,15.8c-3,4.8-7.8,8.2-13.3,9.4
		c-8.6,2.1-17.6-1.2-22.8-8.3c-0.6-0.8-1.8-1-2.6-0.5c-0.8,0.5-1.1,1.7-0.5,2.5c0,0,0,0,0,0.1c4.8,6.6,12.5,10.5,20.7,10.5
		c2.1,0,4.1-0.2,6.1-0.7c1.8-0.4,3.6-1.1,5.3-1.9l6.4,3.2L313.1,98.1z"/>
</g>
<g>
	<path d="M70,11.6c0-2.7,2.2-4.9,4.9-4.9c2.7,0,4.9,2.2,4.9,4.9c0,2.7-2.2,4.8-4.9,4.8C72.1,16.4,70,14.2,70,11.6z M78.6,11.6
		c0-2.1-1.7-3.8-3.8-3.8c-2.1,0-3.8,1.7-3.8,3.8c0,2.1,1.7,3.8,3.8,3.8C76.9,15.3,78.6,13.7,78.6,11.6z"/>
	<path d="M81.1,12.6V6.9h1.1v5.8c0,1.6,1,2.7,2.4,2.7s2.4-1.2,2.4-2.7V6.9h1.1v5.8c0,2.2-1.5,3.8-3.5,3.8
		C82.6,16.4,81.1,14.8,81.1,12.6z"/>
	<path d="M95.4,16.3l-2.6-3.7H91v3.7H90l0-9.4h2.8c1.8,0,3.2,1.3,3.2,3c0,1.2-0.8,2.3-2,2.6l2.8,3.8H95.4z M92.8,11.7
		c1.1,0,2.1-0.9,2.1-1.9c0-1.1-0.9-1.9-2.1-1.9H91v3.8L92.8,11.7z"/>
	<path d="M79.3,26.4c0,2.6-2,4.5-4.5,4.5c-2.7,0-4.9-2.2-4.9-4.8s2.2-4.9,4.9-4.9c1.2,0,2.6,0.6,3.4,1.4l-0.6,0.9
		c-0.7-0.7-1.9-1.2-2.8-1.2c-2,0-3.8,1.7-3.8,3.8c0,2.1,1.7,3.8,3.8,3.8c1.8,0,3.3-1.2,3.3-2.9c0-0.1,0-0.1,0-0.2h-3.4v-1h4.5
		C79.3,25.8,79.3,26.1,79.3,26.4z"/>
	<path d="M81.9,22.3v3h3.9v1.1h-3.9v3.3h4.5v1.1h-5.5v-9.4h5.5v1H81.9z"/>
	<path d="M95.7,21.2v9.6h-0.1l-6.5-7.2v7.1h-1.1v-9.6h0.1l6.5,7.2v-7.1H95.7z"/>
	<path d="M98.7,22.3v3h3.9v1.1h-3.9v3.3h4.5v1.1h-5.5v-9.4h5.5v1H98.7z"/>
	<path d="M110.4,30.7l-2.6-3.7H106v3.7h-1.1l0-9.4h2.8c1.8,0,3.2,1.3,3.2,3c0,1.2-0.8,2.3-2,2.6l2.8,3.8H110.4z M107.7,26.1
		c1.1,0,2.1-0.9,2.1-1.9c0-1.1-0.9-1.9-2.1-1.9H106v3.8L107.7,26.1z"/>
	<path d="M118.9,29.1h-5.2l-0.7,1.6h-1.2l4.4-9.6h0.1l4.4,9.6h-1.2L118.9,29.1z M118.5,28.2l-2.2-4.9l-2.2,4.9H118.5z"/>
	<path d="M126.6,22.3h-2.7v8.4h-1.1v-8.4h-2.7v-1.1h6.6V22.3z"/>
	<path d="M127.9,21.3h1.1v9.4h-1.1V21.3z"/>
	<path d="M130.5,26c0-2.7,2.2-4.9,4.9-4.9c2.7,0,4.9,2.2,4.9,4.9c0,2.7-2.2,4.8-4.9,4.8C132.7,30.8,130.5,28.6,130.5,26z M139.1,26
		c0-2.1-1.7-3.8-3.8-3.8c-2.1,0-3.8,1.7-3.8,3.8c0,2.1,1.7,3.8,3.8,3.8C137.4,29.7,139.1,28.1,139.1,26z"/>
	<path d="M149.3,21.2v9.6h-0.1l-6.5-7.2v7.1h-1.1v-9.6h0.1l6.5,7.2v-7.1H149.3z"/>
	<path d="M69.9,43.4l0.8-0.6c0.4,0.8,1.4,1.3,2.4,1.3c1.2,0,2.2-0.7,2.2-1.6c0-1.1-1.4-1.6-2.6-2c-1.2-0.5-2.5-1-2.5-2.5
		c0-1.5,1.3-2.5,3-2.5c1.4,0,2.4,0.8,2.7,1.7l-0.8,0.5c-0.3-0.7-1.1-1.2-1.9-1.2c-1,0-1.9,0.7-1.9,1.5c0,0.9,1,1.2,2.3,1.7
		c1.4,0.6,2.8,1.2,2.8,2.7c0,1.6-1.5,2.7-3.3,2.7C71.5,45.2,70.3,44.4,69.9,43.4z"/>
	<path d="M77.8,35.7h3c1.8,0,3.3,1.4,3.3,3c0,1.6-1.5,2.9-3.3,2.9h-1.9v3.5h-1.1V35.7z M83,38.7c0-1.1-1-2-2.3-2h-1.9v3.8l1.9,0
		C82,40.6,83,39.7,83,38.7z"/>
	<path d="M86.5,36.7v3h3.9v1.1h-3.9V44h4.5v1.1h-5.5v-9.4h5.5v1H86.5z"/>
	<path d="M98.8,43.5h-5.2l-0.7,1.6h-1.2l4.4-9.6h0.1l4.4,9.6h-1.2L98.8,43.5z M98.4,42.6l-2.2-4.9l-2.2,4.9H98.4z"/>
	<path d="M101.8,35.7h1.1v9.4h-1.1V35.7z M103,40.3l3.7-4.7h1.3l-3.7,4.6l4,4.8H107L103,40.3z"/>
	<path d="M108.8,43.4l0.8-0.6c0.4,0.8,1.4,1.3,2.4,1.3c1.2,0,2.2-0.7,2.2-1.6c0-1.1-1.4-1.6-2.6-2c-1.2-0.5-2.5-1-2.5-2.5
		c0-1.5,1.3-2.5,3-2.5c1.4,0,2.4,0.8,2.7,1.7l-0.8,0.5c-0.3-0.7-1.1-1.2-1.9-1.2c-1,0-1.9,0.7-1.9,1.5c0,0.9,1,1.2,2.3,1.7
		c1.4,0.6,2.8,1.2,2.8,2.7c0,1.6-1.5,2.7-3.3,2.7C110.4,45.2,109.2,44.4,108.8,43.4z"/>
</g>
</svg>
