<?xml version="1.0" encoding="utf-8"?>
<!-- Generator: Adobe Illustrator 27.1.1, SVG Export Plug-In . SVG Version: 6.00 Build 0)  -->
<svg version="1.1" id="Layer_1" xmlns="http://www.w3.org/2000/svg" xmlns:xlink="http://www.w3.org/1999/xlink" x="0px" y="0px"
	 viewBox="0 0 1068.9 485.5" style="enable-background:new 0 0 1068.9 485.5;" xml:space="preserve">
<style type="text/css">
	.st0{fill:#4285F4;}
	.st1{fill:#EA4335;}
	.st2{fill:#FBBC04;}
	.st3{fill:#34A853;}
	.st4{fill:#5F6368;}
</style>
<g>
	<path class="st0" d="M167.2,142.2v-32.8h109.6c1.2,6.6,1.8,13.3,1.8,20.1c0,24.6-6.7,55-28.4,76.6c-21.1,21.9-47.9,33.6-83.6,33.6
		c-66,0-121.5-53.8-121.5-119.9S100.6,0,166.6,0c36.6,0,62.5,14.3,82.1,33l-23.1,23.1c-14.1-13.2-33-23.4-59-23.4
		c-48.2,0-85.9,38.9-85.9,87.1s37.7,87.1,85.9,87.1c31.3,0,49.1-12.6,60.5-24c9.3-9.3,15.4-22.6,17.8-40.8L167.2,142.2z"/>
	<path class="st1" d="M445.5,162.5c0,44.5-34.8,77.2-77.4,77.2s-77.4-32.7-77.4-77.2c0-44.7,34.8-77.2,77.4-77.2
		S445.6,117.8,445.5,162.5 M411.7,162.5c0-27.8-20.2-46.8-43.6-46.8c-23.4,0-43.6,19-43.6,46.8c0,27.5,20.2,46.8,43.6,46.8
		C391.5,209.3,411.7,190,411.7,162.5"/>
	<path class="st2" d="M614.5,162.5c0,44.5-34.8,77.2-77.4,77.2s-77.5-32.7-77.5-77.2c0-44.7,34.8-77.2,77.4-77.2
		C579.7,85.3,614.5,117.8,614.5,162.5 M580.6,162.5c0-27.8-20.2-46.8-43.6-46.8s-43.6,19-43.6,46.8c0,27.5,20.2,46.8,43.6,46.8
		C560.5,209.3,580.6,190,580.6,162.5"/>
	<path class="st0" d="M776.5,90v138.6c0,57-33.6,80.4-73.4,80.4c-37.4,0-59.9-25.2-68.4-45.6l29.5-12.3
		c5.3,12.6,18.1,27.5,38.9,27.5c25.4,0,41.2-15.8,41.2-45.3v-11.1h-1.1c-7.6,9.4-22.2,17.6-40.6,17.6c-38.6,0-73.9-33.6-73.9-76.9
		c0-43.6,35.4-77.5,73.9-77.5c18.4,0,33,8.2,40.6,17.3h1.1V90L776.5,90L776.5,90z M746.6,162.8c0-27.2-18.1-47.1-41.2-47.1
		c-23.4,0-43,19.9-43,47.1c0,26.9,19.6,46.5,43,46.5C728.5,209.3,746.6,189.7,746.6,162.8"/>
	<path class="st3" d="M800,8.9h33.9V235H800V8.9z"/>
	<path class="st1" d="M964.8,188l26.3,17.6c-8.4,12.6-28.9,34.2-64.3,34.2c-43.8,0-76.6-33.9-76.6-77.2c0-45.9,33-77.2,72.8-77.2
		c40,0,59.6,31.9,66,49.1l3.5,8.8l-103.2,42.7c7.9,15.5,20.2,23.4,37.4,23.4S956,200.9,964.8,188 M883.8,160.2l69-28.7
		c-3.8-9.7-15.2-16.4-28.7-16.4C906.9,115.2,883,130.4,883.8,160.2"/>
</g>
<g>
	<path class="st4" d="M74.4,415.2V338H61.8v-12.4h12.6v-4.3c0-12.6,2.8-24.1,10.4-31.3c6.1-5.9,14.3-8.3,21.8-8.3
		c5.7,0,10.7,1.3,13.9,2.6l-2.2,12.6c-2.4-1.1-5.7-2-10.4-2c-13.9,0-17.4,12.2-17.4,25.9v4.8h21.7V338H90.5v77.2H74.4z"/>
	<path class="st4" d="M205.4,369.7c0,33.1-23,47.6-44.6,47.6c-24.2,0-42.9-17.8-42.9-46.1c0-30,19.6-47.6,44.4-47.6
		C188,323.6,205.4,342.3,205.4,369.7z M134.4,370.6c0,19.6,11.3,34.4,27.2,34.4c15.5,0,27.2-14.6,27.2-34.8
		c0-15.2-7.6-34.4-26.8-34.4C142.7,335.8,134.4,353.6,134.4,370.6z"/>
	<path class="st4" d="M226,353.6c0-10.5-0.2-19.6-0.7-27.9h14.3l0.6,17.6h0.7c4.1-12,13.9-19.6,24.8-19.6c1.9,0,3.1,0.2,4.6,0.6
		v15.4c-1.7-0.4-3.3-0.6-5.6-0.6c-11.5,0-19.6,8.7-21.8,20.9c-0.4,2.2-0.7,4.8-0.7,7.6v47.8H226V353.6z"/>
	<path class="st4" d="M324.1,395.6c7.2,4.4,17.8,8.1,28.9,8.1c16.5,0,26.1-8.7,26.1-21.3c0-11.7-6.7-18.3-23.5-24.8
		c-20.4-7.2-32.9-17.8-32.9-35.4c0-19.4,16.1-33.9,40.4-33.9c12.8,0,22,3,27.6,6.1l-4.4,13.1c-4.1-2.2-12.4-5.9-23.7-5.9
		c-17,0-23.5,10.2-23.5,18.7c0,11.7,7.6,17.4,24.8,24.1c21.1,8.1,31.8,18.3,31.8,36.7c0,19.2-14.3,35.9-43.7,35.9
		c-12,0-25.2-3.5-31.8-8L324.1,395.6z"/>
	<path class="st4" d="M436.1,299.9v25.7h23.3V338h-23.3v48.3c0,11.1,3.1,17.4,12.2,17.4c4.3,0,7.4-0.6,9.4-1.1l0.7,12.2
		c-3.1,1.3-8.1,2.2-14.4,2.2c-7.6,0-13.7-2.4-17.6-6.8c-4.6-4.8-6.3-12.8-6.3-23.3V338h-13.9v-12.4h13.9v-21.5L436.1,299.9z"/>
	<path class="st4" d="M527.3,415.2l-1.3-11.3h-0.6c-5,7-14.6,13.3-27.4,13.3c-18.1,0-27.4-12.8-27.4-25.7
		c0-21.7,19.3-33.5,53.9-33.3v-1.9c0-7.4-2-20.7-20.4-20.7c-8.3,0-17,2.6-23.3,6.7l-3.7-10.7c7.4-4.8,18.1-8,29.4-8
		c27.4,0,34.1,18.7,34.1,36.7v33.5c0,7.8,0.4,15.4,1.5,21.5H527.3z M524.9,369.5c-17.8-0.4-37.9,2.8-37.9,20.2
		c0,10.6,7,15.5,15.4,15.5c11.7,0,19.1-7.4,21.7-15c0.6-1.7,0.9-3.5,0.9-5.2V369.5z"/>
	<path class="st4" d="M566.9,353.6c0-10.5-0.2-19.6-0.7-27.9h14.3l0.6,17.6h0.7c4.1-12,13.9-19.6,24.8-19.6c1.9,0,3.1,0.2,4.6,0.6
		v15.4c-1.7-0.4-3.3-0.6-5.6-0.6c-11.5,0-19.6,8.7-21.8,20.9c-0.4,2.2-0.7,4.8-0.7,7.6v47.8h-16.1V353.6z"/>
	<path class="st4" d="M651.5,299.9v25.7h23.3V338h-23.3v48.3c0,11.1,3.1,17.4,12.2,17.4c4.3,0,7.4-0.6,9.4-1.1l0.7,12.2
		c-3.1,1.3-8.1,2.2-14.4,2.2c-7.6,0-13.7-2.4-17.6-6.8c-4.6-4.8-6.3-12.8-6.3-23.3V338h-13.9v-12.4h13.9v-21.5L651.5,299.9z"/>
	<path class="st4" d="M768.1,390.8c0,9.3,0.2,17.4,0.7,24.4h-14.4l-0.9-14.6h-0.4c-4.3,7.2-13.7,16.7-29.6,16.7
		c-14.1,0-30.9-7.8-30.9-39.2v-52.4h16.3v49.6c0,17,5.2,28.5,20,28.5c10.9,0,18.5-7.6,21.5-14.8c0.9-2.4,1.5-5.4,1.5-8.3v-55h16.3
		V390.8z"/>
	<path class="st4" d="M795.1,354.9c0-11.5-0.4-20.7-0.7-29.2H809l0.7,15.4h0.4c6.7-10.9,17.2-17.4,31.8-17.4
		c21.7,0,37.9,18.3,37.9,45.5c0,32.2-19.6,48.1-40.7,48.1c-11.8,0-22.2-5.2-27.6-14.1h-0.4v48.7h-16.1V354.9z M811.2,378.7
		c0,2.4,0.4,4.6,0.7,6.7c3,11.3,12.8,19.1,24.4,19.1c17.2,0,27.2-14.1,27.2-34.6c0-18-9.4-33.3-26.7-33.3c-11.1,0-21.5,8-24.6,20.2
		c-0.6,2-1.1,4.4-1.1,6.7V378.7z"/>
	<path class="st4" d="M898.2,398.5c4.8,3.1,13.3,6.5,21.5,6.5c11.8,0,17.4-5.9,17.4-13.3c0-7.8-4.6-12-16.7-16.5
		c-16.1-5.7-23.7-14.6-23.7-25.4c0-14.4,11.7-26.3,30.9-26.3c9.1,0,17,2.6,22,5.6l-4.1,11.8c-3.5-2.2-10-5.2-18.3-5.2
		c-9.6,0-15,5.6-15,12.2c0,7.4,5.4,10.7,17,15.2c15.5,5.9,23.5,13.7,23.5,27c0,15.7-12.2,26.8-33.5,26.8c-9.8,0-18.9-2.4-25.2-6.1
		L898.2,398.5z"/>
</g>
</svg>
