<?xml version="1.0" encoding="utf-8"?>
<!-- Generator: Adobe Illustrator 27.1.1, SVG Export Plug-In . SVG Version: 6.00 Build 0)  -->
<svg version="1.1" id="Layer_1" xmlns="http://www.w3.org/2000/svg" xmlns:xlink="http://www.w3.org/1999/xlink" x="0px" y="0px"
	 viewBox="0 0 727.7 284.2" style="enable-background:new 0 0 727.7 284.2;" xml:space="preserve">
<style type="text/css">
	.st0{fill:#39C463;}
</style>
<path d="M74,135.8h20.4V154h14.7v14.5H94.4v29.9c0,6.3,2,7.5,8.8,7.5h5.9v14.8h-13c-16.5,0-22.1-3.2-22.1-18.7v-33.5H63.5V154H74
	L74,135.8z M178.3,199.9c-6,15.8-20,22.6-33.3,22.6c-21.7,0-36.6-13.1-36.6-35.4c0-21.4,16.2-34.9,35.8-34.9
	c22.2,0,35.8,16.8,34.4,40.5h-49.5c0.6,9.5,8,13.8,15.4,13.8c7.8,0,12.7-2.8,15-6.7L178.3,199.9z M129.4,180.3h28.9
	c-0.4-8.4-6.2-12.6-14-12.6C136.9,167.7,130.5,171.5,129.4,180.3z M248.8,178.5h-19c-1.8-7.8-6.7-10.5-12.7-10.5
	c-7.3,0-14.5,5-14.5,19.3c0,14.5,7.2,19.3,14.5,19.3c7.5,0,12.2-3.9,13.7-10.3h19c-4.6,19.8-20.6,26.1-34,26.1
	c-22,0-34.1-14.1-34.1-35.4s13.9-34.9,34.1-34.9C229.6,152.1,244.8,158.4,248.8,178.5z M272.5,162.9c2.9-5,10.2-10.3,20.7-10.3
	c17.1,0,22.5,10.1,22.5,28.2v40.1h-20.4V186c0-9.5-0.3-17.3-10.2-17.3c-8.8,0-12.5,5.7-12.5,18.2v34.2h-20.4v-90h20.4L272.5,162.9z
	 M362.7,173.7c-1.4-5-6.6-6.4-13-6.4c-7.1,0-10.6,1.7-10.6,5c0,3.1,2.4,4.9,8.2,6l12.5,2.2c16,2.9,23.7,7.7,23.7,19.4
	c0,15-13.8,22.6-32.3,22.6c-17.8,0-30.4-7.5-32.7-23.3h19c1.8,6.4,7,8.4,14,8.4c7.3,0,12.4-2,12.4-6c0-2.9-2.6-4.9-10.5-6.2l-11.9-2
	c-12.9-2.1-21.7-8.6-21.7-20.4c0-13.3,14-20.6,30.5-20.6c15.2,0,29.1,6.1,31.6,21.4L362.7,173.7z M394,135.8h20.4V154h14.7v14.5
	h-14.7v29.9c0,6.3,2,7.5,8.8,7.5h5.8v14.8h-12.9c-16.5,0-22.1-3.2-22.1-18.7v-33.5h-10.5V154H394V135.8z M475.7,176.5
	c0-8-3.8-10.6-11.3-10.6c-6.6,0-11,3.4-11.9,9.8h-19.1c1-12.6,12.9-23.7,32.7-23.7c19.3,0,30.2,7.8,29.8,28.1l-0.3,14.5v7
	c0,7.3,0.5,15.2,1.5,19.3H477l-0.3-8.1c-5,7.1-12.9,9.7-22.5,9.7c-12.7,0-23.1-7.4-23.1-19.6c0-16.4,18.5-21.7,44.4-23.7
	L475.7,176.5z M476.3,191.2c-14.3,1.4-23.8,2.8-23.8,10.2c0,4.3,4.1,7.2,9.4,7.2c8.2,0,14.4-3.5,14.4-15.8V191.2z M542.7,173.7
	c-1.8-0.3-3.8-0.5-5.6-0.4c-9.9,0-15,3.6-15,14v33.5h-20.5V154h19.7v12.7c3.1-8,8.7-12.7,18.2-13.1h1.5c0.6,0,1.1,0,1.7,0.1
	L542.7,173.7z M587.9,173.7c-1.4-5-6.6-6.4-13-6.4c-7.1,0-10.6,1.7-10.6,5c0,3.1,2.4,4.9,8.2,6l12.4,2.2c16,2.9,23.7,7.7,23.7,19.4
	c0,15-13.8,22.6-32.3,22.6c-17.7,0-30.4-7.5-32.7-23.3h19c1.8,6.4,7,8.4,14,8.4c7.3,0,12.4-2,12.4-6c0-2.9-2.6-4.9-10.5-6.2l-11.9-2
	c-12.9-2.1-21.6-8.6-21.6-20.4c0-13.3,14-20.6,30.5-20.6c15.2,0,29.1,6.1,31.6,21.4L587.9,173.7z"/>
<path class="st0" d="M617.1,218.2V201h55.2v17.2H617.1z"/>
<g>
	<path d="M73.8,117.5c0.2-3.5,0.4-10,0.4-16.1v-62h16.7v30.7h0.2c3.2-4.6,8.8-7.6,16.3-7.6c12.9,0,22.3,10.7,22.2,27.2
		c0,19.4-12.3,29-24.6,29c-6.3,0-12.3-2.3-16.2-8.7h-0.2l-0.7,7.5H73.8z M90.9,94.6c0,1.1,0.1,2.1,0.3,3c1.1,4.5,4.9,7.9,9.8,7.9
		c7.1,0,11.5-5.5,11.5-15.2c0-8.4-3.7-15-11.5-15c-4.5,0-8.7,3.4-9.8,8.2c-0.2,1-0.3,2-0.3,3.1V94.6z"/>
	<path d="M170.6,117.5l-1-5.4h-0.3c-3.5,4.3-9,6.6-15.4,6.6c-10.9,0-17.4-7.9-17.4-16.5c0-14,12.5-20.7,31.6-20.6v-0.8
		c0-2.9-1.5-6.9-9.8-6.9c-5.5,0-11.3,1.9-14.9,4.1l-3.1-10.8c3.7-2.1,11.1-4.7,20.9-4.7c17.9,0,23.7,10.6,23.7,23.2v18.7
		c0,5.2,0.2,10.1,0.8,13.1H170.6z M168.6,92.1c-8.8-0.1-15.6,2-15.6,8.5c0,4.3,2.9,6.4,6.6,6.4c4.2,0,7.6-2.8,8.7-6.2
		c0.2-0.9,0.3-1.9,0.3-2.9V92.1z"/>
	<path d="M238.4,116.2c-3,1.3-8.6,2.4-15,2.4c-17.4,0-28.5-10.6-28.5-27.5c0-15.7,10.8-28.6,30.8-28.6c4.4,0,9.2,0.8,12.8,2.1
		L235.9,77c-2-0.9-5-1.7-9.4-1.7c-8.8,0-14.5,6.3-14.4,15.1c0,9.9,6.6,15.1,14.7,15.1c4,0,7-0.7,9.6-1.6L238.4,116.2z"/>
	<path d="M264.4,86.4h0.2c1.2-2.2,2.5-4.4,3.9-6.5l10.9-16.2h20.1l-19.3,21.8l22,32h-20.6l-13-22.1l-4.3,5.3v16.8h-16.7V39.4h16.7
		V86.4z"/>
	<path d="M318.6,96c0.5,6.9,7.4,10.2,15.2,10.2c5.7,0,10.3-0.8,14.9-2.2l2.2,11.3c-5.5,2.2-12.2,3.3-19.5,3.3
		c-18.3,0-28.7-10.6-28.7-27.4c0-13.6,8.5-28.7,27.2-28.7c17.4,0,24,13.5,24,26.8c0,2.9-0.3,5.4-0.5,6.6H318.6z M338.3,84.5
		c0-4.1-1.8-10.9-9.5-10.9c-7,0-9.9,6.4-10.3,10.9H338.3z"/>
	<path d="M416,39.4v62c0,6,0.2,12.4,0.4,16.1h-14.8l-0.8-7.9h-0.2c-3.4,6-9.9,9.1-16.8,9.1c-12.8,0-23-10.9-23-27.6
		C360.6,73,372,62.5,384.8,62.5c6.6,0,11.8,2.3,14.2,6.1h0.2V39.4H416z M399.3,86.5c0-0.9-0.1-2.1-0.2-3c-1-4.5-4.6-8.2-9.8-8.2
		c-7.6,0-11.5,6.8-11.5,15.3c0,9.1,4.5,14.9,11.4,14.9c4.8,0,8.7-3.3,9.7-8c0.3-1.2,0.4-2.4,0.4-3.9V86.5z"/>
	<path d="M451.2,117.5c0.2-3.5,0.4-10,0.4-16.1v-62h16.7v30.7h0.2c3.2-4.6,8.8-7.6,16.3-7.6c12.9,0,22.3,10.7,22.2,27.2
		c0,19.4-12.3,29-24.6,29c-6.3,0-12.3-2.3-16.2-8.7H466l-0.7,7.5H451.2z M468.3,94.6c0,1.1,0.1,2.1,0.3,3c1.1,4.5,5,7.9,9.8,7.9
		c7.2,0,11.6-5.5,11.6-15.2c0-8.4-3.7-15-11.6-15c-4.5,0-8.7,3.4-9.8,8.2c-0.2,1-0.3,2-0.3,3.1V94.6z"/>
	<path d="M528.9,63.7l8,26.4c0.9,3.2,2,7.1,2.6,10h0.3c0.8-2.9,1.7-6.9,2.4-10l6.6-26.4h17.9l-12.5,35.4
		c-7.7,21.3-12.9,29.9-18.9,35.3c-5.8,5.1-12,6.8-16.2,7.4l-3.5-14.2c2.1-0.3,4.7-1.3,7.3-2.9c2.5-1.3,5.3-4,6.9-6.7
		c0.5-0.8,0.9-1.6,0.9-2.4c0-0.5-0.1-1.4-0.8-2.8l-19.7-49.2H528.9z"/>
</g>
</svg>
