<?xml version="1.0" encoding="utf-8"?>
<!-- Generator: Adobe Illustrator 27.1.1, SVG Export Plug-In . SVG Version: 6.00 Build 0)  -->
<svg version="1.1" id="Layer_1" xmlns="http://www.w3.org/2000/svg" xmlns:xlink="http://www.w3.org/1999/xlink" x="0px" y="0px"
	 viewBox="0 0 1000 951" style="enable-background:new 0 0 1000 951;" xml:space="preserve">
	 <style>


	#slack, #linkedin, #zoom, #zen, #mail, #sales, #gmail, #hubspot{
	display:block;
	animation:float 2s indefinite ease-in;
	
	
}



	 @keyframes float {
	0% {
		transform: translatey(0px);
	}
	50% {
		transform: translatey(-20px);
	}
	100% {
		transform: translatey(0px);
	}
}





	 </style>
<path id="path1" style="display:none"  d="M-40-15c0,0,83-88,271-114S628-79,638-2S525,124,320,140S-56,79-40-15z" />
<path id="path2" style="display:none"  d="M132,11c0,0-33,146-396,135c0,0-287-18-282-134s306-138,370-139c0,0,227,11,279,85l1.7,3.1L132,11z"/>




<polyline style="opacity:0.53;fill:#993399;enable-background:new    ;" points="408.1,912.6 515.5,910.1 541.6,914 408.1,914 	"/>
	<g>
		
			<linearGradient id="SVGID_1_" gradientUnits="userSpaceOnUse" x1="475.7509" y1="8.7927" x2="502.7058" y2="8.7927" gradientTransform="matrix(1 3.965446e-03 -3.965446e-03 1 2.4412 507.9214)">
			<stop  offset="0" style="stop-color:#FFCC99"/>
			<stop  offset="1" style="stop-color:#FF9999"/>
		</linearGradient>
		<path style="fill:url(#SVGID_1_);stroke:#000000;stroke-miterlimit:10;" d="M496.9,506.2l-0.1,18c0,0,9.7-0.9,8.1,4.1
			c-1.7,4.9-18.6,2.7-24.9-0.1s5.3-4.1,5.3-4.1l-0.5-18L496.9,506.2z"/>
		
			<linearGradient id="SVGID_00000151504584066548787950000007172479078813991578_" gradientUnits="userSpaceOnUse" x1="488.08" y1="-320.0253" x2="492.3102" y2="69.1542" gradientTransform="matrix(1 3.965446e-03 -3.965446e-03 1 2.4412 507.9214)">
			<stop  offset="0" style="stop-color:#FFCC99"/>
			<stop  offset="1" style="stop-color:#FF9999"/>
		</linearGradient>
		
			<path style="fill:url(#SVGID_00000151504584066548787950000007172479078813991578_);stroke:#000000;stroke-width:2;stroke-miterlimit:10;" d="
			M672.4,394.5c-5-10.4-22.8-4.4-35,1c3.1-14,4.4-30.1,4.1-50.2c0,0,1.8-101.1-106.2-110.2c-108-9.1-181.3,15-195.6,76.5
			c0,0-5.6,36.7,8.5,81.6c-12.3-5.3-29.3-10.7-34.2-0.7c-7.6,15.5,18.9,48,62,54.7c3.5,4.9,7.1,9.4,9.7,12.1
			c12,12.3,44.7,49.8,108.8,53.1c0,0,57.8,4.1,104.1-42.8c4.8-4.9,10.5-13.2,15.4-21.2C656.9,442.7,679.8,410.2,672.4,394.5z"/>
		<path style="fill:#E39179;" d="M613.4,368.9c-0.2-0.1-2-1-5.6-2.3c-11.6-4-38.7-10.4-89.6-7.7l-4.7,0.3l-0.2,4.7
			c0,0.1,0,0.6,0,1.4c-21.1-0.8-34.5,0.7-41.5,1.8c0-2-0.1-3.2-0.1-3.4l-0.2-4.7l-4.7-0.3c-50.8-3.1-77.9,3-89.6,6.9
			c-3.6,1.2-5.4,2.2-5.6,2.3c-2.5,1.3-3.5,4.4-2.2,6.9s4.4,3.5,6.9,2.2c0,0,0.5-0.2,1.5-0.6c0.1,40.2,16.1,59.3,29.5,68.1
			c9.9,6.4,20.9,9.2,30.6,9.2c6.3,0,12-1.1,16.3-3c0.2-0.1,0.4-0.2,0.6-0.3c0.1,0,0.1-0.1,0.2-0.1c0.1-0.1,0.3-0.2,0.4-0.2
			s0.1-0.1,0.2-0.1c0.1-0.1,0.3-0.2,0.4-0.3c0.1,0,0.1-0.1,0.2-0.1c0.1-0.1,0.3-0.2,0.4-0.3c0.1,0,0.1-0.1,0.2-0.1
			c0.2-0.1,0.3-0.3,0.5-0.4l0.1-0.1c0.2-0.2,0.4-0.3,0.6-0.5c0,0,0,0,0.1-0.1c0.4-0.4,0.9-0.9,1.3-1.4l0,0l0,0
			c4.5-5.4,9.2-17.1,11.3-44.2c0.7-9.4,1-18.4,1.1-25.5l41.4,0.2c0,7,0.2,16.1,0.9,25.5c1.9,27.1,6.4,38.8,10.9,44.2l0,0l0,0
			c0.4,0.5,0.9,1,1.3,1.4c0,0,0,0,0.1,0.1c0.2,0.2,0.4,0.4,0.6,0.5l0.1,0.1c0.2,0.1,0.3,0.3,0.5,0.4c0.1,0,0.1,0.1,0.2,0.1
			c0.1,0.1,0.3,0.2,0.4,0.3c0.1,0,0.1,0.1,0.2,0.1c0.1,0.1,0.3,0.2,0.4,0.3c0.1,0,0.1,0.1,0.2,0.1c0.1,0.1,0.3,0.2,0.4,0.2
			c0.1,0,0.1,0.1,0.2,0.1c0.2,0.1,0.4,0.2,0.6,0.3c4.3,2,10,3.1,16.3,3.2c9.6,0,20.7-2.6,30.6-9c13.5-8.7,29.6-27.7,30.1-67.9
			c1,0.4,1.5,0.6,1.5,0.6c2.5,1.3,5.6,0.3,6.9-2.2C616.9,373.3,615.9,370.2,613.4,368.9z M450.1,441.3c-7,3.2-23.1,3.7-37-5.4
			c-11.7-7.7-25.5-24.8-24.9-62.7c12.3-3,35.6-6.5,73.4-4.5C462.4,410.1,456.4,438.5,450.1,441.3z M523.6,369
			c37.8-1.7,61,2,73.4,5.1c0.4,37.8-13.6,54.8-25.3,62.5c-13.8,8.9-29.9,8.4-37,5.2C528.2,438.7,522.4,410.3,523.6,369z"/>
		<g>
			<circle cx="422.9" cy="394.2" r="16.1"/>
			<circle style="fill:#FFFFFF;" cx="426.1" cy="388.4" r="5.1"/>
		</g>
		<g>
			<ellipse transform="matrix(3.965397e-03 -1 1 3.965397e-03 168.5205 953.5871)" cx="562.9" cy="392.2" rx="16.1" ry="16.1"/>
			
				<ellipse transform="matrix(3.965354e-03 -1 1 3.965354e-03 177.4367 951.0297)" style="fill:#FFFFFF;" cx="566.1" cy="386.4" rx="5.1" ry="5.1"/>
		</g>
		<path style="fill:none;stroke:#000000;stroke-width:2;stroke-miterlimit:10;" d="M497.4,391.2l-0.2,38.8c0,0,20.9,0.6,20.9,8.3
			c0,7.7-7.8,15.4-25.8,15.3"/>
		<path style="fill:none;stroke:#000000;stroke-miterlimit:10;" d="M325.9,399.9c0,0,27.7,5.5,39.1,30"/>
		<path style="fill:none;stroke:#000000;stroke-miterlimit:10;" d="M658.1,401.3c0,0-23.5,11.8-33.8,29.8"/>
		<path d="M613.4,363.4c-0.2-0.1-2-1-5.6-2.3c-11.6-4-38.7-10.4-89.6-7.7l-4.7,0.3l-0.2,4.7c0,0.1,0,0.6,0,1.4
			c-21.1-0.8-34.5,0.7-41.5,1.8c0-2-0.1-3.2-0.1-3.4l-0.2-4.7l-4.7-0.3c-50.8-3.1-77.9,3-89.6,6.9c-3.6,1.2-5.4,2.2-5.6,2.3
			c-2.5,1.3-3.5,4.4-2.2,6.9s4.4,3.5,6.9,2.2c0,0,0.5-0.2,1.5-0.6c0.1,40.2,16.1,59.3,29.5,68.1c9.9,6.4,20.9,9.2,30.6,9.2
			c6.3,0,12-1.1,16.3-3c0.2-0.1,0.4-0.2,0.6-0.3c0.1,0,0.1-0.1,0.2-0.1c0.1-0.1,0.3-0.2,0.4-0.2s0.1-0.1,0.2-0.1
			c0.1-0.1,0.3-0.2,0.4-0.3c0.1,0,0.1-0.1,0.2-0.1c0.1-0.1,0.3-0.2,0.4-0.3c0.1,0,0.1-0.1,0.2-0.1c0.2-0.1,0.3-0.3,0.5-0.4l0.1-0.1
			c0.2-0.2,0.4-0.3,0.6-0.5c0,0,0,0,0.1-0.1c0.4-0.4,0.9-0.9,1.3-1.4l0,0l0,0c4.5-5.4,9.2-17.1,11.3-44.2c0.7-9.4,1-18.4,1.1-25.5
			l41.4,0.2c0,7,0.2,16.1,0.9,25.5c1.9,27.1,6.4,38.8,10.9,44.2l0,0l0,0c0.4,0.5,0.9,1,1.3,1.4c0,0,0,0,0.1,0.1
			c0.2,0.2,0.4,0.4,0.6,0.5l0.1,0.1c0.2,0.1,0.3,0.3,0.5,0.4c0.1,0,0.1,0.1,0.2,0.1c0.1,0.1,0.3,0.2,0.4,0.3c0.1,0,0.1,0.1,0.2,0.1
			c0.1,0.1,0.3,0.2,0.4,0.3c0.1,0,0.1,0.1,0.2,0.1c0.1,0.1,0.3,0.2,0.4,0.2c0.1,0,0.1,0.1,0.2,0.1c0.2,0.1,0.4,0.2,0.6,0.3
			c4.3,2,10,3.1,16.3,3.2c9.6,0,20.7-2.6,30.6-9c13.5-8.7,29.6-27.7,30.1-67.9c1,0.4,1.5,0.6,1.5,0.6c2.5,1.3,5.6,0.3,6.9-2.2
			C616.9,367.8,615.9,364.8,613.4,363.4z M450.1,435.8c-7,3.2-23.1,3.7-37-5.4c-11.7-7.7-25.5-24.8-24.9-62.7
			c12.3-3,35.6-6.5,73.4-4.5C462.5,404.7,456.4,433,450.1,435.8z M523.6,363.5c37.8-1.7,61,2,73.4,5.1c0.4,37.8-13.6,54.8-25.3,62.5
			c-13.8,8.9-29.9,8.4-37,5.2C528.2,433.2,522.5,404.9,523.6,363.5z"/>
		<path style="fill:#28252A;stroke:#000000;stroke-miterlimit:10;" d="M377.1,444.7c0,0,5-18-13.3-74c0,0,25.1-31.5,7.5-91.9
			c0,0,17.4,39.3,47.3,30.1c0,0,12.3,26,45.5,0.2c0,0,19.4,22.3,44.3,4.7c24.9-17.6,18.4-29.1,18.4-29.1s2.4,43.7,47.4,34.9
			c0,0-0.7,38.5,38.8,32.3c0,0-8.2,36,11,53.9l-26,65.4c0,0,54.5-39.6,43.7-133.4c0,0,23-30.1,11.7-72.6c0,0,9.1-11.6,3.4-21.2
			c0,0,12.3-27.6-17.2-40.5c0,0-2.4-53.9-44.8-41.3c0,0-23.6-68.4-82.5-23.5c0,0-26.5-24.4-56.1,8.9c0,0-17.9-25.8-39.8-11.8
			s-9.7,37.8-9.7,37.8s-59.8,9.5-61.2,24.9c-1.4,15.4,10.2,20.6,10.2,20.6s-43.8,19.1-23.3,56.4c0,0,7.7,7.7,15.4,2.7
			c0,0-31,43.6-4.3,88.6C343.4,366.9,347,406.7,377.1,444.7z"/>
	</g>

	<!-- shirt -->





	<g id="mouth">
		<g id="f2_00000116227190198446944420000005842345971107955607_">
			<path style="stroke:#000000;stroke-miterlimit:10;" d="M463.7,471.4l74.2,0.3c0,0-12.7,26.9-40.9,25.5
				C497,497.2,468.7,494.5,463.7,471.4z"/>
			<path style="fill:#F3E8E2;stroke:#000000;stroke-miterlimit:10;" d="M528.9,483.8c5.9-5.7,9-12.2,9-12.2l-74.2-0.3
				c1.2,5.3,3.6,9.5,7,12.2L528.9,483.8z"/>
									<animate  accumulate="none" additive="replace" attributeName="display" begin="0s"
					calcMode="linear" dur="4s"  fill="remove" id="eyes                                 
					" keyTimes="0;  0.9;  1" repeatCount="indefinite" restart="always" values="inline;none;none">
			</animate>
		</g>
		<g id="f1_00000140009613110527130090000016835868619109401521_">
			<path style="fill:none;" d="M464.5,472.2c0,0,37.3,11.9,72.2,0"/>
			<path d="M502.6,478.4c-21.4,0-38.1-5.2-38.4-5.3c-0.5-0.2-0.8-0.7-0.6-1.3c0.2-0.5,0.7-0.8,1.3-0.6c0.4,0.1,37.4,11.6,71.6,0
				c0.5-0.2,1.1,0.1,1.3,0.6c0.2,0.5-0.1,1.1-0.6,1.3C525.4,477.1,513.4,478.4,502.6,478.4z"/>
										<animate  accumulate="none" additive="replace" attributeName="display" begin="0s"
					calcMode="linear" dur="4s"  fill="remove" id="eyes                                 
					" keyTimes="0;  0.9;  1" repeatCount="indefinite" restart="always" values="none;inline;none">
			</animate>
		</g>
	</g>
	<g>

	<path style="fill:#182A3B;stroke:#000000;stroke-width:2;stroke-miterlimit:10;" d="M444.3,691.6l96.6,0.4c0,0-17,176.1-15,211.3
		l-18.8,9.3L492.5,748l-68.3,162L408,899.6C411,884.6,444.2,745,444.3,691.6z"/>
	<path d="M507.5,912.8l16.3-9.4c0,0,11.7,0.4,16.3,10.9L507.5,912.8z"/>
	<path d="M424.2,910c0,0-12.6-7.9-15-8.7S397,913.6,397,913.6h5.3l24.3,0.1L424.2,910z"/>


<g id="shirt">
	<g id="f1" style="display:none;">
		<g style="display:inline;">
			
				<linearGradient id="SVGID_00000026137388380294852800000008230911496707543433_" gradientUnits="userSpaceOnUse" x1="193.618" y1="707.3089" x2="289.3586" y2="707.3089" gradientTransform="matrix(0.9011 -0.4336 0.4336 0.9011 -269.7991 131.6832)">
				<stop  offset="0" style="stop-color:#FFCC99"/>
				<stop  offset="1" style="stop-color:#FF9999"/>
			</linearGradient>
			
				<path style="fill:url(#SVGID_00000026137388380294852800000008230911496707543433_);stroke:#000000;stroke-width:2;stroke-miterlimit:10;" d="
				M293.6,638.1c-4.9,1.7-10.3,3.1-13.9,2.8c0,0-13.9-6.2-18.2-6.8c-4.5-0.6-15,3-21.7-0.4l-3.2-1.7c0,0,2.3,10.3,11.8,7.9
				c0,0,5.9-1.6,9.2,0.4c0,0,5.2,6.7,3.8,16.5c-0.4,3.6-1.1,7-2.3,9.9c-0.8,2.5-2.4,5.4-4.6,8.1c-3.9,5.1-7.7,7.8-7.7,7.8
				c-2.6,2-5.3,3.8-7.8,4.8c-9,3.8-14.4,25-14.4,25c4.8,2,8.9,0,8.9,0l0.4-0.4c-0.1,1-0.2,2.1-0.1,3.3c0,0,25.5-12,33.4-25.2
				c6.6-11.2,14.2-32.1,16.3-38.4c2.2-0.9,7.9-3.1,15.1-6.6L293.6,638.1z"/>
			<path style="fill:#0E0F10;" d="M278.8,643.2l0.2,1.5c-4.6,0.3-7.6,1.4-9,3.4c-1.1,1.5-1.3,3.6-0.5,6.3c0.7,2.6,1.7,7.9,2,13.4
				l0.3,0.4c-0.2,0.1-0.2,0.1-0.3,0.1c0.1,2.7,0,5.2-0.5,7.6c-0.2,1.5-0.8,2.8-1.5,4c-2,3.5-5.6,6.2-8.9,8.9
				c-1.9,1.4-3.8,2.9-5.4,4.5c-5.3,5.1-5.7,12.7-5.8,12.9l-1.5-0.1c0.1-0.4,0.4-8.3,6.3-13.9c1.7-1.6,3.6-3.1,5.5-4.5
				c4.5-3.6,8.9-6.8,9.8-11.9c0.4-2.2,0.4-4.4,0.4-6.7c-1.2,0.3-2.3,0.3-3.6,0.2c-0.5,2.9-1.7,5.8-3.1,8.5c-3.8,6.6-10,12.1-14,15.7
				l-1.2,1c-5.1,4.6-7.9,17.1-7.9,17.2c-0.1,0.4-0.5,0.7-0.9,0.5c-0.4-0.1-0.7-0.5-0.5-0.9c0.2-0.4,3-13,8.4-17.9l1.2-1
				c5.3-4.9,15-13.8,16.6-23.4c-2.5-0.7-4.6-1.8-4.8-1.9l0.6-1.2c0,0,5.1,3,9,1.7c-0.3-5.7-1.4-11.1-1.9-12.7
				c-0.9-3.2-0.7-5.8,0.7-7.5C270.2,644.9,273.6,643.4,278.8,643.2z"/>
			<path style="fill:#0E0F10;" d="M262.5,667.3c0.5,0.1,0.8,0.4,0.7,0.9c-0.2,0.3-0.1,0.7-0.3,1c-2.4,8.1-14.3,19.4-20.3,23.6
				c-2.4,1.6-4.6,5.3-6.2,10.5c-1.4,4.5-2,8.7-2,8.7l0,0.1c-0.2,0.3-0.5,0.7-0.9,0.5c-0.1,0-0.4-0.1-0.6-0.3c0-0.1-0.2-0.4-0.1-0.5
				c0.1-0.4,0.7-4.5,2.1-9c1.7-5.6,3.9-9.5,6.6-11.4c5.8-4.1,17.3-15.3,19.7-22.8c0.1-0.3,0.1-0.5,0.2-1l0,0
				C261.7,667.5,262,667.2,262.5,667.3z"/>
		</g>
		<g style="display:inline;">
			<g>
				
					<linearGradient id="SVGID_00000095339906430014283450000009185187750611746196_" gradientUnits="userSpaceOnUse" x1="238.1442" y1="729.4071" x2="333.8847" y2="729.4071" gradientTransform="matrix(-0.9011 -0.4336 -0.4336 0.9011 1301.8955 131.6832)">
					<stop  offset="0" style="stop-color:#FFCC99"/>
					<stop  offset="1" style="stop-color:#FF9999"/>
				</linearGradient>
				
					<path style="fill:url(#SVGID_00000095339906430014283450000009185187750611746196_);stroke:#000000;stroke-width:2;stroke-miterlimit:10;" d="
					M688.8,638.7c4.9,1.7,10.3,3.1,13.9,2.8c0,0,13.9-6.2,18.2-6.8c4.5-0.6,15,3,21.7-0.4l3.2-1.7c0,0-2.3,10.3-11.8,7.9
					c0,0-5.9-1.6-9.2,0.4c0,0-5.2,6.7-3.8,16.5c0.4,3.6,1.1,7,2.3,9.9c0.8,2.5,2.4,5.4,4.6,8.1c3.9,5.1,7.7,7.8,7.7,7.8
					c2.6,2,5.3,3.8,7.8,4.8c9,3.8,14.4,25,14.4,25c-4.8,2-8.9,0-8.9,0l-0.4-0.4c0.1,1,0.2,2.1,0.1,3.3c0,0-25.5-12-33.4-25.2
					c-6.6-11.2-14.2-32.1-16.3-38.4c-2.2-0.9-7.9-3.1-15.1-6.6L688.8,638.7z"/>
				<path style="fill:#0E0F10;" d="M713.9,647.8c1.4,1.8,1.6,4.3,0.7,7.5c-0.5,1.7-1.6,7-1.9,12.7c3.9,1.3,9-1.7,9-1.7l0.6,1.2
					c-0.2,0.1-2.3,1.2-4.8,1.9c1.6,9.6,11.3,18.5,16.6,23.4l1.2,1c5.4,4.9,8.1,17.5,8.4,17.9c0.1,0.4-0.1,0.7-0.5,0.9
					c-0.4,0.1-0.7-0.1-0.9-0.5c0-0.1-2.8-12.7-7.9-17.2l-1.2-1c-3.9-3.6-10.2-9.1-14-15.7c-1.5-2.7-2.6-5.6-3.1-8.5
					c-1.3,0.2-2.4,0.2-3.6-0.2c0,2.3,0,4.6,0.4,6.7c0.9,5.1,5.3,8.3,9.8,11.9c1.9,1.4,3.8,2.9,5.5,4.5c5.9,5.6,6.2,13.5,6.3,13.9
					l-1.5,0.1c0-0.1-0.5-7.8-5.8-12.9c-1.6-1.5-3.5-3-5.4-4.5c-3.4-2.6-7-5.4-8.9-8.9c-0.7-1.2-1.3-2.5-1.5-4
					c-0.4-2.3-0.6-4.8-0.5-7.6c-0.1,0-0.1,0-0.3-0.1l0.3-0.4c0.3-5.4,1.3-10.7,2-13.4c0.7-2.6,0.6-4.7-0.5-6.3c-1.4-2-4.4-3.1-9-3.4
					l0.2-1.5C708.8,644,712.2,645.5,713.9,647.8z"/>
				<path style="fill:#0E0F10;" d="M721,668.4L721,668.4c0.1,0.5,0.1,0.7,0.2,1c2.4,7.5,13.9,18.7,19.7,22.8
					c2.8,1.9,4.9,5.8,6.6,11.4c1.4,4.5,2,8.6,2.1,9c0,0.1-0.1,0.4-0.1,0.5c-0.2,0.1-0.4,0.2-0.6,0.3c-0.4,0.1-0.7-0.2-0.9-0.5l0-0.1
					c0,0-0.6-4.2-2-8.7c-1.6-5.2-3.7-8.9-6.2-10.5c-6-4.2-17.8-15.6-20.3-23.6c-0.2-0.3-0.1-0.7-0.3-1c-0.1-0.5,0.2-0.8,0.7-0.9
					C720.4,667.8,720.7,668.1,721,668.4z"/>
			</g>
			<polygon style="fill:#F6F5F8;stroke:#000000;stroke-width:2;stroke-miterlimit:10;" points="694.9,629.7 548.8,542.6 
				548.8,542.3 500.6,522.7 492.2,529.7 485.2,521.3 434.2,541.6 283.9,629.7 290.9,661.1 436.6,597.6 440.7,695.7 542.5,695.4 
				546.5,598.5 691.5,661.8 			"/>
		</g>
										<animate  accumulate="none" additive="replace" attributeName="display" begin="0s"
					calcMode="linear" dur="4s"  fill="remove" id="eyes                                 
					" keyTimes="0;0.02;0.04;0.06;0.08;  0.1;0.92;0.94;0.96;0.98;1" repeatCount="indefinite" restart="always" values="inline;none;none;none;none;none;none;none;none;none;none">
			</animate>
	</g>
	<g id="f2" style="display:none;">
		<g style="display:inline;">
			
				<linearGradient id="SVGID_00000098197855808666748700000013606655650753671812_" gradientUnits="userSpaceOnUse" x1="190.741" y1="687.4996" x2="286.4815" y2="687.4996" gradientTransform="matrix(0.9588 -0.2842 0.2842 0.9588 -182.8208 42.1086)">
				<stop  offset="0" style="stop-color:#FFCC99"/>
				<stop  offset="1" style="stop-color:#FF9999"/>
			</linearGradient>
			
				<path style="fill:url(#SVGID_00000098197855808666748700000013606655650753671812_);stroke:#000000;stroke-width:2;stroke-miterlimit:10;" d="
				M284.2,613.7c-5.1,0.8-10.7,1.4-14.2,0.6c0,0-12.7-8.3-16.9-9.6c-4.4-1.3-15.3,0.6-21.4-3.9l-2.9-2.2c0,0,0.6,10.6,10.4,9.7
				c0,0,6.1-0.7,9,1.8c0,0,4.1,7.4,1.1,16.9c-0.9,3.5-2.2,6.7-3.9,9.4c-1.2,2.3-3.2,4.9-5.9,7.3c-4.6,4.4-8.8,6.5-8.8,6.5
				c-2.9,1.6-5.8,2.9-8.4,3.5c-9.4,2.3-18.2,22.4-18.2,22.4c4.4,2.8,8.8,1.5,8.8,1.5l0.4-0.3c-0.2,1-0.5,2-0.6,3.2
				c0,0,27.1-7.8,37-19.5c8.3-10,19.1-29.4,22.2-35.3c2.3-0.5,8.3-1.7,15.9-4.1L284.2,613.7z"/>
			<path style="fill:#0E0F10;" d="M268.8,616.4l-0.1,1.5c-4.6-0.4-7.8,0.2-9.4,2c-1.4,1.3-1.8,3.4-1.5,6.1c0.3,2.7,0.4,8.1-0.2,13.5
				l0.2,0.5c-0.2,0.1-0.2,0.1-0.3,0.1c-0.3,2.7-0.9,5.2-1.7,7.4c-0.4,1.5-1.2,2.6-2.1,3.8c-2.5,3.1-6.5,5.3-10.2,7.3
				c-2.1,1.1-4.2,2.3-6,3.6c-6.1,4.2-7.7,11.7-7.8,11.8l-1.4-0.3c0.1-0.3,1.8-8.1,8.4-12.7c1.9-1.3,4.1-2.5,6.1-3.6
				c5-2.8,9.9-5.3,11.6-10.2c0.7-2.1,1.1-4.3,1.5-6.6c-1.2,0.1-2.3,0-3.6-0.4c-0.9,2.8-2.6,5.5-4.4,7.9
				c-4.8,5.9-11.8,10.4-16.3,13.3l-1.3,0.8c-5.8,3.7-10.5,15.6-10.6,15.8c-0.2,0.4-0.6,0.6-0.9,0.4c-0.4-0.2-0.6-0.6-0.4-0.9
				c0.3-0.4,5-12.3,11.1-16.3l1.3-0.8c6-4,17-11.2,20.1-20.5c-2.4-1.1-4.3-2.5-4.4-2.6l0.8-1.1c0,0,4.6,3.8,8.6,3.1
				c0.6-5.7,0.3-11.2,0.1-12.9c-0.4-3.3,0.3-5.8,1.9-7.3C260,616.8,263.6,615.8,268.8,616.4z"/>
			<path style="fill:#0E0F10;" d="M248.8,637.6c0.5,0.2,0.7,0.5,0.5,1c-0.2,0.3-0.2,0.7-0.4,1c-3.7,7.6-17.2,16.9-23.8,20.1
				c-2.7,1.2-5.3,4.5-7.8,9.4c-2.1,4.3-3.4,8.3-3.4,8.3l-0.1,0.1c-0.2,0.3-0.6,0.6-0.9,0.4c-0.1-0.1-0.4-0.2-0.5-0.4
				c0-0.1-0.1-0.4,0-0.5c0.2-0.4,1.4-4.3,3.5-8.6c2.6-5.3,5.3-8.8,8.3-10.2c6.4-3.1,19.5-12.3,23.1-19.3c0.1-0.2,0.2-0.5,0.3-0.9
				l0,0C247.9,637.6,248.3,637.4,248.8,637.6z"/>
		</g>
		<g style="display:inline;">
			<g>
				
					<linearGradient id="SVGID_00000013177331198760821120000013994015189471215543_" gradientUnits="userSpaceOnUse" x1="236.6428" y1="701.8354" x2="332.3834" y2="701.8354" gradientTransform="matrix(-0.9588 -0.2842 -0.2842 0.9588 1214.9895 42.1086)">
					<stop  offset="0" style="stop-color:#FFCC99"/>
					<stop  offset="1" style="stop-color:#FF9999"/>
				</linearGradient>
				
					<path style="fill:url(#SVGID_00000013177331198760821120000013994015189471215543_);stroke:#000000;stroke-width:2;stroke-miterlimit:10;" d="
					M699.9,614.4c5.1,0.8,10.7,1.4,14.2,0.6c0,0,12.7-8.3,16.9-9.6c4.4-1.3,15.3,0.6,21.4-3.9l2.9-2.2c0,0-0.6,10.6-10.4,9.7
					c0,0-6.1-0.7-9,1.8c0,0-4.1,7.4-1.1,16.9c0.9,3.5,2.2,6.7,3.9,9.4c1.2,2.3,3.2,4.9,5.9,7.3c4.6,4.4,8.8,6.5,8.8,6.5
					c2.9,1.6,5.8,2.9,8.4,3.5c9.4,2.3,18.2,22.4,18.2,22.4c-4.4,2.8-8.8,1.5-8.8,1.5l-0.4-0.3c0.2,1,0.5,2,0.6,3.2
					c0,0-27.1-7.8-37-19.5c-8.3-10-19.1-29.4-22.2-35.3c-2.3-0.5-8.3-1.7-15.9-4.1L699.9,614.4z"/>
				<path style="fill:#0E0F10;" d="M726.1,619.4c1.6,1.5,2.3,4,1.9,7.3c-0.2,1.7-0.5,7.2,0.1,12.9c4.1,0.7,8.6-3.1,8.6-3.1l0.8,1.1
					c-0.2,0.2-2,1.6-4.4,2.6c3.1,9.3,14.1,16.5,20.1,20.5l1.3,0.8c6.1,4,10.8,15.9,11.1,16.3c0.2,0.4,0,0.7-0.4,0.9
					c-0.4,0.2-0.7,0-0.9-0.4c-0.1-0.1-4.8-12.1-10.6-15.8l-1.3-0.8c-4.5-2.9-11.5-7.4-16.3-13.3c-1.9-2.4-3.5-5.1-4.4-7.9
					c-1.3,0.4-2.4,0.6-3.6,0.4c0.4,2.3,0.8,4.5,1.5,6.6c1.7,4.9,6.6,7.4,11.6,10.2c2.1,1.1,4.2,2.3,6.1,3.6
					c6.7,4.6,8.3,12.4,8.4,12.7l-1.4,0.3c-0.1-0.1-1.7-7.6-7.8-11.8c-1.8-1.3-4-2.4-6-3.6c-3.8-2.1-7.7-4.2-10.2-7.3
					c-0.9-1.1-1.7-2.3-2.1-3.8c-0.8-2.2-1.3-4.7-1.7-7.4c-0.1,0-0.1,0-0.3-0.1l0.2-0.5c-0.6-5.4-0.5-10.8-0.2-13.5s-0.2-4.7-1.5-6.1
					c-1.7-1.7-4.8-2.4-9.4-2l-0.1-1.5C720.5,616.5,724.1,617.5,726.1,619.4z"/>
				<path style="fill:#0E0F10;" d="M736.5,638.6L736.5,638.6c0.2,0.5,0.2,0.7,0.3,0.9c3.6,7,16.7,16.2,23.1,19.3
					c3,1.4,5.7,4.9,8.3,10.2c2.1,4.3,3.3,8.2,3.5,8.6c0.1,0.1,0,0.4,0,0.5c-0.2,0.2-0.4,0.3-0.5,0.4c-0.4,0.2-0.7-0.1-0.9-0.4
					l-0.1-0.1c0,0-1.3-4-3.4-8.3c-2.4-4.9-5.1-8.2-7.8-9.4c-6.6-3.2-20.1-12.5-23.8-20.1c-0.2-0.3-0.2-0.7-0.4-1
					c-0.2-0.5,0-0.8,0.5-1S736.1,638.3,736.5,638.6z"/>
			</g>
			<polygon style="fill:#F6F5F8;stroke:#000000;stroke-width:2;stroke-miterlimit:10;" points="706.8,602.9 555.8,545.8 
				548.8,542.3 500.6,522.7 492.2,529.7 485.2,521.3 434.2,541.6 431.4,543 276.2,603.8 277.8,636.1 436.3,596.1 436.4,593.6 
				440.7,695.7 542.5,695.4 546.6,597.1 706.3,636.8 			"/>
		</g>
									<animate  accumulate="none" additive="replace" attributeName="display" begin="0s"
					calcMode="linear" dur="4s"  fill="remove" id="eyes                                 
					" keyTimes="0;0.02;0.04;0.06;0.08;  0.1;0.92;0.94;0.96;0.98;1" repeatCount="indefinite" restart="always" values="none;inline;none;none;none;none;none;none;none;none;none">
			</animate>
	</g>
	<g id="f3_00000129928491408058105410000001017910502559940499_" style="display:none;">
		<g style="display:inline;">
			
				<linearGradient id="SVGID_00000132085891108926666800000014613591135637380225_" gradientUnits="userSpaceOnUse" x1="184.1457" y1="672.8203" x2="279.8862" y2="672.8203" gradientTransform="matrix(0.9842 -0.1769 0.1769 0.9842 -117.1121 -9.9584)">
				<stop  offset="0" style="stop-color:#FFCC99"/>
				<stop  offset="1" style="stop-color:#FF9999"/>
			</linearGradient>
			
				<path style="fill:url(#SVGID_00000132085891108926666800000014613591135637380225_);stroke:#000000;stroke-width:2;stroke-miterlimit:10;" d="
				M275,596.3c-5.2,0.3-10.8,0.2-14.1-1c0,0-11.7-9.7-15.8-11.4c-4.2-1.8-15.2-1.1-20.8-6.2l-2.7-2.5c0,0-0.5,10.6,9.2,10.7
				c0,0,6.1,0,8.7,2.8c0,0,3.2,7.9-0.7,16.9c-1.3,3.4-2.9,6.4-4.9,8.9c-1.4,2.2-3.8,4.5-6.6,6.6c-5.1,3.9-9.5,5.5-9.5,5.5
				c-3,1.3-6.1,2.2-8.8,2.6c-9.6,1.2-20.5,20.3-20.5,20.3c4,3.2,8.6,2.4,8.6,2.4l0.5-0.3c-0.3,1-0.8,2-1,3.1c0,0,27.8-4.8,38.9-15.3
				c9.4-9,22.2-27.2,25.9-32.6c2.4-0.3,8.5-0.8,16.3-2.3L275,596.3z"/>
			<path style="fill:#0E0F10;" d="M259.4,597.4l-0.2,1.5c-4.5-0.9-7.7-0.6-9.6,0.9c-1.5,1.2-2.2,3.1-2.2,5.9c0,2.7-0.5,8.1-1.7,13.4
				l0.2,0.5c-0.2,0-0.2,0-0.3,0.1c-0.6,2.7-1.4,5-2.5,7.2c-0.6,1.4-1.5,2.5-2.5,3.5c-2.8,2.8-7,4.5-11,6.1c-2.2,0.9-4.4,1.8-6.4,2.9
				c-6.5,3.5-8.9,10.8-9,10.9l-1.4-0.5c0.1-0.3,2.6-7.9,9.8-11.7c2-1.1,4.3-2,6.5-2.9c5.3-2.3,10.4-4.2,12.6-8.9
				c1-2,1.6-4.1,2.2-6.4c-1.2,0-2.3-0.3-3.5-0.8c-1.2,2.7-3.1,5.1-5.3,7.4c-5.4,5.3-12.9,9-17.7,11.4l-1.4,0.7
				c-6.2,3-12.1,14.4-12.2,14.5c-0.2,0.3-0.6,0.5-1,0.3c-0.3-0.2-0.5-0.6-0.3-1c0.3-0.4,6.3-11.7,12.8-15l1.4-0.7
				c6.4-3.3,18.1-9.3,22.2-18.1c-2.3-1.3-4-2.9-4.1-3.1l0.9-1c0,0,4.1,4.2,8.2,4c1.2-5.6,1.6-11.1,1.6-12.8c0-3.4,0.9-5.7,2.7-7.1
				C250.6,596.7,254.3,596.1,259.4,597.4z"/>
			<path style="fill:#0E0F10;" d="M237.2,616.2c0.4,0.2,0.6,0.6,0.4,1c-0.3,0.2-0.3,0.7-0.5,0.9c-4.5,7.1-19,14.9-25.8,17.3
				c-2.8,0.9-5.8,3.9-8.7,8.5c-2.5,4-4.3,7.9-4.3,7.9l-0.1,0.1c-0.3,0.2-0.6,0.5-1,0.3c-0.1-0.1-0.3-0.2-0.5-0.4
				c0-0.1-0.1-0.4,0-0.5c0.2-0.3,1.9-4.1,4.4-8.1c3.2-4.9,6.3-8.1,9.4-9.2c6.7-2.4,20.7-10.1,25-16.7c0.2-0.2,0.2-0.4,0.4-0.9l0,0
				C236.3,616.1,236.7,616,237.2,616.2z"/>
		</g>
		<g style="display:inline;">
			<g>
				
					<linearGradient id="SVGID_00000116210920093727376500000003792038667924755356_" gradientUnits="userSpaceOnUse" x1="232.6273" y1="681.5317" x2="328.3678" y2="681.5317" gradientTransform="matrix(-0.9842 -0.1769 -0.1769 0.9842 1149.3711 -9.9584)">
					<stop  offset="0" style="stop-color:#FFCC99"/>
					<stop  offset="1" style="stop-color:#FF9999"/>
				</linearGradient>
				
					<path style="fill:url(#SVGID_00000116210920093727376500000003792038667924755356_);stroke:#000000;stroke-width:2;stroke-miterlimit:10;" d="
					M708,596.3c5.2,0.3,10.8,0.2,14.1-1c0,0,11.7-9.7,15.8-11.4c4.2-1.8,15.2-1.1,20.8-6.2l2.7-2.5c0,0,0.5,10.6-9.2,10.7
					c0,0-6.1,0-8.7,2.8c0,0-3.2,7.9,0.7,16.9c1.3,3.4,2.9,6.4,4.9,8.9c1.4,2.2,3.8,4.5,6.6,6.6c5.1,3.9,9.5,5.5,9.5,5.5
					c3,1.3,6.1,2.2,8.8,2.6c9.6,1.2,20.5,20.3,20.5,20.3c-4,3.2-8.6,2.4-8.6,2.4l-0.5-0.3c0.3,1,0.8,2,1,3.1c0,0-27.8-4.8-38.9-15.3
					c-9.4-9-22.2-27.2-25.9-32.6c-2.4-0.3-8.5-0.8-16.3-2.3L708,596.3z"/>
				<path style="fill:#0E0F10;" d="M734.6,598.4c1.8,1.3,2.7,3.7,2.7,7.1c0,1.7,0.3,7.2,1.6,12.8c4.1,0.2,8.2-4,8.2-4l0.9,1
					c-0.1,0.2-1.8,1.8-4.1,3.1c4.1,8.9,15.8,14.8,22.2,18.1l1.4,0.7c6.5,3.3,12.5,14.6,12.8,15c0.2,0.3,0.1,0.7-0.3,1
					s-0.7,0.1-1-0.3c-0.1-0.1-6.1-11.5-12.2-14.5l-1.4-0.7c-4.8-2.4-12.2-6.1-17.7-11.4c-2.1-2.2-4-4.7-5.3-7.4
					c-1.2,0.5-2.3,0.8-3.5,0.8c0.6,2.2,1.2,4.4,2.2,6.4c2.2,4.7,7.3,6.6,12.6,8.9c2.2,0.9,4.4,1.8,6.5,2.9
					c7.1,3.8,9.6,11.4,9.8,11.7l-1.4,0.5c-0.1-0.1-2.5-7.4-9-10.9c-1.9-1.1-4.2-2-6.4-2.9c-4-1.6-8.1-3.3-11-6.1c-1-1-2-2.1-2.5-3.5
					c-1-2.1-1.8-4.5-2.5-7.2c-0.1,0-0.1,0-0.3-0.1l0.2-0.5c-1.2-5.3-1.6-10.7-1.7-13.4c0-2.7-0.7-4.7-2.2-5.9
					c-1.9-1.6-5.1-1.8-9.6-0.9l-0.2-1.5C728.7,596.1,732.4,596.7,734.6,598.4z"/>
				<path style="fill:#0E0F10;" d="M747,616.4L747,616.4c0.2,0.4,0.3,0.7,0.4,0.9c4.3,6.6,18.4,14.3,25,16.7
					c3.2,1.1,6.2,4.3,9.4,9.2c2.5,4,4.2,7.8,4.4,8.1c0.1,0.1,0,0.4,0,0.5c-0.1,0.2-0.4,0.3-0.5,0.4c-0.3,0.2-0.7,0-1-0.3l-0.1-0.1
					c0,0-1.7-3.9-4.3-7.9c-2.9-4.6-6-7.6-8.7-8.5c-6.9-2.5-21.3-10.2-25.8-17.3c-0.3-0.2-0.3-0.7-0.5-0.9c-0.2-0.4-0.1-0.8,0.4-1
					C746.3,616,746.7,616.1,747,616.4z"/>
			</g>
			<polygon style="fill:#F6F5F8;stroke:#000000;stroke-width:2;stroke-miterlimit:10;" points="716.8,617.9 714.8,585.6 546.8,541 
				546.8,541.5 500.6,522.7 492.2,529.7 485.2,521.3 434.8,541.4 268.2,585.6 266.2,617.9 436.3,594 436.3,598.9 440.7,695.7 
				542.5,695.4 546.7,594 			"/>
		</g>
								<animate  accumulate="none" additive="replace" attributeName="display" begin="0s"
					calcMode="linear" dur="4s"  fill="remove" id="eyes                                 
					" keyTimes="0;0.02;0.04;0.06;0.08;  0.1;0.92;0.94;0.96;0.98;1" repeatCount="indefinite" restart="always" values="none;none;inline;none;none;none;none;none;none;none;none">
			</animate>
	</g>
	<g id="f4" style="display:none;">
		<g style="display:inline;">
			
				<linearGradient id="SVGID_00000150780547027335243390000013377585291477670031_" gradientUnits="userSpaceOnUse" x1="180.8223" y1="657.7732" x2="276.5628" y2="657.7732" gradientTransform="matrix(0.9983 -5.824336e-02 5.824336e-02 0.9983 -41.5783 -56.8299)">
				<stop  offset="0" style="stop-color:#FFCC99"/>
				<stop  offset="1" style="stop-color:#FF9999"/>
			</linearGradient>
			
				<path style="fill:url(#SVGID_00000150780547027335243390000013377585291477670031_);stroke:#000000;stroke-width:2;stroke-miterlimit:10;" d="
				M271.2,577.1c-5.2-0.3-10.7-1.1-13.9-2.7c0,0-10.5-11-14.3-13.2c-3.9-2.3-15-2.9-19.9-8.7l-2.4-2.8c0,0-1.8,10.4,7.9,11.8
				c0,0,6.1,0.7,8.3,3.8c0,0,2.3,8.2-2.7,16.7c-1.7,3.2-3.7,6-5.9,8.3c-1.7,2-4.3,4.1-7.4,5.7c-5.5,3.2-10.1,4.3-10.1,4.3
				c-3.2,0.9-6.3,1.5-9,1.5c-9.7,0.1-22.8,17.7-22.8,17.7c3.6,3.7,8.2,3.4,8.2,3.4l0.5-0.2c-0.4,0.9-1,1.9-1.3,3
				c0,0,28.2-1.4,40.5-10.6c10.4-7.8,25.3-24.3,29.6-29.3c2.4,0,8.5,0.2,16.4-0.3L271.2,577.1z"/>
			<path style="fill:#0E0F10;" d="M255.6,576.2l-0.4,1.4c-4.4-1.4-7.6-1.6-9.6-0.2c-1.6,1-2.5,2.9-2.9,5.6c-0.3,2.7-1.4,8-3.2,13.1
				l0.1,0.5c-0.2,0-0.2,0-0.3,0c-1,2.6-2,4.8-3.3,6.8c-0.7,1.3-1.8,2.3-2.9,3.2c-3.2,2.5-7.5,3.6-11.6,4.8c-2.3,0.6-4.6,1.3-6.7,2.1
				c-6.9,2.7-10.2,9.6-10.3,9.7l-1.3-0.6c0.2-0.3,3.6-7.5,11.1-10.5c2.2-0.8,4.5-1.5,6.8-2.1c5.5-1.6,10.8-2.9,13.6-7.3
				c1.2-1.9,2.1-3.9,3-6.1c-1.2-0.1-2.2-0.6-3.4-1.2c-1.6,2.5-3.7,4.7-6.1,6.7c-6,4.7-13.9,7.4-18.9,9.2l-1.5,0.5
				c-6.5,2.3-13.8,12.8-13.9,12.9c-0.3,0.3-0.7,0.4-1,0.2c-0.3-0.3-0.4-0.7-0.2-1c0.4-0.3,7.7-10.9,14.5-13.4l1.5-0.5
				c6.8-2.5,19.1-7,24.2-15.3c-2.1-1.6-3.6-3.4-3.7-3.6l1.1-0.9c0,0,3.6,4.7,7.7,5c1.9-5.4,2.9-10.8,3.1-12.5
				c0.4-3.3,1.6-5.6,3.5-6.7C247,574.5,250.7,574.4,255.6,576.2z"/>
			<path style="fill:#0E0F10;" d="M231.3,592.3c0.4,0.3,0.5,0.7,0.3,1.1c-0.3,0.2-0.4,0.6-0.7,0.8c-5.3,6.5-20.6,12.5-27.7,14.1
				c-2.9,0.6-6.2,3.2-9.7,7.4c-3,3.7-5.2,7.3-5.2,7.3l-0.1,0.1c-0.3,0.2-0.7,0.4-1,0.2c-0.1-0.1-0.3-0.3-0.4-0.5
				c0-0.1,0-0.4,0.1-0.5c0.3-0.3,2.4-3.8,5.4-7.5c3.7-4.5,7.2-7.3,10.5-8c6.9-1.6,21.8-7.6,26.9-13.6c0.2-0.2,0.3-0.4,0.6-0.8l0,0
				C230.5,592.1,230.9,592,231.3,592.3z"/>
		</g>
		<g style="display:inline;">
			<g>
				
					<linearGradient id="SVGID_00000143608529532645114870000012547731547700649091_" gradientUnits="userSpaceOnUse" x1="232.2766" y1="660.7751" x2="328.0171" y2="660.7751" gradientTransform="matrix(-0.9983 -5.824336e-02 -5.824336e-02 0.9983 1073.8324 -56.8299)">
					<stop  offset="0" style="stop-color:#FFCC99"/>
					<stop  offset="1" style="stop-color:#FF9999"/>
				</linearGradient>
				
					<path style="fill:url(#SVGID_00000143608529532645114870000012547731547700649091_);stroke:#000000;stroke-width:2;stroke-miterlimit:10;" d="
					M709.5,577.1c5.2-0.3,10.7-1.1,13.9-2.7c0,0,10.5-11,14.3-13.2c3.9-2.3,15-2.9,19.9-8.7l2.4-2.8c0,0,1.8,10.4-7.9,11.8
					c0,0-6.1,0.7-8.3,3.8c0,0-2.3,8.2,2.7,16.7c1.7,3.2,3.7,6,5.9,8.3c1.7,2,4.3,4.1,7.4,5.7c5.5,3.2,10.1,4.3,10.1,4.3
					c3.2,0.9,6.3,1.5,9,1.5c9.7,0.1,22.8,17.7,22.8,17.7c-3.6,3.7-8.2,3.4-8.2,3.4l-0.5-0.2c0.4,0.9,1,1.9,1.3,3
					c0,0-28.2-1.4-40.5-10.6c-10.4-7.8-25.3-24.3-29.6-29.3c-2.4,0-8.5,0.2-16.4-0.3L709.5,577.1z"/>
				<path style="fill:#0E0F10;" d="M736.1,576c1.9,1.1,3.1,3.4,3.5,6.7c0.2,1.7,1.2,7.1,3.1,12.5c4.1-0.3,7.7-5,7.7-5l1.1,0.9
					c-0.1,0.2-1.6,2-3.7,3.6c5.1,8.3,17.5,12.8,24.2,15.3l1.5,0.5c6.9,2.5,14.2,13,14.5,13.4c0.3,0.3,0.2,0.7-0.2,1
					c-0.3,0.3-0.7,0.2-1-0.2c-0.1-0.1-7.4-10.6-13.9-12.9l-1.5-0.5c-5-1.8-12.9-4.6-18.9-9.2c-2.4-1.9-4.6-4.2-6.1-6.7
					c-1.1,0.6-2.2,1.1-3.4,1.2c0.9,2.2,1.8,4.2,3,6.1c2.8,4.4,8.1,5.7,13.6,7.3c2.3,0.6,4.6,1.3,6.8,2.1
					c7.5,2.9,10.9,10.2,11.1,10.5l-1.3,0.6c-0.1-0.1-3.4-7-10.3-9.7c-2.1-0.8-4.4-1.5-6.7-2.1c-4.1-1.1-8.5-2.3-11.6-4.8
					c-1.2-0.9-2.2-1.8-2.9-3.2c-1.3-2-2.4-4.2-3.3-6.8c-0.1,0-0.1,0-0.3,0l0.1-0.5c-1.8-5.1-2.9-10.4-3.2-13.1
					c-0.3-2.7-1.2-4.6-2.9-5.6c-2-1.3-5.2-1.2-9.6,0.2l-0.4-1.4C730,574.4,733.7,574.5,736.1,576z"/>
				<path style="fill:#0E0F10;" d="M750.6,592.3L750.6,592.3c0.3,0.4,0.4,0.6,0.6,0.8c5.1,6,19.9,12,26.9,13.6
					c3.3,0.7,6.7,3.5,10.5,8c3,3.7,5.1,7.2,5.4,7.5c0.1,0.1,0.1,0.4,0.1,0.5c-0.1,0.2-0.3,0.4-0.4,0.5c-0.3,0.3-0.7,0.1-1-0.2
					l-0.1-0.1c0,0-2.2-3.6-5.2-7.3c-3.5-4.2-6.8-6.8-9.7-7.4c-7.1-1.6-22.4-7.6-27.7-14.1c-0.3-0.2-0.4-0.6-0.7-0.8
					c-0.3-0.4-0.2-0.8,0.3-1.1C749.8,592,750.2,592.1,750.6,592.3z"/>
			</g>
			<polygon style="fill:#F6F5F8;stroke:#000000;stroke-width:2;stroke-miterlimit:10;" points="720.8,597.4 715,565.6 546.9,541.5 
				500.6,522.7 492.2,529.7 485.2,521.3 434.2,541.6 434.2,541.5 265.7,565.6 259.9,597.4 436.4,594.8 440.7,695.7 542.5,695.4 
				546.6,596 			"/>
		</g>
							<animate  accumulate="none" additive="replace" attributeName="display" begin="0s"
					calcMode="linear" dur="4s"  fill="remove" id="eyes                                 
					" keyTimes="0;0.02;0.04;0.06;0.08;  0.1;0.92;0.94;0.96;0.98;1" repeatCount="indefinite" restart="always" 
					values="none;none;none;inline;none;none;none;none;none;none;none">
			</animate>
	</g>
	<g id="f5" style="display:none;">
		<g style="display:inline;">
			
				<linearGradient id="SVGID_00000021089053257209006490000011118097650959550639_" gradientUnits="userSpaceOnUse" x1="173.8914" y1="638.1046" x2="269.632" y2="638.1046" gradientTransform="matrix(0.9948 0.1018 -0.1018 0.9948 65.0812 -104.5105)">
				<stop  offset="0" style="stop-color:#FFCC99"/>
				<stop  offset="1" style="stop-color:#FF9999"/>
			</linearGradient>
			
				<path style="fill:url(#SVGID_00000021089053257209006490000011118097650959550639_);stroke:#000000;stroke-width:2;stroke-miterlimit:10;" d="
				M267.9,550.9c-5.1-1.2-10.4-2.8-13.3-4.8c0,0-8.6-12.5-12-15.3c-3.5-2.9-14.3-5.3-18.3-11.7l-1.9-3.1c0,0-3.4,10,5.9,12.9
				c0,0,5.9,1.7,7.6,5.1c0,0,0.9,8.4-5.4,16c-2.2,2.9-4.6,5.4-7.2,7.2c-2,1.7-4.9,3.3-8.2,4.5c-6,2.3-10.6,2.6-10.6,2.6
				c-3.3,0.4-6.5,0.4-9.2,0.1c-9.6-1.5-25.3,13.8-25.3,13.8c3,4.2,7.6,4.7,7.6,4.7l0.5-0.1c-0.6,0.8-1.3,1.7-1.8,2.7
				c0,0,28,3.1,41.6-4c11.5-6.1,28.9-20,33.9-24.2c2.3,0.4,8.4,1.6,16.3,2.3L267.9,550.9z"/>
			<path style="fill:#0E0F10;" d="M252.6,547.6l-0.6,1.3c-4.1-2.1-7.3-2.8-9.5-1.8c-1.8,0.7-3,2.4-3.7,5c-0.8,2.6-2.7,7.7-5.3,12.4
				l0,0.5c-0.2,0-0.2,0-0.3,0c-1.3,2.4-2.8,4.4-4.4,6.2c-0.9,1.2-2.1,2-3.4,2.7c-3.5,2-8,2.4-12.3,2.9c-2.3,0.3-4.8,0.5-6.9,1
				c-7.2,1.6-11.6,7.9-11.7,8l-1.2-0.8c0.2-0.3,4.7-6.9,12.6-8.6c2.3-0.5,4.7-0.7,7-1c5.7-0.7,11.2-1.2,14.6-5
				c1.5-1.7,2.7-3.5,3.9-5.5c-1.2-0.3-2.1-0.9-3.1-1.7c-1.9,2.2-4.4,4.1-7.1,5.6c-6.7,3.6-14.9,5.1-20.1,6.1l-1.5,0.2
				c-6.8,1.2-15.6,10.5-15.8,10.6c-0.3,0.3-0.7,0.3-1,0c-0.3-0.3-0.3-0.7,0-1c0.4-0.3,9.3-9.5,16.5-10.9l1.5-0.2
				c7.1-1.4,20-3.9,26.4-11.3c-1.8-1.9-3-3.9-3.1-4.1l1.2-0.7c0,0,2.8,5.2,6.8,6.1c2.7-5,4.6-10.2,5-11.8c0.9-3.2,2.4-5.3,4.5-6.1
				C244.4,544.5,248,545,252.6,547.6z"/>
			<path style="fill:#0E0F10;" d="M226,559.5c0.4,0.3,0.4,0.7,0.1,1.1c-0.3,0.2-0.5,0.6-0.8,0.7c-6.3,5.6-22.3,9.1-29.6,9.5
				c-2.9,0.1-6.7,2.1-10.7,5.7c-3.5,3.2-6.3,6.4-6.3,6.4l-0.1,0.1c-0.3,0.2-0.7,0.3-1,0c-0.1-0.1-0.3-0.3-0.3-0.5
				c0-0.1,0-0.4,0.2-0.5c0.3-0.3,3-3.4,6.5-6.6c4.4-3.9,8.3-6.1,11.6-6.3c7.1-0.5,22.7-4,28.7-9.1c0.2-0.2,0.3-0.4,0.7-0.7l0,0
				C225.3,559.2,225.7,559.2,226,559.5z"/>
		</g>
		<g style="display:inline;">
			<g>
				
					<linearGradient id="SVGID_00000010288113681670757840000000101129824691623552_" gradientUnits="userSpaceOnUse" x1="223.3358" y1="633.0464" x2="319.0764" y2="633.0464" gradientTransform="matrix(-0.9948 0.1018 0.1018 0.9948 967.1096 -104.5105)">
					<stop  offset="0" style="stop-color:#FFCC99"/>
					<stop  offset="1" style="stop-color:#FF9999"/>
				</linearGradient>
				
					<path style="fill:url(#SVGID_00000010288113681670757840000000101129824691623552_);stroke:#000000;stroke-width:2;stroke-miterlimit:10;" d="
					M714.6,550.9c5.1-1.2,10.4-2.8,13.3-4.8c0,0,8.6-12.5,12-15.3c3.5-2.9,14.3-5.3,18.3-11.7l1.9-3.1c0,0,3.4,10-5.9,12.9
					c0,0-5.9,1.7-7.6,5.1c0,0-0.9,8.4,5.4,16c2.2,2.9,4.6,5.4,7.2,7.2c2,1.7,4.9,3.3,8.2,4.5c6,2.3,10.6,2.6,10.6,2.6
					c3.3,0.4,6.5,0.4,9.2,0.1c9.6-1.5,25.3,13.8,25.3,13.8c-3,4.2-7.6,4.7-7.6,4.7l-0.5-0.1c0.6,0.8,1.3,1.7,1.8,2.7
					c0,0-28,3.1-41.6-4c-11.5-6.1-28.9-20-33.9-24.2c-2.3,0.4-8.4,1.6-16.3,2.3L714.6,550.9z"/>
				<path style="fill:#0E0F10;" d="M740.8,545.5c2.1,0.8,3.6,2.8,4.5,6.1c0.5,1.7,2.3,6.8,5,11.8c4-0.9,6.8-6.1,6.8-6.1l1.2,0.7
					c-0.1,0.2-1.3,2.2-3.1,4.1c6.4,7.4,19.3,9.9,26.4,11.3l1.5,0.2c7.2,1.4,16.1,10.6,16.5,10.9c0.3,0.3,0.3,0.7,0,1
					c-0.3,0.3-0.7,0.3-1,0c-0.1-0.1-9-9.3-15.8-10.6l-1.5-0.2c-5.2-1-13.4-2.4-20.1-6.1c-2.7-1.5-5.2-3.4-7.1-5.6
					c-1,0.8-2,1.4-3.1,1.7c1.2,2,2.4,3.9,3.9,5.5c3.4,3.9,8.9,4.3,14.6,5c2.3,0.3,4.8,0.5,7,1c7.9,1.7,12.4,8.3,12.6,8.6l-1.2,0.8
					c-0.1-0.1-4.5-6.4-11.7-8c-2.2-0.5-4.6-0.7-6.9-1c-4.3-0.5-8.7-0.9-12.3-2.9c-1.3-0.7-2.5-1.5-3.4-2.7c-1.6-1.7-3-3.8-4.4-6.2
					c-0.1,0-0.1,0-0.3,0l0-0.5c-2.6-4.8-4.5-9.8-5.3-12.4c-0.8-2.6-2-4.3-3.7-5c-2.2-1-5.4-0.4-9.5,1.8l-0.6-1.3
					C734.5,545,738.1,544.5,740.8,545.5z"/>
				<path style="fill:#0E0F10;" d="M757.7,559.4L757.7,559.4c0.3,0.4,0.5,0.6,0.7,0.7c6,5.1,21.6,8.6,28.7,9.1
					c3.3,0.2,7.2,2.4,11.6,6.3c3.5,3.2,6.2,6.3,6.5,6.6c0.1,0.1,0.1,0.4,0.2,0.5c-0.1,0.2-0.3,0.4-0.3,0.5c-0.3,0.3-0.7,0.2-1,0
					l-0.1-0.1c0,0-2.7-3.2-6.3-6.4c-4.1-3.6-7.8-5.6-10.7-5.7c-7.3-0.5-23.3-3.9-29.6-9.5c-0.3-0.2-0.5-0.6-0.8-0.7
					c-0.3-0.4-0.3-0.8,0.1-1.1C756.8,559.2,757.2,559.2,757.7,559.4z"/>
			</g>
			<polygon style="fill:#F6F5F8;stroke:#000000;stroke-width:2;stroke-miterlimit:10;" points="729,569.2 718.2,538.7 548.1,541.8 
				548.1,542 500.6,522.7 492.2,529.7 485.2,521.3 434.2,541.6 434.2,541.8 264.3,538.7 253.5,569.2 436.5,597.3 440.7,695.7 
				542.5,695.4 546.6,597.2 			"/>
		</g>
						<animate  accumulate="none" additive="replace" attributeName="display" begin="0s"
					calcMode="linear" dur="4s"  fill="remove" id="eyes                                 
					" keyTimes="0;0.02;0.04;0.06;0.08;  0.1;0.92;0.94;0.96;0.98;1" repeatCount="indefinite" restart="always" 
					values="none;none;none;none;inline;none;none;none;none;none;none">
			</animate>
	</g>
	<g id="f6" style="display:none;">
		<g style="display:inline;">
			
				<linearGradient id="SVGID_00000165198216281593983630000007225490663364883849_" gradientUnits="userSpaceOnUse" x1="174.169" y1="628.0999" x2="269.9095" y2="628.0999" gradientTransform="matrix(0.9832 0.1823 -0.1823 0.9832 119.6453 -121.7672)">
				<stop  offset="0" style="stop-color:#FFCC99"/>
				<stop  offset="1" style="stop-color:#FF9999"/>
			</linearGradient>
			
				<path style="fill:url(#SVGID_00000165198216281593983630000007225490663364883849_);stroke:#000000;stroke-width:2;stroke-miterlimit:10;" d="
				M270.5,538.2c-5-1.6-10.1-3.6-12.9-5.9c0,0-7.5-13.2-10.7-16.2c-3.3-3.2-13.9-6.4-17.3-13.2l-1.6-3.3c0,0-4.2,9.7,4.9,13.3
				c0,0,5.7,2.2,7.2,5.7c0,0,0.3,8.5-6.6,15.5c-2.4,2.7-5,5-7.7,6.6c-2.1,1.5-5.1,2.9-8.5,3.8c-6.1,1.8-10.8,1.8-10.8,1.8
				c-3.3,0.1-6.5-0.1-9.1-0.7c-9.4-2.3-26.4,11.7-26.4,11.7c2.6,4.5,7.2,5.3,7.2,5.3l0.5-0.1c-0.7,0.8-1.4,1.6-2,2.6
				c0,0,27.7,5.3,41.8-0.6c11.9-5.1,30.4-17.5,35.8-21.3c2.3,0.6,8.2,2.2,16.1,3.6L270.5,538.2z"/>
			<path style="fill:#0E0F10;" d="M255.6,533.6l-0.7,1.3c-3.9-2.5-7-3.3-9.3-2.5c-1.8,0.6-3.1,2.2-4.1,4.7c-1,2.6-3.3,7.4-6.3,12
				l0,0.5c-0.2,0-0.2,0-0.3-0.1c-1.5,2.3-3.1,4.2-4.8,5.8c-1,1.1-2.3,1.8-3.6,2.4c-3.7,1.7-8.2,1.7-12.4,1.9c-2.4,0.1-4.8,0.1-7,0.4
				c-7.3,1-12.2,6.9-12.3,7l-1.2-0.9c0.3-0.3,5.3-6.4,13.3-7.5c2.3-0.3,4.7-0.3,7.1-0.4c5.7-0.3,11.2-0.3,15-3.8
				c1.6-1.5,3-3.3,4.3-5.2c-1.1-0.4-2-1.1-3-2c-2.1,2-4.8,3.7-7.5,5c-7,3.1-15.3,3.9-20.6,4.4l-1.5,0.1c-6.8,0.7-16.4,9.2-16.6,9.2
				c-0.3,0.2-0.8,0.3-1-0.1c-0.2-0.3-0.3-0.8,0.1-1c0.4-0.2,10.1-8.7,17.3-9.5l1.5-0.1c7.2-0.8,20.2-2.2,27.2-9.1
				c-1.7-2-2.7-4.2-2.7-4.4l1.2-0.6c0,0,2.4,5.4,6.3,6.7c3.1-4.8,5.4-9.8,6-11.4c1.2-3.1,2.9-5.1,5-5.7
				C247.6,529.9,251.3,530.7,255.6,533.6z"/>
			<path style="fill:#0E0F10;" d="M228.2,543.4c0.3,0.4,0.4,0.8,0,1.1c-0.3,0.1-0.5,0.5-0.8,0.7c-6.7,5.1-23,7.2-30.3,7.1
				c-2.9-0.1-6.8,1.6-11.2,4.8c-3.8,2.9-6.8,5.9-6.8,5.9l-0.1,0.1c-0.3,0.1-0.8,0.3-1-0.1c-0.1-0.1-0.2-0.3-0.3-0.6
				c0-0.1,0.1-0.4,0.2-0.5c0.3-0.2,3.2-3.2,7-6c4.7-3.5,8.7-5.4,12.1-5.3c7.1,0.1,23-2.1,29.3-6.8c0.2-0.2,0.4-0.3,0.7-0.7l0,0
				C227.4,543,227.8,543,228.2,543.4z"/>
		</g>
		<g style="display:inline;">
			<g>
				
					<linearGradient id="SVGID_00000084498084144664785040000012706768759100126895_" gradientUnits="userSpaceOnUse" x1="219.7743" y1="619.6428" x2="315.5149" y2="619.6428" gradientTransform="matrix(-0.9832 0.1823 0.1823 0.9832 912.6084 -121.7672)">
					<stop  offset="0" style="stop-color:#FFCC99"/>
					<stop  offset="1" style="stop-color:#FF9999"/>
				</linearGradient>
				
					<path style="fill:url(#SVGID_00000084498084144664785040000012706768759100126895_);stroke:#000000;stroke-width:2;stroke-miterlimit:10;" d="
					M715.3,538.2c5-1.6,10.1-3.6,12.9-5.9c0,0,7.5-13.2,10.7-16.2c3.3-3.2,13.9-6.4,17.3-13.2l1.6-3.3c0,0,4.2,9.7-4.9,13.3
					c0,0-5.7,2.2-7.2,5.7c0,0-0.3,8.5,6.6,15.5c2.4,2.7,5,5,7.7,6.6c2.1,1.5,5.1,2.9,8.5,3.8c6.1,1.8,10.8,1.8,10.8,1.8
					c3.3,0.1,6.5-0.1,9.1-0.7c9.4-2.3,26.4,11.7,26.4,11.7c-2.6,4.5-7.2,5.3-7.2,5.3l-0.5-0.1c0.7,0.8,1.4,1.6,2,2.6
					c0,0-27.7,5.3-41.8-0.6c-11.9-5.1-30.4-17.5-35.8-21.3c-2.3,0.6-8.2,2.2-16.1,3.6L715.3,538.2z"/>
				<path style="fill:#0E0F10;" d="M740.9,530.7c2.1,0.6,3.8,2.5,5,5.7c0.6,1.6,2.8,6.6,6,11.4c3.9-1.2,6.3-6.7,6.3-6.7l1.2,0.6
					c-0.1,0.2-1.1,2.3-2.7,4.4c7,6.8,20,8.3,27.2,9.1l1.5,0.1c7.3,0.8,16.9,9.3,17.3,9.5c0.3,0.2,0.3,0.7,0.1,1
					c-0.2,0.3-0.7,0.3-1,0.1c-0.1-0.1-9.7-8.6-16.6-9.2l-1.5-0.1c-5.3-0.5-13.6-1.3-20.6-4.4c-2.8-1.3-5.4-3-7.5-5
					c-1,0.9-1.8,1.6-3,2c1.4,1.9,2.7,3.7,4.3,5.2c3.7,3.6,9.2,3.6,15,3.8c2.4,0.1,4.8,0.1,7.1,0.4c8,1.1,13,7.2,13.3,7.5l-1.2,0.9
					c-0.1-0.1-5-6-12.3-7c-2.2-0.3-4.6-0.4-7-0.4c-4.3-0.1-8.8-0.2-12.4-1.9c-1.3-0.6-2.6-1.3-3.6-2.4c-1.7-1.6-3.3-3.6-4.8-5.8
					c-0.1,0-0.1,0-0.3,0.1l0-0.5c-3-4.5-5.3-9.4-6.3-12c-1-2.6-2.3-4.2-4.1-4.7c-2.3-0.8-5.4,0.1-9.3,2.5l-0.7-1.3
					C734.6,530.7,738.2,529.9,740.9,530.7z"/>
				<path style="fill:#0E0F10;" d="M758.9,543.1L758.9,543.1c0.4,0.3,0.5,0.5,0.7,0.7c6.3,4.6,22.2,6.9,29.3,6.8
					c3.3-0.1,7.3,1.8,12.1,5.3c3.8,2.9,6.7,5.8,7,6c0.1,0.1,0.2,0.4,0.2,0.5c-0.1,0.2-0.2,0.4-0.3,0.6c-0.2,0.3-0.7,0.2-1,0.1
					l-0.1-0.1c0,0-3-3-6.8-5.9c-4.4-3.3-8.2-5-11.2-4.8c-7.3,0.1-23.6-2-30.3-7.1c-0.3-0.1-0.5-0.5-0.8-0.7c-0.4-0.3-0.3-0.8,0-1.1
					C758.1,543,758.5,543,758.9,543.1z"/>
			</g>
			<polygon style="fill:#F6F5F8;stroke:#000000;stroke-width:2;stroke-miterlimit:10;" points="731.1,555.2 717.9,525.7 
				548.8,542.6 548.8,542.3 500.6,522.7 492.2,529.7 485.2,521.3 434.2,541.6 434.2,542.3 268,525.7 254.7,555.2 436.6,598.5 
				440.7,695.7 542.5,695.4 546.4,601.6 			"/>
		</g>
						<animate  accumulate="none" additive="replace" attributeName="display" begin="0s"
					calcMode="linear" dur="4s"  fill="remove" id="eyes                                 
					" keyTimes="0;0.02;0.04;0.06;0.08;  0.1;0.92;0.94;0.96;0.98;1" repeatCount="indefinite" restart="always" 
					values="none;none;none;none;none;inline;none;none;none;none;none">
			</animate>
	</g>
	<g id="f7" style="display:none;">
		<g style="display:inline;">
			
				<linearGradient id="SVGID_00000183947462729871840180000004524317492921800882_" gradientUnits="userSpaceOnUse" x1="173.8914" y1="638.1046" x2="269.632" y2="638.1046" gradientTransform="matrix(0.9948 0.1018 -0.1018 0.9948 65.0812 -104.5105)">
				<stop  offset="0" style="stop-color:#FFCC99"/>
				<stop  offset="1" style="stop-color:#FF9999"/>
			</linearGradient>
			
				<path style="fill:url(#SVGID_00000183947462729871840180000004524317492921800882_);stroke:#000000;stroke-width:2;stroke-miterlimit:10;" d="
				M267.9,550.9c-5.1-1.2-10.4-2.8-13.3-4.8c0,0-8.6-12.5-12-15.3c-3.5-2.9-14.3-5.3-18.3-11.7l-1.9-3.1c0,0-3.4,10,5.9,12.9
				c0,0,5.9,1.7,7.6,5.1c0,0,0.9,8.4-5.4,16c-2.2,2.9-4.6,5.4-7.2,7.2c-2,1.7-4.9,3.3-8.2,4.5c-6,2.3-10.6,2.6-10.6,2.6
				c-3.3,0.4-6.5,0.4-9.2,0.1c-9.6-1.5-25.3,13.8-25.3,13.8c3,4.2,7.6,4.7,7.6,4.7l0.5-0.1c-0.6,0.8-1.3,1.7-1.8,2.7
				c0,0,28,3.1,41.6-4c11.5-6.1,28.9-20,33.9-24.2c2.3,0.4,8.4,1.6,16.3,2.3L267.9,550.9z"/>
			<path style="fill:#0E0F10;" d="M252.6,547.6l-0.6,1.3c-4.1-2.1-7.3-2.8-9.5-1.8c-1.8,0.7-3,2.4-3.7,5c-0.8,2.6-2.7,7.7-5.3,12.4
				l0,0.5c-0.2,0-0.2,0-0.3,0c-1.3,2.4-2.8,4.4-4.4,6.2c-0.9,1.2-2.1,2-3.4,2.7c-3.5,2-8,2.4-12.3,2.9c-2.3,0.3-4.8,0.5-6.9,1
				c-7.2,1.6-11.6,7.9-11.7,8l-1.2-0.8c0.2-0.3,4.7-6.9,12.6-8.6c2.3-0.5,4.7-0.7,7-1c5.7-0.7,11.2-1.2,14.6-5
				c1.5-1.7,2.7-3.5,3.9-5.5c-1.2-0.3-2.1-0.9-3.1-1.7c-1.9,2.2-4.4,4.1-7.1,5.6c-6.7,3.6-14.9,5.1-20.1,6.1l-1.5,0.2
				c-6.8,1.2-15.6,10.5-15.8,10.6c-0.3,0.3-0.7,0.3-1,0c-0.3-0.3-0.3-0.7,0-1c0.4-0.3,9.3-9.5,16.5-10.9l1.5-0.2
				c7.1-1.4,20-3.9,26.4-11.3c-1.8-1.9-3-3.9-3.1-4.1l1.2-0.7c0,0,2.8,5.2,6.8,6.1c2.7-5,4.6-10.2,5-11.8c0.9-3.2,2.4-5.3,4.5-6.1
				C244.4,544.5,248,545,252.6,547.6z"/>
			<path style="fill:#0E0F10;" d="M226,559.5c0.4,0.3,0.4,0.7,0.1,1.1c-0.3,0.2-0.5,0.6-0.8,0.7c-6.3,5.6-22.3,9.1-29.6,9.5
				c-2.9,0.1-6.7,2.1-10.7,5.7c-3.5,3.2-6.3,6.4-6.3,6.4l-0.1,0.1c-0.3,0.2-0.7,0.3-1,0c-0.1-0.1-0.3-0.3-0.3-0.5
				c0-0.1,0-0.4,0.2-0.5c0.3-0.3,3-3.4,6.5-6.6c4.4-3.9,8.3-6.1,11.6-6.3c7.1-0.5,22.7-4,28.7-9.1c0.2-0.2,0.3-0.4,0.7-0.7l0,0
				C225.3,559.2,225.7,559.2,226,559.5z"/>
		</g>
		<g style="display:inline;">
			<g>
				
					<linearGradient id="SVGID_00000003103380456669591600000009743248945694755246_" gradientUnits="userSpaceOnUse" x1="223.3358" y1="633.0464" x2="319.0764" y2="633.0464" gradientTransform="matrix(-0.9948 0.1018 0.1018 0.9948 967.1096 -104.5105)">
					<stop  offset="0" style="stop-color:#FFCC99"/>
					<stop  offset="1" style="stop-color:#FF9999"/>
				</linearGradient>
				
					<path style="fill:url(#SVGID_00000003103380456669591600000009743248945694755246_);stroke:#000000;stroke-width:2;stroke-miterlimit:10;" d="
					M714.6,550.9c5.1-1.2,10.4-2.8,13.3-4.8c0,0,8.6-12.5,12-15.3c3.5-2.9,14.3-5.3,18.3-11.7l1.9-3.1c0,0,3.4,10-5.9,12.9
					c0,0-5.9,1.7-7.6,5.1c0,0-0.9,8.4,5.4,16c2.2,2.9,4.6,5.4,7.2,7.2c2,1.7,4.9,3.3,8.2,4.5c6,2.3,10.6,2.6,10.6,2.6
					c3.3,0.4,6.5,0.4,9.2,0.1c9.6-1.5,25.3,13.8,25.3,13.8c-3,4.2-7.6,4.7-7.6,4.7l-0.5-0.1c0.6,0.8,1.3,1.7,1.8,2.7
					c0,0-28,3.1-41.6-4c-11.5-6.1-28.9-20-33.9-24.2c-2.3,0.4-8.4,1.6-16.3,2.3L714.6,550.9z"/>
				<path style="fill:#0E0F10;" d="M740.8,545.5c2.1,0.8,3.6,2.8,4.5,6.1c0.5,1.7,2.3,6.8,5,11.8c4-0.9,6.8-6.1,6.8-6.1l1.2,0.7
					c-0.1,0.2-1.3,2.2-3.1,4.1c6.4,7.4,19.3,9.9,26.4,11.3l1.5,0.2c7.2,1.4,16.1,10.6,16.5,10.9c0.3,0.3,0.3,0.7,0,1
					c-0.3,0.3-0.7,0.3-1,0c-0.1-0.1-9-9.3-15.8-10.6l-1.5-0.2c-5.2-1-13.4-2.4-20.1-6.1c-2.7-1.5-5.2-3.4-7.1-5.6
					c-1,0.8-2,1.4-3.1,1.7c1.2,2,2.4,3.9,3.9,5.5c3.4,3.9,8.9,4.3,14.6,5c2.3,0.3,4.8,0.5,7,1c7.9,1.7,12.4,8.3,12.6,8.6l-1.2,0.8
					c-0.1-0.1-4.5-6.4-11.7-8c-2.2-0.5-4.6-0.7-6.9-1c-4.3-0.5-8.7-0.9-12.3-2.9c-1.3-0.7-2.5-1.5-3.4-2.7c-1.6-1.7-3-3.8-4.4-6.2
					c-0.1,0-0.1,0-0.3,0l0-0.5c-2.6-4.8-4.5-9.8-5.3-12.4c-0.8-2.6-2-4.3-3.7-5c-2.2-1-5.4-0.4-9.5,1.8l-0.6-1.3
					C734.5,545,738.1,544.5,740.8,545.5z"/>
				<path style="fill:#0E0F10;" d="M757.7,559.4L757.7,559.4c0.3,0.4,0.5,0.6,0.7,0.7c6,5.1,21.6,8.6,28.7,9.1
					c3.3,0.2,7.2,2.4,11.6,6.3c3.5,3.2,6.2,6.3,6.5,6.6c0.1,0.1,0.1,0.4,0.2,0.5c-0.1,0.2-0.3,0.4-0.3,0.5c-0.3,0.3-0.7,0.2-1,0
					l-0.1-0.1c0,0-2.7-3.2-6.3-6.4c-4.1-3.6-7.8-5.6-10.7-5.7c-7.3-0.5-23.3-3.9-29.6-9.5c-0.3-0.2-0.5-0.6-0.8-0.7
					c-0.3-0.4-0.3-0.8,0.1-1.1C756.8,559.2,757.2,559.2,757.7,559.4z"/>
			</g>
			<polygon style="fill:#F6F5F8;stroke:#000000;stroke-width:2;stroke-miterlimit:10;" points="729,569.2 718.2,538.7 548.1,541.8 
				548.1,542 500.6,522.7 492.2,529.7 485.2,521.3 434.2,541.6 434.2,541.8 264.3,538.7 253.5,569.2 436.5,597.3 440.7,695.7 
				542.5,695.4 546.6,597.2 			"/>
		</g>
					<animate  accumulate="none" additive="replace" attributeName="display" begin="0s"
					calcMode="linear" dur="4s"  fill="remove" id="eyes                                 
					" keyTimes="0;0.02;0.04;0.06;0.08;  0.1;0.92;0.94;0.96;0.98;1" repeatCount="indefinite" restart="always" 
					values="none;none;none;none;none;none;inline;none;none;none;none">
			</animate>
	</g>
	<g id="f8" style="display:none;">
		<g style="display:inline;">
			
				<linearGradient id="SVGID_00000124859805275845312420000016415278089082163076_" gradientUnits="userSpaceOnUse" x1="180.8223" y1="657.7732" x2="276.5628" y2="657.7732" gradientTransform="matrix(0.9983 -5.824336e-02 5.824336e-02 0.9983 -41.5783 -56.8299)">
				<stop  offset="0" style="stop-color:#FFCC99"/>
				<stop  offset="1" style="stop-color:#FF9999"/>
			</linearGradient>
			
				<path style="fill:url(#SVGID_00000124859805275845312420000016415278089082163076_);stroke:#000000;stroke-width:2;stroke-miterlimit:10;" d="
				M271.2,577.1c-5.2-0.3-10.7-1.1-13.9-2.7c0,0-10.5-11-14.3-13.2c-3.9-2.3-15-2.9-19.9-8.7l-2.4-2.8c0,0-1.8,10.4,7.9,11.8
				c0,0,6.1,0.7,8.3,3.8c0,0,2.3,8.2-2.7,16.7c-1.7,3.2-3.7,6-5.9,8.3c-1.7,2-4.3,4.1-7.4,5.7c-5.5,3.2-10.1,4.3-10.1,4.3
				c-3.2,0.9-6.3,1.5-9,1.5c-9.7,0.1-22.8,17.7-22.8,17.7c3.6,3.7,8.2,3.4,8.2,3.4l0.5-0.2c-0.4,0.9-1,1.9-1.3,3
				c0,0,28.2-1.4,40.5-10.6c10.4-7.8,25.3-24.3,29.6-29.3c2.4,0,8.5,0.2,16.4-0.3L271.2,577.1z"/>
			<path style="fill:#0E0F10;" d="M255.6,576.2l-0.4,1.4c-4.4-1.4-7.6-1.6-9.6-0.2c-1.6,1-2.5,2.9-2.9,5.6c-0.3,2.7-1.4,8-3.2,13.1
				l0.1,0.5c-0.2,0-0.2,0-0.3,0c-1,2.6-2,4.8-3.3,6.8c-0.7,1.3-1.8,2.3-2.9,3.2c-3.2,2.5-7.5,3.6-11.6,4.8c-2.3,0.6-4.6,1.3-6.7,2.1
				c-6.9,2.7-10.2,9.6-10.3,9.7l-1.3-0.6c0.2-0.3,3.6-7.5,11.1-10.5c2.2-0.8,4.5-1.5,6.8-2.1c5.5-1.6,10.8-2.9,13.6-7.3
				c1.2-1.9,2.1-3.9,3-6.1c-1.2-0.1-2.2-0.6-3.4-1.2c-1.6,2.5-3.7,4.7-6.1,6.7c-6,4.7-13.9,7.4-18.9,9.2l-1.5,0.5
				c-6.5,2.3-13.8,12.8-13.9,12.9c-0.3,0.3-0.7,0.4-1,0.2c-0.3-0.3-0.4-0.7-0.2-1c0.4-0.3,7.7-10.9,14.5-13.4l1.5-0.5
				c6.8-2.5,19.1-7,24.2-15.3c-2.1-1.6-3.6-3.4-3.7-3.6l1.1-0.9c0,0,3.6,4.7,7.7,5c1.9-5.4,2.9-10.8,3.1-12.5
				c0.4-3.3,1.6-5.6,3.5-6.7C247,574.5,250.7,574.4,255.6,576.2z"/>
			<path style="fill:#0E0F10;" d="M231.3,592.3c0.4,0.3,0.5,0.7,0.3,1.1c-0.3,0.2-0.4,0.6-0.7,0.8c-5.3,6.5-20.6,12.5-27.7,14.1
				c-2.9,0.6-6.2,3.2-9.7,7.4c-3,3.7-5.2,7.3-5.2,7.3l-0.1,0.1c-0.3,0.2-0.7,0.4-1,0.2c-0.1-0.1-0.3-0.3-0.4-0.5
				c0-0.1,0-0.4,0.1-0.5c0.3-0.3,2.4-3.8,5.4-7.5c3.7-4.5,7.2-7.3,10.5-8c6.9-1.6,21.8-7.6,26.9-13.6c0.2-0.2,0.3-0.4,0.6-0.8l0,0
				C230.5,592.1,230.9,592,231.3,592.3z"/>
		</g>
		<g style="display:inline;">
			<g>
				
					<linearGradient id="SVGID_00000084520802646996715020000014979718352616431766_" gradientUnits="userSpaceOnUse" x1="232.2766" y1="660.7751" x2="328.0171" y2="660.7751" gradientTransform="matrix(-0.9983 -5.824336e-02 -5.824336e-02 0.9983 1073.8324 -56.8299)">
					<stop  offset="0" style="stop-color:#FFCC99"/>
					<stop  offset="1" style="stop-color:#FF9999"/>
				</linearGradient>
				
					<path style="fill:url(#SVGID_00000084520802646996715020000014979718352616431766_);stroke:#000000;stroke-width:2;stroke-miterlimit:10;" d="
					M709.5,577.1c5.2-0.3,10.7-1.1,13.9-2.7c0,0,10.5-11,14.3-13.2c3.9-2.3,15-2.9,19.9-8.7l2.4-2.8c0,0,1.8,10.4-7.9,11.8
					c0,0-6.1,0.7-8.3,3.8c0,0-2.3,8.2,2.7,16.7c1.7,3.2,3.7,6,5.9,8.3c1.7,2,4.3,4.1,7.4,5.7c5.5,3.2,10.1,4.3,10.1,4.3
					c3.2,0.9,6.3,1.5,9,1.5c9.7,0.1,22.8,17.7,22.8,17.7c-3.6,3.7-8.2,3.4-8.2,3.4l-0.5-0.2c0.4,0.9,1,1.9,1.3,3
					c0,0-28.2-1.4-40.5-10.6c-10.4-7.8-25.3-24.3-29.6-29.3c-2.4,0-8.5,0.2-16.4-0.3L709.5,577.1z"/>
				<path style="fill:#0E0F10;" d="M736.1,576c1.9,1.1,3.1,3.4,3.5,6.7c0.2,1.7,1.2,7.1,3.1,12.5c4.1-0.3,7.7-5,7.7-5l1.1,0.9
					c-0.1,0.2-1.6,2-3.7,3.6c5.1,8.3,17.5,12.8,24.2,15.3l1.5,0.5c6.9,2.5,14.2,13,14.5,13.4c0.3,0.3,0.2,0.7-0.2,1
					c-0.3,0.3-0.7,0.2-1-0.2c-0.1-0.1-7.4-10.6-13.9-12.9l-1.5-0.5c-5-1.8-12.9-4.6-18.9-9.2c-2.4-1.9-4.6-4.2-6.1-6.7
					c-1.1,0.6-2.2,1.1-3.4,1.2c0.9,2.2,1.8,4.2,3,6.1c2.8,4.4,8.1,5.7,13.6,7.3c2.3,0.6,4.6,1.3,6.8,2.1
					c7.5,2.9,10.9,10.2,11.1,10.5l-1.3,0.6c-0.1-0.1-3.4-7-10.3-9.7c-2.1-0.8-4.4-1.5-6.7-2.1c-4.1-1.1-8.5-2.3-11.6-4.8
					c-1.2-0.9-2.2-1.8-2.9-3.2c-1.3-2-2.4-4.2-3.3-6.8c-0.1,0-0.1,0-0.3,0l0.1-0.5c-1.8-5.1-2.9-10.4-3.2-13.1
					c-0.3-2.7-1.2-4.6-2.9-5.6c-2-1.3-5.2-1.2-9.6,0.2l-0.4-1.4C730,574.4,733.7,574.5,736.1,576z"/>
				<path style="fill:#0E0F10;" d="M750.6,592.3L750.6,592.3c0.3,0.4,0.4,0.6,0.6,0.8c5.1,6,19.9,12,26.9,13.6
					c3.3,0.7,6.7,3.5,10.5,8c3,3.7,5.1,7.2,5.4,7.5c0.1,0.1,0.1,0.4,0.1,0.5c-0.1,0.2-0.3,0.4-0.4,0.5c-0.3,0.3-0.7,0.1-1-0.2
					l-0.1-0.1c0,0-2.2-3.6-5.2-7.3c-3.5-4.2-6.8-6.8-9.7-7.4c-7.1-1.6-22.4-7.6-27.7-14.1c-0.3-0.2-0.4-0.6-0.7-0.8
					c-0.3-0.4-0.2-0.8,0.3-1.1C749.8,592,750.2,592.1,750.6,592.3z"/>
			</g>
			<polygon style="fill:#F6F5F8;stroke:#000000;stroke-width:2;stroke-miterlimit:10;" points="720.8,597.4 715,565.6 546.9,541.5 
				500.6,522.7 492.2,529.7 485.2,521.3 434.2,541.6 434.2,541.5 265.7,565.6 259.9,597.4 436.4,594.8 440.7,695.7 542.5,695.4 
				546.6,596 			"/>
		</g>
				<animate  accumulate="none" additive="replace" attributeName="display" begin="0s"
					calcMode="linear" dur="4s"  fill="remove" id="eyes                                 
					" keyTimes="0;0.02;0.04;0.06;0.08;  0.1;0.92;0.94;0.96;0.98;1" repeatCount="indefinite" restart="always" 
					values="none;none;none;none;none;none;none;inline;none;none;none">
			</animate>
	</g>
	<g id="f9" style="display:none;">
		<g style="display:inline;">
			
				<linearGradient id="SVGID_00000028325807481986322870000001311293213219137459_" gradientUnits="userSpaceOnUse" x1="184.1457" y1="672.8203" x2="279.8862" y2="672.8203" gradientTransform="matrix(0.9842 -0.1769 0.1769 0.9842 -117.1121 -9.9584)">
				<stop  offset="0" style="stop-color:#FFCC99"/>
				<stop  offset="1" style="stop-color:#FF9999"/>
			</linearGradient>
			
				<path style="fill:url(#SVGID_00000028325807481986322870000001311293213219137459_);stroke:#000000;stroke-width:2;stroke-miterlimit:10;" d="
				M275,596.3c-5.2,0.3-10.8,0.2-14.1-1c0,0-11.7-9.7-15.8-11.4c-4.2-1.8-15.2-1.1-20.8-6.2l-2.7-2.5c0,0-0.5,10.6,9.2,10.7
				c0,0,6.1,0,8.7,2.8c0,0,3.2,7.9-0.7,16.9c-1.3,3.4-2.9,6.4-4.9,8.9c-1.4,2.2-3.8,4.5-6.6,6.6c-5.1,3.9-9.5,5.5-9.5,5.5
				c-3,1.3-6.1,2.2-8.8,2.6c-9.6,1.2-20.5,20.3-20.5,20.3c4,3.2,8.6,2.4,8.6,2.4l0.5-0.3c-0.3,1-0.8,2-1,3.1c0,0,27.8-4.8,38.9-15.3
				c9.4-9,22.2-27.2,25.9-32.6c2.4-0.3,8.5-0.8,16.3-2.3L275,596.3z"/>
			<path style="fill:#0E0F10;" d="M259.4,597.4l-0.2,1.5c-4.5-0.9-7.7-0.6-9.6,0.9c-1.5,1.2-2.2,3.1-2.2,5.9c0,2.7-0.5,8.1-1.7,13.4
				l0.2,0.5c-0.2,0-0.2,0-0.3,0.1c-0.6,2.7-1.4,5-2.5,7.2c-0.6,1.4-1.5,2.5-2.5,3.5c-2.8,2.8-7,4.5-11,6.1c-2.2,0.9-4.4,1.8-6.4,2.9
				c-6.5,3.5-8.9,10.8-9,10.9l-1.4-0.5c0.1-0.3,2.6-7.9,9.8-11.7c2-1.1,4.3-2,6.5-2.9c5.3-2.3,10.4-4.2,12.6-8.9
				c1-2,1.6-4.1,2.2-6.4c-1.2,0-2.3-0.3-3.5-0.8c-1.2,2.7-3.1,5.1-5.3,7.4c-5.4,5.3-12.9,9-17.7,11.4l-1.4,0.7
				c-6.2,3-12.1,14.4-12.2,14.5c-0.2,0.3-0.6,0.5-1,0.3c-0.3-0.2-0.5-0.6-0.3-1c0.3-0.4,6.3-11.7,12.8-15l1.4-0.7
				c6.4-3.3,18.1-9.3,22.2-18.1c-2.3-1.3-4-2.9-4.1-3.1l0.9-1c0,0,4.1,4.2,8.2,4c1.2-5.6,1.6-11.1,1.6-12.8c0-3.4,0.9-5.7,2.7-7.1
				C250.6,596.7,254.3,596.1,259.4,597.4z"/>
			<path style="fill:#0E0F10;" d="M237.2,616.2c0.4,0.2,0.6,0.6,0.4,1c-0.3,0.2-0.3,0.7-0.5,0.9c-4.5,7.1-19,14.9-25.8,17.3
				c-2.8,0.9-5.8,3.9-8.7,8.5c-2.5,4-4.3,7.9-4.3,7.9l-0.1,0.1c-0.3,0.2-0.6,0.5-1,0.3c-0.1-0.1-0.3-0.2-0.5-0.4
				c0-0.1-0.1-0.4,0-0.5c0.2-0.3,1.9-4.1,4.4-8.1c3.2-4.9,6.3-8.1,9.4-9.2c6.7-2.4,20.7-10.1,25-16.7c0.2-0.2,0.2-0.4,0.4-0.9l0,0
				C236.3,616.1,236.7,616,237.2,616.2z"/>
		</g>
		<g style="display:inline;">
			<g>
				
					<linearGradient id="SVGID_00000079473710975400148830000006629185274615762587_" gradientUnits="userSpaceOnUse" x1="232.6273" y1="681.5317" x2="328.3678" y2="681.5317" gradientTransform="matrix(-0.9842 -0.1769 -0.1769 0.9842 1149.3711 -9.9584)">
					<stop  offset="0" style="stop-color:#FFCC99"/>
					<stop  offset="1" style="stop-color:#FF9999"/>
				</linearGradient>
				
					<path style="fill:url(#SVGID_00000079473710975400148830000006629185274615762587_);stroke:#000000;stroke-width:2;stroke-miterlimit:10;" d="
					M708,596.3c5.2,0.3,10.8,0.2,14.1-1c0,0,11.7-9.7,15.8-11.4c4.2-1.8,15.2-1.1,20.8-6.2l2.7-2.5c0,0,0.5,10.6-9.2,10.7
					c0,0-6.1,0-8.7,2.8c0,0-3.2,7.9,0.7,16.9c1.3,3.4,2.9,6.4,4.9,8.9c1.4,2.2,3.8,4.5,6.6,6.6c5.1,3.9,9.5,5.5,9.5,5.5
					c3,1.3,6.1,2.2,8.8,2.6c9.6,1.2,20.5,20.3,20.5,20.3c-4,3.2-8.6,2.4-8.6,2.4l-0.5-0.3c0.3,1,0.8,2,1,3.1c0,0-27.8-4.8-38.9-15.3
					c-9.4-9-22.2-27.2-25.9-32.6c-2.4-0.3-8.5-0.8-16.3-2.3L708,596.3z"/>
				<path style="fill:#0E0F10;" d="M734.6,598.4c1.8,1.3,2.7,3.7,2.7,7.1c0,1.7,0.3,7.2,1.6,12.8c4.1,0.2,8.2-4,8.2-4l0.9,1
					c-0.1,0.2-1.8,1.8-4.1,3.1c4.1,8.9,15.8,14.8,22.2,18.1l1.4,0.7c6.5,3.3,12.5,14.6,12.8,15c0.2,0.3,0.1,0.7-0.3,1
					s-0.7,0.1-1-0.3c-0.1-0.1-6.1-11.5-12.2-14.5l-1.4-0.7c-4.8-2.4-12.2-6.1-17.7-11.4c-2.1-2.2-4-4.7-5.3-7.4
					c-1.2,0.5-2.3,0.8-3.5,0.8c0.6,2.2,1.2,4.4,2.2,6.4c2.2,4.7,7.3,6.6,12.6,8.9c2.2,0.9,4.4,1.8,6.5,2.9
					c7.1,3.8,9.6,11.4,9.8,11.7l-1.4,0.5c-0.1-0.1-2.5-7.4-9-10.9c-1.9-1.1-4.2-2-6.4-2.9c-4-1.6-8.1-3.3-11-6.1c-1-1-2-2.1-2.5-3.5
					c-1-2.1-1.8-4.5-2.5-7.2c-0.1,0-0.1,0-0.3-0.1l0.2-0.5c-1.2-5.3-1.6-10.7-1.7-13.4c0-2.7-0.7-4.7-2.2-5.9
					c-1.9-1.6-5.1-1.8-9.6-0.9l-0.2-1.5C728.7,596.1,732.4,596.7,734.6,598.4z"/>
				<path style="fill:#0E0F10;" d="M747,616.4L747,616.4c0.2,0.4,0.3,0.7,0.4,0.9c4.3,6.6,18.4,14.3,25,16.7
					c3.2,1.1,6.2,4.3,9.4,9.2c2.5,4,4.2,7.8,4.4,8.1c0.1,0.1,0,0.4,0,0.5c-0.1,0.2-0.4,0.3-0.5,0.4c-0.3,0.2-0.7,0-1-0.3l-0.1-0.1
					c0,0-1.7-3.9-4.3-7.9c-2.9-4.6-6-7.6-8.7-8.5c-6.9-2.5-21.3-10.2-25.8-17.3c-0.3-0.2-0.3-0.7-0.5-0.9c-0.2-0.4-0.1-0.8,0.4-1
					C746.3,616,746.7,616.1,747,616.4z"/>
			</g>
			<polygon style="fill:#F6F5F8;stroke:#000000;stroke-width:2;stroke-miterlimit:10;" points="716.8,617.9 714.8,585.6 546.8,541 
				546.8,541.5 500.6,522.7 492.2,529.7 485.2,521.3 434.8,541.4 268.2,585.6 266.2,617.9 436.3,594 436.3,598.9 440.7,695.7 
				542.5,695.4 546.7,594 			"/>
		</g>
				<animate  accumulate="none" additive="replace" attributeName="display" begin="0s"
					calcMode="linear" dur="4s"  fill="remove" id="eyes                                 
					" keyTimes="0;0.02;0.04;0.06;0.08;  0.1;0.92;0.94;0.96;0.98;1" repeatCount="indefinite" restart="always" 
					values="none;none;none;none;none;none;none;none;inline;none;none">
			</animate>
	</g>
	<g id="f10" style="display:none;">
		<g style="display:inline;">
			
				<linearGradient id="SVGID_00000081628891463227971640000016117668558303417748_" gradientUnits="userSpaceOnUse" x1="190.741" y1="687.4996" x2="286.4815" y2="687.4996" gradientTransform="matrix(0.9588 -0.2842 0.2842 0.9588 -182.8208 42.1086)">
				<stop  offset="0" style="stop-color:#FFCC99"/>
				<stop  offset="1" style="stop-color:#FF9999"/>
			</linearGradient>
			
				<path style="fill:url(#SVGID_00000081628891463227971640000016117668558303417748_);stroke:#000000;stroke-width:2;stroke-miterlimit:10;" d="
				M284.2,613.7c-5.1,0.8-10.7,1.4-14.2,0.6c0,0-12.7-8.3-16.9-9.6c-4.4-1.3-15.3,0.6-21.4-3.9l-2.9-2.2c0,0,0.6,10.6,10.4,9.7
				c0,0,6.1-0.7,9,1.8c0,0,4.1,7.4,1.1,16.9c-0.9,3.5-2.2,6.7-3.9,9.4c-1.2,2.3-3.2,4.9-5.9,7.3c-4.6,4.4-8.8,6.5-8.8,6.5
				c-2.9,1.6-5.8,2.9-8.4,3.5c-9.4,2.3-18.2,22.4-18.2,22.4c4.4,2.8,8.8,1.5,8.8,1.5l0.4-0.3c-0.2,1-0.5,2-0.6,3.2
				c0,0,27.1-7.8,37-19.5c8.3-10,19.1-29.4,22.2-35.3c2.3-0.5,8.3-1.7,15.9-4.1L284.2,613.7z"/>
			<path style="fill:#0E0F10;" d="M268.8,616.4l-0.1,1.5c-4.6-0.4-7.8,0.2-9.4,2c-1.4,1.3-1.8,3.4-1.5,6.1c0.3,2.7,0.4,8.1-0.2,13.5
				l0.2,0.5c-0.2,0.1-0.2,0.1-0.3,0.1c-0.3,2.7-0.9,5.2-1.7,7.4c-0.4,1.5-1.2,2.6-2.1,3.8c-2.5,3.1-6.5,5.3-10.2,7.3
				c-2.1,1.1-4.2,2.3-6,3.6c-6.1,4.2-7.7,11.7-7.8,11.8l-1.4-0.3c0.1-0.3,1.8-8.1,8.4-12.7c1.9-1.3,4.1-2.5,6.1-3.6
				c5-2.8,9.9-5.3,11.6-10.2c0.7-2.1,1.1-4.3,1.5-6.6c-1.2,0.1-2.3,0-3.6-0.4c-0.9,2.8-2.6,5.5-4.4,7.9
				c-4.8,5.9-11.8,10.4-16.3,13.3l-1.3,0.8c-5.8,3.7-10.5,15.6-10.6,15.8c-0.2,0.4-0.6,0.6-0.9,0.4c-0.4-0.2-0.6-0.6-0.4-0.9
				c0.3-0.4,5-12.3,11.1-16.3l1.3-0.8c6-4,17-11.2,20.1-20.5c-2.4-1.1-4.3-2.5-4.4-2.6l0.8-1.1c0,0,4.6,3.8,8.6,3.1
				c0.6-5.7,0.3-11.2,0.1-12.9c-0.4-3.3,0.3-5.8,1.9-7.3C260,616.8,263.6,615.8,268.8,616.4z"/>
			<path style="fill:#0E0F10;" d="M248.8,637.6c0.5,0.2,0.7,0.5,0.5,1c-0.2,0.3-0.2,0.7-0.4,1c-3.7,7.6-17.2,16.9-23.8,20.1
				c-2.7,1.2-5.3,4.5-7.8,9.4c-2.1,4.3-3.4,8.3-3.4,8.3l-0.1,0.1c-0.2,0.3-0.6,0.6-0.9,0.4c-0.1-0.1-0.4-0.2-0.5-0.4
				c0-0.1-0.1-0.4,0-0.5c0.2-0.4,1.4-4.3,3.5-8.6c2.6-5.3,5.3-8.8,8.3-10.2c6.4-3.1,19.5-12.3,23.1-19.3c0.1-0.2,0.2-0.5,0.3-0.9
				l0,0C247.9,637.6,248.3,637.4,248.8,637.6z"/>
		</g>
		<g style="display:inline;">
			<g>
				
					<linearGradient id="SVGID_00000114054051500479571970000014032048248704484993_" gradientUnits="userSpaceOnUse" x1="236.6428" y1="701.8354" x2="332.3834" y2="701.8354" gradientTransform="matrix(-0.9588 -0.2842 -0.2842 0.9588 1214.9895 42.1086)">
					<stop  offset="0" style="stop-color:#FFCC99"/>
					<stop  offset="1" style="stop-color:#FF9999"/>
				</linearGradient>
				
					<path style="fill:url(#SVGID_00000114054051500479571970000014032048248704484993_);stroke:#000000;stroke-width:2;stroke-miterlimit:10;" d="
					M699.9,614.4c5.1,0.8,10.7,1.4,14.2,0.6c0,0,12.7-8.3,16.9-9.6c4.4-1.3,15.3,0.6,21.4-3.9l2.9-2.2c0,0-0.6,10.6-10.4,9.7
					c0,0-6.1-0.7-9,1.8c0,0-4.1,7.4-1.1,16.9c0.9,3.5,2.2,6.7,3.9,9.4c1.2,2.3,3.2,4.9,5.9,7.3c4.6,4.4,8.8,6.5,8.8,6.5
					c2.9,1.6,5.8,2.9,8.4,3.5c9.4,2.3,18.2,22.4,18.2,22.4c-4.4,2.8-8.8,1.5-8.8,1.5l-0.4-0.3c0.2,1,0.5,2,0.6,3.2
					c0,0-27.1-7.8-37-19.5c-8.3-10-19.1-29.4-22.2-35.3c-2.3-0.5-8.3-1.7-15.9-4.1L699.9,614.4z"/>
				<path style="fill:#0E0F10;" d="M726.1,619.4c1.6,1.5,2.3,4,1.9,7.3c-0.2,1.7-0.5,7.2,0.1,12.9c4.1,0.7,8.6-3.1,8.6-3.1l0.8,1.1
					c-0.2,0.2-2,1.6-4.4,2.6c3.1,9.3,14.1,16.5,20.1,20.5l1.3,0.8c6.1,4,10.8,15.9,11.1,16.3c0.2,0.4,0,0.7-0.4,0.9
					c-0.4,0.2-0.7,0-0.9-0.4c-0.1-0.1-4.8-12.1-10.6-15.8l-1.3-0.8c-4.5-2.9-11.5-7.4-16.3-13.3c-1.9-2.4-3.5-5.1-4.4-7.9
					c-1.3,0.4-2.4,0.6-3.6,0.4c0.4,2.3,0.8,4.5,1.5,6.6c1.7,4.9,6.6,7.4,11.6,10.2c2.1,1.1,4.2,2.3,6.1,3.6
					c6.7,4.6,8.3,12.4,8.4,12.7l-1.4,0.3c-0.1-0.1-1.7-7.6-7.8-11.8c-1.8-1.3-4-2.4-6-3.6c-3.8-2.1-7.7-4.2-10.2-7.3
					c-0.9-1.1-1.7-2.3-2.1-3.8c-0.8-2.2-1.3-4.7-1.7-7.4c-0.1,0-0.1,0-0.3-0.1l0.2-0.5c-0.6-5.4-0.5-10.8-0.2-13.5s-0.2-4.7-1.5-6.1
					c-1.7-1.7-4.8-2.4-9.4-2l-0.1-1.5C720.5,616.5,724.1,617.5,726.1,619.4z"/>
				<path style="fill:#0E0F10;" d="M736.5,638.6L736.5,638.6c0.2,0.5,0.2,0.7,0.3,0.9c3.6,7,16.7,16.2,23.1,19.3
					c3,1.4,5.7,4.9,8.3,10.2c2.1,4.3,3.3,8.2,3.5,8.6c0.1,0.1,0,0.4,0,0.5c-0.2,0.2-0.4,0.3-0.5,0.4c-0.4,0.2-0.7-0.1-0.9-0.4
					l-0.1-0.1c0,0-1.3-4-3.4-8.3c-2.4-4.9-5.1-8.2-7.8-9.4c-6.6-3.2-20.1-12.5-23.8-20.1c-0.2-0.3-0.2-0.7-0.4-1
					c-0.2-0.5,0-0.8,0.5-1S736.1,638.3,736.5,638.6z"/>
			</g>
			<polygon style="fill:#F6F5F8;stroke:#000000;stroke-width:2;stroke-miterlimit:10;" points="706.8,602.9 555.8,545.8 
				548.8,542.3 500.6,522.7 492.2,529.7 485.2,521.3 434.2,541.6 431.4,543 276.2,603.8 277.8,636.1 436.3,596.1 436.4,593.6 
				440.7,695.7 542.5,695.4 546.6,597.1 706.3,636.8 			"/>
		</g>
				<animate  accumulate="none" additive="replace" attributeName="display" begin="0s"
					calcMode="linear" dur="4s"  fill="remove" id="eyes                                 
					" keyTimes="0;0.02;0.04;0.06;0.08;  0.1;0.92;0.94;0.96;0.98;1" repeatCount="indefinite" restart="always" 
					values="none;none;none;none;none;none;none;none;none;inline;none">
			</animate>
	</g>
</g>

<g id="tie">
	<polygon style="fill:#AE5694;stroke:#000000;stroke-width:2;stroke-miterlimit:10;" points="478.8,536.9 493.7,525.2 508.3,535.8 
		499.4,543.4 507.9,643.7 493.7,664.2 479.7,642.3 491.6,543.6 	"/>
	<polygon style="fill:#F6F5F8;stroke:#000000;stroke-width:2;stroke-miterlimit:10;" points="491.6,525.9 497.5,517.8 513.2,525.6 
		507.1,539.7 	"/>
	<polygon style="fill:#F6F5F8;stroke:#000000;stroke-width:2;stroke-miterlimit:10;" points="467.3,524.6 485.1,518.7 491.6,525.9 
		480.1,539.6 	"/>
	<polygon style="fill:#F6F5F8;stroke:#000000;stroke-miterlimit:10;" points="513,562.2 537.5,559.9 537.5,566.1 513,569.3 	"/>
</g>


			<g id="closed" style="display:none;">
	<g style="display:inline;">
		
			<linearGradient id="SVGID_00000174593700469383314760000011954673290985694377_" gradientUnits="userSpaceOnUse" x1="432.8424" y1="587.5765" x2="410.4735" y2="520.8194" gradientTransform="matrix(1 0 0 -1 0 952)">
			<stop  offset="0" style="stop-color:#FFCC99"/>
			<stop  offset="1" style="stop-color:#FF9999"/>
		</linearGradient>
		<circle style="fill:url(#SVGID_00000174593700469383314760000011954673290985694377_);" cx="423.2" cy="393.2" r="21.5"/>
		<g>
			<path d="M449.2,395.8c-0.1,0-0.2,0-0.2,0c-19.9-4.8-51-0.4-51.4-0.3c-0.5,0.1-1.1-0.3-1.1-0.8c-0.1-0.5,0.3-1.1,0.8-1.1
				c0.3,0,31.9-4.5,52.1,0.4c0.5,0.1,0.9,0.7,0.7,1.2C450.1,395.5,449.7,395.8,449.2,395.8z"/>
		</g>
	</g>
	<g style="display:inline;">
		
			<linearGradient id="SVGID_00000141420185188681189070000005855356050168972981_" gradientUnits="userSpaceOnUse" x1="1114.4526" y1="587.4096" x2="1092.0837" y2="520.6525" gradientTransform="matrix(-1 0 0 -1 1667.0991 952)">
			<stop  offset="0" style="stop-color:#FFCC99"/>
			<stop  offset="1" style="stop-color:#FF9999"/>
		</linearGradient>
		<circle style="fill:url(#SVGID_00000141420185188681189070000005855356050168972981_);" cx="562.3" cy="393.4" r="21.5"/>
		<g>
			<path d="M536.2,396c0.1,0,0.2,0,0.2,0c19.9-4.8,51-0.4,51.4-0.3c0.5,0.1,1.1-0.3,1.1-0.8c0.1-0.5-0.3-1.1-0.8-1.1
				c-0.3,0-31.9-4.5-52.1,0.4c-0.5,0.1-0.9,0.7-0.7,1.2C535.4,395.7,535.8,396,536.2,396z"/>
		</g>
	</g>
		<animate  accumulate="none" additive="replace" attributeName="display" begin="0s" calcMode="linear" dur="1.5s" fill="remove" id="eyes                                 " keyTimes="0;  0.9;  1" repeatCount="indefinite" restart="always" values="none;inline;none">
			</animate>
</g>
	</g>


<g id="zoom">
	<g>
		
			<ellipse style="fill:#F6F5F8;stroke:#000000;stroke-width:2;stroke-miterlimit:10.0002;" cx="242.4" cy="515.1" rx="41.5" ry="41.5"/>
		<path style="opacity:0.31;fill:#CCCCCC;enable-background:new    ;" d="M246.6,547.5c-20.8,0-37.7-17-37.7-37.7
			c0-6.8,1.8-13.2,4.8-18.7c-6.1,6.5-10,15.5-10,25.4c0,20.8,17,37.7,37.7,37.7c14.1,0,26.4-7.6,32.7-19
			C267.5,542.7,257.7,547.5,246.6,547.5z"/>
	</g>
	<g>
		
			<linearGradient id="SVGID_00000057830848270655302900000003563626914418145674_" gradientUnits="userSpaceOnUse" x1="260.683" y1="2083.5957" x2="260.683" y2="2057.0471" gradientTransform="matrix(1 0 0 1 0 -1555.1736)">
			<stop  offset="5.586592e-03" style="stop-color:#287CF7"/>
			<stop  offset="1" style="stop-color:#2D8CFF"/>
		</linearGradient>
		<path style="fill:url(#SVGID_00000057830848270655302900000003563626914418145674_);" d="M263.2,501.8c-0.6,0-1.1,0.2-1.5,0.6
			l-4.4,4.4c-0.9,0.9-1.4,2.1-1.4,3.5v9.2c0,1.2,0.5,2.7,1.4,3.5l4.4,4.4c0.5,0.5,0.9,0.6,1.5,0.6l0,0c1.2,0,2.3-1,2.3-2.3v-11v-11
			C265.7,502.9,264.6,501.8,263.2,501.8L263.2,501.8z"/>
		
			<linearGradient id="SVGID_00000035529523174869026070000008415066331073415316_" gradientUnits="userSpaceOnUse" x1="235.7631" y1="2083.5867" x2="235.7631" y2="2057.0234" gradientTransform="matrix(1 0 0 1 0 -1555.1736)">
			<stop  offset="5.586592e-03" style="stop-color:#287CF7"/>
			<stop  offset="1" style="stop-color:#2D8CFF"/>
		</linearGradient>
		<path style="fill:url(#SVGID_00000035529523174869026070000008415066331073415316_);" d="M222.5,501.8c-1.8,0-3.3,1.5-3.3,3.3V520
			c0,4.6,3.7,8.4,8.4,8.4H249c1.8,0,3.3-1.5,3.3-3.3v-15c0-4.6-3.7-8.4-8.4-8.4L222.5,501.8L222.5,501.8z"/>
	</g>
	
		 <animateMotion dur="6.6s" repeatCount="indefinite" begin="2s">
                      <mpath xlink:href="#path1"></mpath>
                    </animateMotion>
</g>

<g id="linkedin">
	<g>
		<circle style="fill:#F6F5F8;stroke:#000000;stroke-width:2;stroke-miterlimit:10;" cx="242.2" cy="515.4" r="41.4"/>
		<path style="opacity:0.31;fill:#CCCCCC;enable-background:new    ;" d="M246.4,547.7c-20.7,0-37.6-16.8-37.6-37.6
			c0-6.7,1.8-13.1,4.9-18.5c-6.2,6.7-9.8,15.6-9.8,25.3c0,20.7,16.8,37.6,37.6,37.6c13.9,0,26.2-7.6,32.7-19.1
			C267.2,542.9,257.4,547.7,246.4,547.7z"/>
	</g>
	<g>
		<g>
			<path style="fill:#2A66B2;" d="M233.7,499.3c0,2-1.3,3.7-3.7,3.7c-2.2,0-3.7-1.6-3.7-3.5c0-2,1.5-3.8,3.7-3.8
				C232.2,495.6,233.7,497.3,233.7,499.3z"/>
			<rect x="226.5" y="504.7" style="fill:#2A66B2;" width="7.2" height="23.6"/>
			<path style="fill:#2A66B2;" d="M251.1,505c-3.8,0-6,2.2-6.9,3.7h-0.2l-0.3-3.1H237c0,2,0.2,4.3,0.2,7.1v15.6h7.2v-12.9
				c0-0.7,0-1.3,0.2-1.8c0.5-1.3,1.5-2.9,3.5-2.9c2.5,0,3.7,2.2,3.7,5v12.5h7.2v-13.4C259,508.1,255.6,505,251.1,505z"/>
		</g>
	</g>
	 <animateMotion dur="6.6s" repeatCount="indefinite" begin="1.5s">
                      <mpath xlink:href="#path1"></mpath>
                    </animateMotion>
</g>


<g id="zen">
	<g>
		
			<ellipse style="fill:#F6F5F8;stroke:#000000;stroke-width:2;stroke-miterlimit:9.9996;" cx="242" cy="515.2" rx="41.8" ry="41.8"/>
		<path style="opacity:0.31;fill:#CCCCCC;enable-background:new    ;" d="M246.4,547.8c-21.1,0-37.9-16.9-37.9-37.9
			c0-6.8,1.9-13.2,5-18.7c-6.2,6.7-9.9,15.8-9.9,25.6c0,21.1,16.9,37.9,37.9,37.9c14,0,26.5-7.6,32.9-19.2
			C267.4,542.9,257.4,547.8,246.4,547.8z"/>
	</g>
	<g>
		<ellipse style="fill:#03363D;" cx="242" cy="515.2" rx="27.7" ry="27.7"/>
		<path style="fill:#FFFFFF;" d="M241.2,510.9v13.5h-11.1L241.2,510.9z M241.2,506.2c0,3-2.5,5.5-5.5,5.5c-3,0-5.5-2.5-5.5-5.5
			H241.2L241.2,506.2z M243.1,524.4c0-3,2.5-5.5,5.5-5.5s5.5,2.5,5.5,5.5H243.1z M243.1,519.4V506h11.1L243.1,519.4z"/>
	</g>
	
		 <animateMotion dur="6.6s" repeatCount="indefinite" begin="1s">
                      <mpath xlink:href="#path1"></mpath>
                    </animateMotion>
</g>


<g id="hubspot">
	<g>
		
			<ellipse style="fill:#F6F5F8;stroke:#000000;stroke-width:2;stroke-miterlimit:10.0002;" cx="241.7" cy="515.3" rx="41.9" ry="41.9"/>
		<path style="opacity:0.31;fill:#CCCCCC;enable-background:new    ;" d="M245.9,548c-21.1,0-38.1-17-38.1-38.1
			c0-6.8,1.7-13.2,4.8-18.8c-6.2,6.7-10.1,15.8-10.1,25.7c0,21.1,17,38.1,38.1,38.1c14.2,0,26.7-7.6,33.2-19.3
			C267.2,543.1,257.1,548,245.9,548z"/>
	</g>
	<path style="fill:#F8761F;" d="M261,515.9c-1.2-2-2.9-3.7-4.8-4.8c-1.6-0.9-3.1-1.5-4.9-1.7v-6.5c1.8-0.8,3-2.5,3-4.4
		c0-2.7-2.2-4.8-4.8-4.8s-4.8,2.2-4.8,4.8c0,2,1.1,3.7,2.9,4.4v6.5c-1.5,0.2-3,0.6-4.4,1.4c-2.8-2-11.9-9-17.4-13.2
		c0.1-0.4,0.2-1,0.2-1.4c0-3-2.5-5.4-5.4-5.4c-2.9,0-5.4,2.5-5.4,5.4c0,3,2.5,5.4,5.4,5.4c1.1,0,2-0.2,2.8-0.8l1.2,0.9l15.6,11.3
		c-0.8,0.8-1.6,1.6-2.2,2.6c-1.2,2-2,4.1-2,6.5v0.5c0,1.6,0.3,3.2,0.9,4.7c0.4,1.3,1.2,2.5,2,3.4l-5.2,5.2c-1.6-0.6-3.2-0.2-4.4,1
		c-0.8,0.8-1.2,1.8-1.2,3s0.4,2.2,1.2,3c0.8,0.8,1.8,1.2,3,1.2s2.2-0.4,3-1.2c0.8-0.8,1.2-1.8,1.2-3c0-0.4-0.1-0.9-0.2-1.2l5.4-5.4
		c0.6,0.5,1.5,1,2.4,1.3c1.6,0.6,3.4,1.2,5.6,1.2h0.3c2.3,0,4.4-0.5,6.3-1.6c2-1.2,3.8-2.7,4.9-4.7c1.2-2,1.9-4.2,1.9-6.7v-0.1
		C262.7,520.1,262.2,517.9,261,515.9L261,515.9z M254.5,527.1c-1.5,1.6-3.1,2.6-4.9,2.6h-0.3c-1.1,0-2-0.2-3.1-0.9
		c-1.2-0.6-2-1.5-2.8-2.6c-0.8-1.1-1.2-2.2-1.2-3.4v-0.2c0-1.2,0.2-2.4,0.8-3.4c0.6-1.2,1.5-2,2.6-2.8c1.2-0.6,2.3-1.1,3.5-1.1h0.1
		c1.2,0,2.3,0.2,3.4,0.8c1.1,0.6,1.9,1.4,2.6,2.5c0.6,1.1,1.1,2.2,1.2,3.4c0,0.2,0,0.5,0,0.8C256.4,524.2,255.7,525.7,254.5,527.1
		L254.5,527.1z"/>

			 	 <animateMotion dur="6.6s" repeatCount="indefinite" begin="0.5s">
                      <mpath xlink:href="#path1"></mpath>
                    </animateMotion>
</g>



<g id="gmail">
<g>
		
			<ellipse style="fill:#F6F5F8;stroke:#000000;stroke-width:2;stroke-miterlimit:9.9983;" cx="763.1" cy="537" rx="40.4" ry="40.4"/>
		<path style="opacity:0.31;fill:#CCCCCC;enable-background:new    ;" d="M767.2,568.5c-20.3,0-36.7-16.4-36.7-36.7
			c0-6.6,1.7-12.8,4.8-18.1c-6,6.4-9.7,15.3-9.7,24.8c0,20.3,16.4,36.7,36.7,36.7c13.7,0,25.7-7.4,32-18.6
			C787.6,563.9,778.1,568.5,767.2,568.5z"/>
	</g>
	<g>
		<path style="fill:#E75A4D;" d="M783.9,520.7c2.2,0,4,1.8,4,4v1.2l-5.6,4l-19.1,13.2l-19.3-13.4v26.9h-1.5c-2.2,0-4-1.8-4-4v-27.8
			c0-2.2,1.8-4,4-4l20.7,15.4L783.9,520.7L783.9,520.7L783.9,520.7z"/>
		
			<linearGradient id="SVGID_00000059999053728747094330000007599555417654438568_" gradientUnits="userSpaceOnUse" x1="-38767.7188" y1="-120440.0781" x2="-37269.9844" y2="-120440.0781" gradientTransform="matrix(1.772698e-02 0 0 -1.772698e-02 1437.1385 -1606.6631)">
			<stop  offset="0" style="stop-color:#F8F6EF"/>
			<stop  offset="1" style="stop-color:#E7E4D6"/>
		</linearGradient>
		<path style="fill:url(#SVGID_00000059999053728747094330000007599555417654438568_);" d="M742.3,520.7l20.7,15.4l20.8-15.4H742.3z
			"/>
		<path style="fill:#E7E4D7;" d="M743.8,529.9v26.9h38.5V530L763,543.2L743.8,529.9z"/>
		<path style="fill:#B8B7AE;" d="M743.8,556.7l19.2-13.5l-0.1-0.1l-19.2,13.1L743.8,556.7L743.8,556.7L743.8,556.7z"/>
		<path style="fill:#B7B6AD;" d="M782.3,530v26.8L763,543.3L782.3,530z"/>
		<path style="fill:#B2392F;" d="M788,525.8v26.7c-0.1,2.9-1.5,3.9-5.6,4v-26.7L788,525.8L788,525.8L788,525.8z"/>
		
			<linearGradient id="SVGID_00000114761531480610411030000016479977396383827338_" gradientUnits="userSpaceOnUse" x1="-38767.7188" y1="-120440.0781" x2="-37269.9844" y2="-120440.0781" gradientTransform="matrix(1.772698e-02 0 0 -1.772698e-02 1437.1385 -1606.6631)">
			<stop  offset="0" style="stop-color:#F8F6EF"/>
			<stop  offset="1" style="stop-color:#E7E4D6"/>
		</linearGradient>
		<path style="fill:url(#SVGID_00000114761531480610411030000016479977396383827338_);" d="M742.3,520.7l20.7,15.4l20.8-15.4H742.3z
			"/>
		
			<linearGradient id="SVGID_00000114781211832381390010000001863645628957242276_" gradientUnits="userSpaceOnUse" x1="-38767.7188" y1="-120440.0781" x2="-37269.9844" y2="-120440.0781" gradientTransform="matrix(1.772698e-02 0 0 -1.772698e-02 1437.1385 -1606.6631)">
			<stop  offset="0" style="stop-color:#F8F6EF"/>
			<stop  offset="1" style="stop-color:#E7E4D6"/>
		</linearGradient>
		<path style="fill:url(#SVGID_00000114781211832381390010000001863645628957242276_);" d="M742.3,520.7l20.7,15.4l20.8-15.4H742.3z
			"/>
		
			<linearGradient id="SVGID_00000005244541918091176010000016613020737154129815_" gradientUnits="userSpaceOnUse" x1="-38767.7188" y1="-120440.0781" x2="-37269.9844" y2="-120440.0781" gradientTransform="matrix(1.772698e-02 0 0 -1.772698e-02 1437.1385 -1606.6631)">
			<stop  offset="0" style="stop-color:#F8F6EF"/>
			<stop  offset="1" style="stop-color:#E7E4D6"/>
		</linearGradient>
		<path style="fill:url(#SVGID_00000005244541918091176010000016613020737154129815_);" d="M742.3,520.7l20.7,15.4l20.8-15.4H742.3z
			"/>
		
			<linearGradient id="SVGID_00000023985987545478713770000011767183117505384351_" gradientUnits="userSpaceOnUse" x1="-38767.7188" y1="-120440.0781" x2="-37269.9844" y2="-120440.0781" gradientTransform="matrix(1.772698e-02 0 0 -1.772698e-02 1437.1385 -1606.6631)">
			<stop  offset="0" style="stop-color:#F8F6EF"/>
			<stop  offset="1" style="stop-color:#E7E4D6"/>
		</linearGradient>
		<path style="fill:url(#SVGID_00000023985987545478713770000011767183117505384351_);" d="M742.3,520.7l20.7,15.4l20.8-15.4H742.3z
			"/>
		
			<linearGradient id="SVGID_00000068638708974849526520000014082143045989242291_" gradientUnits="userSpaceOnUse" x1="-38767.7188" y1="-120440.0781" x2="-37269.9844" y2="-120440.0781" gradientTransform="matrix(1.772698e-02 0 0 -1.772698e-02 1437.1385 -1606.6631)">
			<stop  offset="0" style="stop-color:#F8F6EF"/>
			<stop  offset="1" style="stop-color:#E7E4D6"/>
		</linearGradient>
		<path style="fill:url(#SVGID_00000068638708974849526520000014082143045989242291_);" d="M742.3,520.7l20.7,15.4l20.8-15.4H742.3z
			"/>
		
			<linearGradient id="SVGID_00000171699819274709699050000012875993897804887961_" gradientUnits="userSpaceOnUse" x1="-38767.7188" y1="-120440.0781" x2="-37269.9844" y2="-120440.0781" gradientTransform="matrix(1.772698e-02 0 0 -1.772698e-02 1437.1385 -1606.6631)">
			<stop  offset="0" style="stop-color:#F8F6EF"/>
			<stop  offset="1" style="stop-color:#E7E4D6"/>
		</linearGradient>
		<path style="fill:url(#SVGID_00000171699819274709699050000012875993897804887961_);" d="M742.3,520.7l20.7,15.4l20.8-15.4H742.3z
			"/>
		
			<linearGradient id="SVGID_00000084491828034686194370000004665864701473403544_" gradientUnits="userSpaceOnUse" x1="-38767.7188" y1="-120440.0781" x2="-37269.9844" y2="-120440.0781" gradientTransform="matrix(1.772698e-02 0 0 -1.772698e-02 1437.1385 -1606.6631)">
			<stop  offset="0" style="stop-color:#F8F6EF"/>
			<stop  offset="1" style="stop-color:#E7E4D6"/>
		</linearGradient>
		<path style="fill:url(#SVGID_00000084491828034686194370000004665864701473403544_);" d="M742.3,520.7l20.7,15.4l20.8-15.4H742.3z
			"/>
		<path style="fill:#F7F5ED;" d="M742.3,520.7l20.7,15.4l20.8-15.4H742.3z"/>
	</g>
	 <animateMotion dur="6.6s" repeatCount="indefinite" begin="2s">
                      <mpath xlink:href="#path2"></mpath>
                    </animateMotion>
</g>


<g id="mail">
	<g>
		
			<ellipse transform="matrix(0.1602 -0.9871 0.9871 0.1602 111.1481 1204.5294)" style="fill:#F6F5F8;stroke:#000000;stroke-width:2;stroke-miterlimit:10;" cx="763.5" cy="536.9" rx="41.1" ry="41.1"/>
		<path style="opacity:0.31;fill:#CCCCCC;enable-background:new    ;" d="M767.6,568.9c-20.6,0-37.2-16.8-37.2-37.2
			c0-6.8,1.8-13.1,4.8-18.5c-6.1,6.6-9.8,15.4-9.8,25.1c0,20.6,16.8,37.2,37.2,37.2c13.8,0,26-7.5,32.4-18.9
			C788.3,564.2,778.5,568.9,767.6,568.9z"/>
	</g>
	<g>
		<g>
			<path style="fill:#40B2E1;" d="M744.4,522.2c0.7-0.1,1.1-0.2,1.7-0.2c12.3,0,24.4,0,36.7,0c0.5,0,0.9,0.1,1.5,0.2
				c0.1,0.1,0.1,0.2,0.2,0.3c-0.2,0.1-0.5,0.1-0.7,0.3c-5.9,5.2-11.7,10.2-17.6,15.4c-1.4,1.2-2.1,1.2-3.5,0
				c-5.9-5.2-11.6-10.2-17.6-15.3C744.9,522.8,744.8,522.5,744.4,522.2z"/>
			<path style="fill:#40B2E1;" d="M744.3,551.6c5.2-4.6,10.2-9,15.3-13.4c0.7,0.6,1.2,1.1,1.9,1.7c1.8,1.6,3.7,1.6,5.5,0
				c0.7-0.6,1.2-1.1,1.9-1.7c5.1,4.4,10.1,8.9,15.3,13.4c-0.7,0.1-1.1,0.3-1.6,0.3c-12.3,0-24.5,0-36.8,0
				C745.4,551.9,745.1,551.7,744.3,551.6z"/>
			<path style="fill:#40B2E1;" d="M770.4,536.9c5.1-4.5,10.1-8.9,15.3-13.4c0.1,0.7,0.5,1.2,0.5,1.9c0,7.8,0,15.4,0,23.2
				c0,0.6-0.2,1.1-0.5,1.9C780.6,545.8,775.5,541.3,770.4,536.9z"/>
			<path style="fill:#40B2E1;" d="M758.3,536.9c-5.2,4.5-10.1,8.9-15.3,13.5c-0.1-0.8-0.3-1.4-0.5-2c0-7.7,0-15.3,0-23
				c0-0.6,0.2-1.2,0.3-2C748.1,528.1,753.2,532.4,758.3,536.9z"/>
		</g>
	</g>
	
	 <animateMotion dur="6.6s" repeatCount="indefinite" begin="1.5s">
                      <mpath xlink:href="#path2"></mpath>
                    </animateMotion>
</g>

<g id="slack">
<g>
		<circle style="fill:#F6F5F8;stroke:#000000;stroke-width:2;stroke-miterlimit:10;" cx="763.6" cy="536.7" r="40.6"/>
		<path style="opacity:0.31;fill:#CCCCCC;enable-background:new    ;" d="M767.7,568.3c-20.4,0-36.9-16.5-36.9-36.9
			c0-6.7,1.7-12.9,4.8-18.2c-6,6.5-9.7,15.3-9.7,24.9c0,20.4,16.5,36.9,36.9,36.9c13.7,0,25.7-7.5,32.1-18.6
			C788.2,563.7,778.4,568.3,767.7,568.3z"/>
	</g>
	<g>
		<path style="fill:#E1185A;" d="M739.9,542.7c0.3,6.5,9.5,6.5,9.9,0v-4.9h-4.9C742.1,537.8,739.9,540,739.9,542.7z"/>
		<path style="fill:#2BB77D;" d="M769.4,535.3c2.7,0,4.9-2.2,4.9-4.9v-12.3c-0.3-6.5-9.5-6.5-9.9,0v12.2
			C764.5,533.1,766.7,535.3,769.4,535.3z"/>
		<path style="fill:#E1185A;" d="M757.1,537.8c-2.7,0-4.9,2.2-4.9,4.9V555c0.3,6.5,9.5,6.5,9.9,0v-12.3
			C762,540,759.8,537.8,757.1,537.8z"/>
		<path style="fill:#2BB77D;" d="M786.6,530.4c-0.3-6.5-9.5-6.5-9.9,0v4.9h4.9C784.4,535.3,786.6,533.1,786.6,530.4z"/>
		<path style="fill:#33C6F1;" d="M744.8,535.3h12.3c6.5-0.3,6.5-9.5,0-9.9h-12.3C738.3,525.8,738.3,535,744.8,535.3z"/>
		<path style="fill:#EDB429;" d="M769.4,550.1h-4.9v4.9c0,2.7,2.2,4.9,4.9,4.9C775.9,559.7,775.9,550.4,769.4,550.1z"/>
		<path style="fill:#EDB429;" d="M781.7,537.8h-12.3c-6.5,0.3-6.5,9.5,0,9.9h12.3C788.2,547.4,788.2,538.1,781.7,537.8z"/>
		<path style="fill:#33C6F1;" d="M757.1,513.2c-6.5,0.3-6.5,9.5,0,9.8h4.9v-4.9C762,515.4,759.8,513.2,757.1,513.2z"/>
	</g>
	
	 <animateMotion dur="6.6s" repeatCount="indefinite" begin="1s">
                      <mpath xlink:href="#path2"></mpath>
                    </animateMotion>
</g>





<g id="sales">
	<g>
		<circle style="fill:#F6F5F8;stroke:#000000;stroke-width:2;stroke-miterlimit:10;" cx="763.6" cy="536.5" r="40.6"/>
		<path style="opacity:0.31;fill:#CCCCCC;enable-background:new    ;" d="M767.8,568.1c-20.4,0-36.9-16.5-36.9-36.9
			c0-6.6,1.7-12.9,4.7-18.2c-6.1,6.5-9.8,15.3-9.8,24.9c0,20.4,16.5,36.9,36.9,36.9c13.7,0,25.7-7.4,32.1-18.6
			C788.2,563.4,778.5,568.1,767.8,568.1z"/>
	</g>
	<g>
		<path style="fill:#00A1E0;" d="M760.2,522.5c1.5-1.6,3.7-2.8,6.2-2.8c3.2,0,5.9,1.7,7.4,4.4c1.2-0.5,2.8-0.9,4.3-0.9
			c5.7,0,10.5,4.6,10.5,10.6c0,5.7-4.6,10.6-10.5,10.6c-0.6,0-1.4-0.1-2-0.1c-1.4,2.4-3.8,3.9-6.6,3.9c-1.1,0-2.4-0.2-3.3-0.7
			c-1.4,3-4.4,5.2-7.9,5.2c-3.7,0-6.9-2.4-8.2-5.6c-0.5,0.1-1.1,0.1-1.6,0.1c-4.5,0-8.1-3.6-8.1-8.2c0-3,1.6-5.6,4-7.1
			c-0.4-1.1-0.7-2.4-0.7-3.7c0-5.2,4.3-9.5,9.5-9.5C755.5,518.8,758.3,520.2,760.2,522.5"/>
		<path style="fill:#FFFFFF;" d="M747,536.4l0.1-0.5c0-0.1,0.1-0.1,0.1,0l0.1,0.1c0.5,0.3,1.1,0.3,1.2,0.3c0.3,0,0.6-0.1,0.6-0.5
			l0,0c0-0.2-0.3-0.4-0.9-0.5h-0.1c-0.6-0.1-1.4-0.4-1.4-1.2l0,0c0-0.7,0.6-1.4,1.5-1.4h0.1c0.5,0,1.1,0.1,1.4,0.3l0.1,0.1l-0.1,0.5
			c0,0.1-0.1,0-0.1,0c-0.2-0.1-0.9-0.2-1.2-0.2c-0.3,0-0.6,0.1-0.6,0.4l0,0c0,0.2,0.3,0.4,1,0.5h0.1c0.6,0.1,1.4,0.4,1.4,1.2l0,0
			c0,0.9-0.5,1.4-1.6,1.4c-0.4,0-1-0.1-1.4-0.2C747.3,536.5,747.1,536.5,747,536.4C747,536.5,747,536.4,747,536.4L747,536.4z
			 M761.5,536.4l0.1-0.5c0-0.1,0.1-0.1,0.1,0l0.1,0.1c0.5,0.3,1.1,0.3,1.2,0.3c0.3,0,0.6-0.1,0.6-0.5l0,0c0-0.2-0.3-0.4-0.9-0.5
			h-0.1c-0.6-0.1-1.4-0.4-1.4-1.2l0,0c0-0.7,0.6-1.4,1.5-1.4h0.1c0.5,0,1.1,0.1,1.4,0.3l0.1,0.1l-0.1,0.5c0,0.1-0.1,0-0.1,0
			c-0.2-0.1-0.9-0.2-1.2-0.2c-0.3,0-0.6,0.1-0.6,0.4l0,0c0,0.2,0.3,0.4,1,0.5h0.1c0.6,0.1,1.4,0.4,1.4,1.2l0,0
			c0,0.9-0.5,1.4-1.6,1.4c-0.4,0-1-0.1-1.4-0.2C761.8,536.5,761.8,536.5,761.5,536.4C761.6,536.5,761.5,536.4,761.5,536.4
			L761.5,536.4z M772.1,533.7c0.1,0.2,0.1,0.5,0.1,0.9c0,0.2,0,0.5-0.1,0.9c-0.1,0.2-0.1,0.4-0.3,0.6c-0.1,0.1-0.3,0.3-0.6,0.4
			c-0.2,0.1-0.5,0.1-0.9,0.1c-0.2,0-0.6-0.1-0.9-0.1c-0.2-0.1-0.4-0.2-0.6-0.4c-0.1-0.2-0.2-0.4-0.3-0.6c-0.1-0.1-0.1-0.5-0.1-0.9
			c0-0.2,0-0.5,0.1-0.9c0.1-0.2,0.1-0.4,0.3-0.6c0.1-0.1,0.3-0.3,0.6-0.4c0.2-0.1,0.5-0.1,0.9-0.1c0.2,0,0.6,0.1,0.9,0.1
			c0.2,0.1,0.4,0.2,0.6,0.4C772,533.4,772.1,533.5,772.1,533.7z M771.5,534.6c0-0.4-0.1-0.9-0.2-1.1c-0.1-0.2-0.4-0.3-0.7-0.3
			s-0.6,0.1-0.7,0.3s-0.2,0.6-0.2,1.1c0,0.4,0.1,0.9,0.2,1.1c0.1,0.2,0.3,0.3,0.7,0.3c0.3,0,0.6-0.1,0.7-0.3
			S771.5,535.2,771.5,534.6z M779.1,536.2l0.1,0.5c0,0.1,0,0.1,0,0.1c-0.2,0.1-0.7,0.1-1.1,0.1c-0.6,0-1.2-0.1-1.6-0.5
			c-0.3-0.3-0.5-1-0.5-1.6c0-0.2,0-0.5,0.1-0.9c0.1-0.2,0.1-0.4,0.3-0.6c0.1-0.1,0.3-0.3,0.6-0.4c0.2-0.1,0.5-0.1,1-0.1
			c0.1,0,0.3,0,0.5,0c0.1,0,0.4,0.1,0.5,0.1c0,0,0.1,0,0.1,0.1l-0.1,0.5c0,0.1-0.1,0.1-0.1,0.1c-0.2-0.1-0.5-0.1-0.9-0.1
			c-0.4,0-0.6,0.1-1,0.3c-0.1,0.2-0.2,0.5-0.2,1.1c0,0.4,0.1,0.9,0.3,1.1c0.2,0.2,0.5,0.3,1,0.3c0.1,0,0.2,0,0.4,0
			C778.8,536.2,778.8,536.1,779.1,536.2C779,536.1,779.1,536.1,779.1,536.2L779.1,536.2z M783.3,533.6c0.1,0.6,0.1,1.1,0.1,1.2
			s-0.1,0.1-0.1,0.1h-2.8c0,0.3,0.1,0.6,0.2,1c0.1,0.1,0.4,0.2,1,0.2c0.6,0,1-0.1,1.1-0.1c0,0,0.1,0,0.1,0.1l0.1,0.4
			c0,0.1,0,0.1,0,0.1c-0.1,0.1-0.5,0.2-1.4,0.2c-0.3,0-0.7-0.1-1.1-0.1s-0.4-0.2-0.6-0.4c-0.1-0.2-0.2-0.4-0.3-0.6s-0.1-0.5-0.1-0.9
			c0-0.2,0-0.5,0.1-0.9c0.1-0.2,0.1-0.4,0.3-0.6c0.2-0.2,0.3-0.3,0.6-0.4c0.2-0.1,0.5-0.1,1-0.1c0.2,0,0.5,0.1,0.7,0.1
			c0.1,0.1,0.3,0.1,0.5,0.3C783.2,533.1,783.3,533.5,783.3,533.6L783.3,533.6z M780.5,534.1h2c0-0.2-0.1-0.4-0.1-0.6
			c-0.1-0.2-0.3-0.3-0.7-0.3c-0.4,0-0.6,0.1-0.7,0.3C780.6,533.7,780.6,534,780.5,534.1L780.5,534.1z M760.7,533.6
			c0.1,0.6,0.1,1.1,0.1,1.2s-0.1,0.1-0.1,0.1h-2.8c0,0.3,0.1,0.6,0.2,1c0.1,0.1,0.4,0.2,1,0.2c0.6,0,1-0.1,1.1-0.1
			c0,0,0.1,0,0.1,0.1l0.1,0.4c0,0.1,0,0.1,0,0.1c-0.1,0.1-0.5,0.2-1.4,0.2c-0.3,0-0.7-0.1-1.1-0.1s-0.4-0.2-0.6-0.4
			c-0.1-0.2-0.2-0.4-0.3-0.6s-0.1-0.5-0.1-0.9c0-0.2,0-0.5,0.1-0.9c0.1-0.2,0.1-0.4,0.3-0.6c0.1-0.1,0.3-0.3,0.6-0.4
			c0.3-0.1,0.5-0.1,1-0.1c0.2,0,0.5,0.1,0.7,0.1c0.1,0.1,0.3,0.1,0.5,0.3C760.6,533.1,760.7,533.5,760.7,533.6L760.7,533.6z
			 M758,534.1h2c0-0.2-0.1-0.4-0.1-0.6c-0.1-0.2-0.3-0.3-0.7-0.3s-0.6,0.1-0.7,0.3C758.1,533.7,758.1,534,758,534.1z M753.2,534
			l0.4,0.1V534c0-0.3-0.1-0.5-0.1-0.6c-0.1-0.1-0.3-0.1-0.6-0.1c0,0-0.6,0-1.2,0.2l0,0h-0.1l-0.1-0.5c0-0.1,0-0.1,0-0.1
			c0.2-0.1,0.9-0.2,0.9-0.2c0.1,0,0.5-0.1,0.7-0.1c0.5,0,1,0.1,1.2,0.3s0.4,0.6,0.4,1.2v2.7c0,0,0,0.1-0.1,0.1c0,0-0.1,0-0.1,0.1
			l-0.6,0.1c-0.2,0.1-0.5,0.1-0.9,0.1c-0.2,0-0.4,0-0.7-0.1c-0.1-0.1-0.3-0.1-0.5-0.2c-0.1-0.1-0.2-0.2-0.3-0.4
			c-0.1-0.2-0.1-0.3-0.1-0.6c0-0.2,0.1-0.4,0.1-0.6c0-0.2,0.2-0.2,0.3-0.4c0.1-0.1,0.3-0.1,0.5-0.2c0.1-0.1,0.4-0.1,0.6-0.1
			L753.2,534L753.2,534z M752,536.1c0,0,0.2,0.1,0.9,0.1c0.3,0,0.7-0.1,0.7-0.1v-1.2c0,0-0.3-0.1-0.7-0.1c-0.5,0-0.9,0.1-0.9,0.1
			c-0.1,0.1-0.2,0.2-0.2,0.5c0,0.1,0,0.2,0.1,0.3C751.9,536,751.9,536.1,752,536.1z M775.6,532.6c0,0.1-0.1,0.4-0.1,0.5
			c0,0.1-0.1,0.1-0.1,0.1s-0.1,0-0.2,0c-0.1,0-0.2,0-0.3,0.1c-0.1,0-0.2,0.1-0.3,0.1s-0.1,0.2-0.2,0.3c-0.1,0.1-0.1,0.4-0.1,0.7v2.1
			c0,0.1,0,0.1-0.1,0.1h-0.7c-0.1,0-0.1,0-0.1-0.1v-4.3c0-0.1,0-0.1,0.1-0.1h0.6c0.1,0,0.1,0,0.1,0.1v0.2c0.1-0.1,0.2-0.2,0.4-0.3
			c0.1-0.1,0.3-0.1,0.6-0.1c0.1,0,0.3,0.1,0.4,0.1C775.6,532.5,775.6,532.5,775.6,532.6L775.6,532.6z M768.8,530.7
			C768.9,530.7,768.9,530.7,768.8,530.7l-0.1,0.6c0,0,0,0.1-0.1,0h-0.1h-0.1c-0.1,0-0.1,0-0.2,0c-0.1,0-0.1,0.1-0.2,0.1
			c-0.1,0.1-0.1,0.1-0.1,0.2c-0.1,0.2-0.1,0.5-0.1,0.6h0.9c0.1,0,0.1,0,0.1,0.1l-0.1,0.5c0,0.1-0.1,0.1-0.1,0.1h-1l-0.5,3.5
			c-0.1,0.3-0.1,0.6-0.2,1c-0.1,0.2-0.1,0.4-0.3,0.6c-0.1,0.1-0.2,0.2-0.4,0.3c-0.1,0.1-0.3,0.1-0.6,0.1c-0.1,0-0.2,0-0.3,0
			s-0.1,0-0.2-0.1c0,0-0.1-0.1,0-0.1l0.1-0.5c0-0.1,0.1,0,0.1,0l0.1,0.1c0.1,0,0.1,0,0.1,0c0.1,0,0.2,0,0.2-0.1
			c0.1,0,0.1-0.1,0.2-0.1c0.1-0.1,0.1-0.1,0.1-0.3s0.1-0.4,0.1-0.6l0.6-3.5h-0.5c-0.1,0-0.1,0-0.1-0.1l0.1-0.5
			c0-0.1,0.1-0.1,0.1-0.1h0.6v-0.1c0.1-0.5,0.2-1,0.5-1.2s0.6-0.3,1.1-0.3c0.1,0,0.2,0,0.3,0C768.6,530.6,768.8,530.6,768.8,530.7
			L768.8,530.7z M756.3,536.9C756.3,536.9,756.2,536.9,756.3,536.9l-0.9,0.1c-0.1,0-0.1,0-0.1-0.1V531c0,0,0-0.1,0.1-0.1h0.7
			c0.1,0,0.1,0,0.1,0.1v5.9H756.3z"/>
	</g>
		 <animateMotion dur="6.6s" repeatCount="indefinite" begin=".5s">
                      <mpath xlink:href="#path2"></mpath>
                    </animateMotion>
</g>
</svg>
