<?xml version="1.0" encoding="utf-8"?>
<!-- Generator: Adobe Illustrator 27.1.1, SVG Export Plug-In . SVG Version: 6.00 Build 0)  -->
<svg version="1.1" id="Layer_1" xmlns="http://www.w3.org/2000/svg" xmlns:xlink="http://www.w3.org/1999/xlink" x="0px" y="0px"
	 viewBox="0 0 1265 951" style="enable-background:new 0 0 1265 951;" xml:space="preserve">
	 	 <style>


	#slack, #linkedin, #zoom, #zen, #mail, #sales, #gmail, #hubspot{
	animation:float 4s linear infinite;
	
	
}


#line1,#line,  #line2, #line3, #line4, #line5, #line6, #line7, #line8{
	fill:none;
	stroke:#000000;
	stroke-width:3;
	stroke-miterlimit:10;
 stroke-linecap: round;
  stroke-dasharray: 0.5 9.5;
	  animation: animate-up 400ms linear infinite, float 4s linear infinite;

}



	 @keyframes float {
	0% {
		transform: translatey(0px);
	}
	50% {
		transform: translatey(-10px);
	}
	100% {
		transform: translatey(0px);
	}
}


@keyframes animate-down {
  to {
    stroke-dashoffset: 10;
  }
}
@-webkit-keyframes animate-down {
  to {
    stroke-dashoffset: 10;
  }
}

@keyframes animate-up {
  to {
    stroke-dashoffset: -10;
  }
}
@-webkit-keyframes animate-up {
  to {
    stroke-dashoffset: -10;
  }
}


	 </style>
<g id="f1_00000132075173368852946120000008528519178516690313_" style="display:none;">
	
		<linearGradient id="SVGID_1_" gradientUnits="userSpaceOnUse" x1="1067.4434" y1="1077.7932" x2="1106.1909" y2="1077.7932" gradientTransform="matrix(1 0 0 -1 0 1560)">
		<stop  offset="0" style="stop-color:#FFCC99"/>
		<stop  offset="1" style="stop-color:#FF9999"/>
	</linearGradient>
	<path style="display:inline;fill:url(#SVGID_1_);stroke:#000000;stroke-width:2;stroke-miterlimit:10;" d="M1067.4,486.8
		c0,0,3.4-16.5,9.4-17.2c17.3,1.1,29.3,12.2,29.3,12.2s-17.4,15.6-22.5,12.6C1078.5,491.4,1067.4,486.8,1067.4,486.8z"/>
	
		<linearGradient id="SVGID_00000088821549745734879270000008338050640849792165_" gradientUnits="userSpaceOnUse" x1="1082.0538" y1="480.1874" x2="1102.3256" y2="480.1874">
		<stop  offset="0" style="stop-color:#FFCC99"/>
		<stop  offset="1" style="stop-color:#FF9999"/>
	</linearGradient>
	
		<path style="display:inline;fill:url(#SVGID_00000088821549745734879270000008338050640849792165_);stroke:#000000;stroke-width:2;stroke-linecap:round;stroke-miterlimit:10;" d="
		M1082,475.7c0,0,10.3,2.8,20.3,8.9"/>
	
		<linearGradient id="SVGID_00000102546382748713814410000012370605557499438763_" gradientUnits="userSpaceOnUse" x1="1079.2526" y1="485.7796" x2="1094.9807" y2="485.7796">
		<stop  offset="0" style="stop-color:#FFCC99"/>
		<stop  offset="1" style="stop-color:#FF9999"/>
	</linearGradient>
	
		<path style="display:inline;fill:url(#SVGID_00000102546382748713814410000012370605557499438763_);stroke:#000000;stroke-width:2;stroke-linecap:round;stroke-miterlimit:10;" d="
		M1079.2,481.8c0,0,8.9,2.6,15.7,7.9"/>
</g>
<g id="lines">
	<line id="line"  x1="306.1" y1="110" x2="526.3" y2="110"/>
	
		<line id="line1" x1="133.1" y1="241.4" x2="495.9" y2="241.4"/>
	
		<line id="line2"  x1="236.9" y1="365.6" x2="599.7" y2="365.6"/>
	
		<line id="line3"  x1="124.7" y1="481.5" x2="487.5" y2="481.5"/>
	
		<line id="line4"  x1="234.8" y1="585.3" x2="597.6" y2="585.3"/>
	
		<line id="line5"  x1="295.6" y1="806.5" x2="658.4" y2="806.5"/>
	
		<line id="line6"  x1="137.3" y1="695.4" x2="500.1" y2="695.4"/>
</g>
<g id="plaque">
	<polygon style="fill:#F6F5F8;stroke:#000000;stroke-width:2;stroke-miterlimit:10;" points="476.3,856.9 470.3,57.3 910.9,96.7 
		902.2,856.9 	"/>
	<g>
		<g>
			<path style="fill:#5F9CFF;" d="M534.7,160.3l-7.2,14.6h-3.6l-7.2-14.6v16.9h-6v-26.8h8.1l6.9,14.7l6.9-14.7h8v26.8h-6
				L534.7,160.3L534.7,160.3z"/>
			<path style="fill:#5F9CFF;" d="M566.6,150.4v5.3h-13.3v5.5h12v5.1h-12v5.6H567v5.3h-19.7v-26.8L566.6,150.4L566.6,150.4z"/>
			<path style="fill:#5F9CFF;" d="M591.6,150.4v5.3h-13.3v5.5h12v5.1h-12v5.6h13.8v5.3h-19.7v-26.8L591.6,150.4L591.6,150.4z"/>
			<path style="fill:#5F9CFF;" d="M608.7,155.6v21.6h-6v-21.6h-7.6v-5.2h21.2v5.2H608.7z"/>
			<path style="fill:#5F9CFF;" d="M620.7,150.4h6v26.8h-6V150.4z"/>
			<path style="fill:#5F9CFF;" d="M652,150.4h6v26.8h-6l-12.8-16.8v16.8h-6v-26.8h5.6l13.1,17.2v-17.2H652z"/>
			<path style="fill:#5F9CFF;" d="M682,163.5h6v9.5c-2.7,3-6.3,4.4-11,4.4c-3.9,0-7.2-1.3-9.9-3.9c-2.7-2.6-4-5.9-4-9.9
				s1.4-7.3,4.1-9.9c2.7-2.7,6-4,9.8-4s7.2,1.3,10,3.8l-3.1,4.5c-1.2-1-2.3-1.8-3.3-2.2s-2.1-0.6-3.3-0.6c-2.3,0-4.2,0.8-5.7,2.3
				s-2.3,3.6-2.3,6.1s0.7,4.6,2.2,6.1s3.3,2.3,5.3,2.3c2.1,0,3.8-0.4,5.2-1.2V163.5z"/>
			<path style="fill:#5F9CFF;" d="M715.1,177.2h-11.7v-26.8h10.4c1.8,0,3.4,0.2,4.7,0.7c1.3,0.4,2.3,1,3,1.8
				c1.2,1.4,1.8,2.9,1.8,4.7c0,2.1-0.7,3.7-2,4.7c-0.5,0.4-0.8,0.6-1,0.7c-0.2,0.1-0.5,0.2-1,0.4c1.7,0.4,3,1.1,4,2.2
				c1,1.1,1.5,2.5,1.5,4.2c0,1.9-0.6,3.5-1.9,4.9C721.4,176.4,718.8,177.2,715.1,177.2z M709.4,161.2h2.8c1.7,0,2.9-0.2,3.7-0.5
				c0.8-0.4,1.2-1.1,1.2-2.3s-0.4-2-1.1-2.4c-0.7-0.4-2-0.6-3.8-0.6h-2.9L709.4,161.2L709.4,161.2z M709.4,172.1h4.1
				c1.7,0,3-0.2,3.8-0.6c0.9-0.4,1.3-1.3,1.3-2.5s-0.5-2.1-1.4-2.5s-2.4-0.6-4.4-0.6h-3.5v6.2L709.4,172.1L709.4,172.1z"/>
			<path style="fill:#5F9CFF;" d="M752.3,173.5c-2.7,2.6-6,4-10,4s-7.3-1.3-10-4c-2.7-2.6-4.1-5.9-4.1-9.9c0-3.9,1.4-7.2,4.1-9.9
				c2.7-2.6,6-4,10-4s7.3,1.3,10,4c2.7,2.6,4.1,5.9,4.1,9.9C756.4,167.5,755.1,170.8,752.3,173.5z M750.3,163.6
				c0-2.4-0.8-4.4-2.3-6.1c-1.5-1.7-3.4-2.5-5.7-2.5s-4.1,0.8-5.7,2.5c-1.5,1.7-2.3,3.7-2.3,6.1c0,2.4,0.8,4.4,2.3,6.1
				c1.5,1.7,3.4,2.5,5.7,2.5s4.1-0.8,5.7-2.5C749.6,168.1,750.3,166,750.3,163.6z"/>
			<path style="fill:#5F9CFF;" d="M784,173.5c-2.7,2.6-6,4-10,4s-7.3-1.3-10-4c-2.7-2.6-4.1-5.9-4.1-9.9c0-3.9,1.4-7.2,4.1-9.9
				c2.7-2.6,6-4,10-4s7.3,1.3,10,4c2.7,2.6,4.1,5.9,4.1,9.9C788.1,167.5,786.7,170.8,784,173.5z M782,163.6c0-2.4-0.8-4.4-2.3-6.1
				c-1.5-1.7-3.4-2.5-5.7-2.5s-4.1,0.8-5.7,2.5c-1.5,1.7-2.3,3.7-2.3,6.1c0,2.4,0.8,4.4,2.3,6.1c1.5,1.7,3.4,2.5,5.7,2.5
				s4.1-0.8,5.7-2.5C781.2,168.1,782,166,782,163.6z"/>
			<path style="fill:#5F9CFF;" d="M793.1,150.4h6v11l10.1-11h7.4L806,162.2c0.9,1.3,2.6,3.7,5.1,7.1c2.5,3.5,4.3,6.1,5.6,7.8h-7
				l-7.9-10.6l-2.7,3v7.6h-6L793.1,150.4L793.1,150.4z"/>
			<path style="fill:#5F9CFF;" d="M820.3,177.2v-26.8h6v21.5h11.4v5.3H820.3z"/>
			<path style="fill:#5F9CFF;" d="M861.4,150.4v5.3h-13.3v5.5h12v5.1h-12v5.6h13.8v5.3h-19.7v-26.8L861.4,150.4L861.4,150.4z"/>
			<path style="fill:#5F9CFF;" d="M878.5,155.6v21.6h-6v-21.6h-7.6v-5.2h21.2v5.2H878.5z"/>
		</g>
	</g>
	<g>
		<path style="fill:#FCF0D1;" d="M517.5,298.8c0.5-1.6,0-42.9,0-42.9l53.8,3.7l-6.8,44.7L517.5,298.8z"/>
		<g>
			<path d="M558.7,272.7h-27.3c-1.1,0-2-0.9-2-2s0.9-2,2-2h27.3c1.1,0,2,0.9,2,2S559.8,272.7,558.7,272.7z"/>
		</g>
		<circle cx="525.6" cy="270.7" r="2.7"/>
		<g>
			<g>
				<path d="M595.7,272.4v20.3h-5.6v-20.3H583v-4.9h19.9v4.9H595.7z"/>
				<path d="M607,292.7v-25.2h5.6v20.2h10.7v5H607z"/>
				<path d="M628,292.3c-0.9-0.6-1.3-1.4-1.3-2.4s0.3-1.7,1-2.4c0.6-0.6,1.4-0.9,2.4-0.9c0.9,0,1.7,0.3,2.4,0.9s1,1.3,1,2.1
					c0,0.8-0.3,1.8-1,3l-2.2,3.7h-3.5L628,292.3z M627.6,282.6c-0.6-0.6-0.9-1.4-0.9-2.2s0.3-1.6,0.9-2.2s1.4-0.9,2.2-0.9
					c0.9,0,1.6,0.3,2.2,0.9s0.9,1.4,0.9,2.2s-0.3,1.6-0.9,2.2s-1.4,0.9-2.2,0.9S628.3,283.2,627.6,282.6z"/>
				<path d="M658,270.8c2.4,2.2,3.6,5.3,3.6,9.2c0,3.9-1.2,7-3.5,9.3s-5.9,3.4-10.7,3.4h-8.6v-25.2h8.9
					C652.1,267.5,655.6,268.6,658,270.8z M653.9,285.8c1.4-1.3,2.1-3.2,2.1-5.7s-0.7-4.4-2.1-5.7c-1.4-1.3-3.5-2-6.4-2h-3.1v15.3
					h3.6C650.5,287.7,652.5,287.1,653.9,285.8z"/>
				<path d="M686.9,275.9c0,4-1.6,6.6-4.8,7.8l6.4,9h-6.9l-5.6-8h-3.9v8h-5.6v-25.2h9.5c3.9,0,6.7,0.7,8.4,2
					C686,270.8,686.9,273,686.9,275.9z M680.1,278.9c0.7-0.6,1-1.6,1-3s-0.4-2.3-1.1-2.8s-2-0.8-3.8-0.8H672v7.5h4.1
					C678.1,279.8,679.4,279.5,680.1,278.9z"/>
			</g>
			<g>
				<path d="M558.7,292.1h-27.3c-1.1,0-2-0.9-2-2s0.9-2,2-2h27.3c1.1,0,2,0.9,2,2S559.8,292.1,558.7,292.1z"/>
			</g>
			<g>
				<path d="M558.7,282.4h-27.3c-1.1,0-2-0.9-2-2s0.9-2,2-2h27.3c1.1,0,2,0.9,2,2S559.8,282.4,558.7,282.4z"/>
			</g>
			<circle cx="525.6" cy="280.4" r="2.7"/>
			<circle cx="525.6" cy="290.8" r="2.7"/>
		</g>
		
			<line style="fill:none;stroke:#D5D8DD;stroke-width:6;stroke-linecap:round;stroke-miterlimit:10;" x1="590.1" y1="323.3" x2="874" y2="323.3"/>
		
			<line style="fill:none;stroke:#D5D8DD;stroke-width:6;stroke-linecap:round;stroke-miterlimit:10;" x1="591.8" y1="339.8" x2="803" y2="339.8"/>
	</g>
	<g>
		
			<line style="fill:none;stroke:#D5D8DD;stroke-width:6;stroke-linecap:round;stroke-miterlimit:10;" x1="583.3" y1="673" x2="867.1" y2="673"/>
		
			<line style="fill:none;stroke:#D5D8DD;stroke-width:6;stroke-linecap:round;stroke-miterlimit:10;" x1="585" y1="689.6" x2="796.2" y2="689.6"/>
		<g>
			<path d="M604.9,620.9h5.6v25.2h-5.6l-12-15.8v15.8h-5.6v-25.2h5.3l12.3,16.2V620.9z"/>
			<path d="M628.6,637.2v-10.4h5.4v19.4h-5.4v-2.6c-1.3,1.9-3.1,2.8-5.2,2.8s-3.9-0.7-5.3-2s-2.2-3.3-2.2-5.9v-11.7h5.4v10.5
				c0,3,1.1,4.5,3.3,4.5c1.1,0,2-0.4,2.8-1.2C628.2,639.8,628.6,638.7,628.6,637.2z"/>
			<path d="M656.9,635.7v10.4h-5.4v-10.6c0-1.5-0.2-2.7-0.7-3.4s-1.2-1.1-2.3-1.1s-2,0.4-2.8,1.2s-1.2,1.9-1.2,3.4V646h-5.4v-19.4
				h5.4v2.2c1.5-1.7,3.2-2.5,5.1-2.5c1.2,0,2.3,0.4,3.3,1.1c1,0.7,1.7,1.6,2.2,2.6c0.7-1.2,1.7-2.1,3-2.7c1.3-0.6,2.5-1,3.8-1
				c2.3,0,4.1,0.7,5.5,2c1.4,1.4,2.1,3.3,2.1,5.9V646h-5.4v-10.6c0-3-1.1-4.5-3.3-4.5c-1.1,0-2,0.4-2.8,1.2S656.9,634.2,656.9,635.7
				z"/>
			<path d="M685.7,626.4c2.4,0,4.4,0.9,6.2,2.8s2.6,4.2,2.6,7.1s-0.9,5.3-2.7,7.2s-3.8,2.9-6.1,2.9s-4.2-0.9-5.7-2.8v2.6h-5.4v-26.7
				h5.4v9.5C681.4,627.2,683.4,626.4,685.7,626.4z M679.9,636.4c0,1.6,0.4,2.9,1.3,3.9c0.9,1,1.9,1.5,3.2,1.5s2.3-0.5,3.3-1.5
				c0.9-1,1.4-2.3,1.4-3.8c0-1.6-0.5-2.9-1.4-3.9c-0.9-1.1-2-1.6-3.3-1.6s-2.3,0.5-3.2,1.6C680.3,633.6,679.9,634.9,679.9,636.4z"/>
			<path d="M715.3,643.3c-2.2,2.1-4.7,3.1-7.7,3.1c-2.9,0-5.4-0.9-7.3-2.7c-1.9-1.8-2.9-4.2-2.9-7.3c0-3,1-5.5,2.9-7.3
				s4.3-2.7,6.9-2.7s4.9,0.8,6.8,2.4c1.9,1.6,2.8,3.8,2.8,6.6v2.9h-14.1c0.2,1.1,0.7,1.9,1.7,2.6c0.9,0.7,2,1,3.2,1
				c1.9,0,3.5-0.6,4.7-1.9L715.3,643.3z M710.1,631.8c-0.7-0.6-1.7-0.9-2.7-0.9s-2,0.3-2.9,1c-0.9,0.6-1.4,1.5-1.5,2.6h8.5
				C711.3,633.3,710.9,632.4,710.1,631.8z"/>
			<path d="M731,631.5c-1.6,0-2.8,0.6-3.6,1.7c-0.8,1.1-1.2,2.6-1.2,4.5v8.4h-5.4v-19.4h5.4v2.6c0.7-0.8,1.6-1.5,2.6-2
				c1-0.6,2.1-0.8,3.2-0.9v5.1L731,631.5L731,631.5z"/>
			<path d="M750,640.1c0,1.9-0.7,3.4-2.1,4.6c-1.4,1.2-3.2,1.7-5.3,1.7c-1.4,0-2.9-0.3-4.5-0.8s-3-1.3-4.2-2.3l2.4-3.4
				c2,1.6,4.2,2.3,6.4,2.3c0.7,0,1.2-0.1,1.7-0.4c0.4-0.3,0.6-0.6,0.6-1.1s-0.3-0.9-0.8-1.3c-0.6-0.4-1.4-0.7-2.4-1.1
				c-1.1-0.3-1.9-0.6-2.4-0.9c-0.6-0.2-1.2-0.6-1.9-1c-1.5-0.9-2.2-2.3-2.2-4s0.7-3.2,2.2-4.4c1.4-1.1,3.3-1.7,5.6-1.7
				s4.6,0.8,6.8,2.3l-2,3.6c-1.7-1.2-3.4-1.7-5-1.7c-1.7,0-2.5,0.5-2.5,1.4c0,0.5,0.3,0.9,0.8,1.2s1.4,0.6,2.6,1
				c1.2,0.4,2.1,0.7,2.6,0.9s1.1,0.5,1.9,1C749.3,636.8,750,638.2,750,640.1z"/>
		</g>
		<ellipse style="fill:#FCF0D1;" cx="542" cy="647.9" rx="15.6" ry="6.6"/>
		<g>
			<path d="M541.8,647.9l-0.8-1c-0.5-0.7-13.2-17.5-11.6-28.1c0.4-2.6,1.6-4.6,3.7-6.1c4.9-3.4,10.3-3.8,14.9-1.2
				c4.3,2.5,6.9,7.3,6.4,12.2c-0.8,9.4-11.4,22.5-11.9,23.1L541.8,647.9z M541.8,611.9c-2.5,0-5,0.9-7.4,2.5l0,0
				c-1.6,1.1-2.5,2.7-2.8,4.7c-1.3,8.3,7.7,21.7,10.4,25.5c2.5-3.3,10-13.6,10.6-21c0.4-4.1-1.8-8.2-5.4-10.3
				C545.4,612.4,543.6,611.9,541.8,611.9z M542,627.1c-3.1,0-5.6-2.5-5.6-5.6s2.5-5.6,5.6-5.6s5.6,2.5,5.6,5.6S545,627.1,542,627.1z
				 M542,617.9c-2,0-3.6,1.6-3.6,3.6s1.6,3.6,3.6,3.6s3.6-1.6,3.6-3.6S543.9,617.9,542,617.9z"/>
		</g>
	</g>
	<g>
		<g>
			<path d="M610,506.1c0,4-1.6,6.6-4.8,7.8l6.4,9h-6.9l-5.6-8h-3.9v8h-5.6v-25.2h9.5c3.9,0,6.7,0.7,8.4,2
				C609.2,501.1,610,503.2,610,506.1z M603.3,509.1c0.7-0.6,1-1.6,1-3s-0.4-2.3-1.1-2.8s-2-0.8-3.8-0.8h-4.2v7.5h4.1
				C601.3,510.1,602.6,509.8,603.3,509.1z"/>
			<path d="M615.5,501.1c-0.6-0.6-0.9-1.4-0.9-2.2c0-0.9,0.3-1.6,0.9-2.2c0.6-0.6,1.4-0.9,2.2-0.9s1.6,0.3,2.2,0.9
				c0.6,0.6,0.9,1.4,0.9,2.2c0,0.9-0.3,1.6-0.9,2.2c-0.6,0.6-1.4,0.9-2.2,0.9S616.1,501.7,615.5,501.1z M620.5,523h-5.4v-19.4h5.4
				V523z"/>
			<path d="M640.2,516.9c0,1.9-0.7,3.4-2.1,4.6c-1.4,1.2-3.2,1.7-5.3,1.7c-1.4,0-2.9-0.3-4.5-0.8s-3-1.3-4.2-2.3l2.4-3.4
				c2,1.6,4.2,2.3,6.4,2.3c0.7,0,1.2-0.1,1.7-0.4c0.4-0.3,0.6-0.6,0.6-1.1s-0.3-0.9-0.8-1.3c-0.6-0.4-1.4-0.7-2.4-1.1
				c-1.1-0.3-1.9-0.6-2.4-0.9c-0.6-0.2-1.2-0.6-1.9-1c-1.5-0.9-2.2-2.3-2.2-4c0-1.8,0.7-3.2,2.2-4.4c1.4-1.1,3.3-1.7,5.6-1.7
				s4.6,0.8,6.8,2.3l-2,3.6c-1.7-1.2-3.4-1.7-5-1.7c-1.7,0-2.5,0.5-2.5,1.4c0,0.5,0.3,0.9,0.8,1.2c0.5,0.3,1.4,0.6,2.6,1
				c1.2,0.4,2.1,0.7,2.6,0.9c0.5,0.2,1.1,0.5,1.9,1C639.5,513.7,640.2,515,640.2,516.9z"/>
			<path d="M649.7,523h-5.4v-26.7h5.4V510l6-6.4h6.8l-7.4,7.8l7.7,11.6h-6.4l-4.9-7.4l-1.8,1.8L649.7,523L649.7,523z"/>
			<path d="M679.9,516.9c0,1.9-0.7,3.4-2.1,4.6c-1.4,1.2-3.2,1.7-5.3,1.7c-1.4,0-2.9-0.3-4.5-0.8s-3-1.3-4.2-2.3l2.4-3.4
				c2,1.6,4.2,2.3,6.4,2.3c0.7,0,1.2-0.1,1.7-0.4c0.4-0.3,0.6-0.6,0.6-1.1s-0.3-0.9-0.8-1.3c-0.6-0.4-1.4-0.7-2.4-1.1
				c-1.1-0.3-1.9-0.6-2.4-0.9c-0.6-0.2-1.2-0.6-1.9-1c-1.5-0.9-2.2-2.3-2.2-4c0-1.8,0.7-3.2,2.2-4.4c1.4-1.1,3.3-1.7,5.6-1.7
				s4.6,0.8,6.8,2.3l-2,3.6c-1.7-1.2-3.4-1.7-5-1.7c-1.7,0-2.5,0.5-2.5,1.4c0,0.5,0.3,0.9,0.8,1.2c0.5,0.3,1.4,0.6,2.6,1
				c1.2,0.4,2.1,0.7,2.6,0.9c0.5,0.2,1.1,0.5,1.9,1C679.2,513.7,679.9,515,679.9,516.9z"/>
		</g>
		
			<line style="fill:none;stroke:#D5D8DD;stroke-width:6;stroke-linecap:round;stroke-miterlimit:10;" x1="581.7" y1="551" x2="865.6" y2="551"/>
		
			<line style="fill:none;stroke:#D5D8DD;stroke-width:6;stroke-linecap:round;stroke-miterlimit:10;" x1="583.4" y1="567.5" x2="794.6" y2="567.5"/>
		<polygon style="fill:#FCF0D1;" points="534.3,526.5 517.7,526.5 538.4,491.1 559.5,526.5 		"/>
		<g>
			<g>
				<path d="M554.8,522.6h-40.5l20.3-35.5L554.8,522.6z M517.7,520.6h33.6l-16.8-29.5L517.7,520.6z"/>
			</g>
			<g>
				<g>
					<rect x="533.1" y="498.1" width="2" height="14.4"/>
				</g>
			</g>
			<g>
				<g>
					<path d="M534.1,519.1c-1,0-1.9-0.8-1.9-1.9s0.8-1.9,1.9-1.9s1.9,0.8,1.9,1.9S535.2,519.1,534.1,519.1z M534.1,517.1
						C534,517.1,534,517.2,534.1,517.1c-0.1,0.2,0.2,0.2,0.2,0.1S534.2,517.1,534.1,517.1z"/>
				</g>
			</g>
		</g>
	</g>
	<g>
		<g>
			<path d="M601.3,409.1l-2.3-5.4h-10.5l-2.3,5.4h-6l10.9-25.2h5.4l10.9,25.2H601.3z M593.7,391.4l-3.2,7.3h6.3L593.7,391.4z"/>
			<path d="M618.9,404.6c1.8,0,3.4-0.9,4.9-2.7l3.2,3.6c-2.5,2.6-5.2,3.9-8.1,3.9c-2.9,0-5.4-0.9-7.4-2.8c-2-1.8-3-4.2-3-7.2
				s1-5.4,3-7.2c2-1.9,4.4-2.8,7.2-2.8c1.4,0,2.8,0.3,4.2,0.9s2.7,1.4,3.8,2.6l-2.8,3.7c-0.6-0.7-1.4-1.3-2.3-1.7
				c-0.9-0.4-1.8-0.6-2.7-0.6c-1.4,0-2.6,0.5-3.7,1.4c-1,0.9-1.5,2.2-1.5,3.9c0,1.6,0.5,2.9,1.5,3.8
				C616.3,404.1,617.5,404.6,618.9,404.6z"/>
			<path d="M637,393.6v8.7c0,0.7,0.2,1.3,0.6,1.7c0.4,0.4,0.8,0.6,1.4,0.6c1,0,1.9-0.5,2.6-1.4l2,3.8c-1.7,1.5-3.5,2.3-5.3,2.3
				c-1.9,0-3.4-0.6-4.7-1.8c-1.3-1.2-1.9-2.9-1.9-5v-8.9h-2.3v-3.9h2.3v-5.8h5.4v5.8h4.7v3.9L637,393.6L637,393.6z"/>
			<path d="M646.9,387.2c-0.6-0.6-0.9-1.4-0.9-2.2c0-0.9,0.3-1.6,0.9-2.2s1.4-0.9,2.2-0.9s1.6,0.3,2.2,0.9s0.9,1.4,0.9,2.2
				c0,0.9-0.3,1.6-0.9,2.2s-1.4,0.9-2.2,0.9S647.5,387.8,646.9,387.2z M651.8,409.1h-5.4v-19.4h5.4V409.1z"/>
			<path d="M676.3,399.4c0,2.8-1,5.2-2.9,7.1s-4.4,2.9-7.3,2.9c-2.9,0-5.4-1-7.3-2.9c-1.9-1.9-2.9-4.3-2.9-7.1c0-2.8,1-5.2,2.9-7.1
				s4.4-2.9,7.3-2.9c2.9,0,5.4,1,7.3,2.9C675.3,394.2,676.3,396.6,676.3,399.4z M661.2,399.4c0,1.6,0.5,2.9,1.3,3.9
				c0.9,1,2.1,1.5,3.5,1.5s2.6-0.5,3.5-1.5s1.4-2.3,1.4-3.9s-0.5-2.9-1.4-3.9s-2.1-1.5-3.5-1.5s-2.6,0.5-3.5,1.5
				C661.7,396.5,661.2,397.8,661.2,399.4z"/>
			<path d="M685.7,398.3v10.8h-5.4v-19.4h5.4v2.2c1.6-1.7,3.5-2.5,5.5-2.5s3.8,0.7,5.1,2.2s2.1,3.4,2.1,5.8v11.8H693v-10.9
				c0-3-1.1-4.5-3.3-4.5c-1.1,0-2,0.4-2.8,1.2C686.1,395.6,685.7,396.7,685.7,398.3z"/>
			<path d="M713.3,383.9h5.6v25.2h-5.6V383.9z"/>
			<path d="M730.7,393.6v8.7c0,0.7,0.2,1.3,0.6,1.7c0.4,0.4,0.8,0.6,1.4,0.6c1,0,1.9-0.5,2.6-1.4l2,3.8c-1.7,1.5-3.5,2.3-5.3,2.3
				c-1.9,0-3.4-0.6-4.7-1.8c-1.3-1.2-1.9-2.9-1.9-5v-8.9H723v-3.9h2.3v-5.8h5.4v5.8h4.7v3.9L730.7,393.6L730.7,393.6z"/>
			<path d="M756.9,406.2c-2.2,2.1-4.7,3.1-7.7,3.1c-2.9,0-5.4-0.9-7.3-2.7c-1.9-1.8-2.9-4.2-2.9-7.3c0-3,1-5.5,2.9-7.3
				c2-1.8,4.3-2.7,6.9-2.7s4.9,0.8,6.8,2.4c1.9,1.6,2.8,3.8,2.8,6.6v2.9h-14.1c0.2,1.1,0.7,1.9,1.7,2.6c0.9,0.7,2,1,3.2,1
				c1.9,0,3.5-0.6,4.7-1.9L756.9,406.2z M751.7,394.8c-0.7-0.6-1.7-0.9-2.7-0.9s-2,0.3-2.9,1c-0.9,0.6-1.4,1.5-1.5,2.6h8.5
				C752.9,396.3,752.5,395.4,751.7,394.8z"/>
			<path d="M780.1,398.6V409h-5.4v-10.6c0-1.5-0.2-2.7-0.7-3.4s-1.2-1.1-2.3-1.1s-2,0.4-2.8,1.2c-0.8,0.8-1.2,1.9-1.2,3.4v10.4h-5.4
				v-19.4h5.4v2.2c1.5-1.7,3.2-2.5,5.1-2.5c1.2,0,2.3,0.4,3.3,1.1s1.7,1.6,2.2,2.6c0.7-1.2,1.7-2.1,3-2.7s2.5-1,3.8-1
				c2.3,0,4.1,0.7,5.5,2c1.4,1.4,2.1,3.3,2.1,5.9v11.8h-5.4v-10.6c0-3-1.1-4.5-3.3-4.5c-1.1,0-2,0.4-2.8,1.2
				S780.1,397.1,780.1,398.6z"/>
			<path d="M812.3,403c0,1.9-0.7,3.4-2.1,4.6c-1.4,1.2-3.2,1.7-5.3,1.7c-1.4,0-2.9-0.3-4.5-0.8s-3-1.3-4.2-2.3l2.4-3.4
				c2,1.6,4.2,2.3,6.4,2.3c0.7,0,1.2-0.1,1.7-0.4c0.4-0.3,0.6-0.6,0.6-1.1s-0.3-0.9-0.8-1.3c-0.6-0.4-1.4-0.7-2.4-1.1
				c-1.1-0.3-1.9-0.6-2.4-0.9c-0.6-0.2-1.2-0.6-1.9-1c-1.5-0.9-2.2-2.3-2.2-4s0.7-3.2,2.2-4.4c1.4-1.1,3.3-1.7,5.6-1.7
				s4.6,0.8,6.8,2.3l-2,3.6c-1.7-1.2-3.4-1.7-5-1.7c-1.7,0-2.5,0.5-2.5,1.4c0,0.5,0.3,0.9,0.8,1.2c0.5,0.3,1.4,0.6,2.6,1
				c1.2,0.4,2.1,0.7,2.6,0.9c0.5,0.2,1.1,0.5,1.9,1C811.7,399.8,812.3,401.1,812.3,403z"/>
		</g>
		
			<line style="fill:none;stroke:#D5D8DD;stroke-width:6;stroke-linecap:round;stroke-miterlimit:10;" x1="582.8" y1="437.1" x2="866.7" y2="437.1"/>
		
			<line style="fill:none;stroke:#D5D8DD;stroke-width:6;stroke-linecap:round;stroke-miterlimit:10;" x1="584.5" y1="453.7" x2="795.7" y2="453.7"/>
		<polygon style="fill:#FCF0D1;" points="522.8,394.5 554.8,375 545.5,384.8 551.4,385 517.5,413.5 528.3,395.6 		"/>
		<polygon style="fill:none;stroke:#000000;stroke-width:2;stroke-miterlimit:10;" points="530.5,389.4 547,377.2 538.8,389.4 
			545.9,389.4 529.2,410 534.9,392.1 527.2,391.8 		"/>
	</g>
	<g>
		<g>
			<path d="M599.4,751.6c-2.5,2.5-5.7,3.7-9.4,3.7s-6.9-1.2-9.4-3.7s-3.8-5.6-3.8-9.3s1.3-6.8,3.8-9.3s5.7-3.7,9.4-3.7
				s6.9,1.2,9.4,3.7s3.8,5.6,3.8,9.3S601.9,749.1,599.4,751.6z M597.5,742.3c0-2.2-0.7-4.2-2.2-5.7c-1.4-1.6-3.2-2.4-5.3-2.4
				s-3.9,0.8-5.3,2.4c-1.4,1.6-2.2,3.5-2.2,5.7s0.7,4.2,2.2,5.7c1.4,1.6,3.2,2.4,5.3,2.4s3.9-0.8,5.3-2.4
				C596.7,746.5,597.5,744.6,597.5,742.3z"/>
			<path d="M618.7,735.4c2.3,0,4.3,0.9,6,2.8c1.8,1.9,2.6,4.3,2.6,7.1s-0.9,5.2-2.6,7.2c-1.8,1.9-3.8,2.9-6.2,2.9s-4.3-0.9-5.7-2.8
				v9.5h-5.4v-26.4h5.4v2.2C614.5,736.2,616.4,735.4,618.7,735.4z M612.7,745.4c0,1.6,0.4,2.9,1.3,3.9c0.9,1,1.9,1.5,3.2,1.5
				s2.3-0.5,3.3-1.5c0.9-1,1.4-2.3,1.4-3.8c0-1.6-0.5-2.9-1.4-3.9c-0.9-1.1-2-1.6-3.3-1.6s-2.3,0.5-3.2,1.6
				C613.2,742.5,612.7,743.8,612.7,745.4z"/>
			<path d="M642.6,735.4c2.3,0,4.3,0.9,6,2.8c1.8,1.9,2.6,4.3,2.6,7.1s-0.9,5.2-2.6,7.2c-1.8,1.9-3.8,2.9-6.2,2.9s-4.3-0.9-5.7-2.8
				v9.5h-5.4v-26.4h5.4v2.2C638.4,736.2,640.4,735.4,642.6,735.4z M636.7,745.4c0,1.6,0.4,2.9,1.3,3.9c0.9,1,1.9,1.5,3.2,1.5
				s2.3-0.5,3.3-1.5c0.9-1,1.4-2.3,1.4-3.8c0-1.6-0.5-2.9-1.4-3.9c-0.9-1.1-2-1.6-3.3-1.6s-2.3,0.5-3.2,1.6
				C637.1,742.5,636.7,743.8,636.7,745.4z"/>
			<path d="M674.7,745.4c0,2.8-1,5.2-2.9,7.1c-1.9,1.9-4.4,2.9-7.3,2.9c-2.9,0-5.4-1-7.3-2.9c-1.9-1.9-2.9-4.3-2.9-7.1
				s1-5.2,2.9-7.1c1.9-1.9,4.4-2.9,7.3-2.9c2.9,0,5.4,1,7.3,2.9C673.7,740.2,674.7,742.6,674.7,745.4z M659.7,745.4
				c0,1.6,0.5,2.9,1.3,3.9c0.9,1,2.1,1.5,3.5,1.5s2.6-0.5,3.5-1.5s1.4-2.3,1.4-3.9s-0.5-2.9-1.4-3.9s-2.1-1.5-3.5-1.5
				s-2.6,0.5-3.5,1.5S659.7,743.8,659.7,745.4z"/>
			<path d="M688.9,740.5c-1.6,0-2.8,0.6-3.6,1.7c-0.8,1.1-1.2,2.6-1.2,4.5v8.4h-5.4v-19.4h5.4v2.6c0.7-0.8,1.6-1.5,2.6-2
				c1-0.6,2.1-0.8,3.2-0.9v5.1L688.9,740.5L688.9,740.5z"/>
			<path d="M699.9,739.6v8.7c0,0.7,0.2,1.3,0.6,1.7c0.4,0.4,0.8,0.6,1.4,0.6c1,0,1.9-0.5,2.6-1.4l2,3.8c-1.7,1.5-3.5,2.3-5.3,2.3
				c-1.9,0-3.4-0.6-4.7-1.8s-1.9-2.9-1.9-5v-8.9h-2.3v-3.9h2.3v-5.8h5.4v5.8h4.7v3.9L699.9,739.6L699.9,739.6z"/>
			<path d="M721.8,746.1v-10.4h5.4v19.4h-5.4v-2.6c-1.3,1.9-3.1,2.8-5.2,2.8s-3.9-0.7-5.3-2s-2.2-3.3-2.2-5.9v-11.7h5.4v10.5
				c0,3,1.1,4.5,3.3,4.5c1.1,0,2-0.4,2.8-1.2C721.4,748.8,721.8,747.6,721.8,746.1z"/>
			<path d="M737.8,744.3v10.8h-5.4v-19.4h5.4v2.2c1.6-1.7,3.5-2.5,5.5-2.5s3.8,0.7,5.1,2.2s2.1,3.4,2.1,5.8v11.8h-5.4v-10.9
				c0-3-1.1-4.5-3.3-4.5c-1.1,0-2,0.4-2.8,1.2C738.2,741.6,737.8,742.8,737.8,744.3z"/>
			<path d="M755.8,733.2c-0.6-0.6-0.9-1.4-0.9-2.2s0.3-1.6,0.9-2.2c0.6-0.6,1.4-0.9,2.2-0.9s1.6,0.3,2.2,0.9
				c0.6,0.6,0.9,1.4,0.9,2.2s-0.3,1.6-0.9,2.2c-0.6,0.6-1.4,0.9-2.2,0.9S756.5,733.9,755.8,733.2z M760.8,755.1h-5.4v-19.4h5.4
				V755.1z"/>
			<path d="M772.3,739.6v8.7c0,0.7,0.2,1.3,0.6,1.7c0.4,0.4,0.8,0.6,1.4,0.6c1,0,1.9-0.5,2.6-1.4l2,3.8c-1.7,1.5-3.5,2.3-5.3,2.3
				c-1.9,0-3.4-0.6-4.7-1.8s-1.9-2.9-1.9-5v-8.9h-2.3v-3.9h2.3v-5.8h5.4v5.8h4.7v3.9L772.3,739.6L772.3,739.6z"/>
			<path d="M782.2,733.2c-0.6-0.6-0.9-1.4-0.9-2.2s0.3-1.6,0.9-2.2c0.6-0.6,1.4-0.9,2.2-0.9s1.6,0.3,2.2,0.9
				c0.6,0.6,0.9,1.4,0.9,2.2s-0.3,1.6-0.9,2.2c-0.6,0.6-1.4,0.9-2.2,0.9S782.8,733.9,782.2,733.2z M787.1,755.1h-5.4v-19.4h5.4
				V755.1z"/>
			<path d="M809,752.3c-2.2,2.1-4.7,3.1-7.7,3.1c-2.9,0-5.4-0.9-7.3-2.7c-1.9-1.8-2.9-4.2-2.9-7.3c0-3,1-5.5,2.9-7.3
				s4.3-2.7,6.9-2.7s4.9,0.8,6.8,2.4c1.9,1.6,2.8,3.8,2.8,6.6v2.9h-14.1c0.2,1.1,0.7,1.9,1.7,2.6c0.9,0.7,2,1,3.2,1
				c1.9,0,3.5-0.6,4.7-1.9L809,752.3z M803.8,740.8c-0.7-0.6-1.7-0.9-2.7-0.9s-2,0.3-2.9,1c-0.9,0.6-1.4,1.5-1.5,2.6h8.5
				C805,742.3,804.6,741.4,803.8,740.8z"/>
			<path d="M829.1,749c0,1.9-0.7,3.4-2.1,4.6c-1.4,1.2-3.2,1.7-5.3,1.7c-1.4,0-2.9-0.3-4.5-0.8s-3-1.3-4.2-2.3l2.4-3.4
				c2,1.6,4.2,2.3,6.4,2.3c0.7,0,1.2-0.1,1.7-0.4c0.4-0.3,0.6-0.6,0.6-1.1s-0.3-0.9-0.8-1.3c-0.6-0.4-1.4-0.7-2.4-1.1
				c-1.1-0.3-1.9-0.6-2.4-0.9c-0.6-0.2-1.2-0.6-1.9-1c-1.5-0.9-2.2-2.3-2.2-4s0.7-3.2,2.2-4.4c1.4-1.1,3.3-1.7,5.6-1.7
				s4.6,0.8,6.8,2.3l-2,3.6c-1.7-1.2-3.4-1.7-5-1.7c-1.7,0-2.5,0.5-2.5,1.4c0,0.5,0.3,0.9,0.8,1.2s1.4,0.6,2.6,1
				c1.2,0.4,2.1,0.7,2.6,0.9s1.1,0.5,1.9,1C828.4,745.8,829.1,747.1,829.1,749z"/>
		</g>
		
			<line style="fill:none;stroke:#D5D8DD;stroke-width:6;stroke-linecap:round;stroke-miterlimit:10;" x1="581.1" y1="783.8" x2="864.9" y2="783.8"/>
		
			<line style="fill:none;stroke:#D5D8DD;stroke-width:6;stroke-linecap:round;stroke-miterlimit:10;" x1="582.8" y1="800.3" x2="793.9" y2="800.3"/>
		<g>
			<circle style="fill:#FCF0D1;" cx="537" cy="743" r="20.9"/>
			<g>
				<g>
					<path d="M538.4,765.9c-13.4,0-24.3-10.9-24.3-24.3c0-13.4,10.9-24.3,24.3-24.3c13.4,0,24.3,10.9,24.3,24.3
						C562.6,755,551.7,765.9,538.4,765.9z M538.4,719.4c-12.3,0-22.3,10-22.3,22.3s10,22.3,22.3,22.3s22.3-10,22.3-22.3
						S550.6,719.4,538.4,719.4z"/>
				</g>
				<g>
					<path d="M538.4,755.4c-7.6,0-13.8-6.2-13.8-13.8s6.2-13.8,13.8-13.8s13.8,6.2,13.8,13.8S545.9,755.4,538.4,755.4z M538.4,729.9
						c-6.5,0-11.8,5.3-11.8,11.8s5.3,11.8,11.8,11.8s11.8-5.3,11.8-11.8C550.1,735.2,544.8,729.9,538.4,729.9z"/>
				</g>
				<g>
					<circle cx="538.4" cy="741.6" r="2.5"/>
				</g>
			</g>
		</g>
	</g>
</g>
<g id="dude">
	<polygon style="opacity:0.53;fill:#993399;enable-background:new    ;" points="914.9,909.4 934.5,905 1038.7,905 1089.6,908.8 	
		"/>
	<polygon style="fill:#282D2B;stroke:#000000;stroke-miterlimit:10;" points="961.6,656.2 923.9,892 934.8,903.3 1016.4,717.6 
		1039.6,903.3 1056.6,893.3 1083.4,656.2 	"/>
	<g>
		<g>
			<g>
				<g>
					<g>
						<g>
							<defs>
								<polygon id="SVGID_00000134209339897223899290000013082765233422567600_" points="1015.6,366.1 1015.6,396.9 1001.2,396.9 
									1006,364.4 								"/>
							</defs>
							<clipPath id="SVGID_00000053528818039280476880000004206273950939076244_">
								<use xlink:href="#SVGID_00000134209339897223899290000013082765233422567600_"  style="overflow:visible;"/>
							</clipPath>
							<path style="clip-path:url(#SVGID_00000053528818039280476880000004206273950939076244_);fill:#FFCC99;" d="M1001.2,364.4
								v32.5V364.4z"/>
						</g>
					</g>
				</g>
			</g>
			<g>
				<g>
					<g>
						<g>
							<defs>
								<polygon id="SVGID_00000119116339134075750370000008042749007334807480_" points="1015.6,366.1 1015.6,396.9 1001.2,396.9 
									1006,364.4 								"/>
							</defs>
							<clipPath id="SVGID_00000025413959936587637980000005742219615616736396_">
								<use xlink:href="#SVGID_00000119116339134075750370000008042749007334807480_"  style="overflow:visible;"/>
							</clipPath>
							
								<rect x="1001.2" y="364.4" style="clip-path:url(#SVGID_00000025413959936587637980000005742219615616736396_);fill:#FFCC99;" width="0.3" height="32.5"/>
						</g>
					</g>
				</g>
			</g>
			<g>
				<g>
					<g>
						<g>
							<defs>
								<polygon id="SVGID_00000068651821585987210640000011224484049407026107_" points="1015.6,366.1 1015.6,396.9 1001.2,396.9 
									1006,364.4 								"/>
							</defs>
							<clipPath id="SVGID_00000171683809182455755520000005959915306439857833_">
								<use xlink:href="#SVGID_00000068651821585987210640000011224484049407026107_"  style="overflow:visible;"/>
							</clipPath>
							
								<rect x="1001.5" y="364.4" style="clip-path:url(#SVGID_00000171683809182455755520000005959915306439857833_);fill:#FFCB99;" width="0.3" height="32.5"/>
						</g>
					</g>
				</g>
			</g>
			<g>
				<g>
					<g>
						<g>
							<defs>
								<polygon id="SVGID_00000150801503571896958540000004757019502249954689_" points="1015.6,366.1 1015.6,396.9 1001.2,396.9 
									1006,364.4 								"/>
							</defs>
							<clipPath id="SVGID_00000024698850089247449060000015134383954328307130_">
								<use xlink:href="#SVGID_00000150801503571896958540000004757019502249954689_"  style="overflow:visible;"/>
							</clipPath>
							
								<rect x="1001.8" y="364.4" style="clip-path:url(#SVGID_00000024698850089247449060000015134383954328307130_);fill:#FFCA99;" width="0.3" height="32.5"/>
						</g>
					</g>
				</g>
			</g>
			<g>
				<g>
					<g>
						<g>
							<defs>
								<polygon id="SVGID_00000067212521470742047880000008512994507428616834_" points="1015.6,366.1 1015.6,396.9 1001.2,396.9 
									1006,364.4 								"/>
							</defs>
							<clipPath id="SVGID_00000073715309223213176000000015297981548067558822_">
								<use xlink:href="#SVGID_00000067212521470742047880000008512994507428616834_"  style="overflow:visible;"/>
							</clipPath>
							
								<rect x="1002.1" y="364.4" style="clip-path:url(#SVGID_00000073715309223213176000000015297981548067558822_);fill:#FFC999;" width="0.3" height="32.5"/>
						</g>
					</g>
				</g>
			</g>
			<g>
				<g>
					<g>
						<g>
							<defs>
								<polygon id="SVGID_00000088843426665306954990000013754756284806899616_" points="1015.6,366.1 1015.6,396.9 1001.2,396.9 
									1006,364.4 								"/>
							</defs>
							<clipPath id="SVGID_00000163067272435391669120000007027793824850136757_">
								<use xlink:href="#SVGID_00000088843426665306954990000013754756284806899616_"  style="overflow:visible;"/>
							</clipPath>
							
								<rect x="1002.4" y="364.4" style="clip-path:url(#SVGID_00000163067272435391669120000007027793824850136757_);fill:#FFC899;" width="0.3" height="32.5"/>
						</g>
					</g>
				</g>
			</g>
			<g>
				<g>
					<g>
						<g>
							<defs>
								<polygon id="SVGID_00000183227051022203024730000007500588489573848980_" points="1015.6,366.1 1015.6,396.9 1001.2,396.9 
									1006,364.4 								"/>
							</defs>
							<clipPath id="SVGID_00000155147477912240949790000017401018076281438083_">
								<use xlink:href="#SVGID_00000183227051022203024730000007500588489573848980_"  style="overflow:visible;"/>
							</clipPath>
							
								<rect x="1002.6" y="364.4" style="clip-path:url(#SVGID_00000155147477912240949790000017401018076281438083_);fill:#FFC799;" width="0.3" height="32.5"/>
						</g>
					</g>
				</g>
			</g>
			<g>
				<g>
					<g>
						<g>
							<defs>
								<polygon id="SVGID_00000147188583410396003580000005656462914174897536_" points="1015.6,366.1 1015.6,396.9 1001.2,396.9 
									1006,364.4 								"/>
							</defs>
							<clipPath id="SVGID_00000048469196264465068670000012633988211345847680_">
								<use xlink:href="#SVGID_00000147188583410396003580000005656462914174897536_"  style="overflow:visible;"/>
							</clipPath>
							
								<rect x="1002.9" y="364.4" style="clip-path:url(#SVGID_00000048469196264465068670000012633988211345847680_);fill:#FFC699;" width="0.3" height="32.5"/>
						</g>
					</g>
				</g>
			</g>
			<g>
				<g>
					<g>
						<g>
							<defs>
								<polygon id="SVGID_00000132084630382142139480000000503053693797753229_" points="1015.6,366.1 1015.6,396.9 1001.2,396.9 
									1006,364.4 								"/>
							</defs>
							<clipPath id="SVGID_00000183225584359071972640000011318253298241428901_">
								<use xlink:href="#SVGID_00000132084630382142139480000000503053693797753229_"  style="overflow:visible;"/>
							</clipPath>
							
								<rect x="1003.2" y="364.4" style="clip-path:url(#SVGID_00000183225584359071972640000011318253298241428901_);fill:#FFC599;" width="0.3" height="32.5"/>
						</g>
					</g>
				</g>
			</g>
			<g>
				<g>
					<g>
						<g>
							<defs>
								<polygon id="SVGID_00000137840222517421810460000016800860894023767169_" points="1015.6,366.1 1015.6,396.9 1001.2,396.9 
									1006,364.4 								"/>
							</defs>
							<clipPath id="SVGID_00000178894406075494695770000009025434739522505661_">
								<use xlink:href="#SVGID_00000137840222517421810460000016800860894023767169_"  style="overflow:visible;"/>
							</clipPath>
							
								<rect x="1003.5" y="364.4" style="clip-path:url(#SVGID_00000178894406075494695770000009025434739522505661_);fill:#FFC499;" width="0.3" height="32.5"/>
						</g>
					</g>
				</g>
			</g>
			<g>
				<g>
					<g>
						<g>
							<defs>
								<polygon id="SVGID_00000040575113177928519640000008178940782125130679_" points="1015.6,366.1 1015.6,396.9 1001.2,396.9 
									1006,364.4 								"/>
							</defs>
							<clipPath id="SVGID_00000046320670989798881480000001843244336348174524_">
								<use xlink:href="#SVGID_00000040575113177928519640000008178940782125130679_"  style="overflow:visible;"/>
							</clipPath>
							
								<rect x="1003.8" y="364.4" style="clip-path:url(#SVGID_00000046320670989798881480000001843244336348174524_);fill:#FFC399;" width="0.3" height="32.5"/>
						</g>
					</g>
				</g>
			</g>
			<g>
				<g>
					<g>
						<g>
							<defs>
								<polygon id="SVGID_00000011729855050382733340000006831096795136566671_" points="1015.6,366.1 1015.6,396.9 1001.2,396.9 
									1006,364.4 								"/>
							</defs>
							<clipPath id="SVGID_00000104677555521169153840000012789484222079501721_">
								<use xlink:href="#SVGID_00000011729855050382733340000006831096795136566671_"  style="overflow:visible;"/>
							</clipPath>
							
								<rect x="1004.1" y="364.4" style="clip-path:url(#SVGID_00000104677555521169153840000012789484222079501721_);fill:#FFC299;" width="0.3" height="32.5"/>
						</g>
					</g>
				</g>
			</g>
			<g>
				<g>
					<g>
						<g>
							<defs>
								<polygon id="SVGID_00000068640171636034365910000014771755255792589988_" points="1015.6,366.1 1015.6,396.9 1001.2,396.9 
									1006,364.4 								"/>
							</defs>
							<clipPath id="SVGID_00000062904429350281664800000014243623542626022793_">
								<use xlink:href="#SVGID_00000068640171636034365910000014771755255792589988_"  style="overflow:visible;"/>
							</clipPath>
							
								<rect x="1004.3" y="364.4" style="clip-path:url(#SVGID_00000062904429350281664800000014243623542626022793_);fill:#FFC199;" width="0.3" height="32.5"/>
						</g>
					</g>
				</g>
			</g>
			<g>
				<g>
					<g>
						<g>
							<defs>
								<polygon id="SVGID_00000080204583622802079530000012714557298441395074_" points="1015.6,366.1 1015.6,396.9 1001.2,396.9 
									1006,364.4 								"/>
							</defs>
							<clipPath id="SVGID_00000168797155413346812380000004097080180221050540_">
								<use xlink:href="#SVGID_00000080204583622802079530000012714557298441395074_"  style="overflow:visible;"/>
							</clipPath>
							
								<rect x="1004.6" y="364.4" style="clip-path:url(#SVGID_00000168797155413346812380000004097080180221050540_);fill:#FFC099;" width="0.3" height="32.5"/>
						</g>
					</g>
				</g>
			</g>
			<g>
				<g>
					<g>
						<g>
							<defs>
								<polygon id="SVGID_00000178164364842427775610000003350712652912372132_" points="1015.6,366.1 1015.6,396.9 1001.2,396.9 
									1006,364.4 								"/>
							</defs>
							<clipPath id="SVGID_00000175310869127980222150000001554149376541961089_">
								<use xlink:href="#SVGID_00000178164364842427775610000003350712652912372132_"  style="overflow:visible;"/>
							</clipPath>
							
								<rect x="1004.9" y="364.4" style="clip-path:url(#SVGID_00000175310869127980222150000001554149376541961089_);fill:#FFBF99;" width="0.3" height="32.5"/>
						</g>
					</g>
				</g>
			</g>
			<g>
				<g>
					<g>
						<g>
							<defs>
								<polygon id="SVGID_00000120531364097757899570000018315050579283312283_" points="1015.6,366.1 1015.6,396.9 1001.2,396.9 
									1006,364.4 								"/>
							</defs>
							<clipPath id="SVGID_00000174601174742943540550000016951854872255736977_">
								<use xlink:href="#SVGID_00000120531364097757899570000018315050579283312283_"  style="overflow:visible;"/>
							</clipPath>
							
								<rect x="1005.2" y="364.4" style="clip-path:url(#SVGID_00000174601174742943540550000016951854872255736977_);fill:#FFBE99;" width="0.3" height="32.5"/>
						</g>
					</g>
				</g>
			</g>
			<g>
				<g>
					<g>
						<g>
							<defs>
								<polygon id="SVGID_00000154416002081583651920000010300235792643209606_" points="1015.6,366.1 1015.6,396.9 1001.2,396.9 
									1006,364.4 								"/>
							</defs>
							<clipPath id="SVGID_00000088822672896309692730000012194740404006897811_">
								<use xlink:href="#SVGID_00000154416002081583651920000010300235792643209606_"  style="overflow:visible;"/>
							</clipPath>
							
								<rect x="1005.5" y="364.4" style="clip-path:url(#SVGID_00000088822672896309692730000012194740404006897811_);fill:#FFBD99;" width="0.3" height="32.5"/>
						</g>
					</g>
				</g>
			</g>
			<g>
				<g>
					<g>
						<g>
							<defs>
								<polygon id="SVGID_00000161616557832671780080000005651279348305665671_" points="1015.6,366.1 1015.6,396.9 1001.2,396.9 
									1006,364.4 								"/>
							</defs>
							<clipPath id="SVGID_00000028304330878791454890000015352248871854290102_">
								<use xlink:href="#SVGID_00000161616557832671780080000005651279348305665671_"  style="overflow:visible;"/>
							</clipPath>
							
								<rect x="1005.7" y="364.4" style="clip-path:url(#SVGID_00000028304330878791454890000015352248871854290102_);fill:#FFBC99;" width="0.3" height="32.5"/>
						</g>
					</g>
				</g>
			</g>
			<g>
				<g>
					<g>
						<g>
							<defs>
								<polygon id="SVGID_00000134208608879728740420000011138522483235097763_" points="1015.6,366.1 1015.6,396.9 1001.2,396.9 
									1006,364.4 								"/>
							</defs>
							<clipPath id="SVGID_00000142162355673841748170000018329832414025373613_">
								<use xlink:href="#SVGID_00000134208608879728740420000011138522483235097763_"  style="overflow:visible;"/>
							</clipPath>
							
								<rect x="1006" y="364.4" style="clip-path:url(#SVGID_00000142162355673841748170000018329832414025373613_);fill:#FFBB99;" width="0.3" height="32.5"/>
						</g>
					</g>
				</g>
			</g>
			<g>
				<g>
					<g>
						<g>
							<defs>
								<polygon id="SVGID_00000054947612911102079890000006460660090811209350_" points="1015.6,366.1 1015.6,396.9 1001.2,396.9 
									1006,364.4 								"/>
							</defs>
							<clipPath id="SVGID_00000010999112374232514790000014170955108997708179_">
								<use xlink:href="#SVGID_00000054947612911102079890000006460660090811209350_"  style="overflow:visible;"/>
							</clipPath>
							
								<rect x="1006.3" y="364.4" style="clip-path:url(#SVGID_00000010999112374232514790000014170955108997708179_);fill:#FFBA99;" width="0.3" height="32.5"/>
						</g>
					</g>
				</g>
			</g>
			<g>
				<g>
					<g>
						<g>
							<defs>
								<polygon id="SVGID_00000153681838199152989730000003866744705851154315_" points="1015.6,366.1 1015.6,396.9 1001.2,396.9 
									1006,364.4 								"/>
							</defs>
							<clipPath id="SVGID_00000123420459259030399860000002025453508339409039_">
								<use xlink:href="#SVGID_00000153681838199152989730000003866744705851154315_"  style="overflow:visible;"/>
							</clipPath>
							
								<rect x="1006.6" y="364.4" style="clip-path:url(#SVGID_00000123420459259030399860000002025453508339409039_);fill:#FFB999;" width="0.3" height="32.5"/>
						</g>
					</g>
				</g>
			</g>
			<g>
				<g>
					<g>
						<g>
							<defs>
								<polygon id="SVGID_00000033364108938072999790000010249121733382538885_" points="1015.6,366.1 1015.6,396.9 1001.2,396.9 
									1006,364.4 								"/>
							</defs>
							<clipPath id="SVGID_00000144339255303415588260000013354936374702785155_">
								<use xlink:href="#SVGID_00000033364108938072999790000010249121733382538885_"  style="overflow:visible;"/>
							</clipPath>
							
								<rect x="1006.9" y="364.4" style="clip-path:url(#SVGID_00000144339255303415588260000013354936374702785155_);fill:#FFB899;" width="0.3" height="32.5"/>
						</g>
					</g>
				</g>
			</g>
			<g>
				<g>
					<g>
						<g>
							<defs>
								<polygon id="SVGID_00000109000329047374908470000001119397561317500606_" points="1015.6,366.1 1015.6,396.9 1001.2,396.9 
									1006,364.4 								"/>
							</defs>
							<clipPath id="SVGID_00000048486834766435362380000008126066550623582083_">
								<use xlink:href="#SVGID_00000109000329047374908470000001119397561317500606_"  style="overflow:visible;"/>
							</clipPath>
							
								<rect x="1007.1" y="364.4" style="clip-path:url(#SVGID_00000048486834766435362380000008126066550623582083_);fill:#FFB799;" width="0.3" height="32.5"/>
						</g>
					</g>
				</g>
			</g>
			<g>
				<g>
					<g>
						<g>
							<defs>
								<polygon id="SVGID_00000031166133414933579480000001341818890994954375_" points="1015.6,366.1 1015.6,396.9 1001.2,396.9 
									1006,364.4 								"/>
							</defs>
							<clipPath id="SVGID_00000089563525433713743520000002636554641915517603_">
								<use xlink:href="#SVGID_00000031166133414933579480000001341818890994954375_"  style="overflow:visible;"/>
							</clipPath>
							
								<rect x="1007.4" y="364.4" style="clip-path:url(#SVGID_00000089563525433713743520000002636554641915517603_);fill:#FFB699;" width="0.3" height="32.5"/>
						</g>
					</g>
				</g>
			</g>
			<g>
				<g>
					<g>
						<g>
							<defs>
								<polygon id="SVGID_00000121255778162528156820000016231075371810613930_" points="1015.6,366.1 1015.6,396.9 1001.2,396.9 
									1006,364.4 								"/>
							</defs>
							<clipPath id="SVGID_00000027587354793583300090000013456238398728830094_">
								<use xlink:href="#SVGID_00000121255778162528156820000016231075371810613930_"  style="overflow:visible;"/>
							</clipPath>
							
								<rect x="1007.7" y="364.4" style="clip-path:url(#SVGID_00000027587354793583300090000013456238398728830094_);fill:#FFB599;" width="0.3" height="32.5"/>
						</g>
					</g>
				</g>
			</g>
			<g>
				<g>
					<g>
						<g>
							<defs>
								<polygon id="SVGID_00000044898302178250451580000010933825716916350627_" points="1015.6,366.1 1015.6,396.9 1001.2,396.9 
									1006,364.4 								"/>
							</defs>
							<clipPath id="SVGID_00000072267860490060029330000000715731202020741305_">
								<use xlink:href="#SVGID_00000044898302178250451580000010933825716916350627_"  style="overflow:visible;"/>
							</clipPath>
							
								<rect x="1008" y="364.4" style="clip-path:url(#SVGID_00000072267860490060029330000000715731202020741305_);fill:#FFB499;" width="0.3" height="32.5"/>
						</g>
					</g>
				</g>
			</g>
			<g>
				<g>
					<g>
						<g>
							<defs>
								<polygon id="SVGID_00000015339585867683116470000004693908337738355081_" points="1015.6,366.1 1015.6,396.9 1001.2,396.9 
									1006,364.4 								"/>
							</defs>
							<clipPath id="SVGID_00000078016863781255626340000002487813232975835068_">
								<use xlink:href="#SVGID_00000015339585867683116470000004693908337738355081_"  style="overflow:visible;"/>
							</clipPath>
							
								<rect x="1008.3" y="364.4" style="clip-path:url(#SVGID_00000078016863781255626340000002487813232975835068_);fill:#FFB399;" width="0.3" height="32.5"/>
						</g>
					</g>
				</g>
			</g>
			<g>
				<g>
					<g>
						<g>
							<defs>
								<polygon id="SVGID_00000160900515505098513840000010219748834847180420_" points="1015.6,366.1 1015.6,396.9 1001.2,396.9 
									1006,364.4 								"/>
							</defs>
							<clipPath id="SVGID_00000032623717431988872390000005534243288262008240_">
								<use xlink:href="#SVGID_00000160900515505098513840000010219748834847180420_"  style="overflow:visible;"/>
							</clipPath>
							
								<rect x="1008.5" y="364.4" style="clip-path:url(#SVGID_00000032623717431988872390000005534243288262008240_);fill:#FFB199;" width="0.3" height="32.5"/>
						</g>
					</g>
				</g>
			</g>
			<g>
				<g>
					<g>
						<g>
							<defs>
								<polygon id="SVGID_00000011716707886079146910000010394197019748559805_" points="1015.6,366.1 1015.6,396.9 1001.2,396.9 
									1006,364.4 								"/>
							</defs>
							<clipPath id="SVGID_00000134929967509719688670000005908251625140110782_">
								<use xlink:href="#SVGID_00000011716707886079146910000010394197019748559805_"  style="overflow:visible;"/>
							</clipPath>
							
								<rect x="1008.8" y="364.4" style="clip-path:url(#SVGID_00000134929967509719688670000005908251625140110782_);fill:#FFB099;" width="0.3" height="32.5"/>
						</g>
					</g>
				</g>
			</g>
			<g>
				<g>
					<g>
						<g>
							<defs>
								<polygon id="SVGID_00000122680992810474143660000005304224580866595750_" points="1015.6,366.1 1015.6,396.9 1001.2,396.9 
									1006,364.4 								"/>
							</defs>
							<clipPath id="SVGID_00000076598512243474279770000001221936566166240191_">
								<use xlink:href="#SVGID_00000122680992810474143660000005304224580866595750_"  style="overflow:visible;"/>
							</clipPath>
							
								<rect x="1009.1" y="364.4" style="clip-path:url(#SVGID_00000076598512243474279770000001221936566166240191_);fill:#FFAF99;" width="0.3" height="32.5"/>
						</g>
					</g>
				</g>
			</g>
			<g>
				<g>
					<g>
						<g>
							<defs>
								<polygon id="SVGID_00000062899324473695055660000001987565825589502347_" points="1015.6,366.1 1015.6,396.9 1001.2,396.9 
									1006,364.4 								"/>
							</defs>
							<clipPath id="SVGID_00000105395313251482991170000006032296388412487849_">
								<use xlink:href="#SVGID_00000062899324473695055660000001987565825589502347_"  style="overflow:visible;"/>
							</clipPath>
							
								<rect x="1009.4" y="364.4" style="clip-path:url(#SVGID_00000105395313251482991170000006032296388412487849_);fill:#FFAE99;" width="0.3" height="32.5"/>
						</g>
					</g>
				</g>
			</g>
			<g>
				<g>
					<g>
						<g>
							<defs>
								<polygon id="SVGID_00000032633055160375000730000004418991209019942531_" points="1015.6,366.1 1015.6,396.9 1001.2,396.9 
									1006,364.4 								"/>
							</defs>
							<clipPath id="SVGID_00000078750756690347333820000006074406984191918527_">
								<use xlink:href="#SVGID_00000032633055160375000730000004418991209019942531_"  style="overflow:visible;"/>
							</clipPath>
							
								<rect x="1009.7" y="364.4" style="clip-path:url(#SVGID_00000078750756690347333820000006074406984191918527_);fill:#FFAD99;" width="0.3" height="32.5"/>
						</g>
					</g>
				</g>
			</g>
			<g>
				<g>
					<g>
						<g>
							<defs>
								<polygon id="SVGID_00000010277757937970753300000006995072179972214457_" points="1015.6,366.1 1015.6,396.9 1001.2,396.9 
									1006,364.4 								"/>
							</defs>
							<clipPath id="SVGID_00000040537042814821449610000018082322134031364535_">
								<use xlink:href="#SVGID_00000010277757937970753300000006995072179972214457_"  style="overflow:visible;"/>
							</clipPath>
							
								<rect x="1010" y="364.4" style="clip-path:url(#SVGID_00000040537042814821449610000018082322134031364535_);fill:#FFAC99;" width="0.3" height="32.5"/>
						</g>
					</g>
				</g>
			</g>
			<g>
				<g>
					<g>
						<g>
							<defs>
								<polygon id="SVGID_00000170999818361635275590000000695077100442627735_" points="1015.6,366.1 1015.6,396.9 1001.2,396.9 
									1006,364.4 								"/>
							</defs>
							<clipPath id="SVGID_00000134938207266146702640000012854268716457557377_">
								<use xlink:href="#SVGID_00000170999818361635275590000000695077100442627735_"  style="overflow:visible;"/>
							</clipPath>
							
								<rect x="1010.2" y="364.4" style="clip-path:url(#SVGID_00000134938207266146702640000012854268716457557377_);fill:#FFAB99;" width="0.3" height="32.5"/>
						</g>
					</g>
				</g>
			</g>
			<g>
				<g>
					<g>
						<g>
							<defs>
								<polygon id="SVGID_00000160894132010097040510000003116509216867160723_" points="1015.6,366.1 1015.6,396.9 1001.2,396.9 
									1006,364.4 								"/>
							</defs>
							<clipPath id="SVGID_00000124848380451778066010000004865287544803332763_">
								<use xlink:href="#SVGID_00000160894132010097040510000003116509216867160723_"  style="overflow:visible;"/>
							</clipPath>
							
								<rect x="1010.5" y="364.4" style="clip-path:url(#SVGID_00000124848380451778066010000004865287544803332763_);fill:#FFAA99;" width="0.3" height="32.5"/>
						</g>
					</g>
				</g>
			</g>
			<g>
				<g>
					<g>
						<g>
							<defs>
								<polygon id="SVGID_00000079443781659756625380000017167682379632191375_" points="1015.6,366.1 1015.6,396.9 1001.2,396.9 
									1006,364.4 								"/>
							</defs>
							<clipPath id="SVGID_00000067957522944817439320000015434078526362832517_">
								<use xlink:href="#SVGID_00000079443781659756625380000017167682379632191375_"  style="overflow:visible;"/>
							</clipPath>
							
								<rect x="1010.8" y="364.4" style="clip-path:url(#SVGID_00000067957522944817439320000015434078526362832517_);fill:#FFA999;" width="0.3" height="32.5"/>
						</g>
					</g>
				</g>
			</g>
			<g>
				<g>
					<g>
						<g>
							<defs>
								<polygon id="SVGID_00000095307411297603461380000015443956076976647359_" points="1015.6,366.1 1015.6,396.9 1001.2,396.9 
									1006,364.4 								"/>
							</defs>
							<clipPath id="SVGID_00000069362914618373189800000000428407096754436017_">
								<use xlink:href="#SVGID_00000095307411297603461380000015443956076976647359_"  style="overflow:visible;"/>
							</clipPath>
							
								<rect x="1011.1" y="364.4" style="clip-path:url(#SVGID_00000069362914618373189800000000428407096754436017_);fill:#FFA899;" width="0.3" height="32.5"/>
						</g>
					</g>
				</g>
			</g>
			<g>
				<g>
					<g>
						<g>
							<defs>
								<polygon id="SVGID_00000172423672630821177080000001380569309663051145_" points="1015.6,366.1 1015.6,396.9 1001.2,396.9 
									1006,364.4 								"/>
							</defs>
							<clipPath id="SVGID_00000159461648940586809450000010942216328041964977_">
								<use xlink:href="#SVGID_00000172423672630821177080000001380569309663051145_"  style="overflow:visible;"/>
							</clipPath>
							
								<rect x="1011.4" y="364.4" style="clip-path:url(#SVGID_00000159461648940586809450000010942216328041964977_);fill:#FFA799;" width="0.3" height="32.5"/>
						</g>
					</g>
				</g>
			</g>
			<g>
				<g>
					<g>
						<g>
							<defs>
								<polygon id="SVGID_00000060009242523197955650000009022796493109671299_" points="1015.6,366.1 1015.6,396.9 1001.2,396.9 
									1006,364.4 								"/>
							</defs>
							<clipPath id="SVGID_00000081640736680842779920000008022694020146836106_">
								<use xlink:href="#SVGID_00000060009242523197955650000009022796493109671299_"  style="overflow:visible;"/>
							</clipPath>
							
								<rect x="1011.6" y="364.4" style="clip-path:url(#SVGID_00000081640736680842779920000008022694020146836106_);fill:#FFA699;" width="0.3" height="32.5"/>
						</g>
					</g>
				</g>
			</g>
			<g>
				<g>
					<g>
						<g>
							<defs>
								<polygon id="SVGID_00000017493917839660802480000013032562446130525599_" points="1015.6,366.1 1015.6,396.9 1001.2,396.9 
									1006,364.4 								"/>
							</defs>
							<clipPath id="SVGID_00000070110903959488173810000013448383691164007066_">
								<use xlink:href="#SVGID_00000017493917839660802480000013032562446130525599_"  style="overflow:visible;"/>
							</clipPath>
							
								<rect x="1011.9" y="364.4" style="clip-path:url(#SVGID_00000070110903959488173810000013448383691164007066_);fill:#FFA599;" width="0.3" height="32.5"/>
						</g>
					</g>
				</g>
			</g>
			<g>
				<g>
					<g>
						<g>
							<defs>
								<polygon id="SVGID_00000096754319634548748430000016819855186687763367_" points="1015.6,366.1 1015.6,396.9 1001.2,396.9 
									1006,364.4 								"/>
							</defs>
							<clipPath id="SVGID_00000049184843733080979700000015757086973007085720_">
								<use xlink:href="#SVGID_00000096754319634548748430000016819855186687763367_"  style="overflow:visible;"/>
							</clipPath>
							
								<rect x="1012.2" y="364.4" style="clip-path:url(#SVGID_00000049184843733080979700000015757086973007085720_);fill:#FFA499;" width="0.3" height="32.5"/>
						</g>
					</g>
				</g>
			</g>
			<g>
				<g>
					<g>
						<g>
							<defs>
								<polygon id="SVGID_00000031908007892560260080000009731102888368657803_" points="1015.6,366.1 1015.6,396.9 1001.2,396.9 
									1006,364.4 								"/>
							</defs>
							<clipPath id="SVGID_00000018195347833050716390000003382137940170300816_">
								<use xlink:href="#SVGID_00000031908007892560260080000009731102888368657803_"  style="overflow:visible;"/>
							</clipPath>
							
								<rect x="1012.5" y="364.4" style="clip-path:url(#SVGID_00000018195347833050716390000003382137940170300816_);fill:#FFA399;" width="0.3" height="32.5"/>
						</g>
					</g>
				</g>
			</g>
			<g>
				<g>
					<g>
						<g>
							<defs>
								<polygon id="SVGID_00000117668393826847863870000001578384726975151259_" points="1015.6,366.1 1015.6,396.9 1001.2,396.9 
									1006,364.4 								"/>
							</defs>
							<clipPath id="SVGID_00000129891121352405436110000007820089267254633879_">
								<use xlink:href="#SVGID_00000117668393826847863870000001578384726975151259_"  style="overflow:visible;"/>
							</clipPath>
							
								<rect x="1012.8" y="364.4" style="clip-path:url(#SVGID_00000129891121352405436110000007820089267254633879_);fill:#FFA299;" width="0.3" height="32.5"/>
						</g>
					</g>
				</g>
			</g>
			<g>
				<g>
					<g>
						<g>
							<defs>
								<polygon id="SVGID_00000142151446955988173450000007443200214409543101_" points="1015.6,366.1 1015.6,396.9 1001.2,396.9 
									1006,364.4 								"/>
							</defs>
							<clipPath id="SVGID_00000149370657896342137430000006650965790109429407_">
								<use xlink:href="#SVGID_00000142151446955988173450000007443200214409543101_"  style="overflow:visible;"/>
							</clipPath>
							
								<rect x="1013" y="364.4" style="clip-path:url(#SVGID_00000149370657896342137430000006650965790109429407_);fill:#FFA199;" width="0.3" height="32.5"/>
						</g>
					</g>
				</g>
			</g>
			<g>
				<g>
					<g>
						<g>
							<defs>
								<polygon id="SVGID_00000101069072164559605610000001904946909985840525_" points="1015.6,366.1 1015.6,396.9 1001.2,396.9 
									1006,364.4 								"/>
							</defs>
							<clipPath id="SVGID_00000147928570019842194770000010772467826336476291_">
								<use xlink:href="#SVGID_00000101069072164559605610000001904946909985840525_"  style="overflow:visible;"/>
							</clipPath>
							
								<rect x="1013.3" y="364.4" style="clip-path:url(#SVGID_00000147928570019842194770000010772467826336476291_);fill:#FFA099;" width="0.3" height="32.5"/>
						</g>
					</g>
				</g>
			</g>
			<g>
				<g>
					<g>
						<g>
							<defs>
								<polygon id="SVGID_00000111168622009090689440000002594383836491674534_" points="1015.6,366.1 1015.6,396.9 1001.2,396.9 
									1006,364.4 								"/>
							</defs>
							<clipPath id="SVGID_00000162325831136354259190000006193715422671232441_">
								<use xlink:href="#SVGID_00000111168622009090689440000002594383836491674534_"  style="overflow:visible;"/>
							</clipPath>
							
								<rect x="1013.6" y="364.4" style="clip-path:url(#SVGID_00000162325831136354259190000006193715422671232441_);fill:#FF9F99;" width="0.3" height="32.5"/>
						</g>
					</g>
				</g>
			</g>
			<g>
				<g>
					<g>
						<g>
							<defs>
								<polygon id="SVGID_00000070826342273342217480000000537669437006763664_" points="1015.6,366.1 1015.6,396.9 1001.2,396.9 
									1006,364.4 								"/>
							</defs>
							<clipPath id="SVGID_00000075853171415622815810000005134424419727818672_">
								<use xlink:href="#SVGID_00000070826342273342217480000000537669437006763664_"  style="overflow:visible;"/>
							</clipPath>
							
								<rect x="1013.9" y="364.4" style="clip-path:url(#SVGID_00000075853171415622815810000005134424419727818672_);fill:#FF9E99;" width="0.3" height="32.5"/>
						</g>
					</g>
				</g>
			</g>
			<g>
				<g>
					<g>
						<g>
							<defs>
								<polygon id="SVGID_00000143577469060556677940000018260774161410377407_" points="1015.6,366.1 1015.6,396.9 1001.2,396.9 
									1006,364.4 								"/>
							</defs>
							<clipPath id="SVGID_00000010996878998925823970000016131863585447969172_">
								<use xlink:href="#SVGID_00000143577469060556677940000018260774161410377407_"  style="overflow:visible;"/>
							</clipPath>
							
								<rect x="1014.2" y="364.4" style="clip-path:url(#SVGID_00000010996878998925823970000016131863585447969172_);fill:#FF9D99;" width="0.3" height="32.5"/>
						</g>
					</g>
				</g>
			</g>
			<g>
				<g>
					<g>
						<g>
							<defs>
								<polygon id="SVGID_00000132046907875690752400000016856316953763024301_" points="1015.6,366.1 1015.6,396.9 1001.2,396.9 
									1006,364.4 								"/>
							</defs>
							<clipPath id="SVGID_00000049194740164309901270000016962914429260546968_">
								<use xlink:href="#SVGID_00000132046907875690752400000016856316953763024301_"  style="overflow:visible;"/>
							</clipPath>
							
								<rect x="1014.5" y="364.4" style="clip-path:url(#SVGID_00000049194740164309901270000016962914429260546968_);fill:#FF9C99;" width="0.3" height="32.5"/>
						</g>
					</g>
				</g>
			</g>
			<g>
				<g>
					<g>
						<g>
							<defs>
								<polygon id="SVGID_00000073718985428472083270000010591803677655863979_" points="1015.6,366.1 1015.6,396.9 1001.2,396.9 
									1006,364.4 								"/>
							</defs>
							<clipPath id="SVGID_00000157283761153983944240000017132139668472909701_">
								<use xlink:href="#SVGID_00000073718985428472083270000010591803677655863979_"  style="overflow:visible;"/>
							</clipPath>
							
								<rect x="1014.7" y="364.4" style="clip-path:url(#SVGID_00000157283761153983944240000017132139668472909701_);fill:#FF9B99;" width="0.3" height="32.5"/>
						</g>
					</g>
				</g>
			</g>
			<g>
				<g>
					<g>
						<g>
							<defs>
								<polygon id="SVGID_00000166662545611943262540000008004168254474333336_" points="1015.6,366.1 1015.6,396.9 1001.2,396.9 
									1006,364.4 								"/>
							</defs>
							<clipPath id="SVGID_00000058589641464339511260000009624891207660340612_">
								<use xlink:href="#SVGID_00000166662545611943262540000008004168254474333336_"  style="overflow:visible;"/>
							</clipPath>
							
								<rect x="1015" y="364.4" style="clip-path:url(#SVGID_00000058589641464339511260000009624891207660340612_);fill:#FF9A99;" width="0.3" height="32.5"/>
						</g>
					</g>
				</g>
			</g>
			<g>
				<g>
					<g>
						<g>
							<defs>
								<polygon id="SVGID_00000077311669348152681520000001706090639614878136_" points="1015.6,366.1 1015.6,396.9 1001.2,396.9 
									1006,364.4 								"/>
							</defs>
							<clipPath id="SVGID_00000142149563988856111910000017012409924711635589_">
								<use xlink:href="#SVGID_00000077311669348152681520000001706090639614878136_"  style="overflow:visible;"/>
							</clipPath>
							
								<rect x="1015.3" y="364.4" style="clip-path:url(#SVGID_00000142149563988856111910000017012409924711635589_);fill:#FF9999;" width="0.3" height="32.5"/>
						</g>
					</g>
				</g>
			</g>
			<g>
				<g>
					<g>
						<g>
							<defs>
								<polygon id="SVGID_00000109012749798579712010000016792596609786874266_" points="1015.6,366.1 1015.6,396.9 1001.2,396.9 
									1006,364.4 								"/>
							</defs>
							<clipPath id="SVGID_00000161603781723462756370000008324915245734145189_">
								<use xlink:href="#SVGID_00000109012749798579712010000016792596609786874266_"  style="overflow:visible;"/>
							</clipPath>
							<path style="clip-path:url(#SVGID_00000161603781723462756370000008324915245734145189_);fill:#FF9999;" d="M1015.6,396.9
								v-32.5V396.9z"/>
						</g>
					</g>
				</g>
			</g>
		</g>
		<path d="M1016.9,398.3h-17.2l5.2-35.5l12,2.2V398.3z M1002.8,395.6h11.4v-28.3l-7.1-1.3L1002.8,395.6z"/>
	</g>
	<g>
		<path style="fill:#F6F5F8;" d="M1086.2,657.5H960.8v-85.3c0,0-21.3,2.5-27.6-10S891.8,458,894.3,449.3
			c2.5-8.8,77.3-52.1,91.1-59.6l5.5-12.8l13.2,9.2l8.2,8l11.1-9.9c0,0,78,46.3,84.3,63.9s28.9,75.3,22.6,94.1s-28.9,27.6-43.9,20.1
			v95.2H1086.2z"/>
		<path d="M1087.6,658.9H959.4v-85.2c-5.1,0.3-21.8,0.5-27.5-10.9c-5.3-10.6-41.8-104.2-39-113.9c2.9-10.1,84.8-56.5,91.4-60.2
			l6-13.9l14.5,10.2l7.4,7.2l10.9-9.8l0.9,0.5c3.2,1.9,78.5,46.8,84.9,64.6c0.6,1.7,1.4,3.9,2.3,6.3c8.5,23.1,26.1,71.2,20.3,88.6
			c-3.1,9.4-10.4,17-20,21c-8.1,3.4-16.7,3.6-23.9,0.8L1087.6,658.9L1087.6,658.9z M962.1,656.2h122.8V560l1.9,1
			c6.7,3.4,15.5,3.4,23.6,0c8.8-3.7,15.6-10.7,18.4-19.3c5.5-16.5-12.6-65.8-20.3-86.9c-0.9-2.5-1.7-4.6-2.3-6.3
			c-5.7-15.9-74.4-57.6-82.9-62.7l-11.3,10.1l-9.1-8.9l-11.6-8.2l-5,11.7l-0.4,0.2c-22.4,12.2-88.4,51.5-90.5,58.8
			c-2.3,8,31.7,97.8,38.8,111.9c5.8,11.5,26,9.3,26.2,9.3l1.5-0.2L962.1,656.2z"/>
	</g>
	<g>
		<path style="fill:#F6F5F8;" d="M966.9,569.4c0,0,59.4-11,89.2-25"/>
		<path d="M966.9,570.7c-0.6,0-1.2-0.5-1.3-1.1c-0.1-0.7,0.3-1.4,1.1-1.6c0.6-0.1,59.6-11.1,88.9-24.9c0.7-0.3,1.5,0,1.8,0.6
			c0.3,0.7,0,1.5-0.6,1.8c-29.7,13.9-89,25-89.6,25.1C967.1,570.7,967,570.7,966.9,570.7z"/>
	</g>
	<g>
		<path style="fill:#F6F5F8;" d="M1079.6,558.4c-22.3-9.3-87.9-63.2-87.9-63.2s1.4-16.9-2.4-27.3l73.4,20.2"/>
		<path d="M1079.6,559.8c-0.2,0-0.3,0-0.5-0.1c-22.2-9.3-85.6-61.2-88.3-63.4l-0.5-0.4l0.1-0.7c0-0.2,1.3-16.7-2.3-26.7l-0.9-2.5
			l75.9,20.9c0.7,0.2,1.1,0.9,0.9,1.7s-0.9,1.1-1.7,0.9l-71-19.6c2.6,9.3,2,21.6,1.8,24.7c6.3,5.2,66.2,53.9,87,62.5
			c0.7,0.3,1,1.1,0.7,1.8C1080.6,559.4,1080.1,559.8,1079.6,559.8z"/>
	</g>
	<g>
		<polyline style="fill:#F6F5F8;" points="986.8,396.9 1006,411.8 1012.7,404.4 1023.3,411.8 1032.3,396.9 		"/>
		<path d="M1023.7,413.7l-10.8-7.6l-6.7,7.5L986,397.9c-0.6-0.5-0.7-1.3-0.2-1.9s1.3-0.7,1.9-0.2l18.2,14.1l6.6-7.4l10.4,7.3
			l8.3-13.7c0.4-0.6,1.2-0.8,1.8-0.5c0.6,0.4,0.8,1.2,0.5,1.8L1023.7,413.7z"/>
	</g>
	<g>
		<polygon style="fill:#AE5694;" points="1012.7,425.2 1006,411.8 1012.7,404.4 1023.3,411.8 1018.1,425.2 1048.6,484.3 
			1017.8,475.8 		"/>
		<path d="M1051.2,486.4l-34.7-9.6l-5.1-51.3l-6.9-14l8.1-9l12.4,8.7l-5.4,13.8L1051.2,486.4z M1019,474.8l26.9,7.4l-29.4-56.9l5-13
			l-8.7-6.1l-5.2,5.9l6.4,13L1019,474.8z"/>
	</g>
	<g>
		<path d="M1001.2,504.3c-0.1,0-0.2,0-0.4-0.1l-27.7-7.9l-12.1-30l-4.2-5.5c-0.4-0.6-0.3-1.4,0.3-1.9s1.4-0.3,1.9,0.3l4.5,6
			l11.7,28.9l26.4,7.5c0.7,0.2,1.1,0.9,0.9,1.7C1002.4,503.9,1001.8,504.3,1001.2,504.3z"/>
	</g>
	<polygon points="1038.7,905 1056.6,893.3 1089.6,908.8 	"/>
	<polygon points="934.5,905 922.9,893.3 898.7,913 	"/>
	
		<linearGradient id="SVGID_00000129888870388592030120000016773836841785315491_" gradientUnits="userSpaceOnUse" x1="892.4962" y1="1309.8923" x2="1161.1368" y2="1309.8923" gradientTransform="matrix(1 0 0 -1 0 1560)">
		<stop  offset="0" style="stop-color:#FFCC99"/>
		<stop  offset="1" style="stop-color:#FF9999"/>
	</linearGradient>
	
		<path style="fill:url(#SVGID_00000129888870388592030120000016773836841785315491_);stroke:#000000;stroke-width:2;stroke-miterlimit:10;" d="
		M1003.3,145.1c0,0,85.6,1.8,141.4,44.9c0,0,13.5-7.2,16.1-6.4s-10.7,16.9-10.7,16.9s10.1,92.3-18,128c0,0,18.3-1.4,16.3,4.9
		s-38,12.2-38,12.2S1012,409.4,928,329.2c0,0-43.5-5.4-34.2-13.4s21.5-6.1,21.5-6.1s-16.1-128.6,62.5-156c0,0,1.1-16.7,3.1-15.3
		c2.1,1.4,4.9,10.8,4.9,10.8s7.3-22,9.8-18.2C998,134.9,1003.3,145.1,1003.3,145.1z"/>
	<g>
		<path style="fill:#AF5740;stroke:#000000;stroke-width:2;stroke-miterlimit:10;" d="M987.2,178.7l16.8,10.5
			c0,0,77.6,39.8,130,27.3l-1.9,112.1c28.1-35.7,18-128,18-128s13.3-16.1,10.7-16.9c-2.6-0.8-16.1,6.4-16.1,6.4
			c-55.7-43.1-141.4-44.9-141.4-44.9s-5.2-10.2-7.7-14.1c-2.4-3.8-9.8,18.2-9.8,18.2s-2.8-9.4-4.9-10.8c-2.1-1.4-3.1,15.3-3.1,15.3
			c-78.6,27.4-62.5,156-62.5,156S947.6,210.2,987.2,178.7z"/>
	</g>
	<g>
		<path style="fill:#AF5740;stroke:#000000;stroke-width:2;stroke-miterlimit:10;" d="M1037.5,238.3c-0.3,0-0.5-0.1-0.8-0.2
			c-30.5-13.2-58.2-6.7-58.5-6.7c-1.1,0.3-2.2-0.4-2.4-1.5c-0.3-1.1,0.4-2.2,1.5-2.4c1.2-0.3,29.2-6.9,61,6.9c1,0.4,1.5,1.6,1,2.6
			C1039,237.9,1038.3,238.3,1037.5,238.3z"/>
	</g>
	<g>
		<path style="fill:#AF5740;stroke:#000000;stroke-width:2;stroke-miterlimit:10;" d="M1114.1,248.3c-0.6,0-1.2-0.2-1.6-0.6
			c-17.8-15.6-44.5-7-44.8-6.9c-1.3,0.4-2.7-0.3-3.2-1.6c-0.4-1.3,0.3-2.7,1.6-3.2c1.2-0.4,29.7-9.5,49.6,7.9c1,0.9,1.1,2.5,0.2,3.5
			C1115.5,248,1114.8,248.3,1114.1,248.3z"/>
	</g>
	<g>
		<path d="M1047,301.3c-0.4,0-0.9-0.3-1-0.8s0.2-1.1,0.7-1.2c8.6-2.2,15.3-7.4,16.7-11.1c0-0.1,0-0.2,0-0.2c-0.8-1-8.4-0.3-16.3,1.5
			l-1.2,0.3v-41.5c0-0.6,0.4-1,1-1s1,0.4,1,1v39c13.6-3,16.5-1.2,17.1-0.5c0.3,0.3,0.7,1.1,0.3,2.1c-1.9,4.9-9.7,10.3-18.1,12.4
			C1047.1,301.3,1047.1,301.3,1047,301.3z"/>
	</g>
	<g>
		<path d="M1059.5,343c-30.7,0-55.5-9.4-71.8-18c-20.7-10.9-32.5-22.9-32.6-23c-0.4-0.4-0.4-1,0-1.4s1-0.4,1.4,0
			c0.5,0.5,47,47.2,118.7,39.6c0.6-0.1,1,0.3,1.1,0.9c0.1,0.5-0.3,1-0.9,1.1C1069.9,342.8,1064.6,343,1059.5,343z"/>
	</g>
	<g>
		<path d="M1116.6,338.8c-0.2,0-0.4-0.1-0.5-0.3c-0.1-0.2,0-0.5,0.2-0.7c0.1-0.1,12.3-5.9,26.3-5.2c0.3,0,0.5,0.2,0.5,0.5
			s-0.2,0.5-0.5,0.5c-13.7-0.7-25.7,5-25.8,5.1C1116.7,338.8,1116.7,338.8,1116.6,338.8z"/>
	</g>
	
		<linearGradient id="SVGID_00000176731596566244553910000012827187739908129153_" gradientUnits="userSpaceOnUse" x1="963.3129" y1="1080.2208" x2="992.0087" y2="1080.2208" gradientTransform="matrix(1 0 0 -1 0 1560)">
		<stop  offset="0" style="stop-color:#FFCC99"/>
		<stop  offset="1" style="stop-color:#FF9999"/>
	</linearGradient>
	
		<path style="fill:url(#SVGID_00000176731596566244553910000012827187739908129153_);stroke:#000000;stroke-width:2;stroke-miterlimit:10;" d="
		M963.3,467c0,0,15.5-6.5,26.1,0.9c0,0,3.6,21.2,2.4,27.3l-17.8-0.4L963.3,467z"/>
	
		<linearGradient id="SVGID_00000078014695865315113210000004877006897656004789_" gradientUnits="userSpaceOnUse" x1="1061.4434" y1="1077.7932" x2="1100.1909" y2="1077.7932" gradientTransform="matrix(1 0 0 -1 0 1560)">
		<stop  offset="0" style="stop-color:#FFCC99"/>
		<stop  offset="1" style="stop-color:#FF9999"/>
	</linearGradient>
	
		<path style="fill:url(#SVGID_00000078014695865315113210000004877006897656004789_);stroke:#000000;stroke-width:2;stroke-miterlimit:10;" d="
		M1061.4,486.8c0,0,3.4-16.5,9.4-17.2c17.3,1.1,29.3,12.2,29.3,12.2s-17.4,15.6-22.5,12.6C1072.5,491.4,1061.4,486.8,1061.4,486.8z"
		/>
	
		<linearGradient id="SVGID_00000073687822387663523650000008721093102546353082_" gradientUnits="userSpaceOnUse" x1="1076.0538" y1="480.1874" x2="1096.3256" y2="480.1874">
		<stop  offset="0" style="stop-color:#FFCC99"/>
		<stop  offset="1" style="stop-color:#FF9999"/>
	</linearGradient>
	
		<path style="fill:url(#SVGID_00000073687822387663523650000008721093102546353082_);stroke:#000000;stroke-width:2;stroke-linecap:round;stroke-miterlimit:10;" d="
		M1076,475.7c0,0,10.3,2.8,20.3,8.9"/>
	
		<linearGradient id="SVGID_00000153675480630508497260000004268601173407247234_" gradientUnits="userSpaceOnUse" x1="1073.2526" y1="485.7796" x2="1088.9807" y2="485.7796">
		<stop  offset="0" style="stop-color:#FFCC99"/>
		<stop  offset="1" style="stop-color:#FF9999"/>
	</linearGradient>
	
		<path style="fill:url(#SVGID_00000153675480630508497260000004268601173407247234_);stroke:#000000;stroke-width:2;stroke-linecap:round;stroke-miterlimit:10;" d="
		M1073.2,481.8c0,0,8.9,2.6,15.7,7.9"/>
</g>
<g id="eyes">
	<g id="f2">
		<g>
			<path d="M990.1,251.1c-0.4,0-0.8-0.2-0.9-0.6c-0.2-0.5,0-1.1,0.5-1.3c0.3-0.1,6.6-2.9,15.2-4.3c11.4-1.9,21.3-0.4,28.5,4.4
				c0.5,0.3,0.6,0.9,0.3,1.4c-0.3,0.5-0.9,0.6-1.4,0.3c-16.4-10.9-41.5,0-41.8,0.1C990.3,251.1,990.2,251.1,990.1,251.1z"/>
		</g>
		<g>
			<path d="M1111.7,258.3c-0.1,0-0.2,0-0.4-0.1c-13.9-5.3-24.1-5.1-30.2-3.9c-6.6,1.2-10.1,3.8-10.1,3.8c-0.4,0.3-1.1,0.2-1.4-0.2
				c-0.3-0.4-0.2-1.1,0.2-1.4c0.6-0.4,14.6-10.7,42.3-0.1c0.5,0.2,0.8,0.8,0.6,1.3C1112.5,258.1,1112.1,258.3,1111.7,258.3z"/>
		</g>

			<animate  accumulate="none" additive="replace" attributeName="display" begin="0s"
					calcMode="linear" dur="3s" fill="remove" id="eyes                                 
					" keyTimes="0; 0.8;  1" repeatCount="indefinite" restart="always" values="none;inline;none">
			</animate>

		
	</g>
	<g id="f1">
		<g>
			<circle style="stroke:#000000;stroke-miterlimit:10;" cx="1011" cy="249" r="10"/>
			<circle style="fill:#FFFFFF;" cx="1011.9" cy="248.4" r="3.1"/>
		</g>
		<g>
			<circle style="stroke:#000000;stroke-miterlimit:10;" cx="1093.2" cy="256.8" r="10"/>
			<circle style="fill:#FFFFFF;" cx="1094.2" cy="256.1" r="3.1"/>
		</g>
				<animate  accumulate="none" additive="replace" attributeName="display" begin="0s"
					calcMode="linear" dur="3s" fill="remove" id="eyes                                 
					" keyTimes="0; 0.8;  1" repeatCount="indefinite" restart="always" values="inline;none;none">
			</animate>
		
	</g>
</g>
<g id="social">
	<g id="sales">
		<g>
			<circle style="fill:#F6F5F8;stroke:#000000;stroke-width:2;stroke-miterlimit:10;" cx="200.9" cy="585.5" r="52.7"/>
			<path style="opacity:0.31;fill:#CCCCCC;enable-background:new    ;" d="M206.3,626.5c-26.4,0-47.7-21.3-47.7-47.7
				c0-8.6,2.2-16.7,6.1-23.6c-7.8,8.3-12.7,19.9-12.7,32.3c0,26.4,21.3,47.7,47.7,47.7c17.7,0,33.5-9.6,41.6-24.2
				C232.8,620.4,220.3,626.5,206.3,626.5z"/>
		</g>
		<g>
			<path style="fill:#00A1E0;" d="M196.5,567.3c2-2.1,4.9-3.5,7.9-3.5c4.1,0,7.7,2.3,9.6,5.7c1.6-0.7,3.5-1.2,5.5-1.2
				c7.4,0,13.6,6,13.6,13.7c0,7.4-6,13.7-13.6,13.7c-0.8,0-1.9-0.1-2.5-0.2c-1.8,3.1-5,5.1-8.6,5.1c-1.5,0-3.1-0.3-4.3-1.1
				c-1.8,3.9-5.7,6.9-10.2,6.9c-4.9,0-9-3.2-10.7-7.3c-0.7,0.1-1.4,0.2-2.1,0.2c-5.8,0-10.5-4.6-10.5-10.7c0-3.8,2.1-7.3,5.3-9.2
				c-0.6-1.5-1.1-3.2-1.1-4.9c0-6.8,5.5-12.3,12.3-12.3C190.5,562.4,194.1,564.3,196.5,567.3"/>
			<path style="fill:#FFFFFF;" d="M179.5,585.4l0.2-0.7c0-0.1,0.1-0.1,0.1,0l0.2,0.1c0.7,0.4,1.5,0.4,1.6,0.4c0.4,0,0.8-0.2,0.8-0.7
				l0,0c0-0.3-0.4-0.6-1.2-0.7h-0.1c-0.8-0.2-1.8-0.6-1.8-1.6l0,0c0-1.1,0.8-1.8,2-1.8h0.1c0.7,0,1.4,0.2,1.9,0.4l0.1,0.1l-0.2,0.7
				c0,0.1-0.1,0-0.1,0c-0.3-0.2-1.2-0.3-1.6-0.3c-0.4,0-0.8,0.2-0.8,0.6l0,0c0,0.3,0.4,0.6,1.3,0.7h0.1c0.8,0.2,1.8,0.6,1.8,1.6l0,0
				c0,1.2-0.7,1.8-2.1,1.8c-0.6,0-1.3-0.1-1.9-0.3c-0.1-0.1-0.2-0.1-0.3-0.2C179.5,585.5,179.5,585.4,179.5,585.4L179.5,585.4z
				 M198.3,585.4l0.2-0.7c0-0.1,0.1-0.1,0.1,0l0.2,0.1c0.7,0.4,1.5,0.4,1.6,0.4c0.4,0,0.8-0.2,0.8-0.7l0,0c0-0.3-0.4-0.6-1.2-0.7
				h-0.1c-0.8-0.2-1.8-0.6-1.8-1.6l0,0c0-1.1,0.8-1.8,2-1.8h0.1c0.7,0,1.4,0.2,1.9,0.4l0.1,0.1l-0.2,0.7c0,0.1-0.1,0-0.1,0
				c-0.3-0.2-1.2-0.3-1.6-0.3c-0.4,0-0.8,0.2-0.8,0.6l0,0c0,0.3,0.4,0.6,1.3,0.7h0.1c0.8,0.2,1.8,0.6,1.8,1.6l0,0
				c0,1.2-0.7,1.8-2.1,1.8c-0.6,0-1.3-0.1-1.9-0.3c-0.1-0.1-0.2-0.1-0.3-0.2L198.3,585.4L198.3,585.4z M212.1,581.9
				c0.1,0.3,0.1,0.7,0.1,1.2c0,0.3,0,0.7-0.1,1.2c-0.1,0.3-0.2,0.6-0.4,0.8s-0.4,0.4-0.8,0.6c-0.3,0.1-0.7,0.2-1.2,0.2
				c-0.3,0-0.8-0.1-1.2-0.2c-0.3-0.1-0.6-0.3-0.8-0.6s-0.3-0.6-0.4-0.8c-0.1-0.2-0.1-0.7-0.1-1.2c0-0.3,0-0.7,0.1-1.2
				c0.1-0.3,0.2-0.6,0.4-0.8s0.4-0.4,0.8-0.6c0.3-0.1,0.7-0.2,1.2-0.2c0.3,0,0.8,0.1,1.2,0.2c0.3,0.1,0.6,0.3,0.8,0.6
				S212.1,581.6,212.1,581.9z M211.2,583.1c0-0.6-0.1-1.2-0.3-1.5s-0.6-0.4-1.1-0.4c-0.4,0-0.8,0.1-1.1,0.4
				c-0.2,0.3-0.3,0.8-0.3,1.5c0,0.6,0.1,1.2,0.3,1.5s0.4,0.4,1.1,0.4c0.4,0,0.8-0.1,1.1-0.4C211.1,584.2,211.2,583.8,211.2,583.1z
				 M221.1,585l0.2,0.7c0,0.1,0,0.1,0,0.1c-0.3,0.1-1.1,0.2-1.5,0.2c-0.8,0-1.6-0.2-2.1-0.7c-0.4-0.4-0.7-1.3-0.7-2.1
				c0-0.3,0-0.7,0.1-1.2c0.1-0.3,0.2-0.6,0.4-0.8s0.4-0.4,0.8-0.6c0.3-0.1,0.7-0.2,1.3-0.2c0.2,0,0.4,0,0.7,0c0.2,0,0.6,0.1,0.7,0.2
				c0,0,0.1,0,0.1,0.1l-0.2,0.7c0,0.1-0.1,0.1-0.1,0.1c-0.3-0.1-0.7-0.1-1.2-0.1c-0.4,0-0.8,0.1-1.3,0.4c-0.2,0.3-0.3,0.7-0.3,1.4
				s0.1,1.2,0.4,1.5c0.3,0.3,0.7,0.4,1.3,0.4c0.2,0,0.3,0,0.6,0C220.7,585,220.8,584.9,221.1,585C221,584.9,221.1,584.9,221.1,585
				L221.1,585z M226.5,581.7c0.2,0.8,0.1,1.5,0.1,1.6s-0.1,0.1-0.1,0.1h-3.6c0,0.4,0.1,0.8,0.3,1.3c0.2,0.2,0.6,0.3,1.3,0.3
				c0.8,0,1.3-0.1,1.5-0.2c0,0,0.1,0,0.1,0.1l0.2,0.6c0,0.1,0,0.1,0,0.1c-0.2,0.1-0.7,0.3-1.9,0.3c-0.4,0-1.1-0.1-1.4-0.2
				c-0.3-0.1-0.6-0.3-0.8-0.6s-0.3-0.6-0.4-0.8c-0.1-0.3-0.1-0.7-0.1-1.2c0-0.3,0-0.7,0.1-1.2c0.1-0.3,0.2-0.6,0.4-0.8
				s0.4-0.4,0.8-0.6c0.3-0.1,0.7-0.2,1.3-0.2c0.3,0,0.7,0.1,1.1,0.2c0.2,0.1,0.4,0.2,0.7,0.4C226.3,581.1,226.5,581.4,226.5,581.7
				L226.5,581.7z M222.9,582.4h2.5c0-0.3-0.1-0.6-0.2-0.8c-0.2-0.3-0.4-0.4-1.1-0.4s-0.8,0.2-1.1,0.4
				C223,581.8,223,582.2,222.9,582.4L222.9,582.4z M197.3,581.7c0.2,0.8,0.1,1.5,0.1,1.6s-0.1,0.1-0.1,0.1h-3.6
				c0,0.4,0.1,0.8,0.3,1.3c0.2,0.2,0.6,0.3,1.3,0.3c0.8,0,1.3-0.1,1.5-0.2c0,0,0.1,0,0.1,0.1l0.2,0.6c0,0.1,0,0.1,0,0.1
				c-0.2,0.1-0.7,0.3-1.9,0.3c-0.4,0-1.1-0.1-1.4-0.2c-0.3-0.1-0.6-0.3-0.8-0.6s-0.3-0.6-0.4-0.8c-0.1-0.3-0.1-0.7-0.1-1.2
				c0-0.3,0-0.7,0.1-1.2c0.1-0.3,0.2-0.6,0.4-0.8s0.4-0.4,0.8-0.6c0.4-0.2,0.7-0.2,1.3-0.2c0.3,0,0.7,0.1,1.1,0.2
				c0.2,0.1,0.4,0.2,0.7,0.4C197.1,581.1,197.3,581.4,197.3,581.7L197.3,581.7z M193.7,582.4h2.5c0-0.3-0.1-0.6-0.2-0.8
				c-0.2-0.3-0.4-0.4-1.1-0.4s-0.8,0.2-1.1,0.4C193.8,581.8,193.8,582.2,193.7,582.4z M187.4,582.3l0.6,0.1v-0.1
				c0-0.4-0.1-0.7-0.2-0.8c-0.2-0.1-0.4-0.2-0.8-0.2c0,0-0.8,0-1.6,0.3l0,0h-0.1l-0.2-0.7c0-0.1,0-0.1,0-0.1
				c0.3-0.2,1.2-0.3,1.2-0.3c0.2,0,0.7-0.1,1.1-0.1c0.7,0,1.3,0.1,1.6,0.4s0.6,0.8,0.6,1.6v3.4c0,0,0,0.1-0.1,0.1c0,0-0.1,0-0.2,0.1
				l-0.8,0.1c-0.3,0.1-0.7,0.1-1.2,0.1c-0.3,0-0.6,0-1.1-0.1c-0.2-0.1-0.4-0.1-0.7-0.3c-0.2-0.1-0.3-0.3-0.4-0.6
				c-0.1-0.3-0.1-0.4-0.1-0.8c0-0.3,0.1-0.6,0.2-0.8c0.1-0.2,0.3-0.3,0.4-0.6c0.1-0.2,0.4-0.2,0.7-0.3c0.2-0.1,0.6-0.1,0.8-0.1
				L187.4,582.3L187.4,582.3z M185.8,584.9c0,0,0.3,0.2,1.2,0.2c0.4,0,1.1-0.1,1.1-0.1v-1.6c0,0-0.4-0.1-1.1-0.1
				c-0.7,0-1.2,0.2-1.2,0.2c-0.2,0.1-0.3,0.3-0.3,0.7c0,0.1,0,0.3,0.1,0.4C185.7,584.8,185.7,584.9,185.8,584.9z M216.7,580.4
				c0,0.1-0.2,0.6-0.2,0.7s-0.1,0.1-0.1,0.1s-0.2,0-0.3,0s-0.3,0-0.4,0.1c-0.1,0-0.3,0.1-0.4,0.2c-0.1,0.1-0.2,0.3-0.3,0.4
				c-0.1,0.2-0.1,0.6-0.1,1.1v2.6c0,0.1,0,0.1-0.1,0.1h-1.1c-0.1,0-0.1,0-0.1-0.1v-5.5c0-0.1,0-0.1,0.1-0.1h0.8c0.1,0,0.1,0,0.1,0.1
				v0.3c0.1-0.2,0.3-0.3,0.6-0.4c0.2-0.1,0.4-0.1,0.8-0.1c0.2,0,0.4,0.1,0.6,0.1C216.7,580.3,216.7,580.3,216.7,580.4L216.7,580.4z
				 M207.7,578C207.8,578,207.8,578,207.7,578l-0.2,0.8c0,0,0,0.1-0.1,0c0,0-0.1,0-0.2,0c-0.1,0-0.2,0-0.2,0c-0.1,0-0.2,0-0.3,0
				s-0.2,0.1-0.3,0.2c-0.1,0.1-0.2,0.2-0.2,0.3c-0.1,0.3-0.2,0.7-0.2,0.8h1.2c0.1,0,0.1,0,0.1,0.1l-0.1,0.7c0,0.1-0.1,0.1-0.1,0.1
				h-1.3l-0.7,4.5c-0.1,0.4-0.2,0.8-0.3,1.3c-0.1,0.3-0.2,0.6-0.4,0.8s-0.3,0.3-0.6,0.4c-0.2,0.1-0.4,0.1-0.8,0.1
				c-0.1,0-0.3,0-0.4,0s-0.2,0-0.3-0.1c0,0-0.1-0.1,0-0.1l0.2-0.7c0-0.1,0.1,0,0.1,0l0.2,0.1c0.1,0,0.2,0,0.2,0c0.1,0,0.3,0,0.3-0.1
				c0.1,0,0.2-0.1,0.3-0.2c0.1-0.1,0.1-0.2,0.2-0.4c0.1-0.2,0.1-0.6,0.2-0.8l0.8-4.5h-0.7c-0.1,0-0.1,0-0.1-0.1l0.1-0.7
				c0-0.1,0.1-0.1,0.1-0.1h0.8v-0.2c0.1-0.7,0.3-1.3,0.7-1.6s0.8-0.4,1.5-0.4c0.2,0,0.3,0,0.4,0C207.6,577.9,207.7,577.9,207.7,578
				L207.7,578z M191.4,585.9C191.4,585.9,191.3,586,191.4,585.9l-1.2,0.1c-0.1,0-0.1,0-0.1-0.1v-7.7c0,0,0-0.1,0.1-0.1h1.1
				c0.1,0,0.1,0,0.1,0.1L191.4,585.9L191.4,585.9z"/>
		</g>
	</g>
	<g id="zen">
		<g id="lime">
			
				<ellipse style="fill:#F6F5F8;stroke:#000000;stroke-width:2;stroke-miterlimit:9.9996;" cx="92.2" cy="691.8" rx="55.6" ry="55.6"/>
			<path style="opacity:0.31;fill:#CCCCCC;enable-background:new    ;" d="M98,735.2c-27.9,0-50.4-22.4-50.4-50.4
				c0-9,2.4-17.6,6.6-24.9c-8.2,8.9-13.3,21-13.3,34c0,27.9,22.4,50.4,50.4,50.4c18.7,0,35.2-10.2,43.8-25.6
				C126,728.8,112.7,735.2,98,735.2z"/>
		</g>
		<g>
			
				<ellipse transform="matrix(0.9985 -5.530041e-02 5.530041e-02 0.9985 -38.1161 6.1573)" style="fill:#03363D;" cx="92.2" cy="691.8" rx="36.8" ry="36.8"/>
			<path style="fill:#FFFFFF;" d="M91.1,686.3v17.9H76.4L91.1,686.3z M91.1,680c0,4-3.3,7.3-7.3,7.3c-4,0-7.3-3.3-7.3-7.3H91.1
				L91.1,680z M93.5,704c0-4,3.3-7.3,7.3-7.3s7.3,3.3,7.3,7.3H93.5z M93.5,697.5v-17.8h14.7L93.5,697.5z"/>
		</g>
	</g>
	<g id="zoom">
		<g>
			<circle style="fill:#F6F5F8;stroke:#000000;stroke-width:2;stroke-miterlimit:10;" cx="264.6" cy="110" r="51.8"/>
			<path style="opacity:0.31;fill:#CCCCCC;enable-background:new    ;" d="M270,150.4c-26,0-47-21.1-47-47c0-8.4,2.2-16.4,6.2-23.3
				c-7.6,8.3-12.4,19.5-12.4,31.7c0,26,21.1,47,47,47c17.6,0,32.9-9.5,40.8-23.8C295.9,144.4,283.7,150.4,270,150.4z"/>
		</g>
		<g>
			
				<linearGradient id="SVGID_00000072245143802563690500000013767220699651034504_" gradientUnits="userSpaceOnUse" x1="287.3032" y1="-885.4379" x2="287.3032" y2="-918.5015" gradientTransform="matrix(1 0 0 1 0 1012)">
				<stop  offset="5.586592e-03" style="stop-color:#287CF7"/>
				<stop  offset="1" style="stop-color:#2D8CFF"/>
			</linearGradient>
			<path style="fill:url(#SVGID_00000072245143802563690500000013767220699651034504_);" d="M290.6,93.5c-0.8,0-1.5,0.3-2.1,0.8
				l-5.6,5.6c-1.3,1.3-1.8,2.7-1.8,4.3v11.4c0,1.6,0.7,3.3,1.8,4.3l5.6,5.6c0.5,0.5,1.3,0.8,2.1,0.8l0,0c1.6,0,2.9-1.4,2.9-2.9V110
				V96.4C293.7,94.9,292.3,93.5,290.6,93.5L290.6,93.5z"/>
			
				<linearGradient id="SVGID_00000140736383961450972400000011122458561074643640_" gradientUnits="userSpaceOnUse" x1="256.342" y1="-885.4465" x2="256.342" y2="-918.5283" gradientTransform="matrix(1 0 0 1 0 1012)">
				<stop  offset="5.586592e-03" style="stop-color:#287CF7"/>
				<stop  offset="1" style="stop-color:#2D8CFF"/>
			</linearGradient>
			<path style="fill:url(#SVGID_00000140736383961450972400000011122458561074643640_);" d="M239.8,93.5c-2.4,0-4.1,1.9-4.1,4.1
				v18.6c0,5.7,4.6,10.3,10.3,10.3h26.8c2.4,0,4.1-1.9,4.1-4.1v-18.6c0-5.7-4.6-10.3-10.3-10.3H239.8z"/>
		</g>
	</g>
	<g id="linkedin">
		<g>
			<circle style="fill:#F6F5F8;stroke:#000000;stroke-width:2;stroke-miterlimit:10;" cx="89.6" cy="241.9" r="52.9"/>
			<path style="opacity:0.31;fill:#CCCCCC;enable-background:new    ;" d="M94.9,283.2c-26.6,0-48.1-21.5-48.1-48.1
				c0-8.6,2.3-16.8,6.3-23.7c-7.9,8.5-12.6,19.9-12.6,32.5c0,26.6,21.5,48.1,48.1,48.1c17.9,0,33.5-9.8,41.8-24.4
				C121.6,277.1,109,283.2,94.9,283.2z"/>
		</g>
		<g>
			<g>
				<path style="fill:#2A66B2;" d="M78.8,221.3c0,2.6-1.6,4.7-4.7,4.7c-2.8,0-4.7-2.1-4.7-4.4c0-2.6,1.8-4.8,4.7-4.8
					C76.9,216.6,78.8,218.7,78.8,221.3z"/>
				<rect x="69.4" y="228.2" style="fill:#2A66B2;" width="9.2" height="30.1"/>
				<path style="fill:#2A66B2;" d="M101,228.7c-4.8,0-7.7,2.8-8.8,4.7h-0.3l-0.4-4h-8.4c0,2.6,0.3,5.5,0.3,9.1v19.9h9.2v-16.5
					c0-0.9,0-1.6,0.3-2.3c0.7-1.6,1.8-3.7,4.4-3.7c3.3,0,4.7,2.8,4.7,6.5v16h9.2v-17.2C111.2,232.6,106.8,228.7,101,228.7z"/>
			</g>
		</g>
	</g>
	<g id="slack">
		<g>
			<circle style="fill:#F6F5F8;stroke:#000000;stroke-width:2;stroke-miterlimit:10;" cx="204.4" cy="367" r="55.2"/>
			<path style="opacity:0.31;fill:#CCCCCC;enable-background:new    ;" d="M209.9,410c-27.7,0-50.1-22.5-50.1-50.1
				c0-9.1,2.3-17.5,6.5-24.8c-8.1,8.9-13.2,20.8-13.2,33.9c0,27.7,22.5,50.1,50.1,50.1c18.6,0,34.9-10.2,43.6-25.4
				C237.7,403.7,224.5,410,209.9,410z"/>
		</g>
		<g>
			<path style="fill:#E1185A;" d="M172.1,375.2c0.4,8.8,12.9,8.8,13.4,0v-6.7h-6.7C175.1,368.5,172.1,371.6,172.1,375.2z"/>
			<path style="fill:#2BB77D;" d="M212.3,365.1c3.6,0,6.7-3,6.7-6.7v-16.7c-0.4-8.8-12.9-8.8-13.4,0v16.7
				C205.6,362.1,208.6,365.1,212.3,365.1z"/>
			<path style="fill:#E1185A;" d="M195.5,368.5c-3.6,0-6.7,3-6.7,6.7v16.7c0.4,8.8,12.9,8.8,13.4,0v-16.7
				C202.2,371.6,199.2,368.5,195.5,368.5z"/>
			<path style="fill:#2BB77D;" d="M235.7,358.5c-0.4-8.8-12.9-8.8-13.4,0v6.7h6.7C232.7,365.1,235.7,362.1,235.7,358.5z"/>
			<path style="fill:#33C6F1;" d="M178.8,365.1h16.7c8.8-0.4,8.8-12.9,0-13.4h-16.7C170,352.2,170,364.7,178.8,365.1z"/>
			<path style="fill:#EDB429;" d="M212.3,385.2h-6.7v6.7c0,3.6,3,6.7,6.7,6.7C221.1,398.2,221,385.6,212.3,385.2z"/>
			<path style="fill:#EDB429;" d="M229,368.5h-16.7c-8.8,0.4-8.8,12.9,0,13.4H229C237.8,381.5,237.8,368.9,229,368.5z"/>
			<path style="fill:#33C6F1;" d="M195.5,335.1c-8.8,0.4-8.8,12.9,0,13.3h6.7v-6.7C202.2,338.1,199.2,335.1,195.5,335.1z"/>
		</g>
	</g>
	<g id="gmail">
		<g>
			<circle style="fill:#F6F5F8;stroke:#000000;stroke-width:2;stroke-miterlimit:10;" cx="79.8" cy="481" r="52"/>
			<path style="opacity:0.31;fill:#CCCCCC;enable-background:new    ;" d="M85,521.6c-26.2,0-47.3-21.1-47.3-47.3
				c0-8.5,2.3-16.5,6.2-23.3c-7.7,8.4-12.4,19.6-12.4,31.9c0,26.2,21.1,47.3,47.3,47.3c17.6,0,32.9-9.6,41.1-23.9
				C111.3,515.7,98.9,521.6,85,521.6z"/>
		</g>
		<g>
			<path style="fill:#E75A4D;" d="M106.5,460.1c2.9,0,5.2,2.4,5.2,5.2v1.5l-7.3,5.2l-24.8,17.1l-24.8-17.2v34.5h-1.9
				c-2.9,0-5.2-2.4-5.2-5.2v-35.8c0-2.9,2.4-5.2,5.2-5.2l26.6,19.7L106.5,460.1L106.5,460.1L106.5,460.1z"/>
			
				<linearGradient id="SVGID_00000074437956358840851600000010254893062695983512_" gradientUnits="userSpaceOnUse" x1="-78530.8203" y1="-21490.0703" x2="-76604.875" y2="-21490.0703" gradientTransform="matrix(1.772698e-02 0 0 1.772698e-02 1454.8193 850.9022)">
				<stop  offset="0" style="stop-color:#F8F6EF"/>
				<stop  offset="1" style="stop-color:#E7E4D6"/>
			</linearGradient>
			<path style="fill:url(#SVGID_00000074437956358840851600000010254893062695983512_);" d="M53,460.1l26.6,19.7l26.8-19.7H53z"/>
			<path style="fill:#E7E4D7;" d="M54.9,471.9v34.5h49.5v-34.3l-24.8,17.1L54.9,471.9z"/>
			<path style="fill:#B8B7AE;" d="M54.9,506.3l24.8-17.2l-0.1-0.1l-24.7,16.9V506.3z"/>
			<path style="fill:#B7B6AD;" d="M104.4,472v34.3l-24.8-17.2L104.4,472z"/>
			<path style="fill:#B2392F;" d="M111.7,466.9v34.3c-0.1,3.8-1.8,5.2-7.3,5.2v-34.3L111.7,466.9L111.7,466.9L111.7,466.9z"/>
			
				<linearGradient id="SVGID_00000057831922803475422690000012675361420963030947_" gradientUnits="userSpaceOnUse" x1="-78530.8203" y1="-21490.0703" x2="-76604.875" y2="-21490.0703" gradientTransform="matrix(1.772698e-02 0 0 1.772698e-02 1454.8193 850.9022)">
				<stop  offset="0" style="stop-color:#F8F6EF"/>
				<stop  offset="1" style="stop-color:#E7E4D6"/>
			</linearGradient>
			<path style="fill:url(#SVGID_00000057831922803475422690000012675361420963030947_);" d="M53,460.1l26.6,19.7l26.8-19.7H53z"/>
			
				<linearGradient id="SVGID_00000140694549285026616550000000385272380977201838_" gradientUnits="userSpaceOnUse" x1="-78530.8203" y1="-21490.0703" x2="-76604.875" y2="-21490.0703" gradientTransform="matrix(1.772698e-02 0 0 1.772698e-02 1454.8193 850.9022)">
				<stop  offset="0" style="stop-color:#F8F6EF"/>
				<stop  offset="1" style="stop-color:#E7E4D6"/>
			</linearGradient>
			<path style="fill:url(#SVGID_00000140694549285026616550000000385272380977201838_);" d="M53,460.1l26.6,19.7l26.8-19.7H53z"/>
			
				<linearGradient id="SVGID_00000047025287603283997700000004857655489544434322_" gradientUnits="userSpaceOnUse" x1="-78530.8203" y1="-21490.0703" x2="-76604.875" y2="-21490.0703" gradientTransform="matrix(1.772698e-02 0 0 1.772698e-02 1454.8193 850.9022)">
				<stop  offset="0" style="stop-color:#F8F6EF"/>
				<stop  offset="1" style="stop-color:#E7E4D6"/>
			</linearGradient>
			<path style="fill:url(#SVGID_00000047025287603283997700000004857655489544434322_);" d="M53,460.1l26.6,19.7l26.8-19.7H53z"/>
			
				<linearGradient id="SVGID_00000078005021565950020830000001537289736442979716_" gradientUnits="userSpaceOnUse" x1="-78530.8203" y1="-21490.0703" x2="-76604.875" y2="-21490.0703" gradientTransform="matrix(1.772698e-02 0 0 1.772698e-02 1454.8193 850.9022)">
				<stop  offset="0" style="stop-color:#F8F6EF"/>
				<stop  offset="1" style="stop-color:#E7E4D6"/>
			</linearGradient>
			<path style="fill:url(#SVGID_00000078005021565950020830000001537289736442979716_);" d="M53,460.1l26.6,19.7l26.8-19.7H53z"/>
			
				<linearGradient id="SVGID_00000159431338566290722480000006413874332474222526_" gradientUnits="userSpaceOnUse" x1="-78530.8203" y1="-21490.0703" x2="-76604.875" y2="-21490.0703" gradientTransform="matrix(1.772698e-02 0 0 1.772698e-02 1454.8193 850.9022)">
				<stop  offset="0" style="stop-color:#F8F6EF"/>
				<stop  offset="1" style="stop-color:#E7E4D6"/>
			</linearGradient>
			<path style="fill:url(#SVGID_00000159431338566290722480000006413874332474222526_);" d="M53,460.1l26.6,19.7l26.8-19.7H53z"/>
			
				<linearGradient id="SVGID_00000059309451981806618010000012798551001592865922_" gradientUnits="userSpaceOnUse" x1="-78530.8203" y1="-21490.0703" x2="-76604.875" y2="-21490.0703" gradientTransform="matrix(1.772698e-02 0 0 1.772698e-02 1454.8193 850.9022)">
				<stop  offset="0" style="stop-color:#F8F6EF"/>
				<stop  offset="1" style="stop-color:#E7E4D6"/>
			</linearGradient>
			<path style="fill:url(#SVGID_00000059309451981806618010000012798551001592865922_);" d="M53,460.1l26.6,19.7l26.8-19.7H53z"/>
			
				<linearGradient id="SVGID_00000149371180400791869890000000173886924436613778_" gradientUnits="userSpaceOnUse" x1="-78530.8203" y1="-21490.0703" x2="-76604.875" y2="-21490.0703" gradientTransform="matrix(1.772698e-02 0 0 1.772698e-02 1454.8193 850.9022)">
				<stop  offset="0" style="stop-color:#F8F6EF"/>
				<stop  offset="1" style="stop-color:#E7E4D6"/>
			</linearGradient>
			<path style="fill:url(#SVGID_00000149371180400791869890000000173886924436613778_);" d="M53,460.1l26.6,19.7l26.8-19.7H53z"/>
			<path style="fill:#F7F5ED;" d="M53,460.1l26.6,19.7l26.8-19.7H53z"/>
		</g>
	</g>
	<g id="hubspot">
		<g>
			
				<ellipse style="fill:#F6F5F8;stroke:#000000;stroke-width:2;stroke-miterlimit:10.0002;" cx="266.8" cy="805.2" rx="54" ry="54"/>
			<path style="opacity:0.31;fill:#CCCCCC;enable-background:new    ;" d="M272.2,847.3c-27.2,0-49.1-21.9-49.1-49.1
				c0-8.8,2.2-17,6.2-24.2c-8,8.6-13,20.4-13,33.1c0,27.2,21.9,49.1,49.1,49.1c18.3,0,34.4-9.8,42.8-24.9
				C299.7,841,286.7,847.3,272.2,847.3z"/>
		</g>
		<path style="fill:#F8761F;" d="M291.7,805.9c-1.5-2.6-3.7-4.8-6.2-6.2c-2.1-1.2-4-1.9-6.3-2.2v-8.4c2.3-1,3.9-3.2,3.9-5.7
			c0-3.5-2.8-6.2-6.2-6.2c-3.3,0-6.2,2.8-6.2,6.2c0,2.6,1.4,4.8,3.7,5.7v8.4c-1.9,0.3-3.9,0.8-5.7,1.8c-3.6-2.6-15.3-11.6-22.4-17
			c0.1-0.5,0.3-1.3,0.3-1.8c0-3.9-3.2-7-7-7s-7,3.2-7,7c0,3.9,3.2,7,7,7c1.4,0,2.6-0.3,3.6-1l1.5,1.2l20.1,14.6
			c-1,1-2.1,2.1-2.8,3.3c-1.5,2.6-2.6,5.3-2.6,8.4v0.6c0,2.1,0.4,4.1,1.2,6.1c0.5,1.7,1.5,3.2,2.6,4.4l-6.7,6.7
			c-2.1-0.8-4.1-0.3-5.7,1.3c-1,1-1.5,2.3-1.5,3.9s0.5,2.8,1.5,3.9c1,1,2.3,1.5,3.9,1.5c1.5,0,2.8-0.5,3.9-1.5s1.5-2.3,1.5-3.9
			c0-0.5-0.1-1.2-0.3-1.5l7-7c0.8,0.6,1.9,1.3,3.1,1.7c2.1,0.8,4.4,1.5,7.2,1.5h0.4c3,0,5.7-0.6,8.1-2.1c2.6-1.5,4.9-3.5,6.3-6.1
			c1.5-2.6,2.4-5.4,2.4-8.6v-0.1C293.9,811.3,293.2,808.5,291.7,805.9L291.7,805.9z M283.3,820.4c-1.9,2.1-4,3.3-6.3,3.3h-0.4
			c-1.4,0-2.6-0.3-4-1.2c-1.5-0.8-2.6-1.9-3.6-3.3c-1-1.4-1.5-2.8-1.5-4.4v-0.3c0-1.5,0.3-3.1,1-4.4c0.8-1.5,1.9-2.6,3.3-3.6
			c1.5-0.8,3-1.4,4.5-1.4h0.1c1.5,0,3,0.3,4.4,1s2.4,1.8,3.3,3.2c0.8,1.4,1.4,2.8,1.5,4.4c0,0.3,0,0.6,0,1
			C285.8,816.6,284.9,818.6,283.3,820.4L283.3,820.4z"/>
	</g>
</g>
</svg>
