<?xml version="1.0" encoding="utf-8"?>
<!-- Generator: Adobe Illustrator 27.1.1, SVG Export Plug-In . SVG Version: 6.00 Build 0)  -->
<svg version="1.1" id="Layer_1" xmlns="http://www.w3.org/2000/svg" xmlns:xlink="http://www.w3.org/1999/xlink" x="0px" y="0px"
	 viewBox="0 0 1265 951" style="enable-background:new 0 0 1265 951;" xml:space="preserve">
	 	 	 <style>


	#slack, #linkedin, #zoom, #zen, #mail, #sales, #gmail, #hubspot{
	animation:float 4s linear infinite;
	
	
}

	#squareline{
   fill:#F6F5F8;
   stroke:#000000;
   stroke-width:2;
   stroke-miterlimit:10;
    fill-opacity:0;
	stroke-dasharray: 2000;
  stroke-dashoffset: 2000;
    animation: drawlogo 2s ease infinite, showColor 1s ease infinite,  undrawlogo 2s ease infinite, hideColor;
  animation-delay: 2s, 3s, 8s,10s;
  animation-direction: alternate;
	
}

#line1,#line2{
 fill:none;
 stroke:#D5D8DD;
 stroke-width:6;
 stroke-linecap:round;
 stroke-miterlimit:10;
stroke-dasharray: 2000;
  stroke-dashoffset: 2000;
   animation: drawlogo 2s ease infinite, undrawlogo 2s ease infinite;
     animation-delay: 5s, 11s;
	 animation-direction: alternate;

}

#generateback{
	fill:#5F9CFF;
	stroke:#5F9CFF;
 stroke-width:3;
 fill-opacity:0;
	stroke-dasharray: 2000;
  stroke-dashoffset: 2000;
 animation: drawlogo 2s ease infinite, showColor 1s ease infinite,  undrawlogo 2s ease infinite;
  animation-delay: 6s, 7s,  11s;
   animation-direction: alternate;
}

#onboard{
	fill:#5F9CFF;
	stroke:#5F9CFF;
 stroke-width:1;
   fill-opacity:0;
	stroke-dasharray: 200;
  stroke-dashoffset: 200;
animation: drawletter 2s ease infinite, showColor 1s ease infinite,  undrawletter 2s ease infinite;
  animation-delay: 3s, 4s, 10s;
   animation-direction: alternate;
}

#actionback{
	fill:#E4E5E7;
	stroke:#E4E5E7;
	 fill-opacity:0;
	stroke-dasharray: 2000;
  stroke-dashoffset: 2000;
 stroke-width:3;
	 animation: drawlogo 2s ease infinite, showColor 1s ease infinite,  undrawlogo 2s ease infinite;
  animation-delay: 6s, 7s,  11s;
   animation-direction: alternate;
 
}

#action{
	fill:#5E5E5E;
	stroke:#5E5E5E;
	 stroke-width:1;
	 fill-opacity:0;
	 	stroke-dasharray: 2000;
  stroke-dashoffset: 2000;
    animation: drawlogo 2s ease forwards, showColor 1s ease forwards;
  animation-delay: 7s, 8s;
}

#generate{
	fill:#FFFFFF;
	stroke:#FFFFF;
	 stroke-width:1;
	 fill-opacity:0;
	stroke-dasharray: 2000;
  stroke-dashoffset: 2000;
	 animation: drawlogo 2s ease forwards, showColor 1s ease forwards;
  animation-delay: 6s, 7s;
}

@keyframes showColor{

	from{
    fill-opacity:0;
	} 
     to{
	 fill-opacity:1;	
	}

}


@keyframes hideColor{

	from{
    fill-opacity:1;
	} 
     to{
	 fill-opacity:0;	
	}

}






@keyframes drawlogo {
  from {
    stroke-dashoffset: 2000;
	}

  to {
	 stroke-dashoffset: 0;  
  }

}

@keyframes undrawlogo {
  from {
    stroke-dashoffset: 0;
	}

  to {
	 stroke-dashoffset: 2000;  
  }

}


@keyframes drawletter {
  from {
    stroke-dashoffset: 200;
	}

  to {
	 stroke-dashoffset: 0;  
  }

}

@keyframes undrawletter {
  from {
    stroke-dashoffset: 0;
	}

  to {
	 stroke-dashoffset: 200;  
  }

}




	 @keyframes float {
	0% {
		transform: translatey(0px);
	}
	50% {
		transform: translatey(-10px);
	}
	100% {
		transform: translatey(0px);
	}
}


@keyframes animate-down {
  to {
    stroke-dashoffset: 10;
  }
}
@-webkit-keyframes animate-down {
  to {
    stroke-dashoffset: 10;
  }
}

@keyframes animate-up {
  to {
    stroke-dashoffset: -10;
  }
}
@-webkit-keyframes animate-up {
  to {
    stroke-dashoffset: -10;
  }
}


	 </style>
<g id="hubspot">
	<g>
		<ellipse style="fill:#F6F5F8;stroke:#000000;stroke-width:2;stroke-miterlimit:10.0002;" cx="532.5" cy="225.3" rx="43" ry="43"/>
		<path style="opacity:0.31;fill:#CCCCCC;enable-background:new    ;" d="M536.8,258.8c-21.7,0-39.1-17.4-39.1-39.1
			c0-7,1.8-13.5,4.9-19.3c-6.4,6.9-10.4,16.3-10.4,26.4c0,21.7,17.4,39.1,39.1,39.1c14.6,0,27.4-7.8,34.1-19.8
			C558.7,253.8,548.4,258.8,536.8,258.8z"/>
	</g>
	<path style="fill:#F8761F;" d="M552.3,225.8c-1.2-2.1-2.9-3.8-4.9-4.9c-1.7-1-3.2-1.5-5-1.8v-6.7c1.8-0.8,3.1-2.5,3.1-4.5
		c0-2.8-2.2-4.9-4.9-4.9c-2.6,0-4.9,2.2-4.9,4.9c0,2.1,1.1,3.8,2.9,4.5v6.7c-1.5,0.2-3.1,0.6-4.5,1.4c-2.9-2.1-12.2-9.2-17.8-13.5
		c0.1-0.4,0.2-1,0.2-1.4c0-3.1-2.5-5.6-5.6-5.6s-5.6,2.5-5.6,5.6c0,3.1,2.5,5.6,5.6,5.6c1.1,0,2.1-0.2,2.9-0.8l1.2,1l16,11.6
		c-0.8,0.8-1.7,1.7-2.2,2.6c-1.2,2.1-2.1,4.2-2.1,6.7v0.5c0,1.7,0.3,3.3,1,4.9c0.4,1.4,1.2,2.5,2.1,3.5l-5.3,5.3
		c-1.7-0.6-3.3-0.2-4.5,1c-0.8,0.8-1.2,1.8-1.2,3.1s0.4,2.2,1.2,3.1c0.8,0.8,1.8,1.2,3.1,1.2c1.2,0,2.2-0.4,3.1-1.2s1.2-1.8,1.2-3.1
		c0-0.4-0.1-1-0.2-1.2l5.6-5.6c0.6,0.5,1.5,1,2.5,1.4c1.7,0.6,3.5,1.2,5.7,1.2h0.3c2.4,0,4.5-0.5,6.5-1.7c2.1-1.2,3.9-2.8,5-4.9
		c1.2-2.1,1.9-4.3,1.9-6.9v-0.1C554.1,230.1,553.5,227.9,552.3,225.8L552.3,225.8z M545.6,237.4c-1.5,1.7-3.2,2.6-5,2.6h-0.3
		c-1.1,0-2.1-0.2-3.2-1c-1.2-0.6-2.1-1.5-2.9-2.6c-0.8-1.1-1.2-2.2-1.2-3.5v-0.2c0-1.2,0.2-2.5,0.8-3.5c0.6-1.2,1.5-2.1,2.6-2.9
		c1.2-0.6,2.4-1.1,3.6-1.1h0.1c1.2,0,2.4,0.2,3.5,0.8c1.1,0.6,1.9,1.4,2.6,2.5c0.6,1.1,1.1,2.2,1.2,3.5c0,0.2,0,0.5,0,0.8
		C547.6,234.4,546.9,235.9,545.6,237.4L545.6,237.4z"/>
</g>
<polyline style="opacity:0.53;fill:#993399;enable-background:new    ;" points="538.4,-223.5 645.8,-226 671.9,-222.1 
	538.4,-222.1 "/>
<g id="sales">
	<g>
		<circle style="fill:#F6F5F8;stroke:#000000;stroke-width:2;stroke-miterlimit:10;" cx="386.1" cy="253.9" r="42.3"/>
		<path style="opacity:0.31;fill:#CCCCCC;enable-background:new    ;" d="M390.4,286.8c-21.2,0-38.4-17.2-38.4-38.4
			c0-6.9,1.8-13.4,5-19c-6.3,6.8-10.1,16-10.1,25.9c0,21.2,17.2,38.4,38.4,38.4c14.3,0,26.8-7.8,33.4-19.4
			C411.7,282,401.6,286.8,390.4,286.8z"/>
	</g>
	<g>
		<path style="fill:#00A1E0;" d="M382.5,239.3c1.6-1.7,3.9-2.8,6.4-2.8c3.3,0,6.2,1.9,7.8,4.6c1.3-0.6,2.8-0.9,4.4-0.9
			c6,0,10.9,4.9,10.9,11c0,6-4.9,11-10.9,11c-0.7,0-1.5-0.1-2.1-0.2c-1.4,2.4-4,4.1-6.9,4.1c-1.2,0-2.4-0.3-3.5-0.8
			c-1.4,3.2-4.6,5.5-8.3,5.5c-3.9,0-7.2-2.5-8.5-5.9c-0.6,0.1-1.1,0.2-1.7,0.2c-4.7,0-8.4-3.8-8.4-8.5c0-3.1,1.7-5.9,4.2-7.4
			c-0.5-1.2-0.8-2.5-0.8-3.9c0-5.4,4.4-9.8,9.8-9.8C377.7,235.4,380.6,236.9,382.5,239.3"/>
		<path style="fill:#FFFFFF;" d="M368.8,253.8l0.2-0.6c0-0.1,0.1-0.1,0.1,0l0.2,0.1c0.6,0.4,1.2,0.4,1.3,0.4c0.4,0,0.7-0.2,0.7-0.6
			l0,0c0-0.3-0.4-0.5-0.9-0.6h-0.1c-0.7-0.2-1.4-0.5-1.4-1.3l0,0c0-0.8,0.7-1.4,1.6-1.4h0.1c0.6,0,1.1,0.2,1.5,0.4l0.1,0.1l-0.2,0.6
			c0,0.1-0.1,0-0.1,0c-0.3-0.2-0.9-0.3-1.3-0.3s-0.7,0.2-0.7,0.5l0,0c0,0.3,0.4,0.5,1,0.6h0.1c0.7,0.2,1.4,0.5,1.4,1.3l0,0
			c0,0.9-0.6,1.4-1.7,1.4c-0.5,0-1-0.1-1.5-0.3c-0.1-0.1-0.2-0.1-0.3-0.2C368.8,253.9,368.8,253.8,368.8,253.8L368.8,253.8z
			 M383.9,253.8l0.2-0.6c0-0.1,0.1-0.1,0.1,0l0.2,0.1c0.6,0.4,1.2,0.4,1.3,0.4c0.4,0,0.7-0.2,0.7-0.6l0,0c0-0.3-0.4-0.5-0.9-0.6
			h-0.1c-0.7-0.2-1.4-0.5-1.4-1.3l0,0c0-0.8,0.7-1.4,1.6-1.4h0.1c0.6,0,1.1,0.2,1.5,0.4l0.1,0.1l-0.2,0.6c0,0.1-0.1,0-0.1,0
			c-0.3-0.2-0.9-0.3-1.3-0.3s-0.7,0.2-0.7,0.5l0,0c0,0.3,0.4,0.5,1,0.6h0.1c0.7,0.2,1.4,0.5,1.4,1.3l0,0c0,0.9-0.6,1.4-1.7,1.4
			c-0.5,0-1-0.1-1.5-0.3c-0.1-0.1-0.2-0.1-0.3-0.2C384,253.9,383.9,253.8,383.9,253.8L383.9,253.8z M395.1,251.1
			c0.1,0.3,0.1,0.6,0.1,0.9s0,0.6-0.1,0.9s-0.2,0.5-0.4,0.7c-0.2,0.2-0.4,0.4-0.7,0.5c-0.3,0.1-0.6,0.2-0.9,0.2s-0.7-0.1-0.9-0.2
			c-0.3-0.1-0.5-0.3-0.7-0.5s-0.3-0.5-0.4-0.7s-0.1-0.6-0.1-0.9s0-0.6,0.1-0.9s0.2-0.5,0.4-0.7c0.2-0.2,0.4-0.4,0.7-0.5
			c0.3-0.1,0.6-0.2,0.9-0.2s0.7,0.1,0.9,0.2c0.3,0.1,0.5,0.3,0.7,0.5C394.9,250.6,395.1,250.8,395.1,251.1z M394.3,252
			c0-0.5-0.1-0.9-0.3-1.2s-0.5-0.4-0.8-0.4c-0.4,0-0.7,0.1-0.8,0.4s-0.3,0.7-0.3,1.2s0.1,0.9,0.3,1.2c0.2,0.3,0.4,0.4,0.8,0.4
			s0.7-0.1,0.8-0.4C394.2,252.9,394.3,252.5,394.3,252z M402.2,253.5l0.2,0.6c0,0.1,0,0.1,0,0.1c-0.3,0.1-0.8,0.2-1.2,0.2
			c-0.7,0-1.3-0.2-1.7-0.6c-0.4-0.4-0.6-1-0.6-1.7c0-0.3,0-0.6,0.1-0.9s0.2-0.5,0.4-0.7c0.2-0.2,0.4-0.4,0.7-0.5
			c0.3-0.1,0.6-0.2,1-0.2c0.2,0,0.4,0,0.6,0s0.5,0.1,0.6,0.2c0,0,0.1,0,0.1,0.1l-0.2,0.6c0,0.1-0.1,0.1-0.1,0.1
			c-0.3-0.1-0.6-0.1-0.9-0.1c-0.4,0-0.7,0.1-1,0.4c-0.2,0.3-0.3,0.6-0.3,1.1s0.1,0.9,0.4,1.2s0.6,0.4,1,0.4c0.2,0,0.3,0,0.5,0
			C401.9,253.5,402,253.4,402.2,253.5C402.1,253.4,402.2,253.4,402.2,253.5L402.2,253.5z M406.6,250.9c0.2,0.7,0.1,1.2,0.1,1.3
			c0,0.1-0.1,0.1-0.1,0.1h-2.9c0,0.4,0.1,0.7,0.3,1c0.2,0.2,0.5,0.3,1,0.3c0.7,0,1-0.1,1.2-0.2c0,0,0.1,0,0.1,0.1l0.2,0.5
			c0,0.1,0,0.1,0,0.1c-0.2,0.1-0.6,0.3-1.5,0.3c-0.4,0-0.8-0.1-1.1-0.2c-0.3-0.1-0.5-0.3-0.7-0.5s-0.3-0.5-0.4-0.7
			c-0.1-0.3-0.1-0.6-0.1-0.9s0-0.6,0.1-0.9s0.2-0.5,0.4-0.7c0.2-0.2,0.4-0.4,0.7-0.5c0.3-0.1,0.6-0.2,1-0.2c0.3,0,0.6,0.1,0.8,0.2
			c0.2,0.1,0.4,0.2,0.6,0.4C406.4,250.4,406.6,250.7,406.6,250.9L406.6,250.9z M403.7,251.5h2.1c0-0.3-0.1-0.5-0.2-0.7
			c-0.2-0.3-0.4-0.4-0.8-0.4s-0.7,0.2-0.8,0.4C403.8,251,403.8,251.3,403.7,251.5L403.7,251.5z M383.2,250.9
			c0.2,0.7,0.1,1.2,0.1,1.3c0,0.1-0.1,0.1-0.1,0.1h-2.9c0,0.4,0.1,0.7,0.3,1c0.2,0.2,0.5,0.3,1,0.3c0.7,0,1-0.1,1.2-0.2
			c0,0,0.1,0,0.1,0.1l0.2,0.5c0,0.1,0,0.1,0,0.1c-0.2,0.1-0.6,0.3-1.5,0.3c-0.4,0-0.8-0.1-1.1-0.2c-0.3-0.1-0.5-0.3-0.7-0.5
			s-0.3-0.5-0.4-0.7c-0.1-0.3-0.1-0.6-0.1-0.9s0-0.6,0.1-0.9s0.2-0.5,0.4-0.7c0.2-0.2,0.4-0.4,0.7-0.5c0.3-0.1,0.6-0.2,1-0.2
			c0.3,0,0.6,0.1,0.8,0.2c0.2,0.1,0.4,0.2,0.6,0.4C383,250.4,383.2,250.7,383.2,250.9L383.2,250.9z M380.3,251.5h2.1
			c0-0.3-0.1-0.5-0.2-0.7c-0.2-0.3-0.4-0.4-0.8-0.4s-0.7,0.2-0.8,0.4C380.4,251,380.4,251.3,380.3,251.5z M375.2,251.4l0.5,0.1v-0.1
			c0-0.4-0.1-0.6-0.2-0.7c-0.2-0.1-0.4-0.2-0.7-0.2c0,0-0.7,0-1.3,0.3l0,0h-0.1l-0.2-0.6c0-0.1,0-0.1,0-0.1c0.3-0.2,0.9-0.3,0.9-0.3
			c0.2,0,0.6-0.1,0.8-0.1c0.6,0,1,0.1,1.3,0.4s0.5,0.7,0.5,1.3v2.7c0,0,0,0.1-0.1,0.1c0,0-0.1,0-0.2,0.1l-0.7,0.1
			c-0.3,0.1-0.6,0.1-0.9,0.1s-0.5,0-0.8-0.1c-0.2-0.1-0.4-0.1-0.6-0.3c-0.2-0.1-0.3-0.3-0.4-0.5s-0.1-0.4-0.1-0.7s0.1-0.5,0.2-0.7
			s0.3-0.3,0.4-0.5s0.4-0.2,0.6-0.3c0.2-0.1,0.5-0.1,0.7-0.1L375.2,251.4L375.2,251.4z M374,253.4c0,0,0.3,0.2,0.9,0.2
			c0.4,0,0.8-0.1,0.8-0.1v-1.3c0,0-0.4-0.1-0.8-0.1c-0.6,0-0.9,0.2-0.9,0.2c-0.2,0.1-0.3,0.3-0.3,0.6c0,0.1,0,0.3,0.1,0.4
			C373.9,253.3,373.9,253.4,374,253.4z M398.7,249.9c0,0.1-0.2,0.5-0.2,0.6s-0.1,0.1-0.1,0.1s-0.2,0-0.3,0c-0.1,0-0.3,0-0.4,0.1
			c-0.1,0-0.3,0.1-0.4,0.2s-0.2,0.3-0.3,0.4c-0.1,0.2-0.1,0.5-0.1,0.8v2.2c0,0.1,0,0.1-0.1,0.1H396c-0.1,0-0.1,0-0.1-0.1v-4.4
			c0-0.1,0-0.1,0.1-0.1h0.7c0.1,0,0.1,0,0.1,0.1v0.3c0.1-0.2,0.3-0.3,0.5-0.4s0.4-0.1,0.7-0.1c0.2,0,0.4,0.1,0.5,0.1
			C398.7,249.8,398.7,249.8,398.7,249.9L398.7,249.9z M391.5,247.9C391.6,247.9,391.6,247.9,391.5,247.9l-0.2,0.7c0,0,0,0.1-0.1,0
			c0,0-0.1,0-0.2,0s-0.2,0-0.2,0c-0.1,0-0.2,0-0.3,0c-0.1,0-0.2,0.1-0.3,0.2s-0.2,0.2-0.2,0.3c-0.1,0.3-0.2,0.6-0.2,0.7h0.9
			c0.1,0,0.1,0,0.1,0.1l-0.1,0.6c0,0.1-0.1,0.1-0.1,0.1h-1l-0.6,3.7c-0.1,0.4-0.2,0.7-0.3,1c-0.1,0.3-0.2,0.5-0.4,0.7
			c-0.2,0.2-0.3,0.3-0.5,0.4s-0.4,0.1-0.7,0.1c-0.1,0-0.3,0-0.4,0s-0.2,0-0.3-0.1c0,0-0.1-0.1,0-0.1l0.2-0.6c0-0.1,0.1,0,0.1,0
			l0.2,0.1c0.1,0,0.2,0,0.2,0c0.1,0,0.3,0,0.3-0.1c0.1,0,0.2-0.1,0.3-0.2s0.1-0.2,0.2-0.4c0.1-0.2,0.1-0.5,0.2-0.7l0.7-3.7h-0.6
			c-0.1,0-0.1,0-0.1-0.1l0.1-0.6c0-0.1,0.1-0.1,0.1-0.1h0.7v-0.2c0.1-0.6,0.3-1,0.6-1.3c0.3-0.3,0.7-0.4,1.2-0.4c0.2,0,0.3,0,0.4,0
			C391.4,247.8,391.5,247.8,391.5,247.9L391.5,247.9z M378.5,254.2C378.5,254.2,378.4,254.3,378.5,254.2l-0.9,0.1
			c-0.1,0-0.1,0-0.1-0.1V248c0,0,0-0.1,0.1-0.1h0.8c0.1,0,0.1,0,0.1,0.1V254.2z"/>
	</g>
</g>
<g id="linkedin">
	<g>
		<circle style="fill:#F6F5F8;stroke:#000000;stroke-width:2;stroke-miterlimit:10;" cx="242.7" cy="317.3" r="42.9"/>
		<path style="opacity:0.31;fill:#CCCCCC;enable-background:new    ;" d="M247.1,350.7c-21.5,0-39-17.4-39-39c0-7,1.9-13.6,5.1-19.2
			c-6.4,6.9-10.2,16.2-10.2,26.3c0,21.5,17.4,39,39,39c14.5,0,27.1-7.9,33.9-19.7C268.7,345.8,258.5,350.7,247.1,350.7z"/>
	</g>
	<g>
		<g>
			<path style="fill:#2A66B2;" d="M234,300.6c0,2.1-1.3,3.8-3.8,3.8c-2.2,0-3.8-1.7-3.8-3.6c0-2.1,1.5-3.9,3.8-3.9
				C232.4,296.8,234,298.5,234,300.6z"/>
			<rect x="226.4" y="306.2" style="fill:#2A66B2;" width="7.5" height="24.4"/>
			<path style="fill:#2A66B2;" d="M252,306.6c-3.9,0-6.2,2.2-7.1,3.8h-0.2l-0.3-3.2h-6.8c0,2.1,0.2,4.5,0.2,7.3v16.2h7.5v-13.4
				c0-0.8,0-1.3,0.2-1.9c0.6-1.3,1.5-3,3.6-3c2.7,0,3.8,2.2,3.8,5.2v12.9h7.5v-13.9C260.2,309.7,256.7,306.6,252,306.6z"/>
		</g>
	</g>
</g>
<g id="slack">
	<g>
		<circle style="fill:#F6F5F8;stroke:#000000;stroke-width:2;stroke-miterlimit:10;" cx="678.5" cy="274.4" r="43.1"/>
		<path style="opacity:0.31;fill:#CCCCCC;enable-background:new    ;" d="M682.8,308c-21.6,0-39.1-17.5-39.1-39.1
			c0-7.1,1.8-13.7,5.1-19.3c-6.4,6.9-10.3,16.2-10.3,26.4c0,21.6,17.5,39.1,39.1,39.1c14.5,0,27.2-8,34-19.8
			C704.6,303.1,694.2,308,682.8,308z"/>
	</g>
	<g>
		<path style="fill:#E1185A;" d="M653.3,280.8c0.3,6.9,10.1,6.9,10.4,0v-5.2h-5.2C655.7,275.6,653.3,278,653.3,280.8z"/>
		<path style="fill:#2BB77D;" d="M684.7,272.9c2.8,0,5.2-2.3,5.2-5.2v-13.1c-0.3-6.9-10.1-6.9-10.4,0v13.1
			C679.4,270.6,681.8,272.9,684.7,272.9z"/>
		<path style="fill:#E1185A;" d="M671.6,275.6c-2.8,0-5.2,2.3-5.2,5.2v13.1c0.3,6.9,10.1,6.9,10.4,0v-13.1
			C676.8,278,674.5,275.6,671.6,275.6z"/>
		<path style="fill:#2BB77D;" d="M702.9,267.7c-0.3-6.9-10.1-6.9-10.4,0v5.2h5.2C700.6,272.9,702.9,270.6,702.9,267.7z"/>
		<path style="fill:#33C6F1;" d="M658.6,272.9h13.1c6.9-0.3,6.9-10.1,0-10.4h-13.1C651.7,262.8,651.7,272.6,658.6,272.9z"/>
		<path style="fill:#EDB429;" d="M684.7,288.6h-5.2v5.2c0,2.8,2.3,5.2,5.2,5.2C691.6,298.8,691.6,288.9,684.7,288.6z"/>
		<path style="fill:#EDB429;" d="M697.7,275.6h-13.1c-6.9,0.3-6.9,10.1,0,10.4h13.1C704.6,285.7,704.6,275.9,697.7,275.6z"/>
		<path style="fill:#33C6F1;" d="M671.6,249.5c-6.9,0.3-6.9,10.1,0,10.4h5.2v-5.2C676.8,251.8,674.5,249.5,671.6,249.5z"/>
	</g>
</g>
<g id="gmail">
	<g>
		
			<ellipse transform="matrix(7.088901e-02 -0.9975 0.9975 7.088901e-02 -274.8557 460.8885)" style="fill:#F6F5F8;stroke:#000000;stroke-width:1.9999;stroke-miterlimit:9.9995;" cx="110" cy="378" rx="47.4" ry="47.4"/>
		<path style="opacity:0.31;fill:#CCCCCC;enable-background:new    ;" d="M114.7,415c-23.8,0-43.1-19.2-43.1-43.1
			c0-7.8,2-15,5.6-21.2c-7,7.6-11.3,17.9-11.3,29.1c0,23.8,19.2,43.1,43.1,43.1c16,0,30-8.7,37.4-21.8
			C138.6,409.6,127.4,415,114.7,415z"/>
	</g>
	<g>
		<path style="fill:#E75A4D;" d="M134.3,359c2.6,0,4.8,2.1,4.8,4.8v1.4l-6.6,4.8L110,385.5l-22.6-15.6v31.4h-1.7
			c-2.6,0-4.8-2.1-4.8-4.8v-32.6c0-2.6,2.1-4.8,4.8-4.8l24.2,18L134.3,359L134.3,359L134.3,359z"/>
		
			<linearGradient id="SVGID_1_" gradientUnits="userSpaceOnUse" x1="-62893.7109" y1="-10181.3789" x2="-61139.8125" y2="-10181.3789" gradientTransform="matrix(1.772698e-02 0 0 1.772698e-02 1209.2511 548.4705)">
			<stop  offset="0" style="stop-color:#F8F6EF"/>
			<stop  offset="1" style="stop-color:#E7E4D6"/>
		</linearGradient>
		<path style="fill:url(#SVGID_1_);" d="M85.6,359l24.2,18l24.4-18H85.6z"/>
		<path style="fill:#E7E4D7;" d="M87.3,369.8v31.4h45.1v-31.3l-22.6,15.5L87.3,369.8z"/>
		<path style="fill:#B8B7AE;" d="M87.3,401.2l22.5-15.7l-0.1-0.1l-22.4,15.4V401.2L87.3,401.2z"/>
		<path style="fill:#B7B6AD;" d="M132.4,369.9v31.3l-22.6-15.7L132.4,369.9z"/>
		<path style="fill:#B2392F;" d="M139.1,365.1v31.2c-0.1,3.5-1.7,4.7-6.6,4.8v-31.3L139.1,365.1L139.1,365.1L139.1,365.1z"/>
		
			<linearGradient id="SVGID_00000167384998744437413630000000957354717187146380_" gradientUnits="userSpaceOnUse" x1="-62893.7109" y1="-10181.3789" x2="-61139.8125" y2="-10181.3789" gradientTransform="matrix(1.772698e-02 0 0 1.772698e-02 1209.2511 548.4705)">
			<stop  offset="0" style="stop-color:#F8F6EF"/>
			<stop  offset="1" style="stop-color:#E7E4D6"/>
		</linearGradient>
		<path style="fill:url(#SVGID_00000167384998744437413630000000957354717187146380_);" d="M85.6,359l24.2,18l24.4-18H85.6z"/>
		
			<linearGradient id="SVGID_00000160888085619382948020000012348181257668679589_" gradientUnits="userSpaceOnUse" x1="-62893.7109" y1="-10181.3789" x2="-61139.8125" y2="-10181.3789" gradientTransform="matrix(1.772698e-02 0 0 1.772698e-02 1209.2511 548.4705)">
			<stop  offset="0" style="stop-color:#F8F6EF"/>
			<stop  offset="1" style="stop-color:#E7E4D6"/>
		</linearGradient>
		<path style="fill:url(#SVGID_00000160888085619382948020000012348181257668679589_);" d="M85.6,359l24.2,18l24.4-18H85.6z"/>
		
			<linearGradient id="SVGID_00000072994966052765946510000013264800818913975470_" gradientUnits="userSpaceOnUse" x1="-62893.7109" y1="-10181.3789" x2="-61139.8125" y2="-10181.3789" gradientTransform="matrix(1.772698e-02 0 0 1.772698e-02 1209.2511 548.4705)">
			<stop  offset="0" style="stop-color:#F8F6EF"/>
			<stop  offset="1" style="stop-color:#E7E4D6"/>
		</linearGradient>
		<path style="fill:url(#SVGID_00000072994966052765946510000013264800818913975470_);" d="M85.6,359l24.2,18l24.4-18H85.6z"/>
		
			<linearGradient id="SVGID_00000005979340910575298610000017705109032630444675_" gradientUnits="userSpaceOnUse" x1="-62893.7109" y1="-10181.3789" x2="-61139.8125" y2="-10181.3789" gradientTransform="matrix(1.772698e-02 0 0 1.772698e-02 1209.2511 548.4705)">
			<stop  offset="0" style="stop-color:#F8F6EF"/>
			<stop  offset="1" style="stop-color:#E7E4D6"/>
		</linearGradient>
		<path style="fill:url(#SVGID_00000005979340910575298610000017705109032630444675_);" d="M85.6,359l24.2,18l24.4-18H85.6z"/>
		
			<linearGradient id="SVGID_00000010302089007073212640000005477626006117169319_" gradientUnits="userSpaceOnUse" x1="-62893.7109" y1="-10181.3789" x2="-61139.8125" y2="-10181.3789" gradientTransform="matrix(1.772698e-02 0 0 1.772698e-02 1209.2511 548.4705)">
			<stop  offset="0" style="stop-color:#F8F6EF"/>
			<stop  offset="1" style="stop-color:#E7E4D6"/>
		</linearGradient>
		<path style="fill:url(#SVGID_00000010302089007073212640000005477626006117169319_);" d="M85.6,359l24.2,18l24.4-18H85.6z"/>
		
			<linearGradient id="SVGID_00000076597814960116781540000009783080030300251814_" gradientUnits="userSpaceOnUse" x1="-62893.7109" y1="-10181.3789" x2="-61139.8125" y2="-10181.3789" gradientTransform="matrix(1.772698e-02 0 0 1.772698e-02 1209.2511 548.4705)">
			<stop  offset="0" style="stop-color:#F8F6EF"/>
			<stop  offset="1" style="stop-color:#E7E4D6"/>
		</linearGradient>
		<path style="fill:url(#SVGID_00000076597814960116781540000009783080030300251814_);" d="M85.6,359l24.2,18l24.4-18H85.6z"/>
		
			<linearGradient id="SVGID_00000139997752937598974700000008539384890417989262_" gradientUnits="userSpaceOnUse" x1="-62893.7109" y1="-10181.3789" x2="-61139.8125" y2="-10181.3789" gradientTransform="matrix(1.772698e-02 0 0 1.772698e-02 1209.2511 548.4705)">
			<stop  offset="0" style="stop-color:#F8F6EF"/>
			<stop  offset="1" style="stop-color:#E7E4D6"/>
		</linearGradient>
		<path style="fill:url(#SVGID_00000139997752937598974700000008539384890417989262_);" d="M85.6,359l24.2,18l24.4-18H85.6z"/>
		<path style="fill:#F7F5ED;" d="M85.6,359l24.2,18l24.4-18H85.6z"/>
	</g>
</g>
<g>
	<ellipse style="fill:#996699;" cx="468.1" cy="924.4" rx="47.3" ry="3.7"/>
	<g>
		<path style="fill:#182A3B;stroke:#000000;stroke-width:2;stroke-miterlimit:10;" d="M439.3,742.6h79.3c0,0-13.4,144.6-11.7,173.5
			l-15.4,7.7l-12.6-135L440.7,925l-15.2-8.9C425.5,916.1,439.3,786.9,439.3,742.6z"/>
		<path d="M491.9,923.9l13.4-7.8c0,0,9.6,0.3,13.4,8.9L491.9,923.9z"/>
		<path d="M438.8,922.6c0,0-10.3-6.5-12.3-7.1c-2-0.7-10,10.1-10,10.1h4.3h19.9L438.8,922.6z"/>
	</g>
</g>
<linearGradient id="SVGID_00000142143430100255138170000001294040609958782865_" gradientUnits="userSpaceOnUse" x1="466.5377" y1="136.502" x2="488.6814" y2="136.502" gradientTransform="matrix(1 0 0 1 0 464)">
	<stop  offset="0" style="stop-color:#FFCC99"/>
	<stop  offset="1" style="stop-color:#FF9999"/>
</linearGradient>
<path style="fill:url(#SVGID_00000142143430100255138170000001294040609958782865_);stroke:#000000;stroke-miterlimit:10;" d="
	M481.9,590.3V605c0,0,8-0.7,6.6,3.4c-1.4,4-15.3,2.3-20.4,0s4.3-3.4,4.3-3.4l-0.5-14.8L481.9,590.3L481.9,590.3z"/>
<g id="zen">
	<g>
		<circle style="fill:#F6F5F8;stroke:#000000;stroke-width:1.9999;stroke-miterlimit:9.9995;" cx="240.2" cy="474" r="57.2"/>
		<path style="opacity:0.31;fill:#CCCCCC;enable-background:new    ;" d="M246.1,518.5c-28.7,0-51.9-23.2-51.9-51.9
			c0-9.4,2.5-18.1,6.8-25.7c-8.5,9.2-13.6,21.6-13.6,35c0,28.7,23.2,51.9,51.9,51.9c19.3,0,36.2-10.6,45.1-26.3
			C274.8,512,261.2,518.5,246.1,518.5z"/>
	</g>
	<g>
		<circle style="fill:#03363D;" cx="240.2" cy="474" r="37.8"/>
		<path style="fill:#FFFFFF;" d="M239,468.1v18.3h-15.1L239,468.1z M239,461.6c0,4.2-3.4,7.6-7.6,7.6c-4.2,0-7.6-3.4-7.6-7.6H239
			L239,461.6z M241.5,486.4c0-4.2,3.4-7.6,7.6-7.6c4.2,0,7.6,3.4,7.6,7.6H241.5z M241.5,479.8v-18.2h15.1L241.5,479.8z"/>
	</g>
</g>
<g id="square">
	<polygon id="squareline"  points="721.6,335.1 777.7,240.9 777.7,49 1220.6,49 1210.9,254.7 800.7,249.5 	"/>
	
		<line id="line1"  x1="811" y1="132.7" x2="1149.3" y2="132.7"/>
	
		<line id="line2"  x1="811" y1="147.7" x2="1023.8" y2="147.7"/>
	<g id="generate">
		<polygon points="800.7,215.9 800.7,169.9 992.7,170.4 980.3,215.9 		" id="generateback"/>
		<g>
			<path d="M826.1,192h4.6v7.3c-2,2.3-4.9,3.4-8.5,3.4c-3,0-5.6-1-7.6-3c-2.1-2-3.1-4.5-3.1-7.6
				s1-5.6,3.1-7.7c2.1-2,4.6-3.1,7.6-3.1s5.5,1,7.7,2.9l-2.4,3.5c-0.9-0.8-1.8-1.4-2.6-1.7s-1.6-0.5-2.5-0.5c-1.8,0-3.2,0.6-4.4,1.8
				s-1.8,2.8-1.8,4.7c0,2,0.6,3.5,1.7,4.7c1.2,1.2,2.5,1.8,4.1,1.8s2.9-0.3,4-0.9V192H826.1z"/>
			<path  d="M849.8,181.8v4.1h-10.3v4.3h9.2v3.9h-9.2v4.3h10.6v4.1h-15.2v-20.7L849.8,181.8L849.8,181.8z"/>
			<path d="M868.7,181.8h4.6v20.7h-4.6l-9.8-12.9v12.9h-4.6v-20.7h4.3l10.1,13.3V181.8z"/>
			<path d="M893.2,181.8v4.1H883v4.3h9.2v3.9H883v4.3h10.6v4.1h-15.2v-20.7L893.2,181.8L893.2,181.8z"/>
			<path  d="M914.4,188.7c0,3.3-1.3,5.4-3.9,6.4l5.2,7.4H910l-4.6-6.6h-3.2v6.6h-4.6v-20.7h7.8
				c3.2,0,5.5,0.5,6.9,1.6C913.7,184.5,914.4,186.3,914.4,188.7z M908.9,191.1c0.6-0.5,0.9-1.3,0.9-2.4c0-1.1-0.3-1.9-0.9-2.3
				c-0.6-0.4-1.6-0.6-3.1-0.6h-3.5v6.1h3.4C907.2,191.9,908.3,191.6,908.9,191.1z"/>
			<path  d="M933.9,202.5L932,198h-8.7l-1.9,4.5h-4.9l8.9-20.7h4.5l8.9,20.7H933.9z M927.6,188l-2.6,6h5.2
				L927.6,188z"/>
			<path  d="M948.4,185.8v16.7h-4.6v-16.7h-5.9v-4h16.3v4H948.4z"/>
			<path  d="M972.5,181.8v4.1h-10.3v4.3h9.2v3.9h-9.2v4.3h10.6v4.1h-15.2v-20.7L972.5,181.8L972.5,181.8z"/>
		</g>
	</g>
	<g id="actions">
		<polygon points="995.9,215.6 1009.8,169.9 1170.7,169.9 1167.3,215.9 		" id="actionback" />
		<g id="action"> 
			<g>
				<path  d="M1036.5,201.7l-1.9-4.5h-8.7l-1.9,4.5h-4.9l8.9-20.7h4.5l8.9,20.7H1036.5z M1030.2,187.2l-2.6,6
					h5.2L1030.2,187.2z"/>
				<path  d="M1053.2,197.6c2.3,0,4.1-0.9,5.6-2.7l3,3c-2.3,2.6-5.1,4-8.3,4c-3.2,0-5.8-1-7.9-3
					s-3.1-4.5-3.1-7.6s1-5.6,3.1-7.7c2.1-2,4.7-3.1,7.7-3.1c3.4,0,6.2,1.3,8.5,3.9l-2.9,3.3c-1.5-1.8-3.3-2.7-5.4-2.7
					c-1.7,0-3.2,0.6-4.4,1.7c-1.2,1.1-1.8,2.7-1.8,4.6c0,1.9,0.6,3.5,1.7,4.6C1050.2,197,1051.6,197.6,1053.2,197.6z"/>
				<path  d="M1074.1,185v16.7h-4.6V185h-5.9v-4h16.3v4H1074.1z"/>
				<path  d="M1083.4,181h4.6v20.7h-4.6V181z"/>
				<path  d="M1110.4,198.8c-2.1,2-4.7,3.1-7.7,3.1c-3.1,0-5.6-1-7.7-3.1c-2.1-2-3.1-4.6-3.1-7.6
					s1-5.6,3.1-7.6s4.7-3.1,7.7-3.1c3.1,0,5.6,1,7.7,3.1c2.1,2,3.1,4.6,3.1,7.6C1113.6,194.3,1112.5,196.8,1110.4,198.8z
					 M1108.9,191.2c0-1.8-0.6-3.4-1.8-4.7c-1.2-1.3-2.6-2-4.4-2c-1.7,0-3.2,0.7-4.4,2c-1.2,1.3-1.8,2.9-1.8,4.7s0.6,3.4,1.8,4.7
					c1.2,1.3,2.6,1.9,4.4,1.9c1.7,0,3.2-0.6,4.4-1.9C1108.3,194.7,1108.9,193.1,1108.9,191.2z"/>
				<path  d="M1131.9,181h4.6v20.7h-4.6l-9.8-12.9v12.9h-4.6V181h4.3l10.1,13.3V181z"/>
				<path  d="M1146.4,185.2c-0.4,0.4-0.7,0.8-0.7,1.4c0,0.6,0.3,1.1,0.8,1.4c0.5,0.4,1.8,0.8,3.8,1.3
					s3.5,1.2,4.6,2.2s1.6,2.4,1.6,4.2c0,1.9-0.7,3.4-2.1,4.5c-1.4,1.2-3.2,1.7-5.5,1.7c-3.3,0-6.2-1.2-8.8-3.6l2.7-3.4
					c2.2,2,4.3,2.9,6.2,2.9c0.8,0,1.5-0.2,2-0.5c0.5-0.4,0.7-0.9,0.7-1.5s-0.3-1.1-0.8-1.5s-1.5-0.7-3-1.1c-2.4-0.6-4.2-1.3-5.3-2.2
					c-1.1-0.9-1.7-2.4-1.7-4.3c0-2,0.7-3.5,2.1-4.5c1.4-1.1,3.2-1.6,5.3-1.6c1.4,0,2.8,0.2,4.1,0.7c1.4,0.5,2.6,1.1,3.6,2l-2.3,3.4
					c-1.8-1.4-3.6-2-5.6-2C1147.5,184.6,1146.9,184.8,1146.4,185.2z"/>
			</g>
		</g>
	</g>
	<g id="onboard">
<path d="M832.5,96.3c0,3.1-0.8,5.9-2.4,8.4c-1.6,2.5-3.7,4.3-6.4,5.6c0.3,0.4,0.7,0.8,1.2,1.1c0.6,0.3,1.1,0.5,1.7,0.5
		c0.6,0,1.2-0.1,1.8-0.3c0.6-0.2,1-0.4,1.4-0.7c0.7-0.6,1.3-1.2,1.6-1.8l3.5,4.2c-2.5,2.6-5.5,3.9-9.2,3.9c-1.7,0-3.4-0.5-5.1-1.4
		c-1.7-0.9-2.9-2.3-3.8-4c-4.4,0-8.2-1.5-11.2-4.4c-3-3-4.5-6.6-4.5-11c0-4.4,1.5-8.1,4.5-11c3-3,6.8-4.4,11.2-4.4
		c4.4,0,8.2,1.5,11.2,4.4C831,88.2,832.5,91.9,832.5,96.3z M825.7,96.3c0-2.7-0.9-4.9-2.6-6.8c-1.7-1.9-3.8-2.8-6.3-2.8
		c-2.5,0-4.6,0.9-6.3,2.8c-1.7,1.9-2.6,4.2-2.6,6.8c0,2.7,0.9,4.9,2.6,6.8c1.7,1.9,3.8,2.8,6.3,2.8c2.5,0,4.6-0.9,6.3-2.8
		C824.8,101.2,825.7,99,825.7,96.3z"/>
	<path d="M852.4,100.8V88.4h6.5v23.1h-6.5v-3c-1.6,2.3-3.7,3.4-6.2,3.4c-2.5,0-4.7-0.8-6.4-2.4s-2.6-3.9-2.6-7.1v-14h6.5v12.6
		c0,3.5,1.3,5.3,3.9,5.3c1.3,0,2.4-0.5,3.3-1.4C852,103.9,852.4,102.6,852.4,100.8z"/>
	<path d="M884.6,111.4h-6v-2.8c-1.7,2.1-3.7,3.1-6.1,3.1s-4.5-0.7-6.2-2.1c-1.7-1.4-2.5-3.3-2.5-5.7s0.9-4.1,2.6-5.3
		c1.7-1.2,4.1-1.8,7-1.8h4.8v-0.1c0-2.5-1.3-3.7-3.9-3.7c-1.1,0-2.3,0.2-3.5,0.7c-1.2,0.4-2.3,1-3.2,1.6l-2.9-4.2
		c3-2.2,6.5-3.3,10.4-3.3c2.8,0,5.1,0.7,6.9,2.1c1.8,1.4,2.7,3.6,2.7,6.6V111.4z M878.1,102.7v-1.1h-4c-2.6,0-3.9,0.8-3.9,2.4
		c0,0.8,0.3,1.5,0.9,1.9c0.6,0.4,1.5,0.7,2.6,0.7c1.1,0,2.1-0.3,3-1.1C877.7,104.8,878.1,103.8,878.1,102.7z"/>
	<path d="M902.6,94c-1.9,0-3.3,0.7-4.3,2c-0.9,1.4-1.4,3.2-1.4,5.4v10h-6.4V88.4h6.4v3c0.8-0.9,1.9-1.7,3.1-2.4c1.2-0.7,2.5-1,3.8-1
		l0,6H902.6z"/>
	<path d="M915.7,93v10.3c0,0.9,0.2,1.6,0.7,2.1c0.5,0.5,1,0.8,1.6,0.8c1.2,0,2.2-0.5,3-1.6l2.4,4.5c-2,1.8-4.1,2.7-6.3,2.7
		c-2.2,0-4.1-0.7-5.6-2.2c-1.5-1.5-2.3-3.4-2.3-6V93h-2.7v-4.6h2.7v-6.9h6.5v6.9h5.6V93H915.7z"/>
	<path d="M946.9,108.1c-2.6,2.5-5.7,3.7-9.2,3.7c-3.5,0-6.4-1.1-8.7-3.2c-2.3-2.2-3.4-5-3.4-8.7c0-3.6,1.2-6.5,3.5-8.7
		c2.3-2.1,5.1-3.2,8.3-3.2c3.2,0,5.9,1,8.1,2.9c2.2,1.9,3.3,4.5,3.3,7.9v3.4H932c0.2,1.3,0.9,2.3,2,3.1c1.1,0.8,2.4,1.2,3.8,1.2
		c2.3,0,4.1-0.8,5.6-2.3L946.9,108.1z M940.7,94.4c-0.9-0.7-2-1.1-3.2-1.1c-1.3,0-2.4,0.4-3.5,1.2c-1.1,0.8-1.7,1.8-1.8,3.1h10.1
		C942.1,96.2,941.6,95.2,940.7,94.4z"/>
	<path d="M965.5,94c-1.9,0-3.3,0.7-4.3,2c-0.9,1.4-1.4,3.2-1.4,5.4v10h-6.4V88.4h6.4v3c0.8-0.9,1.9-1.7,3.1-2.4c1.2-0.7,2.5-1,3.8-1
		l0,6H965.5z"/>
	<path d="M977.5,111.4H971V79.6h6.4V111.4z"/>
	<path d="M987.5,120.5c-2.3,0-4.4-0.9-6.4-2.7l2.9-4.8c1.1,1.1,2.2,1.6,3.3,1.6c0.6,0,1.1-0.3,1.5-0.9c0.4-0.6,0.6-1.2,0.6-1.9
		c0-0.7-3-8.5-8.9-23.5h6.9l5.6,14.4l5.6-14.4h6.9l-10.7,27.2c-0.6,1.6-1.6,2.8-2.9,3.7C990.6,120.1,989.2,120.5,987.5,120.5z"/>
	<path d="M1047.6,92.6l-8.1,16.4h-4l-8.1-16.4v18.9h-6.7v-30h9l7.7,16.5l7.8-16.5h9v30h-6.7V92.6z"/>
	<path d="M1081,108.1c-2.6,2.5-5.7,3.7-9.2,3.7c-3.5,0-6.4-1.1-8.7-3.2c-2.3-2.2-3.4-5-3.4-8.7c0-3.6,1.2-6.5,3.5-8.7
		c2.3-2.1,5.1-3.2,8.2-3.2s5.9,1,8.1,2.9c2.2,1.9,3.3,4.5,3.3,7.9v3.4h-16.8c0.2,1.3,0.9,2.3,2,3.1c1.1,0.8,2.4,1.2,3.8,1.2
		c2.3,0,4.1-0.8,5.6-2.3L1081,108.1z M1074.8,94.4c-0.9-0.7-2-1.1-3.2-1.1c-1.3,0-2.4,0.4-3.5,1.2c-1.1,0.8-1.7,1.8-1.8,3.1h10.1
		C1076.2,96.2,1075.7,95.2,1074.8,94.4z"/>
	<path d="M1107.5,108.1c-2.6,2.5-5.7,3.7-9.2,3.7c-3.5,0-6.4-1.1-8.7-3.2c-2.3-2.2-3.4-5-3.4-8.7c0-3.6,1.2-6.5,3.5-8.7
		c2.3-2.1,5.1-3.2,8.2-3.2c3.2,0,5.9,1,8.1,2.9c2.2,1.9,3.3,4.5,3.3,7.9v3.4h-16.8c0.2,1.3,0.9,2.3,2,3.1c1.1,0.8,2.4,1.2,3.8,1.2
		c2.3,0,4.1-0.8,5.6-2.3L1107.5,108.1z M1101.3,94.4c-0.9-0.7-2-1.1-3.2-1.1c-1.3,0-2.4,0.4-3.5,1.2c-1.1,0.8-1.7,1.8-1.8,3.1h10.1
		C1102.7,96.2,1102.2,95.2,1101.3,94.4z"/>
	<path d="M1121.4,93v10.3c0,0.9,0.2,1.6,0.7,2.1c0.5,0.5,1,0.8,1.6,0.8c1.2,0,2.2-0.5,3-1.6l2.4,4.5c-2,1.8-4.1,2.7-6.3,2.7
		c-2.2,0-4.1-0.7-5.6-2.2c-1.5-1.5-2.3-3.4-2.3-6V93h-2.7v-4.6h2.7v-6.9h6.5v6.9h5.6V93H1121.4z"/>
	<path d="M1133.1,85.5c-0.7-0.7-1.1-1.6-1.1-2.7c0-1.1,0.4-1.9,1.1-2.7c0.7-0.7,1.6-1.1,2.7-1.1c1.1,0,2,0.4,2.7,1.1
		c0.7,0.7,1.1,1.6,1.1,2.7c0,1.1-0.4,1.9-1.1,2.7c-0.7,0.7-1.6,1.1-2.7,1.1C1134.8,86.5,1133.9,86.2,1133.1,85.5z M1139,111.4h-6.4
		V88.4h6.4V111.4z"/>
	<path d="M1151.5,98.6v12.9h-6.4V88.4h6.4V91c1.9-2,4.1-3,6.6-3c2.4,0,4.5,0.9,6.1,2.6c1.6,1.7,2.5,4,2.5,6.9v14h-6.4v-13
		c0-3.5-1.3-5.3-3.9-5.3c-1.3,0-2.4,0.5-3.4,1.4C1152,95.4,1151.5,96.8,1151.5,98.6z"/>
	<path d="M1189.6,107.5c-2,2.3-4.5,3.4-7.6,3.4c-3,0-5.6-1-7.6-3.1c-2.1-2-3.1-4.8-3.1-8.2c0-3.4,1.1-6.2,3.2-8.4
		c2.1-2.2,4.6-3.3,7.3-3.3c2.7,0,5,1.1,6.8,3.4v-3h6.4v20.1c0,2.1-0.4,3.9-1.1,5.5c-0.7,1.6-1.7,2.9-2.9,3.8
		c-2.4,1.9-5.2,2.8-8.4,2.8c-1.7,0-3.5-0.3-5.2-0.8c-1.8-0.6-3.4-1.4-4.7-2.4l2.5-4.8c2.1,1.6,4.3,2.4,6.7,2.4
		c2.4,0,4.2-0.6,5.6-1.8C1188.9,111.9,1189.6,110.1,1189.6,107.5z M1188.7,99.4c0-1.8-0.5-3.3-1.5-4.4c-1-1.1-2.3-1.6-3.8-1.6
		c-1.5,0-2.8,0.5-3.9,1.6c-1.1,1.1-1.6,2.5-1.6,4.3c0,1.8,0.5,3.3,1.6,4.4c1.1,1.1,2.4,1.7,3.9,1.7c1.5,0,2.8-0.6,3.9-1.7
		C1188.1,102.7,1188.7,101.3,1188.7,99.4z"/>
	</g>
</g>
<g>
	
		<linearGradient id="SVGID_00000078005621033226019180000005932332963459757238_" gradientUnits="userSpaceOnUse" x1="476.675" y1="-133.3907" x2="480.1469" y2="186.0291" gradientTransform="matrix(1 0 0 1 0 464)">
		<stop  offset="0" style="stop-color:#FFCC99"/>
		<stop  offset="1" style="stop-color:#FF9999"/>
	</linearGradient>
	
		<path style="fill:url(#SVGID_00000078005621033226019180000005932332963459757238_);stroke:#000000;stroke-width:2;stroke-miterlimit:10;" d="
		M625.6,498c-4.1-8.5-18.7-3.5-28.7,0.9c2.5-11.5,3.5-24.7,3.2-41.2c0,0,1.1-83-87.5-90.1S363.8,380.5,352.3,431
		c0,0-4.5,30.1,7.2,67c-10.1-4.3-24-8.7-28.1-0.5c-6.2,12.7,15.7,39.3,51.1,44.7c2.9,4,5.8,7.7,8,9.9c9.8,10.1,36.9,40.7,89.5,43.3
		c0,0,47.4,3.2,85.3-35.5c3.9-4,8.5-10.8,12.6-17.5C613,537.6,631.7,510.9,625.6,498z"/>
	<path style="fill:#E39179;" d="M577.1,477.2c-0.2-0.1-1.6-0.8-4.6-1.9c-9.5-3.3-31.8-8.4-73.5-6l-3.9,0.2l-0.2,3.9
		c0,0.1,0,0.5,0,1.1c-17.3-0.6-28.3,0.7-34.1,1.6c0-1.6-0.1-2.6-0.1-2.8l-0.2-3.9l-3.9-0.2c-41.7-2.4-63.9,2.7-73.5,6
		c-3,1-4.4,1.8-4.6,1.9c-2.1,1.1-2.9,3.6-1.8,5.7s3.6,2.9,5.7,1.8c0,0,0.4-0.2,1.2-0.5c0.2,33,13.4,48.6,24.5,55.8
		c8.1,5.3,17.2,7.5,25.1,7.5c5.2,0,9.8-0.9,13.4-2.5c0.2-0.1,0.3-0.2,0.5-0.2c0.1,0,0.1-0.1,0.2-0.1c0.1-0.1,0.2-0.2,0.3-0.2
		c0.1,0,0.1-0.1,0.2-0.1c0.1-0.1,0.2-0.2,0.3-0.2c0.1,0,0.1-0.1,0.2-0.1c0.1-0.1,0.2-0.2,0.3-0.2c0.1,0,0.1-0.1,0.2-0.1
		c0.2-0.1,0.2-0.2,0.4-0.3l0.1-0.1c0.2-0.2,0.3-0.2,0.5-0.4c0,0,0,0,0.1-0.1c0.3-0.3,0.7-0.7,1.1-1.1l0,0l0,0
		c3.7-4.4,7.5-14,9.1-36.3c0.6-7.7,0.7-15.1,0.8-20.9h34c0,5.7,0.2,13.2,0.8,20.9c1.6,22.2,5.4,31.8,9.1,36.3l0,0l0,0
		c0.3,0.4,0.7,0.8,1.1,1.1c0,0,0,0,0.1,0.1c0.2,0.2,0.3,0.3,0.5,0.4l0.1,0.1c0.2,0.1,0.2,0.2,0.4,0.3c0.1,0,0.1,0.1,0.2,0.1
		c0.1,0.1,0.2,0.2,0.3,0.2c0.1,0,0.1,0.1,0.2,0.1c0.1,0.1,0.2,0.2,0.3,0.2c0.1,0,0.1,0.1,0.2,0.1c0.1,0.1,0.2,0.2,0.3,0.2
		c0.1,0,0.1,0.1,0.2,0.1c0.2,0.1,0.3,0.2,0.5,0.2c3.5,1.6,8.2,2.5,13.4,2.5c7.9,0,17-2.2,25.1-7.5c11.1-7.2,24.2-22.8,24.5-55.8
		c0.8,0.3,1.2,0.5,1.2,0.5c2.1,1.1,4.6,0.2,5.7-1.8S579.1,478.2,577.1,477.2z M443.3,537.2c-5.7,2.6-19,3.1-30.4-4.3
		c-9.6-6.3-21-20.3-20.6-51.4c10.1-2.5,29.2-5.4,60.2-3.9C453.3,511.5,448.4,534.8,443.3,537.2z M503.4,477.6
		c31-1.5,50.1,1.5,60.2,3.9c0.4,31-11,45.1-20.6,51.4c-11.3,7.4-24.5,7-30.4,4.3C507.4,534.8,502.5,511.5,503.4,477.6z"/>
	<g>
		<circle cx="433.9" cy="498.6" r="13.2"/>
		<circle style="fill:#FFFFFF;" cx="436.5" cy="493.8" r="4.2"/>
	</g>
	<g>
		<circle cx="543.1" cy="496.5" r="13.2"/>
		<circle style="fill:#FFFFFF;" cx="545.7" cy="491.7" r="4.2"/>
	</g>
	<path style="fill:none;stroke:#000000;stroke-width:2;stroke-miterlimit:10;" d="M481.9,495.9v31.8c0,0,17.2,0.4,17.2,6.7
		S492.8,547,478,547"/>
	<path style="fill:none;stroke:#000000;stroke-miterlimit:10;" d="M341.2,503.6c0,0,22.7,4.4,32.2,24.5"/>
	<path d="M577.1,472.7c-0.2-0.1-1.6-0.8-4.6-1.9c-9.5-3.3-31.8-8.4-73.5-6l-3.9,0.2l-0.2,3.9c0,0.1,0,0.5,0,1.1
		c-17.3-0.6-28.3,0.7-34.1,1.6c0-1.6-0.1-2.6-0.1-2.8l-0.2-3.9l-3.9-0.2c-41.7-2.4-63.9,2.7-73.5,6c-3,1-4.4,1.8-4.6,1.9
		c-2.1,1.1-2.9,3.6-1.8,5.7s3.6,2.9,5.7,1.8c0,0,0.4-0.2,1.2-0.5c0.2,33,13.4,48.6,24.5,55.8c8.1,5.3,17.2,7.5,25.1,7.5
		c5.2,0,9.8-0.9,13.4-2.5c0.2-0.1,0.3-0.2,0.5-0.2c0.1,0,0.1-0.1,0.2-0.1c0.1-0.1,0.2-0.2,0.3-0.2c0.1,0,0.1-0.1,0.2-0.1
		c0.1-0.1,0.2-0.2,0.3-0.2c0.1,0,0.1-0.1,0.2-0.1c0.1-0.1,0.2-0.2,0.3-0.2c0.1,0,0.1-0.1,0.2-0.1c0.2-0.1,0.2-0.2,0.4-0.3l0.1-0.1
		c0.2-0.2,0.3-0.2,0.5-0.4c0,0,0,0,0.1-0.1c0.3-0.3,0.7-0.7,1.1-1.1l0,0l0,0c3.7-4.4,7.5-14,9.1-36.3c0.6-7.7,0.7-15.1,0.8-20.9h34
		c0,5.7,0.2,13.2,0.8,20.9c1.6,22.2,5.4,31.8,9.1,36.3l0,0l0,0c0.3,0.4,0.7,0.8,1.1,1.1c0,0,0,0,0.1,0.1c0.2,0.2,0.3,0.3,0.5,0.4
		l0.1,0.1c0.2,0.1,0.2,0.2,0.4,0.3c0.1,0,0.1,0.1,0.2,0.1c0.1,0.1,0.2,0.2,0.3,0.2c0.1,0,0.1,0.1,0.2,0.1c0.1,0.1,0.2,0.2,0.3,0.2
		c0.1,0,0.1,0.1,0.2,0.1c0.1,0.1,0.2,0.2,0.3,0.2c0.1,0,0.1,0.1,0.2,0.1c0.2,0.1,0.3,0.2,0.5,0.2c3.5,1.6,8.2,2.5,13.4,2.5
		c7.9,0,17-2.2,25.1-7.5c11.1-7.2,24.2-22.8,24.5-55.8c0.8,0.3,1.2,0.5,1.2,0.5c2.1,1.1,4.6,0.2,5.7-1.8S579.1,473.8,577.1,472.7z
		 M443.3,532.7c-5.7,2.6-19,3.1-30.4-4.3c-9.6-6.3-21-20.3-20.6-51.4c10.1-2.5,29.2-5.4,60.2-3.9C453.3,507,448.4,530.3,443.3,532.7
		z M503.4,473.1c31-1.5,50.1,1.5,60.2,3.9c0.4,31-11,45.1-20.6,51.4c-11.3,7.4-24.5,7-30.4,4.3C507.4,530.3,502.5,507,503.4,473.1z"
		/>
	<path style="fill:#28252A;stroke:#000000;stroke-miterlimit:10;" d="M383.4,540.2c0,0,4-14.8-11.2-60.7c0,0,20.5-25.9,5.8-75.4
		c0,0,14.4,32.2,38.9,24.5c0,0,10.2,21.3,37.3,0c0,0,16,18.2,36.4,3.7s15-24,15-24s2.1,35.9,39,28.5c0,0-0.4,31.6,31.9,26.3
		c0,0-6.6,29.5,9.2,44.2l-21.1,53.8c0,0,44.6-32.7,35.5-109.7c0,0,18.8-24.8,9.4-59.6c0,0,7.5-9.5,2.7-17.4c0,0,10-22.7-14.3-33.2
		c0,0-2.1-44.2-36.9-33.7c0,0-19.6-56.1-67.8-19c0,0-21.8-19.9-46,7.5c0,0-14.8-21.1-32.7-9.5c-17.9,11.6-7.9,31-7.9,31
		s-49.1,8-50.1,20.6S365,355,365,355s-35.9,15.8-19,46.4c0,0,6.3,6.3,12.6,2.1c0,0-25.3,35.9-3.2,72.7
		C355.5,476.4,358.6,509.1,383.4,540.2z"/>
	<g>
		<path d="M474.2,579.5c-26.4,0-42-18.9-42.1-19.1l0.6-0.5c0.2,0.2,16.9,20.5,45,18.7l0.1,0.8C476.5,579.4,475.3,579.5,474.2,579.5z
			"/>
	</g>
	<path style="fill:none;stroke:#000000;stroke-miterlimit:10;" d="M613.8,503.6c0,0-19.3,9.8-27.7,24.5"/>
	<g id="closed">
		<g>
			
				<linearGradient id="SVGID_00000149347200399120667270000018264144032154684337_" gradientUnits="userSpaceOnUse" x1="438.7655" y1="484.0453" x2="416.3966" y2="417.2882" gradientTransform="matrix(1 0 0 -1 0 952)">
				<stop  offset="0" style="stop-color:#FFCC99"/>
				<stop  offset="1" style="stop-color:#FF9999"/>
			</linearGradient>
			<circle style="fill:url(#SVGID_00000149347200399120667270000018264144032154684337_);" cx="429.1" cy="496.8" r="21.5"/>
			<g>
				<path d="M455.2,499.4c-0.1,0-0.2,0-0.2,0c-19.9-4.8-51-0.4-51.4-0.3c-0.5,0.1-1.1-0.3-1.1-0.8c-0.1-0.5,0.3-1.1,0.8-1.1
					c0.3,0,31.9-4.5,52.1,0.4c0.5,0.1,0.9,0.7,0.7,1.2C456,499.1,455.6,499.4,455.2,499.4z"/>
			</g>
		</g>
		<g>
			
				<linearGradient id="SVGID_00000030454889469984788690000012285106230065020595_" gradientUnits="userSpaceOnUse" x1="855.222" y1="483.4353" x2="832.8531" y2="416.6782" gradientTransform="matrix(1 0 0 -1 -307.5599 952)">
				<stop  offset="0" style="stop-color:#FFCC99"/>
				<stop  offset="1" style="stop-color:#FF9999"/>
			</linearGradient>
			<circle style="fill:url(#SVGID_00000030454889469984788690000012285106230065020595_);" cx="538" cy="497.4" r="21.5"/>
			<g>
				<path d="M564,500c-0.1,0-0.2,0-0.2,0c-19.9-4.8-51-0.4-51.4-0.3c-0.5,0.1-1.1-0.3-1.1-0.8c-0.1-0.5,0.3-1.1,0.8-1.1
					c0.3,0,31.9-4.5,52.1,0.4c0.5,0.1,0.9,0.7,0.7,1.2C564.9,499.7,564.5,500,564,500z"/>
			</g>
			
		</g>
			<animate  accumulate="none" additive="replace" attributeName="display" begin="0s" calcMode="linear" dur="2.5s" fill="remove" id="eyes  
			                               " keyTimes="0;  0.9;  1" repeatCount="indefinite" restart="always" values="none;inline;none">
			</animate>
	</g>
</g>
<g id="shirt">
	<g id="f1" style="display:none;">
		<g style="display:inline;">
			
				<linearGradient id="SVGID_00000170274615127897346010000001406387342595323574_" gradientUnits="userSpaceOnUse" x1="616.956" y1="-13.2" x2="634.2927" y2="-13.2" gradientTransform="matrix(1 0 0 1 0 560)">
				<stop  offset="0" style="stop-color:#FFCC99"/>
				<stop  offset="1" style="stop-color:#FF9999"/>
			</linearGradient>
			
				<path style="fill:url(#SVGID_00000170274615127897346010000001406387342595323574_);stroke:#000000;stroke-width:2;stroke-miterlimit:10;" d="
				M617,560.1l15.2-28.1c0,0,4.3,6.7,0.7,12.8c-3.7,6.1-11.5,16.8-11.5,16.8"/>
			
				<linearGradient id="SVGID_00000142889351381978219720000013688576948773745060_" gradientUnits="userSpaceOnUse" x1="518.7" y1="9.5755" x2="657.3438" y2="9.5755" gradientTransform="matrix(1 0 0 1 0 560)">
				<stop  offset="0" style="stop-color:#FFCC99"/>
				<stop  offset="1" style="stop-color:#FF9999"/>
			</linearGradient>
			
				<path style="fill:url(#SVGID_00000142889351381978219720000013688576948773745060_);stroke:#000000;stroke-width:2;stroke-miterlimit:10;" d="
				M650.4,552.5c-6.4-33.6,6.8-62.7,6.8-62.7c-20,0.6-15.5,17.6-15.5,17.6c-2.9,9-0.3,32.4,1,40.6c-7.3-3.1-15.2-3.9-15.2-3.9
				c-6.3,5.5-9.5,11.3-10.7,16.7c0,1.3,0.2,5.3,1.3,10c0,0,3.3,12.2,11.7,19.6c0.2,0.2,0.4,0.5,0.7,0.7
				c-4.2,7.6-15.6,26.6-29.5,34.6c-33.5,18.5-69.8,2-69.8,2l-12.5,13c5,2,9.8,3.5,14.6,4.5v0.4c40.6,10,65.9-1.7,80.7-15.1
				c7.6-6.5,29.2-43.9,29.2-43.9c4.1-9.6,9.4-21.2,10.4-27.6C653.8,556.6,652.6,554.4,650.4,552.5z"/>
			<path d="M651.2,553c-5.2-6.8-22.8-9.2-23.6-9.3h-0.1l-0.1,0.1c-0.1,0.1-3.6,1.8-6.8,8.2c-2.2,4.4-0.6,7.7,0.8,9.5
				c0,0.1,0,0.1,0,0.2c-0.1,2.9,1.4,4.8,2.4,5.4l4.3,11.8l0.4-0.1c0.1,0,6.1-1.9,4.7-8.6l-1.3-2.9c0.9-0.7,3.6-2.9,4.3-5.9l1.9,1.6
				c0.2,0.2,0.5,0.1,0.7-0.1c0.2-0.2,0.1-0.5-0.1-0.7l-3.2-2.7l-0.1,0.9c-0.3,3.7-4.3,6.3-4.3,6.3l-0.3,0.2l1.6,3.4
				c0.9,4.9-2.5,6.8-3.7,7.3l-4.4-12l6.9-13.6l18.1,3.4c0.2,0,0.5-0.1,0.5-0.4c0-0.3-0.1-0.5-0.4-0.5l-18.8-3.6l-7.3,14.4
				c-0.6-0.7-1.1-1.9-1-3.7c0.1-2.1,4.5-10.3,6.4-13.7l15.7,3.6c0.3,0.1,0.5-0.1,0.6-0.3s-0.1-0.5-0.3-0.6l-16.4-3.7l-0.2,0.3
				c-0.2,0.4-5.1,9-6.3,13.1c-1.1-1.7-2-4.4-0.2-7.9c2.7-5.5,5.7-7.4,6.3-7.7c1.7,0.2,18.1,2.7,22.8,8.9c0.2,0.2,0.4,0.2,0.6,0.1
				C651.3,553.5,651.4,553.2,651.2,553z"/>
		</g>
		<g style="display:inline;">
			
				<linearGradient id="SVGID_00000036942635166629342950000011634819879281238439_" gradientUnits="userSpaceOnUse" x1="391.5227" y1="783.9189" x2="446.8534" y2="783.9189" gradientTransform="matrix(0.9976 -6.989013e-02 6.989013e-02 0.9976 -53.613 31.1262)">
				<stop  offset="0" style="stop-color:#FFCC99"/>
				<stop  offset="1" style="stop-color:#FF9999"/>
			</linearGradient>
			
				<path style="fill:url(#SVGID_00000036942635166629342950000011634819879281238439_);stroke:#000000;stroke-width:2;stroke-miterlimit:10;" d="
				M418.8,842.7c0.5,0.1,1,0.2,1.6,0.3c0,0,4.9-20.1-0.8-27.1c-1.6-2-3.1-4.8-4.3-7.5c0,0-2-4-2.9-9.9c-0.6-3.3-0.7-6.4-0.2-8.8
				c0.4-3,1.2-6.1,2.6-9.2c1-2.7,2.3-4.9,3.8-6.6c3.2-3.8,6.6-5.3,6.6-5.3c3.6-0.2,7.7,3.7,7.7,3.7c6.9,6.2,13.3-1.3,13.3-1.3
				l-3.4-0.1c-7.1-0.2-14.3-7.8-18.2-9.3c-3.8-1.5-18.1-2.4-18.1-2.4c-3.7-1.5-3.6-9-7.2-13.2c-3.6-5.4-1.2-13.9-3.2-19.6
				c-2.9,0.6-1.6,0.4-4.8,0.8c4.9,10.8-2.1,19.5-2.1,19.5c5.5,7.8,7.5,17.8,9.3,19.8c-1,6-2.9,26.2-2.4,38.5c0,0.5,0.1,0.9,0.1,1.4
				C396.1,806.3,400.3,835.6,418.8,842.7z"/>
			<g>
				<path style="fill:#0E0F10;" d="M417,842.5C417,842.5,416.9,842.5,417,842.5c-0.4,0-0.6-0.3-0.5-0.6c0.7-6.4,0.1-19.1-3.6-26.3
					c-5.3-10.5-5.4-24.1-5.4-24.2c0-0.3,0.2-0.5,0.5-0.5c0.3,0,0.5,0.2,0.5,0.5c0,0.1,0.1,13.5,5.3,23.8c4.1,8.1,4.2,21.6,3.7,26.8
					C417.4,842.3,417.2,842.5,417,842.5z"/>
			</g>
			<g>
				<path style="fill:#0E0F10;" d="M412,839.2C412,839.2,412,839.2,412,839.2c-0.3,0-0.5-0.2-0.5-0.5c0.4-8.8-3.2-20.9-5.1-27.5
					c-0.4-1.2-0.7-2.2-0.9-3c-1.2-4.5-2.3-15.4-2.3-15.9c0-0.3,0.2-0.5,0.4-0.5c0.3,0,0.5,0.2,0.5,0.4c0,0.1,1.2,11.3,2.3,15.7
					c0.2,0.7,0.5,1.7,0.8,2.9c1.9,6.6,5.6,18.9,5.2,27.8C412.5,838.9,412.3,839.1,412,839.2z"/>
			</g>
			<g>
				<path style="fill:#0E0F10;" d="M406.1,832.9C406.1,832.9,406.1,832.9,406.1,832.9c-0.3,0-0.6-0.3-0.5-0.5
					c0.2-4-2.6-19.6-3.9-23.5c-1.3-4-1.8-15.1-1.8-15.6c0-0.3,0.2-0.5,0.5-0.5c0.3,0,0.5,0.2,0.5,0.5c0,0.1,0.5,11.5,1.8,15.3
					c1.3,3.9,4.2,19.8,4,23.9C406.6,832.7,406.4,832.9,406.1,832.9z"/>
			</g>
		</g>
		<path style="display:inline;fill:#F6F5F8;stroke:#000000;stroke-width:2;stroke-miterlimit:10;" d="M622.8,595.5
			c-56.6,39.6-109,19-109,19l-28.4-12.2l-2.1-0.3l-4.6,14.2l-8.5-15l-12.6,4.2c0,0-13.1,1.2-42.3,20.5l-0.3,0.3
			c-48.5,44.3-28.4,135.1-28.4,135.1l22.6-6.2c-0.9-36.4,9.1-77.5,16.2-96.1l11.2,87l87-3.4v-90.8c73,5.6,102.1-28.3,102.1-28.3
			l8.7-10.4C632.8,603,622.8,595.5,622.8,595.5z"/>
				<animate  accumulate="none" additive="replace" attributeName="display" begin="0s" 
				calcMode="linear" dur="6s" fill="remove" id="eyes             " keyTimes="0; 0.2; 0.22; 0.23; 0.24;  0.25; 0.96; 0.97;0.98; 0.99; 1" 
				repeatCount="indefinite" restart="always" values="inline;none;none;none;none;none;none;none;none;none;none">
			</animate>
	</g>
	<g id="f2_00000181785976429951676460000012125976182919341465_" style="display:none;">
		<g style="display:inline;">
			
				<linearGradient id="SVGID_00000001629794788537493370000007492886483689397169_" gradientUnits="userSpaceOnUse" x1="616.956" y1="-13.2" x2="634.2927" y2="-13.2" gradientTransform="matrix(1 0 0 1 0 560)">
				<stop  offset="0" style="stop-color:#FFCC99"/>
				<stop  offset="1" style="stop-color:#FF9999"/>
			</linearGradient>
			
				<path style="fill:url(#SVGID_00000001629794788537493370000007492886483689397169_);stroke:#000000;stroke-width:2;stroke-miterlimit:10;" d="
				M617,560.1l15.2-28.1c0,0,4.3,6.7,0.7,12.8c-3.7,6.1-11.5,16.8-11.5,16.8"/>
			
				<linearGradient id="SVGID_00000087401660512323998130000015692949825461996935_" gradientUnits="userSpaceOnUse" x1="518.7" y1="9.5755" x2="657.3438" y2="9.5755" gradientTransform="matrix(1 0 0 1 0 560)">
				<stop  offset="0" style="stop-color:#FFCC99"/>
				<stop  offset="1" style="stop-color:#FF9999"/>
			</linearGradient>
			
				<path style="fill:url(#SVGID_00000087401660512323998130000015692949825461996935_);stroke:#000000;stroke-width:2;stroke-miterlimit:10;" d="
				M650.4,552.5c-6.4-33.6,6.8-62.7,6.8-62.7c-20,0.6-15.5,17.6-15.5,17.6c-2.9,9-0.3,32.4,1,40.6c-7.3-3.1-15.2-3.9-15.2-3.9
				c-6.3,5.5-9.5,11.3-10.7,16.7c0,1.3,0.2,5.3,1.3,10c0,0,3.3,12.2,11.7,19.6c0.2,0.2,0.4,0.5,0.7,0.7
				c-4.2,7.6-15.6,26.6-29.5,34.6c-33.5,18.5-69.8,2-69.8,2l-12.5,13c5,2,9.8,3.5,14.6,4.5v0.4c40.6,10,65.9-1.7,80.7-15.1
				c7.6-6.5,29.2-43.9,29.2-43.9c4.1-9.6,9.4-21.2,10.4-27.6C653.8,556.6,652.6,554.4,650.4,552.5z"/>
			<path d="M651.2,553c-5.2-6.8-22.8-9.2-23.6-9.3h-0.1l-0.1,0.1c-0.1,0.1-3.6,1.8-6.8,8.2c-2.2,4.4-0.6,7.7,0.8,9.5
				c0,0.1,0,0.1,0,0.2c-0.1,2.9,1.4,4.8,2.4,5.4l4.3,11.8l0.4-0.1c0.1,0,6.1-1.9,4.7-8.6l-1.3-2.9c0.9-0.7,3.6-2.9,4.3-5.9l1.9,1.6
				c0.2,0.2,0.5,0.1,0.7-0.1c0.2-0.2,0.1-0.5-0.1-0.7l-3.2-2.7l-0.1,0.9c-0.3,3.7-4.3,6.3-4.3,6.3l-0.3,0.2l1.6,3.4
				c0.9,4.9-2.5,6.8-3.7,7.3l-4.4-12l6.9-13.6l18.1,3.4c0.2,0,0.5-0.1,0.5-0.4c0-0.3-0.1-0.5-0.4-0.5l-18.8-3.6l-7.3,14.4
				c-0.6-0.7-1.1-1.9-1-3.7c0.1-2.1,4.5-10.3,6.4-13.7l15.7,3.6c0.3,0.1,0.5-0.1,0.6-0.3s-0.1-0.5-0.3-0.6l-16.4-3.7l-0.2,0.3
				c-0.2,0.4-5.1,9-6.3,13.1c-1.1-1.7-2-4.4-0.2-7.9c2.7-5.5,5.7-7.4,6.3-7.7c1.7,0.2,18.1,2.7,22.8,8.9c0.2,0.2,0.4,0.2,0.6,0.1
				C651.3,553.5,651.4,553.2,651.2,553z"/>
		</g>
		<g style="display:inline;">
			<g>
				
					<linearGradient id="SVGID_00000006707387599750439860000000370073636562692752_" gradientUnits="userSpaceOnUse" x1="377.2765" y1="782.2201" x2="432.6072" y2="782.2201" gradientTransform="matrix(0.9181 -2.669926e-02 2.906982e-02 0.9996 8.2616 12.209)">
					<stop  offset="0" style="stop-color:#FFCC99"/>
					<stop  offset="1" style="stop-color:#FF9999"/>
				</linearGradient>
				
					<path style="fill:url(#SVGID_00000006707387599750439860000000370073636562692752_);stroke:#000000;stroke-width:2;stroke-miterlimit:10;" d="
					M400.2,842.1c0.5,0.1,0.9,0.3,1.4,0.3c0,0,5.2-19.8,0.2-27.1c-1.4-2.1-2.6-4.9-3.7-7.7c0,0-1.7-4.1-2.3-10
					c-0.4-3.3-0.5-6.4,0.1-8.8c0.4-2.9,1.3-6,2.7-9.1c1-2.7,2.3-4.8,3.7-6.5c3-3.7,6.3-5,6.3-5c3.3,0,7,4.1,7,4.1
					c6.1,6.5,12.2-0.7,12.2-0.7l-3.1-0.3c-6.5-0.5-12.8-8.4-16.4-10c-3.4-1.6-16.5-3.2-16.5-3.2c-3.4-1.7-3-9.1-6.2-13.5
					c-3.1-5.5-0.6-13.9-2.3-19.7c-2.7,0.5-1.5,0.3-4.5,0.6c4.1,11-2.6,19.4-2.6,19.4c4.7,8.1,6.3,18.1,7.8,20.2
					c-1.1,6-3.6,26.1-3.5,38.3c0,0.5,0,0.9,0,1.4C380.6,804.7,383.5,834.2,400.2,842.1z"/>
				<g>
					<path style="fill:#0E0F10;" d="M398.5,841.8C398.5,841.8,398.5,841.8,398.5,841.8c-0.3,0-0.5-0.3-0.5-0.6
						c0.9-6.3,0.7-19.1-2.3-26.4c-4.5-10.7-4.1-24.3-4.1-24.4c0-0.3,0.2-0.5,0.5-0.5c0.3,0,0.5,0.2,0.4,0.5c0,0.1-0.4,13.5,4,24
						c3.5,8.3,3.1,21.8,2.4,27C398.9,841.6,398.8,841.8,398.5,841.8z"/>
				</g>
				<g>
					<path style="fill:#0E0F10;" d="M394.1,838.2C394.1,838.2,394.1,838.2,394.1,838.2c-0.3,0-0.5-0.3-0.5-0.5
						c0.7-8.7-2.2-21-3.7-27.7c-0.3-1.2-0.5-2.3-0.7-3c-0.9-4.5-1.6-15.5-1.6-15.9c0-0.3,0.2-0.5,0.4-0.5c0.2,0,0.5,0.2,0.5,0.5
						c0,0.1,0.7,11.4,1.6,15.8c0.1,0.7,0.4,1.7,0.7,3c1.6,6.7,4.5,19.1,3.8,28C394.5,838,394.3,838.2,394.1,838.2z"/>
				</g>
				<g>
					<path style="fill:#0E0F10;" d="M388.9,831.7C388.9,831.7,388.9,831.7,388.9,831.7c-0.3,0-0.5-0.3-0.5-0.6
						c0.4-4-1.7-19.7-2.8-23.7c-1.1-4-1.1-15.2-1.1-15.7c0-0.3,0.2-0.5,0.5-0.5c0.3,0,0.5,0.2,0.5,0.5c0,0.1,0,11.5,1.1,15.4
						c1.1,4,3.2,20,2.8,24.1C389.4,831.5,389.2,831.7,388.9,831.7z"/>
				</g>
			</g>
			<path style="fill:#F6F5F8;stroke:#000000;stroke-width:2;stroke-miterlimit:10;" d="M622.8,595.5c-56.6,39.6-109,19-109,19
				l-28.4-12.2l-2.1-0.3l-4.6,14.2l-8.5-15l-12.6,4.2c0,0-13.1,1.2-42.3,20.5l-0.3,0.3c-48.5,44.3-44.6,132.1-44.6,132.1l28.3-5.6
				c-0.9-36.4,14.7-74.4,26.7-93.7l11.2,87l87-3.4v-90.8c73,5.6,102.1-28.3,102.1-28.3l8.7-10.4C632.8,603,622.8,595.5,622.8,595.5z
				"/>
		</g>
			<animate  accumulate="none" additive="replace" attributeName="display" begin="0s" 
				calcMode="linear" dur="6s" fill="remove" id="eyes             " keyTimes="0; 0.2; 0.22; 0.23; 0.24;  0.25; 0.96; 0.97;0.98; 0.99; 1" 
				repeatCount="indefinite" restart="always" values="none;inline;none;none;none;none;none;none;none;none;none">
			</animate>
	</g>
	<g id="f3_00000005250922984388741050000016306757062487984802_" style="display:none;">
		<g style="display:inline;">
			
				<linearGradient id="SVGID_00000044135434260198139520000017685735776628481920_" gradientUnits="userSpaceOnUse" x1="616.956" y1="-13.2" x2="634.2927" y2="-13.2" gradientTransform="matrix(1 0 0 1 0 560)">
				<stop  offset="0" style="stop-color:#FFCC99"/>
				<stop  offset="1" style="stop-color:#FF9999"/>
			</linearGradient>
			
				<path style="fill:url(#SVGID_00000044135434260198139520000017685735776628481920_);stroke:#000000;stroke-width:2;stroke-miterlimit:10;" d="
				M617,560.1l15.2-28.1c0,0,4.3,6.7,0.7,12.8c-3.7,6.1-11.5,16.8-11.5,16.8"/>
			
				<linearGradient id="SVGID_00000168099801381942764830000014683279882345303190_" gradientUnits="userSpaceOnUse" x1="518.7" y1="9.5755" x2="657.3438" y2="9.5755" gradientTransform="matrix(1 0 0 1 0 560)">
				<stop  offset="0" style="stop-color:#FFCC99"/>
				<stop  offset="1" style="stop-color:#FF9999"/>
			</linearGradient>
			
				<path style="fill:url(#SVGID_00000168099801381942764830000014683279882345303190_);stroke:#000000;stroke-width:2;stroke-miterlimit:10;" d="
				M650.4,552.5c-6.4-33.6,6.8-62.7,6.8-62.7c-20,0.6-15.5,17.6-15.5,17.6c-2.9,9-0.3,32.4,1,40.6c-7.3-3.1-15.2-3.9-15.2-3.9
				c-6.3,5.5-9.5,11.3-10.7,16.7c0,1.3,0.2,5.3,1.3,10c0,0,3.3,12.2,11.7,19.6c0.2,0.2,0.4,0.5,0.7,0.7
				c-4.2,7.6-15.6,26.6-29.5,34.6c-33.5,18.5-69.8,2-69.8,2l-12.5,13c5,2,9.8,3.5,14.6,4.5v0.4c40.6,10,65.9-1.7,80.7-15.1
				c7.6-6.5,29.2-43.9,29.2-43.9c4.1-9.6,9.4-21.2,10.4-27.6C653.8,556.6,652.6,554.4,650.4,552.5z"/>
			<path d="M651.2,553c-5.2-6.8-22.8-9.2-23.6-9.3h-0.1l-0.1,0.1c-0.1,0.1-3.6,1.8-6.8,8.2c-2.2,4.4-0.6,7.7,0.8,9.5
				c0,0.1,0,0.1,0,0.2c-0.1,2.9,1.4,4.8,2.4,5.4l4.3,11.8l0.4-0.1c0.1,0,6.1-1.9,4.7-8.6l-1.3-2.9c0.9-0.7,3.6-2.9,4.3-5.9l1.9,1.6
				c0.2,0.2,0.5,0.1,0.7-0.1c0.2-0.2,0.1-0.5-0.1-0.7l-3.2-2.7l-0.1,0.9c-0.3,3.7-4.3,6.3-4.3,6.3l-0.3,0.2l1.6,3.4
				c0.9,4.9-2.5,6.8-3.7,7.3l-4.4-12l6.9-13.6l18.1,3.4c0.2,0,0.5-0.1,0.5-0.4c0-0.3-0.1-0.5-0.4-0.5l-18.8-3.6l-7.3,14.4
				c-0.6-0.7-1.1-1.9-1-3.7c0.1-2.1,4.5-10.3,6.4-13.7l15.7,3.6c0.3,0.1,0.5-0.1,0.6-0.3s-0.1-0.5-0.3-0.6l-16.4-3.7l-0.2,0.3
				c-0.2,0.4-5.1,9-6.3,13.1c-1.1-1.7-2-4.4-0.2-7.9c2.7-5.5,5.7-7.4,6.3-7.7c1.7,0.2,18.1,2.7,22.8,8.9c0.2,0.2,0.4,0.2,0.6,0.1
				C651.3,553.5,651.4,553.2,651.2,553z"/>
		</g>
		<g style="display:inline;">
			
				<linearGradient id="SVGID_00000070105443360364104800000015866551921790953397_" gradientUnits="userSpaceOnUse" x1="320.2527" y1="777.3472" x2="375.5834" y2="777.3472" gradientTransform="matrix(0.7616 0.5133 -0.5589 0.8292 515.6125 -54.2824)">
				<stop  offset="0" style="stop-color:#FFCC99"/>
				<stop  offset="1" style="stop-color:#FF9999"/>
			</linearGradient>
			
				<path style="fill:url(#SVGID_00000070105443360364104800000015866551921790953397_);stroke:#000000;stroke-width:2;stroke-miterlimit:10;" d="
				M309.8,815.2c0.3,0.4,0.6,0.7,1,1.1c0,0,15.8-13.1,15.9-21.9c0.1-2.5,0.7-5.5,1.5-8.4c0,0,1-4.3,4-9.5c1.6-3,3.3-5.5,5.2-7.1
				c2.1-2.1,4.6-4.1,7.5-5.8c2.4-1.6,4.7-2.6,6.8-3.1c4.6-1.2,8-0.4,8-0.4c2.7,1.9,3.3,7.4,3.3,7.4c1.1,8.8,10.4,6.5,10.4,6.5
				l-2.4-2c-5-4.2-5.5-14.3-7.5-17.7C361.8,751,352,742,352,742c-1.7-3.3,2.9-9.1,2.9-14.6c0.7-6.3,7.6-11.7,9.6-17.4
				c-2.5-1.1-1.4-0.6-4-2.1c-3.1,11.4-13.5,14.2-13.5,14.2c-0.9,9.3-5.5,18.4-5.4,21c-4.4,4.2-18.1,19.1-25.2,29.1
				c-0.3,0.4-0.5,0.8-0.8,1.2C315.6,773.4,300.9,799,309.8,815.2z"/>
			<g>
				<path style="fill:#0E0F10;" d="M308.6,814C308.6,814,308.6,814,308.6,814c-0.2-0.2-0.2-0.5,0-0.7c4.4-4.6,11.7-15.1,13.5-22.8
					c2.6-11.3,10.8-22.1,10.9-22.2c0.2-0.2,0.5-0.3,0.7-0.1c0.2,0.2,0.2,0.5,0.1,0.7c-0.1,0.1-8.1,10.8-10.7,21.8
					c-2,8.8-10.1,19.5-13.7,23.3C309.1,814.1,308.8,814.1,308.6,814z"/>
			</g>
			<g>
				<path style="fill:#0E0F10;" d="M307.1,808.5C307.1,808.5,307.1,808.5,307.1,808.5c-0.2-0.2-0.2-0.5-0.1-0.7
					c5.6-6.7,10.5-18.4,13.1-24.7c0.5-1.2,0.9-2.2,1.2-2.8c1.9-4.2,7.7-13.5,8-13.9c0.1-0.2,0.4-0.3,0.7-0.2
					c0.2,0.2,0.3,0.4,0.1,0.7c-0.1,0.1-6.1,9.6-7.9,13.7c-0.3,0.7-0.7,1.6-1.2,2.8c-2.6,6.3-7.5,18.1-13.3,24.9
					C307.5,808.6,307.3,808.7,307.1,808.5z"/>
			</g>
			<g>
				<path style="fill:#0E0F10;" d="M306.7,800.2C306.7,800.2,306.6,800.2,306.7,800.2c-0.2-0.2-0.2-0.5-0.1-0.7
					c2.6-3,10.1-17,11.6-20.9c1.5-3.9,8-13,8.2-13.4c0.2-0.2,0.5-0.3,0.7-0.1c0.2,0.1,0.2,0.5,0.1,0.7c-0.1,0.1-6.7,9.4-8.1,13.1
					c-1.5,3.9-9.1,18.1-11.7,21.2C307.1,800.3,306.9,800.4,306.7,800.2z"/>
			</g>
		</g>
		<path style="display:inline;fill:#F6F5F8;stroke:#000000;stroke-width:2;stroke-miterlimit:10;" d="M622.8,595.5
			c-56.6,39.6-109,19-109,19l-28.4-12.2l-2.1-0.3l-4.6,14.2l-8.5-15l-12.6,4.2c0,0-13.1,1.2-42.3,20.5l-0.3,0.3
			c-48.5,44.3-82.7,104.2-82.7,104.2l29.7,9.8c24.1-45.1,48.6-63.6,63.4-81.1l11.2,87l87-3.4v-90.8c73,5.6,102.1-28.3,102.1-28.3
			l8.7-10.4C632.8,603,622.8,595.5,622.8,595.5z"/>
				<animate  accumulate="none" additive="replace" attributeName="display" begin="0s" 
				calcMode="linear" dur="6s" fill="remove" id="eyes             " keyTimes="0; 0.2; 0.22; 0.23; 0.24;  0.25; 0.96; 0.97;0.98; 0.99; 1" 
				repeatCount="indefinite" restart="always" values="none;none;inline;none;none;none;none;none;none;none;none">
			</animate>
	</g>
	<g id="f4" style="display:none;">
		<g style="display:inline;">
			
				<linearGradient id="SVGID_00000016044714986544552490000008589157468624211867_" gradientUnits="userSpaceOnUse" x1="616.956" y1="-13.2" x2="634.2927" y2="-13.2" gradientTransform="matrix(1 0 0 1 0 560)">
				<stop  offset="0" style="stop-color:#FFCC99"/>
				<stop  offset="1" style="stop-color:#FF9999"/>
			</linearGradient>
			
				<path style="fill:url(#SVGID_00000016044714986544552490000008589157468624211867_);stroke:#000000;stroke-width:2;stroke-miterlimit:10;" d="
				M617,560.1l15.2-28.1c0,0,4.3,6.7,0.7,12.8c-3.7,6.1-11.5,16.8-11.5,16.8"/>
			
				<linearGradient id="SVGID_00000108291321479475880400000003701754119116716207_" gradientUnits="userSpaceOnUse" x1="518.7" y1="9.5755" x2="657.3438" y2="9.5755" gradientTransform="matrix(1 0 0 1 0 560)">
				<stop  offset="0" style="stop-color:#FFCC99"/>
				<stop  offset="1" style="stop-color:#FF9999"/>
			</linearGradient>
			
				<path style="fill:url(#SVGID_00000108291321479475880400000003701754119116716207_);stroke:#000000;stroke-width:2;stroke-miterlimit:10;" d="
				M650.4,552.5c-6.4-33.6,6.8-62.7,6.8-62.7c-20,0.6-15.5,17.6-15.5,17.6c-2.9,9-0.3,32.4,1,40.6c-7.3-3.1-15.2-3.9-15.2-3.9
				c-6.3,5.5-9.5,11.3-10.7,16.7c0,1.3,0.2,5.3,1.3,10c0,0,3.3,12.2,11.7,19.6c0.2,0.2,0.4,0.5,0.7,0.7
				c-4.2,7.6-15.6,26.6-29.5,34.6c-33.5,18.5-69.8,2-69.8,2l-12.5,13c5,2,9.8,3.5,14.6,4.5v0.4c40.6,10,65.9-1.7,80.7-15.1
				c7.6-6.5,29.2-43.9,29.2-43.9c4.1-9.6,9.4-21.2,10.4-27.6C653.8,556.6,652.6,554.4,650.4,552.5z"/>
			<path d="M651.2,553c-5.2-6.8-22.8-9.2-23.6-9.3h-0.1l-0.1,0.1c-0.1,0.1-3.6,1.8-6.8,8.2c-2.2,4.4-0.6,7.7,0.8,9.5
				c0,0.1,0,0.1,0,0.2c-0.1,2.9,1.4,4.8,2.4,5.4l4.3,11.8l0.4-0.1c0.1,0,6.1-1.9,4.7-8.6l-1.3-2.9c0.9-0.7,3.6-2.9,4.3-5.9l1.9,1.6
				c0.2,0.2,0.5,0.1,0.7-0.1c0.2-0.2,0.1-0.5-0.1-0.7l-3.2-2.7l-0.1,0.9c-0.3,3.7-4.3,6.3-4.3,6.3l-0.3,0.2l1.6,3.4
				c0.9,4.9-2.5,6.8-3.7,7.3l-4.4-12l6.9-13.6l18.1,3.4c0.2,0,0.5-0.1,0.5-0.4c0-0.3-0.1-0.5-0.4-0.5l-18.8-3.6l-7.3,14.4
				c-0.6-0.7-1.1-1.9-1-3.7c0.1-2.1,4.5-10.3,6.4-13.7l15.7,3.6c0.3,0.1,0.5-0.1,0.6-0.3s-0.1-0.5-0.3-0.6l-16.4-3.7l-0.2,0.3
				c-0.2,0.4-5.1,9-6.3,13.1c-1.1-1.7-2-4.4-0.2-7.9c2.7-5.5,5.7-7.4,6.3-7.7c1.7,0.2,18.1,2.7,22.8,8.9c0.2,0.2,0.4,0.2,0.6,0.1
				C651.3,553.5,651.4,553.2,651.2,553z"/>
		</g>
		<g style="display:inline;">
			
				<linearGradient id="SVGID_00000029038483388341250480000000883574735364665519_" gradientUnits="userSpaceOnUse" x1="270.0833" y1="784.724" x2="325.414" y2="784.724" gradientTransform="matrix(0.3999 0.7624 -0.8856 0.4645 878.593 150.449)">
				<stop  offset="0" style="stop-color:#FFCC99"/>
				<stop  offset="1" style="stop-color:#FF9999"/>
			</linearGradient>
			
				<path style="fill:url(#SVGID_00000029038483388341250480000000883574735364665519_);stroke:#000000;stroke-width:2;stroke-miterlimit:10;" d="
				M248.9,765.7c0.1,0.4,0.2,0.9,0.3,1.4c0,0,19.9-4.4,24.4-11.7c1.3-2.1,3.3-4.4,5.4-6.5c0,0,3-3.2,8.1-6.4c2.8-1.8,5.5-3.2,8-3.8
				c2.8-0.9,6-1.5,9.3-1.7c2.8-0.4,5.3-0.2,7.3,0.3c4.5,1,7.1,3.1,7.1,3.1c1.4,2.8-0.8,7.7-0.8,7.7c-3.4,8,5.7,10,5.7,10l-1-2.7
				c-2.2-5.7,2.3-14.5,2.3-18.2c0.1-3.6-3.9-15.4-3.9-15.4c0.2-3.6,7-6.5,9.6-11.2c3.7-5,12.3-6.6,16.8-10.6c-1.6-2-0.9-1.1-2.4-3.5
				c-8.2,8.3-18.5,6.3-18.5,6.3c-5.3,7.5-13.7,13.3-15,15.5c-5.8,1.7-24.9,8.4-35.9,13.9c-0.4,0.2-0.8,0.4-1.2,0.7
				C274.4,732.7,249.2,748.1,248.9,765.7z"/>
			<g>
				<path style="fill:#0E0F10;" d="M248.5,764.1C248.5,764.1,248.4,764.1,248.5,764.1c-0.1-0.3,0.1-0.6,0.3-0.6
					c6-2.1,17.4-7.8,22.7-13.6c7.8-8.5,20.1-14.2,20.2-14.2c0.3-0.1,0.5,0,0.6,0.2c0.1,0.2,0,0.5-0.3,0.6
					c-0.1,0.1-12.3,5.6-19.9,13.9c-6,6.6-18.2,12.2-23.2,13.9C248.8,764.4,248.6,764.3,248.5,764.1z"/>
			</g>
			<g>
				<path style="fill:#0E0F10;" d="M249.8,758.8C249.8,758.8,249.8,758.8,249.8,758.8c-0.1-0.3,0-0.5,0.3-0.6
					c8.1-3.3,18-11.1,23.3-15.3c1-0.8,1.8-1.4,2.4-1.9c3.7-2.8,13.3-8.1,13.7-8.4c0.2-0.1,0.5-0.1,0.7,0.1c0.1,0.2,0,0.5-0.2,0.6
					c-0.1,0.1-9.9,5.6-13.5,8.3c-0.6,0.4-1.4,1.1-2.4,1.9c-5.4,4.2-15.3,12.2-23.6,15.5C250.2,759.1,249.9,759,249.8,758.8z"/>
			</g>
			<g>
				<path style="fill:#0E0F10;" d="M253.5,751.6C253.5,751.6,253.5,751.6,253.5,751.6c-0.1-0.3,0-0.5,0.3-0.6
					c3.7-1.5,17-10.1,20.1-12.8c3.2-2.7,13.2-7.6,13.6-7.8c0.2-0.1,0.5,0,0.6,0.2c0.1,0.2,0,0.5-0.3,0.6c-0.1,0.1-10.3,5.1-13.4,7.7
					c-3.1,2.7-16.6,11.5-20.5,13C253.9,751.9,253.6,751.8,253.5,751.6z"/>
			</g>
		</g>
		<path style="display:inline;fill:#F6F5F8;stroke:#000000;stroke-width:2;stroke-miterlimit:10;" d="M622.8,595.5
			c-56.6,39.6-109,19-109,19l-28.4-12.2l-2.1-0.3l-4.6,14.2l-8.5-15l-12.6,4.2c0,0-13.1,1.2-42.3,20.5l-0.3,0.3
			c-50.6,42.3-107.2,77.2-107.2,77.2l19.6,21.3c45.8-38.1,83-53.4,98.2-67.8l11,89l87-3.4v-90.8c73,5.6,102.1-28.3,102.1-28.3
			l8.7-10.4C632.8,603,622.8,595.5,622.8,595.5z"/>
					<animate  accumulate="none" additive="replace" attributeName="display" begin="0s" 
				calcMode="linear" dur="6s" fill="remove" id="eyes             " keyTimes="0; 0.2; 0.22; 0.23; 0.24;  0.25; 0.96; 0.97;0.98; 0.99; 1" 
				repeatCount="indefinite" restart="always" values="none;none;none;inline;none;none;none;none;none;none;none">
			</animate>
	</g>
	<g id="f5" style="display:none;">
		<g style="display:inline;">
			
				<linearGradient id="SVGID_00000176746712868603588460000000303497698301369790_" gradientUnits="userSpaceOnUse" x1="805.8495" y1="-326.872" x2="923.6277" y2="-326.872" gradientTransform="matrix(0.7849 -0.6197 0.6197 0.7849 -189.9619 1484.1959)">
				<stop  offset="0" style="stop-color:#FFCC99"/>
				<stop  offset="1" style="stop-color:#FF9999"/>
			</linearGradient>
			
				<path style="fill:url(#SVGID_00000176746712868603588460000000303497698301369790_);stroke:#000000;stroke-width:2;stroke-miterlimit:10;" d="
				M338.6,665.5c-4.7,3.9-10.1,7.2-15.9,9.9c-5.3,1.7-11.8,3.3-15.8,2.7c0,0-12.8-6.6-16.8-7.3c-4.1-0.8-14.2,2-20.4-1.5l-3-1.7
				c0,0,1.6,9.8,10.7,8c0,0,5.6-1.2,8.6,0.8c0,0,4.6,6.5,2.8,15.6c-0.5,3.4-1.3,6.5-2.6,9.2c-0.8,2.4-2.5,4.9-4.7,7.4
				c-3.9,4.6-7.6,7-7.6,7c-2.5,1.8-5.1,3.3-7.6,4.3c-8.5,3.1-14.7,22.8-14.7,22.8c4.4,2.1,8.4,0.4,8.4,0.4l0.4-0.3
				c-0.1,1-0.3,2.1-0.1,3.1c0,0,24.6-10.1,32.6-22.1c6.8-10.2,14.9-29.6,17.1-35.2c2.6-0.8,9.7-3.3,18.4-7.2c0,0,7.3-3.1,17.1-9.9
				C343,669.7,340.7,667.6,338.6,665.5z"/>
			<path style="fill:#0E0F10;" d="M305.8,680.4l0,1.4c-4.4,0.1-7.2,1-8.6,2.8c-1.1,1.4-1.4,3.2-0.7,5.8c0.6,2.4,1.2,7.6,1.2,12.8
				l0.3,0.4c-0.1,0-0.1,0-0.3,0.1c0,2.4-0.3,4.9-0.7,7.1c-0.3,1.4-0.9,2.6-1.6,3.7c-2,3.3-5.4,5.6-8.8,7.9c-1.8,1.3-3.7,2.7-5.3,4
				c-5.3,4.6-6.1,11.8-6,11.9l-1.3-0.2c0-0.3,0.8-7.7,6.6-12.8c1.6-1.5,3.5-2.8,5.4-4.1c4.4-3.1,8.8-6,9.9-10.7
				c0.4-1.9,0.7-4.1,0.7-6.2c-1.1,0.2-2.2,0.2-3.4-0.1c-0.6,2.7-1.8,5.4-3.3,7.8c-3.9,6-10,10.9-13.9,14.1l-1.1,0.9
				c-5,4-8.2,15.7-8.3,15.9c-0.1,0.3-0.4,0.6-0.8,0.5c-0.3-0.1-0.6-0.4-0.5-0.8c0.2-0.5,3.4-12.1,8.7-16.4l1.1-0.9
				c5.2-4.3,14.9-12.1,16.7-21.2c-2.3-0.7-4.3-2-4.4-2l0.7-1.2c0,0,4.8,3.1,8.4,2c-0.1-5.3-0.9-10.4-1.3-12c-0.7-3.1-0.4-5.3,1-7
				C297.8,681.7,301.1,680.5,305.8,680.4z"/>
			<path style="fill:#0E0F10;" d="M289.4,702.3c0.4,0.1,0.6,0.4,0.6,0.9c-0.1,0.3-0.2,0.7-0.3,0.9c-2.6,7.4-14.3,17.6-20.1,21.3
				c-2.3,1.4-4.5,4.7-6.2,9.6c-1.5,4.2-2.3,8.1-2.3,8.1l-0.1,0.1c-0.1,0.3-0.4,0.6-0.8,0.5c-0.1-0.1-0.3-0.1-0.5-0.3
				c0-0.1-0.1-0.4-0.1-0.5c0.1-0.3,0.8-4.1,2.3-8.3c1.9-5.2,4.2-8.7,6.8-10.4c5.6-3.5,17-13.5,19.6-20.5c0.1-0.3,0.3-0.5,0.2-0.9
				l0,0C288.7,702.4,289.1,702.3,289.4,702.3z"/>
		</g>
		<g style="display:inline;">
			
				<linearGradient id="SVGID_00000124878402883728621630000011880263517408497575_" gradientUnits="userSpaceOnUse" x1="616.956" y1="-13.2" x2="634.2927" y2="-13.2" gradientTransform="matrix(1 0 0 1 0 560)">
				<stop  offset="0" style="stop-color:#FFCC99"/>
				<stop  offset="1" style="stop-color:#FF9999"/>
			</linearGradient>
			
				<path style="fill:url(#SVGID_00000124878402883728621630000011880263517408497575_);stroke:#000000;stroke-width:2;stroke-miterlimit:10;" d="
				M617,560.1l15.2-28.1c0,0,4.3,6.7,0.7,12.8c-3.7,6.1-11.5,16.8-11.5,16.8"/>
			
				<linearGradient id="SVGID_00000121251037930916288280000008290449280000425407_" gradientUnits="userSpaceOnUse" x1="518.7" y1="9.5755" x2="657.3438" y2="9.5755" gradientTransform="matrix(1 0 0 1 0 560)">
				<stop  offset="0" style="stop-color:#FFCC99"/>
				<stop  offset="1" style="stop-color:#FF9999"/>
			</linearGradient>
			
				<path style="fill:url(#SVGID_00000121251037930916288280000008290449280000425407_);stroke:#000000;stroke-width:2;stroke-miterlimit:10;" d="
				M650.4,552.5c-6.4-33.6,6.8-62.7,6.8-62.7c-20,0.6-15.5,17.6-15.5,17.6c-2.9,9-0.3,32.4,1,40.6c-7.3-3.1-15.2-3.9-15.2-3.9
				c-6.3,5.5-9.5,11.3-10.7,16.7c0,1.3,0.2,5.3,1.3,10c0,0,3.3,12.2,11.7,19.6c0.2,0.2,0.4,0.5,0.7,0.7
				c-4.2,7.6-15.6,26.6-29.5,34.6c-33.5,18.5-69.8,2-69.8,2l-12.5,13c5,2,9.8,3.5,14.6,4.5v0.4c40.6,10,65.9-1.7,80.7-15.1
				c7.6-6.5,29.2-43.9,29.2-43.9c4.1-9.6,9.4-21.2,10.4-27.6C653.8,556.6,652.6,554.4,650.4,552.5z"/>
			<path d="M651.2,553c-5.2-6.8-22.8-9.2-23.6-9.3h-0.1l-0.1,0.1c-0.1,0.1-3.6,1.8-6.8,8.2c-2.2,4.4-0.6,7.7,0.8,9.5
				c0,0.1,0,0.1,0,0.2c-0.1,2.9,1.4,4.8,2.4,5.4l4.3,11.8l0.4-0.1c0.1,0,6.1-1.9,4.7-8.6l-1.3-2.9c0.9-0.7,3.6-2.9,4.3-5.9l1.9,1.6
				c0.2,0.2,0.5,0.1,0.7-0.1c0.2-0.2,0.1-0.5-0.1-0.7l-3.2-2.7l-0.1,0.9c-0.3,3.7-4.3,6.3-4.3,6.3l-0.3,0.2l1.6,3.4
				c0.9,4.9-2.5,6.8-3.7,7.3l-4.4-12l6.9-13.6l18.1,3.4c0.2,0,0.5-0.1,0.5-0.4c0-0.3-0.1-0.5-0.4-0.5l-18.8-3.6l-7.3,14.4
				c-0.6-0.7-1.1-1.9-1-3.7c0.1-2.1,4.5-10.3,6.4-13.7l15.7,3.6c0.3,0.1,0.5-0.1,0.6-0.3s-0.1-0.5-0.3-0.6l-16.4-3.7l-0.2,0.3
				c-0.2,0.4-5.1,9-6.3,13.1c-1.1-1.7-2-4.4-0.2-7.9c2.7-5.5,5.7-7.4,6.3-7.7c1.7,0.2,18.1,2.7,22.8,8.9c0.2,0.2,0.4,0.2,0.6,0.1
				C651.3,553.5,651.4,553.2,651.2,553z"/>
		</g>
		<path style="display:inline;fill:#F6F5F8;stroke:#000000;stroke-width:2;stroke-miterlimit:10;" d="M623.1,595.8
			c-56.6,39.6-109,19-109,19l-19.1-7l-11.9-3.7l-4,10.2l-8.7-12.6l0.1-0.2l-12.5,4.2c0,0-59.6,30.9-107.1,48.4
			c-7,3.5-32.2,13.6-32.2,13.6l1.7,27.3c0,0,58.8-20.9,106.6-38.8l9.9,90.1l87-3.4v-90.8c73,5.6,102.1-28.3,102.1-28.3l8.7-10.4
			C633.1,603.3,623.1,595.8,623.1,595.8z"/>
					<animate  accumulate="none" additive="replace" attributeName="display" begin="0s" 
				calcMode="linear" dur="6s" fill="remove" id="eyes             " keyTimes="0; 0.2; 0.22; 0.23; 0.24;  0.25; 0.96; 0.97;0.98; 0.99; 1" 
				repeatCount="indefinite" restart="always" values="none;none;none;none;inline;none;none;none;none;none;none">
			</animate>
	</g>
	<g id="f6" style="display:none;">
		<g style="display:inline;">
			
				<linearGradient id="SVGID_00000062877092640826108310000009216188953819379329_" gradientUnits="userSpaceOnUse" x1="813.9242" y1="-352.1115" x2="931.7024" y2="-352.1115" gradientTransform="matrix(0.9383 -0.3459 0.3459 0.9383 -413.2186 1296.0172)">
				<stop  offset="0" style="stop-color:#FFCC99"/>
				<stop  offset="1" style="stop-color:#FF9999"/>
			</linearGradient>
			
				<path style="fill:url(#SVGID_00000062877092640826108310000009216188953819379329_);stroke:#000000;stroke-width:2;stroke-miterlimit:10;" d="
				M341.9,655c-5.7,2.2-11.8,3.7-18.2,4.5c-5.6,0-12.3-0.5-15.9-2.3c0,0-10.1-10.2-13.7-12.1c-3.7-2-14.1-2.5-18.9-7.7l-2.3-2.5
				c0,0-1.5,9.8,7.7,10.9c0,0,5.7,0.6,7.9,3.4c0,0,2.4,7.6-2.2,15.7c-1.5,3.1-3.3,5.8-5.3,8c-1.5,2-3.9,3.9-6.8,5.6
				c-5.1,3.2-9.4,4.3-9.4,4.3c-2.9,0.9-5.9,1.6-8.5,1.7c-9,0.3-21,17.1-21,17.1c3.5,3.4,7.9,3,7.9,3l0.5-0.2
				c-0.4,0.9-0.9,1.9-1.1,2.9c0,0,26.5-2,37.8-10.9c9.6-7.6,23.3-23.5,27.2-28.2c2.7,0,10.2-0.1,19.7-1.1c0,0,7.9-0.7,19.3-4.1
				C344.8,660.3,343.3,657.6,341.9,655z"/>
			<path style="fill:#0E0F10;" d="M306.1,659l-0.4,1.3c-4.2-1.3-7.2-1.3-9,0c-1.5,1-2.3,2.6-2.5,5.3c-0.2,2.5-1.2,7.6-2.8,12.5
				l0.1,0.5c-0.1,0-0.1,0-0.3,0c-0.8,2.3-1.8,4.6-2.9,6.5c-0.7,1.2-1.7,2.2-2.7,3c-2.9,2.5-6.9,3.6-10.8,4.8
				c-2.1,0.7-4.3,1.4-6.3,2.2c-6.5,2.7-9.4,9.3-9.4,9.4l-1.2-0.6c0.1-0.3,3.2-7.1,10.2-10.1c2-0.9,4.2-1.6,6.4-2.2
				c5.2-1.6,10.2-3,12.7-7.1c1-1.7,1.9-3.7,2.6-5.7c-1.1-0.1-2.2-0.5-3.2-1.1c-1.4,2.4-3.4,4.6-5.6,6.4c-5.6,4.5-12.9,7.3-17.6,9.1
				l-1.3,0.5c-6,2.3-12.7,12.4-12.8,12.5c-0.2,0.3-0.6,0.4-0.9,0.2c-0.3-0.2-0.4-0.6-0.2-0.9c0.3-0.4,7-10.4,13.4-12.9l1.3-0.5
				c6.3-2.5,17.9-6.9,22.5-15c-2-1.4-3.5-3.2-3.6-3.3l1-0.9c0,0,3.6,4.4,7.4,4.5c1.6-5.1,2.4-10.2,2.5-11.8c0.3-3.2,1.3-5.2,3.1-6.4
				C298.1,657.7,301.6,657.6,306.1,659z"/>
			<path style="fill:#0E0F10;" d="M283.7,674.7c0.4,0.2,0.4,0.6,0.3,1c-0.2,0.3-0.4,0.6-0.6,0.8c-4.8,6.2-19.1,12.3-25.7,14
				c-2.6,0.6-5.7,3.1-8.9,7.2c-2.7,3.5-4.7,7-4.7,7l-0.1,0.1c-0.2,0.3-0.6,0.4-0.9,0.2c-0.1-0.1-0.3-0.2-0.4-0.4
				c0-0.1,0-0.4,0.1-0.5c0.2-0.3,2-3.7,4.8-7.2c3.4-4.4,6.7-7,9.7-7.8c6.4-1.6,20.4-7.6,25-13.4c0.2-0.2,0.4-0.4,0.5-0.8l0,0
				C283,674.6,283.4,674.6,283.7,674.7z"/>
		</g>
		<g style="display:inline;">
			
				<linearGradient id="SVGID_00000183928192138626318040000002607665467814346937_" gradientUnits="userSpaceOnUse" x1="616.956" y1="-13.2" x2="634.2927" y2="-13.2" gradientTransform="matrix(1 0 0 1 0 560)">
				<stop  offset="0" style="stop-color:#FFCC99"/>
				<stop  offset="1" style="stop-color:#FF9999"/>
			</linearGradient>
			
				<path style="fill:url(#SVGID_00000183928192138626318040000002607665467814346937_);stroke:#000000;stroke-width:2;stroke-miterlimit:10;" d="
				M617,560.1l15.2-28.1c0,0,4.3,6.7,0.7,12.8c-3.7,6.1-11.5,16.8-11.5,16.8"/>
			
				<linearGradient id="SVGID_00000140695016707077415930000009779129238905707439_" gradientUnits="userSpaceOnUse" x1="518.7" y1="9.5755" x2="657.3438" y2="9.5755" gradientTransform="matrix(1 0 0 1 0 560)">
				<stop  offset="0" style="stop-color:#FFCC99"/>
				<stop  offset="1" style="stop-color:#FF9999"/>
			</linearGradient>
			
				<path style="fill:url(#SVGID_00000140695016707077415930000009779129238905707439_);stroke:#000000;stroke-width:2;stroke-miterlimit:10;" d="
				M650.4,552.5c-6.4-33.6,6.8-62.7,6.8-62.7c-20,0.6-15.5,17.6-15.5,17.6c-2.9,9-0.3,32.4,1,40.6c-7.3-3.1-15.2-3.9-15.2-3.9
				c-6.3,5.5-9.5,11.3-10.7,16.7c0,1.3,0.2,5.3,1.3,10c0,0,3.3,12.2,11.7,19.6c0.2,0.2,0.4,0.5,0.7,0.7
				c-4.2,7.6-15.6,26.6-29.5,34.6c-33.5,18.5-69.8,2-69.8,2l-12.5,13c5,2,9.8,3.5,14.6,4.5v0.4c40.6,10,65.9-1.7,80.7-15.1
				c7.6-6.5,29.2-43.9,29.2-43.9c4.1-9.6,9.4-21.2,10.4-27.6C653.8,556.6,652.6,554.4,650.4,552.5z"/>
			<path d="M651.2,553c-5.2-6.8-22.8-9.2-23.6-9.3h-0.1l-0.1,0.1c-0.1,0.1-3.6,1.8-6.8,8.2c-2.2,4.4-0.6,7.7,0.8,9.5
				c0,0.1,0,0.1,0,0.2c-0.1,2.9,1.4,4.8,2.4,5.4l4.3,11.8l0.4-0.1c0.1,0,6.1-1.9,4.7-8.6l-1.3-2.9c0.9-0.7,3.6-2.9,4.3-5.9l1.9,1.6
				c0.2,0.2,0.5,0.1,0.7-0.1c0.2-0.2,0.1-0.5-0.1-0.7l-3.2-2.7l-0.1,0.9c-0.3,3.7-4.3,6.3-4.3,6.3l-0.3,0.2l1.6,3.4
				c0.9,4.9-2.5,6.8-3.7,7.3l-4.4-12l6.9-13.6l18.1,3.4c0.2,0,0.5-0.1,0.5-0.4c0-0.3-0.1-0.5-0.4-0.5l-18.8-3.6l-7.3,14.4
				c-0.6-0.7-1.1-1.9-1-3.7c0.1-2.1,4.5-10.3,6.4-13.7l15.7,3.6c0.3,0.1,0.5-0.1,0.6-0.3s-0.1-0.5-0.3-0.6l-16.4-3.7l-0.2,0.3
				c-0.2,0.4-5.1,9-6.3,13.1c-1.1-1.7-2-4.4-0.2-7.9c2.7-5.5,5.7-7.4,6.3-7.7c1.7,0.2,18.1,2.7,22.8,8.9c0.2,0.2,0.4,0.2,0.6,0.1
				C651.3,553.5,651.4,553.2,651.2,553z"/>
		</g>
		<path style="display:inline;fill:#F6F5F8;stroke:#000000;stroke-width:2;stroke-miterlimit:10;" d="M622.8,595.5
			c-56.6,39.6-109,19-109,19l-19.1-7l-12.6-3.9l-3.7,9l-7.2-11.7l-13.7,4.6c0,0-61.6,30.5-107,42.2c-7.4,1.9-30.7,5.4-30.7,5.4v21.9
			c0,0,57.3-1.4,105.1-19.3l11.6,90.4l87-3.4v-90.8c73,5.6,102.1-28.3,102.1-28.3l8.7-10.4C632.8,603,622.8,595.5,622.8,595.5z"/>
						<animate  accumulate="none" additive="replace" attributeName="display" begin="0s" 
				calcMode="linear" dur="6s" fill="remove" id="eyes             " keyTimes="0; 0.2; 0.22; 0.23; 0.24;  0.25; 0.96; 0.97;0.98; 0.99; 1" 
				repeatCount="indefinite" restart="always" values="none;none;none;none;none;inline;none;none;none;none;none">
			</animate>
	</g>
	<g id="f7" style="display:none;">
		<g style="display:inline;">
			
				<linearGradient id="SVGID_00000006680243579997451800000003531000892783214261_" gradientUnits="userSpaceOnUse" x1="805.8495" y1="-326.872" x2="923.6277" y2="-326.872" gradientTransform="matrix(0.7849 -0.6197 0.6197 0.7849 -189.9619 1484.1959)">
				<stop  offset="0" style="stop-color:#FFCC99"/>
				<stop  offset="1" style="stop-color:#FF9999"/>
			</linearGradient>
			
				<path style="fill:url(#SVGID_00000006680243579997451800000003531000892783214261_);stroke:#000000;stroke-width:2;stroke-miterlimit:10;" d="
				M338.6,665.5c-4.7,3.9-10.1,7.2-15.9,9.9c-5.3,1.7-11.8,3.3-15.8,2.7c0,0-12.8-6.6-16.8-7.3c-4.1-0.8-14.2,2-20.4-1.5l-3-1.7
				c0,0,1.6,9.8,10.7,8c0,0,5.6-1.2,8.6,0.8c0,0,4.6,6.5,2.8,15.6c-0.5,3.4-1.3,6.5-2.6,9.2c-0.8,2.4-2.5,4.9-4.7,7.4
				c-3.9,4.6-7.6,7-7.6,7c-2.5,1.8-5.1,3.3-7.6,4.3c-8.5,3.1-14.7,22.8-14.7,22.8c4.4,2.1,8.4,0.4,8.4,0.4l0.4-0.3
				c-0.1,1-0.3,2.1-0.1,3.1c0,0,24.6-10.1,32.6-22.1c6.8-10.2,14.9-29.6,17.1-35.2c2.6-0.8,9.7-3.3,18.4-7.2c0,0,7.3-3.1,17.1-9.9
				C343,669.7,340.7,667.6,338.6,665.5z"/>
			<path style="fill:#0E0F10;" d="M305.8,680.4l0,1.4c-4.4,0.1-7.2,1-8.6,2.8c-1.1,1.4-1.4,3.2-0.7,5.8c0.6,2.4,1.2,7.6,1.2,12.8
				l0.3,0.4c-0.1,0-0.1,0-0.3,0.1c0,2.4-0.3,4.9-0.7,7.1c-0.3,1.4-0.9,2.6-1.6,3.7c-2,3.3-5.4,5.6-8.8,7.9c-1.8,1.3-3.7,2.7-5.3,4
				c-5.3,4.6-6.1,11.8-6,11.9l-1.3-0.2c0-0.3,0.8-7.7,6.6-12.8c1.6-1.5,3.5-2.8,5.4-4.1c4.4-3.1,8.8-6,9.9-10.7
				c0.4-1.9,0.7-4.1,0.7-6.2c-1.1,0.2-2.2,0.2-3.4-0.1c-0.6,2.7-1.8,5.4-3.3,7.8c-3.9,6-10,10.9-13.9,14.1l-1.1,0.9
				c-5,4-8.2,15.7-8.3,15.9c-0.1,0.3-0.4,0.6-0.8,0.5c-0.3-0.1-0.6-0.4-0.5-0.8c0.2-0.5,3.4-12.1,8.7-16.4l1.1-0.9
				c5.2-4.3,14.9-12.1,16.7-21.2c-2.3-0.7-4.3-2-4.4-2l0.7-1.2c0,0,4.8,3.1,8.4,2c-0.1-5.3-0.9-10.4-1.3-12c-0.7-3.1-0.4-5.3,1-7
				C297.8,681.7,301.1,680.5,305.8,680.4z"/>
			<path style="fill:#0E0F10;" d="M289.4,702.3c0.4,0.1,0.6,0.4,0.6,0.9c-0.1,0.3-0.2,0.7-0.3,0.9c-2.6,7.4-14.3,17.6-20.1,21.3
				c-2.3,1.4-4.5,4.7-6.2,9.6c-1.5,4.2-2.3,8.1-2.3,8.1l-0.1,0.1c-0.1,0.3-0.4,0.6-0.8,0.5c-0.1-0.1-0.3-0.1-0.5-0.3
				c0-0.1-0.1-0.4-0.1-0.5c0.1-0.3,0.8-4.1,2.3-8.3c1.9-5.2,4.2-8.7,6.8-10.4c5.6-3.5,17-13.5,19.6-20.5c0.1-0.3,0.3-0.5,0.2-0.9
				l0,0C288.7,702.4,289.1,702.3,289.4,702.3z"/>
		</g>
		<g style="display:inline;">
			
				<linearGradient id="SVGID_00000152264456135302960080000012443031852647376041_" gradientUnits="userSpaceOnUse" x1="616.956" y1="-13.2" x2="634.2927" y2="-13.2" gradientTransform="matrix(1 0 0 1 0 560)">
				<stop  offset="0" style="stop-color:#FFCC99"/>
				<stop  offset="1" style="stop-color:#FF9999"/>
			</linearGradient>
			
				<path style="fill:url(#SVGID_00000152264456135302960080000012443031852647376041_);stroke:#000000;stroke-width:2;stroke-miterlimit:10;" d="
				M617,560.1l15.2-28.1c0,0,4.3,6.7,0.7,12.8c-3.7,6.1-11.5,16.8-11.5,16.8"/>
			
				<linearGradient id="SVGID_00000167387320848096144400000016405645742011287953_" gradientUnits="userSpaceOnUse" x1="518.7" y1="9.5755" x2="657.3438" y2="9.5755" gradientTransform="matrix(1 0 0 1 0 560)">
				<stop  offset="0" style="stop-color:#FFCC99"/>
				<stop  offset="1" style="stop-color:#FF9999"/>
			</linearGradient>
			
				<path style="fill:url(#SVGID_00000167387320848096144400000016405645742011287953_);stroke:#000000;stroke-width:2;stroke-miterlimit:10;" d="
				M650.4,552.5c-6.4-33.6,6.8-62.7,6.8-62.7c-20,0.6-15.5,17.6-15.5,17.6c-2.9,9-0.3,32.4,1,40.6c-7.3-3.1-15.2-3.9-15.2-3.9
				c-6.3,5.5-9.5,11.3-10.7,16.7c0,1.3,0.2,5.3,1.3,10c0,0,3.3,12.2,11.7,19.6c0.2,0.2,0.4,0.5,0.7,0.7
				c-4.2,7.6-15.6,26.6-29.5,34.6c-33.5,18.5-69.8,2-69.8,2l-12.5,13c5,2,9.8,3.5,14.6,4.5v0.4c40.6,10,65.9-1.7,80.7-15.1
				c7.6-6.5,29.2-43.9,29.2-43.9c4.1-9.6,9.4-21.2,10.4-27.6C653.8,556.6,652.6,554.4,650.4,552.5z"/>
			<path d="M651.2,553c-5.2-6.8-22.8-9.2-23.6-9.3h-0.1l-0.1,0.1c-0.1,0.1-3.6,1.8-6.8,8.2c-2.2,4.4-0.6,7.7,0.8,9.5
				c0,0.1,0,0.1,0,0.2c-0.1,2.9,1.4,4.8,2.4,5.4l4.3,11.8l0.4-0.1c0.1,0,6.1-1.9,4.7-8.6l-1.3-2.9c0.9-0.7,3.6-2.9,4.3-5.9l1.9,1.6
				c0.2,0.2,0.5,0.1,0.7-0.1c0.2-0.2,0.1-0.5-0.1-0.7l-3.2-2.7l-0.1,0.9c-0.3,3.7-4.3,6.3-4.3,6.3l-0.3,0.2l1.6,3.4
				c0.9,4.9-2.5,6.8-3.7,7.3l-4.4-12l6.9-13.6l18.1,3.4c0.2,0,0.5-0.1,0.5-0.4c0-0.3-0.1-0.5-0.4-0.5l-18.8-3.6l-7.3,14.4
				c-0.6-0.7-1.1-1.9-1-3.7c0.1-2.1,4.5-10.3,6.4-13.7l15.7,3.6c0.3,0.1,0.5-0.1,0.6-0.3s-0.1-0.5-0.3-0.6l-16.4-3.7l-0.2,0.3
				c-0.2,0.4-5.1,9-6.3,13.1c-1.1-1.7-2-4.4-0.2-7.9c2.7-5.5,5.7-7.4,6.3-7.7c1.7,0.2,18.1,2.7,22.8,8.9c0.2,0.2,0.4,0.2,0.6,0.1
				C651.3,553.5,651.4,553.2,651.2,553z"/>
		</g>
		<path style="display:inline;fill:#F6F5F8;stroke:#000000;stroke-width:2;stroke-miterlimit:10;" d="M623.1,595.8
			c-56.6,39.6-109,19-109,19l-19.1-7l-11.9-3.7l-4,10.2l-8.7-12.6l0.1-0.2l-12.5,4.2c0,0-59.6,30.9-107.1,48.4
			c-7,3.5-32.2,13.6-32.2,13.6l1.7,27.3c0,0,58.8-20.9,106.6-38.8l9.9,90.1l87-3.4v-90.8c73,5.6,102.1-28.3,102.1-28.3l8.7-10.4
			C633.1,603.3,623.1,595.8,623.1,595.8z"/>
						<animate  accumulate="none" additive="replace" attributeName="display" begin="0s" 
				calcMode="linear" dur="6s" fill="remove" id="eyes             " keyTimes="0; 0.2; 0.22; 0.23; 0.24;  0.25; 0.96; 0.97;0.98; 0.99; 1" 
				repeatCount="indefinite" restart="always" values="none;none;none;none;none;none;inline;none;none;none;none">
			</animate>
	</g>
	<g id="f8" style="display:none;">
		<g style="display:inline;">
			
				<linearGradient id="SVGID_00000049903508574006080590000001891400476859497366_" gradientUnits="userSpaceOnUse" x1="616.956" y1="-13.2" x2="634.2927" y2="-13.2" gradientTransform="matrix(1 0 0 1 0 560)">
				<stop  offset="0" style="stop-color:#FFCC99"/>
				<stop  offset="1" style="stop-color:#FF9999"/>
			</linearGradient>
			
				<path style="fill:url(#SVGID_00000049903508574006080590000001891400476859497366_);stroke:#000000;stroke-width:2;stroke-miterlimit:10;" d="
				M617,560.1l15.2-28.1c0,0,4.3,6.7,0.7,12.8c-3.7,6.1-11.5,16.8-11.5,16.8"/>
			
				<linearGradient id="SVGID_00000112622824249509098210000015249637293335787961_" gradientUnits="userSpaceOnUse" x1="518.7" y1="9.5755" x2="657.3438" y2="9.5755" gradientTransform="matrix(1 0 0 1 0 560)">
				<stop  offset="0" style="stop-color:#FFCC99"/>
				<stop  offset="1" style="stop-color:#FF9999"/>
			</linearGradient>
			
				<path style="fill:url(#SVGID_00000112622824249509098210000015249637293335787961_);stroke:#000000;stroke-width:2;stroke-miterlimit:10;" d="
				M650.4,552.5c-6.4-33.6,6.8-62.7,6.8-62.7c-20,0.6-15.5,17.6-15.5,17.6c-2.9,9-0.3,32.4,1,40.6c-7.3-3.1-15.2-3.9-15.2-3.9
				c-6.3,5.5-9.5,11.3-10.7,16.7c0,1.3,0.2,5.3,1.3,10c0,0,3.3,12.2,11.7,19.6c0.2,0.2,0.4,0.5,0.7,0.7
				c-4.2,7.6-15.6,26.6-29.5,34.6c-33.5,18.5-69.8,2-69.8,2l-12.5,13c5,2,9.8,3.5,14.6,4.5v0.4c40.6,10,65.9-1.7,80.7-15.1
				c7.6-6.5,29.2-43.9,29.2-43.9c4.1-9.6,9.4-21.2,10.4-27.6C653.8,556.6,652.6,554.4,650.4,552.5z"/>
			<path d="M651.2,553c-5.2-6.8-22.8-9.2-23.6-9.3h-0.1l-0.1,0.1c-0.1,0.1-3.6,1.8-6.8,8.2c-2.2,4.4-0.6,7.7,0.8,9.5
				c0,0.1,0,0.1,0,0.2c-0.1,2.9,1.4,4.8,2.4,5.4l4.3,11.8l0.4-0.1c0.1,0,6.1-1.9,4.7-8.6l-1.3-2.9c0.9-0.7,3.6-2.9,4.3-5.9l1.9,1.6
				c0.2,0.2,0.5,0.1,0.7-0.1c0.2-0.2,0.1-0.5-0.1-0.7l-3.2-2.7l-0.1,0.9c-0.3,3.7-4.3,6.3-4.3,6.3l-0.3,0.2l1.6,3.4
				c0.9,4.9-2.5,6.8-3.7,7.3l-4.4-12l6.9-13.6l18.1,3.4c0.2,0,0.5-0.1,0.5-0.4c0-0.3-0.1-0.5-0.4-0.5l-18.8-3.6l-7.3,14.4
				c-0.6-0.7-1.1-1.9-1-3.7c0.1-2.1,4.5-10.3,6.4-13.7l15.7,3.6c0.3,0.1,0.5-0.1,0.6-0.3s-0.1-0.5-0.3-0.6l-16.4-3.7l-0.2,0.3
				c-0.2,0.4-5.1,9-6.3,13.1c-1.1-1.7-2-4.4-0.2-7.9c2.7-5.5,5.7-7.4,6.3-7.7c1.7,0.2,18.1,2.7,22.8,8.9c0.2,0.2,0.4,0.2,0.6,0.1
				C651.3,553.5,651.4,553.2,651.2,553z"/>
		</g>
		<g style="display:inline;">
			
				<linearGradient id="SVGID_00000081646434703957119020000005429702912630072744_" gradientUnits="userSpaceOnUse" x1="270.0833" y1="784.724" x2="325.414" y2="784.724" gradientTransform="matrix(0.3999 0.7624 -0.8856 0.4645 878.593 150.449)">
				<stop  offset="0" style="stop-color:#FFCC99"/>
				<stop  offset="1" style="stop-color:#FF9999"/>
			</linearGradient>
			
				<path style="fill:url(#SVGID_00000081646434703957119020000005429702912630072744_);stroke:#000000;stroke-width:2;stroke-miterlimit:10;" d="
				M248.9,765.7c0.1,0.4,0.2,0.9,0.3,1.4c0,0,19.9-4.4,24.4-11.7c1.3-2.1,3.3-4.4,5.4-6.5c0,0,3-3.2,8.1-6.4c2.8-1.8,5.5-3.2,8-3.8
				c2.8-0.9,6-1.5,9.3-1.7c2.8-0.4,5.3-0.2,7.3,0.3c4.5,1,7.1,3.1,7.1,3.1c1.4,2.8-0.8,7.7-0.8,7.7c-3.4,8,5.7,10,5.7,10l-1-2.7
				c-2.2-5.7,2.3-14.5,2.3-18.2c0.1-3.6-3.9-15.4-3.9-15.4c0.2-3.6,7-6.5,9.6-11.2c3.7-5,12.3-6.6,16.8-10.6c-1.6-2-0.9-1.1-2.4-3.5
				c-8.2,8.3-18.5,6.3-18.5,6.3c-5.3,7.5-13.7,13.3-15,15.5c-5.8,1.7-24.9,8.4-35.9,13.9c-0.4,0.2-0.8,0.4-1.2,0.7
				C274.4,732.7,249.2,748.1,248.9,765.7z"/>
			<g>
				<path style="fill:#0E0F10;" d="M248.5,764.1C248.5,764.1,248.4,764.1,248.5,764.1c-0.1-0.3,0.1-0.6,0.3-0.6
					c6-2.1,17.4-7.8,22.7-13.6c7.8-8.5,20.1-14.2,20.2-14.2c0.3-0.1,0.5,0,0.6,0.2c0.1,0.2,0,0.5-0.3,0.6
					c-0.1,0.1-12.3,5.6-19.9,13.9c-6,6.6-18.2,12.2-23.2,13.9C248.8,764.4,248.6,764.3,248.5,764.1z"/>
			</g>
			<g>
				<path style="fill:#0E0F10;" d="M249.8,758.8C249.8,758.8,249.8,758.8,249.8,758.8c-0.1-0.3,0-0.5,0.3-0.6
					c8.1-3.3,18-11.1,23.3-15.3c1-0.8,1.8-1.4,2.4-1.9c3.7-2.8,13.3-8.1,13.7-8.4c0.2-0.1,0.5-0.1,0.7,0.1c0.1,0.2,0,0.5-0.2,0.6
					c-0.1,0.1-9.9,5.6-13.5,8.3c-0.6,0.4-1.4,1.1-2.4,1.9c-5.4,4.2-15.3,12.2-23.6,15.5C250.2,759.1,249.9,759,249.8,758.8z"/>
			</g>
			<g>
				<path style="fill:#0E0F10;" d="M253.5,751.6C253.5,751.6,253.5,751.6,253.5,751.6c-0.1-0.3,0-0.5,0.3-0.6
					c3.7-1.5,17-10.1,20.1-12.8c3.2-2.7,13.2-7.6,13.6-7.8c0.2-0.1,0.5,0,0.6,0.2c0.1,0.2,0,0.5-0.3,0.6c-0.1,0.1-10.3,5.1-13.4,7.7
					c-3.1,2.7-16.6,11.5-20.5,13C253.9,751.9,253.6,751.8,253.5,751.6z"/>
			</g>
		</g>
		<path style="display:inline;fill:#F6F5F8;stroke:#000000;stroke-width:2;stroke-miterlimit:10;" d="M622.8,595.5
			c-56.6,39.6-109,19-109,19l-28.4-12.2l-2.1-0.3l-4.6,14.2l-8.5-15l-12.6,4.2c0,0-13.1,1.2-42.3,20.5l-0.3,0.3
			c-50.6,42.3-107.2,77.2-107.2,77.2l19.6,21.3c45.8-38.1,83-53.4,98.2-67.8l11,89l87-3.4v-90.8c73,5.6,102.1-28.3,102.1-28.3
			l8.7-10.4C632.8,603,622.8,595.5,622.8,595.5z"/>
							<animate  accumulate="none" additive="replace" attributeName="display" begin="0s" 
				calcMode="linear" dur="6s" fill="remove" id="eyes             " keyTimes="0; 0.2; 0.22; 0.23; 0.24;  0.25; 0.96; 0.97;0.98; 0.99; 1" 
				repeatCount="indefinite" restart="always" values="none;none;none;none;none;none;none;inline;none;none;none">
			</animate>
	</g>
	<g id="f9" style="display:none;">
		<g style="display:inline;">
			
				<linearGradient id="SVGID_00000156563122203287272050000009378028049342296752_" gradientUnits="userSpaceOnUse" x1="616.956" y1="-13.2" x2="634.2927" y2="-13.2" gradientTransform="matrix(1 0 0 1 0 560)">
				<stop  offset="0" style="stop-color:#FFCC99"/>
				<stop  offset="1" style="stop-color:#FF9999"/>
			</linearGradient>
			
				<path style="fill:url(#SVGID_00000156563122203287272050000009378028049342296752_);stroke:#000000;stroke-width:2;stroke-miterlimit:10;" d="
				M617,560.1l15.2-28.1c0,0,4.3,6.7,0.7,12.8c-3.7,6.1-11.5,16.8-11.5,16.8"/>
			
				<linearGradient id="SVGID_00000168828943656544923930000005160649305218954901_" gradientUnits="userSpaceOnUse" x1="518.7" y1="9.5755" x2="657.3438" y2="9.5755" gradientTransform="matrix(1 0 0 1 0 560)">
				<stop  offset="0" style="stop-color:#FFCC99"/>
				<stop  offset="1" style="stop-color:#FF9999"/>
			</linearGradient>
			
				<path style="fill:url(#SVGID_00000168828943656544923930000005160649305218954901_);stroke:#000000;stroke-width:2;stroke-miterlimit:10;" d="
				M650.4,552.5c-6.4-33.6,6.8-62.7,6.8-62.7c-20,0.6-15.5,17.6-15.5,17.6c-2.9,9-0.3,32.4,1,40.6c-7.3-3.1-15.2-3.9-15.2-3.9
				c-6.3,5.5-9.5,11.3-10.7,16.7c0,1.3,0.2,5.3,1.3,10c0,0,3.3,12.2,11.7,19.6c0.2,0.2,0.4,0.5,0.7,0.7
				c-4.2,7.6-15.6,26.6-29.5,34.6c-33.5,18.5-69.8,2-69.8,2l-12.5,13c5,2,9.8,3.5,14.6,4.5v0.4c40.6,10,65.9-1.7,80.7-15.1
				c7.6-6.5,29.2-43.9,29.2-43.9c4.1-9.6,9.4-21.2,10.4-27.6C653.8,556.6,652.6,554.4,650.4,552.5z"/>
			<path d="M651.2,553c-5.2-6.8-22.8-9.2-23.6-9.3h-0.1l-0.1,0.1c-0.1,0.1-3.6,1.8-6.8,8.2c-2.2,4.4-0.6,7.7,0.8,9.5
				c0,0.1,0,0.1,0,0.2c-0.1,2.9,1.4,4.8,2.4,5.4l4.3,11.8l0.4-0.1c0.1,0,6.1-1.9,4.7-8.6l-1.3-2.9c0.9-0.7,3.6-2.9,4.3-5.9l1.9,1.6
				c0.2,0.2,0.5,0.1,0.7-0.1c0.2-0.2,0.1-0.5-0.1-0.7l-3.2-2.7l-0.1,0.9c-0.3,3.7-4.3,6.3-4.3,6.3l-0.3,0.2l1.6,3.4
				c0.9,4.9-2.5,6.8-3.7,7.3l-4.4-12l6.9-13.6l18.1,3.4c0.2,0,0.5-0.1,0.5-0.4c0-0.3-0.1-0.5-0.4-0.5l-18.8-3.6l-7.3,14.4
				c-0.6-0.7-1.1-1.9-1-3.7c0.1-2.1,4.5-10.3,6.4-13.7l15.7,3.6c0.3,0.1,0.5-0.1,0.6-0.3s-0.1-0.5-0.3-0.6l-16.4-3.7l-0.2,0.3
				c-0.2,0.4-5.1,9-6.3,13.1c-1.1-1.7-2-4.4-0.2-7.9c2.7-5.5,5.7-7.4,6.3-7.7c1.7,0.2,18.1,2.7,22.8,8.9c0.2,0.2,0.4,0.2,0.6,0.1
				C651.3,553.5,651.4,553.2,651.2,553z"/>
		</g>
		<g style="display:inline;">
			
				<linearGradient id="SVGID_00000169541653533861037300000012559393350882247593_" gradientUnits="userSpaceOnUse" x1="320.2527" y1="777.3472" x2="375.5834" y2="777.3472" gradientTransform="matrix(0.7616 0.5133 -0.5589 0.8292 515.6125 -54.2824)">
				<stop  offset="0" style="stop-color:#FFCC99"/>
				<stop  offset="1" style="stop-color:#FF9999"/>
			</linearGradient>
			
				<path style="fill:url(#SVGID_00000169541653533861037300000012559393350882247593_);stroke:#000000;stroke-width:2;stroke-miterlimit:10;" d="
				M309.8,815.2c0.3,0.4,0.6,0.7,1,1.1c0,0,15.8-13.1,15.9-21.9c0.1-2.5,0.7-5.5,1.5-8.4c0,0,1-4.3,4-9.5c1.6-3,3.3-5.5,5.2-7.1
				c2.1-2.1,4.6-4.1,7.5-5.8c2.4-1.6,4.7-2.6,6.8-3.1c4.6-1.2,8-0.4,8-0.4c2.7,1.9,3.3,7.4,3.3,7.4c1.1,8.8,10.4,6.5,10.4,6.5
				l-2.4-2c-5-4.2-5.5-14.3-7.5-17.7C361.8,751,352,742,352,742c-1.7-3.3,2.9-9.1,2.9-14.6c0.7-6.3,7.6-11.7,9.6-17.4
				c-2.5-1.1-1.4-0.6-4-2.1c-3.1,11.4-13.5,14.2-13.5,14.2c-0.9,9.3-5.5,18.4-5.4,21c-4.4,4.2-18.1,19.1-25.2,29.1
				c-0.3,0.4-0.5,0.8-0.8,1.2C315.6,773.4,300.9,799,309.8,815.2z"/>
			<g>
				<path style="fill:#0E0F10;" d="M308.6,814C308.6,814,308.6,814,308.6,814c-0.2-0.2-0.2-0.5,0-0.7c4.4-4.6,11.7-15.1,13.5-22.8
					c2.6-11.3,10.8-22.1,10.9-22.2c0.2-0.2,0.5-0.3,0.7-0.1c0.2,0.2,0.2,0.5,0.1,0.7c-0.1,0.1-8.1,10.8-10.7,21.8
					c-2,8.8-10.1,19.5-13.7,23.3C309.1,814.1,308.8,814.1,308.6,814z"/>
			</g>
			<g>
				<path style="fill:#0E0F10;" d="M307.1,808.5C307.1,808.5,307.1,808.5,307.1,808.5c-0.2-0.2-0.2-0.5-0.1-0.7
					c5.6-6.7,10.5-18.4,13.1-24.7c0.5-1.2,0.9-2.2,1.2-2.8c1.9-4.2,7.7-13.5,8-13.9c0.1-0.2,0.4-0.3,0.7-0.2
					c0.2,0.2,0.3,0.4,0.1,0.7c-0.1,0.1-6.1,9.6-7.9,13.7c-0.3,0.7-0.7,1.6-1.2,2.8c-2.6,6.3-7.5,18.1-13.3,24.9
					C307.5,808.6,307.3,808.7,307.1,808.5z"/>
			</g>
			<g>
				<path style="fill:#0E0F10;" d="M306.7,800.2C306.7,800.2,306.6,800.2,306.7,800.2c-0.2-0.2-0.2-0.5-0.1-0.7
					c2.6-3,10.1-17,11.6-20.9c1.5-3.9,8-13,8.2-13.4c0.2-0.2,0.5-0.3,0.7-0.1c0.2,0.1,0.2,0.5,0.1,0.7c-0.1,0.1-6.7,9.4-8.1,13.1
					c-1.5,3.9-9.1,18.1-11.7,21.2C307.1,800.3,306.9,800.4,306.7,800.2z"/>
			</g>
		</g>
		<path style="display:inline;fill:#F6F5F8;stroke:#000000;stroke-width:2;stroke-miterlimit:10;" d="M622.8,595.5
			c-56.6,39.6-109,19-109,19l-28.4-12.2l-2.1-0.3l-4.6,14.2l-8.5-15l-12.6,4.2c0,0-13.1,1.2-42.3,20.5l-0.3,0.3
			c-48.5,44.3-82.7,104.2-82.7,104.2l29.7,9.8c24.1-45.1,48.6-63.6,63.4-81.1l11.2,87l87-3.4v-90.8c73,5.6,102.1-28.3,102.1-28.3
			l8.7-10.4C632.8,603,622.8,595.5,622.8,595.5z"/>
							<animate  accumulate="none" additive="replace" attributeName="display" begin="0s" 
				calcMode="linear" dur="6s" fill="remove" id="eyes             " keyTimes="0; 0.2; 0.22; 0.23; 0.24;  0.25; 0.96; 0.97;0.98; 0.99; 1" 
				repeatCount="indefinite" restart="always" values="none;none;none;none;none;none;none;none;inline;none;none">
			</animate>
	</g>
	<g id="f10" style="display:none;">
		<g style="display:inline;">
			
				<linearGradient id="SVGID_00000026148331793825120180000009727064364522232243_" gradientUnits="userSpaceOnUse" x1="616.956" y1="-13.2" x2="634.2927" y2="-13.2" gradientTransform="matrix(1 0 0 1 0 560)">
				<stop  offset="0" style="stop-color:#FFCC99"/>
				<stop  offset="1" style="stop-color:#FF9999"/>
			</linearGradient>
			
				<path style="fill:url(#SVGID_00000026148331793825120180000009727064364522232243_);stroke:#000000;stroke-width:2;stroke-miterlimit:10;" d="
				M617,560.1l15.2-28.1c0,0,4.3,6.7,0.7,12.8c-3.7,6.1-11.5,16.8-11.5,16.8"/>
			
				<linearGradient id="SVGID_00000069384538819170106920000013820512750189667766_" gradientUnits="userSpaceOnUse" x1="518.7" y1="9.5755" x2="657.3438" y2="9.5755" gradientTransform="matrix(1 0 0 1 0 560)">
				<stop  offset="0" style="stop-color:#FFCC99"/>
				<stop  offset="1" style="stop-color:#FF9999"/>
			</linearGradient>
			
				<path style="fill:url(#SVGID_00000069384538819170106920000013820512750189667766_);stroke:#000000;stroke-width:2;stroke-miterlimit:10;" d="
				M650.4,552.5c-6.4-33.6,6.8-62.7,6.8-62.7c-20,0.6-15.5,17.6-15.5,17.6c-2.9,9-0.3,32.4,1,40.6c-7.3-3.1-15.2-3.9-15.2-3.9
				c-6.3,5.5-9.5,11.3-10.7,16.7c0,1.3,0.2,5.3,1.3,10c0,0,3.3,12.2,11.7,19.6c0.2,0.2,0.4,0.5,0.7,0.7
				c-4.2,7.6-15.6,26.6-29.5,34.6c-33.5,18.5-69.8,2-69.8,2l-12.5,13c5,2,9.8,3.5,14.6,4.5v0.4c40.6,10,65.9-1.7,80.7-15.1
				c7.6-6.5,29.2-43.9,29.2-43.9c4.1-9.6,9.4-21.2,10.4-27.6C653.8,556.6,652.6,554.4,650.4,552.5z"/>
			<path d="M651.2,553c-5.2-6.8-22.8-9.2-23.6-9.3h-0.1l-0.1,0.1c-0.1,0.1-3.6,1.8-6.8,8.2c-2.2,4.4-0.6,7.7,0.8,9.5
				c0,0.1,0,0.1,0,0.2c-0.1,2.9,1.4,4.8,2.4,5.4l4.3,11.8l0.4-0.1c0.1,0,6.1-1.9,4.7-8.6l-1.3-2.9c0.9-0.7,3.6-2.9,4.3-5.9l1.9,1.6
				c0.2,0.2,0.5,0.1,0.7-0.1c0.2-0.2,0.1-0.5-0.1-0.7l-3.2-2.7l-0.1,0.9c-0.3,3.7-4.3,6.3-4.3,6.3l-0.3,0.2l1.6,3.4
				c0.9,4.9-2.5,6.8-3.7,7.3l-4.4-12l6.9-13.6l18.1,3.4c0.2,0,0.5-0.1,0.5-0.4c0-0.3-0.1-0.5-0.4-0.5l-18.8-3.6l-7.3,14.4
				c-0.6-0.7-1.1-1.9-1-3.7c0.1-2.1,4.5-10.3,6.4-13.7l15.7,3.6c0.3,0.1,0.5-0.1,0.6-0.3s-0.1-0.5-0.3-0.6l-16.4-3.7l-0.2,0.3
				c-0.2,0.4-5.1,9-6.3,13.1c-1.1-1.7-2-4.4-0.2-7.9c2.7-5.5,5.7-7.4,6.3-7.7c1.7,0.2,18.1,2.7,22.8,8.9c0.2,0.2,0.4,0.2,0.6,0.1
				C651.3,553.5,651.4,553.2,651.2,553z"/>
		</g>
		<g style="display:inline;">
			<g>
				
					<linearGradient id="SVGID_00000047750833845819014770000016176338038198780333_" gradientUnits="userSpaceOnUse" x1="377.2765" y1="782.2201" x2="432.6072" y2="782.2201" gradientTransform="matrix(0.9181 -2.669926e-02 2.906982e-02 0.9996 8.2616 12.209)">
					<stop  offset="0" style="stop-color:#FFCC99"/>
					<stop  offset="1" style="stop-color:#FF9999"/>
				</linearGradient>
				
					<path style="fill:url(#SVGID_00000047750833845819014770000016176338038198780333_);stroke:#000000;stroke-width:2;stroke-miterlimit:10;" d="
					M400.2,842.1c0.5,0.1,0.9,0.3,1.4,0.3c0,0,5.2-19.8,0.2-27.1c-1.4-2.1-2.6-4.9-3.7-7.7c0,0-1.7-4.1-2.3-10
					c-0.4-3.3-0.5-6.4,0.1-8.8c0.4-2.9,1.3-6,2.7-9.1c1-2.7,2.3-4.8,3.7-6.5c3-3.7,6.3-5,6.3-5c3.3,0,7,4.1,7,4.1
					c6.1,6.5,12.2-0.7,12.2-0.7l-3.1-0.3c-6.5-0.5-12.8-8.4-16.4-10c-3.4-1.6-16.5-3.2-16.5-3.2c-3.4-1.7-3-9.1-6.2-13.5
					c-3.1-5.5-0.6-13.9-2.3-19.7c-2.7,0.5-1.5,0.3-4.5,0.6c4.1,11-2.6,19.4-2.6,19.4c4.7,8.1,6.3,18.1,7.8,20.2
					c-1.1,6-3.6,26.1-3.5,38.3c0,0.5,0,0.9,0,1.4C380.6,804.7,383.5,834.2,400.2,842.1z"/>
				<g>
					<path style="fill:#0E0F10;" d="M398.5,841.8C398.5,841.8,398.5,841.8,398.5,841.8c-0.3,0-0.5-0.3-0.5-0.6
						c0.9-6.3,0.7-19.1-2.3-26.4c-4.5-10.7-4.1-24.3-4.1-24.4c0-0.3,0.2-0.5,0.5-0.5c0.3,0,0.5,0.2,0.4,0.5c0,0.1-0.4,13.5,4,24
						c3.5,8.3,3.1,21.8,2.4,27C398.9,841.6,398.8,841.8,398.5,841.8z"/>
				</g>
				<g>
					<path style="fill:#0E0F10;" d="M394.1,838.2C394.1,838.2,394.1,838.2,394.1,838.2c-0.3,0-0.5-0.3-0.5-0.5
						c0.7-8.7-2.2-21-3.7-27.7c-0.3-1.2-0.5-2.3-0.7-3c-0.9-4.5-1.6-15.5-1.6-15.9c0-0.3,0.2-0.5,0.4-0.5c0.2,0,0.5,0.2,0.5,0.5
						c0,0.1,0.7,11.4,1.6,15.8c0.1,0.7,0.4,1.7,0.7,3c1.6,6.7,4.5,19.1,3.8,28C394.5,838,394.3,838.2,394.1,838.2z"/>
				</g>
				<g>
					<path style="fill:#0E0F10;" d="M388.9,831.7C388.9,831.7,388.9,831.7,388.9,831.7c-0.3,0-0.5-0.3-0.5-0.6
						c0.4-4-1.7-19.7-2.8-23.7c-1.1-4-1.1-15.2-1.1-15.7c0-0.3,0.2-0.5,0.5-0.5c0.3,0,0.5,0.2,0.5,0.5c0,0.1,0,11.5,1.1,15.4
						c1.1,4,3.2,20,2.8,24.1C389.4,831.5,389.2,831.7,388.9,831.7z"/>
				</g>
			</g>
			<path style="fill:#F6F5F8;stroke:#000000;stroke-width:2;stroke-miterlimit:10;" d="M622.8,595.5c-56.6,39.6-109,19-109,19
				l-28.4-12.2l-2.1-0.3l-4.6,14.2l-8.5-15l-12.6,4.2c0,0-13.1,1.2-42.3,20.5l-0.3,0.3c-48.5,44.3-44.6,132.1-44.6,132.1l28.3-5.6
				c-0.9-36.4,14.7-74.4,26.7-93.7l11.2,87l87-3.4v-90.8c73,5.6,102.1-28.3,102.1-28.3l8.7-10.4C632.8,603,622.8,595.5,622.8,595.5z
				"/>
		</g>
							<animate  accumulate="none" additive="replace" attributeName="display" begin="0s" 
				calcMode="linear" dur="6s" fill="remove" id="eyes             " keyTimes="0; 0.2; 0.22; 0.23; 0.24;  0.25; 0.96; 0.97;0.98; 0.99; 1" 
				repeatCount="indefinite" restart="always" values="none;none;none;none;none;none;none;none;none;inline;none">
			</animate>
	</g>
</g>
<g>
	<g>
		<polygon style="fill:#AE5694;stroke:#000000;stroke-width:2;stroke-miterlimit:10;" points="467.2,615.5 482.4,607.3 491.4,614.5 
			484.1,620.8 491.4,703 479.8,719.9 468.2,702 477.7,621 		"/>
		<polygon style="fill:#F6F5F8;stroke:#000000;stroke-width:2;stroke-miterlimit:10;" points="457.6,605.5 472.2,600.5 478.7,611.4 
			468.2,617.7 		"/>
		<polygon style="fill:#F6F5F8;stroke:#000000;stroke-width:2;stroke-miterlimit:10;" points="478.7,611.4 482.4,599.8 495.3,606.1 
			490.4,617.7 		"/>
	</g>
	<polygon style="fill:#F6F5F8;stroke:#000000;stroke-miterlimit:10;" points="495.3,636.1 515.4,634.2 515.4,639.3 495.3,642 	"/>
</g>
<g id="zoom">
	<g>
		<circle style="fill:#F6F5F8;stroke:#000000;stroke-width:2;stroke-miterlimit:10;" cx="651.3" cy="409.8" r="67.8"/>
		<path style="opacity:0.31;fill:#CCCCCC;enable-background:new    ;" d="M658.4,462.8c-34.1,0-61.6-27.7-61.6-61.6
			c0-11.1,2.9-21.4,8-30.5c-10,10.9-16.2,25.5-16.2,41.6c0,34.1,27.7,61.6,61.6,61.6c23,0,43-12.5,53.6-31.2
			C692.4,455,676.3,462.8,658.4,462.8z"/>
	</g>
	<g>
		
			<linearGradient id="SVGID_00000167386834638237856650000015203250542014159238_" gradientUnits="userSpaceOnUse" x1="681.128" y1="-32.3823" x2="681.128" y2="-75.7341" gradientTransform="matrix(1 0 0 1 0 464)">
			<stop  offset="5.586592e-03" style="stop-color:#287CF7"/>
			<stop  offset="1" style="stop-color:#2D8CFF"/>
		</linearGradient>
		<path style="fill:url(#SVGID_00000167386834638237856650000015203250542014159238_);" d="M685.4,388.2c-1.1,0-2,0.4-2.7,1.1
			l-7.3,7.3c-1.6,1.6-2.3,3.6-2.3,5.7v15c0,2.1,0.9,4.3,2.3,5.7l7.3,7.3c0.7,0.7,1.6,1.1,2.7,1.1l0,0c2.1,0,3.7-1.8,3.7-3.7v-17.9
			V392C689.5,390,687.7,388.2,685.4,388.2L685.4,388.2z"/>
		
			<linearGradient id="SVGID_00000081635567173368691770000004422004489620646807_" gradientUnits="userSpaceOnUse" x1="640.7" y1="-32.4" x2="640.7" y2="-75.7758" gradientTransform="matrix(1 0 0 1 0 464)">
			<stop  offset="5.586592e-03" style="stop-color:#287CF7"/>
			<stop  offset="1" style="stop-color:#2D8CFF"/>
		</linearGradient>
		<path style="fill:url(#SVGID_00000081635567173368691770000004422004489620646807_);" d="M619,388.2c-3,0-5.4,2.5-5.4,5.4V418
			c0,7.5,6.1,13.6,13.6,13.6h35.2c3,0,5.4-2.5,5.4-5.4v-24.5c0-7.5-6.1-13.6-13.6-13.6H619V388.2z"/>
	</g>
</g>
</svg>
