<?xml version="1.0" encoding="utf-8"?>
<!-- Generator: Adobe Illustrator 27.1.1, SVG Export Plug-In . SVG Version: 6.00 Build 0)  -->
<svg version="1.1" id="Layer_1" xmlns="http://www.w3.org/2000/svg" xmlns:xlink="http://www.w3.org/1999/xlink" x="0px" y="0px"
	 viewBox="0 0 1265 951" style="enable-background:new 0 0 1265 951;" xml:space="preserve">
	 	 	 	 	 <style>


	#slack, #linkedin, #zoom, #zendesk, #mail, #sales, #gmail, #hubspot, #meet, #in, #lers{
	animation:float 4s linear infinite;
	
	
}

	#plane{
	animation:float 2s linear infinite;
	
	
}


#line1,#line,  #line2, #line3, #line4, #line5, #line6, #line7, #line8{
	fill:none;
	stroke:#000000;
	stroke-width:3;
	stroke-miterlimit:10;
 stroke-linecap: round;
  stroke-dasharray: 0.5 9.5;
	  animation: animate-up 400ms linear infinite, float 4s linear infinite;

}

#sales{
	animation:pulse 1s infinite;
}


	 @keyframes float {
	0% {
		transform: translatey(0px);
	}
	50% {
		transform: translatey(-10px);
	}
	100% {
		transform: translatey(0px);
	}
}


@keyframes animate-down {
  to {
    stroke-dashoffset: 10;
  }
}
@-webkit-keyframes animate-down {
  to {
    stroke-dashoffset: 10;
  }
}

@keyframes animate-up {
  to {
    stroke-dashoffset: -10;
  }
}
@-webkit-keyframes animate-up {
  to {
    stroke-dashoffset: -10;
  }
}



	 </style>
<g id="mail">
	<g>
		<circle style="fill:#F6F5F8;stroke:#000000;stroke-width:2;stroke-miterlimit:10;" cx="683.3" cy="420.5" r="41.6"/>
		<path style="opacity:0.31;fill:#CCCCCC;enable-background:new    ;" d="M687.5,452.9c-20.8,0-37.7-16.9-37.7-37.7
			c0-6.8,1.8-13.2,4.9-18.7c-6.1,6.7-9.9,15.6-9.9,25.5c0,20.8,16.9,37.7,37.7,37.7c14,0,26.3-7.7,32.8-19.1
			C708.4,448.2,698.5,452.9,687.5,452.9z"/>
	</g>
	<g>
		<g>
			<path style="fill:#40B2E1;" d="M664,405.6c0.7-0.1,1.2-0.2,1.7-0.2c12.4,0,24.7,0,37.1,0c0.5,0,1,0.1,1.5,0.2
				c0.1,0.1,0.1,0.2,0.2,0.3c-0.2,0.1-0.4,0.2-0.6,0.3c-5.9,5.2-11.9,10.4-17.8,15.6c-1.4,1.2-2.2,1.2-3.6,0
				c-5.9-5.2-11.8-10.4-17.7-15.6C664.5,406.1,664.4,406,664,405.6z"/>
			<path style="fill:#40B2E1;" d="M664,435.4c5.3-4.6,10.4-9.1,15.5-13.6c0.7,0.6,1.3,1.1,2,1.7c1.8,1.6,3.8,1.6,5.6,0
				c0.6-0.5,1.3-1.1,1.9-1.7c5.1,4.5,10.2,9,15.5,13.6c-0.7,0.1-1.1,0.3-1.6,0.3c-12.4,0-24.8,0-37.2,0
				C665.1,435.6,664.7,435.5,664,435.4z"/>
			<path style="fill:#40B2E1;" d="M690.4,420.5c5.2-4.5,10.2-9,15.5-13.6c0.2,0.8,0.4,1.3,0.4,1.9c0,7.8,0,15.6,0,23.4
				c0,0.6-0.2,1.1-0.4,1.9C700.6,429.5,695.5,425,690.4,420.5z"/>
			<path style="fill:#40B2E1;" d="M678.1,420.5c-5.2,4.5-10.3,9-15.5,13.6c-0.2-0.8-0.4-1.4-0.4-2c0-7.8,0-15.5,0-23.3
				c0-0.6,0.2-1.2,0.4-2C667.8,411.5,672.9,416,678.1,420.5z"/>
		</g>
	</g>
</g>
<g id="hubspot">
	<g>
		<circle style="fill:#F6F5F8;stroke:#000000;stroke-width:2;stroke-miterlimit:10;" cx="851.8" cy="276.4" r="48.1"/>
		<path style="opacity:0.31;fill:#CCCCCC;enable-background:new    ;" d="M856.7,313.8c-24.1,0-43.6-19.5-43.6-43.6
			c0-7.8,2-15.2,5.6-21.5c-7.1,7.6-11.6,18.1-11.6,29.5c0,24.1,19.5,43.6,43.6,43.6c16.2,0,30.6-8.8,38-22.1
			C881,308.3,869.5,313.8,856.7,313.8z"/>
	</g>
	<path style="fill:#F8761F;" d="M873.9,277.1c-1.4-2.3-3.3-4.2-5.6-5.6c-1.8-1-3.6-1.7-5.7-2v-7.4c2.1-0.9,3.4-2.8,3.4-5.1
		c0-3.1-2.5-5.6-5.6-5.6s-5.6,2.5-5.6,5.6c0,2.3,1.2,4.2,3.3,5.1v7.4c-1.7,0.2-3.4,0.8-5,1.6c-3.2-2.4-13.7-10.4-19.9-15.1
		c0.1-0.5,0.3-1.1,0.3-1.6c0-3.4-2.8-6.2-6.2-6.2s-6.2,2.8-6.2,6.2s2.8,6.2,6.2,6.2c1.2,0,2.3-0.3,3.2-0.9l1.3,1l17.9,12.9
		c-0.9,0.9-1.8,1.9-2.5,3c-1.4,2.3-2.3,4.7-2.3,7.4v0.6c0,1.9,0.4,3.7,1,5.4c0.5,1.5,1.3,2.8,2.3,4l-5.9,5.9
		c-1.8-0.7-3.7-0.2-5.1,1.1c-0.9,0.9-1.4,2.1-1.4,3.4s0.5,2.5,1.4,3.4s2.1,1.4,3.4,1.4c1.3,0,2.5-0.5,3.4-1.4s1.4-2.1,1.4-3.4
		c0-0.5-0.1-1-0.2-1.4l6.1-6.1c0.8,0.6,1.7,1.1,2.7,1.5c1.9,0.8,4,1.3,6.4,1.3h0.4c2.6,0,5-0.6,7.3-1.8c2.4-1.3,4.3-3.1,5.7-5.4
		s2.2-4.8,2.2-7.6v-0.1C875.9,281.9,875.3,279.4,873.9,277.1L873.9,277.1z M866.5,290c-1.7,1.8-3.6,3-5.7,3h-0.4
		c-1.2,0-2.4-0.3-3.6-1c-1.3-0.7-2.3-1.7-3.2-2.9c-0.9-1.2-1.3-2.5-1.3-3.9v-0.4c0-1.4,0.3-2.7,0.9-3.9c0.7-1.3,1.7-2.4,3-3.2
		c1.3-0.8,2.6-1.2,4.1-1.2h0.1c1.4,0,2.6,0.3,3.9,0.9c1.2,0.7,2.2,1.6,3,2.8c0.8,1.2,1.2,2.5,1.4,3.9c0,0.3,0,0.6,0,0.9
		C868.6,286.6,867.9,288.4,866.5,290L866.5,290z"/>
</g>
<g id="plane">
	<polygon style="fill:#182A3B;stroke:#000000;stroke-width:2;stroke-miterlimit:10;" points="597.2,632.2 606.1,716.4 642,716.1 
		630.8,576.3 548.3,574.9 563,716.8 593.3,716.5 	"/>
	<path style="fill:none;stroke:#080B14;stroke-miterlimit:10;" d="M710,536.3"/>
	
		<linearGradient id="SVGID_1_" gradientUnits="userSpaceOnUse" x1="418.3126" y1="284.5309" x2="865.9" y2="284.5309" gradientTransform="matrix(1 0 0 -1 0 952)">
		<stop  offset="2.000000e-02" style="stop-color:#6A9EFF"/>
		<stop  offset="1" style="stop-color:#CAB5FF"/>
	</linearGradient>
	<path style="fill:url(#SVGID_1_);stroke:#000000;stroke-width:2;stroke-miterlimit:10;" d="M821,559.6c0,0-125.2,17.6-153,28.8
		c-0.7,0.3-1.3,0.6-1.9,0.8c0,0-4.1,1.6-10.6,5.2l0.1-0.4c0,0-33.7,17.6-49.9,38.4s-25.7,25-33.1,25.3c-7.4,0.2-15-11.4-18-18.7
		c-0.5-1.1-2-6.2-2.5-6.4c-0.6-2-0.1,0.6-0.5-0.9c-9.5,5.7-20.9,14.3-29.1,26c-19.1,27.1-46.2,60.7-56.5,35s-29.4-94.7-40.1-93.3
		s-7.9,100.8-4.7,120.4c3.3,19.6,6.5,56.9,33.6,55.5s411.1-52.5,411.1-52.5S795.8,651.3,821,559.6z"/>
	<g>
		<g>
			<g>
				<g>
					<g>
						<g>
							<defs>
								<polygon id="SVGID_00000011712368606683689200000002333294914026205590_" points="709.3,676.8 707.1,623.2 775.9,624.3 
									777.4,682.4 								"/>
							</defs>
							<clipPath id="SVGID_00000030475235639610699560000009306199856459826334_">
								<use xlink:href="#SVGID_00000011712368606683689200000002333294914026205590_"  style="overflow:visible;"/>
							</clipPath>
							<g style="clip-path:url(#SVGID_00000030475235639610699560000009306199856459826334_);">
								<g style="enable-background:new    ;">
									<g>
										<g>
											<g>
												<g>
													<g>
														<g>
															<defs>
																<polyline id="SVGID_00000083779194894099878740000011633073758400209851_" points="777.1,669 715.3,677.2 
																	707.6,635.7 768.3,624.1 777.1,669 																"/>
															</defs>
															<clipPath id="SVGID_00000147903413156169063110000007671283627215026585_">
																<use xlink:href="#SVGID_00000083779194894099878740000011633073758400209851_"  style="overflow:visible;"/>
															</clipPath>
														</g>
													</g>
												</g>
											</g>
											<g>
												<g>
													<g>
														<g>
															<defs>
																<polyline id="SVGID_00000031930282487797204790000000547360629420547213_" points="777.1,669 715.3,677.2 
																	707.6,635.7 768.3,624.1 777.1,669 																"/>
															</defs>
															<clipPath id="SVGID_00000035523190427429476310000002588261398639249031_">
																<use xlink:href="#SVGID_00000031930282487797204790000000547360629420547213_"  style="overflow:visible;"/>
															</clipPath>
														</g>
													</g>
												</g>
												<g>
													<g>
														<g>
															<defs>
																<polyline id="SVGID_00000009576238761804151200000006058979804516076160_" points="777.1,669 715.3,677.2 
																	707.6,635.7 768.3,624.1 777.1,669 																"/>
															</defs>
															<clipPath id="SVGID_00000166652480587856928030000007520364674548975248_">
																<use xlink:href="#SVGID_00000009576238761804151200000006058979804516076160_"  style="overflow:visible;"/>
															</clipPath>
														</g>
													</g>
													<g>
														<g>
															<defs>
																<polyline id="SVGID_00000150078916503617892490000002794543294387775874_" points="777.1,669 715.3,677.2 
																	707.6,635.7 768.3,624.1 777.1,669 																"/>
															</defs>
															<clipPath id="SVGID_00000160879369169130976340000014277270370784383131_">
																<use xlink:href="#SVGID_00000150078916503617892490000002794543294387775874_"  style="overflow:visible;"/>
															</clipPath>
														</g>
														<g>
															<defs>
																<polyline id="SVGID_00000183229263989602739810000004656794882230212031_" points="777.1,669 715.3,677.2 
																	707.6,635.7 768.3,624.1 777.1,669 																"/>
															</defs>
															<defs>
																<polyline id="SVGID_00000016058747396439182610000009494486141154754962_" points="777.1,669 715.3,677.2 
																	707.6,635.7 768.3,624.1 777.1,669 																"/>
															</defs>
															<clipPath id="SVGID_00000129901367801799983990000016983316313027667120_">
																<use xlink:href="#SVGID_00000183229263989602739810000004656794882230212031_"  style="overflow:visible;"/>
															</clipPath>
															
																<clipPath id="SVGID_00000119833166377007367800000004989222616018742688_" style="clip-path:url(#SVGID_00000129901367801799983990000016983316313027667120_);">
																<use xlink:href="#SVGID_00000016058747396439182610000009494486141154754962_"  style="overflow:visible;"/>
															</clipPath>
														</g>
													</g>
												</g>
											</g>
											<g>
												<g>
													<g>
														<g>
															<defs>
																<polyline id="SVGID_00000046303975190654665290000000059276378788417200_" points="777.1,669 715.3,677.2 
																	707.6,635.7 768.3,624.1 777.1,669 																"/>
															</defs>
															<clipPath id="SVGID_00000106869483488728772030000012071168526998310824_">
																<use xlink:href="#SVGID_00000046303975190654665290000000059276378788417200_"  style="overflow:visible;"/>
															</clipPath>
														</g>
													</g>
												</g>
												<g>
													<g>
														<g>
															<defs>
																<polyline id="SVGID_00000096052729826256387120000013538758783888775592_" points="777.1,669 715.3,677.2 
																	707.6,635.7 768.3,624.1 777.1,669 																"/>
															</defs>
															<clipPath id="SVGID_00000182519094828421728790000011126582394178007731_">
																<use xlink:href="#SVGID_00000096052729826256387120000013538758783888775592_"  style="overflow:visible;"/>
															</clipPath>
														</g>
													</g>
													<g>
														<g>
															<defs>
																<polyline id="SVGID_00000100341656603854101640000002371856815044340136_" points="777.1,669 715.3,677.2 
																	707.6,635.7 768.3,624.1 777.1,669 																"/>
															</defs>
															<clipPath id="SVGID_00000077296320964955270620000017115524946077859005_">
																<use xlink:href="#SVGID_00000100341656603854101640000002371856815044340136_"  style="overflow:visible;"/>
															</clipPath>
														</g>
														<g>
															<defs>
																<polyline id="SVGID_00000001627295031777099190000014845313019409587639_" points="777.1,669 715.3,677.2 
																	707.6,635.7 768.3,624.1 777.1,669 																"/>
															</defs>
															<defs>
																<polyline id="SVGID_00000135685999258751569070000007240767907712666506_" points="777.1,669 715.3,677.2 
																	707.6,635.7 768.3,624.1 777.1,669 																"/>
															</defs>
															<clipPath id="SVGID_00000037650118536526036100000017612698330402575535_">
																<use xlink:href="#SVGID_00000001627295031777099190000014845313019409587639_"  style="overflow:visible;"/>
															</clipPath>
															
																<clipPath id="SVGID_00000129190522523857857910000005934496839941116832_" style="clip-path:url(#SVGID_00000037650118536526036100000017612698330402575535_);">
																<use xlink:href="#SVGID_00000135685999258751569070000007240767907712666506_"  style="overflow:visible;"/>
															</clipPath>
														</g>
													</g>
													<g>
														<g>
															<defs>
																<polyline id="SVGID_00000016058943267785882110000009019841527243579309_" points="777.1,669 715.3,677.2 
																	707.6,635.7 768.3,624.1 777.1,669 																"/>
															</defs>
															<clipPath id="SVGID_00000049909215990745793520000008734669909208297094_">
																<use xlink:href="#SVGID_00000016058943267785882110000009019841527243579309_"  style="overflow:visible;"/>
															</clipPath>
														</g>
														<g>
															<defs>
																<polyline id="SVGID_00000063627294073860804640000004305710413679225761_" points="777.1,669 715.3,677.2 
																	707.6,635.7 768.3,624.1 777.1,669 																"/>
															</defs>
															<defs>
																<polyline id="SVGID_00000082336514912858847590000017321175120026028170_" points="777.1,669 715.3,677.2 
																	707.6,635.7 768.3,624.1 777.1,669 																"/>
															</defs>
															<clipPath id="SVGID_00000072978715438449290700000015276667603411318948_">
																<use xlink:href="#SVGID_00000063627294073860804640000004305710413679225761_"  style="overflow:visible;"/>
															</clipPath>
															
																<clipPath id="SVGID_00000039852738180926253870000014518631255673971379_" style="clip-path:url(#SVGID_00000072978715438449290700000015276667603411318948_);">
																<use xlink:href="#SVGID_00000082336514912858847590000017321175120026028170_"  style="overflow:visible;"/>
															</clipPath>
														</g>
														<g>
															<defs>
																<polyline id="SVGID_00000016757310561760102950000007856016226264418466_" points="777.1,669 715.3,677.2 
																	707.6,635.7 768.3,624.1 777.1,669 																"/>
															</defs>
															<defs>
																<polyline id="SVGID_00000147220310529549388960000015792759719857183417_" points="777.1,669 715.3,677.2 
																	707.6,635.7 768.3,624.1 777.1,669 																"/>
															</defs>
															<defs>
																<polyline id="SVGID_00000002372889239673043980000014165929779799676844_" points="777.1,669 715.3,677.2 
																	707.6,635.7 768.3,624.1 777.1,669 																"/>
															</defs>
															<clipPath id="SVGID_00000075147390343308364590000017783809636273419958_">
																<use xlink:href="#SVGID_00000016757310561760102950000007856016226264418466_"  style="overflow:visible;"/>
															</clipPath>
															
																<clipPath id="SVGID_00000095297409234559815980000007509241440566068616_" style="clip-path:url(#SVGID_00000075147390343308364590000017783809636273419958_);">
																<use xlink:href="#SVGID_00000147220310529549388960000015792759719857183417_"  style="overflow:visible;"/>
															</clipPath>
															
																<clipPath id="SVGID_00000072278383923505958930000007706350048983082681_" style="clip-path:url(#SVGID_00000095297409234559815980000007509241440566068616_);">
																<use xlink:href="#SVGID_00000002372889239673043980000014165929779799676844_"  style="overflow:visible;"/>
															</clipPath>
														</g>
														<g>
															<defs>
																<polyline id="SVGID_00000127765716122327529190000012387941011548651916_" points="777.1,669 715.3,677.2 
																	707.6,635.7 768.3,624.1 777.1,669 																"/>
															</defs>
															<defs>
																<polyline id="SVGID_00000005262712875724769670000006622734753582406037_" points="777.1,669 715.3,677.2 
																	707.6,635.7 768.3,624.1 777.1,669 																"/>
															</defs>
															<defs>
																<polyline id="SVGID_00000091003319505299386140000001256138299054191032_" points="777.1,669 715.3,677.2 
																	707.6,635.7 768.3,624.1 777.1,669 																"/>
															</defs>
															<defs>
																<polyline id="SVGID_00000000202856270063417350000009424250413973649569_" points="777.1,669 715.3,677.2 
																	707.6,635.7 768.3,624.1 777.1,669 																"/>
															</defs>
															<clipPath id="SVGID_00000002367121748364941700000000718882991189546677_">
																<use xlink:href="#SVGID_00000127765716122327529190000012387941011548651916_"  style="overflow:visible;"/>
															</clipPath>
															
																<clipPath id="SVGID_00000000214939380951454240000000825710784333103773_" style="clip-path:url(#SVGID_00000002367121748364941700000000718882991189546677_);">
																<use xlink:href="#SVGID_00000005262712875724769670000006622734753582406037_"  style="overflow:visible;"/>
															</clipPath>
															
																<clipPath id="SVGID_00000034072709510624542680000011011968677811674245_" style="clip-path:url(#SVGID_00000000214939380951454240000000825710784333103773_);">
																<use xlink:href="#SVGID_00000091003319505299386140000001256138299054191032_"  style="overflow:visible;"/>
															</clipPath>
															
																<clipPath id="SVGID_00000010989388670190427210000009575028911121031052_" style="clip-path:url(#SVGID_00000034072709510624542680000011011968677811674245_);">
																<use xlink:href="#SVGID_00000000202856270063417350000009424250413973649569_"  style="overflow:visible;"/>
															</clipPath>
															
																<path style="opacity:0.502;clip-path:url(#SVGID_00000010989388670190427210000009575028911121031052_);fill:#FFFFFF;enable-background:new    ;" d="
																M734.3,652.5l-0.1,0.2l0.2,0.2l0.1-0.2L734.3,652.5"/>
														</g>
													</g>
												</g>
											</g>
										</g>
									</g>
								</g>
							</g>
						</g>
					</g>
				</g>
			</g>
		</g>
		<path style="fill:#061123;" d="M883.2,755c-9.8,2.4-265.2,20.5-265.2,20.5s-220.6,5.1-264,7s-161-3.3-161-25.2
			s32.2-22.9,46.2-25.7s371,0,453.6,0s305.2-25.2,329-25.2s25.2,15.4,15.4,23.8c-9.8,8.4-44.8,8.4-44.8,8.4S893,752.6,883.2,755z"/>
		
			<linearGradient id="SVGID_00000008121119817470538660000005404718175008306859_" gradientUnits="userSpaceOnUse" x1="193" y1="215.05" x2="1042.811" y2="215.05" gradientTransform="matrix(1 0 0 -1 0 952)">
			<stop  offset="2.000000e-02" style="stop-color:#6A9EFF"/>
			<stop  offset="1" style="stop-color:#CAB5FF"/>
		</linearGradient>
		
			<path style="fill:url(#SVGID_00000008121119817470538660000005404718175008306859_);stroke:#000000;stroke-width:2;stroke-miterlimit:10;" d="
			M193,757.3c0,3.9,3.7,7.2,9.9,10.1c0.6-5.1,7.6-6.9,23.5-16.4c25.6-15.4,355.6-9.8,427-6.3s350-23.1,368.2-20.5
			c7.2,1,10.7,4.4,12.2,8.2c1.3-0.6,2.4-1.4,3.3-2.1c9.8-8.4,8.4-23.8-15.4-23.8c-23.8,0-246.4,25.2-329,25.2s-439.6-2.8-453.6,0
			C225.2,734.4,193,735.4,193,757.3z"/>
		<g>
			<path style="fill:#061123;" d="M802.2,638c0,0,6.1,60.7,36.4,84s77.5,7,77.5,7l-0.4-0.5c-31.1,5.1-64.1-35.4-73.8-90.7
				c-8.1-45.9,2.4-87.7,23.8-103.9c-8.5,2.5-33.7,10.3-38.7,14.6C820.9,553.5,795.5,559.9,802.2,638z"/>
			
				<linearGradient id="SVGID_00000039819016098176933590000013906581353655870628_" gradientUnits="userSpaceOnUse" x1="830.9678" y1="319.35" x2="949.5322" y2="319.35" gradientTransform="matrix(1 0 0 -1 0 952)">
				<stop  offset="2.000000e-02" style="stop-color:#6A9EFF"/>
				<stop  offset="1" style="stop-color:#CAB5FF"/>
			</linearGradient>
			
				<path style="fill:url(#SVGID_00000039819016098176933590000013906581353655870628_);stroke:#000000;stroke-width:2;stroke-miterlimit:10;" d="
				M872.5,532c31.2-5.5,64.5,35.1,74.3,90.7c9.8,55.6-7.6,105.1-38.8,110.6s-64.5-35.1-74.3-90.7S841.3,537.5,872.5,532z"/>
			
				<ellipse transform="matrix(0.9848 -0.1736 0.1736 0.9848 -96.2201 165.29)" style="fill:#061123;" cx="896.8" cy="632.7" rx="45.9" ry="81.8"/>
			<g>
				
					<linearGradient id="SVGID_00000034775392215187723500000008338855226353911723_" gradientUnits="userSpaceOnUse" x1="884.6967" y1="323.5" x2="920.2034" y2="323.5" gradientTransform="matrix(1 0 0 -1 0 952)">
					<stop  offset="2.000000e-02" style="stop-color:#6A9EFF"/>
					<stop  offset="1" style="stop-color:#CAB5FF"/>
				</linearGradient>
				
					<path style="fill:url(#SVGID_00000034775392215187723500000008338855226353911723_);stroke:#000000;stroke-width:2;stroke-miterlimit:10;" d="
					M919.4,625.5c2.9,16.7-2.3,31.5-11.6,33.2c-9.4,1.7-19.3-10.5-22.3-27.2c-2.9-16.7,2.3-31.5,11.6-33.2S916.4,608.8,919.4,625.5z
					"/>
				
					<ellipse transform="matrix(0.9848 -0.1736 0.1736 0.9848 -95.371 166.5977)" style="fill:#739FFF;stroke:#000000;stroke-width:2;stroke-miterlimit:9.9994;" cx="904.7" cy="628.5" rx="11" ry="19.6"/>
			</g>
			<path style="opacity:0.5;fill:#142551;enable-background:new    ;" d="M814.2,648.1c13.7,77.8,60.3,134.7,104,127
				s68-77,54.3-154.9c-13.7-77.8-60.3-134.7-104-127C824.8,501,800.5,570.3,814.2,648.1z M877.8,517.6c35-6.2,72.2,39.3,83.2,101.6
				s-8.4,117.7-43.4,123.8s-72.2-39.3-83.2-101.6C823.4,579.2,842.9,523.7,877.8,517.6z"/>
		</g>
		<path style="fill:#0D3151;" d="M624.2,805.6"/>
		<path style="opacity:0.5;fill:#142551;enable-background:new    ;" d="M821.1,700.4c0,0-226.4,20.6-283.4,22.1s-118.5-15-118.5-15
			c2.2,17.7,3.2,22.7,3.2,22.7l17.8-0.5c53.5,0.8,205.2,2.9,224.9,1.7c24-1.5,110.4,0.1,172.3-7.5L821.1,700.4z"/>
	</g>
	<path style="fill:#142551;" d="M684.6,583.6c-5.7,5-18.6,17.7-29.8,37.1c-13.5,23.5-27.2,61.9-15,111.5l1.9-0.5
		c-12-48.9,1.4-86.8,14.8-109.9c14.5-25.1,32-38.9,32.2-39l-0.1-0.3L684.6,583.6z"/>
	<g>
		<ellipse style="fill:#142551;" cx="684.4" cy="608.2" rx="9.1" ry="9.1"/>
		<circle style="opacity:0.2;fill:#142551;enable-background:new    ;" cx="685.9" cy="610" r="9.1"/>
		<circle style="fill:#F0E5F0;" cx="682.2" cy="605" r="2.7"/>
	</g>
	<g>
		<circle style="fill:#142551;" cx="664.7" cy="649.8" r="9.1"/>
		<circle style="opacity:0.2;fill:#142551;enable-background:new    ;" cx="666.3" cy="651.7" r="9.1"/>
		<circle style="fill:#F0E5F0;" cx="662.5" cy="646.6" r="2.7"/>
	</g>
	<circle style="fill:#142551;" cx="654" cy="692.2" r="9.1"/>
	<circle style="opacity:0.2;fill:#142551;enable-background:new    ;" cx="655.6" cy="694" r="9.1"/>
	<circle style="fill:#F0E5F0;" cx="651.9" cy="689" r="2.7"/>
	<g>
		<g>
			
				<radialGradient id="SVGID_00000059272743637209102890000006689188582303484343_" cx="391.2752" cy="426.2748" r="151.9034" gradientUnits="userSpaceOnUse">
				<stop  offset="0.8622" style="stop-color:#FFCB99"/>
				<stop  offset="1" style="stop-color:#FF9999"/>
			</radialGradient>
			
				<path style="fill:url(#SVGID_00000059272743637209102890000006689188582303484343_);stroke:#000000;stroke-width:2;stroke-miterlimit:10;" d="
				M417.6,461.2c-7.1,0.9-14.6,0.9-22.1,0c-6.4-1.6-13.9-4.1-17.6-7.1c0,0-8.7-14.5-12.2-17.7c-3.7-3.4-15.4-6.9-19.4-14.1l-1.9-3.5
				c0,0-4.5,10.8,5.7,14.6c0,0,6.4,2.2,8.1,6.1c0,0,0.6,9.3-6.9,17.3c-2.5,3.2-5.4,5.7-8.3,7.7c-2.3,1.9-5.5,3.4-9.3,4.5
				c-6.7,2.2-12,2.3-12,2.3c-3.5,0.3-7.2,0.2-10.2-0.4c-10.4-2.2-28.8,13.6-28.8,13.6c3.1,4.9,8.2,5.6,8.2,5.6l0.6-0.1
				c-0.7,0.8-1.5,1.9-2,3c0,0,30.8,5.1,46.2-1.9c13.1-5.9,33.2-20.3,39-24.6c3.1,0.8,11.7,2.8,22.8,4.3c0,0,9.2,1.4,23.2,0.7
				C419.4,467.9,418.5,464.3,417.6,461.2z"/>
			<path style="fill:#0E0F10;" d="M375.7,455.4l-0.8,1.4c-4.5-2.7-7.9-3.5-10.3-2.5c-1.9,0.7-3.3,2.3-4.3,5.3
				c-0.9,2.8-3.5,8.4-6.7,13.5l-0.1,0.6c-0.1-0.1-0.1-0.1-0.3-0.1c-1.6,2.4-3.4,4.8-5.2,6.6c-1.2,1.2-2.6,2.1-4,2.7
				c-4,2-8.9,2.2-13.7,2.4c-2.6,0.2-5.3,0.4-7.8,0.7c-8.2,1.3-13.3,8-13.4,8.2l-1.2-1c0.3-0.3,5.7-7.2,14.5-8.7
				c2.6-0.5,5.3-0.7,7.9-0.8c6.4-0.4,12.5-0.6,16.5-4.6c1.6-1.6,3.2-3.7,4.5-5.8c-1.3-0.5-2.4-1.2-3.4-2.2c-2.3,2.4-5.2,4.3-8.2,5.7
				c-7.7,3.6-16.9,4.8-22.7,5.5l-1.6,0.2c-7.6,1-18,10.6-18.2,10.7c-0.3,0.3-0.8,0.3-1,0c-0.3-0.3-0.3-0.8,0-1
				c0.4-0.4,10.9-9.9,18.9-11l1.6-0.2c7.8-1,22.4-2.8,29.9-10.8c-1.9-2.1-3.1-4.6-3.2-4.7l1.4-0.7c0,0,2.9,6.1,7.2,7.2
				c3.3-5.4,5.6-11,6.2-12.8c1.2-3.6,3-5.6,5.3-6.5C366.8,451.8,370.8,452.7,375.7,455.4z"/>
			<path style="fill:#0E0F10;" d="M345.6,467.4c0.4,0.3,0.3,0.8,0.1,1.2c-0.3,0.3-0.6,0.5-0.9,0.7c-7.2,5.8-25.3,8.7-33.3,8.8
				c-3.2-0.1-7.4,1.9-12.2,5.7c-4,3.2-7.4,6.7-7.4,6.7l-0.2,0.1c-0.3,0.3-0.8,0.3-1,0c-0.1-0.2-0.2-0.3-0.3-0.6
				c0.1-0.1,0.1-0.5,0.3-0.6c0.3-0.3,3.3-3.7,7.5-6.9c5.1-4.1,9.6-6.1,13.3-6.2c7.8-0.1,25.4-3,32.3-8.4c0.2-0.2,0.6-0.3,0.8-0.8
				l0,0C344.8,466.9,345.2,467,345.6,467.4z"/>
		</g>
		<g>
			
				<radialGradient id="SVGID_00000157990100211111250130000009696803924586107058_" cx="131.8701" cy="1053.3279" r="55.2908" gradientTransform="matrix(-0.9992 4.110896e-02 -4.110896e-02 -0.9992 971.1025 1453.7513)" gradientUnits="userSpaceOnUse">
				<stop  offset="5.916801e-02" style="stop-color:#FFCB99"/>
				<stop  offset="0.8622" style="stop-color:#FFCB99"/>
			</radialGradient>
			
				<path style="fill:url(#SVGID_00000157990100211111250130000009696803924586107058_);stroke:#000000;stroke-width:2;stroke-miterlimit:10;" d="
				M727.8,434.2c13.9-1.4,22.8-4.2,22.8-4.2c10.8-3.2,19-6.5,21.9-7.7c6.4,3.3,28.4,14.5,42.3,18.3c16.3,4.6,46-5.2,46-5.2
				c-0.7-1-1.6-1.9-2.5-2.6h0.6c0,0,5-1.5,7.3-6.8c0,0-20.6-12.9-30.6-9.1c-2.9,1.1-6.5,1.7-10,2c0,0-5.2,0.8-12.2-0.4
				c-3.9-0.5-7.4-1.5-9.9-3c-3.2-1.5-6.4-3.6-9.4-6.3c-8.7-6.7-9.5-16-9.5-16c1.1-4.1,7.1-7.2,7.1-7.2c9.5-5.3,3.4-15.3,3.4-15.3
				l-1.3,3.7c-2.9,7.8-13.9,13-17,17c-3,3.7-9.4,19.4-9.4,19.4c-3.1,3.6-10.2,7.1-16.3,9.7c-7.3,2.1-14.6,3.2-21.8,3.4
				C729,426.7,728.6,430.4,727.8,434.2z"/>
			<path style="fill:#0E0F10;" d="M781.3,407c2.5,0.5,4.5,2.2,6.2,5.6c0.8,1.7,4,6.9,8.1,11.7c4.1-1.8,6-8.3,6-8.3l1.5,0.5
				c0,0.2-0.8,2.8-2.4,5.2c8.7,6.7,23.3,6.3,31.2,6.1h1.7c8.1-0.2,19.9,7.7,20.4,8c0.3,0.2,0.4,0.7,0.2,1s-0.7,0.4-1,0.2
				c-0.2,0-12-8-19.6-7.8h-1.7c-5.9,0.2-15.1,0.4-23.3-2c-3.2-0.9-6.4-2.4-9-4.4c-0.8,1.1-1.8,2-3,2.7c1.6,1.9,3.5,3.7,5.4,5
				c4.6,3.3,10.6,2.6,17,2c2.6-0.4,5.3-0.5,8-0.5c8.9,0.1,15.4,6.1,15.7,6.3l-1.1,1.2c-0.1-0.1-6.2-5.9-14.5-6
				c-2.6,0-5.3,0.3-7.9,0.5c-4.8,0.5-9.6,1-13.9-0.3c-1.5-0.4-3-1.1-4.3-2.1c-2.1-1.5-4.2-3.6-6.1-5.7c-0.2,0.1-0.2,0.1-0.3,0.1
				l-0.2-0.6c-4-4.6-7.3-9.6-8.7-12.3c-1.4-2.9-3.1-4.2-5.1-4.6c-2.5-0.6-5.8,0.7-9.8,4.1l-1-1.2C774.3,407.9,778.2,406.5,781.3,407
				z"/>
			<path style="fill:#0E0F10;" d="M802.6,418.3L802.6,418.3c0.3,0.4,0.6,0.5,0.9,0.6c7.6,4.2,25.5,4.4,33.2,3.3
				c3.7-0.5,8.4,0.8,14.1,4.1c4.6,2.5,8.1,5.4,8.4,5.7c0.2,0,0.3,0.4,0.3,0.5c-0.1,0.3-0.2,0.4-0.2,0.6c-0.2,0.3-0.7,0.4-1,0.2h-0.2
				c0,0-3.8-2.9-8.3-5.5c-5.3-3-9.8-4.3-12.9-3.8c-7.9,1.1-26.2,1-34.3-3.6c-0.3-0.2-0.7-0.3-1-0.6c-0.3-0.4-0.5-0.8-0.1-1.2
				C801.8,418.2,802.2,418,802.6,418.3z"/>
		</g>
		<path d="M636.8,330.2c0,0,17.7,8.4,20,17.7s-3.3,14-3.3,14s21.9,7.9,21.4,19.1s-37.3,19.1-37.3,19.1s-1.4,16.8-10.3,20
			c-8.9,3.3-43.8-5.1-43.8-5.1s52.2-30.8,54.1-40.1C639.6,365.7,636.8,330.2,636.8,330.2z"/>
		
			<radialGradient id="SVGID_00000120530431324327316180000004626816982787194240_" cx="559.0404" cy="612.4579" r="107.7642" fx="559.355" fy="612.5227" gradientTransform="matrix(1 0 0 -1 0 952)" gradientUnits="userSpaceOnUse">
			<stop  offset="0.8622" style="stop-color:#FFCB99"/>
			<stop  offset="1" style="stop-color:#FF9999"/>
		</radialGradient>
		
			<path style="fill:url(#SVGID_00000120530431324327316180000004626816982787194240_);stroke:#000000;stroke-width:2;stroke-miterlimit:10;" d="
			M496.1,361c0,0-17.7-4.7-20.5,9.8s13.5,36.8,32.6,21.9c0,0,22.4,15.8,38.7,18.2c16.3,2.3,16.3,6.5,16.8,8.4s2.3,14,2.3,14
			l19.1-1.9c0,0-1.4-13,0.5-15.8s36.3-10.7,47.5-25.6s12.6-26.1,4.7-53.6c0,0-5.6-23.3-5.6-27.5s-8.9-44.7-28.9-54.1
			c-20-9.3-40.5-12.1-52.7-5.1c-12.1,7-46.6,44.7-55.5,95.1L496.1,361z"/>
		<g>
			<circle style="fill:#F6F5F8;stroke:#000000;stroke-width:2;stroke-miterlimit:10;" cx="609.1" cy="327.9" r="18.4"/>
			<path d="M617.5,318.4c-0.7,0-1.5,0.1-2.1,0.3c0.6,0.7,1,1.5,1,2.5c0,2.1-1.7,3.7-3.7,3.7c-1.1,0-2.1-0.5-2.7-1.2
				c-0.3,0.9-0.5,1.8-0.5,2.8c0,4.5,3.7,8.2,8.2,8.2s8.2-3.7,8.2-8.2C625.7,322,622,318.4,617.5,318.4z"/>
		</g>
		<g>
			<circle style="fill:#F6F5F8;stroke:#000000;stroke-width:2;stroke-miterlimit:10;" cx="551.8" cy="332.1" r="18.4"/>
			<path d="M560.2,322.6c-0.7,0-1.5,0.1-2.1,0.3c0.6,0.7,1,1.5,1,2.5c0,2.1-1.7,3.7-3.7,3.7c-1.1,0-2.1-0.5-2.7-1.2
				c-0.3,0.9-0.5,1.8-0.5,2.8c0,4.5,3.7,8.2,8.2,8.2s8.2-3.7,8.2-8.2C568.4,326.2,564.7,322.6,560.2,322.6z"/>
		</g>
		<path style="fill:none;stroke:#000000;stroke-width:2;stroke-linecap:round;stroke-miterlimit:10;" d="M577.2,319.8
			c0,0,0.9,15.8,7.5,21.4c6.5,5.6,14.4,7,13,12.1s-8.9,6.5-14.9,6.1"/>
		<path style="fill:none;stroke:#000000;stroke-width:2;stroke-linecap:round;stroke-miterlimit:10;" d="M537.1,379.2
			c0,0,31.2,20.5,67.1,7.5"/>
		<path d="M530.1,290.6c0,0,15.8,7,29.4-5.6c0,0,20,9.3,37.7-6.1c0,0,11.2,3.7,21.4,0l11.2,23.3c0,0,13-11.2,13-15.8
			c0,0,20.5-18.6,7.9-41c0,0,4.2-36.3-16.8-43.3s-26.6,14-26.6,14s-1.9-5.1-9.3-0.5c-7.5,4.7-13,20-13,20s-19.6-7.9-28,0
			s-8.9,27.5-8.9,30.3L530.1,290.6z"/>
		<g>
			<path style="fill:#42B8BC;stroke:#000000;stroke-width:2;stroke-miterlimit:10;" d="M502.2,343.8c0,0,11.2-44.3,47.1-69.9
				l3.3-21.4c0,0-15.8-3.3-26.1,4.7c0,0-35-4.7-50.3,13c-15.4,17.7-21,42.9-4.7,66.2l6.1,33.1l21.4-1.9c0,0,22.8,40.5,31.7,28
				C539.4,382.9,502.2,343.8,502.2,343.8z"/>
			<path style="opacity:0.51;fill:#2C818C;enable-background:new    ;" d="M489.6,333.9c0,0-11.3-2.9-15.1-23.9
				c-2.2-12.4,5.4-29.1,12-40.6c-3.6,1.7-6.8,4-9.4,7.1c-13.8,15.9-18.9,38.6-4.2,59.6l5.5,29.8l19.3-1.7c0,0,20.6,36.5,28.5,25.2
				c8-11.3-25.6-46.6-25.6-46.6L489.6,333.9z"/>
			<path style="fill:none;stroke:#000000;stroke-width:2;stroke-linecap:round;stroke-miterlimit:10;" d="M523.6,261.7
				c0,0-24.7,7.9-48.5,71.8"/>
		</g>
		<path d="M502.6,344.7l10.3-25.6c0,0,1.9,16.3,0,20.5c-1.9,4.2,6.5,9.3,4.2,19.6L502.6,344.7z"/>
		<path d="M546.9,410.9c-16.8-4.7-35.9-12.1-38.7-18.2c0,0-11.2,6.1-15.8,4.7c-4.7-1.4-14.4-9.8-16.3-18.2c-1.6-7.1-0.6-11.7,1.2-13
			l-1.7-6.9c-3,1.4-5.8,3.5-7.8,6.9c-7,11.7,0.9,27,0.9,27s-18.6-3.7-19.6,9.8c-0.9,13.5,27.5,25.6,50.8,16.8c0,0,36.8,6.5,48,4.7
			c11.2-1.9,15.8-5.1,15.8-5.1S562.9,415.3,546.9,410.9z"/>
		<g>
			<path d="M529.7,306.5c-0.1,0-0.3-0.1-0.4-0.2c-0.2-0.2-0.2-0.5,0-0.7c0.1-0.1,12-10.4,30.7-9c0.3,0,0.5,0.3,0.5,0.5
				s-0.3,0.5-0.5,0.5c-18.2-1.4-29.8,8.6-29.9,8.7C529.9,306.5,529.8,306.5,529.7,306.5z"/>
		</g>
		<g>
			<path d="M584,305.1c-0.1,0-0.3-0.1-0.4-0.2c-0.2-0.2-0.2-0.5,0-0.7c0.1-0.1,12-10.4,30.7-9c0.3,0,0.5,0.3,0.5,0.5
				s-0.3,0.5-0.5,0.5c-18.2-1.4-29.8,8.6-29.9,8.7C584.2,305.1,584.1,305.1,584,305.1z"/>
		</g>
		<line style="fill:none;stroke:#000000;stroke-width:2;stroke-miterlimit:10;" x1="553.9" y1="440.7" x2="600.7" y2="437.9"/>
		<path style="fill:#F6F5F8;stroke:#000000;stroke-width:2;stroke-miterlimit:10;" d="M765.7,435.1l-9.1-21.7
			c-64.3,25.2-151.7,23.1-151.7,23.1l-3.5-13.3l-48.9,2.1l-1.4,14.7l-11.2,3.7c-23.5,5.3-89,18-143.9,10.2l-3.9,23.2
			c0,0,99.1,5,145-0.8l9.3,107.5c0.6,0.1,1.3,0.2,2,0.2c15.4,0,83.2-4.9,83.2-4.9L620.3,468C664.3,464.5,765.7,435.1,765.7,435.1z"
			/>
		
			<radialGradient id="SVGID_00000136397877091284597580000017159776160648339361_" cx="492.0221" cy="575.2693" r="5.6897" gradientTransform="matrix(1 0 0 -1 0 952)" gradientUnits="userSpaceOnUse">
			<stop  offset="5.916801e-02" style="stop-color:#FFCB99"/>
			<stop  offset="0.8622" style="stop-color:#FFCB99"/>
		</radialGradient>
		
			<path style="fill:url(#SVGID_00000136397877091284597580000017159776160648339361_);stroke:#000000;stroke-width:2;stroke-miterlimit:10;" d="
			M485.4,372.2c0,0,11.2,0,13.3,9.1"/>
		<path style="fill:#F6F5F8;stroke:#000000;stroke-width:2;stroke-miterlimit:10;" d="M555.3,477.7c0,0,24.5,9.8,52.4,1.4"/>
	</g>
	<g id="Nol">
		<g>
			<circle style="fill:#F6F5F8;stroke:#000000;stroke-width:2;stroke-miterlimit:10;" cx="744.4" cy="647.6" r="47.5"/>
			<path style="opacity:0.31;fill:#CCCCCC;enable-background:new    ;" d="M749.2,684.5c-23.8,0-43.1-19.3-43.1-43.1
				c0-7.8,1.9-15.1,5.6-21.3c-7,7.6-11.3,17.8-11.3,29c0,23.8,19.3,43.1,43.1,43.1c16,0,30-8.8,37.5-21.8
				C773.3,679.1,761.8,684.5,749.2,684.5z"/>
		</g>
		<g>
			<g>
				<g>
					<g>
						<g>
							<g>
								<g>
									<g>
										<defs>
											
												<rect id="SVGID_00000036213703726868852070000012695741948406606464_" x="719.6" y="609.9" transform="matrix(0.9903 -0.1387 0.1387 0.9903 -82.6712 108.9819)" width="42" height="75.5"/>
										</defs>
										<clipPath id="SVGID_00000024722455849164991030000000036386926632396439_">
											<use xlink:href="#SVGID_00000036213703726868852070000012695741948406606464_"  style="overflow:visible;"/>
										</clipPath>
										<g style="clip-path:url(#SVGID_00000024722455849164991030000000036386926632396439_);">
											<g>
												<path style="fill:#D6C2ED;" d="M763.9,663l2.2,15.8c0.3,2.5-1.9,4.5-3.7,3.9l-31.9-4l1.7-0.2c0,0,0,0-0.1-0.8
													s0.6-1.8,1.4-1.9c0,0,0,0,0.8-0.1l27.5-8.9C762.8,666.5,764.2,664.6,763.9,663L763.9,663z"/>
											</g>
											<g>
												<path style="fill:#061123;" d="M756.6,610.6l2.2,15.8c-0.2-1.7-2-2.3-2.9-2.1l-29.9-1.8c0,0,0,0-0.8,0.1
													c0,0-0.9-0.7-1.1-1.5c-0.1-0.8-0.1-0.8-0.1-0.8l-0.8,0.1l28.7-12.5C753.6,606.9,756.2,608.2,756.6,610.6L756.6,610.6z"
													/>
											</g>
											
												<linearGradient id="SVGID_00000040562746894332837450000004076017606038400694_" gradientUnits="userSpaceOnUse" x1="376.0199" y1="4070.0935" x2="431.9381" y2="4044.6492" gradientTransform="matrix(0.9903 -0.1387 0.1387 0.9903 -239.2117 -3298.082)">
												<stop  offset="2.000000e-02" style="stop-color:#6A9EFF"/>
												<stop  offset="1" style="stop-color:#CAB5FF"/>
											</linearGradient>
											<path style="fill:url(#SVGID_00000040562746894332837450000004076017606038400694_);" d="M758.8,626.4L764,663l0,0
												l2.2,15.8c0.3,2.5-1.9,4.5-3.7,3.9l-31.9-3.9l-4.4-1.1c-1.7,0.2-2.6-0.5-2.9-2.1l0,0l-7-49.8l0,0
												c-0.1-0.8,0.5-2.6,2.1-2.9l4.7-2.4l0.8-0.1c0,0,0,0,0.1,0.8s1.1,1.5,1.9,1.4c0,0,0,0,0.8-0.1l29,1
												C756.7,623.3,758.6,624.7,758.8,626.4L758.8,626.4z"/>
										</g>
									</g>
								</g>
							</g>
						</g>
					</g>
				</g>
			</g>
		</g>
	</g>
	<g id="closed_00000057843405949250008060000007311374005732722308_">
		
			<radialGradient id="SVGID_00000162346391980789915110000002609291395232448650_" cx="553.3994" cy="331.3738" r="21.1536" gradientUnits="userSpaceOnUse">
			<stop  offset="0.6356" style="stop-color:#FFCB99"/>
			<stop  offset="0.8622" style="stop-color:#FFCB99"/>
		</radialGradient>
		<circle style="fill:url(#SVGID_00000162346391980789915110000002609291395232448650_);" cx="553.4" cy="331.4" r="21.2"/>
		
			<radialGradient id="SVGID_00000078751790423842399800000010183313559413125773_" cx="607.7408" cy="327.0129" r="21.1536" gradientUnits="userSpaceOnUse">
			<stop  offset="0.6356" style="stop-color:#FFCB99"/>
			<stop  offset="0.8622" style="stop-color:#FFCB99"/>
		</radialGradient>
		<circle style="fill:url(#SVGID_00000078751790423842399800000010183313559413125773_);" cx="607.7" cy="327" r="21.2"/>
		<animate  accumulate="none" additive="replace" attributeName="display" begin="0s" calcMode="linear" dur="4s" fill="remove" id="eyes                                 " keyTimes="0;  0.9;  1" repeatCount="indefinite" restart="always" values="none;inline;none">
			</animate>
	</g>
</g>
<g id="gmail">
	<g>
		
			<ellipse style="fill:#F6F5F8;stroke:#000000;stroke-width:2;stroke-miterlimit:9.9983;" cx="318.6" cy="389.8" rx="40.4" ry="40.4"/>
		<path style="opacity:0.31;fill:#CCCCCC;enable-background:new    ;" d="M322.7,421.4c-20.3,0-36.7-16.4-36.7-36.7
			c0-6.6,1.7-12.8,4.8-18.1c-6,6.4-9.7,15.3-9.7,24.8c0,20.3,16.4,36.7,36.7,36.7c13.7,0,25.7-7.4,32-18.6
			C343.2,416.8,333.6,421.4,322.7,421.4z"/>
	</g>
	<g>
		<path style="fill:#E75A4D;" d="M339.5,373.6c2.2,0,4,1.8,4,4v1.2l-5.6,4L318.7,396l-19.3-13.4v26.9H298c-2.2,0-4-1.8-4-4v-27.8
			c0-2.2,1.8-4,4-4l20.7,15.4L339.5,373.6L339.5,373.6L339.5,373.6z"/>
		
			<linearGradient id="SVGID_00000060742022385887331060000006348544178197085329_" gradientUnits="userSpaceOnUse" x1="-63677.8086" y1="129940.3594" x2="-62180.0742" y2="129940.3594" gradientTransform="matrix(1.772698e-02 0 0 1.772698e-02 1434.1918 -1922.1501)">
			<stop  offset="0" style="stop-color:#F8F6EF"/>
			<stop  offset="1" style="stop-color:#E7E4D6"/>
		</linearGradient>
		<path style="fill:url(#SVGID_00000060742022385887331060000006348544178197085329_);" d="M297.9,373.6l20.7,15.4l20.8-15.4H297.9z
			"/>
		<path style="fill:#E7E4D7;" d="M299.3,382.8v26.9h38.5v-26.8l-19.3,13.2L299.3,382.8z"/>
		<path style="fill:#B8B7AE;" d="M299.3,409.6l19.2-13.5l-0.1-0.1l-19.2,13.1L299.3,409.6L299.3,409.6L299.3,409.6z"/>
		<path style="fill:#B7B6AD;" d="M337.9,382.9v26.8l-19.3-13.5L337.9,382.9z"/>
		<path style="fill:#B2392F;" d="M343.6,378.7v26.7c-0.1,2.9-1.5,3.9-5.6,4v-26.7L343.6,378.7L343.6,378.7L343.6,378.7z"/>
		
			<linearGradient id="SVGID_00000008828909956996476980000001103237365305096619_" gradientUnits="userSpaceOnUse" x1="-63677.8086" y1="129940.3594" x2="-62180.0742" y2="129940.3594" gradientTransform="matrix(1.772698e-02 0 0 1.772698e-02 1434.1918 -1922.1501)">
			<stop  offset="0" style="stop-color:#F8F6EF"/>
			<stop  offset="1" style="stop-color:#E7E4D6"/>
		</linearGradient>
		<path style="fill:url(#SVGID_00000008828909956996476980000001103237365305096619_);" d="M297.9,373.6l20.7,15.4l20.8-15.4H297.9z
			"/>
		
			<linearGradient id="SVGID_00000006674583755400779190000004111262914108282506_" gradientUnits="userSpaceOnUse" x1="-63677.8086" y1="129940.3594" x2="-62180.0742" y2="129940.3594" gradientTransform="matrix(1.772698e-02 0 0 1.772698e-02 1434.1918 -1922.1501)">
			<stop  offset="0" style="stop-color:#F8F6EF"/>
			<stop  offset="1" style="stop-color:#E7E4D6"/>
		</linearGradient>
		<path style="fill:url(#SVGID_00000006674583755400779190000004111262914108282506_);" d="M297.9,373.6l20.7,15.4l20.8-15.4H297.9z
			"/>
		
			<linearGradient id="SVGID_00000124130390864684888100000014665136747801898647_" gradientUnits="userSpaceOnUse" x1="-63677.8086" y1="129940.3594" x2="-62180.0742" y2="129940.3594" gradientTransform="matrix(1.772698e-02 0 0 1.772698e-02 1434.1918 -1922.1501)">
			<stop  offset="0" style="stop-color:#F8F6EF"/>
			<stop  offset="1" style="stop-color:#E7E4D6"/>
		</linearGradient>
		<path style="fill:url(#SVGID_00000124130390864684888100000014665136747801898647_);" d="M297.9,373.6l20.7,15.4l20.8-15.4H297.9z
			"/>
		
			<linearGradient id="SVGID_00000155832813498991932760000008731869890782526882_" gradientUnits="userSpaceOnUse" x1="-63677.8086" y1="129940.3594" x2="-62180.0742" y2="129940.3594" gradientTransform="matrix(1.772698e-02 0 0 1.772698e-02 1434.1918 -1922.1501)">
			<stop  offset="0" style="stop-color:#F8F6EF"/>
			<stop  offset="1" style="stop-color:#E7E4D6"/>
		</linearGradient>
		<path style="fill:url(#SVGID_00000155832813498991932760000008731869890782526882_);" d="M297.9,373.6l20.7,15.4l20.8-15.4H297.9z
			"/>
		
			<linearGradient id="SVGID_00000020373898591345216140000006558674707216445363_" gradientUnits="userSpaceOnUse" x1="-63677.8086" y1="129940.3594" x2="-62180.0742" y2="129940.3594" gradientTransform="matrix(1.772698e-02 0 0 1.772698e-02 1434.1918 -1922.1501)">
			<stop  offset="0" style="stop-color:#F8F6EF"/>
			<stop  offset="1" style="stop-color:#E7E4D6"/>
		</linearGradient>
		<path style="fill:url(#SVGID_00000020373898591345216140000006558674707216445363_);" d="M297.9,373.6l20.7,15.4l20.8-15.4H297.9z
			"/>
		
			<linearGradient id="SVGID_00000106144101632230898460000004881295598529480098_" gradientUnits="userSpaceOnUse" x1="-63677.8086" y1="129940.3594" x2="-62180.0742" y2="129940.3594" gradientTransform="matrix(1.772698e-02 0 0 1.772698e-02 1434.1918 -1922.1501)">
			<stop  offset="0" style="stop-color:#F8F6EF"/>
			<stop  offset="1" style="stop-color:#E7E4D6"/>
		</linearGradient>
		<path style="fill:url(#SVGID_00000106144101632230898460000004881295598529480098_);" d="M297.9,373.6l20.7,15.4l20.8-15.4H297.9z
			"/>
		
			<linearGradient id="SVGID_00000057131335602807200940000000534658153087472011_" gradientUnits="userSpaceOnUse" x1="-63677.8086" y1="129940.3594" x2="-62180.0742" y2="129940.3594" gradientTransform="matrix(1.772698e-02 0 0 1.772698e-02 1434.1918 -1922.1501)">
			<stop  offset="0" style="stop-color:#F8F6EF"/>
			<stop  offset="1" style="stop-color:#E7E4D6"/>
		</linearGradient>
		<path style="fill:url(#SVGID_00000057131335602807200940000000534658153087472011_);" d="M297.9,373.6l20.7,15.4l20.8-15.4H297.9z
			"/>
		<path style="fill:#F7F5ED;" d="M297.9,373.6l20.7,15.4l20.8-15.4H297.9z"/>
	</g>
</g>
<g id="salesforce">
	<g>
		<circle style="fill:#F6F5F8;stroke:#000000;stroke-width:2;stroke-miterlimit:10;" cx="840.4" cy="376.7" r="37"/>
		<path style="opacity:0.31;fill:#CCCCCC;enable-background:new    ;" d="M844.2,405.5c-18.6,0-33.6-15-33.6-33.6
			c0-6,1.6-11.7,4.3-16.6c-5.5,5.9-8.9,14-8.9,22.7c0,18.6,15,33.6,33.6,33.6c12.5,0,23.5-6.8,29.3-17
			C862.8,401.2,854,405.5,844.2,405.5z"/>
	</g>
	<g>
		<path style="fill:#00A1E0;" d="M837.3,363.9c1.4-1.5,3.4-2.5,5.6-2.5c2.9,0,5.4,1.6,6.8,4c1.1-0.5,2.5-0.8,3.9-0.8
			c5.2,0,9.6,4.2,9.6,9.7c0,5.2-4.2,9.7-9.6,9.7c-0.6,0-1.3-0.1-1.8-0.1c-1.3,2.2-3.5,3.6-6,3.6c-1,0-2.2-0.2-3-0.7
			c-1.3,2.7-4,4.8-7.2,4.8c-3.4,0-6.3-2.2-7.5-5.1c-0.5,0.1-1,0.1-1.5,0.1c-4.1,0-7.4-3.3-7.4-7.5c0-2.7,1.5-5.1,3.7-6.5
			c-0.4-1-0.7-2.2-0.7-3.4c0-4.8,3.9-8.6,8.6-8.6C833,360.5,835.6,361.8,837.3,363.9"/>
		<path style="fill:#FFFFFF;" d="M825.3,376.6l0.1-0.5c0-0.1,0.1-0.1,0.1,0l0.1,0.1c0.5,0.3,1,0.3,1.1,0.3c0.3,0,0.6-0.1,0.6-0.5
			l0,0c0-0.2-0.3-0.4-0.8-0.5h-0.1c-0.6-0.1-1.3-0.4-1.3-1.1l0,0c0-0.7,0.6-1.3,1.4-1.3h0.1c0.5,0,1,0.1,1.3,0.3l0.1,0.1l-0.1,0.5
			c0,0.1-0.1,0-0.1,0c-0.2-0.1-0.8-0.2-1.1-0.2s-0.6,0.1-0.6,0.4l0,0c0,0.2,0.3,0.4,0.9,0.5h0.1c0.6,0.1,1.3,0.4,1.3,1.1l0,0
			c0,0.8-0.5,1.3-1.5,1.3c-0.4,0-0.9-0.1-1.3-0.2C825.5,376.7,825.5,376.7,825.3,376.6C825.3,376.7,825.3,376.6,825.3,376.6
			L825.3,376.6z M838.5,376.6l0.1-0.5c0-0.1,0.1-0.1,0.1,0l0.1,0.1c0.5,0.3,1,0.3,1.1,0.3c0.3,0,0.6-0.1,0.6-0.5l0,0
			c0-0.2-0.3-0.4-0.8-0.5h-0.1c-0.6-0.1-1.3-0.4-1.3-1.1l0,0c0-0.7,0.6-1.3,1.4-1.3h0.1c0.5,0,1,0.1,1.3,0.3l0.1,0.1l-0.1,0.5
			c0,0.1-0.1,0-0.1,0c-0.2-0.1-0.8-0.2-1.1-0.2s-0.6,0.1-0.6,0.4l0,0c0,0.2,0.3,0.4,0.9,0.5h0.1c0.6,0.1,1.3,0.4,1.3,1.1l0,0
			c0,0.8-0.5,1.3-1.5,1.3c-0.4,0-0.9-0.1-1.3-0.2C838.8,376.7,838.7,376.7,838.5,376.6C838.6,376.7,838.5,376.6,838.5,376.6
			L838.5,376.6z M848.3,374.1c0.1,0.2,0.1,0.5,0.1,0.8c0,0.2,0,0.5-0.1,0.8c-0.1,0.2-0.1,0.4-0.3,0.6c-0.1,0.1-0.3,0.3-0.6,0.4
			c-0.2,0.1-0.5,0.1-0.8,0.1c-0.2,0-0.6-0.1-0.8-0.1c-0.2-0.1-0.4-0.2-0.6-0.4c-0.1-0.2-0.2-0.4-0.3-0.6c-0.1-0.1-0.1-0.5-0.1-0.8
			c0-0.2,0-0.5,0.1-0.8c0.1-0.2,0.1-0.4,0.3-0.6c0.1-0.1,0.3-0.3,0.6-0.4c0.2-0.1,0.5-0.1,0.8-0.1c0.2,0,0.6,0.1,0.8,0.1
			c0.2,0.1,0.4,0.2,0.6,0.4C848.1,373.8,848.3,373.9,848.3,374.1z M847.6,375c0-0.4-0.1-0.8-0.2-1c-0.1-0.2-0.4-0.3-0.7-0.3
			s-0.6,0.1-0.7,0.3c-0.1,0.2-0.2,0.6-0.2,1s0.1,0.8,0.2,1c0.1,0.2,0.3,0.3,0.7,0.3c0.3,0,0.6-0.1,0.7-0.3
			C847.5,375.8,847.6,375.5,847.6,375z M854.6,376.4l0.1,0.5c0,0.1,0,0.1,0,0.1c-0.2,0.1-0.7,0.1-1,0.1c-0.6,0-1.1-0.1-1.5-0.5
			c-0.3-0.3-0.5-0.9-0.5-1.5c0-0.2,0-0.5,0.1-0.8c0.1-0.2,0.1-0.4,0.3-0.6c0.1-0.1,0.3-0.3,0.6-0.4c0.2-0.1,0.5-0.1,0.9-0.1
			c0.1,0,0.3,0,0.5,0c0.1,0,0.4,0.1,0.5,0.1c0,0,0.1,0,0.1,0.1l-0.1,0.5c0,0.1-0.1,0.1-0.1,0.1c-0.2-0.1-0.5-0.1-0.8-0.1
			s-0.6,0.1-0.9,0.3c-0.1,0.2-0.2,0.5-0.2,1c0,0.4,0.1,0.8,0.3,1s0.5,0.3,0.9,0.3c0.1,0,0.2,0,0.4,0
			C854.3,376.4,854.4,376.3,854.6,376.4C854.5,376.3,854.6,376.3,854.6,376.4L854.6,376.4z M858.4,374c0.1,0.6,0.1,1,0.1,1.1
			s-0.1,0.1-0.1,0.1h-2.5c0,0.3,0.1,0.6,0.2,0.9c0.1,0.1,0.4,0.2,0.9,0.2c0.6,0,0.9-0.1,1-0.1c0,0,0.1,0,0.1,0.1l0.1,0.4
			c0,0.1,0,0.1,0,0.1c-0.1,0.1-0.5,0.2-1.3,0.2c-0.3,0-0.7-0.1-1-0.1s-0.4-0.2-0.6-0.4c-0.1-0.2-0.2-0.4-0.3-0.6s-0.1-0.5-0.1-0.8
			c0-0.2,0-0.5,0.1-0.8c0.1-0.2,0.1-0.4,0.3-0.6c0.1-0.1,0.3-0.3,0.6-0.4c0.2-0.1,0.5-0.1,0.9-0.1c0.2,0,0.5,0.1,0.7,0.1
			c0.1,0.1,0.3,0.1,0.5,0.3C858.2,373.6,858.4,373.8,858.4,374L858.4,374z M855.8,374.5h1.8c0-0.2-0.1-0.4-0.1-0.6
			c-0.1-0.2-0.3-0.3-0.7-0.3s-0.6,0.1-0.7,0.3C855.9,374.1,855.9,374.4,855.8,374.5L855.8,374.5z M837.9,374c0.1,0.6,0.1,1,0.1,1.1
			s-0.1,0.1-0.1,0.1h-2.5c0,0.3,0.1,0.6,0.2,0.9c0.1,0.1,0.4,0.2,0.9,0.2c0.6,0,0.9-0.1,1-0.1c0,0,0.1,0,0.1,0.1l0.1,0.4
			c0,0.1,0,0.1,0,0.1c-0.1,0.1-0.5,0.2-1.3,0.2c-0.3,0-0.7-0.1-1-0.1s-0.4-0.2-0.6-0.4c-0.1-0.2-0.2-0.4-0.3-0.6s-0.1-0.5-0.1-0.8
			c0-0.2,0-0.5,0.1-0.8c0.1-0.2,0.1-0.4,0.3-0.6c0.1-0.1,0.3-0.3,0.6-0.4s0.5-0.1,0.9-0.1c0.2,0,0.5,0.1,0.7,0.1
			c0.1,0.1,0.3,0.1,0.5,0.3C837.7,373.6,837.9,373.8,837.9,374L837.9,374z M835.3,374.5h1.8c0-0.2-0.1-0.4-0.1-0.6
			c-0.1-0.2-0.3-0.3-0.7-0.3s-0.6,0.1-0.7,0.3C835.4,374.1,835.4,374.4,835.3,374.5z M830.9,374.4l0.4,0.1v-0.1
			c0-0.3-0.1-0.5-0.1-0.6c-0.1-0.1-0.3-0.1-0.6-0.1c0,0-0.6,0-1.1,0.2l0,0h-0.1l-0.1-0.5c0-0.1,0-0.1,0-0.1c0.2-0.1,0.8-0.2,0.8-0.2
			c0.1,0,0.5-0.1,0.7-0.1c0.5,0,0.9,0.1,1.1,0.3s0.4,0.6,0.4,1.1v2.4c0,0,0,0.1-0.1,0.1c0,0-0.1,0-0.1,0.1l-0.6,0.1
			c-0.2,0.1-0.5,0.1-0.8,0.1c-0.2,0-0.4,0-0.7-0.1c-0.1-0.1-0.3-0.1-0.5-0.2c-0.1-0.1-0.2-0.2-0.3-0.4s-0.1-0.3-0.1-0.6
			c0-0.2,0.1-0.4,0.1-0.6s0.2-0.2,0.3-0.4c0.1-0.1,0.3-0.1,0.5-0.2c0.1-0.1,0.4-0.1,0.6-0.1L830.9,374.4L830.9,374.4z M829.8,376.3
			c0,0,0.2,0.1,0.8,0.1c0.3,0,0.7-0.1,0.7-0.1v-1.1c0,0-0.3-0.1-0.7-0.1c-0.5,0-0.8,0.1-0.8,0.1c-0.1,0.1-0.2,0.2-0.2,0.5
			c0,0.1,0,0.2,0.1,0.3S829.7,376.3,829.8,376.3z M851.5,373.1c0,0.1-0.1,0.4-0.1,0.5s-0.1,0.1-0.1,0.1s-0.1,0-0.2,0
			c-0.1,0-0.2,0-0.3,0.1c-0.1,0-0.2,0.1-0.3,0.1s-0.1,0.2-0.2,0.3c-0.1,0.1-0.1,0.4-0.1,0.7v1.9c0,0.1,0,0.1-0.1,0.1h-0.7
			c-0.1,0-0.1,0-0.1-0.1V373c0-0.1,0-0.1,0.1-0.1h0.6c0.1,0,0.1,0,0.1,0.1v0.2c0.1-0.1,0.2-0.2,0.4-0.3c0.1-0.1,0.3-0.1,0.6-0.1
			c0.1,0,0.3,0.1,0.4,0.1C851.5,373,851.5,373,851.5,373.1L851.5,373.1z M845.1,371.4C845.2,371.4,845.2,371.4,845.1,371.4L845,372
			c0,0,0,0.1-0.1,0h-0.1h-0.1c-0.1,0-0.1,0-0.2,0c-0.1,0-0.1,0.1-0.2,0.1c-0.1,0.1-0.1,0.1-0.1,0.2c-0.1,0.2-0.1,0.5-0.1,0.6h0.8
			c0.1,0,0.1,0,0.1,0.1l-0.1,0.5c0,0.1-0.1,0.1-0.1,0.1h-0.9l-0.5,3.2c-0.1,0.3-0.1,0.6-0.2,0.9c-0.1,0.2-0.1,0.4-0.3,0.6
			s-0.2,0.2-0.4,0.3c-0.1,0.1-0.3,0.1-0.6,0.1c-0.1,0-0.2,0-0.3,0s-0.1,0-0.2-0.1c0,0-0.1-0.1,0-0.1l0.1-0.5c0-0.1,0.1,0,0.1,0
			l0.1,0.1c0.1,0,0.1,0,0.1,0c0.1,0,0.2,0,0.2-0.1c0.1,0,0.1-0.1,0.2-0.1c0.1-0.1,0.1-0.1,0.1-0.3s0.1-0.4,0.1-0.6l0.6-3.2h-0.5
			c-0.1,0-0.1,0-0.1-0.1l0.1-0.5c0-0.1,0.1-0.1,0.1-0.1h0.6V373c0.1-0.5,0.2-0.9,0.5-1.1s0.6-0.3,1-0.3c0.1,0,0.2,0,0.3,0
			C845.1,371.3,845.1,371.3,845.1,371.4L845.1,371.4z M833.7,377C833.7,377,833.6,377,833.7,377l-0.8,0.1c-0.1,0-0.1,0-0.1-0.1v-5.4
			c0,0,0-0.1,0.1-0.1h0.7c0.1,0,0.1,0,0.1,0.1V377z"/>
	</g>
</g>
<g id="linkedin">
	<g>
		<circle style="fill:#F6F5F8;stroke:#000000;stroke-width:2;stroke-miterlimit:10;" cx="255.2" cy="281.5" r="61.3"/>
		<path style="opacity:0.31;fill:#CCCCCC;enable-background:new    ;" d="M261.4,329.3c-30.8,0-55.7-24.9-55.7-55.7
			c0-10,2.7-19.4,7.3-27.5c-9.1,9.9-14.6,23.1-14.6,37.6c0,30.8,24.9,55.7,55.7,55.7c20.7,0,38.8-11.3,48.4-28.2
			C292.3,322.3,277.7,329.3,261.4,329.3z"/>
	</g>
	<g>
		<g>
			<path style="fill:#2A66B2;" d="M242.7,257.6c0,3-1.9,5.4-5.4,5.4c-3.2,0-5.4-2.4-5.4-5.1c0-3,2.1-5.6,5.4-5.6
				C240.5,252.2,242.7,254.6,242.7,257.6z"/>
			<rect x="231.9" y="265.6" style="fill:#2A66B2;" width="10.7" height="34.9"/>
			<path style="fill:#2A66B2;" d="M268.4,266.2c-5.6,0-8.9,3.2-10.2,5.4h-0.3l-0.5-4.6h-9.7c0,3,0.3,6.4,0.3,10.5v23.1h10.7v-19.1
				c0-1.1,0-1.9,0.3-2.7c0.8-1.9,2.1-4.3,5.1-4.3c3.8,0,5.4,3.2,5.4,7.5v18.5h10.7v-19.9C280.2,270.7,275.1,266.2,268.4,266.2z"/>
		</g>
	</g>
</g>
<g id="slack">
	<g>
		<circle style="fill:#F6F5F8;stroke:#000000;stroke-width:2;stroke-miterlimit:10;" cx="377.1" cy="170.8" r="72.6"/>
		<path style="opacity:0.31;fill:#CCCCCC;enable-background:new    ;" d="M384.4,227.4c-36.4,0-65.9-29.5-65.9-65.9
			c0-11.9,3.1-23,8.6-32.6c-10.7,11.7-17.3,27.3-17.3,44.5c0,36.4,29.5,65.9,65.9,65.9c24.5,0,45.9-13.4,57.3-33.3
			C421,219.1,403.6,227.4,384.4,227.4z"/>
	</g>
	<g>
		<path style="fill:#E1185A;" d="M334.7,181.6c0.5,11.6,17,11.6,17.6,0v-8.8h-8.8C338.7,172.8,334.7,176.8,334.7,181.6z"/>
		<path style="fill:#2BB77D;" d="M387.5,168.3c4.8,0,8.8-3.9,8.8-8.8v-22c-0.5-11.6-17-11.6-17.6,0v22
			C378.7,164.4,382.7,168.3,387.5,168.3z"/>
		<path style="fill:#E1185A;" d="M365.5,172.8c-4.8,0-8.8,3.9-8.8,8.8v22c0.5,11.6,17,11.6,17.6,0v-22
			C374.2,176.8,370.3,172.8,365.5,172.8z"/>
		<path style="fill:#2BB77D;" d="M418.3,159.6c-0.5-11.6-17-11.6-17.6,0v8.8h8.8C414.3,168.3,418.3,164.4,418.3,159.6z"/>
		<path style="fill:#33C6F1;" d="M343.5,168.3h22c11.6-0.5,11.6-17,0-17.6h-22C331.9,151.3,331.9,167.8,343.5,168.3z"/>
		<path style="fill:#EDB429;" d="M387.5,194.8h-8.8v8.8c0,4.8,3.9,8.8,8.8,8.8C399.2,211.9,399.1,195.3,387.5,194.8z"/>
		<path style="fill:#EDB429;" d="M409.5,172.8h-22c-11.6,0.5-11.6,17,0,17.6h22C421.1,189.9,421.1,173.3,409.5,172.8z"/>
		<path style="fill:#33C6F1;" d="M365.5,128.8c-11.6,0.5-11.6,17,0,17.5h8.8v-8.8C374.2,132.8,370.3,128.8,365.5,128.8z"/>
	</g>
</g>
<g id="zendesk">
	<g>
		
			<ellipse style="fill:#F6F5F8;stroke:#000000;stroke-width:2;stroke-miterlimit:9.9996;" cx="767.3" cy="159.9" rx="80.6" ry="80.6"/>
		<path style="opacity:0.31;fill:#CCCCCC;enable-background:new    ;" d="M775.7,222.8c-40.5,0-73-32.6-73-73
			c0-13.1,3.5-25.5,9.5-36.1C700.3,126.6,693,144.2,693,163c0,40.5,32.6,73,73,73c27.1,0,51.1-14.8,63.5-37.1
			C816.3,213.6,796.9,222.8,775.7,222.8z"/>
	</g>
	<g>
		<ellipse style="fill:#03363D;" cx="767.3" cy="159.9" rx="53.4" ry="53.4"/>
		<path style="fill:#FFFFFF;" d="M765.7,151.9v26h-21.3L765.7,151.9z M765.7,142.7c0,5.8-4.8,10.6-10.6,10.6s-10.6-4.8-10.6-10.6
			H765.7L765.7,142.7z M769.2,177.7c0-5.8,4.8-10.6,10.6-10.6s10.6,4.8,10.6,10.6H769.2z M769.2,168.2v-25.8h21.3L769.2,168.2z"/>
	</g>
</g>
<g id="meet">
	<g>
		<circle style="fill:#F6F5F8;stroke:#000000;stroke-width:2;stroke-miterlimit:10;" cx="574.2" cy="144.9" r="81.8"/>
		<path style="opacity:0.31;fill:#CCCCCC;enable-background:new    ;" d="M582.8,208.7c-41.1,0-74.2-33.5-74.2-74.2
			c0-13.4,3.6-25.9,9.5-36.9c-12,12.9-19.6,30.7-19.6,50.1c0,41.1,33.5,74.2,74.2,74.2c27.8,0,51.9-14.9,64.5-37.5
			C623.7,199.4,604.4,208.7,582.8,208.7z"/>
	</g>
	<g>
		
			<linearGradient id="SVGID_00000003095290986067103540000008145736656917399478_" gradientUnits="userSpaceOnUse" x1="610.1869" y1="2334.3442" x2="610.1869" y2="2282.0527" gradientTransform="matrix(1 0 0 1 0 -2163.1736)">
			<stop  offset="5.586592e-03" style="stop-color:#287CF7"/>
			<stop  offset="1" style="stop-color:#2D8CFF"/>
		</linearGradient>
		<path style="fill:url(#SVGID_00000003095290986067103540000008145736656917399478_);" d="M615.3,118.8c-1.3,0-2.3,0.5-3.2,1.3
			l-8.7,8.7c-1.9,1.9-2.9,4.2-2.9,6.8v18.1c0,2.4,1.1,5.2,2.9,6.8l8.7,8.7c1,1,1.9,1.3,3.2,1.3l0,0c2.4,0,4.5-2.1,4.5-4.5v-21.7
			v-21.7C620.3,120.9,618.2,118.8,615.3,118.8L615.3,118.8z"/>
		
			<linearGradient id="SVGID_00000018228891663937749400000012895336285826861486_" gradientUnits="userSpaceOnUse" x1="561.3" y1="2334.3735" x2="561.3" y2="2282.0532" gradientTransform="matrix(1 0 0 1 0 -2163.1736)">
			<stop  offset="5.586592e-03" style="stop-color:#287CF7"/>
			<stop  offset="1" style="stop-color:#2D8CFF"/>
		</linearGradient>
		<path style="fill:url(#SVGID_00000018228891663937749400000012895336285826861486_);" d="M535.2,118.8c-3.6,0-6.5,3.1-6.5,6.5
			v29.4c0,9.1,7.3,16.5,16.5,16.5h42.2c3.6,0,6.5-3.1,6.5-6.5v-29.6c0-9.1-7.3-16.5-16.5-16.5L535.2,118.8L535.2,118.8z"/>
	</g>
</g>
</svg>
