<?xml version="1.0" encoding="utf-8"?>
<!-- Generator: Adobe Illustrator 27.1.1, SVG Export Plug-In . SVG Version: 6.00 Build 0)  -->
<svg version="1.1" id="Layer_1" xmlns="http://www.w3.org/2000/svg" xmlns:xlink="http://www.w3.org/1999/xlink" x="0px" y="0px"
	 viewBox="0 0 1265 951" style="enable-background:new 0 0 1265 951;" xml:space="preserve">
	 	 	 <style>


	#slack, #linkedin, #zoom, #zen, #mail, #sales, #gmail, #hubspot{
	animation:float 4s linear infinite;
	
	
}


#line1,#line,  #line2, #line3, #line4, #line5, #line6, #line7, #line8{
	fill:none;
	stroke:#000000;
	stroke-width:5;
	stroke-miterlimit:10;
 stroke-linecap: round;
  stroke-dasharray: 0.5 9.5;
	  animation: animate-up 400ms linear infinite, float 4s linear infinite;

}



	 @keyframes float {
	0% {
		transform: translatey(0px);
	}
	50% {
		transform: translatey(-10px);
	}
	100% {
		transform: translatey(0px);
	}
}


@keyframes animate-down {
  to {
    stroke-dashoffset: 10;
  }
}
@-webkit-keyframes animate-down {
  to {
    stroke-dashoffset: 10;
  }
}

@keyframes animate-up {
  to {
    stroke-dashoffset: -10;
  }
}
@-webkit-keyframes animate-up {
  to {
    stroke-dashoffset: -10;
  }
}


	 </style>
<polyline style="opacity:0.53;fill:#993399;enable-background:new    ;" points="538.4,-223.5 645.8,-226 671.9,-222.1 
	538.4,-222.1 "/>
<ellipse style="opacity:0.53;fill:#993399;enable-background:new    ;" cx="1644.1" cy="864.1" rx="55" ry="4.3"/>
<g id="line1">
	<g>
		<line  x1="439.3" y1="364.1" x2="443.9" y2="358.9"/>
		<line  x1="452.9" y1="348.6" x2="557" y2="230.3"/>
		<line  x1="561.5" y1="225.1" x2="566" y2="219.9"/>
	</g>
</g>
<g id="line2">
	<g>
		<line  x1="766.8" y1="364.1" x2="762.2" y2="358.9"/>
		<line  x1="753.2" y1="348.6" x2="649.1" y2="230.3"/>
		<line  x1="644.6" y1="225.1" x2="639.9" y2="219.9"/>
		
	</g>
</g>
<g>
	<ellipse style="opacity:0.53;fill:#993399;enable-background:new    ;" cx="619.6" cy="825.8" rx="139.9" ry="15.1"/>
	<path style="fill:#F6F5F8;stroke:#000000;stroke-width:1.9999;stroke-miterlimit:9.9995;" d="M619,816.4v-29.9h-23.6v29.9
		c-40.4,0.6-71.5,4.2-71.5,8.6c0,4.8,37.3,8.7,83.3,8.7s83.3-3.9,83.3-8.7C690.6,820.6,659.5,817,619,816.4z"/>
	<polygon style="fill:#F6F5F8;stroke:#000000;stroke-width:1.9999;stroke-miterlimit:9.9995;" points="257.3,788.7 234.2,356.5 
		989.2,360.1 952,788.7 	"/>
	<g>
		<polygon style="fill:#C8DBF9;stroke:#000000;stroke-width:2;stroke-miterlimit:10;" points="610.7,387 253.7,387 278.9,756.1 
			280.1,772.9 610.7,772.9 		"/>
		<polygon style="fill:#C8DBF9;stroke:#000000;stroke-width:2;stroke-miterlimit:10;" points="623,387 626.1,772.9 939.5,772.9 
			968.9,387 		"/>
	</g>
</g>
<g>
	<circle style="fill:#9999FF;stroke:#000000;stroke-width:2;stroke-miterlimit:10;" cx="389.6" cy="676.4" r="28.3"/>
	<g>
		
			<linearGradient id="SVGID_1_" gradientUnits="userSpaceOnUse" x1="379.7829" y1="-548.7446" x2="425.7128" y2="-548.7446" gradientTransform="matrix(1 0 0 1 0 1216)">
			<stop  offset="0" style="stop-color:#FFCC99"/>
			<stop  offset="1" style="stop-color:#FF9999"/>
		</linearGradient>
		<path style="fill:url(#SVGID_1_);stroke:#000000;stroke-width:2;stroke-miterlimit:10;" d="M425.7,636.4l-28.7,67
			c0,0-3.6,3.2-17.1-0.4l29.5-73.2"/>
		
			<linearGradient id="SVGID_00000033365643746584441570000001107742867616515745_" gradientUnits="userSpaceOnUse" x1="436.8754" y1="1650.9585" x2="440.3473" y2="1331.5387" gradientTransform="matrix(1 0 0 -1 0 2024)">
			<stop  offset="0" style="stop-color:#FFCC99"/>
			<stop  offset="1" style="stop-color:#FF9999"/>
		</linearGradient>
		
			<path style="fill:url(#SVGID_00000033365643746584441570000001107742867616515745_);stroke:#000000;stroke-width:2;stroke-miterlimit:10;" d="
			M585.8,540.4c-4.1-8.5-18.7-3.5-28.7,0.9c2.5-11.5,3.5-24.7,3.2-41.2c0,0,1.1-83-87.5-90.1S324,422.9,312.5,473.4
			c0,0-4.5,30.1,7.2,67c-10.1-4.3-24-8.7-28.1-0.5c-6.2,12.7,15.7,39.3,51.1,44.7c2.9,4,5.8,7.7,8,9.9c9.8,10.1,36.9,40.7,89.5,43.3
			c0,0,47.4,3.2,85.3-35.5c3.9-4,8.5-10.8,12.6-17.5C573.2,580,591.9,553.3,585.8,540.4z"/>
		<path style="fill:#E39179;" d="M537.3,519.6c-0.2-0.1-1.6-0.8-4.6-1.9c-9.5-3.3-31.8-8.4-73.5-6l-3.9,0.2l-0.2,3.9
			c0,0.1,0,0.5,0,1.1c-17.3-0.6-28.3,0.7-34.1,1.6c0-1.6-0.1-2.6-0.1-2.8l-0.2-3.9l-3.9-0.2c-41.7-2.4-63.9,2.7-73.5,6
			c-3,1-4.4,1.8-4.6,1.9c-2.1,1.1-2.9,3.6-1.8,5.7c1.1,2.1,3.6,2.9,5.7,1.8c0,0,0.4-0.2,1.2-0.5c0.2,33,13.4,48.6,24.5,55.8
			c8.1,5.3,17.2,7.5,25.1,7.5c5.2,0,9.8-0.9,13.4-2.5c0.2-0.1,0.3-0.2,0.5-0.2c0.1,0,0.1-0.1,0.2-0.1c0.1-0.1,0.2-0.2,0.3-0.2
			c0.1,0,0.1-0.1,0.2-0.1c0.1-0.1,0.2-0.2,0.3-0.2c0.1,0,0.1-0.1,0.2-0.1c0.1-0.1,0.2-0.2,0.3-0.2c0.1,0,0.1-0.1,0.2-0.1
			c0.2-0.1,0.2-0.2,0.4-0.3l0.1-0.1c0.2-0.2,0.3-0.2,0.5-0.4c0,0,0,0,0.1-0.1c0.3-0.3,0.7-0.7,1.1-1.1l0,0l0,0
			c3.7-4.4,7.5-14,9.1-36.3c0.6-7.7,0.7-15.1,0.8-20.9h34c0,5.7,0.2,13.2,0.8,20.9c1.6,22.2,5.4,31.8,9.1,36.3l0,0l0,0
			c0.3,0.4,0.7,0.8,1.1,1.1c0,0,0,0,0.1,0.1c0.2,0.2,0.3,0.3,0.5,0.4l0.1,0.1c0.2,0.1,0.2,0.2,0.4,0.3c0.1,0,0.1,0.1,0.2,0.1
			c0.1,0.1,0.2,0.2,0.3,0.2c0.1,0,0.1,0.1,0.2,0.1c0.1,0.1,0.2,0.2,0.3,0.2c0.1,0,0.1,0.1,0.2,0.1c0.1,0.1,0.2,0.2,0.3,0.2
			c0.1,0,0.1,0.1,0.2,0.1c0.2,0.1,0.3,0.2,0.5,0.2c3.5,1.6,8.2,2.5,13.4,2.5c7.9,0,17-2.2,25.1-7.5c11.1-7.2,24.2-22.8,24.5-55.8
			c0.8,0.3,1.2,0.5,1.2,0.5c2.1,1.1,4.6,0.2,5.7-1.8S539.3,520.6,537.3,519.6z M403.5,579.6c-5.7,2.6-19,3.1-30.4-4.3
			c-9.6-6.3-21-20.3-20.6-51.4c10.1-2.5,29.2-5.4,60.2-3.9C413.5,553.9,408.6,577.2,403.5,579.6z M463.6,520
			c31-1.5,50.1,1.5,60.2,3.9c0.4,31-11,45.1-20.6,51.4c-11.3,7.4-24.5,7-30.4,4.3C467.6,577.2,462.7,553.9,463.6,520z"/>
		<g>
			<circle cx="396.1" cy="541" r="13.2"/>
			<circle style="fill:#FFFFFF;" cx="398.7" cy="536.2" r="4.2"/>
		</g>
		<g>
			<circle cx="505.3" cy="538.9" r="13.2"/>
			
				<ellipse transform="matrix(0.6 -0.8 0.8 0.6 -224.1052 619.9922)" style="fill:#FFFFFF;" cx="507.9" cy="534.1" rx="4.2" ry="4.2"/>
		</g>
		<path style="fill:none;stroke:#000000;stroke-width:2;stroke-miterlimit:10;" d="M442.1,538.3v31.8c0,0,17.2,0.4,17.2,6.7
			s-6.3,12.6-21.1,12.6"/>
		<path style="fill:none;stroke:#000000;stroke-miterlimit:10;" d="M301.4,546c0,0,22.7,4.4,32.2,24.5"/>
		<path style="fill:none;stroke:#000000;stroke-miterlimit:10;" d="M574,546c0,0-19.3,9.8-27.7,24.5"/>
		<path d="M537.3,515.1c-0.2-0.1-1.6-0.8-4.6-1.9c-9.5-3.3-31.8-8.4-73.5-6l-3.9,0.2l-0.2,3.9c0,0.1,0,0.5,0,1.1
			c-17.3-0.6-28.3,0.7-34.1,1.6c0-1.6-0.1-2.6-0.1-2.8l-0.2-3.9l-3.9-0.2c-41.7-2.4-63.9,2.7-73.5,6c-3,1-4.4,1.8-4.6,1.9
			c-2.1,1.1-2.9,3.6-1.8,5.7c1.1,2.1,3.6,2.9,5.7,1.8c0,0,0.4-0.2,1.2-0.5c0.2,33,13.4,48.6,24.5,55.8c8.1,5.3,17.2,7.5,25.1,7.5
			c5.2,0,9.8-0.9,13.4-2.5c0.2-0.1,0.3-0.2,0.5-0.2c0.1,0,0.1-0.1,0.2-0.1c0.1-0.1,0.2-0.2,0.3-0.2c0.1,0,0.1-0.1,0.2-0.1
			c0.1-0.1,0.2-0.2,0.3-0.2c0.1,0,0.1-0.1,0.2-0.1c0.1-0.1,0.2-0.2,0.3-0.2c0.1,0,0.1-0.1,0.2-0.1c0.2-0.1,0.2-0.2,0.4-0.3l0.1-0.1
			c0.2-0.2,0.3-0.2,0.5-0.4c0,0,0,0,0.1-0.1c0.3-0.3,0.7-0.7,1.1-1.1l0,0l0,0c3.7-4.4,7.5-14,9.1-36.3c0.6-7.7,0.7-15.1,0.8-20.9h34
			c0,5.7,0.2,13.2,0.8,20.9c1.6,22.2,5.4,31.8,9.1,36.3l0,0l0,0c0.3,0.4,0.7,0.8,1.1,1.1c0,0,0,0,0.1,0.1c0.2,0.2,0.3,0.3,0.5,0.4
			l0.1,0.1c0.2,0.1,0.2,0.2,0.4,0.3c0.1,0,0.1,0.1,0.2,0.1c0.1,0.1,0.2,0.2,0.3,0.2c0.1,0,0.1,0.1,0.2,0.1c0.1,0.1,0.2,0.2,0.3,0.2
			c0.1,0,0.1,0.1,0.2,0.1c0.1,0.1,0.2,0.2,0.3,0.2c0.1,0,0.1,0.1,0.2,0.1c0.2,0.1,0.3,0.2,0.5,0.2c3.5,1.6,8.2,2.5,13.4,2.5
			c7.9,0,17-2.2,25.1-7.5c11.1-7.2,24.2-22.8,24.5-55.8c0.8,0.3,1.2,0.5,1.2,0.5c2.1,1.1,4.6,0.2,5.7-1.8S539.3,516.2,537.3,515.1z
			 M403.5,575.1c-5.7,2.6-19,3.1-30.4-4.3c-9.6-6.3-21-20.3-20.6-51.4c10.1-2.5,29.2-5.4,60.2-3.9
			C413.5,549.4,408.6,572.7,403.5,575.1z M463.6,515.5c31-1.5,50.1,1.5,60.2,3.9c0.4,31-11,45.1-20.6,51.4
			c-11.3,7.4-24.5,7-30.4,4.3C467.6,572.7,462.7,549.4,463.6,515.5z"/>
		<path style="fill:#28252A;stroke:#000000;stroke-miterlimit:10;" d="M343.6,582.6c0,0,4-14.8-11.2-60.7c0,0,20.5-25.9,5.8-75.4
			c0,0,14.4,32.2,38.9,24.5c0,0,10.2,21.3,37.3,0c0,0,16,18.2,36.4,3.7s15-24,15-24s2.1,35.9,39,28.5c0,0-0.4,31.6,31.9,26.3
			c0,0-6.6,29.5,9.2,44.2l-21.1,53.8c0,0,44.6-32.7,35.5-109.7c0,0,18.8-24.8,9.4-59.6c0,0,7.5-9.5,2.7-17.4c0,0,10-22.7-14.3-33.2
			c0,0-2.1-44.2-36.9-33.7c0,0-19.6-56.1-67.8-19c0,0-21.8-19.9-46,7.5c0,0-14.8-21.1-32.7-9.5c-17.9,11.6-7.9,31-7.9,31
			s-49.1,8-50.1,20.6s8.5,16.9,8.5,16.9s-35.9,15.8-19,46.4c0,0,6.3,6.3,12.6,2.1c0,0-25.3,35.9-3.2,72.7
			C315.7,518.8,318.8,551.5,343.6,582.6z"/>
		<g>
			<path d="M434.4,621.9c-26.4,0-42-18.9-42.1-19.1l0.6-0.5c0.2,0.2,16.9,20.5,45,18.7l0.1,0.8C436.7,621.8,435.5,621.9,434.4,621.9
				z"/>
		</g>
		<path d="M392.3,602.8c0,0,9.1,17.9,17.8,21.7c8.7,3.8,27.9-2.7,27.9-2.7S416.3,623.3,392.3,602.8z"/>
	</g>
</g>
<g id="closed">
	<g>
		
			<linearGradient id="SVGID_00000132053615890920963270000016040865588083411642_" gradientUnits="userSpaceOnUse" x1="402.2346" y1="1042.2893" x2="385.2481" y2="991.595" gradientTransform="matrix(1 0 0 -1 0 1560)">
			<stop  offset="0" style="stop-color:#FFCC99"/>
			<stop  offset="1" style="stop-color:#FF9999"/>
		</linearGradient>
		<circle style="fill:url(#SVGID_00000132053615890920963270000016040865588083411642_);" cx="394.9" cy="539.6" r="16.3"/>
		<g>
			<path d="M414.7,541.6c-0.1,0-0.1,0-0.2,0c-15.1-3.6-38.8-0.3-39-0.3c-0.4,0.1-0.8-0.2-0.9-0.6c-0.1-0.4,0.2-0.8,0.6-0.9
				c0.2,0,24.2-3.4,39.6,0.3c0.4,0.1,0.7,0.5,0.6,0.9C415.3,541.3,415,541.6,414.7,541.6z"/>
		</g>
	</g>
	<g>
		
			<linearGradient id="SVGID_00000116956246020962405290000000471175822583122111_" gradientUnits="userSpaceOnUse" x1="3310.627" y1="1042.3688" x2="3293.6404" y2="991.6743" gradientTransform="matrix(-1 0 0 -1 3807.0991 1560)">
			<stop  offset="0" style="stop-color:#FFCC99"/>
			<stop  offset="1" style="stop-color:#FF9999"/>
		</linearGradient>
		<circle style="fill:url(#SVGID_00000116956246020962405290000000471175822583122111_);" cx="503.8" cy="539.5" r="16.3"/>
		<g>
			<path d="M484,541.5c0.1,0,0.1,0,0.2,0c15.1-3.6,38.8-0.3,39-0.3c0.4,0.1,0.8-0.2,0.9-0.6c0.1-0.4-0.2-0.8-0.6-0.9
				c-0.2,0-24.2-3.4-39.6,0.3c-0.4,0.1-0.7,0.5-0.6,0.9C483.3,541.3,483.7,541.5,484,541.5z"/>
		</g>
		
	</g>
		<animate  accumulate="none" additive="replace" attributeName="display" begin="0s" 
			calcMode="linear" dur="5s" fill="remove" id="eyes                                
			 " keyTimes="0;  0.9;  1" repeatCount="indefinite" restart="always" values="none;inline;none">
			</animate>
</g>
<g id="Nol">
	<g>
		<circle style="fill:#F6F5F8;stroke:#000000;stroke-width:2;stroke-miterlimit:10;" cx="601.3" cy="157.3" r="84.8"/>
		<path style="opacity:0.31;fill:#CCCCCC;enable-background:new    ;" d="M609.8,223.2c-42.4,0-76.8-34.5-76.8-76.8
			c0-13.9,3.4-27,10.1-37.9c-12.5,13.5-20.2,31.8-20.2,51.8c0,42.4,34.5,76.8,76.8,76.8c28.5,0,53.5-15.8,66.9-38.9
			C652.7,213.6,632.3,223.2,609.8,223.2z"/>
	</g>
	<g>
		<g>
			<g>
				<g>
					<g>
						<g>
							<g>
								<g>
									<g>
										<g>
											<defs>
												
													<rect id="SVGID_00000163778032605187156760000008335092098470973368_" x="557.1" y="90" transform="matrix(0.9903 -0.1387 0.1387 0.9903 -16.0776 83.985)" width="74.9" height="134.7"/>
											</defs>
											<clipPath id="SVGID_00000121970756757986644990000006543796268529005472_">
												<use xlink:href="#SVGID_00000163778032605187156760000008335092098470973368_"  style="overflow:visible;"/>
											</clipPath>
											<g style="clip-path:url(#SVGID_00000121970756757986644990000006543796268529005472_);">
												<g>
													<path style="fill:#D6C2ED;" d="M636.1,184.8l3.9,28.1c0.6,4.5-3.4,8-6.7,7l-56.9-7.1l3-0.4c0,0,0,0-0.1-1.5
														s1-3.1,2.5-3.3c0,0,0,0,1.5-0.1l49.1-16C634,191,636.5,187.6,636.1,184.8L636.1,184.8z"/>
												</g>
												<g>
													<path style="fill:#061123;" d="M623,91.4l3.9,28.1c-0.4-3-3.6-4-5.1-3.7l-53.3-3.1c0,0,0,0-1.5,0.1
														c0,0-1.6-1.2-1.9-2.7c-0.1-1.5-0.1-1.5-0.1-1.5l-1.5,0.1l51.2-22.3C617.6,84.6,622.4,87,623,91.4L623,91.4z"/>
												</g>
												
													<linearGradient id="SVGID_00000176739108902667908730000007923836191808426918_" gradientUnits="userSpaceOnUse" x1="354.409" y1="2871.2051" x2="454.1618" y2="2825.8145" gradientTransform="matrix(0.9903 -0.1387 0.1387 0.9903 -231.4129 -2578.5671)">
													<stop  offset="2.000000e-02" style="stop-color:#6A9EFF"/>
													<stop  offset="1" style="stop-color:#CAB5FF"/>
												</linearGradient>
												<path style="fill:url(#SVGID_00000176739108902667908730000007923836191808426918_);" d="M627,119.5l9.2,65.2l0,0
													l3.9,28.1c0.6,4.5-3.4,8-6.7,7l-56.9-7l-7.8-1.9c-3,0.4-4.6-0.9-5.1-3.7l0,0l-12.6-89l0,0c-0.1-1.5,0.9-4.6,3.7-5.1
													l8.4-4.2l1.5-0.1c0,0,0,0,0.1,1.5s1.9,2.7,3.3,2.5c0,0,0,0,1.5-0.1l51.7,1.8C623.1,114,626.6,116.5,627,119.5L627,119.5
													z"/>
											</g>
										</g>
									</g>
								</g>
							</g>
						</g>
					</g>
				</g>
			</g>
		</g>
	</g>
</g>
<g>
	<path style="fill:#28252A;stroke:#000000;stroke-miterlimit:10;" d="M670,501.8c0,0,0.7,75.5,41.2,133.5l11.9-168.5l-31.5,14.7"/>
	<circle style="fill:#9999FF;stroke:#000000;stroke-width:2;stroke-miterlimit:10;" cx="799.5" cy="672.8" r="28.3"/>
	
		<linearGradient id="SVGID_00000132070736632492607590000005472005430295171740_" gradientUnits="userSpaceOnUse" x1="4361.7153" y1="-553.3516" x2="4406.8169" y2="-553.3516" gradientTransform="matrix(-1 0 0 1 5173.3438 1216)">
		<stop  offset="0" style="stop-color:#FFCC99"/>
		<stop  offset="1" style="stop-color:#FF9999"/>
	</linearGradient>
	
		<path style="fill:url(#SVGID_00000132070736632492607590000005472005430295171740_);stroke:#000000;stroke-width:2;stroke-miterlimit:10;" d="
		M766.5,632l27.8,66.7c0,0,7,3.7,17.1-1.4l-28.6-72"/>
	
		<linearGradient id="SVGID_00000062186435927692079000000001735560379724642739_" gradientUnits="userSpaceOnUse" x1="674.8" y1="1018.5756" x2="860.1151" y2="1018.5756" gradientTransform="matrix(1 0 0 -1 0 1560)">
		<stop  offset="0" style="stop-color:#FFCC99"/>
		<stop  offset="1" style="stop-color:#FF9999"/>
	</linearGradient>
	
		<path style="fill:url(#SVGID_00000062186435927692079000000001735560379724642739_);stroke:#000000;stroke-width:2;stroke-miterlimit:10;" d="
		M676.2,526.2c0,0,5.6,110.4,81.1,107.7c75.5-2.8,79.7-91.6,79.7-91.6s23.8-5.6,23.1-20.3s-12.6-27.3-18.2-25.2s-14,7-14,7l1.4-54.9
		l-154.5,32.9L676.2,526.2z"/>
	<path style="fill:none;stroke:#000000;stroke-linecap:round;stroke-miterlimit:10;" d="M722.6,558.4c0,0,0.8-6.7,5.1-8
		s10.3,4.8,10.3,4.8"/>
	<path style="fill:none;stroke:#000000;stroke-width:2;stroke-linecap:round;stroke-miterlimit:10;" d="M725.2,590.9
		c0,0,21.8,12.1,47.2-0.9"/>
	<path style="fill:#28252A;stroke:#000000;stroke-miterlimit:10;" d="M858.1,526.3c-1,6.2-5.2,12.9-21.1,16.1l-14,53.5
		c0,0,3.1,17.8,0,30.4c0,0,64-91.2,56.6-133.2S846,413.4,810.4,404c-35.7-9.4-68.2,9.4-68.2,9.4s-62.9,1-86,28.3s4.2,71.3,4.2,71.3
		s52.4-9.4,78.6-44c0,0,17.8,25.2,50.3,26.2l-2.1-18.9c0,0,19.9,16.8,31.5,90.2l13.7-63.3l0.6-0.4c0,0,11.1-9.1,17.2-2.4
		C858.5,509.5,858.1,526.3,858.1,526.3z"/>
	<path style="fill:none;stroke:#000000;stroke-width:2;stroke-linecap:round;stroke-miterlimit:10;" d="M846.1,508.3
		c0,0-7.9,5.6-6.5,20.5"/>
	<g id="eyes">
		<g id="f1">
			<g>
				<g>
					<path style="fill:#FFFFFF;stroke:#000000;stroke-miterlimit:10;" d="M751.6,535.3c0,0-2.2-10.1,7.8-17.2c0,0,13.4,1.3,29.1,13
						c0,0-8.6,12.8-20.2,14.3c-11.6,1.5-15.6-3.9-16.8-10.4"/>
					<path style="fill:none;stroke:#000000;stroke-width:2;stroke-linecap:round;stroke-miterlimit:10;" d="M751.5,517.3
						c0,0,21.1,1.2,37,13.9"/>
					<circle cx="758.9" cy="531.8" r="4.4"/>
					<path style="fill:#C9BDB8;" d="M766.4,542.5c0,0,10.6-2.9,14.7-10.4l3,1.1C784.2,533.1,778.2,543.6,766.4,542.5z"/>
				</g>
				<g>
					<path style="fill:#FFFFFF;stroke:#000000;stroke-miterlimit:10;" d="M703.5,541.2c0,0-1.8-2.1-1.2-6.6s8.3-11.3,11-11.3
						s9,10.6,10.6,14c1.7,3.4,0.8,6.6-1.3,7.4C720.6,545.5,712.6,549.9,703.5,541.2z"/>
					<circle cx="710.5" cy="535" r="3.8"/>
					<path style="fill:#C9BDB8;" d="M704.9,535.6c0,0,4.6,6.2,9.3,7.9c0,0-6.3,0.1-10.1-5.3L704.9,535.6z"/>
				</g>
				<path style="fill:none;stroke:#000000;stroke-width:2;stroke-linecap:round;stroke-miterlimit:10;" d="M702.3,538.7
					c0,0-2.8-11.4,13.4-16.3"/>
			</g>
			<path d="M741.3,515.6l22.9-15.4l18.2,8.2l-16.9-12c0,0-11,2.4-26,17.1L741.3,515.6z"/>
			<path d="M691.6,520.5c0.7-0.3,7.1-7.2,9.6-6.6c2.5,0.6,20.4,5.3,20.4,5.3s-18.2-8.9-20.2-9.1s-11.1,7.2-11.1,7.2L691.6,520.5z"/>
					<animate  accumulate="none" additive="replace" attributeName="display" begin="0s" 
			calcMode="linear" dur="5s" fill="remove" id="eyes                                
			 " keyTimes="0;  0.9;  1" repeatCount="indefinite" restart="always" values="inline;none;none">
			</animate>

		
		</g>
		<g id="f2">
			<g>
				<g>
					
						<linearGradient id="SVGID_00000015331238175385824850000013299395475738017459_" gradientUnits="userSpaceOnUse" x1="698.1613" y1="1025.6818" x2="727.7581" y2="1025.6818" gradientTransform="matrix(1 0 0 -1 0 1560)">
						<stop  offset="0.1232" style="stop-color:#FFCC99"/>
						<stop  offset="0.1788" style="stop-color:#FFCC99"/>
					</linearGradient>
					<path style="fill:url(#SVGID_00000015331238175385824850000013299395475738017459_);" d="M698.4,539.3c0,0-3.5-12.8,16.3-19.6
						c0,0,9.1,8.9,13,20.3l-0.5,4.9C727.3,544.9,711,557,698.4,539.3z"/>
					<g>
						<path d="M729.4,544.7L729.4,544.7c-19.5-2.6-34.9-13.8-35-13.9c-0.4-0.3-0.5-1-0.2-1.4s1-0.5,1.4-0.2
							c0.1,0.1,15.2,11.1,34,13.6c0.5,0.1,0.9,0.6,0.9,1.1C730.3,544.3,729.9,544.7,729.4,544.7z"/>
					</g>
				</g>
				<polygon points="694.7,523.9 694,520.9 705.6,514.8 728.9,528.6 704,519.7 				"/>
			</g>
			<g>
				
					<linearGradient id="SVGID_00000128453336221265644440000014101019693823226764_" gradientUnits="userSpaceOnUse" x1="746.5477" y1="1027.8922" x2="793.6641" y2="1027.8922" gradientTransform="matrix(1 0 0 -1 0 1560)">
					<stop  offset="0" style="stop-color:#FFCC99"/>
					<stop  offset="1" style="stop-color:#FF9999"/>
				</linearGradient>
				<path style="fill:url(#SVGID_00000128453336221265644440000014101019693823226764_);" d="M746.6,524.6c0,0-1.2-7.7,7.9-9.6
					c9.1-1.9,30.5,4.7,39.1,15.6c0,0-13,17.7-28.7,18.9C749.4,550.7,746.6,524.6,746.6,524.6z"/>
				<polygon points="743.1,516.9 765.5,507.1 789,521.1 763.4,512.3 744.3,520.4 				"/>
				<g>
					<path d="M746.8,541c-0.5,0-0.9-0.3-1-0.8s0.3-1.1,0.8-1.1c0.3-0.1,31.5-5.2,50.7-15.5c0.5-0.3,1.1-0.1,1.4,0.4
						c0.3,0.5,0.1,1.1-0.4,1.4c-19.5,10.4-51,15.7-51.3,15.7C747,541,746.9,541,746.8,541z"/>
				</g>
			</g>
				<animate  accumulate="none" additive="replace" attributeName="display" begin="0s" 
			calcMode="linear" dur="5s" fill="remove" id="eyes                                
			 " keyTimes="0;  0.9;  1" repeatCount="indefinite" restart="always" values="none;inline;none">
			</animate>
			
		</g>
	</g>
</g>
</svg>
