<?xml version="1.0" encoding="utf-8"?>
<!-- Generator: Adobe Illustrator 27.1.1, SVG Export Plug-In . SVG Version: 6.00 Build 0)  -->
<svg version="1.1" id="Layer_1" xmlns="http://www.w3.org/2000/svg" xmlns:xlink="http://www.w3.org/1999/xlink" x="0px" y="0px"
	 viewBox="0 0 42 47" style="enable-background:new 0 0 42 47;" xml:space="preserve">
<style type="text/css">
	.st0{fill:url(#SVGID_1_);fill-opacity:0.1;}
	.st1{clip-path:url(#SVGID_00000028318201736233717800000015042301998024655250_);}
	.st2{fill:#D6C2ED;}
	.st3{fill:#061123;}
	.st4{fill:url(#SVGID_00000035503849477467621630000009026345817017602432_);}
</style>
<radialGradient id="SVGID_1_" cx="904.9223" cy="-1813.5256" r="1" gradientTransform="matrix(1.298180e-02 1.5582 -18.095 0.1508 -32804.832 -1094.7222)" gradientUnits="userSpaceOnUse">
	<stop  offset="0" style="stop-color:#000000"/>
	<stop  offset="1" style="stop-color:#000000;stop-opacity:0"/>
</radialGradient>
<path class="st0" d="M22.6,38.1C33.3,38,42,39.7,42,41.8c0,2.2-8.7,4-19.4,4.1C11.9,46,3.2,44.3,3.2,42.2S11.8,38.2,22.6,38.1z"/>
<g>
	<g>
		<defs>
			<rect id="SVGID_00000085213422701737501370000010794550507680938656_" x="11.4" y="5.1" width="19.3" height="32.1"/>
		</defs>
		<clipPath id="SVGID_00000105387133879467789600000018000801842551626652_">
			<use xlink:href="#SVGID_00000085213422701737501370000010794550507680938656_"  style="overflow:visible;"/>
		</clipPath>
		<g style="clip-path:url(#SVGID_00000105387133879467789600000018000801842551626652_);">
			<g>
				<path class="st2" d="M30.6,29.1v6.7c0,0.9-1,1.5-2.1,1.3l-13.9-3.6l0.8,0.1c-0.3,0-0.3-0.1-0.3-0.3c0-0.4,0.3-0.6,0.6-0.8
					c0.1,0,0.1,0,0.3,0l13.2-2.2C30,30.3,30.5,29.8,30.6,29.1L30.6,29.1z"/>
			</g>
			<g>
				<path class="st3" d="M30.6,6.5v6.7c-0.1-0.6-0.6-1.2-1.3-1.3L16.1,9.7c-0.1,0-0.1,0-0.3,0c-0.4-0.1-0.6-0.5-0.6-0.8
					c0-0.1,0-0.3,0.1-0.4l-0.6,0.1l13.9-3.6C29.6,4.9,30.6,5.6,30.6,6.5L30.6,6.5z"/>
			</g>
			
				<linearGradient id="SVGID_00000138546460431507287620000015720474996897484172_" gradientUnits="userSpaceOnUse" x1="-7.909288e-02" y1="1484.5999" x2="24.8951" y2="1472.3265" gradientTransform="matrix(1 0 0 1 0 -1451)">
				<stop  offset="2.000000e-02" style="stop-color:#6A9EFF"/>
				<stop  offset="1" style="stop-color:#CAB5FF"/>
			</linearGradient>
			<path style="fill:url(#SVGID_00000138546460431507287620000015720474996897484172_);" d="M30.6,13.3v15.8v0.1v6.7
				c0,0.9-1,1.5-2.1,1.3l-13.9-3.6l-2.2-0.5c-0.6-0.1-1-0.6-1.2-1.2v-0.1V10.5v-0.1c0-0.5,0.5-0.9,1.2-1.2l2.2-0.5l0.6-0.1
				c-0.1,0.1-0.1,0.3-0.1,0.4c0,0.4,0.3,0.6,0.6,0.8c0.1,0,0.1,0,0.3,0l13.2,2.2c0.8,0.1,1.3,0.6,1.3,1.3
				C30.6,13.2,30.6,13.2,30.6,13.3z"/>
		</g>
	</g>
</g>
</svg>
